<svg xmlns="http://www.w3.org/2000/svg" width="25.82113830719709" height="25.008130189723033"><rect id="backgroundrect" width="100%" height="100%" x="0" y="0" fill="none" stroke="none" class="" style=""/>
    
<g class="currentLayer" style=""><title>Layer 1</title><path style="text-indent:0;text-align:start;line-height:normal;text-transform:none;block-progression:tb;-inkscape-font-specification:Bitstream Vera Sans" d="M10.259001831165975,3.9796748482520314 L10.259001831165975,5.774283311021264 L15.562137330402393,5.774283311021264 L15.562137330402393,3.9796748482520314 L10.259001831165975,3.9796748482520314 zM12.910569580784184,6.671587542405881 C7.3466605248472465,6.671587542405881 2.8121148172777617,11.01357811217138 2.3595395770950596,16.541934087636662 L1.4204426657719442,16.541934087636662 L0.5365867492325401,16.541934087636662 L0.5365867492325401,17.43923831902128 L0.5365867492325401,20.131151013175128 L0.5365867492325401,21.028455244559744 L1.4204426657719442,21.028455244559744 L24.400696495796424,21.028455244559744 L25.284552412335827,21.028455244559744 L25.284552412335827,20.131151013175128 L25.284552412335827,17.43923831902128 L25.284552412335827,16.541934087636662 L24.400696495796424,16.541934087636662 L23.46159958447331,16.541934087636662 C23.009024697832974,11.01357811217138 18.474478813492308,6.671587542405881 12.910569580784184,6.671587542405881 zM12.910569580784184,8.466196005175114 C17.53066211157487,8.466196005175114 21.257530736966746,11.977145569131055 21.693887751394502,16.541934087636662 L4.127251410173866,16.541934087636662 C4.563608247830437,11.977145569131055 8.2904770499935,8.466196005175114 12.910569580784184,8.466196005175114 zM2.304298582311347,18.336542550405895 L23.51684057925702,18.336542550405895 L23.51684057925702,19.23384678179051 L2.304298582311347,19.23384678179051 L2.304298582311347,18.336542550405895 z" overflow="visible" font-family="Bitstream Vera Sans" id="svg_1" class="selected" stroke-width="2" fill-opacity="1" fill="#c4cdd4"/></g></svg>