<svg xmlns="http://www.w3.org/2000/svg" width="24.887468182399118" height="25.20460358854732" style=""><rect id="backgroundrect" width="100%" height="100%" x="0" y="0" fill="none" stroke="none" class="" style=""/>
    
<g class="currentLayer" style=""><title>Layer 1</title><path style="line-height:normal;text-indent:0;text-align:start;text-decoration-line:none;text-decoration-style:solid;text-decoration-color:#39444d;text-transform:none;block-progression:tb;isolation:auto;mix-blend-mode:normal" d="M5.765270330760851,0.9380446841215784 C4.195771266386004,0.9380446841215784 2.903071274819313,2.2550726659110807 2.903071274819313,3.854108945526836 L2.903071274819313,21.350494513958388 C2.903071274819313,22.949530015957006 4.195771266386004,24.26655877536365 5.765270330760851,24.26655877536365 L21.984398314429573,24.26655877536365 L21.984398314429573,22.322515934426807 L5.765270330760851,22.322515934426807 C5.228190889962725,22.322515934426807 4.811203978780338,21.897682308354035 4.811203978780338,21.350494513958388 C4.811203978780338,20.80330671956273 5.228190889962725,20.37847309348997 5.765270330760851,20.37847309348997 L20.076265610468543,20.37847309348997 L21.984398314429573,20.37847309348997 L21.984398314429573,18.434430252553128 L21.984398314429573,0.9380446841215784 L5.765270330760851,0.9380446841215784 zM5.765270330760851,2.8820875250584157 L20.076265610468543,2.8820875250584157 L20.076265610468543,18.434430252553128 L5.765270330760851,18.434430252553128 C5.430068467842747,18.434430252553128 5.11125784647821,18.50661839536564 4.811203978780338,18.61668426889096 L4.811203978780338,3.854108945526836 C4.811203978780338,3.30692192874832 5.228190889962725,2.8820875250584157 5.765270330760851,2.8820875250584157 z" font-weight="400" font-family="sans-serif" white-space="normal" overflow="visible" id="svg_1" class="selected" fill="#39444d" fill-opacity="1" stroke-width="2"/></g></svg>