<svg xmlns="http://www.w3.org/2000/svg" width="26.237762207914727" height="26.678321655936045" style=""><rect id="backgroundrect" width="100%" height="100%" x="0" y="0" fill="none" stroke="none" class="" style=""/>
    
<g class="currentLayer" style=""><title>Layer 1</title><path style="line-height:normal;text-indent:0;text-align:start;text-decoration-line:none;text-decoration-style:solid;text-decoration-color:#39444d;text-transform:none;block-progression:tb;isolation:auto;mix-blend-mode:normal" d="M5.8040524979260955,0.5634649822029298 C4.08500231444545,0.5634649822029298 2.6691262504649433,2.0059871506670337 2.6691262504649433,3.7573890293043846 L2.6691262504649433,22.92093331191312 C2.6691262504649433,24.67233433883739 4.08500231444545,26.11485735901458 5.8040524979260955,26.11485735901458 L23.568634566872632,26.11485735901458 L23.568634566872632,23.985574660946938 L5.8040524979260955,23.985574660946938 C5.215796963275331,23.985574660946938 4.75907708210571,23.520260383655515 4.75907708210571,22.92093331191312 C4.75907708210571,22.321606240170713 5.215796963275331,21.8562919628793 5.8040524979260955,21.8562919628793 L21.478683735231858,21.8562919628793 L23.568634566872632,21.8562919628793 L23.568634566872632,19.727009264811663 L23.568634566872632,0.5634649822029298 L5.8040524979260955,0.5634649822029298 zM5.8040524979260955,2.6927476802705645 L21.478683735231858,2.6927476802705645 L21.478683735231858,19.727009264811663 L5.8040524979260955,19.727009264811663 C5.436910626336678,19.727009264811663 5.0877218503812225,19.80607591923901 4.75907708210571,19.926629517755508 L4.75907708210571,3.7573890293043846 C4.75907708210571,3.158062809275062 5.215796963275331,2.6927476802705645 5.8040524979260955,2.6927476802705645 z" font-weight="400" font-family="sans-serif" white-space="normal" overflow="visible" id="svg_1" class="" fill="#39444d" fill-opacity="1" stroke-width="2"/></g></svg>