<svg xmlns="http://www.w3.org/2000/svg" width="25.686098098754883" height="25.86547088623047" style=""><rect id="backgroundrect" width="100%" height="100%" x="0" y="0" fill="none" stroke="none" class="" style=""/>
    
<g class="currentLayer" style=""><title>Layer 1</title><path style="line-height:normal;text-indent:0;text-align:start;text-decoration-line:none;text-decoration-style:solid;text-decoration-color:#000;text-transform:none;block-progression:tb;isolation:auto;mix-blend-mode:normal" d="M7.743842771691334,0.6966991797316382 A1.0192782815814019,1.0192782815814019 0 1 0 7.743842771691334,2.735051907621653 L8.763019135636341,2.735051907621653 L8.763019135636341,8.049897450246819 L1.2147441901686307,20.287975827177316 C-0.2397472667205698,22.258096735853943 1.2361305869896526,25.16787379185513 3.6830619465979453,25.164893720166955 L22.016292769799005,25.16887462304452 C24.446070372025737,25.16296340013364 25.91130150176765,22.288354043746743 24.48859244828225,20.319825088550598 L16.9164300471964,8.05387855695966 L16.9164300471964,2.735051907621653 L17.935606411141407,2.735051907621653 A1.0192782815814019,1.0192782815814019 0 1 0 17.935606411141407,0.6966991797316382 L7.743842771691334,0.6966991797316382 zM10.801371863526356,2.735051907621653 L14.878077319306385,2.735051907621653 L14.878077319306385,8.631146368391567 L15.029361412747111,8.873997139239293 L17.52952781904389,12.926815547071726 L8.14992095611831,12.926815547071726 L10.801371863526356,8.631146368391567 L10.801371863526356,2.735051907621653 zM6.891874928038419,14.96516827496174 L18.787574662464866,14.96516827496174 L22.812524304131042,21.482324147851738 L22.836411759749186,21.51417340922502 C23.35745956075789,22.235118385552436 22.90620495715214,23.12551366250208 22.016292769799005,23.130521895154505 L3.6790808398851036,23.12654099227694 C2.77903538961581,23.127723236859115 2.320040345361173,22.22282915695599 2.854981150892627,21.498247759362012 L2.8828493055530657,21.46639849798873 L6.891874928038419,14.96516827496174 z" font-weight="400" font-family="sans-serif" white-space="normal" overflow="visible" id="svg_1" class="" fill-opacity="1" fill="#39444d"/><polyline fill="none" stroke="#000000" stroke-dashoffset="" fill-rule="nonzero" marker-start="" marker-mid="" marker-end="" id="svg_2" points="8.269060296089307,18.80717439706325 8.269060296089307,18.80717439706325 " style="color: rgb(57, 68, 77);"/><path fill="#39444d" fill-opacity="1" stroke="#39444d" stroke-opacity="1" stroke-width="0" stroke-dasharray="none" stroke-linejoin="miter" stroke-linecap="butt" stroke-dashoffset="" fill-rule="nonzero" opacity="1" marker-start="" marker-mid="" marker-end="" d="M8.820627970834357,17.64798165111172 C8.820627970834357,16.893577939265235 9.431694977430015,16.28251093266958 10.186098689276502,16.28251093266958 C10.940502401122986,16.28251093266958 11.551569407718643,16.893577939265235 11.551569407718643,17.64798165111172 C11.551569407718643,18.40238536295821 10.940502401122986,19.01345236955386 10.186098689276502,19.01345236955386 C9.431694977430015,19.01345236955386 8.820627970834357,18.40238536295821 8.820627970834357,17.64798165111172 z" id="svg_3" class=""/><path fill="#39444d" fill-opacity="1" stroke="#39444d" stroke-opacity="1" stroke-width="0" stroke-dasharray="none" stroke-linejoin="miter" stroke-linecap="butt" stroke-dashoffset="" fill-rule="nonzero" opacity="1" marker-start="" marker-mid="" marker-end="" d="M13.573991510298754,19.396860535736856 C13.573991510298754,18.270829279224472 14.486076828073784,17.35874396144944 15.612108084586168,17.35874396144944 C16.73813934109855,17.35874396144944 17.650224658873583,18.270829279224472 17.650224658873583,19.396860535736856 C17.650224658873583,20.522891792249236 16.73813934109855,21.43497711002427 15.612108084586168,21.43497711002427 C14.486076828073784,21.43497711002427 13.573991510298754,20.522891792249236 13.573991510298754,19.396860535736856 z" class="" id="svg_4"/></g></svg>