<svg xmlns="http://www.w3.org/2000/svg" width="25.686" height="25.865"><rect id="backgroundrect" width="100%" height="100%" x="0" y="0" fill="none" stroke="none"/><g class="currentLayer"><path style="text-indent:0;text-align:start;text-transform:none;block-progression:tb;isolation:auto;mix-blend-mode:normal;line-height:normal;text-decoration-line:none;text-decoration-style:solid;text-decoration-color:#000" d="M7.744.697a1.02 1.02 0 1 0 0 2.038h1.019V8.05L1.215 20.288c-1.455 1.97.021 4.88 2.468 4.877l18.333.004c2.43-.006 3.895-2.88 2.473-4.85L16.916 8.055V2.735h1.02a1.02 1.02 0 1 0 0-2.038H7.744zM10.8 2.735h4.077v5.896l.151.243 2.5 4.053H8.15l2.652-4.296V2.735zm-3.91 12.23h11.897l4.025 6.517.023.032c.521.721.07 1.612-.82 1.617L3.68 23.127c-.9 0-1.359-.904-.824-1.629l.028-.032 4.009-6.5z" font-weight="400" font-family="sans-serif" overflow="visible" id="svg_1" fill-opacity="1" fill="#39444d"/><path fill="none" stroke="#000" fill-rule="nonzero" id="svg_2" style="color:#39444d" d="M8.27 18.807"/><path fill="#39444d" fill-opacity="1" stroke="#39444d" stroke-opacity="1" stroke-width="0" stroke-dasharray="none" stroke-linejoin="miter" stroke-linecap="butt" fill-rule="nonzero" opacity="1" d="M8.82 17.648a1.365 1.365 0 1 1 2.73 0 1.365 1.365 0 0 1-2.73 0z" id="svg_3"/><path fill="#39444d" fill-opacity="1" stroke="#39444d" stroke-opacity="1" stroke-width="0" stroke-dasharray="none" stroke-linejoin="miter" stroke-linecap="butt" fill-rule="nonzero" opacity="1" d="M13.574 19.397a2.038 2.038 0 1 1 4.075-.001 2.038 2.038 0 0 1-4.075 0z" id="svg_4"/></g></svg>