<svg xmlns="http://www.w3.org/2000/svg" width="26.685714721679688" height="26.885713577270508" style=""><rect id="backgroundrect" width="100%" height="100%" x="0" y="0" fill="none" stroke="none" class="" style=""/>
  <defs>
    <style>
      .cls-1 {
        fill: #f9003c;
        stroke: #f9003c;
        stroke-width: 0.5px;
      }
    </style>
  </defs>
  
<g class="currentLayer" style=""><title>Layer 1</title><g id="Component_12_1" data-name="Component 12 – 1" class="selected">
    <g id="Group_363" data-name="Group 363">
      <g id="Group_362" data-name="Group 362">
        <g id="Group_361" data-name="Group 361">
          <g id="Group_356" data-name="Group 356">
            <g id="Group_355" data-name="Group 355">
              <path id="Path_251" data-name="Path 251" class="cls-1" d="M8.730857088565827,15.979856513321401 a0.8480000000000006,0.8480000000000006 0 0 0 0.8480000000000006,-0.8480000000000006 V9.9378565133214 a4.245,4.245 0 0 1 4.24,-4.24 h5.936 a4.245,4.245 0 0 1 4.24,4.24 V15.131856513321402 a0.8480000000000006,0.8480000000000006 0 0 0 1.7000000000000002,0 V9.9378565133214 a5.942,5.942 0 0 0 -5.936,-5.936 H13.815857088565828 a5.942,5.942 0 0 0 -5.936,5.936 V15.131856513321402 A0.8480000000000006,0.8480000000000006 0 0 0 8.730857088565827,15.979856513321401 z"/>
            </g>
          </g>
          <g id="Group_358" data-name="Group 358">
            <g id="Group_357" data-name="Group 357">
              <path id="Path_252" data-name="Path 252" class="cls-1" d="M1.8408569169044542,16.195856292545802 H24.81885691690445 a0.8480000000000006,0.8480000000000006 0 1 0 0,-1.7000000000000002 H1.8408569169044542 a0.8480000000000006,0.8480000000000006 0 1 0 0,1.7000000000000002 z"/>
            </g>
          </g>
          <g id="Group_360" data-name="Group 360">
            <g id="Group_359" data-name="Group 359">
              <path id="Path_253" data-name="Path 253" class="cls-1" d="M15.985858091831204,4.04085690289736 c0.05900000000000041,0 0.12200000000000012,0 0.18900000000000125,-0.0070000000000000825 s0.12300000000000012,-0.0070000000000000825 0.18800000000000044,-0.0070000000000000825 h0.5650000000000006 c0.06600000000000064,0 0.129,0 0.18800000000000044,0.0070000000000000825 s0.131,0.0070000000000000825 0.18900000000000125,0.0070000000000000825 a0.809,0.809 0 0 0 0.4910000000000003,-0.137 a0.682000000000006,0.682000000000006 0 0 0 0.262,-0.5830000000000006 a1.1320000000000001,1.1320000000000001 0 0 0 -1.131,-1.131 H16.363858091831204 a1.1320000000000001,1.1320000000000001 0 0 0 -1.131,1.131 A0.682000000000006,0.682000000000006 0 0 0 15.985858091831204,4.04085690289736 zm0.9430000000000006,-1 a0.2830000000000003,0.2830000000000003 0 0 1 0.24900000000000044,0.15000000000000024 H17.16385809183121 c-0.07400000000000002,0 -0.1520000000000004,-0.008000000000000076 -0.234,-0.008000000000000076 H16.363858091831204 c-0.08100000000000022,0 -0.1600000000000013,0 -0.234,0.008000000000000076 h-0.012000000000000085 a0.276,0.276 0 0 1 0.2460000000000004,-0.15000000000000024 h0.5660000000000006 z"/>
            </g>
          </g>
        </g>
      </g>
    </g>
  </g></g></svg>