<svg xmlns="http://www.w3.org/2000/svg" width="21.878" height="12.62"><g id="Group_452" data-name="Group 452" transform="translate(.25 1.25)"><g id="Group_363" data-name="Group 363" transform="translate(0 -1)"><g id="Group_362" data-name="Group 362"><g id="Group_361" data-name="Group 361"><g id="Group_356" data-name="Group 356" transform="translate(5.964 1.569)"><g id="Group_355" data-name="Group 355"><path id="Path_251" data-name="Path 251" d="M.733 10.368a.734.734 0 0 0 .734-.734v-4.5a3.674 3.674 0 0 1 3.67-3.67h5.138a3.674 3.674 0 0 1 3.67 3.67v4.5a.734.734 0 0 0 1.468 0v-4.5a5.144 5.144 0 0 0-5.138-5.138H5.138A5.144 5.144 0 0 0 0 5.134v4.5a.734.734 0 0 0 .733.734Z" fill="#df0035" stroke="#df0035" stroke-width=".5"/></g></g><g id="Group_358" data-name="Group 358" transform="translate(0 10.652)"><g id="Group_357" data-name="Group 357"><path id="Path_252" data-name="Path 252" d="M.734 1.468h19.89a.734.734 0 1 0 0-1.468H.734a.734.734 0 1 0 0 1.468Z" fill="#df0035" stroke="#df0035" stroke-width=".5"/></g></g><g id="Group_360" data-name="Group 360" transform="translate(12.325)"><g id="Group_359" data-name="Group 359"><path id="Path_253" data-name="Path 253" d="M.653 1.602c.051 0 .106 0 .164-.006S.923 1.59.98 1.59h.489c.057 0 .112 0 .163.006s.113.006.164.006a.7.7 0 0 0 .425-.119.59.59 0 0 0 .227-.5.98.98 0 0 0-.979-.979H.98a.98.98 0 0 0-.979.979.59.59 0 0 0 .652.619Zm.816-.868a.245.245 0 0 1 .216.13h-.014c-.064 0-.132-.007-.2-.007H.982c-.07 0-.138 0-.2.007h-.01a.239.239 0 0 1 .213-.13h.49Z" fill="#df0035" stroke="#df0035" stroke-width=".5"/></g></g></g></g></g></g></svg>