<svg xmlns="http://www.w3.org/2000/svg" width="26.686" height="26.886"><rect id="backgroundrect" width="100%" height="100%" x="0" y="0" fill="none" stroke="none"/><defs><style>.cls-1{fill:#f9003c;stroke:#f9003c;stroke-width:.5px}</style></defs><g class="currentLayer"><g id="Component_12_1" data-name="Component 12 – 1" class="selected"><g id="Group_363" data-name="Group 363"><g id="Group_362" data-name="Group 362"><g id="Group_361" data-name="Group 361"><g id="Group_356" data-name="Group 356"><g id="Group_355" data-name="Group 355"><path id="Path_251" data-name="Path 251" class="cls-1" d="M8.73 15.98a.848.848 0 0 0 .849-.848V9.938a4.245 4.245 0 0 1 4.24-4.24h5.936a4.245 4.245 0 0 1 4.24 4.24v5.194a.848.848 0 0 0 1.7 0V9.938a5.942 5.942 0 0 0-5.936-5.936h-5.943A5.942 5.942 0 0 0 7.88 9.938v5.194a.848.848 0 0 0 .85.848z"/></g></g><g id="Group_358" data-name="Group 358"><g id="Group_357" data-name="Group 357"><path id="Path_252" data-name="Path 252" class="cls-1" d="M1.84 16.196H24.82a.848.848 0 1 0 0-1.7H1.84a.848.848 0 1 0 0 1.7z"/></g></g><g id="Group_360" data-name="Group 360"><g id="Group_359" data-name="Group 359"><path id="Path_253" data-name="Path 253" class="cls-1" d="M15.986 4.04c.059 0 .122 0 .189-.006s.123-.007.188-.007h.565c.066 0 .129 0 .188.007s.13.007.189.007a.809.809 0 0 0 .49-.137.682.682 0 0 0 .263-.583 1.132 1.132 0 0 0-1.131-1.131h-.563a1.132 1.132 0 0 0-1.131 1.13.682.682 0 0 0 .753.72zm.943-1a.283.283 0 0 1 .249.15h-.014c-.074 0-.152-.007-.234-.007h-.566c-.081 0-.16 0-.234.008h-.012a.276.276 0 0 1 .246-.15h.566z"/></g></g></g></g></g></g></g></svg>