<svg xmlns="http://www.w3.org/2000/svg" width="26.198" height="15.502" viewBox="0 0 26.198 15.502">
  <defs>
    <style>
      .cls-1 {
        fill: #000;
        stroke: #000;
        stroke-width: 1.5px;
      }
    </style>
  </defs>
  <g id="Component_12_1" data-name="Component 12 – 1" transform="translate(0.75 0.75)">
    <g id="Group_363" data-name="Group 363" transform="translate(0 1)">
      <g id="Group_362" data-name="Group 362">
        <g id="Group_361" data-name="Group 361">
          <g id="Group_356" data-name="Group 356" transform="translate(6.89 0.812)">
            <g id="Group_355" data-name="Group 355">
              <path id="Path_251" data-name="Path 251" class="cls-1" d="M29.515,56.228a.848.848,0,0,0,.848-.848V50.186a4.245,4.245,0,0,1,4.24-4.24h5.936a4.245,4.245,0,0,1,4.24,4.24V55.38a.848.848,0,0,0,1.7,0V50.186a5.942,5.942,0,0,0-5.936-5.936H34.6a5.942,5.942,0,0,0-5.936,5.936V55.38A.848.848,0,0,0,29.515,56.228Z" transform="translate(-28.667 -44.25)"/>
            </g>
          </g>
          <g id="Group_358" data-name="Group 358" transform="translate(0 11.306)">
            <g id="Group_357" data-name="Group 357">
              <path id="Path_252" data-name="Path 252" class="cls-1" d="M29.57,70.7H52.548a.848.848,0,1,0,0-1.7H29.57a.848.848,0,1,0,0,1.7Z" transform="translate(-28.722 -69)"/>
            </g>
          </g>
          <g id="Group_360" data-name="Group 360" transform="translate(14.239)">
            <g id="Group_359" data-name="Group 359">
              <path id="Path_253" data-name="Path 253" class="cls-1" d="M47.422,44.185c.059,0,.122,0,.189-.007s.123-.007.188-.007h.565c.066,0,.129,0,.188.007s.131.007.189.007a.809.809,0,0,0,.491-.137.682.682,0,0,0,.262-.583,1.132,1.132,0,0,0-1.131-1.131H47.8a1.132,1.132,0,0,0-1.131,1.131A.682.682,0,0,0,47.422,44.185Zm.943-1a.283.283,0,0,1,.249.15H48.6c-.074,0-.152-.008-.234-.008H47.8c-.081,0-.16,0-.234.008h-.012a.276.276,0,0,1,.246-.15h.566Z" transform="translate(-46.668 -43.334)"/>
            </g>
          </g>
        </g>
      </g>
    </g>
  </g>
</svg>
