<svg xmlns="http://www.w3.org/2000/svg" width="26.685714285714283" height="26.885714285714286"><rect id="backgroundrect" width="100%" height="100%" x="0" y="0" fill="none" stroke="none" class="" style=""/>
  <defs>
    <style>
      .cls-1 {
        fill: #df0035;
        stroke: #df0035;
        stroke-width: 1.5px;
      }
    </style>
  </defs>
  
<g class="currentLayer" style=""><title>Layer 1</title><g id="Component_12_1" data-name="Component 12 – 1" class="selected">
    <g id="Group_363" data-name="Group 363">
      <g id="Group_362" data-name="Group 362">
        <g id="Group_361" data-name="Group 361">
          <g id="Group_356" data-name="Group 356">
            <g id="Group_355" data-name="Group 355">
              <path id="Path_251" data-name="Path 251" class="cls-1" d="M8.488000049591065,19.42985697823763 a0.8480000000000006,0.8480000000000006 0 0 0 0.8480000000000006,-0.8480000000000006 V13.387856978237629 a4.245,4.245 0 0 1 4.24,-4.24 h5.936 a4.245,4.245 0 0 1 4.24,4.24 V18.58185697823763 a0.8480000000000006,0.8480000000000006 0 0 0 1.7000000000000002,0 V13.387856978237629 a5.942,5.942 0 0 0 -5.936,-5.936 H13.573000049591066 a5.942,5.942 0 0 0 -5.936,5.936 V18.58185697823763 A0.8480000000000006,0.8480000000000006 0 0 0 8.488000049591065,19.42985697823763 z"/>
            </g>
          </g>
          <g id="Group_358" data-name="Group 358">
            <g id="Group_357" data-name="Group 357">
              <path id="Path_252" data-name="Path 252" class="cls-1" d="M1.5979998779296896,19.645856757462028 H24.57599987792969 a0.8480000000000006,0.8480000000000006 0 1 0 0,-1.7000000000000002 H1.5979998779296896 a0.8480000000000006,0.8480000000000006 0 1 0 0,1.7000000000000002 z"/>
            </g>
          </g>
          <g id="Group_360" data-name="Group 360">
            <g id="Group_359" data-name="Group 359">
              <path id="Path_253" data-name="Path 253" class="cls-1" d="M15.743001052856442,7.4908573678135895 c0.05900000000000012,0 0.12200000000000012,0 0.18900000000000036,-0.007000000000000024 s0.12300000000000012,-0.007000000000000024 0.18800000000000036,-0.007000000000000024 h0.5650000000000006 c0.06600000000000017,0 0.129,0 0.18800000000000036,0.007000000000000024 s0.131,0.007000000000000024 0.18900000000000036,0.007000000000000024 a0.809,0.809 0 0 0 0.4910000000000003,-0.137 a0.6820000000000018,0.6820000000000018 0 0 0 0.262,-0.5830000000000006 a1.1320000000000001,1.1320000000000001 0 0 0 -1.131,-1.131 H16.121001052856442 a1.1320000000000001,1.1320000000000001 0 0 0 -1.131,1.131 A0.6820000000000018,0.6820000000000018 0 0 0 15.743001052856442,7.4908573678135895 zm0.9430000000000006,-1 a0.2830000000000003,0.2830000000000003 0 0 1 0.24900000000000036,0.15000000000000024 H16.921001052856447 c-0.07400000000000002,0 -0.15200000000000033,-0.008000000000000024 -0.234,-0.008000000000000024 H16.121001052856442 c-0.08100000000000017,0 -0.1600000000000004,0 -0.234,0.008000000000000024 h-0.012000000000000025 a0.276,0.276 0 0 1 0.24600000000000033,-0.15000000000000024 h0.5660000000000006 z"/>
            </g>
          </g>
        </g>
      </g>
    </g>
  </g></g></svg>