<svg xmlns="http://www.w3.org/2000/svg" width="25.170731813217856" height="25.821138307197096"><rect id="backgroundrect" width="100%" height="100%" x="0" y="0" fill="none" stroke="none" class="" style=""/>
    
<g class="currentLayer" style=""><title>Layer 1</title><path style="text-indent:0;text-align:start;line-height:normal;text-transform:none;block-progression:tb;-inkscape-font-specification:Bitstream Vera Sans" d="M0.8617884218692786,2.8027179688215256 L0.8617884218692786,3.679602433069668 L0.8617884218692786,19.463522789536235 L0.8617884218692786,20.340407253784377 L1.699186784614767,20.340407253784377 L5.048780235596724,20.340407253784377 L5.048780235596724,22.971060646528805 L5.048780235596724,24.807037493548354 L6.409552575058143,23.656126634222666 L10.36102609926342,20.340407253784377 L23.471544215997483,20.340407253784377 L24.308942578742972,20.340407253784377 L24.308942578742972,19.463522789536235 L24.308942578742972,3.679602433069668 L24.308942578742972,2.8027179688215256 L23.471544215997483,2.8027179688215256 L1.699186784614767,2.8027179688215256 L0.8617884218692786,2.8027179688215256 zM2.536585147360256,4.556486897317811 L22.634145853251994,4.556486897317811 L22.634145853251994,18.586638325288092 L10.073170412069658,18.586638325288092 L9.785314724875896,18.586638325288092 L9.549796435353727,18.778456801842374 L6.7235769610877005,21.135083799509257 L6.7235769610877005,19.463522789536235 L6.7235769610877005,18.586638325288092 L5.886178598342212,18.586638325288092 L2.536585147360256,18.586638325288092 L2.536585147360256,4.556486897317811 zM5.886178598342212,8.940909218558524 L5.886178598342212,10.694678147054809 L19.284552402270037,10.694678147054809 L19.284552402270037,8.940909218558524 L5.886178598342212,8.940909218558524 zM5.886178598342212,12.448447075551094 L5.886178598342212,14.20221600404738 L15.934958951288081,14.20221600404738 L15.934958951288081,12.448447075551094 L5.886178598342212,12.448447075551094 z" overflow="visible" font-family="Bitstream Vera Sans" id="svg_1" class="" stroke-width="2" fill-opacity="1" fill="#c4cdd4"/></g></svg>