<svg xmlns="http://www.w3.org/2000/svg" width="25" height="27"><g id="Group_256" data-name="Group 256" transform="translate(-28 -532)" fill="#fff"><g id="Union_2" data-name="Union 2"><path d="M-2206.5-776a2.477 2.477 0 0 1-2.473-2.474v-1.008l-.661-.238a9.18 9.18 0 0 1-3.017-1.803l-.533-.477-.623.35-.47.264c-.38.212-.81.324-1.245.324-.888 0-1.712-.46-2.152-1.199a2.282 2.282 0 0 1-.247-1.768 2.372 2.372 0 0 1 1.149-1.46l.668-.374.61-.343-.112-.691a9.342 9.342 0 0 1 .028-3.17l.129-.703-.623-.35-.7-.392a2.37 2.37 0 0 1-1.149-1.459 2.278 2.278 0 0 1 .247-1.768c.44-.74 1.264-1.2 2.152-1.2.436 0 .866.113 1.246.326l.608.341.611.343.531-.458a9.185 9.185 0 0 1 2.892-1.693l.66-.238v-1.208A2.477 2.477 0 0 1-2206.5-801a2.477 2.477 0 0 1 2.475 2.474v1.208l.66.239a9.185 9.185 0 0 1 2.89 1.692l.531.459.612-.343.61-.342a2.55 2.55 0 0 1 1.244-.325c.888 0 1.713.46 2.153 1.199a2.28 2.28 0 0 1 .247 1.767 2.374 2.374 0 0 1-1.149 1.46l-.701.394-.623.35.128.702a9.312 9.312 0 0 1 .029 3.168l-.114.691.611.343.67.376c.575.322.983.84 1.15 1.46.16.6.072 1.228-.248 1.767-.44.74-1.264 1.199-2.152 1.199a2.55 2.55 0 0 1-1.245-.325l-.47-.264-.624-.35-.533.477a9.179 9.179 0 0 1-3.016 1.803l-.66.239v1.008A2.477 2.477 0 0 1-2206.5-776Z" transform="translate(2247 1334)"/><path d="M-2206.5-777c.813 0 1.475-.661 1.475-1.474v-1.711l1.32-.476a8.183 8.183 0 0 0 2.69-1.608l1.065-.953 1.246.699.471.264c.234.13.488.197.756.197.537 0 1.032-.272 1.292-.71.182-.305.232-.66.141-.997a1.382 1.382 0 0 0-.672-.847l-.67-.376-1.221-.685.226-1.383a8.316 8.316 0 0 0-.025-2.827l-.257-1.405 1.246-.698.7-.393c.339-.19.578-.49.673-.847.09-.339.04-.693-.14-.998a1.499 1.499 0 0 0-1.294-.71c-.264 0-.525.068-.755.197l-.61.342-1.223.686-1.062-.916a8.187 8.187 0 0 0-2.577-1.51l-1.32-.476v-1.911a1.476 1.476 0 0 0-2.948 0v1.91l-1.321.477a8.192 8.192 0 0 0-2.579 1.51l-1.061.915-1.223-.686-.608-.34a1.528 1.528 0 0 0-.757-.198c-.537 0-1.032.272-1.292.71-.182.305-.232.66-.141.998.095.356.334.656.672.846l.7.393 1.245.698-.256 1.405a8.311 8.311 0 0 0-.025 2.83l.226 1.382-1.222.685-.668.375a1.38 1.38 0 0 0-.672.846c-.09.338-.04.693.14.998.261.438.756.71 1.293.71.268 0 .522-.066.755-.197l.47-.263 1.247-.7 1.065.953a8.189 8.189 0 0 0 2.69 1.608l1.322.477v1.71c0 .813.66 1.474 1.473 1.474m0 2a3.474 3.474 0 0 1-3.473-3.474v-.306a10.225 10.225 0 0 1-3.345-1.998l-.47.264a3.537 3.537 0 0 1-1.734.452c-1.2 0-2.368-.605-3.011-1.688-.96-1.615-.391-3.678 1.271-4.61l.669-.376a10.302 10.302 0 0 1 .031-3.511l-.7-.393c-1.662-.932-2.23-2.996-1.271-4.61.643-1.083 1.81-1.688 3.011-1.688.59 0 1.187.146 1.734.452l.609.342a10.221 10.221 0 0 1 3.206-1.876v-.506a3.474 3.474 0 1 1 6.948 0v.506a10.222 10.222 0 0 1 3.204 1.876l.61-.342a3.537 3.537 0 0 1 1.733-.452c1.201 0 2.369.605 3.012 1.688.96 1.615.39 3.678-1.271 4.61l-.702.394a10.285 10.285 0 0 1 .032 3.51l.67.375c1.661.933 2.23 2.996 1.271 4.611-.643 1.082-1.81 1.688-3.011 1.688-.59 0-1.187-.146-1.734-.453l-.47-.264c-.967.865-2.1 1.55-3.344 1.999v.306A3.474 3.474 0 0 1-2206.5-775Z" fill="#c5cdd4" transform="translate(2247 1334)"/></g><g id="Ellipse_24" data-name="Ellipse 24" transform="translate(36 541)" stroke="#c5cdd4" stroke-width="2"><circle cx="4.5" cy="4.5" r="4.5" stroke="none"/><circle cx="4.5" cy="4.5" r="3.5" fill="none"/></g></g></svg>