<svg xmlns="http://www.w3.org/2000/svg" width="25" height="27" viewBox="0 0 25 27">
  <g id="Group_256" data-name="Group 256" transform="translate(-28 -532)">
    <g id="Union_2" data-name="Union 2" transform="translate(2247 1334)" fill="#fff">
      <path d="M -2206.49951171875 -775.9999389648438 C -2207.863525390625 -775.9999389648438 -2208.973388671875 -777.1097412109375 -2208.973388671875 -778.4739379882813 L -2208.973388671875 -778.77978515625 L -2208.973388671875 -779.4820556640625 L -2209.634033203125 -779.7203979492188 C -2210.748291015625 -780.1224975585938 -2211.763427734375 -780.7291259765625 -2212.6513671875 -781.5234375 L -2213.18408203125 -781.9998168945313 L -2213.807373046875 -781.6502685546875 L -2214.27783203125 -781.3864135742188 C -2214.656494140625 -781.1740112304688 -2215.0869140625 -781.0617065429688 -2215.52197265625 -781.0617065429688 C -2216.40966796875 -781.0617065429688 -2217.234130859375 -781.5211791992188 -2217.673828125 -782.2608032226563 C -2217.994140625 -782.8001708984375 -2218.08203125 -783.4281616210938 -2217.921142578125 -784.029052734375 C -2217.75537109375 -784.647705078125 -2217.347412109375 -785.1659545898438 -2216.7724609375 -785.4884033203125 L -2216.10400390625 -785.8634033203125 L -2215.4931640625 -786.2059326171875 L -2215.606201171875 -786.8970947265625 C -2215.68701171875 -787.391357421875 -2215.72802734375 -787.89697265625 -2215.72802734375 -788.4000244140625 C -2215.72802734375 -788.9603881835938 -2215.677490234375 -789.5214233398438 -2215.577880859375 -790.067626953125 L -2215.449462890625 -790.7698974609375 L -2216.072021484375 -791.1192626953125 L -2216.772216796875 -791.51220703125 C -2217.347412109375 -791.83447265625 -2217.755126953125 -792.3524780273438 -2217.9208984375 -792.9710083007813 C -2218.08203125 -793.5719604492188 -2217.994384765625 -794.1998291015625 -2217.673828125 -794.7389526367188 C -2217.234375 -795.4786987304688 -2216.40966796875 -795.9381103515625 -2215.521728515625 -795.9381103515625 C -2215.08642578125 -795.9381103515625 -2214.65576171875 -795.8257446289063 -2214.2763671875 -795.6132202148438 L -2213.668212890625 -795.2720336914063 L -2213.056640625 -794.9290771484375 L -2212.525634765625 -795.3870849609375 C -2211.667724609375 -796.1272583007813 -2210.69482421875 -796.6967163085938 -2209.6337890625 -797.0796508789063 L -2208.973388671875 -797.3180541992188 L -2208.973388671875 -798.020263671875 L -2208.973388671875 -798.5259399414063 C -2208.973388671875 -799.89013671875 -2207.863525390625 -800.9999389648438 -2206.49951171875 -800.9999389648438 C -2205.13525390625 -800.9999389648438 -2204.025390625 -799.89013671875 -2204.025390625 -798.5259399414063 L -2204.025390625 -798.0195922851563 L -2204.025390625 -797.3175048828125 L -2203.364990234375 -797.0790405273438 C -2202.3046875 -796.6961059570313 -2201.33203125 -796.1266479492188 -2200.474365234375 -795.3865356445313 L -2199.943603515625 -794.928466796875 L -2199.33203125 -795.2713623046875 L -2198.72216796875 -795.6133422851563 C -2198.34326171875 -795.8258056640625 -2197.912841796875 -795.9381103515625 -2197.4775390625 -795.9381103515625 C -2196.589599609375 -795.9381103515625 -2195.7646484375 -795.4786376953125 -2195.3251953125 -794.7390747070313 C -2195.0048828125 -794.2000732421875 -2194.917236328125 -793.5724487304688 -2195.077880859375 -792.9717407226563 C -2195.24365234375 -792.3526611328125 -2195.651611328125 -791.833984375 -2196.226806640625 -791.5112915039063 L -2196.92822265625 -791.1178588867188 L -2197.55078125 -790.7686157226563 L -2197.4228515625 -790.0663452148438 C -2197.3232421875 -789.5201416015625 -2197.272705078125 -788.9595336914063 -2197.272705078125 -788.4000244140625 C -2197.272705078125 -787.8963623046875 -2197.313720703125 -787.3909912109375 -2197.394287109375 -786.8980712890625 L -2197.507568359375 -786.2069702148438 L -2196.896728515625 -785.8643188476563 L -2196.2265625 -785.4884643554688 C -2195.651611328125 -785.1658325195313 -2195.24365234375 -784.6471557617188 -2195.077880859375 -784.028076171875 C -2194.917236328125 -783.4273681640625 -2195.0048828125 -782.7997436523438 -2195.3251953125 -782.2608032226563 C -2195.764892578125 -781.5215454101563 -2196.58935546875 -781.0621948242188 -2197.47705078125 -781.0621948242188 C -2197.912353515625 -781.0621948242188 -2198.3427734375 -781.1746215820313 -2198.721923828125 -781.3872680664063 L -2199.192626953125 -781.6511840820313 L -2199.81591796875 -782.000732421875 L -2200.3486328125 -781.5241088867188 C -2201.23583984375 -780.7300415039063 -2202.250732421875 -780.1233520507813 -2203.364990234375 -779.720947265625 L -2204.025390625 -779.4824829101563 L -2204.025390625 -778.7803955078125 L -2204.025390625 -778.4739379882813 C -2204.025390625 -777.1097412109375 -2205.13525390625 -775.9999389648438 -2206.49951171875 -775.9999389648438 Z" stroke="none"/>
      <path d="M -2206.49951171875 -776.9999389648438 C -2205.686767578125 -776.9999389648438 -2205.025390625 -777.6611938476563 -2205.025390625 -778.4739379882813 L -2205.025390625 -778.7803955078125 L -2205.025390625 -780.1845703125 L -2203.70458984375 -780.6614990234375 C -2202.71142578125 -781.0201416015625 -2201.806640625 -781.5610961914063 -2201.015380859375 -782.269287109375 L -2199.9501953125 -783.2224731445313 L -2198.70361328125 -782.5234375 L -2198.232666015625 -782.2593994140625 C -2197.999267578125 -782.1285400390625 -2197.7451171875 -782.0621948242188 -2197.47705078125 -782.0621948242188 C -2196.940185546875 -782.0621948242188 -2196.445068359375 -782.334228515625 -2196.184814453125 -782.7716674804688 C -2196.00341796875 -783.0769653320313 -2195.953369140625 -783.4313354492188 -2196.0439453125 -783.7694091796875 C -2196.139404296875 -784.1259765625 -2196.378173828125 -784.4268188476563 -2196.7158203125 -784.6162719726563 L -2197.385986328125 -784.9921875 L -2198.607421875 -785.6774291992188 L -2198.381103515625 -787.0596923828125 C -2198.30908203125 -787.4993286132813 -2198.272705078125 -787.9503173828125 -2198.272705078125 -788.4000244140625 C -2198.272705078125 -788.8995361328125 -2198.317626953125 -789.3998413085938 -2198.406494140625 -789.886962890625 L -2198.66259765625 -791.2915649414063 L -2197.417236328125 -791.989990234375 L -2196.716064453125 -792.38330078125 C -2196.378173828125 -792.572998046875 -2196.139404296875 -792.8738403320313 -2196.0439453125 -793.2303466796875 C -2195.953369140625 -793.5685424804688 -2196.00341796875 -793.9229125976563 -2196.184814453125 -794.2282104492188 C -2196.445068359375 -794.6660766601563 -2196.9404296875 -794.9381103515625 -2197.4775390625 -794.9381103515625 C -2197.741943359375 -794.9381103515625 -2198.003173828125 -794.8699951171875 -2198.23291015625 -794.7411499023438 L -2198.8427734375 -794.399169921875 L -2200.06591796875 -793.7133178710938 L -2201.127685546875 -794.62939453125 C -2201.892578125 -795.2894287109375 -2202.759521484375 -795.7971801757813 -2203.704833984375 -796.1384887695313 L -2205.025390625 -796.615478515625 L -2205.025390625 -798.0195922851563 L -2205.025390625 -798.5259399414063 C -2205.025390625 -799.3386840820313 -2205.686767578125 -799.9999389648438 -2206.49951171875 -799.9999389648438 C -2207.312255859375 -799.9999389648438 -2207.973388671875 -799.3386840820313 -2207.973388671875 -798.5259399414063 L -2207.973388671875 -798.020263671875 L -2207.973388671875 -796.6158447265625 L -2209.29443359375 -796.1390380859375 C -2210.239990234375 -795.7977294921875 -2211.107421875 -795.2899780273438 -2211.87255859375 -794.6299438476563 L -2212.934326171875 -793.7138671875 L -2214.1572265625 -794.3998413085938 L -2214.765380859375 -794.7408447265625 C -2214.998779296875 -794.8717651367188 -2215.25341796875 -794.9381103515625 -2215.521728515625 -794.9381103515625 C -2216.05859375 -794.9381103515625 -2216.553955078125 -794.6660766601563 -2216.814208984375 -794.22802734375 C -2216.995849609375 -793.9226684570313 -2217.045654296875 -793.5682373046875 -2216.955078125 -793.2299194335938 C -2216.859619140625 -792.8740234375 -2216.621337890625 -792.5739135742188 -2216.282958984375 -792.38427734375 L -2215.582763671875 -791.9913330078125 L -2214.337646484375 -791.2925415039063 L -2214.593994140625 -789.8880004882813 C -2214.682861328125 -789.4009399414063 -2214.72802734375 -788.9003295898438 -2214.72802734375 -788.4000244140625 C -2214.72802734375 -787.950927734375 -2214.69140625 -787.4995727539063 -2214.619384765625 -787.05859375 L -2214.39306640625 -785.67626953125 L -2215.61474609375 -784.9911499023438 L -2216.283447265625 -784.6162109375 C -2216.62109375 -784.4267578125 -2216.859619140625 -784.1263427734375 -2216.955078125 -783.7702026367188 C -2217.045654296875 -783.4319458007813 -2216.99560546875 -783.0772094726563 -2216.814208984375 -782.7716674804688 C -2216.553955078125 -782.333740234375 -2216.058837890625 -782.0617065429688 -2215.52197265625 -782.0617065429688 C -2215.25390625 -782.0617065429688 -2214.999755859375 -782.1279907226563 -2214.766845703125 -782.2586059570313 L -2214.29638671875 -782.5224609375 L -2213.050048828125 -783.2215576171875 L -2211.98486328125 -782.2687377929688 C -2211.192626953125 -781.560302734375 -2210.28759765625 -781.0194091796875 -2209.29443359375 -780.6610717773438 L -2207.973388671875 -780.184326171875 L -2207.973388671875 -778.77978515625 L -2207.973388671875 -778.4739379882813 C -2207.973388671875 -777.6611938476563 -2207.312255859375 -776.9999389648438 -2206.49951171875 -776.9999389648438 M -2206.49951171875 -774.9999389648438 C -2208.418212890625 -774.9999389648438 -2209.973388671875 -776.5551147460938 -2209.973388671875 -778.4739379882813 L -2209.973388671875 -778.77978515625 C -2211.21826171875 -779.22900390625 -2212.35107421875 -779.9130859375 -2213.318115234375 -780.778076171875 L -2213.78857421875 -780.5142211914063 C -2214.33544921875 -780.20751953125 -2214.932861328125 -780.0617065429688 -2215.52197265625 -780.0617065429688 C -2216.722412109375 -780.0617065429688 -2217.889892578125 -780.6668701171875 -2218.533447265625 -781.7499389648438 C -2219.49267578125 -783.364501953125 -2218.924072265625 -785.42822265625 -2217.26171875 -786.360595703125 L -2216.593017578125 -786.735595703125 C -2216.681640625 -787.2771606445313 -2216.72802734375 -787.8333129882813 -2216.72802734375 -788.4000244140625 C -2216.72802734375 -789.0308227539063 -2216.6708984375 -789.6480102539063 -2216.5615234375 -790.2471923828125 L -2217.26171875 -790.64013671875 C -2218.924072265625 -791.5715942382813 -2219.49267578125 -793.63623046875 -2218.533447265625 -795.2499389648438 C -2217.889892578125 -796.3328247070313 -2216.72216796875 -796.9381103515625 -2215.521728515625 -796.9381103515625 C -2214.93212890625 -796.9381103515625 -2214.3349609375 -796.7923583984375 -2213.78759765625 -796.485595703125 L -2213.178955078125 -796.1442260742188 C -2212.2431640625 -796.9515991210938 -2211.158935546875 -797.5923461914063 -2209.973388671875 -798.020263671875 L -2209.973388671875 -798.5259399414063 C -2209.973388671875 -800.4447021484375 -2208.418212890625 -801.9999389648438 -2206.49951171875 -801.9999389648438 C -2204.58056640625 -801.9999389648438 -2203.025390625 -800.4447021484375 -2203.025390625 -798.5259399414063 L -2203.025390625 -798.0195922851563 C -2201.84033203125 -797.5916137695313 -2200.756591796875 -796.9508666992188 -2199.821044921875 -796.1436157226563 L -2199.211181640625 -796.485595703125 C -2198.664306640625 -796.7922973632813 -2198.06689453125 -796.9381103515625 -2197.4775390625 -796.9381103515625 C -2196.27685546875 -796.9381103515625 -2195.109130859375 -796.3329467773438 -2194.465576171875 -795.2499389648438 C -2193.506103515625 -793.6353149414063 -2194.075927734375 -791.5715942382813 -2195.7373046875 -790.6392211914063 L -2196.43896484375 -790.2456665039063 C -2196.329833984375 -789.6470336914063 -2196.272705078125 -789.0301513671875 -2196.272705078125 -788.4000244140625 C -2196.272705078125 -787.8336791992188 -2196.31884765625 -787.2777709960938 -2196.407470703125 -786.7365112304688 L -2195.7373046875 -786.360595703125 C -2194.075927734375 -785.42822265625 -2193.506103515625 -783.364501953125 -2194.465576171875 -781.7499389648438 C -2195.109130859375 -780.6676025390625 -2196.276611328125 -780.0621948242188 -2197.47705078125 -780.0621948242188 C -2198.06640625 -780.0621948242188 -2198.663818359375 -780.2081298828125 -2199.211181640625 -780.51513671875 L -2199.681640625 -780.7789306640625 C -2200.6484375 -779.9136962890625 -2201.78076171875 -779.2298583984375 -2203.025390625 -778.7803955078125 L -2203.025390625 -778.4739379882813 C -2203.025390625 -776.5551147460938 -2204.58056640625 -774.9999389648438 -2206.49951171875 -774.9999389648438 Z" stroke="none" fill="#c5cdd4"/>
    </g>
    <g id="Ellipse_24" data-name="Ellipse 24" transform="translate(36 541)" fill="#fff" stroke="#c5cdd4" stroke-width="2">
      <circle cx="4.5" cy="4.5" r="4.5" stroke="none"/>
      <circle cx="4.5" cy="4.5" r="3.5" fill="none"/>
    </g>
  </g>
</svg>
