<svg xmlns="http://www.w3.org/2000/svg" style="enable-background:new 0 0 512 512" xml:space="preserve" width="24.285" height="24.285"><g class="currentLayer"><g class="selected" fill="#fff" id="svg_1"><path class="st0" d="M14.888 1.292c.506 0 .915.407.915.91V8.57H22.2a.911.911 0 1 1 0 1.821h-7.312a.911.911 0 0 1-.914-.91V2.198c0-.504.408-.906.914-.906z" id="svg_3"/><path class="st0" d="M23.76.58a.908.908 0 0 1 .004 1.285h-.004l-8.226 8.193a.92.92 0 0 1-1.296 0 .91.91 0 0 1 0-1.289L22.465.58a.92.92 0 0 1 1.295 0zM10.05 14.227a.908.908 0 0 1 .005 1.285h-.005l-8.23 8.193c-.358.356-.938.356-1.296 0s-.357-.933 0-1.29l8.23-8.188a.92.92 0 0 1 1.296 0z" id="svg_6"/><path class="st0" d="M1.24 14.874c0-.504.409-.91.915-.91h7.311c.506 0 .915.406.915.91v7.278c0 .504-.409.91-.915.91a.911.911 0 0 1-.914-.91v-6.368H2.155a.914.914 0 0 1-.915-.91z" id="svg_10"/></g></g></svg>