<svg xmlns="http://www.w3.org/2000/svg" xmlns:xlink="http://www.w3.org/1999/xlink" version="1.1" style="enable-background:new 0 0 512 512;" xml:space="preserve" width="24.28541778960666" height="24.28541778960666">
<g class="currentLayer" style=""><g class="selected" fill="#fff" id="svg_1">
	<path class="st0" d="M14.888327731843974,1.291838109723669 c0.5060088753471523,0 0.9145298022329263,0.4066765708959468 0.9145298022329263,0.9104009598466073 v6.368185394256981 h6.39706633237042 c0.5060088753471523,0 0.9145298022329263,0.4066765708959468 0.9145298022329263,0.9104009598466073 c0,0.503724388950661 -0.4085209268857744,0.9104009598466073 -0.9145298022329263,0.9104009598466073 H14.888327731843974 c-0.5060088753471523,0 -0.9145298022329263,-0.4066765708959468 -0.9145298022329263,-0.9104009598466073 V2.197617744901005 C13.973797929611045,1.6938933559503442 14.382318856496822,1.291838109723669 14.888327731843974,1.291838109723669 z" id="svg_3"/>
	<path class="st0" d="M23.75973104182937,0.5801541106557631 c0.3574558110250526,0.3558419995339534 0.3574558110250526,0.9288862585236963 0.004642283260065622,1.2847282580576498 h-0.004642283260065622 L15.533605104993093,10.058491007332881 c-0.3574558110250526,0.3558419995339534 -0.9377412185332551,0.3558419995339534 -1.2951970295583068,0 c-0.3574558110250526,-0.3558419995339534 -0.3574558110250526,-0.9335075831929678 0,-1.2893495827269215 L22.46453401227106,0.5801541106557631 C22.821989823296114,0.22431211112180946 23.402275230804314,0.22431211112180946 23.75973104182937,0.5801541106557631 L23.75973104182937,0.5801541106557631 zM10.0510685748556,14.226925859016333 c0.3574558110250526,0.3558419995339534 0.3574558110250526,0.9288862585236963 0.004642283260065622,1.2847282580576498 h-0.004642283260065622 L1.8203003547592633,23.705262755693447 c-0.3574558110250526,0.3558419995339534 -0.9377412185332551,0.3558419995339534 -1.2951970295583068,0 s-0.3574558110250526,-0.9335075831929678 0,-1.2893495827269215 L8.755871545297294,14.226925859016333 C9.108685073062281,13.871083859482379 9.688970480570482,13.871083859482379 10.0510685748556,14.226925859016333 L10.0510685748556,14.226925859016333 z" id="svg_6"/>
	<path class="st0" d="M1.2400149472510615,14.87391131271443 c0,-0.503724388950661 0.4085209268857744,-0.9104009598466073 0.9145298022329263,-0.9104009598466073 h7.311596134603345 c0.5060088753471523,0 0.9145298022329263,0.4066765708959468 0.9145298022329263,0.9104009598466073 v7.278586354103589 c0,0.503724388950661 -0.4085209268857744,0.9104009598466073 -0.9145298022329263,0.9104009598466073 c-0.5060088753471523,0 -0.9145298022329263,-0.4066765708959468 -0.9145298022329263,-0.9104009598466073 V15.784312272561037 H2.1545447494839873 C1.6485358741368357,15.784312272561037 1.2400149472510615,15.373014376995819 1.2400149472510615,14.87391131271443 z" id="svg_10"/>
</g></g></svg>