<svg xmlns="http://www.w3.org/2000/svg" width="25" height="25.306" viewBox="0 0 25 25.306">
  <g id="Group_200" data-name="Group 200" transform="translate(-29 -368)">
    <g id="Group_199" data-name="Group 199">
      <path id="Rectangle_111" data-name="Rectangle 111" d="M0,0H14a0,0,0,0,1,0,0V8a7,7,0,0,1-7,7H7A7,7,0,0,1,0,8V0A0,0,0,0,1,0,0Z" transform="translate(34.5 369)" fill="none" stroke="#c5cdd4" stroke-linejoin="round" stroke-width="2"/>
      <path id="Path_209" data-name="Path 209" d="M9.55,15.93a6.288,6.288,0,0,1-4-6h3.9" transform="translate(24.45 362.07)" fill="none" stroke="#c5cdd4" stroke-linecap="square" stroke-linejoin="round" stroke-width="2"/>
      <path id="Path_210" data-name="Path 210" d="M19.526,9.93h3.958a6.5,6.5,0,0,1-4,6" transform="translate(29.516 362.07)" fill="none" stroke="#c5cdd4" stroke-linecap="square" stroke-linejoin="round" stroke-width="2"/>
      <path id="Path_211" data-name="Path 211" d="M18.736,24.849a4,4,0,1,0-8,0Z" transform="translate(26.764 367.457)" fill="none" stroke="#c5cdd4" stroke-linejoin="round" stroke-width="2"/>
      <line id="Line_19" data-name="Line 19" y1="3.668" transform="translate(41.5 384.637)" fill="none" stroke="#c5cdd4" stroke-width="2"/>
    </g>
  </g>
</svg>
