<svg xmlns="http://www.w3.org/2000/svg" width="27.43" height="27.243"><rect id="backgroundrect" width="100%" height="100%" x="0" y="0" fill="none" stroke="none"/><g class="currentLayer"><path style="text-indent:0;text-align:start;text-transform:none;block-progression:tb;-inkscape-font-specification:Bitstream Vera Sans;line-height:normal" d="M15.934.011c-.107.062-.823.39-1.683.702-.861.311-1.921.677-2.97 1.038-1.047.36-2.106.696-2.937 1.007a21.44 21.44 0 0 0-1.071.427c-.3.131-.495.2-.796.458-.357.304-.6.644-.98 1.16a32.175 32.175 0 0 0-1.224 1.8c-.41.648-.802 1.323-1.102 1.922-.3.6-.55 1.012-.55 1.71 0 .333.045.367.091.548.047.182.105.418.184.672.158.507.373 1.148.643 1.861.482 1.276 1.107 2.728 1.805 3.937-.702 1.02-1.163 2.249-1.163 3.631 0 3.473 2.884 6.348 6.366 6.348 3.483 0 6.366-2.875 6.366-6.348 0-1.466-.546-2.837-1.438-3.936.347-.143.717-.294 1.163-.488 1.124-.49 2.489-1.208 3.734-2.503a.98.977 0 0 0 0-.03c1.3-1.416 1.867-3.345 2.448-5.036.581-1.69 1.2-3.076 1.99-3.6l-1.102-1.618c-1.562 1.038-2.16 2.85-2.755 4.578-.59 1.717-1.175 3.401-2.02 4.333-1.008 1.049-2.086 1.637-3.091 2.075-.997.434-1.858.643-2.632 1.251-.007.006-.024-.005-.03 0-.565.45-1.245 1.116-1.99 1.648-.745.532-1.525.885-2.112.885-.543 0-1.33-.592-1.377-1.16-.043-.427.096-.846.46-1.312.362-.465.932-.922 1.53-1.312a13.959 13.959 0 0 1 2.478-1.251.98.977 0 0 0 .429-.336s.547-.732 1.163-1.526c.615-.794 1.415-1.732 1.53-1.83a.98.977 0 0 0-.887-1.679s-.658.17-1.439.214c-.78.042-1.555-.139-1.836-.397a.98.977 0 0 0-1.561.275s-1.036 1.7-2.173 1.953a.98.977 0 0 0-.582 1.495s.35.461.52 1.648a.98.977 0 0 0 .276.55s.046.043.061.06c-.362.304-.742.563-1.04.946-.074.095-.146.204-.214.305a32.625 32.625 0 0 1-1.653-4.211c-.072-.231-.12-.417-.153-.55-.009-.033-.026-.057-.03-.09v-.031c.011.059.1-.354.336-.824.254-.508.624-1.13 1.01-1.74a30.31 30.31 0 0 1 1.132-1.678c.333-.453.659-.806.674-.824-.002-.001.024.007.03 0 .063-.031.185-.1.306-.153.243-.106.583-.248.98-.396.793-.297 1.8-.648 2.846-1.007 1.045-.36 2.113-.718 3-1.038.886-.32 1.538-.544 2.02-.824l-.98-1.709zm-5.142 9.796c.53.21 1.04.355 1.561.366-.053.07-.1.114-.153.183a72.832 72.832 0 0 0-1.04 1.373c-.207.078-.997.485-1.898.977-.062-.074-.079-.105-.123-.153-.13-.551-.19-.694-.336-1.007 1.071-.546 1.618-1.163 1.99-1.74zm3 8.148a4.356 4.356 0 0 1 1.162 2.93c0 2.387-2.013 4.394-4.407 4.394S6.14 23.272 6.14 20.884c0-.602.124-1.169.337-1.678a3.45 3.45 0 0 0 2.601 1.19c1.274 0 2.349-.611 3.244-1.251.577-.412 1.058-.832 1.47-1.19z" overflow="visible" font-family="Bitstream Vera Sans" id="svg_1" fill-opacity="1" fill="#39444d" stroke-width="2"/></g></svg>