<svg xmlns="http://www.w3.org/2000/svg" width="27.429906845092773" height="27.242990493774414" style=""><rect id="backgroundrect" width="100%" height="100%" x="0" y="0" fill="none" stroke="none" class="" style=""/>
    
<g class="currentLayer" style=""><title>Layer 1</title><path style="text-indent:0;text-align:start;line-height:normal;text-transform:none;block-progression:tb;-inkscape-font-specification:Bitstream Vera Sans" d="M15.933849800444309,0.011098000719201612 C15.827054847826076,0.07321394646694693 15.111422696923693,0.40180021767191143 14.250549253760532,0.7129794386050283 C13.389675810597371,1.0241586595381438 12.329695457679557,1.3900452784392983 11.281819198700054,1.7505433033058138 C10.233942939720546,2.1110413281723273 9.17503989915261,2.446936736332126 8.343694608124732,2.7575905837506935 C7.928022158485766,2.9129175562865104 7.572531804522985,3.053480361226649 7.272503351144147,3.1848227633333694 C6.9724748977653075,3.3161651654400908 6.777516424057573,3.3855299961987173 6.476761274529998,3.6425715271719517 C6.120200463841384,3.9473075009185434 5.876358550508007,4.287212153504616 5.49738641100489,4.8022017288963585 C5.1184142715017735,5.317191304288102 4.683324148193641,5.954627673062703 4.273167831598508,6.60268019999478 C3.8630115150033744,7.250732726926859 3.4712221987238188,7.925612700450783 3.171371110132763,8.525225008116823 C2.8715200215417083,9.124837315782866 2.62047274939989,9.536526056274305 2.62047274939989,10.234153726447529 C2.62047274939989,10.567802039822325 2.6656660024772565,10.602346813200013 2.712289142855369,10.783452243053828 C2.758912283233481,10.964557672907645 2.8166986321185132,11.20108121977018 2.8959219297663257,11.454817096683747 C3.054368525061955,11.96228885051088 3.268832718239087,12.603111730086791 3.5386366839546772,13.31632873629398 C4.021120617721031,14.591757901033867 4.6460329812026275,16.044031892200096 5.344359088579093,17.252968105305786 C4.642304305222215,18.27383036550965 4.181351438143029,19.50150132002172 4.181351438143029,20.88444163175853 C4.181351438143029,24.356551207777418 7.065066270550292,27.231891156986865 10.547288051056222,27.231891156986865 C14.029510223312094,27.231891156986865 16.913224663969412,24.356551207777418 16.913224663969412,20.88444163175853 C16.913224663969412,19.418101692444395 16.36749544376623,18.04690318579856 15.474767833166915,16.94780226274673 C15.82213544788659,16.80510866782751 16.19189451011104,16.653723949712205 16.63777548360298,16.459536914652244 C17.762460195629306,15.969721812342904 19.127004584856433,15.252157291476282 20.371642150792447,13.957177005667996 A0.9794728010114593,0.9766283492585938 0 0 0 20.371642150792447,13.92666042141209 C21.67287974884131,12.511250464026993 22.238873214345695,10.58168440019935 22.820079309605216,8.89142401918769 C23.401285404864733,7.201163638176028 24.020735109170047,5.8147400414459085 24.809434501140593,5.290467076990846 L23.70763777967484,3.673088111427857 C22.145837499185124,4.711264260875153 21.547189716981084,6.522978694163926 20.95314597601048,8.250575749813674 C20.362684788290647,9.96775322293509 19.778111602250327,11.65217883303702 18.933185319989953,12.583930714152249 C17.92526069981822,13.632624099197498 16.847489023129608,14.221169384483636 15.842033406988831,14.659058443553821 C14.84541273149191,15.09309997168102 13.983662747825894,15.301887117179705 13.209963461265104,15.910238398045944 C13.20310489909584,15.915631777080996 13.186201868326258,15.904779591454249 13.179357996779945,15.910238398045944 C12.615059829164323,16.360366316331465 11.934595070861395,17.026243067448807 11.190002805244573,17.558133947864842 C10.44541053962775,18.09002482828087 9.664991762128315,18.443114891286093 9.078225755768562,18.443114891286093 C8.53511832207503,18.443114891286093 7.748434973261057,17.851292368983554 7.7009798539363805,17.28348468956169 C7.658081276164255,16.855739831363515 7.797490391112734,16.436592349414585 8.160061821213775,15.971271566557757 C8.522633251314815,15.505950783700925 9.092525608150893,15.049012540340177 9.690335045471754,14.659058443553821 C10.885952940738614,13.879150249981103 12.169377668769679,13.407878489061696 12.169377668769679,13.407878489061696 A0.9794728010114593,0.9766283492585938 0 0 0 12.597854171561913,13.072196062246737 C12.597854171561913,13.072196062246737 13.145462812128205,12.340453292202149 13.760861821997977,11.546366849451465 C14.37626083186775,10.75228040670078 15.17580680045183,9.813936943386276 15.291135046255958,9.715371794097136 A0.9794728010114593,0.9766283492585938 0 0 0 14.40357657618633,8.036959660022337 C14.40357657618633,8.036959660022337 13.745610017248302,8.207933583903191 12.965119745383829,8.250575749813674 C12.184629473519356,8.293220845316247 11.409776483369333,8.112477708350719 11.128791876274255,7.853860154486905 A0.9794728010114593,0.9766283492585938 0 0 0 9.567913187531115,8.128509412790052 C9.567913187531115,8.128509412790052 8.531678757554332,9.829692289638588 7.394925209084785,10.081570805168003 A0.9794728010114593,0.9766283492585938 0 0 0 6.8134213838667534,11.57688343370737 C6.8134213838667534,11.57688343370737 7.1636935306191845,12.038090092741157 7.3337142801144655,13.224778983526265 A0.9794728010114593,0.9766283492585938 0 0 0 7.609163460480904,13.774077500132561 C7.609163460480904,13.774077500132561 7.65450166103807,13.818226452907266 7.670374389451222,13.835110668644376 C7.3082851055954965,14.138766794747117 6.928064361078871,14.398320841548578 6.6297885969557955,14.781124780577443 C6.555697125655368,14.876213480588145 6.483921288282256,14.984517570510377 6.415550345559678,15.086290623136497 C6.028562904235985,14.2917461874893 5.673834112167084,13.435014324047394 5.3749645530642525,12.64496388266406 C5.118354529635099,11.966624646801957 4.907402766468514,11.337957621332206 4.76285526336106,10.875001995821544 C4.690581511807335,10.643524183066216 4.643926345871185,10.458156196723532 4.609827940935263,10.325703479215246 C4.601072917280266,10.291695797720466 4.583716533886362,10.268063754872692 4.579222476450102,10.234153726447529 C4.579222476450102,10.194821023066428 4.579226296012072,10.221306488608466 4.579222476450102,10.203637142191623 C4.591139705664449,10.262997513620862 4.680833010290778,9.849718981156032 4.915882585786859,9.379689367282175 C5.1699904043771925,8.871549666458852 5.54027715377811,8.24947519971907 5.9258629137971255,7.640244064695566 C6.311448673816139,7.031013320284339 6.711887730952865,6.432528026694768 7.05826509974803,5.961831930620765 C7.391188404293004,5.509418735200021 7.7166694392500546,5.156496733127612 7.7315853184215415,5.137884155711318 C7.729756727613853,5.136862216337757 7.755550425457028,5.144803461612236 7.762190782906701,5.137884155711318 C7.824520549721111,5.106835459879061 7.946827429052771,5.038453800225357 8.068245427758296,4.98530123443179 C8.311081425169347,4.878995809885453 8.650717854716355,4.736898679915462 9.047620291283405,4.588585639105022 C9.8414251644175,4.291959459831069 10.848390976597834,3.9412317222329953 11.893928488403242,3.581538358660141 C12.93946600020865,3.221844995087286 14.006565429009429,2.864488567123482 14.893264007948883,2.543974493959355 C15.779962586888336,2.2234604207952295 16.43239469847258,1.999696516968303 16.913224663969412,1.7200267190499074 L15.933849800444309,0.011098000719201612 zM10.792131766937498,9.806921546864853 C11.321709136891428,10.017421527204654 11.831614783336596,10.162064277393469 12.35301045568064,10.173120557935718 C12.29969328811033,10.242141747542355 12.253627412029564,10.286999661602493 12.199983133254836,10.35622006347115 C11.63838608151282,11.080882009437671 11.263560713119352,11.588318608159746 11.159397340759414,11.729466354986897 C10.953331972599413,11.807041953492147 10.163197796453808,12.214369507894403 9.26185854267952,12.70599705117587 C9.199815145075204,12.631888136642091 9.18330288487617,12.600768056415939 9.139436684738882,12.553414129896343 C9.009061323531558,12.0017953763559 8.948392968235627,11.8587121456889 8.802776575402127,11.546366849451465 C9.874066749243926,10.999864140228356 10.420685241823193,10.383297306615077 10.792131766937498,9.806921546864853 zM13.791467286483138,17.954849543191607 C14.508849580266642,18.73273631822321 14.954474936919201,19.781015654253284 14.954474936919201,20.88444163175853 C14.954474936919201,23.2715162328735 12.94131505995099,25.278829764608915 10.547288051056222,25.278829764608915 C8.153261042161455,25.278829764608915 6.140101165193244,23.2715162328735 6.140101165193244,20.88444163175853 C6.140101165193244,20.282247376931767 6.2636926905333885,19.71537814350894 6.476761274529998,19.206029497683733 C7.118100594660014,19.95849620216284 8.091109031884775,20.396176283664044 9.078225755768562,20.396176283664044 C10.352271990106512,20.396176283664044 11.42654436040775,19.78494228418266 12.322404991195478,19.14499632917192 C12.899444825785562,18.73279588659568 13.380008401319518,18.31343649748568 13.791467286483138,17.954849543191607 z" overflow="visible" font-family="Bitstream Vera Sans" id="svg_1" class="" fill-opacity="1" fill="#39444d" stroke-width="2"/></g></svg>