<svg xmlns="http://www.w3.org/2000/svg" width="24" height="24.434978485107422" style=""><rect id="backgroundrect" width="100%" height="100%" x="0" y="0" fill="none" stroke="none" class="" style=""/>
    
<g class="currentLayer" style=""><title>Layer 1</title><path style="line-height:normal;text-indent:0;text-align:start;text-decoration-line:none;text-decoration-style:solid;text-decoration-color:#000;text-transform:none;block-progression:tb;isolation:auto;mix-blend-mode:normal" d="M3.205588161945343,0.7847537994384766 C1.7588521562629942,0.7847537994384766 0.5672645568847655,1.9763413988167051 0.5672645568847655,3.423077404499054 L0.5672645568847655,21.011901438236237 C0.5672645568847655,22.458636740365623 1.7588521562629942,23.650225043296814 3.205588161945343,23.650225043296814 L20.794412195682526,23.650225043296814 C22.241147497811912,23.650225043296814 23.432735800743103,22.458636740365623 23.432735800743103,21.011901438236237 L23.432735800743103,3.423077404499054 C23.432735800743103,1.9763413988167051 22.241147497811912,0.7847537994384766 20.794412195682526,0.7847537994384766 L3.205588161945343,0.7847537994384766 zM3.205588161945343,2.543636202812195 L20.794412195682526,2.543636202812195 C21.28948306687772,2.543636202812195 21.673853397369385,2.9280072368568177 21.673853397369385,3.423077404499054 L21.673853397369385,16.61469542980194 L19.914970993995667,16.61469542980194 C18.94582678973675,16.61469542980194 18.15608859062195,15.826716113090516 18.15608859062195,14.855813026428223 L18.15608859062195,9.579165816307068 L16.39720618724823,9.579165816307068 L16.39720618724823,14.855813026428223 C16.39720618724823,15.826716113090516 15.607467988133429,16.61469542980194 14.638323783874512,16.61469542980194 C13.669179579615593,16.61469542980194 12.879441380500793,15.826716113090516 12.879441380500793,14.855813026428223 L12.879441380500793,6.061401009559631 L11.120558977127075,6.061401009559631 L11.120558977127075,14.855813026428223 C11.120558977127075,15.826716113090516 10.330820778012276,16.61469542980194 9.361676573753357,16.61469542980194 C8.392532369494438,16.61469542980194 7.602794170379639,15.826716113090516 7.602794170379639,14.855813026428223 L7.602794170379639,9.579165816307068 L5.84391176700592,9.579165816307068 L5.84391176700592,14.855813026428223 C5.84391176700592,15.826716113090516 5.054173567891121,16.61469542980194 4.085029363632202,16.61469542980194 L2.326146960258484,16.61469542980194 L2.326146960258484,3.423077404499054 C2.326146960258484,2.9280072368568177 2.710517994303107,2.543636202812195 3.205588161945343,2.543636202812195 zM6.7233529686927795,17.178086570191383 C7.368862810730935,17.909783408877253 8.311623778939248,18.37357783317566 9.361676573753357,18.37357783317566 C10.411729368567467,18.37357783317566 11.354490336775779,17.909783408877253 12.000000178813934,17.178086570191383 C12.64551002085209,17.909783408877253 13.588270989060403,18.37357783317566 14.638323783874512,18.37357783317566 C15.688376578688622,18.37357783317566 16.631137546896934,17.909783408877253 17.27664738893509,17.178086570191383 C17.922157230973244,17.909783408877253 18.864918199181556,18.37357783317566 19.914970993995667,18.37357783317566 L21.673853397369385,18.37357783317566 L21.673853397369385,21.011901438236237 C21.673853397369385,21.506972309431433 21.28948306687772,21.891342639923096 20.794412195682526,21.891342639923096 L3.205588161945343,21.891342639923096 C2.710517994303107,21.891342639923096 2.326146960258484,21.506972309431433 2.326146960258484,21.011901438236237 L2.326146960258484,18.37357783317566 L4.085029363632202,18.37357783317566 C5.135082158446312,18.37357783317566 6.077843126654625,17.909783408877253 6.7233529686927795,17.178086570191383 z" font-weight="400" font-family="sans-serif" white-space="normal" overflow="visible" id="svg_1" class="" fill-opacity="1" fill="#39444d"/></g></svg>