<svg xmlns="http://www.w3.org/2000/svg" width="24" height="24.435"><rect id="backgroundrect" width="100%" height="100%" x="0" y="0" fill="none" stroke="none"/><g class="currentLayer"><path style="text-indent:0;text-align:start;text-transform:none;block-progression:tb;isolation:auto;mix-blend-mode:normal;line-height:normal;text-decoration-line:none;text-decoration-style:solid;text-decoration-color:#000" d="M3.206.785A2.652 2.652 0 0 0 .567 3.423v17.589a2.652 2.652 0 0 0 2.639 2.638h17.588a2.652 2.652 0 0 0 2.639-2.638V3.423A2.652 2.652 0 0 0 20.794.785H3.206zm0 1.759h17.588c.495 0 .88.384.88.88v13.19h-1.759a1.76 1.76 0 0 1-1.759-1.758V9.579h-1.759v5.277c0 .97-.79 1.759-1.759 1.759a1.76 1.76 0 0 1-1.759-1.76V6.062h-1.758v8.795a1.76 1.76 0 0 1-3.518 0V9.579h-1.76v5.277c0 .97-.789 1.759-1.758 1.759H2.326V3.423c0-.495.385-.88.88-.88zm3.517 14.634a3.51 3.51 0 0 0 5.277 0 3.51 3.51 0 0 0 5.277 0 3.51 3.51 0 0 0 2.638 1.196h1.759v2.638c0 .495-.385.88-.88.88H3.206a.868.868 0 0 1-.88-.88v-2.638h1.759a3.51 3.51 0 0 0 2.638-1.196z" font-weight="400" font-family="sans-serif" overflow="visible" id="svg_1" fill-opacity="1" fill="#39444d"/></g></svg>