<svg xmlns="http://www.w3.org/2000/svg" style="width: 1em; height: 1em;vertical-align: middle;fill: currentColor;overflow: hidden;" version="1.1" width="24.29032253527935" height="24.55299537226258"><rect id="backgroundrect" width="100%" height="100%" x="0" y="0" fill="none" stroke="none" class="" style=""/><g class="currentLayer" style=""><title>Layer 1</title><path d="M4.96973591321008,12.27587749836484 m-1.7952587009243288,0 a1.7952587009243288,1.7952587009243288 0 1 0 3.5905174018486576,0 a1.7952587009243288,1.7952587009243288 0 1 0 -3.5905174018486576,0 zM12.145160533467008,12.27587749836484 m-1.7952587009243288,0 a1.7952587009243288,1.7952587009243288 0 1 0 3.5905174018486576,0 a1.7952587009243288,1.7952587009243288 0 1 0 -3.5905174018486576,0 zM19.32058515372393,12.27587749836484 m-1.7952587009243288,0 a1.7952587009243288,1.7952587009243288 0 1 0 3.5905174018486576,0 a1.7952587009243288,1.7952587009243288 0 1 0 -3.5905174018486576,0 z" class="selected" id="svg_2"/></g></svg>