<svg xmlns="http://www.w3.org/2000/svg" xmlns:xlink="http://www.w3.org/1999/xlink" version="1.1" style="enable-background:new 0 0 512 512;" xml:space="preserve" width="24.039802927134133" height="24.039802927134133">

<g class="currentLayer" style=""><g class="" fill="#fff" id="svg_5">
	<path class="st0" d="M1.0177949684153131,15.40447608512656 c0.4674853681412243,0 0.8423993762544835,0.37223667973147156 0.8423993762544835,0.8363836507546643 v5.868472098976408 h5.9106813377855785 c0.4674853681412243,0 0.8423993762544835,0.37223667973147156 0.8423993762544835,0.8363836507546643 s-0.3795425761146575,0.8363836507546643 -0.8423993762544835,0.8363836507546643 H1.0177949684153131 C0.5503096002740889,23.786694650931544 0.17076702415943149,23.409862456635487 0.17076702415943149,22.95031100017688 V16.245455250445808 C0.17076702415943149,15.781308279422618 0.5503096002740889,15.40447608512656 1.0177949684153131,15.40447608512656 z" id="svg_7"/>
	<path class="st0" d="M9.210360330890232,14.751913016955339 c0.3286283280992766,0.32628153408561095 0.3286283280992766,0.8547657090130086 0,1.1856427576632056 l0,0 L1.6148802405956881,23.483390689668866 c-0.3286283280992766,0.32628153408561095 -0.865542216261475,0.32628153408561095 -1.1941705443607513,0 s-0.3286283280992766,-0.8593612235775949 0,-1.1856427576632056 l7.595480090294543,-7.541239400485736 C8.344818114628758,14.425631482869727 8.881732002790955,14.425631482869727 9.210360330890232,14.751913016955339 L9.210360330890232,14.751913016955339 zM23.558921135224836,0.5058178667385316 c0.3286283280992766,0.32628153408561095 0.3286283280992766,0.8547657090130086 0,1.1856427576632056 l0,0 L15.96344104493029,9.232700024887473 c-0.3286283280992766,0.32628153408561095 -0.865542216261475,0.32628153408561095 -1.1941705443607513,0 c-0.3286283280992766,-0.32628153408561095 -0.3286283280992766,-0.8593612235775949 0,-1.1856427576632056 L22.364750590864084,0.5058178667385316 C22.69337891896336,0.17494081808833453 23.230292807125558,0.17494081808833453 23.558921135224836,0.5058178667385316 L23.558921135224836,0.5058178667385316 z" id="svg_9"/>
	<path class="st0" d="M15.426527156768094,1.0986392455701348 c0,-0.4641469710231929 0.3795425761146575,-0.8363836507546643 0.8423993762544835,-0.8363836507546643 h6.7530807140400615 C23.48949261520386,0.25766008025088377 23.869035191318517,0.6344922745469415 23.869035191318517,1.0986392455701348 v6.704855749731072 c0,0.4641469710231929 -0.3795425761146575,0.8363836507546643 -0.8423993762544835,0.8363836507546643 c-0.4674853681412243,0 -0.8423993762544835,-0.3768321942960578 -0.8423993762544835,-0.8363836507546643 V1.9350228963247982 H16.273555101023973 C15.80606973288275,1.9350228963247982 15.426527156768094,1.558190702028741 15.426527156768094,1.0986392455701348 z" id="svg_11"/>
</g></g></svg>