<svg xmlns="http://www.w3.org/2000/svg" style="enable-background:new 0 0 512 512" xml:space="preserve" width="24.04" height="24.04"><g class="currentLayer"><g fill="#fff" id="svg_5"><path class="st0" d="M1.018 15.404c.467 0 .842.373.842.837v5.868h5.91a.837.837 0 1 1 0 1.673H1.019a.837.837 0 0 1-.847-.832v-6.705c0-.464.38-.84.847-.84z" id="svg_7"/><path class="st0" d="M9.21 14.752a.836.836 0 0 1 0 1.186l-7.595 7.545c-.329.327-.866.327-1.194 0s-.329-.859 0-1.185l7.595-7.541a.847.847 0 0 1 1.194-.005zM23.56.506a.836.836 0 0 1 0 1.185l-7.596 7.542a.85.85 0 0 1-1.194 0 .836.836 0 0 1 0-1.186L22.365.506a.842.842 0 0 1 1.194 0z" id="svg_9"/><path class="st0" d="M15.427 1.099a.84.84 0 0 1 .842-.837h6.753a.838.838 0 0 1 .847.837v6.704a.84.84 0 0 1-.842.837.84.84 0 0 1-.843-.837V1.935h-5.91a.843.843 0 0 1-.847-.836z" id="svg_11"/></g></g></svg>