<svg xmlns="http://www.w3.org/2000/svg" height="26.438" width="26.304"><rect id="backgroundrect" width="100%" height="100%" x="0" y="0" fill="none" stroke="none"/><g class="currentLayer"><g id="svg_1" class="selected" stroke-width="1" stroke-opacity="1" stroke="#39444d" fill-opacity="1" fill="#39444d"><path d="M22.338 4.034C19.884 1.58 16.622.229 13.152.229S6.42 1.58 3.967 4.034C1.513 6.487.162 9.749.162 13.219s1.351 6.732 3.805 9.185c2.453 2.454 5.715 3.805 9.185 3.805s6.732-1.351 9.186-3.805c2.453-2.453 3.804-5.715 3.804-9.185s-1.351-6.732-3.804-9.185zm-9.186 20.653c-6.323 0-11.468-5.145-11.468-11.468S6.83 1.751 13.152 1.751 24.62 6.896 24.62 13.22s-5.145 11.468-11.468 11.468z" id="svg_2"/><path d="M20.22 8.36c-.842-.841-1.96-1.305-3.15-1.305s-2.309.464-3.15 1.305l-.768.768-.768-.768a4.426 4.426 0 0 0-3.15-1.305c-1.19 0-2.308.464-3.15 1.305a4.426 4.426 0 0 0-1.304 3.15c0 1.19.463 2.309 1.305 3.15l6.529 6.53a.759.759 0 0 0 1.076 0l6.53-6.53a4.425 4.425 0 0 0 1.305-3.15c0-1.19-.464-2.308-1.305-3.15zm-1.077 5.224-5.99 5.99-5.992-5.99c-.554-.554-.859-1.29-.859-2.074s.305-1.52.859-2.074a2.923 2.923 0 0 1 2.073-.857c.751 0 1.502.286 2.074.857l1.306 1.306a.761.761 0 0 0 1.076 0l1.306-1.306a2.936 2.936 0 0 1 4.147 0c.554.554.86 1.29.86 2.074 0 .783-.306 1.52-.86 2.074z" id="svg_3"/></g></g></svg>