<svg xmlns="http://www.w3.org/2000/svg" enable-background="new 0 0 512 512" height="26.438126981067064" width="26.30434771514623" style=""><rect id="backgroundrect" width="100%" height="100%" x="0" y="0" fill="none" stroke="none" class="" style=""/><g class="currentLayer" style=""><title>Layer 1</title><g id="svg_1" class="selected" stroke-width="1" stroke-opacity="1" stroke="#39444d" fill-opacity="1" fill="#39444d"><path d="m22.33750223321855,4.033735807138735 c-2.4535309630836997,-2.4534294789580793 -5.7155859549924095,-3.8046398695430654 -9.185328209985139,-3.8046398695430654 s-6.731797246901437,1.3512103905849864 -9.185328209985139,3.8046398695430654 c-2.4534294789580793,2.4535309630836997 -3.8046398695430654,5.7155859549924095 -3.8046398695430654,9.185328209985139 s1.3512103905849864,6.731797246901437 3.8046398695430654,9.185328209985139 c2.4535309630836997,2.4534294789580793 5.7155859549924095,3.8046398695430654 9.185328209985139,3.8046398695430654 s6.731797246901437,-1.3512103905849864 9.185328209985139,-3.8046398695430654 c2.4534294789580793,-2.4535309630836997 3.8046398695430654,-5.7155859549924095 3.8046398695430654,-9.185328209985139 s-1.3512103905849864,-6.731797246901437 -3.8046398695430654,-9.185328209985139 zm-9.185328209985139,20.653034405193626 c-6.323323641275647,0 -11.46770619520849,-5.144382553932843 -11.46770619520849,-11.46770619520849 s5.144382553932843,-11.46770619520849 11.46770619520849,-11.46770619520849 s11.46770619520849,5.144382553932843 11.46770619520849,11.46770619520849 s-5.144382553932843,11.46770619520849 -11.46770619520849,11.46770619520849 z" id="svg_2" stroke-width="1" stroke="#39444d" fill="#39444d"/><path d="m20.219832983878586,8.360105566500973 c-0.8414048855263149,-0.8414048855263149 -1.9600644022500604,-1.3047814031132354 -3.149965775159968,-1.3047814031132354 s-2.308611631696463,0.46337651758692067 -3.1500165172227783,1.3047814031132354 l-0.7676766682624313,0.7676766682624313 l-0.7676766682624313,-0.7676766682624313 c-0.8414048855263149,-0.8414048855263149 -1.9600644022500604,-1.3047814031132354 -3.1500165172227783,-1.3047814031132354 c-1.1899013729099073,0 -2.308611631696463,0.46337651758692067 -3.149965775159968,1.3047814031132354 c-0.8414048855263149,0.8414048855263149 -1.3047814031132354,1.960115144312871 -1.3047814031132354,3.149965775159968 c0,1.1899013729099073 0.46337651758692067,2.308611631696463 1.3047814031132354,3.149965775159968 l6.529488642475348,6.529488642475348 c0.14862350197241458,0.14862350197241458 0.34342228110252804,0.2229606239900271 0.5381703181698286,0.2229606239900271 s0.3895975582602253,-0.07428637995480197 0.5381703181698286,-0.2229606239900271 l6.529488642475348,-6.529488642475348 c0.8414048855263149,-0.841354143463504 1.3047814031132354,-1.9600136601872502 1.3047814031132354,-3.149965775159968 c0,-1.189850630847097 -0.46337651758692067,-2.3085608896336525 -1.3047814031132354,-3.149965775159968 zm-1.076391378402468,5.223590913980278 l-5.99126758224271,5.991216840179899 l-5.99126758224271,-5.99126758224271 c-0.5539003576411327,-0.553849615578322 -0.8589108971959919,-1.2902691731493872 -0.8589108971959919,-2.0735743967575 s0.30501053955486046,-1.5197247811791783 0.8589108971959919,-2.0735743967575 c0.5717108216876737,-0.5717108216876737 1.3226426092225871,-0.8575408615001047 2.0735743967575,-0.8575408615001047 c0.7509825295977245,0 1.5019143171326372,0.2858300398124315 2.07362513882031,0.8575408615001047 l1.3058977284950704,1.3058977284950704 c0.29719626188201886,0.29724700394482945 0.7791443744576386,0.29724700394482945 1.076391378402468,0 l1.3058977284950704,-1.3058977284950704 c1.1433201592497242,-1.1434216433753455 3.0037778922024647,-1.1434216433753455 4.147199535577811,0 c0.553849615578322,0.5539003576411327 0.8588601551331815,1.2903199152121978 0.8588601551331815,2.0735743967575 c0,0.7833052236081134 -0.30501053955486046,1.5197247811791783 -0.8589108971959919,2.07362513882031 z" id="svg_3" stroke-width="1" stroke="#39444d" fill="#39444d"/></g></g></svg>