<svg xmlns="http://www.w3.org/2000/svg" width="24.796" height="24.286"><rect id="backgroundrect" width="100%" height="100%" x="0" y="0" fill="none" stroke="none"/><g class="currentLayer"><g fill="#fff" id="svg_1" stroke-width="0"><path d="M24.665 16.88c0-.76-.576-1.374-1.29-1.374-.709.002-1.29.614-1.29 1.373v2.842l-5.209-5.264a1.276 1.276 0 0 0-1.821 0 1.315 1.315 0 0 0 0 1.844l5.18 5.236h-2.798c-.762.002-1.376.585-1.376 1.304 0 .72.614 1.303 1.376 1.303h5.849c.762 0 1.375-.582 1.378-1.303l-.008-.054c.003-.024.008-.05.008-.076v-5.83" id="svg_2"/><path d="m7.917 14.456-5.2 5.264v-2.842c0-.759-.58-1.37-1.29-1.373-.714 0-1.29.614-1.29 1.373L.135 22.71c0 .026.007.052.001.077-.001.018-.005.033-.007.053.002.721.616 1.303 1.378 1.303h5.85c.76 0 1.375-.583 1.375-1.303 0-.719-.615-1.302-1.376-1.304H4.558l5.18-5.236a1.318 1.318 0 0 0 0-1.844 1.279 1.279 0 0 0-1.825 0" id="svg_3"/><path d="m16.878 9.83 5.208-5.264v2.842c0 .757.582 1.369 1.29 1.371.715 0 1.29-.614 1.29-1.37V1.573c0-.025-.005-.051-.007-.074l.007-.054C24.664.723 24.051.142 23.29.142H17.44c-.762 0-1.376.581-1.376 1.304 0 .718.614 1.303 1.376 1.305h2.799l-5.18 5.235a1.31 1.31 0 0 0 0 1.841 1.272 1.272 0 0 0 1.82 0" id="svg_4"/><path d="M4.561 2.753H7.36c.76-.002 1.375-.587 1.375-1.305C8.734.726 8.12.145 7.36.145H1.51C.75.145.135.726.133 1.448l.007.055c-.002.022-.001.048-.001.074L.14 7.412c0 .756.576 1.371 1.289 1.371.71-.003 1.291-.615 1.291-1.371V4.57l5.2 5.264a1.277 1.277 0 0 0 1.825 0 1.314 1.314 0 0 0 0-1.84L4.565 2.756" id="svg_5"/></g></g></svg>