<svg xmlns="http://www.w3.org/2000/svg" width="24.79591836734693" height="24.285714285714278" style="">
<rect id="backgroundrect" width="100%" height="100%" x="0" y="0" fill="none" stroke="none" class="" style=""/>
<g class="currentLayer" style="">
<g fill="#fff" id="svg_1" class="">
<path d="m24.664760778554253,16.879210587702303 c0,-0.7590759214552838 -0.5752766658552957,-1.3729829454893947 -1.289830840286085,-1.3729829454893947 c-0.708498630579681,0.0017490228604960477 -1.2906959179790995,0.6139070240341121 -1.2906959179790995,1.3729829454893947 v2.842162148306073 l-5.2077677119532035,-5.264558810093093 c-0.5034752173350114,-0.5098401638345976 -1.3183784041555953,-0.5098401638345976 -1.821853621490606,0 c-0.5034752173350114,0.5089656524043498 -0.5034752173350114,1.3353789539887306 0,1.8443446063930793 l5.180950303469724,5.235699932894909 h-2.7985263369050855 c-0.7621334475466407,0.0017490228604960477 -1.376338609587633,0.5850481468359271 -1.376338609587633,1.3038965424998015 c0,0.7205974185243712 0.6142051620409928,1.3030220310695535 1.376338609587633,1.3030220310695535 h5.848790282477677 c0.7621334475466407,0 1.3754735318946176,-0.5815501011149347 1.3780687649736638,-1.3030220310695535 c-0.002595233079046452,-0.019239251465456485 -0.005190466158092903,-0.03410594577967291 -0.007785699237139348,-0.05334519724512944 c0.002595233079046452,-0.024486320046944645 0.007785699237139348,-0.05072166295438537 0.007785699237139348,-0.07608249443157802 v-5.831242216893812 h-0.00008650776930154841 " stroke-width="0" id="svg_2"/>
<path d="m7.916856641774511,14.455939414485034 l-5.199116935023049,5.264558810093093 v-2.842162148306073 c0,-0.7590759214552838 -0.5813322097064043,-1.371233922628899 -1.2915609956721161,-1.3729829454893947 c-0.7128240190447582,0 -1.288965762593069,0.6139070240341121 -1.288965762593069,1.3729829454893947 l-0.001730155386030968,5.83211672832406 c0,0.025360831477192675 0.006920621544123864,0.051596174384633334 0.000865077693015484,0.07608249443157802 c-0.001730155386030968,0.018364740035208486 -0.005190466158092903,0.03323143434942487 -0.006920621544123864,0.05334519724512944 c0.001730155386030968,0.7214719299546183 0.6159353174270241,1.3030220310695535 1.3772036872806481,1.3030220310695535 h5.8496553601706935 c0.7604032921606092,0 1.3754735318946176,-0.582424612545184 1.3754735318946176,-1.3030220310695535 c0,-0.7188483956638752 -0.6150702397340082,-1.3021475196393053 -1.3754735318946176,-1.3038965424998015 h-2.7985263369050855 l5.180950303469724,-5.235699932894909 c0.50174506194898,-0.5089656524043498 0.50174506194898,-1.3353789539887306 0,-1.8443446063930793 c-0.5043402950280267,-0.5107146752648456 -1.320108559541626,-0.5107146752648456 -1.825313932262668,-0.00008745114302480248 " stroke-width="0" id="svg_3"/>
<path d="m16.878196463721896,9.830648459903244 l5.2077677119532035,-5.264558810093093 v2.842162148306073 c0,0.7564523871645392 0.5821972873994202,1.368610388338155 1.2906959179790995,1.371233922628899 c0.7145541744307894,0 1.289830840286085,-0.6147815354643603 1.289830840286085,-1.371233922628899 v-5.8338657511845575 c0,-0.025360831477192675 -0.005190466158092903,-0.051596174384633334 -0.007785699237139348,-0.07433347157108201 c0.002595233079046452,-0.018364740035208486 0.005190466158092903,-0.035854968640169 0.007785699237139348,-0.0542197086753775 c-0.002595233079046452,-0.7223464413848667 -0.6159353174270241,-1.3038965424998015 -1.3772036872806481,-1.3038965424998015 h-5.848790282477677 c-0.7621334475466407,0 -1.376338609587633,0.5815501011149347 -1.376338609587633,1.3038965424998015 c0,0.7179738842336265 0.6142051620409928,1.3030220310695535 1.376338609587633,1.304771053930049 h2.7985263369050855 l-5.180950303469724,5.235699932894909 c-0.5034752173350114,0.5080911409741011 -0.5034752173350114,1.3327554196979858 0,1.8408465606720865 c0.5034752173350114,0.5124636981253409 1.3183784041555953,0.5124636981253409 1.821853621490606,0.00008745114302480248 " stroke-width="0" id="svg_4"/>
<path d="m4.561220270567453,2.7532274549060007 h2.79766125921207 c0.7604032921606092,-0.0017490228604960477 1.3754735318946176,-0.5867971696964231 1.3754735318946176,-1.304771053930049 c0,-0.7223464413848667 -0.6150702397340082,-1.3038965424998015 -1.3754735318946176,-1.3038965424998015 h-5.848790282477677 c-0.7612683698536241,0 -1.3754735318946176,0.5815501011149347 -1.3772036872806481,1.3038965424998015 c0.001730155386030968,0.018364740035208486 0.005190466158092903,0.035854968640169 0.006920621544123864,0.0542197086753775 c-0.001730155386030968,0.022737297186448593 -0.000865077693015484,0.04809812866364131 -0.000865077693015484,0.07433347157108201 l0.001730155386030968,5.8347402626148055 c0,0.7564523871645392 0.576141743548312,1.371233922628899 1.288965762593069,1.371233922628899 c0.7102287859657107,-0.002623534290744071 1.2915609956721161,-0.6147815354643603 1.2915609956721161,-1.371233922628899 v-2.842162148306073 l5.199116935023049,5.264558810093093 c0.5052053727210423,0.5115891866950933 1.3209736372346423,0.5115891866950933 1.825313932262668,0 c0.50174506194898,-0.5080911409741011 0.50174506194898,-1.3327554196979858 0,-1.8408465606720865 l-5.180950303469724,-5.236574444325156 " stroke-width="0" id="svg_5"/></g></g></svg>