<svg xmlns="http://www.w3.org/2000/svg" width="16" height="19.066"><g id="Group_467" data-name="Group 467" transform="translate(-7544 -3021.934)" fill="none"><g id="Subtraction_1" data-name="Subtraction 1"><path d="M11.993 15H4.006A8.043 8.043 0 0 1 8 0a8.043 8.043 0 0 1 3.994 15Z" transform="translate(7544 3026)"/><path d="M11.413 13A6.07 6.07 0 0 0 14 8.035C14 4.707 11.308 2 8 2 4.69 2 2 4.707 2 8.035c0 1.984.98 3.843 2.586 4.965h6.827m.58 2H4.006A8.072 8.072 0 0 1 0 8.035C0 3.605 3.589 0 8 0s8 3.605 8 8.035A8.072 8.072 0 0 1 11.994 15Z" fill="#df0035" transform="translate(7544 3026)"/></g><path id="Path_254" data-name="Path 254" d="M7547.5 3028.953v-4.4a1.649 1.649 0 0 1 1.68-1.616h5.881a1.919 1.919 0 0 1 1.07.37 1.476 1.476 0 0 1 .61 1.246l-.01 3.937" stroke="#df0035" stroke-width="2"/></g></svg>