<svg xmlns="http://www.w3.org/2000/svg" width="16" height="19.066" viewBox="0 0 16 19.066">
  <g id="Group_467" data-name="Group 467" transform="translate(-7544 -3021.934)">
    <g id="Subtraction_1" data-name="Subtraction 1" transform="translate(7544 3026)" fill="none">
      <path d="M11.993,15H4.006A8.043,8.043,0,0,1,8,0a8.043,8.043,0,0,1,3.994,15Z" stroke="none"/>
      <path d="M 11.41346073150635 13 C 13.02042293548584 11.87823390960693 14 10.01904678344727 14 8.035160064697266 C 14 4.707359790802002 11.30819988250732 2 7.999519348144531 2 C 4.691369533538818 2 1.999999523162842 4.707359790802002 1.999999523162842 8.035160064697266 C 1.999999523162842 10.01903533935547 2.979528188705444 11.878249168396 4.586256980895996 13 L 11.41346073150635 13 M 11.99332904815674 15 L 11.99303913116455 15 L 4.006359577178955 15 C 1.534949541091919 13.56713962554932 -4.76837158203125e-07 10.89842987060547 -4.76837158203125e-07 8.035160064697266 C -4.76837158203125e-07 3.604559898376465 3.588569641113281 -8.881784197001252e-16 7.999519348144531 -8.881784197001252e-16 C 12.41098976135254 -8.881784197001252e-16 16 3.604559898376465 16 8.035160064697266 C 16 10.89834022521973 14.46482944488525 13.56706047058105 11.99356937408447 14.99985980987549 L 11.99332904815674 15 Z" stroke="none" fill="#df0035"/>
    </g>
    <path id="Path_254" data-name="Path 254" d="M9.241,0V4.4a1.649,1.649,0,0,1-1.68,1.616H1.68a1.919,1.919,0,0,1-1.07-.37A1.476,1.476,0,0,1,0,4.4L.01.463" transform="translate(7556.741 3028.953) rotate(180)" fill="none" stroke="#df0035" stroke-width="2"/>
  </g>
</svg>
