<svg xmlns="http://www.w3.org/2000/svg" width="18.163265228271484" height="27" style=""><rect id="backgroundrect" width="100%" height="100%" x="0" y="0" fill="none" stroke="none" class="" style=""/>
    
<g class="currentLayer" style=""><title>Layer 1</title><path style="line-height:normal;text-indent:0;text-align:start;text-decoration-line:none;text-decoration-style:solid;text-decoration-color:#000;text-transform:none;block-progression:tb;isolation:auto;mix-blend-mode:normal" d="M9.081632815301418,0.2142849564552311 C6.476252362794542,0.2142849564552311 4.336734734475613,2.3538025847741597 4.336734734475613,4.959183037281036 L4.336734734475613,12.551019966602325 C4.336734734475613,15.1564004191092 6.476252362794542,17.29591804742813 9.081632815301418,17.29591804742813 C11.687013267808293,17.29591804742813 13.826530896127224,15.1564004191092 13.826530896127224,12.551019966602325 L13.826530896127224,4.959183037281036 C13.826530896127224,2.3538025847741597 11.687013267808293,0.2142849564552311 9.081632815301418,0.2142849564552311 zM9.081632815301418,2.112244188785554 C10.651762673921251,2.112244188785554 11.928571663796902,3.3890531786612037 11.928571663796902,4.959183037281036 L11.928571663796902,12.551019966602325 C11.928571663796902,14.121149825222158 10.651762673921251,15.397958815097809 9.081632815301418,15.397958815097809 C7.511502956681586,15.397958815097809 6.234693966805935,14.121149825222158 6.234693966805935,12.551019966602325 L6.234693966805935,4.959183037281036 C6.234693966805935,3.3890531786612037 7.511502956681586,2.112244188785554 9.081632815301418,2.112244188785554 zM0.5408162698149689,11.602040350437164 L0.5408162698149689,12.551019966602325 C0.5408162698149689,16.919095513277963 3.8869882413130767,20.51277484418249 8.132653199136257,20.995456244311807 L8.132653199136257,24.88775497674942 L4.336734734475613,24.88775497674942 L4.336734734475613,26.785714209079742 L13.826530896127224,26.785714209079742 L13.826530896127224,24.88775497674942 L10.03061243146658,24.88775497674942 L10.03061243146658,20.995456244311807 C14.276277009697914,20.51277484418249 17.62244936078787,16.919095513277963 17.62244936078787,12.551019966602325 L17.62244936078787,11.602040350437164 L15.724490128457546,11.602040350437164 L15.724490128457546,12.551019966602325 C15.724490128457546,16.208904980785512 12.739517829484605,19.193877279758453 9.081632815301418,19.193877279758453 C5.423747801118232,19.193877279758453 2.4387755021452904,16.208904980785512 2.4387755021452904,12.551019966602325 L2.4387755021452904,11.602040350437164 L0.5408162698149689,11.602040350437164 z" font-weight="400" font-family="sans-serif" white-space="normal" overflow="visible" id="svg_1" class="selected" fill-opacity="1" fill="#ffffff"/></g></svg>