<svg xmlns="http://www.w3.org/2000/svg" width="18.163" height="27"><rect id="backgroundrect" width="100%" height="100%" x="0" y="0" fill="none" stroke="none"/><g class="currentLayer"><path style="text-indent:0;text-align:start;text-transform:none;block-progression:tb;isolation:auto;mix-blend-mode:normal;line-height:normal;text-decoration-line:none;text-decoration-style:solid;text-decoration-color:#000" d="M9.082.214c-2.606 0-4.745 2.14-4.745 4.745v7.592c0 2.605 2.14 4.745 4.745 4.745s4.745-2.14 4.745-4.745V4.959c0-2.605-2.14-4.745-4.745-4.745zm0 1.898a2.85 2.85 0 0 1 2.847 2.847v7.592a2.85 2.85 0 0 1-2.847 2.847 2.85 2.85 0 0 1-2.847-2.847V4.959a2.85 2.85 0 0 1 2.847-2.847zM.54 11.602v.949c0 4.368 3.346 7.962 7.592 8.444v3.893H4.337v1.898h9.49v-1.898H10.03v-3.893c4.245-.482 7.591-4.076 7.591-8.444v-.949h-1.898v.949c0 3.658-2.984 6.643-6.642 6.643-3.658 0-6.643-2.985-6.643-6.643v-.949H.54z" font-weight="400" font-family="sans-serif" overflow="visible" id="svg_1" class="selected" fill-opacity="1" fill="#fff"/></g></svg>