<svg xmlns="http://www.w3.org/2000/svg" width="18.489795684814453" height="27.653060913085938" style=""><rect id="backgroundrect" width="100%" height="100%" x="0" y="0" fill="none" stroke="none" class="" style=""/>
    
<g class="currentLayer" style=""><title>Layer 1</title><path style="line-height:normal;text-indent:0;text-align:start;text-decoration-line:none;text-decoration-style:solid;text-decoration-color:#fff;text-transform:none;block-progression:tb;isolation:auto;mix-blend-mode:normal" d="M9.350347134010393,0.147770315408708 C7.0706980986826125,0.147770315408708 5.1646335648024575,1.7495974252664985 4.6764119332904395,3.883164397622177 L6.467148522718933,5.673900987050671 L6.467148522718933,4.953101334227807 C6.467148522718933,3.36349783320245 7.7607436329850366,2.0699027229363467 9.350347134010393,2.0699027229363467 C10.93995063503575,2.0699027229363467 12.233545745301853,3.36349783320245 12.233545745301853,4.953101334227807 L12.233545745301853,11.44029820963359 L14.091857398289113,13.298609862620852 C14.120689384402024,13.081408900570226 14.155678152829493,12.8665204560191 14.155678152829493,12.641630964338367 L14.155678152829493,4.953101334227807 C14.155678152829493,2.3044028766547187 11.999045591583481,0.147770315408708 9.350347134010393,0.147770315408708 zM0.17892233675781646,2.1111985844326338 L-1.1800852458953406,3.47020616708579 L4.545016115191293,9.195307528172425 L4.545016115191293,12.641630964338367 C4.545016115191293,15.290329421911457 6.701648676437307,17.446961983157465 9.350347134010393,17.446961983157465 C10.32721326616409,17.446961983157465 11.216400944121936,17.128073681498446 11.974508418121948,16.624799831103076 L13.341024426598628,17.991315647366516 C12.223218127876205,18.836734832699026 10.857736803274499,19.369094390685106 9.350347134010393,19.369094390685106 C5.640631587482048,19.369094390685106 2.6228837076636524,16.351346510866712 2.6228837076636524,12.641630964338367 L2.6228837076636524,11.680564760574546 L0.7007513001360136,11.680564760574546 L0.7007513001360136,12.641630964338367 C0.7007513001360136,17.08154904321396 4.076657799978664,20.708493916222594 8.389280930246573,21.193618992426085 L8.389280930246573,25.135491613268027 L4.545016115191293,25.135491613268027 L4.545016115191293,27.057624020795664 L14.155678152829493,27.057624020795664 L14.155678152829493,25.135491613268027 L10.311413337774212,25.135491613268027 L10.311413337774212,21.23491408506941 C11.974115149831368,21.046383650009474 13.484893922956424,20.375686300521217 14.722557286722358,19.372848315277007 L20.44390356993765,25.0941965206247 L21.802912690296726,23.735187400265623 L16.077810560357133,18.010087192458432 C16.077810560357133,18.010087192458432 16.081564484949034,18.00633326786653 16.081564484949034,18.00633326786653 L14.722557286722358,16.64732491636041 C14.722557286722358,16.64732491636041 14.718803362130458,16.65107903316555 14.718803362130458,16.65107903316555 L13.35604108603244,15.288317141494012 C13.357549575545864,15.28604594984128 13.358290365375725,15.283082790521833 13.359795202837578,15.28080890788373 L11.94822921605947,13.87299703791076 C11.94822921605947,13.87299703791076 11.944475099254328,13.876751154715901 11.944475099254328,13.876751154715901 L6.467148522718933,8.399424770393749 L6.467148522718933,8.391916344570225 L4.545016115191293,6.469783937042585 L4.545016115191293,6.477292362866112 L0.17892233675781646,2.1111985844326338 zM6.467148522718933,11.117439935700064 L10.57045066495412,15.220742270148492 C10.197008401304647,15.40022023042194 9.79235089957017,15.524829575629827 9.350347134010393,15.524829575629827 C7.7607436329850366,15.524829575629827 6.467148522718933,14.231234465363725 6.467148522718933,12.641630964338367 L6.467148522718933,11.117439935700064 zM16.077810560357133,11.680564760574546 L16.077810560357133,12.641630964338367 C16.077810560357133,13.427783119017171 15.916560950557233,14.171858642015753 15.66860586998617,14.875359103170869 L17.136484569907612,16.34323741866583 C17.67468164401535,15.21686782785464 17.99994296788477,13.971746590347495 17.99994296788477,12.641630964338367 L17.99994296788477,11.680564760574546 L16.077810560357133,11.680564760574546 z" font-weight="400" font-family="sans-serif" white-space="normal" overflow="visible" id="svg_1" class="" fill-opacity="1" fill="#ffffff"/></g></svg>