<svg xmlns="http://www.w3.org/2000/svg" width="18.48979591836735" height="27.653061224489804" style=""><rect id="backgroundrect" width="100%" height="100%" x="0" y="0" fill="none" stroke="none" class="" style=""/>
    
<g class="currentLayer" style=""><title>Layer 1</title><path style="line-height:normal;text-indent:0;text-align:start;text-decoration-line:none;text-decoration-style:solid;text-decoration-color:#000;text-transform:none;block-progression:tb;isolation:auto;mix-blend-mode:normal" d="M9.202198984758455,0.29591846466064553 C6.922549949430675,0.29591846466064553 5.01648541555052,1.8977455745184355 4.528263784038501,4.031312546874115 L6.319000373466995,5.822049136302609 L6.319000373466995,5.101249483479745 C6.319000373466995,3.5116459824543877 7.612595483733099,2.2180508721882846 9.202198984758455,2.2180508721882846 C10.791802485783812,2.2180508721882846 12.085397596049916,3.5116459824543877 12.085397596049916,5.101249483479745 L12.085397596049916,11.588446358885529 L13.943709249037175,13.44675801187279 C13.972541235150086,13.229557049822164 14.007530003577555,13.014668605271037 14.007530003577555,12.789779113590305 L14.007530003577555,5.101249483479745 C14.007530003577555,2.4525510259066565 11.850897442331544,0.29591846466064553 9.202198984758455,0.29591846466064553 zM0.030774187505878556,2.2593467336845716 L-1.3282333951472785,3.618354316337728 L4.3968679659393555,9.343455677424362 L4.3968679659393555,12.789779113590305 C4.3968679659393555,15.438477571163395 6.553500527185368,17.595110132409403 9.202198984758455,17.595110132409403 C10.179065116912152,17.595110132409403 11.068252794869998,17.276221830750384 11.82636026887001,16.772947980355013 L13.19287627734669,18.139463796618454 C12.075069978624267,18.984882981950964 10.70958865402256,19.517242539937044 9.202198984758455,19.517242539937044 C5.49248343823011,19.517242539937044 2.4747355584117146,16.49949466011865 2.4747355584117146,12.789779113590305 L2.4747355584117146,11.828712909826484 L0.5526031508840757,11.828712909826484 L0.5526031508840757,12.789779113590305 C0.5526031508840757,17.2296971924659 3.928509650726726,20.85664206547453 8.241132780994635,21.341767141678023 L8.241132780994635,25.283639762519964 L4.3968679659393555,25.283639762519964 L4.3968679659393555,27.205772170047602 L14.007530003577555,27.205772170047602 L14.007530003577555,25.283639762519964 L10.163265188522274,25.283639762519964 L10.163265188522274,21.383062234321347 C11.82596700057943,21.194531799261412 13.336745773704486,20.523834449773155 14.57440913747042,19.520996464528945 L20.295755420685712,25.242344669876637 L21.654764541044788,23.88333554951756 L15.929662411105195,18.15823534171037 C15.929662411105195,18.15823534171037 15.933416335697096,18.15448141711847 15.933416335697096,18.15448141711847 L14.57440913747042,16.79547306561235 C14.57440913747042,16.79547306561235 14.57065521287852,16.79922718241749 14.57065521287852,16.79922718241749 L13.207892936780501,15.43646529074595 C13.209401426293926,15.434194099093219 13.210142216123787,15.431230939773771 13.21164705358564,15.428957057135667 L11.800081066807532,14.021145187162698 C11.800081066807532,14.021145187162698 11.79632695000239,14.024899303967839 11.79632695000239,14.024899303967839 L6.319000373466995,8.547572919645686 L6.319000373466995,8.540064493822163 L4.3968679659393555,6.617932086294523 L4.3968679659393555,6.6254405121180495 L0.030774187505878556,2.2593467336845716 zM6.319000373466995,11.265588084952002 L10.422302515702182,15.36889041940043 C10.048860252052709,15.548368379673878 9.644202750318232,15.672977724881765 9.202198984758455,15.672977724881765 C7.612595483733099,15.672977724881765 6.319000373466995,14.379382614615663 6.319000373466995,12.789779113590305 L6.319000373466995,11.265588084952002 zM15.929662411105195,11.828712909826484 L15.929662411105195,12.789779113590305 C15.929662411105195,13.575931268269109 15.768412801305296,14.32000679126769 15.520457720734232,15.023507252422807 L16.988336420655674,16.491385567917767 C17.526533494763413,15.365015977106578 17.851794818632833,14.119894739599433 17.851794818632833,12.789779113590305 L17.851794818632833,11.828712909826484 L15.929662411105195,11.828712909826484 z" font-weight="400" font-family="sans-serif" white-space="normal" overflow="visible" id="svg_1" class=""/></g></svg>