<svg xmlns="http://www.w3.org/2000/svg" width="18.49" height="27.653"><rect id="backgroundrect" width="100%" height="100%" x="0" y="0" fill="none" stroke="none"/><g class="currentLayer"><path style="text-indent:0;text-align:start;text-transform:none;block-progression:tb;isolation:auto;mix-blend-mode:normal;line-height:normal;text-decoration-line:none;text-decoration-style:solid;text-decoration-color:#fff" d="M9.35.148c-2.28 0-4.185 1.602-4.674 3.735l1.791 1.79v-.72A2.887 2.887 0 0 1 9.35 2.07a2.887 2.887 0 0 1 2.884 2.883v6.487l1.858 1.859c.029-.218.064-.432.064-.657V4.953A4.812 4.812 0 0 0 9.35.148zM.18 2.11l-1.36 1.36 5.726 5.724v3.447a4.812 4.812 0 0 0 4.805 4.805c.977 0 1.866-.319 2.625-.822l1.366 1.366c-1.118.846-2.483 1.378-3.99 1.378a6.735 6.735 0 0 1-6.728-6.727v-.961H.7v.96c0 4.44 3.376 8.067 7.688 8.553v3.941H4.545v1.923h9.61v-1.923h-3.844v-3.9a8.518 8.518 0 0 0 4.412-1.862l5.72 5.721 1.36-1.359-5.725-5.725.004-.004-1.36-1.359-.003.004-1.363-1.363.004-.007-1.412-1.408-.004.004-5.477-5.478v-.007L4.545 6.47v.007L.179 2.111zm6.288 9.006 4.103 4.104c-.373.18-.778.304-1.22.304a2.887 2.887 0 0 1-2.883-2.883v-1.525zm9.61.564v.96c0 .787-.16 1.53-.408 2.234l1.467 1.468c.539-1.126.864-2.371.864-3.701v-.961h-1.922z" font-weight="400" font-family="sans-serif" overflow="visible" id="svg_1" fill-opacity="1" fill="#fff"/></g></svg>