<?xml version="1.0" standalone="no"?>
<!DOCTYPE svg PUBLIC "-//W3C//DTD SVG 1.1//EN" "http://www.w3.org/Graphics/SVG/1.1/DTD/svg11.dtd" >
<svg xmlns="http://www.w3.org/2000/svg" xmlns:xlink="http://www.w3.org/1999/xlink" version="1.1">
<metadata>
Created by FontForge 20170731 at Tue Apr 14 11:37:29 2020
 By Aleksey,,,
 
</metadata>
<defs>
<font id="OCSMMedium" horiz-adv-x="506" >
  <font-face 
    font-family="OCSM"
    font-weight="500"
    font-stretch="normal"
    units-per-em="1000"
    panose-1="0 0 0 0 0 0 0 0 0 0"
    ascent="800"
    descent="-200"
    x-height="490"
    cap-height="663"
    bbox="-170.25 -289 1127 910.24"
    underline-thickness="50"
    underline-position="-200"
    unicode-range="U+0020-FB05"
  />
<missing-glyph horiz-adv-x="457" 
d="M20 675h417v-675h-417v675zM68 48h320v579h-320v-579z" />
    <glyph glyph-name=".notdef" horiz-adv-x="457" 
d="M20 675h417v-675h-417v675zM68 48h320v579h-320v-579z" />
    <glyph glyph-name=".notdef" horiz-adv-x="457" 
d="M20 675h417v-675h-417v675zM68 48h320v579h-320v-579z" />
    <glyph glyph-name=".null" horiz-adv-x="0" 
 />
    <glyph glyph-name="nonmarkingreturn" horiz-adv-x="333" 
 />
    <glyph glyph-name="space" unicode=" " horiz-adv-x="242" 
 />
    <glyph glyph-name="exclam" unicode="!" horiz-adv-x="222" 
d="M164 644q0 19 -18 19h-67q-11 0 -15.5 -4t-3.5 -15l11 -448q0 -17 18 -17h46q17 0 17 17zM169 49q0 30 -13 44t-46 14q-58 0 -58 -58q0 -30 12.5 -45t45.5 -15q59 0 59 60z" />
    <glyph glyph-name="quotedbl" unicode="&#x22;" horiz-adv-x="285" 
d="M242 649q0 14 -13 14h-61q-16 0 -14 -14l10 -187q0 -11 11 -11h44q11 0 13 11zM131 649q0 14 -13 14h-61q-14 0 -14 -14l10 -187q0 -11 11 -11h44q13 0 13 11z" />
    <glyph glyph-name="numbersign" unicode="#" 
d="M221 17q-3 -17 15 -17h53q9 0 14 15l50 208h107q15 0 18 14v44q0 15 -15 15h-94l24 98h102q17 0 17 14l1 42q0 16 -16 16h-87l43 180q4 16 -13 16h-53q-8 0 -11 -3t-5 -13l-43 -180h-74l43 179q3 17 -12 17h-53q-15 0 -17 -16l-43 -180h-99q-20 0 -20 -14l-1 -44
q-1 -9 3 -11.5t14 -2.5h86l-23 -98h-97q-20 0 -20 -15l-1 -44q0 -14 15 -14h86l-49 -206q-3 -17 14 -17h53q11 0 15 15l49 208h74zM311 394l-24 -98h-73l23 98h74z" />
    <glyph glyph-name="dollar" unicode="$" 
d="M460 186q1 97 -52 139q-45 36 -122 57v178q26 -1 121 -15q19 -4 22 15l11 41q3 20 -19 29q-51 23 -135 29v86q0 11 -12 11h-32q-12 0 -12 -11v-85q-82 -6 -127.5 -53t-47.5 -130q-1 -81 43 -122q45 -39 131 -63v-194q-74 5 -151 20q-13 2 -17 -0.5t-6 -13.5l-9 -41
q-3 -21 15 -30q63 -28 168 -34v-88q0 -6 2 -8t10 -2h32q12 0 12 11v88q80 7 126 53t49 133zM356 178q-1 -68 -71 -79v179q40 -12 56 -34t15 -66zM159 478q2 71 71 82v-164q-40 12 -56 29.5t-15 52.5z" />
    <glyph glyph-name="percent" unicode="%" horiz-adv-x="778" 
d="M600 -7q157 0 157 226q0 69 -15 115q-9 31 -25 50q-37 47 -117 47q-115 -5 -141 -112q-12 -47 -12 -100q0 -73 12 -118q9 -33 24 -56q37 -52 117 -52zM600 351q38 0 52 -31.5t14 -107.5q0 -72 -14.5 -105t-51.5 -33q-38 0 -51 40q-10 35 -10 98q0 71 13.5 105t47.5 34z
M170 234q157 0 157 225q0 69 -15 115q-9 31 -25 50q-37 47 -117 47q-111 0 -141 -112q-12 -47 -12 -100q0 -72 12 -117q9 -33 24 -56q37 -52 117 -52zM170 592q38 0 52 -31.5t14 -107.5q0 -72 -14.5 -105t-51.5 -33q-35 0 -48 33t-13 105q0 71 13.5 105t47.5 34zM549 684
q4 16 -12 16h-50q-13 0 -21 -17l-238 -690q-4 -16 13 -16h51q14 0 18 13z" />
    <glyph glyph-name="ampersand" unicode="&#x26;" horiz-adv-x="623" 
d="M604 -1q7 15 -7 25q-63 42 -110 89q38 45 74 128q33 79 35 148q0 16 -5 22t-20 6h-40q-16 0 -19 -2.5t-5 -14.5q-22 -127 -86 -213q-71 77 -129 180q114 73 114 168q0 61 -39 100t-102 39q-67 0 -105.5 -43t-38.5 -111q0 -58 40 -122q-135 -93 -135 -221q0 -91 54 -139.5
t146 -48.5q106 0 188 61q67 -66 131 -100q25 -13 35 6zM227 76q-44 0 -71 27.5t-27 79.5q0 78 79 133q61 -105 141 -196q-61 -44 -122 -44zM311 536q0 -50 -64 -93q-26 47 -26 82q0 28 11.5 48t31.5 20t33.5 -16.5t13.5 -40.5z" />
    <glyph glyph-name="quotesingle" unicode="'" horiz-adv-x="187" 
d="M138 649q0 14 -14 14h-60q-15 0 -15 -14l11 -187q0 -11 10 -11h44q13 0 13 11z" />
    <glyph glyph-name="parenleft" unicode="(" horiz-adv-x="271" 
d="M151 308q0 98 24 193q24 93 59 159q9 16 -7 25l-33 23q-19 12 -30 -8q-121 -178 -121 -392q0 -234 121 -412q11 -17 30 -5l33 21q9 5 10.5 9.5t-3.5 15.5q-83 160 -83 371z" />
    <glyph glyph-name="parenright" unicode=")" horiz-adv-x="273" 
d="M135 308q0 -211 -83 -371q-5 -11 -3.5 -15.5t10.5 -9.5l33 -21q19 -12 30 5q121 175 121 412q0 212 -120 392q-12 20 -30 8l-34 -23q-16 -9 -7 -25q35 -66 59 -159q24 -94 24 -193z" />
    <glyph glyph-name="asterisk" unicode="*" horiz-adv-x="334" 
d="M164 663q-21 0 -22 -16l-3 -74l-62 32q-14 6 -22 -4l-19 -29q-6 -10 6 -19l61 -43l-62 -51q-7 -7 -2 -16l16 -26q9 -15 25 -5l59 34l4 -74q1 -11 4 -13.5t15 -2.5h26q12 0 16.5 3.5t4.5 12.5l3 74l60 -35q16 -9 27 8l12 20q9 13 -1 22l-65 48l64 48q8 7 1 20l-14 20
q-10 16 -29 6l-55 -32l-4 75q-1 10 -5 13.5t-17 3.5h-22z" />
    <glyph glyph-name="plus" unicode="+" horiz-adv-x="500" 
d="M439 350q0 16 -18 16h-122v142q0 17 -15 17h-63q-17 0 -17 -17v-142h-125q-17 0 -17 -16v-52q0 -16 17 -16h125v-150q0 -10 3.5 -13.5t13.5 -3.5h63q15 0 15 17v150h122q18 0 18 16v52z" />
    <glyph glyph-name="comma" unicode="," horiz-adv-x="187" 
d="M166 23q0 21 -9 45.5t-24 39.5q-20 17 -40 -1l-44 -41q-14 -13 -4 -30q22 -31 22 -66q0 -42 -27 -70q-15 -18 -5 -28l18 -19q10 -12 27 -1q38 25 62 71t24 100z" />
    <glyph glyph-name="hyphen" unicode="-" horiz-adv-x="338" 
d="M317 347q0 17 -17 17h-261q-17 0 -17 -17v-52q0 -16 17 -16h261q17 0 17 16v52z" />
    <glyph glyph-name="period" unicode="." horiz-adv-x="180" 
d="M149 52q0 59 -60 59t-60 -59q0 -30 13 -45.5t47 -15.5q60 0 60 61z" />
    <glyph glyph-name="slash" unicode="/" horiz-adv-x="246" 
d="M250 674q3 19 -13 19h-56q-17 0 -20 -15l-75 -351q-71 -334 -78 -373q-4 -18 14 -18h57q16 0 19 15z" />
    <glyph glyph-name="zero" unicode="0" 
d="M252 -9q161 0 208 153q18 58 20 133q2 38 2 64q0 113 -20 180q-14 49 -37 78q-56 72 -173 72q-86 0 -141 -48q-42 -39 -64 -111q-9 -31 -13 -64q-2 -18 -5 -58v-49q0 -84 7 -137q9 -68 38 -123q51 -90 178 -90zM252 571q72 0 94 -65q20 -56 20 -175q0 -124 -25 -181
t-89 -57q-67 0 -89 69q-18 56 -18 169q0 103 18 168q23 72 89 72z" />
    <glyph glyph-name="one" unicode="1" 
d="M439 81q0 17 -19 17h-103v546q0 19 -23 19h-55q-28 0 -49 -9l-76 -35q-16 -6 -16 -24v-36q0 -9 4.5 -12t16.5 -3h85v-446h-95q-20 0 -20 -18v-63q0 -17 20 -17h311q19 0 19 17v64z" />
    <glyph glyph-name="two" unicode="2" 
d="M254 173q30 31 58 63l45 52q45 54 66 97q19 39 19 104q0 92 -50 137t-162 45q-31 0 -85 -8q-50 -7 -82 -21q-23 -11 -19 -30l6 -41q5 -20 31 -16q100 13 147 13q58 0 77.5 -20t19.5 -72q0 -62 -53 -123q-43 -49 -119 -132q-66 -72 -102 -112q-14 -16 -14 -34v-57
q0 -18 23 -18h373q11 0 15 4t4 14v63q0 17 -21 17h-239l-2 6z" />
    <glyph glyph-name="three" unicode="3" 
d="M462 239q0 132 -115 160l-54 13v3l125 132q19 19 19 45v53q0 18 -22 18h-345q-20 0 -20 -17v-62q0 -18 21 -18h218l1 -4l-135 -139q-11 -13 -11 -33v-33q0 -13 5 -19t20 -9l111 -22q65 -14 65 -76q0 -83 -33 -110q-32 -27 -91 -27q-45 0 -146 14q-26 4 -30 -17l-7 -41
q-3 -21 22 -31q28 -11 81 -19q56 -8 83 -8q117 0 177 54q61 54 61 193z" />
    <glyph glyph-name="four" unicode="4" 
d="M491 247q0 17 -17 17h-61v382q0 16 -18 16h-68q-25 0 -36 -15l-269 -377q-10 -13 -10 -29v-57q0 -18 23 -18h266v-149q0 -17 18 -17h75q19 0 19 18v148h61q17 0 17 16v65zM134 262v3l166 231l2 -1v-233h-168z" />
    <glyph glyph-name="five" unicode="5" 
d="M344 231q0 -82 -31 -110q-31 -27 -89 -27q-57 0 -148 13q-17 3 -22.5 -0.5t-7.5 -16.5l-7 -39q-3 -21 21 -32q27 -12 81 -20q48 -7 83 -7q116 0 176 54q61 55 61 193q0 139 -130 163l-158 30l17 134h221q21 0 21 18v62q0 17 -20 17h-288q-17 0 -23.5 -5t-8.5 -20
l-35 -251q-4 -36 31 -43l191 -37q65 -14 65 -76z" />
    <glyph glyph-name="six" unicode="6" 
d="M478 193q0 215 -178 215q-57 0 -150 -11q4 87 31 129t90 42q55 0 138 -12q24 -3 29 17l8 39q3 23 -22 33q-57 25 -155 25q-118 0 -177 -80q-26 -33 -39 -85q-22 -79 -22 -197q0 -82 6 -143q8 -59 39 -107q44 -67 176 -67q98 0 162 48q64 49 64 154zM362 191
q0 -101 -107 -101q-70 0 -93 47q-16 33 -16 160q77 10 139 10q42 0 59.5 -27.5t17.5 -88.5z" />
    <glyph glyph-name="seven" unicode="7" 
d="M447 547q13 27 13 59v38q0 19 -22 19h-388q-19 0 -19 -18v-63q0 -17 19 -17h281l-227 -521q-7 -16 -4.5 -22t18.5 -13l50 -20q17 -6 26 -2t17 22z" />
    <glyph glyph-name="eight" unicode="8" 
d="M119 352q-96 -48 -96 -169q0 -192 225 -192q105 0 166.5 52t61.5 142q0 58 -26 102.5t-73 64.5q36 17 58 55.5t22 76.5q0 93 -54 140.5t-153 47.5q-100 0 -154.5 -49.5t-54.5 -144.5q0 -40 21 -74.5t57 -51.5zM341 482q0 -72 -91 -90q-92 24 -92 90q0 92 92 92
q43 0 67 -23.5t24 -68.5zM359 189q0 -44 -32 -71t-79 -27q-50 0 -79 26t-29 77q0 91 104 117q58 -16 86.5 -43.5t28.5 -78.5z" />
    <glyph glyph-name="nine" unicode="9" 
d="M29 469q0 -216 178 -216q59 0 150 11q-4 -86 -31 -128.5t-90 -42.5q-46 0 -143 13q-24 3 -28 -19l-8 -39q-3 -19 21 -31q59 -25 160 -25q174 5 215 164q23 78 23 197q0 65 -3 104q-3 40 -15 85t-35 70q-51 58 -167 58q-99 0 -163 -49q-64 -48 -64 -152zM145 470
q0 101 107 101q72 0 92 -47q16 -33 17 -159q-99 -12 -138 -12q-43 0 -60.5 27.5t-17.5 89.5z" />
    <glyph glyph-name="colon" unicode=":" horiz-adv-x="185" 
d="M152 52q0 59 -60 59q-59 0 -59 -59q0 -30 13 -45.5t46 -15.5q60 0 60 61zM152 389q0 30 -13.5 44.5t-46.5 14.5q-59 0 -59 -59q0 -30 13 -45.5t46 -15.5q60 0 60 61z" />
    <glyph glyph-name="semicolon" unicode=";" horiz-adv-x="185" 
d="M161 389q0 30 -13.5 44.5t-46.5 14.5q-60 0 -60 -59q0 -30 13.5 -45.5t46.5 -15.5q60 0 60 61zM162 23q0 53 -32 85q-20 18 -40 -1l-44 -41q-16 -14 -4 -30q22 -31 22 -66q0 -42 -27 -70q-15 -18 -6 -28l19 -19q10 -13 27 -1q37 25 61 71t24 100z" />
    <glyph glyph-name="less" unicode="&#x3c;" horiz-adv-x="500" 
d="M436 160q0 14 -15 22l-237 142v3l237 144q14 9 14 20v71q0 7 -5.5 10t-12.5 -1l-339 -202q-13 -7 -13 -20v-49q0 -12 15 -20l339 -202q6 -4 11.5 -1.5t5.5 9.5v74z" />
    <glyph glyph-name="equal" unicode="=" horiz-adv-x="500" 
d="M438 268q0 16 -17 16h-342q-17 0 -17 -16v-52q0 -17 17 -17h342q17 0 17 17v52zM438 433q0 16 -17 16h-342q-17 0 -17 -16v-52q0 -16 17 -16h342q17 0 17 16v52z" />
    <glyph glyph-name="greater" unicode="&#x3e;" horiz-adv-x="500" 
d="M65 86q0 -7 5.5 -9.5t11.5 1.5l339 202q15 8 15 20v49q0 13 -13 20l-339 202q-7 4 -12.5 1t-5.5 -10v-71q0 -11 14 -20l237 -144v-3l-237 -142q-15 -8 -15 -22v-74z" />
    <glyph glyph-name="question" unicode="?" horiz-adv-x="340" 
d="M326 514q0 78 -45 118.5t-132 40.5q-72 0 -117 -22q-21 -9 -18 -27l5 -41q2 -12 7 -14.5t20 -0.5q50 7 89 7q42 0 61 -16t19 -52q0 -30 -35 -60q-52 -50 -78 -92q-25 -40 -25 -103q0 -38 3 -60q2 -11 6.5 -14.5t16.5 -3.5h58q18 0 18 20q-1 12 -1 47q0 45 17 75t58 65
q18 15 26 23t17 21t17 30q13 27 13 59zM192 51q0 30 -13 44.5t-46 14.5q-59 0 -59 -59q0 -30 12.5 -45t46.5 -15q59 0 59 60z" />
    <glyph glyph-name="at" unicode="@" horiz-adv-x="744" 
d="M388 701q-148 0 -248 -103q-101 -103 -101 -257q0 -160 90 -259t242 -99q82 0 133 25q16 7 10 24l-10 29q-5 11 -22 7q-58 -14 -107 -14q-116 0 -187 80q-70 80 -70 208q0 122 77 205q78 83 195 83q110 0 173 -75q64 -74 64 -196q0 -65 -22 -104.5t-56 -39.5
q-45 0 -45 48v142q0 73 -24 105t-103 32q-77 0 -114 -21q-13 -7 -10 -24l4 -21q2 -9 7.5 -11t18.5 1q77 12 108.5 3.5t31.5 -52.5v-19h-66q-132 0 -132 -128q0 -57 23 -82.5t76 -25.5q61 0 113 40q27 -59 109 -59q66 0 113 57q47 58 47 163q0 147 -83 242q-82 96 -235 96z
M306 273q0 62 46 62h72v-71q-47 -34 -84 -34q-34 0 -34 43z" />
    <glyph glyph-name="A" unicode="A" horiz-adv-x="516" 
d="M386 21q3 -12 8 -16.5t18 -4.5h85q18 0 12 20l-176 622q-6 21 -29 21h-84q-23 0 -29 -21l-176 -621q-6 -21 15 -21h75q22 0 28 21l36 144h181zM264 537q7 -43 25 -117l38 -162h-135l12 45l19 75l11 44q1 5 7.5 33t12 52t6.5 30h4z" />
    <glyph glyph-name="B" unicode="B" horiz-adv-x="514" 
d="M482 189q0 68 -40 116q-23 29 -62 43v2q44 19 64 57.5t20 81.5q0 82 -51 128t-145 46h-193q-22 0 -22 -19v-625q0 -19 24 -19h219q80 0 132 51q54 53 54 138zM363 197q0 -98 -99 -98h-96v197h96q47 0 73 -27.5t26 -71.5zM344 478q0 -36 -23.5 -61t-58.5 -25h-94v172h83
q46 0 69.5 -23t23.5 -63z" />
    <glyph glyph-name="C" unicode="C" horiz-adv-x="490" 
d="M289 670q-165 0 -216 -150q-27 -78 -27 -193q0 -114 27 -191q16 -44 42 -76q61 -68 172 -68q102 0 168 29q23 11 19 33l-8 38q-6 18 -30 16q-83 -10 -141 -10q-71 0 -99 56.5t-28 173.5q0 103 21 165q26 71 106 71q54 0 141 -10q25 -4 29 15l8 41q3 21 -20 32
q-63 28 -164 28z" />
    <glyph glyph-name="D" unicode="D" horiz-adv-x="554" 
d="M508 333q0 144 -51 231q-56 99 -213 99h-168q-21 0 -21 -19v-625q0 -19 23 -19h166q179 0 233 138q31 76 31 195zM389 325q0 -127 -42 -177q-42 -48 -114 -48h-64v464h71q75 0 112 -55.5t37 -183.5z" />
    <glyph glyph-name="E" unicode="E" horiz-adv-x="460" 
d="M432 81q0 18 -18 18h-246v200h207q12 0 16 4t4 14v63q0 17 -20 17h-207v167h233q12 0 15.5 4t3.5 14v63q0 18 -20 18h-326q-22 0 -22 -19v-626q0 -18 22 -18h338q12 0 16 4t4 14v63z" />
    <glyph glyph-name="F" unicode="F" horiz-adv-x="435" 
d="M55 19q0 -19 23 -19h70q22 0 22 19v275h199q21 0 21 19v62q0 18 -20 18h-201v171h233q21 0 21 19v62q0 18 -21 18h-324q-23 0 -23 -18v-626z" />
    <glyph glyph-name="G" unicode="G" horiz-adv-x="542" 
d="M170 328q0 105 22 166q14 36 39 54t66 18t138 -12q26 -4 31 16l9 42q4 18 -22 31q-63 28 -163 28q-244 0 -244 -344q0 -158 56 -247q57 -88 192 -88q94 0 168 28q30 12 30 44q1 37 1 284q0 20 -26 20h-151q-22 0 -22 -19v-58q0 -19 22 -19h61v-166q-28 -11 -80 -11
q-78 0 -104 70q-23 64 -23 163z" />
    <glyph glyph-name="H" unicode="H" horiz-adv-x="539" 
d="M485 644q0 19 -20 19h-73q-22 0 -22 -19v-246h-202v246q0 19 -20 19h-73q-22 0 -22 -19v-625q0 -19 22 -19h73q20 0 20 19v279h202v-279q0 -19 22 -19h73q20 0 20 19v625z" />
    <glyph glyph-name="I" unicode="I" horiz-adv-x="241" 
d="M178 644q0 19 -21 19h-73q-22 0 -22 -19v-625q0 -19 22 -19h73q21 0 21 19v625z" />
    <glyph glyph-name="J" unicode="J" horiz-adv-x="386" 
d="M327 644q0 19 -22 19h-72q-22 0 -22 -19v-458q0 -47 -17.5 -68.5t-60.5 -21.5q-21 0 -96 8q-13 2 -17.5 -0.5t-6.5 -12.5l-10 -46q-5 -20 13 -29q50 -25 132 -25q178 0 179 177v476z" />
    <glyph glyph-name="K" unicode="K" horiz-adv-x="505" 
d="M492 644q6 8 2 13.5t-13 5.5h-86q-26 0 -35 -14l-110 -163q-66 -96 -83 -127h-4v285q0 19 -20 19h-72q-22 0 -22 -19v-625q0 -19 22 -19h72q20 0 20 19v163l70 99l129 -256q10 -25 37 -25h87q10 0 13 7t-2 14l-191 361z" />
    <glyph glyph-name="L" unicode="L" horiz-adv-x="442" 
d="M433 82q0 17 -19 17h-246v545q0 11 -4 15t-16 4h-73q-21 0 -21 -19v-626q0 -18 22 -18h337q12 0 16 4t4 14v64z" />
    <glyph glyph-name="M" unicode="M" horiz-adv-x="659" 
d="M605 646q0 17 -19 17h-59q-25 0 -35 -19l-94 -222q-50 -122 -65 -166h-5l-66 167l-94 222q-5 11 -11 14.5t-22 3.5h-62q-21 0 -21 -17v-627q0 -19 23 -19h68q21 0 21 19v377q2 0 3 1q23 -63 44 -109l71 -164q9 -18 29 -18h40q20 0 27 19l65 155q26 62 45 115l3 -1v-375
q0 -19 22 -19h71q21 0 21 19v627z" />
    <glyph glyph-name="N" unicode="N" horiz-adv-x="563" 
d="M399 20q11 -20 35 -20h57q19 0 19 19v625q0 19 -20 19h-71q-20 0 -20 -19v-420q-2 0 -3 -1q-23 52 -75 145l-156 277q-11 18 -33 18h-58q-21 0 -21 -17v-627q0 -19 22 -19h70q20 0 20 19v420h3q34 -71 84 -159z" />
    <glyph glyph-name="O" unicode="O" horiz-adv-x="575" 
d="M531 341q0 114 -24 186q-15 46 -41 75q-60 69 -180 69q-242 0 -242 -330q0 -59 3 -101q3 -39 17 -92q14 -50 38 -82q60 -75 183 -75q169 0 220 143q22 57 24 136q2 42 2 71zM412 331q0 -124 -29 -181t-97 -57q-67 0 -94 57t-27 181q0 123 28 181.5t93 58.5q69 0 97.5 -57
t28.5 -183z" />
    <glyph glyph-name="P" unicode="P" horiz-adv-x="468" 
d="M455 464q0 100 -58.5 149.5t-163.5 49.5h-159q-22 0 -22 -18v-626q0 -19 22 -19h73q21 0 21 19v238h83q119 0 165 70q39 60 39 137zM339 462q0 -108 -97 -108h-74v210h70q101 0 101 -102z" />
    <glyph glyph-name="Q" unicode="Q" horiz-adv-x="578" 
d="M532 341q0 113 -25 184q-14 45 -41 76q-60 70 -180 70q-242 0 -242 -330q0 -79 12 -158q8 -45 24 -76q61 -120 206 -116q12 0 15 1l187 -84q29 -14 40 14l23 62q8 18 -15 26l-97 32q93 77 93 299zM413 331q0 -121 -30 -179.5t-97 -58.5q-65 0 -93 58t-28 180
q0 123 28 181.5t93 58.5q70 0 98.5 -56.5t28.5 -183.5z" />
    <glyph glyph-name="R" unicode="R" horiz-adv-x="488" 
d="M70 663q-21 0 -21 -19v-626q0 -18 21 -18h73q21 0 21 19v247h74l100 -249q8 -17 31 -17h83q22 0 14 20l-117 265q52 21 78.5 70.5t26.5 112.5q0 96 -57 145q-56 50 -139 50h-188zM238 563q97 0 97 -99q0 -56 -25 -78.5t-74 -22.5h-72v200h74z" />
    <glyph glyph-name="S" unicode="S" horiz-adv-x="475" 
d="M230 -9q96 0 158 47t62 153q0 107 -63 148q-43 31 -134 53q-58 12 -77 27t-19 59q0 89 92 89q54 0 138 -13q17 -3 23.5 0.5t9.5 16.5l8 40q1 6 0.5 11t-5.5 10t-17 11q-60 27 -163 27q-97 0 -151.5 -51t-54.5 -144q0 -95 62 -137q47 -31 138 -53q54 -11 74 -32
q21 -19 21 -72q0 -85 -102 -85q-44 0 -154 14q-17 3 -23.5 0t-8.5 -16l-8 -42q-5 -20 21 -32q64 -29 173 -29z" />
    <glyph glyph-name="T" unicode="T" horiz-adv-x="440" 
d="M432 644q0 19 -22 19h-380q-21 0 -21 -19v-61q0 -19 22 -19h131v-545q0 -19 22 -19h73q20 0 20 19v545h132q23 0 23 19v61z" />
    <glyph glyph-name="U" unicode="U" horiz-adv-x="547" 
d="M273 95q-57 0 -82 34.5t-25 111.5v402q0 20 -23 20h-68q-14 0 -19 -4.5t-5 -15.5v-409q0 -242 222 -242q111 0 167.5 63t56.5 179v409q0 20 -23 20h-68q-23 0 -23 -20v-402q0 -75 -27 -110.5t-83 -35.5z" />
    <glyph glyph-name="V" unicode="V" horiz-adv-x="523" 
d="M139 643q-5 20 -29 20h-75q-21 0 -16 -20l181 -623q5 -20 28 -20h75q25 0 31 21l180 622q5 20 -13 20h-78q-23 0 -29 -22l-72 -278l-52 -213h-4q-10 54 -54 222z" />
    <glyph glyph-name="W" unicode="W" horiz-adv-x="739" 
d="M377 325q9 -46 38 -169l34 -135q5 -21 29 -21h71q24 0 30 21l149 621q6 22 -12 22h-77q-23 0 -28 -20l-58 -265q-33 -157 -41 -213h-4q-23 121 -43 204l-65 274q-5 20 -28 20h-76q-19 0 -11 -20l35 -134l-37 -164q-27 -112 -36 -168h-3q-22 111 -41 189l-68 277
q-5 20 -27 20h-80q-18 0 -13 -21l159 -622q4 -21 28 -21h71q25 0 29 21l35 140q28 117 36 164h4z" />
    <glyph glyph-name="X" unicode="X" horiz-adv-x="481" 
d="M352 17q9 -17 30 -17h82q23 0 14 19l-170 326l158 298q6 7 1.5 13.5t-15.5 6.5h-82q-23 0 -29 -18l-93 -200l-94 202q-4 10 -9.5 13t-19.5 3h-82q-10 0 -13.5 -6.5t1.5 -14.5l154 -297l-168 -324q-9 -21 12 -21h83q24 0 31 18l105 223z" />
    <glyph glyph-name="Y" unicode="Y" horiz-adv-x="495" 
d="M247 376q-4 10 -20.5 54t-24.5 62l-55 131q-11 27 -17.5 33t-24.5 6h-81q-7 0 -11 -5.5t0 -12.5l179 -373v-253q0 -18 22 -18h72q20 0 20 18v253l183 373q7 18 -13 18h-78q-14 0 -20 -3.5t-11 -15.5l-66 -147q-36 -81 -48 -120h-6z" />
    <glyph glyph-name="Z" unicode="Z" horiz-adv-x="450" 
d="M425 81q0 18 -21 18h-251l255 450q15 25 15 43v54q0 17 -21 17h-339q-12 0 -16 -4t-4 -14v-63q0 -10 4.5 -14t16.5 -4h230l-257 -449q-13 -22 -13 -52v-45q0 -18 20 -18h361q20 0 20 19v62z" />
    <glyph glyph-name="bracketleft" unicode="[" horiz-adv-x="236" 
d="M205 -25q0 17 -18 17h-55v612h54q18 0 18 17v57q0 17 -17 17h-139q-20 0 -20 -18v-756q0 -19 20 -19h139q18 0 18 17v56z" />
    <glyph glyph-name="backslash" unicode="\" horiz-adv-x="244" 
d="M155 -49q3 -15 19 -15h57q18 0 15 18l-153 724q-3 15 -21 15h-56q-14 0 -13 -19z" />
    <glyph glyph-name="bracketright" unicode="]" horiz-adv-x="236" 
d="M35 -81q0 -17 18 -17h139q20 0 20 19v756q0 18 -19 18h-140q-17 0 -17 -17v-57q0 -17 18 -17h54v-612h-55q-18 0 -18 -17v-56z" />
    <glyph glyph-name="asciicircum" unicode="^" horiz-adv-x="461" 
d="M450 374q9 6 1 21l-145 253q-11 15 -34 15h-56q-22 0 -33 -15l-153 -249q-10 -15 0 -24l27 -19q13 -10 24 3l161 213l157 -216q9 -11 23 -3z" />
    <glyph glyph-name="underscore" unicode="_" horiz-adv-x="435" 
d="M449 -83q0 10 -3.5 13.5t-13.5 3.5h-431q-17 0 -17 -17v-37q0 -16 17 -16h431q17 0 17 16v37z" />
    <glyph glyph-name="grave" unicode="`" horiz-adv-x="448" 
d="M225 739q-7 13 -23 2l-49 -33q-18 -13 -8 -26l102 -134q9 -12 21 -4l35 24q10 7 3 20z" />
    <glyph glyph-name="a" unicode="a" horiz-adv-x="472" 
d="M302 128q-64 -45 -114 -45q-26 0 -36.5 12.5t-10.5 43.5q0 82 68 82h93v-93zM156 -8q82 0 153 56h2l1 -1q7 -28 26 -39.5t56 -11.5q33 0 50 7q17 5 17 23v39q0 13 -21 15q-20 1 -23.5 7.5t-3.5 37.5v187q0 89 -31 136q-35 52 -148 52q-103 0 -158 -28q-16 -7 -13 -26
l8 -37q3 -17 20 -14q80 10 126 10q47 0 66.5 -19.5t19.5 -62.5v-22h-101q-88 0 -131 -40.5t-43 -126.5q0 -71 30 -106.5t98 -35.5z" />
    <glyph glyph-name="b" unicode="b" horiz-adv-x="460" 
d="M148 685q0 20 -22 20h-68q-22 0 -22 -20v-622q0 -33 28 -45q62 -27 168 -27q107 0 152 63.5t45 196.5q0 129 -38 188q-37 60 -144 60q-46 0 -97 -20l-2 2v204zM316 246q0 -85 -23 -119.5t-68 -34.5q-37 0 -77 8v285q48 17 90 17q44 0 60 -33q18 -33 18 -123z" />
    <glyph glyph-name="c" unicode="c" horiz-adv-x="391" 
d="M221 -8q99 0 147 27q15 10 12 28l-7 37q-4 18 -28 14q-59 -9 -114 -9q-48 0 -67 35t-19 125q0 82 19.5 117t67.5 35q28 0 114 -9q20 -2 24 15l7 41q3 18 -11 24q-60 28 -145 28q-133 0 -170 -112q-20 -56 -20 -142q0 -93 19 -149q11 -32 32 -56q47 -49 139 -49z" />
    <glyph glyph-name="d" unicode="d" horiz-adv-x="461" 
d="M309 483q-53 17 -100 17q-103 0 -141 -65t-38 -198q0 -126 33.5 -185t115.5 -59q62 0 129 46q2 0 3 -1v-19q0 -19 20 -19h70q20 0 20 19v666q0 20 -20 20h-67q-23 0 -23 -20v-199zM142 240q0 91 18 127t61 36q42 0 90 -14v-260q-20 -12 -52 -23q-33 -11 -54 -11
q-33 0 -48 28q-15 29 -15 117z" />
    <glyph glyph-name="e" unicode="e" horiz-adv-x="439" 
d="M224 410q43 0 60 -29t19 -90h-158q2 63 20.5 91t58.5 28zM229 -9q90 0 147 28q20 11 15 30l-6 35q-3 18 -30 14q-67 -9 -112 -9q-51 0 -73.5 28t-24.5 98h222q27 0 38.5 14.5t11.5 46.5q0 88 -35 151q-39 73 -157 73q-194 0 -194 -257q0 -110 34 -174q41 -78 164 -78z
" />
    <glyph glyph-name="f" unicode="f" horiz-adv-x="342" 
d="M240 710q-162 0 -162 -167v-53h-36q-20 0 -20 -20v-49q0 -11 4 -15.5t16 -4.5h36q0 -82 -1 -191v-191q0 -19 22 -19h68q20 0 20 19v382h99q12 0 16 4.5t4 15.5v50q0 19 -20 19h-99v40q-3 61 37 76t108 -1q25 -4 28 12l7 43q3 19 -10 25q-17 11 -52.5 18t-64.5 7z" />
    <glyph glyph-name="g" unicode="g" horiz-adv-x="461" 
d="M233 500q-108 0 -154 -63t-46 -194q0 -122 38 -186q38 -62 144 -62q46 0 100 21v-29q0 -48 -19 -67.5t-68 -19.5q-62 0 -121 10q-16 3 -22 0.5t-8 -14.5l-7 -38q-3 -19 20 -30q60 -23 144 -23q141 0 173 82q18 42 18 121v420q0 35 -28 45q-63 27 -164 27zM147 252
q0 88 23 117q24 30 68 30q36 0 76 -8v-281q-54 -17 -90 -17q-42 0 -59.5 35t-17.5 124z" />
    <glyph glyph-name="h" unicode="h" horiz-adv-x="464" 
d="M148 686q0 19 -21 19h-69q-21 0 -21 -19v-667q0 -19 21 -19h68q22 0 22 19v342q64 37 108 37q31 0 44 -19t13 -71l-1 -289q0 -19 21 -19h69q22 0 22 19v291q0 86 -22 131q-25 58 -119 58q-60 0 -131 -44l-4 2v229z" />
    <glyph glyph-name="i" unicode="i" horiz-adv-x="216" 
d="M167 620q0 29 -13 43t-47 14q-58 0 -58 -57q0 -29 12.5 -44t45.5 -15t46.5 15t13.5 44zM162 471q0 19 -21 19h-66q-23 0 -23 -19v-452q0 -19 23 -19h66q21 0 21 19v452z" />
    <glyph glyph-name="j" unicode="j" horiz-adv-x="230" 
d="M176 471q0 19 -23 19h-65q-23 0 -23 -19v-484q0 -57 -19 -73q-21 -18 -83 -31q-20 -6 -19 -24l3 -47q1 -19 25 -19q110 -4 157 44t47 154v480zM179 620q0 29 -13 43t-46 14q-58 0 -58 -57q0 -30 12.5 -44.5t45.5 -14.5q59 0 59 59z" />
    <glyph glyph-name="k" unicode="k" horiz-adv-x="422" 
d="M285 37q13 -24 15 -26q10 -11 28 -11h75q10 0 14 7t-1 15l-146 269l128 176q6 8 3 15.5t-13 7.5h-77q-23 0 -35 -17q-59 -85 -122 -184l-1 1h-1v396q0 19 -21 19h-69q-20 0 -20 -19v-668q0 -18 20 -18h69q21 0 21 18v112q11 15 49 68z" />
    <glyph glyph-name="l" unicode="l" horiz-adv-x="231" 
d="M146 -5q41 0 66 14q11 7 10 19l-4 47q0 7 -4 10t-7.5 3.5t-12.5 1.5q-19 1 -26.5 8t-7.5 26v560q0 20 -23 20h-64q-22 0 -22 -20v-578q0 -59 21 -85t74 -26z" />
    <glyph glyph-name="m" unicode="m" horiz-adv-x="718" 
d="M150 471q0 19 -21 19h-69q-20 0 -20 -19v-452q0 -19 20 -19h70q20 0 20 20v340q65 37 101 37q28 0 40.5 -18t12.5 -65q0 -63 -1 -148v-147q0 -19 20 -19h70q20 0 20 19v283q0 6 -2 54q71 41 103 41q27 0 39.5 -19t12.5 -65q0 -62 -1 -147v-147q0 -19 20 -19h72
q20 0 20 20v289q0 73 -11 109q-7 27 -21 44q-33 37 -101 37q-70 0 -149 -63q-29 63 -113 63q-62 0 -127 -51h-3l-2 1v22z" />
    <glyph glyph-name="n" unicode="n" horiz-adv-x="458" 
d="M146 471q0 19 -20 19h-70q-20 0 -20 -19v-452q0 -19 20 -19h69q21 0 21 19v342q70 36 109 36q31 0 43.5 -19.5t12.5 -69.5q0 -61 -1 -144v-145q0 -19 21 -19h70q21 0 21 19v290q0 71 -12 110q-7 24 -22 43q-33 37 -103 37q-66 0 -134 -51l-5 2v21z" />
    <glyph glyph-name="o" unicode="o" horiz-adv-x="457" 
d="M424 253q0 83 -19 136q-13 36 -33 58q-48 53 -147 53q-194 0 -194 -247q0 -87 16 -142q13 -39 31 -62q48 -57 147 -57q152 6 182 119q17 55 17 142zM226 404q50 0 68 -35.5t18 -122.5q0 -86 -18.5 -122t-68.5 -36q-47 0 -64.5 36t-17.5 122q0 84 18 121t65 37z" />
    <glyph glyph-name="p" unicode="p" horiz-adv-x="456" 
d="M153 7q51 -17 99 -17q99 0 139 61.5t40 196.5q0 128 -34 189t-116 61q-30 0 -66 -14.5t-62 -35.5l-3 2v21q0 19 -20 19h-70q-20 0 -20 -19v-636q0 -12 4 -16t16 -4h70q20 0 20 20v170zM319 249q0 -90 -18 -126t-62 -36q-42 0 -89 14v258q19 13 50 23q33 12 55 12
q33 0 48 -29q16 -28 16 -116z" />
    <glyph glyph-name="q" unicode="q" horiz-adv-x="461" 
d="M314 -165q0 -20 21 -20h70q9 0 13.5 2.5t5.5 6t1 11.5v593q0 34 -27 45q-62 27 -165 27q-107 0 -153.5 -64.5t-46.5 -196.5q0 -126 38 -187q39 -60 144 -60q49 0 97 19l2 -2v-174zM147 245q0 86 22.5 120t67.5 34q43 0 78 -8v-285q-54 -17 -91 -17q-43 0 -60 34t-17 122z
" />
    <glyph glyph-name="r" unicode="r" horiz-adv-x="318" 
d="M317 478q-1 19 -20 18q-31 -5 -68 -23.5t-60 -41.5l-2 2v38q0 19 -22 19h-69q-20 0 -20 -19v-452q0 -19 20 -19h70q21 0 21 19v321q46 24 136 45q23 6 20 30z" />
    <glyph glyph-name="s" unicode="s" horiz-adv-x="400" 
d="M375 148q0 83 -52 114q-42 26 -111 38q-41 7 -54.5 17t-13.5 35q0 30 13.5 42.5t47.5 11.5q33 0 118 -9q16 -2 22.5 0.5t8.5 13.5l7 37q3 19 -22 29q-54 23 -135 23q-80 0 -126 -39.5t-46 -111.5q0 -77 52 -108q44 -24 115 -37q37 -6 49.5 -18.5t12.5 -44.5
q0 -29 -16.5 -42.5t-53.5 -13.5q-47 0 -123 12q-16 2 -22 -1t-8 -15l-7 -33q-4 -23 22 -33q51 -23 139 -23q79 0 131 37t52 119z" />
    <glyph glyph-name="t" unicode="t" horiz-adv-x="316" 
d="M314 81q-2 11 -6.5 14t-19.5 2q-50 -5 -58 -5q-29 0 -38.5 13t-9.5 52v244h90q9 0 13 2.5t5 6.5t1 12v48q0 12 -3 16t-16 4h-89v127q0 23 -24 17l-63 -19q-21 -5 -21 -21v-104h-40q-20 0 -20 -20v-49q0 -20 20 -20h39v-286q0 -63 27.5 -93t91.5 -30q70 0 113 22
q17 11 14 29z" />
    <glyph glyph-name="u" unicode="u" horiz-adv-x="456" 
d="M307 19q0 -19 20 -19h70q20 0 20 19v452q0 19 -20 19h-68q-22 0 -22 -19v-340q-67 -37 -104 -37q-30 0 -42.5 19t-12.5 72v142q1 83 1 144q0 19 -21 19h-69q-21 0 -21 -19v-321q0 -70 20 -111q26 -48 110 -48q69 0 134 53l2 -1q1 -1 3 -1v-23z" />
    <glyph glyph-name="v" unicode="v" horiz-adv-x="436" 
d="M429 470q3 9 -1 14.5t-13 5.5h-75q-9 0 -13.5 -2.5t-5.5 -5t-4 -9.5q-46 -154 -75 -269q-1 -4 -6 -22.5t-9.5 -35.5t-4.5 -18h-3q0 4 -9 35l-10 41l-75 268q-5 18 -24 18h-76q-9 0 -12.5 -6t-1.5 -15l139 -428q1 -3 5 -14t6 -14q6 -13 27 -13h64q22 0 29 21z" />
    <glyph glyph-name="w" unicode="w" horiz-adv-x="627" 
d="M320 240q8 -36 27 -111l26 -100q4 -16 10.5 -22.5t21.5 -6.5h61q13 0 18.5 5.5t9.5 19.5l125 445q5 20 -14 20h-74q-9 0 -13.5 -2.5t-5.5 -5t-4 -9.5l-36 -150q-28 -119 -39 -174h-4q-7 47 -42 175l-39 147q-3 12 -7 15.5t-16 3.5h-70q-9 0 -12.5 -6t-1.5 -15l28 -97
l-33 -118q-18 -66 -28 -106h-3q-8 34 -14 55l-10 43l-57 225q-3 12 -7.5 15.5t-16.5 3.5h-74q-9 0 -12.5 -6t-1.5 -15l130 -445q0 -1 1 -3q3 -8 4.5 -11.5t7.5 -6.5t16 -3h61q20 0 24 19l35 113q17 57 26 108h3z" />
    <glyph glyph-name="x" unicode="x" horiz-adv-x="416" 
d="M287 15q7 -15 28 -15h84q10 0 14 6t-1 14l-138 231l131 219q8 20 -13 20h-85q-17 0 -24 -15l-74 -147l-72 143q-6 13 -10.5 16t-16.5 3h-81q-10 0 -13.5 -6t1.5 -14l126 -220l-135 -230q-6 -8 -1.5 -14t13.5 -6h83q21 0 28 15l77 154z" />
    <glyph glyph-name="y" unicode="y" horiz-adv-x="433" 
d="M222 148q-4 25 -31 125l-58 200q-5 17 -23 17h-75q-22 0 -14 -20l152 -464l-56 -171q-6 -20 15 -20h65q14 0 19 4t9 14l203 637q8 20 -13 20h-73q-18 0 -24 -16l-53 -188l-38 -138h-5z" />
    <glyph glyph-name="z" unicode="z" horiz-adv-x="392" 
d="M19 16q-1 -9 3.5 -12.5t15.5 -3.5h310q20 0 20 18v57q0 18 -21 18h-196l187 275q26 40 26 67v38q0 17 -22 17h-287q-20 0 -20 -18v-55q0 -11 4.5 -15.5t15.5 -4.5h182l-199 -289q-19 -28 -19 -64v-28z" />
    <glyph glyph-name="braceleft" unicode="{" horiz-adv-x="262" 
d="M240 -47q0 15 -19 16q-32 3 -41.5 11t-9.5 32v166q0 51 -10 76t-44 42v3q54 25 54 118v159q0 24 10 33.5t41 11.5q19 0 19 16v43q0 13 -17 18q-28 5 -58 5q-49 0 -72.5 -31t-23.5 -82v-166q0 -29 -1 -34q0 -6 -3 -23q-3 -15 -10.5 -22t-23.5 -13q-15 -4 -15 -17v-32
q0 -12 16 -16q28 -10 33 -34q4 -19 4 -53v-181q0 -111 100 -111q33 0 54 7q17 5 17 18v40z" />
    <glyph glyph-name="bar" unicode="|" horiz-adv-x="230" 
d="M161 677q0 19 -20 19h-50q-22 0 -22 -19v-772q0 -19 22 -19h50q20 0 20 19v772z" />
    <glyph glyph-name="braceright" unicode="}" horiz-adv-x="262" 
d="M16 -87q0 -13 17 -18q21 -7 54 -7q100 0 100 111v181q0 34 4 53q5 24 33 34q16 4 16 16v32q0 13 -15 17q-21 8 -30 22q-8 16 -8 70v166q0 51 -23.5 82t-72.5 31q-30 0 -58 -5q-17 -5 -17 -18v-43q0 -16 19 -16q31 -2 41 -11.5t10 -33.5v-159q0 -93 54 -118v-3
q-38 -20 -47 -52q-7 -23 -7 -66v-166q0 -24 -9.5 -32t-41.5 -11q-19 -1 -19 -16v-40z" />
    <glyph glyph-name="asciitilde" unicode="~" horiz-adv-x="500" 
d="M337 227q82 0 121 92q5 11 -9 20l-26 18q-18 13 -27 -3q-16 -23 -26.5 -31.5t-24.5 -8.5q-15 0 -67 24q-67 29 -97 29q-85 0 -119 -93q-4 -13 9 -22l24 -15q17 -13 28 1q22 26 30.5 33t24.5 9q20 0 74 -26q58 -27 85 -27z" />
    <glyph glyph-name="exclamdown" unicode="&#xa1;" horiz-adv-x="242" 
d="M163 285q0 18 -17 18h-46q-18 0 -18 -18l-11 -448q-1 -19 19 -19h67q18 0 18 19zM121 375q33 0 46 14t13 43q0 60 -59 60q-33 0 -45.5 -15t-12.5 -45q0 -57 58 -57z" />
    <glyph glyph-name="cent" unicode="&#xa2;" 
d="M80 246q0 -103 26 -165q31 -74 123 -86l13 101q-47 21 -47 153q0 84 19 118t67 34h1l13 98q-4 0 -13.5 0.5t-11.5 0.5q-91 0 -138 -54q-54 -67 -52 -200zM242 96q14 -7 38 -7h18l39 309q-32 3 -55 3zM395 98q-41 -8 -97 -9l-13 -97q92 5 131 26q16 9 13 28l-7 38
q-1 19 -27 14zM270 -8q-22 0 -41 3l-17 -137q-2 -11 11 -13l33 -4q6 0 8 2t3 9q0 1 0.5 2t0.5 2l17 136h-15zM366 627q2 15 -11 16l-28 3q-12 2 -14 -12l-18 -135q25 -2 54 -7zM415 472q-27 13 -66 20l-12 -94l58 -6q21 -2 24 15l7 41q4 18 -11 24z" />
    <glyph glyph-name="sterling" unicode="&#xa3;" 
d="M285 667q-100 0 -138 -56q-37 -55 -37 -163q0 -57 1 -71h-35q-13 0 -17.5 -3.5t-4.5 -13.5v-50q0 -11 4.5 -15t18.5 -4h35v-23v-28q0 -40 -4 -56q-1 -3 -3.5 -15t-5 -22t-5.5 -16q-15 -28 -31 -39q-14 -11 -14 -29v-46q0 -17 23 -17h352q14 0 18.5 3t4.5 13v61
q0 11 -4.5 15t-17.5 4h-229q20 19 25 112q1 11 1 46q1 20 1 37h133q13 0 17.5 4t4.5 15v50q0 10 -4.5 13.5t-17.5 3.5h-134q-1 10 -1 45q0 79 16 112t63 33q35 0 118 -11q21 -3 25 13l10 41q8 18 -16 31q-58 26 -152 26z" />
    <glyph glyph-name="currency" unicode="&#xa4;" 
d="M261 174q-43 0 -67.5 27t-24.5 74t24.5 74t67.5 27q46 0 72 -27t26 -74q0 -45 -26.5 -73t-71.5 -28zM86 273q0 -59 29 -106l-51 -50q-14 -14 -4 -24l34 -34q9 -7 13 -6.5t13 9.5l54 52q39 -19 86 -19q50 -2 97 24l55 -55q14 -14 26 -1l31 32q14 12 -3 26l-54 54
q27 47 27 102q0 49 -24 90l53 53q8 9 8.5 12.5t-7.5 12.5l-33 33q-11 13 -25 -1l-52 -52q-39 27 -99 27q-56 -2 -94 -25l-45 46q-9 7 -12.5 7.5t-13.5 -7.5l-32 -31q-12 -12 1 -25l48 -48q-26 -46 -26 -96z" />
    <glyph glyph-name="yen" unicode="&#xa5;" 
d="M158 646q-4 10 -9.5 13.5t-19.5 3.5h-73q-10 0 -14 -5.5t-1 -13.5l145 -325h-111q-17 0 -17 -14v-37q0 -14 16 -14h128v-42h-127q-17 0 -17 -13v-37q0 -14 16 -14h128v-128q0 -20 24 -20h65q24 0 24 20v128h126q16 0 16 13v36q0 9 -3 12t-13 3h-126v42h126q16 0 16 14v36
q0 9 -3 12t-13 3h-112l148 324q9 20 -15 20h-70q-22 0 -30 -18l-101 -254h-5z" />
    <glyph glyph-name="brokenbar" unicode="&#xa6;" horiz-adv-x="230" 
d="M164 266q0 19 -21 19h-50q-22 0 -22 -19v-361q0 -19 22 -19h50q21 0 21 19v361zM164 674q0 19 -21 19h-50q-22 0 -22 -19v-328q0 -19 22 -19h50q21 0 21 19v328z" />
    <glyph glyph-name="section" unicode="&#xa7;" horiz-adv-x="397" 
d="M219 671q-72 1 -127 -39q-53 -40 -55 -117q0 -73 51 -116q-55 -60 -55 -136q-1 -62 57 -112q8 -6 41 -25q7 -5 21 -11l18 -9q2 -1 18.5 -10t21.5 -12q24 -11 35 -23q24 -21 24 -50q-1 -37 -25 -55.5t-62 -18.5q-56 0 -109 15q-31 12 -38 -11l-11 -34q-4 -13 8 -23
q22 -16 65.5 -27.5t83.5 -12.5q65 0 122 34q32 18 51 53t19 81q0 61 -51 115q55 61 55 135q9 75 -81 126q-20 12 -50 28q-35 18 -47 26q-54 34 -58 76q0 30 23 46t62 16q34 0 104 -17q27 -7 33 13l10 34q5 17 -9 26q-19 14 -63 25q-41 10 -82 10zM274 245q0 -33 -25 -68
q-56 26 -80 42q-34 24 -34 61q0 36 27 71q2 -1 11.5 -5.5t18.5 -9.5t13 -8q27 -12 40 -27q29 -24 29 -56z" />
    <glyph glyph-name="dieresis" unicode="&#xa8;" horiz-adv-x="448" 
d="M154 559q31 0 42.5 14t11.5 43q0 27 -12 40t-42 13q-55 0 -55 -53q0 -30 12 -43.5t43 -13.5zM326 559q31 0 43 14t12 43q0 28 -12 40.5t-43 12.5q-54 0 -54 -53q0 -30 11.5 -43.5t42.5 -13.5z" />
    <glyph glyph-name="copyright" unicode="&#xa9;" horiz-adv-x="782" 
d="M242 327q0 -90 26 -143q31 -63 124 -63q66 0 112 20q14 6 11 22l-5 24q-3 13 -19 12q-54 -8 -92 -8q-43 0 -59.5 30t-16.5 109q0 72 17 102.5t59 30.5q45 0 87 -8q17 -4 22 11l4 26q3 14 -11 22q-45 19 -109 19q-93 0 -124 -66q-26 -53 -26 -140zM390 -8q146 0 247 100
q103 100 103 243q0 144 -101 245q-100 100 -249 100q-143 0 -246 -101q-101 -101 -101 -244q0 -142 101 -243q101 -100 246 -100zM390 620q118 0 201 -84q84 -82 84 -201q0 -117 -84 -200q-83 -83 -201 -83q-117 0 -200 83q-83 85 -83 200q0 118 83 201q82 84 200 84z" />
    <glyph glyph-name="ordfeminine" unicode="&#xaa;" horiz-adv-x="331" 
d="M271 237q20 0 33 4q21 5 21 17v30q0 10 -15 15q-18 1 -18 29v117q0 66 -25 95q-24 30 -102 30q-61 0 -105 -16q-22 -9 -17 -26l3 -25q3 -16 27 -11q98 15 119 -5q13 -10 13 -35v-13h-64q-63 0 -93 -26.5t-30 -84.5q1 -97 94 -97q59 0 100 37q13 -36 59 -35zM204 329
q-40 -26 -69 -26q-30 0 -30 33q0 48 40 48h59v-55z" />
    <glyph glyph-name="guillemotleft" unicode="&#xab;" horiz-adv-x="424" 
d="M298 45q14 -15 33 -15h72q6 0 8 4.5t-2 9.5l-104 147l101 143q12 19 -8 19h-65q-24 0 -38 -20l-87 -125q-12 -16 -1 -33zM135 45q13 -15 33 -15h72q7 0 9 4.5t-2 9.5l-105 147l101 143q12 19 -8 19h-65q-24 0 -38 -20l-87 -125q-13 -16 0 -33z" />
    <glyph glyph-name="logicalnot" unicode="&#xac;" horiz-adv-x="500" 
d="M418 118q19 0 19 17v218q0 10 -4 14t-15 4h-336q-19 0 -19 -19v-48q0 -17 19 -17h267v-152q0 -17 18 -17h51z" />
    <glyph glyph-name="uni00AD" unicode="&#xad;" horiz-adv-x="338" 
d="M316 347q0 17 -19 17h-256q-19 0 -19 -17v-52q0 -16 19 -16h256q19 0 19 16v52z" />
    <glyph glyph-name="registered" unicode="&#xae;" horiz-adv-x="505" 
d="M302 489q43 16 43 71q0 37 -22 56.5t-56 19.5h-81q-10 0 -10 -10v-233q0 -10 8 -10h32q7 0 7 11v86h30l41 -89q3 -8 14 -8h35q14 0 6 11zM296 560q0 -36 -38 -36h-35v68h35q38 0 38 -32zM253 728q-92 0 -156 -64q-64 -63 -64 -154t64 -155q65 -63 156 -63t156 63
q64 64 64 155q0 92 -64 155q-63 63 -156 63zM253 687q73 0 125 -52t52 -125q0 -74 -52 -126t-125 -52q-74 0 -126 52t-52 126q0 73 52 125t126 52z" />
    <glyph glyph-name="macron" unicode="&#xaf;" horiz-adv-x="448" 
d="M377 638q0 10 -4 13t-15 3h-242q-19 0 -19 -16v-53q0 -17 19 -17h242q19 0 19 17v53z" />
    <glyph glyph-name="degree" unicode="&#xb0;" horiz-adv-x="324" 
d="M167 410q55 0 92 36t37 89q0 50 -38 88t-91 38q-54 0 -94 -38q-39 -37 -39 -88q0 -55 36.5 -90t96.5 -35zM106 533q0 27 17.5 44.5t41.5 17.5t41 -17.5t17 -44.5q0 -25 -16 -42.5t-42 -17.5t-42.5 17.5t-16.5 42.5z" />
    <glyph glyph-name="plusminus" unicode="&#xb1;" horiz-adv-x="500" 
d="M437 371q0 9 -4 12.5t-15 3.5h-119v137q0 17 -18 17h-59q-19 0 -19 -17v-137h-123q-18 0 -18 -16v-51q0 -16 18 -16h123v-146q0 -18 19 -18h60q17 0 17 18v146h119q11 0 15 3.5t4 12.5v51zM437 87q0 16 -19 16h-336q-19 0 -19 -16v-46q0 -17 19 -17h336q19 0 19 17v46z
" />
    <glyph glyph-name="uni00B2" unicode="&#xb2;" horiz-adv-x="335" 
d="M242 511q30 33 42.5 61.5t12.5 67.5q0 121 -144 121q-67 0 -112 -17q-21 -9 -17 -30l5 -29q1 -15 24 -12q67 7 99 7t43 -11t11 -37q0 -32 -32 -67l-143 -153q-13 -13 -13 -30v-35q0 -17 20 -17h249q18 0 18 17v45q0 17 -18 17h-137l-1 2z" />
    <glyph glyph-name="uni00B3" unicode="&#xb3;" horiz-adv-x="335" 
d="M283 670q17 17 17 34v37q0 16 -22 16h-231q-17 0 -17 -17v-44q0 -16 17 -16h127l1 -5l-71 -70q-11 -11 -11 -23v-23q0 -23 24 -27l63 -11q43 -7 43 -39q0 -44 -18 -60t-56 -16q-31 0 -95 10q-21 5 -26 -15l-5 -26q-5 -19 10 -26q17 -9 56 -17q38 -6 62 -6q83 0 123 36.5
t40 124.5q0 84 -77 104l-23 6q0 2 1 5z" />
    <glyph glyph-name="acute" unicode="&#xb4;" horiz-adv-x="448" 
d="M363 689q10 13 -4 22l-57 32q-16 9 -23 -4l-73 -154q-8 -15 4 -20l33 -18q15 -7 25 3q25 35 47 68z" />
    <glyph glyph-name="mu" unicode="&#xb5;" horiz-adv-x="462" 
d="M313 20q0 -20 23 -20h65q23 0 23 20v450q0 20 -23 20h-65q-23 0 -23 -20v-332q-74 -44 -109 -44q-30 0 -42.5 17t-12.5 61v298q0 20 -22 20h-67q-22 0 -22 -20v-633q0 -12 4 -16.5t18 -4.5h66q23 0 23 21v165q26 -6 60 -1q46 1 99 41l5 -1v-21z" />
    <glyph glyph-name="paragraph" unicode="&#xb6;" horiz-adv-x="473" 
d="M204 663q-86 0 -136.5 -53.5t-50.5 -149.5q0 -63 38 -115q39 -50 105 -52v-373q0 -20 23 -20h45q22 0 22 20v650h72v-650q0 -20 22 -20h46q22 0 22 20v649h26q18 0 18 20v55q0 19 -22 19h-230z" />
    <glyph glyph-name="periodcentered" unicode="&#xb7;" horiz-adv-x="185" 
d="M151 260q0 31 -13 45.5t-46 14.5q-59 0 -59 -60q0 -61 59 -61t59 61z" />
    <glyph glyph-name="cedilla" unicode="&#xb8;" horiz-adv-x="370" 
d="M234 -120q0 -36 -42 -36q-23 0 -53 5q-13 1 -16 -7l-5 -26q-2 -9 6 -12q27 -12 73 -12q53 0 81 23.5t28 66.5q0 34 -19 52.5t-65 21.5l18 54q2 8 -8 8h-34q-7 0 -12 -8l-23 -74q-6 -22 15 -24q33 -2 44.5 -8t11.5 -24z" />
    <glyph glyph-name="uni00B9" unicode="&#xb9;" horiz-adv-x="305" 
d="M270 392q0 16 -16 16h-55v332q0 6 -1 9t-5.5 5.5t-13.5 2.5h-43q-18 0 -38 -9l-45 -20q-15 -8 -15 -21v-26q0 -15 16 -15h53v-258h-50q-16 0 -16 -16v-45q0 -10 3.5 -13t12.5 -3h197q10 0 13 3.5t3 12.5v45z" />
    <glyph glyph-name="ordmasculine" unicode="&#xba;" horiz-adv-x="315" 
d="M297 409q0 68 -24 110q-29 54 -116 54q-137 0 -137 -164q0 -59 11 -94q7 -24 21 -41q35 -39 105 -39q94 0 119 60q21 48 21 114zM157 497q30 0 41.5 -21t11.5 -72t-11.5 -72t-41.5 -21q-29 0 -39.5 21t-10.5 72t10.5 72t39.5 21z" />
    <glyph glyph-name="guillemotright" unicode="&#xbb;" horiz-adv-x="423" 
d="M233 175q12 17 -1 33l-86 125q-9 12 -16 16t-22 4h-66q-8 0 -10.5 -5.5t3.5 -13.5l100 -143l-104 -147q-4 -5 -2 -9.5t8 -4.5h72q23 0 33 15zM396 175q11 17 -1 33l-87 125q-14 20 -38 20h-65q-20 0 -8 -19l101 -143l-104 -147q-4 -5 -2 -9.5t8 -4.5h72q22 0 33 15z" />
    <glyph glyph-name="onequarter" unicode="&#xbc;" horiz-adv-x="801" 
d="M744 160q0 17 -17 17h-32v233q0 15 -20 15h-46q-17 0 -28 -14l-171 -232q-10 -16 -10 -32v-30q0 -16 21 -16h166v-86q0 -10 3.5 -12.5t15.5 -2.5h50q11 0 15 3t4 13v85h32q17 0 17 16v43zM512 176l95 130v-130h-95zM286 302q0 16 -16 16h-55v332q0 6 -1 9t-5.5 5.5
t-13.5 2.5h-43q-18 0 -38 -9l-45 -20q-15 -8 -15 -21v-26q0 -15 16 -15h53v-258h-50q-16 0 -16 -16v-45q0 -10 3.5 -13t12.5 -3h197q10 0 13 3.5t3 12.5v45zM553 684q4 16 -12 16h-50q-13 0 -21 -17l-238 -690q-4 -16 13 -16h51q14 0 18 13z" />
    <glyph glyph-name="onehalf" unicode="&#xbd;" horiz-adv-x="801" 
d="M695 180q30 33 42.5 61.5t12.5 67.5q0 122 -144 122q-66 0 -112 -18q-21 -9 -17 -30l5 -29q2 -14 24 -12q67 7 99 7t43 -11t11 -36q0 -33 -32 -68l-143 -153q-13 -10 -13 -30v-35q0 -17 20 -17h249q18 0 18 17v45q0 17 -18 17h-137l-1 2zM275 302q0 16 -16 16h-55v332
q0 6 -1 9t-5.5 5.5t-13.5 2.5h-43q-19 0 -38 -9l-45 -20q-15 -8 -15 -21v-26q0 -15 16 -15h53v-258h-50q-16 0 -16 -16v-45q0 -10 3.5 -13t12.5 -3h197q10 0 13 3.5t3 12.5v45zM538 684q4 16 -12 16h-50q-13 0 -21 -17l-238 -690q-4 -16 13 -16h51q14 0 18 13z" />
    <glyph glyph-name="threequarters" unicode="&#xbe;" horiz-adv-x="801" 
d="M771 160q0 17 -17 17h-32v233q0 15 -20 15h-46q-17 0 -28 -14l-171 -232q-10 -16 -10 -32v-30q0 -16 21 -16h166v-86q0 -10 3.5 -12.5t15.5 -2.5h50q11 0 15 3t4 13v85h32q17 0 17 16v43zM539 176l95 130v-130h-95zM292 580q17 17 17 34v37q0 16 -22 16h-231
q-17 0 -17 -17v-44q0 -16 17 -16h127l1 -5l-71 -70q-11 -11 -11 -23v-23q0 -23 24 -27l63 -11q43 -7 43 -39q0 -44 -18 -60t-56 -16q-31 0 -95 10q-21 5 -26 -15l-5 -26q-5 -19 10 -26q17 -9 56 -17q38 -6 62 -6q83 0 123 36.5t40 124.5q0 84 -77 104l-23 6q0 2 1 5z
M569 684q4 16 -12 16h-50q-13 0 -21 -17l-238 -690q-4 -16 13 -16h51q14 0 18 13z" />
    <glyph glyph-name="questiondown" unicode="&#xbf;" horiz-adv-x="340" 
d="M13 -32q0 -76 45.5 -117t132.5 -41q72 0 117 22q21 9 18 27l-5 41q-2 10 -7.5 13.5t-19.5 1.5q-50 -7 -89 -7q-42 0 -61 16t-19 52q0 30 35 60q39 38 54 56q19 24 33 59q16 36 16 81q0 36 -3 59q-2 11 -6.5 14.5t-16.5 3.5h-57q-19 0 -19 -20q1 -11 1 -47q0 -45 -17 -75
t-57 -65q-44 -35 -62 -75q-13 -26 -13 -59zM148 432q0 -30 13 -44.5t46 -14.5q59 0 59 59q0 30 -12.5 45t-46.5 15q-59 0 -59 -60z" />
    <glyph glyph-name="Agrave" unicode="&#xc0;" horiz-adv-x="516" 
d="M386 21q3 -12 8 -16.5t18 -4.5h85q18 0 12 20l-176 622q-6 21 -29 21h-84q-23 0 -29 -21l-176 -621q-6 -21 15 -21h75q22 0 28 21l36 144h181zM264 537q7 -43 25 -117l38 -162h-135l12 45l19 75l11 44q1 5 7.5 33t12 52t6.5 30h4zM264 711q13 -6 23 10l21 31q6 10 -6 20
l-138 100q-12 9 -22 -7l-35 -55q-9 -15 7 -22z" />
    <glyph glyph-name="Aacute" unicode="&#xc1;" horiz-adv-x="516" 
d="M386 21q3 -12 8 -16.5t18 -4.5h85q18 0 12 20l-176 622q-6 21 -29 21h-84q-23 0 -29 -21l-176 -621q-6 -21 15 -21h75q22 0 28 21l36 144h181zM264 537q7 -43 25 -117l38 -162h-135l12 45l19 75l11 44q1 5 7.5 33t12 52t6.5 30h4zM402 787q16 7 7 22l-35 55q-10 16 -22 7
l-138 -100q-12 -10 -6 -20l21 -31q10 -16 23 -10z" />
    <glyph glyph-name="Acircumflex" unicode="&#xc2;" horiz-adv-x="516" 
d="M386 21q3 -12 8 -16.5t18 -4.5h85q18 0 12 20l-176 622q-6 21 -29 21h-84q-23 0 -29 -21l-176 -621q-6 -21 15 -21h75q22 0 28 21l36 144h181zM264 537q7 -43 25 -117l38 -162h-135l12 45l19 75l11 44q1 5 7.5 33t12 52t6.5 30h4zM413 732q10 10 -1 21l-98 104
q-11 11 -32 11h-49q-18 0 -28 -10l-100 -106q-13 -12 -1 -24l24 -25q8 -13 25 1l104 84l104 -79q16 -15 28 -3z" />
    <glyph glyph-name="Atilde" unicode="&#xc3;" horiz-adv-x="516" 
d="M386 21q3 -12 8 -16.5t18 -4.5h85q18 0 12 20l-176 622q-6 21 -29 21h-84q-23 0 -29 -21l-176 -621q-6 -21 15 -21h75q22 0 28 21l36 144h181zM264 537q7 -43 25 -117l38 -162h-135l12 45l19 75l11 44q1 5 7.5 33t12 52t6.5 30h4zM331 719q68 0 98 89q7 16 -8 24l-28 14
q-13 6 -23 -10q-20 -33 -40 -33q-7 0 -61 26q-44 24 -73 24q-67 0 -102 -92q-6 -14 7 -21l27 -14q12 -5 14.5 -4t8.5 10q21 36 44 36q15 0 64 -24q49 -25 72 -25z" />
    <glyph glyph-name="Adieresis" unicode="&#xc4;" horiz-adv-x="516" 
d="M386 21q3 -12 8 -16.5t18 -4.5h85q18 0 12 20l-176 622q-6 21 -29 21h-84q-23 0 -29 -21l-176 -621q-6 -21 15 -21h75q22 0 28 21l36 144h181zM264 537q7 -43 25 -117l38 -162h-135l12 45l19 75l11 44q1 5 7.5 33t12 52t6.5 30h4zM171 727q31 0 42.5 14t11.5 43
q0 28 -11.5 40.5t-42.5 12.5q-54 0 -54 -53q0 -30 11.5 -43.5t42.5 -13.5zM340 727q31 0 42.5 14t11.5 43q0 28 -11.5 40.5t-42.5 12.5q-53 0 -53 -53q0 -30 11 -43.5t42 -13.5z" />
    <glyph glyph-name="Aring" unicode="&#xc5;" horiz-adv-x="516" 
d="M386 21q3 -12 8 -16.5t18 -4.5h85q18 0 12 20l-176 622q-6 21 -29 21h-84q-23 0 -29 -21l-176 -621q-6 -21 15 -21h75q22 0 28 21l36 144h181zM264 537q7 -43 25 -117l38 -162h-135l12 45l19 75l11 44q1 5 7.5 33t12 52t6.5 30h4zM337 717q30 30 30 72t-30 72t-74 30
t-76 -29q-31 -28 -31 -73t31 -73t76 -28q43 0 74 29zM263 836q18 0 30.5 -14.5t12.5 -32.5q2 -28 -20.5 -40.5t-45 -0.5t-19.5 41q0 18 12.5 32.5t29.5 14.5z" />
    <glyph glyph-name="AE" unicode="&#xc6;" horiz-adv-x="773" 
d="M755 81q0 18 -19 18h-233v200h196q12 0 15.5 4t3.5 14v63q0 17 -19 17h-196v167h220q21 0 21 18v63q0 18 -20 18h-371q-16 0 -22.5 -3.5t-12.5 -15.5l-303 -624q-11 -20 11 -20h80q24 0 33 19l71 146h177q0 -136 1 -147q0 -18 21 -18h326q12 0 16 4t4 14v63zM387 258
h-137l132 283h5v-283z" />
    <glyph glyph-name="Ccedilla" unicode="&#xc7;" horiz-adv-x="490" 
d="M46 327q0 -305 196 -333l-19 -58q-6 -22 15 -24q34 -2 45 -8t11 -24q0 -36 -43 -36q-20 0 -52 5q-9 1 -11 0t-4 -7l-6 -26q-2 -8 7 -13q30 -11 72 -11q53 0 81 23.5t28 66.5q0 34 -19 52.5t-65 21.5l12 36q98 1 161 29q23 11 19 33l-8 38q-6 18 -30 16q-83 -10 -141 -10
q-71 0 -99 56.5t-28 173.5q0 103 21 165q26 71 106 71q54 0 141 -10q25 -4 29 15l8 41q3 21 -20 32q-63 28 -164 28q-165 0 -216 -150q-27 -78 -27 -193z" />
    <glyph glyph-name="Egrave" unicode="&#xc8;" horiz-adv-x="460" 
d="M432 81q0 18 -18 18h-246v200h207q12 0 16 4t4 14v63q0 17 -20 17h-207v167h233q12 0 15.5 4t3.5 14v63q0 18 -20 18h-326q-22 0 -22 -19v-626q0 -18 22 -18h338q12 0 16 4t4 14v63zM252 711q13 -6 23 10l21 31q6 10 -6 20l-138 100q-12 9 -22 -7l-35 -55q-9 -15 7 -22z
" />
    <glyph glyph-name="Eacute" unicode="&#xc9;" horiz-adv-x="460" 
d="M432 81q0 18 -18 18h-246v200h207q12 0 16 4t4 14v63q0 17 -20 17h-207v167h233q12 0 15.5 4t3.5 14v63q0 18 -20 18h-326q-22 0 -22 -19v-626q0 -18 22 -18h338q12 0 16 4t4 14v63zM359 787q16 7 7 22l-35 55q-10 16 -22 7l-138 -100q-12 -10 -6 -20l21 -31
q10 -16 23 -10z" />
    <glyph glyph-name="Ecircumflex" unicode="&#xca;" horiz-adv-x="460" 
d="M432 81q0 18 -18 18h-246v200h207q12 0 16 4t4 14v63q0 17 -20 17h-207v167h233q12 0 15.5 4t3.5 14v63q0 18 -20 18h-326q-22 0 -22 -19v-626q0 -18 22 -18h338q12 0 16 4t4 14v63zM394 732q10 10 -1 21l-98 104q-11 11 -32 11h-49q-18 0 -28 -10l-100 -106
q-12 -12 -1 -24l24 -25q8 -13 25 1l104 84l104 -79q16 -15 28 -3z" />
    <glyph glyph-name="Edieresis" unicode="&#xcb;" horiz-adv-x="460" 
d="M432 81q0 18 -18 18h-246v200h207q12 0 16 4t4 14v63q0 17 -20 17h-207v167h233q12 0 15.5 4t3.5 14v63q0 18 -20 18h-326q-22 0 -22 -19v-626q0 -18 22 -18h338q12 0 16 4t4 14v63zM153 727q31 0 42.5 14t11.5 43q0 28 -11.5 40.5t-42.5 12.5q-54 0 -54 -53
q0 -30 11.5 -43.5t42.5 -13.5zM322 727q31 0 42.5 14t11.5 43q0 28 -11.5 40.5t-42.5 12.5q-53 0 -53 -53q0 -30 11 -43.5t42 -13.5z" />
    <glyph glyph-name="Igrave" unicode="&#xcc;" horiz-adv-x="241" 
d="M146 711q13 -6 23 10l21 31q6 10 -6 20l-138 100q-12 9 -22 -7l-35 -55q-9 -15 7 -22zM187 644q0 19 -21 19h-73q-22 0 -22 -19v-625q0 -19 22 -19h73q21 0 21 19v625z" />
    <glyph glyph-name="Iacute" unicode="&#xcd;" horiz-adv-x="241" 
d="M251 787q16 7 7 22l-35 55q-10 16 -22 7l-138 -100q-12 -10 -6 -20l21 -31q10 -16 23 -10zM184 644q0 19 -21 19h-73q-22 0 -22 -19v-625q0 -19 22 -19h73q21 0 21 19v625z" />
    <glyph glyph-name="Icircumflex" unicode="&#xce;" horiz-adv-x="241" 
d="M189 644q0 19 -21 19h-73q-22 0 -22 -19v-625q0 -19 22 -19h73q21 0 21 19v625zM289 732q10 10 -1 21l-98 104q-11 11 -32 11h-49q-18 0 -28 -10l-100 -106q-12 -12 -1 -24l24 -25q8 -13 25 1l104 84l104 -79q16 -15 28 -3z" />
    <glyph glyph-name="Idieresis" unicode="&#xcf;" horiz-adv-x="241" 
d="M38 727q31 0 42.5 14t11.5 43q0 28 -11.5 40.5t-42.5 12.5q-54 0 -54 -53q0 -30 11.5 -43.5t42.5 -13.5zM207 727q31 0 42.5 14t11.5 43q0 28 -11.5 40.5t-42.5 12.5q-53 0 -53 -53q0 -30 11 -43.5t42 -13.5zM178 644q0 19 -21 19h-73q-22 0 -22 -19v-625q0 -19 22 -19
h73q21 0 21 19v625z" />
    <glyph glyph-name="Eth" unicode="&#xd0;" horiz-adv-x="554" 
d="M508 333q0 144 -51 231q-56 99 -213 99h-168q-21 0 -21 -19v-268h-33q-17 0 -17 -17v-47q0 -15 17 -15h33v-278q0 -19 23 -19h166q179 0 233 138q31 76 31 195zM272 360q0 16 -17 16h-86v188h71q75 0 112 -55.5t37 -183.5q0 -137 -49 -184q-42 -41 -113 -41h-58v197h86
q17 0 17 16v47z" />
    <glyph glyph-name="Ntilde" unicode="&#xd1;" horiz-adv-x="563" 
 />
    <glyph glyph-name="Ograve" unicode="&#xd2;" horiz-adv-x="575" 
d="M531 341q0 114 -24 186q-15 46 -41 75q-60 69 -180 69q-242 0 -242 -330q0 -59 3 -101q3 -39 17 -92q14 -50 38 -82q60 -75 183 -75q169 0 220 143q22 57 24 136q2 42 2 71zM412 331q0 -124 -29 -181t-97 -57q-67 0 -94 57t-27 181q0 123 28 181.5t93 58.5q69 0 97.5 -57
t28.5 -183zM300 711q13 -6 23 10l21 31q6 10 -6 20l-138 100q-12 9 -22 -7l-35 -55q-9 -15 7 -22z" />
    <glyph glyph-name="Oacute" unicode="&#xd3;" horiz-adv-x="575" 
d="M531 341q0 114 -24 186q-15 46 -41 75q-60 69 -180 69q-242 0 -242 -330q0 -59 3 -101q3 -39 17 -92q14 -50 38 -82q60 -75 183 -75q169 0 220 143q22 57 24 136q2 42 2 71zM412 331q0 -124 -29 -181t-97 -57q-67 0 -94 57t-27 181q0 123 28 181.5t93 58.5q69 0 97.5 -57
t28.5 -183zM428 787q16 7 7 22l-35 55q-10 16 -22 7l-138 -100q-12 -10 -6 -20l21 -31q10 -16 23 -10z" />
    <glyph glyph-name="Ocircumflex" unicode="&#xd4;" horiz-adv-x="575" 
d="M531 341q0 114 -24 186q-15 46 -41 75q-60 69 -180 69q-242 0 -242 -330q0 -59 3 -101q3 -39 17 -92q14 -50 38 -82q60 -75 183 -75q169 0 220 143q22 57 24 136q2 42 2 71zM412 331q0 -124 -29 -181t-97 -57q-67 0 -94 57t-27 181q0 123 28 181.5t93 58.5q69 0 97.5 -57
t28.5 -183zM445 732q10 10 -1 21l-98 104q-11 11 -32 11h-49q-18 0 -28 -10l-100 -106q-13 -12 -1 -24l24 -25q8 -13 25 1l104 84l104 -79q16 -15 28 -3z" />
    <glyph glyph-name="Otilde" unicode="&#xd5;" horiz-adv-x="575" 
d="M531 341q0 114 -24 186q-15 46 -41 75q-60 69 -180 69q-242 0 -242 -330q0 -59 3 -101q3 -39 17 -92q14 -50 38 -82q60 -75 183 -75q169 0 220 143q22 57 24 136q2 42 2 71zM412 331q0 -124 -29 -181t-97 -57q-67 0 -94 57t-27 181q0 123 28 181.5t93 58.5q69 0 97.5 -57
t28.5 -183zM354 723q68 0 98 89q7 16 -8 24l-28 14q-13 6 -23 -10q-19 -33 -40 -33q-7 0 -61 26q-43 24 -73 24q-67 0 -102 -92q-6 -14 7 -21l27 -14q12 -5 14.5 -4t8.5 10q21 36 44 36q14 0 64 -24q49 -25 72 -25z" />
    <glyph glyph-name="Odieresis" unicode="&#xd6;" horiz-adv-x="575" 
d="M531 341q0 114 -24 186q-15 46 -41 75q-60 69 -180 69q-242 0 -242 -330q0 -59 3 -101q3 -39 17 -92q14 -50 38 -82q60 -75 183 -75q169 0 220 143q22 57 24 136q2 42 2 71zM412 331q0 -124 -29 -181t-97 -57q-67 0 -94 57t-27 181q0 123 28 181.5t93 58.5q69 0 97.5 -57
t28.5 -183zM201 727q31 0 42.5 14t11.5 43q0 28 -11.5 40.5t-42.5 12.5q-54 0 -54 -53q0 -30 11.5 -43.5t42.5 -13.5zM370 727q31 0 42.5 14t11.5 43q0 28 -11.5 40.5t-42.5 12.5q-53 0 -53 -53q0 -30 11 -43.5t42 -13.5z" />
    <glyph glyph-name="multiply" unicode="&#xd7;" horiz-adv-x="500" 
d="M368 142q10 -14 24 0l38 33q11 11 -1 24l-108 123l107 120q10 14 0 24l-32 28q-20 20 -33 6l-100 -114l-104 117q-11 13 -24 0l-38 -33q-12 -12 1 -24l108 -123l-108 -121q-14 -14 -1 -24l40 -38q13 -13 24 1l103 118z" />
    <glyph glyph-name="Oslash" unicode="&#xd8;" horiz-adv-x="575" 
d="M531 341q0 173 -57 249l30 49q7 13 -3 20l-19 12q-11 6 -22 -8l-22 -36q-59 44 -152 44q-242 0 -242 -330q0 -192 56 -270l-29 -47q-7 -13 2 -19l21 -12q12 -7 22 7l20 34q55 -43 149 -43q169 0 220 143q22 57 24 136q2 42 2 71zM412 331q0 -124 -29 -181t-97 -57
q-60 0 -87 44l201 330q12 -54 12 -136zM165 331q0 123 28 181.5t93 58.5q62 0 90 -45l-200 -330q-11 53 -11 135z" />
    <glyph glyph-name="Ugrave" unicode="&#xd9;" horiz-adv-x="547" 
d="M273 95q-57 0 -82 34.5t-25 111.5v402q0 20 -23 20h-68q-14 0 -19 -4.5t-5 -15.5v-409q0 -242 222 -242q111 0 167.5 63t56.5 179v409q0 20 -23 20h-68q-23 0 -23 -20v-402q0 -75 -27 -110.5t-83 -35.5zM297 711q13 -6 23 10l21 31q6 10 -6 20l-138 100q-12 9 -22 -7
l-35 -55q-9 -15 7 -22z" />
    <glyph glyph-name="Uacute" unicode="&#xda;" horiz-adv-x="547" 
d="M273 95q-57 0 -82 34.5t-25 111.5v402q0 20 -23 20h-68q-14 0 -19 -4.5t-5 -15.5v-409q0 -242 222 -242q111 0 167.5 63t56.5 179v409q0 20 -23 20h-68q-23 0 -23 -20v-402q0 -75 -27 -110.5t-83 -35.5zM407 787q16 7 7 22l-35 55q-10 16 -22 7l-138 -100q-12 -10 -6 -20
l21 -31q10 -16 23 -10z" />
    <glyph glyph-name="Ucircumflex" unicode="&#xdb;" horiz-adv-x="547" 
d="M273 95q-57 0 -82 34.5t-25 111.5v402q0 20 -23 20h-68q-14 0 -19 -4.5t-5 -15.5v-409q0 -242 222 -242q111 0 167.5 63t56.5 179v409q0 20 -23 20h-68q-23 0 -23 -20v-402q0 -75 -27 -110.5t-83 -35.5zM433 732q10 10 -1 21l-98 104q-11 11 -32 11h-49q-18 0 -28 -10
l-100 -106q-13 -12 -1 -24l24 -25q8 -13 25 1l104 84l104 -79q16 -15 28 -3z" />
    <glyph glyph-name="Udieresis" unicode="&#xdc;" horiz-adv-x="547" 
d="M273 95q-57 0 -82 34.5t-25 111.5v402q0 20 -23 20h-68q-14 0 -19 -4.5t-5 -15.5v-409q0 -242 222 -242q111 0 167.5 63t56.5 179v409q0 20 -23 20h-68q-23 0 -23 -20v-402q0 -75 -27 -110.5t-83 -35.5zM190 727q31 0 42.5 14t11.5 43q0 28 -11.5 40.5t-42.5 12.5
q-54 0 -54 -53q0 -30 11.5 -43.5t42.5 -13.5zM359 727q31 0 42.5 14t11.5 43q0 28 -11.5 40.5t-42.5 12.5q-53 0 -53 -53q0 -30 11 -43.5t42 -13.5z" />
    <glyph glyph-name="Yacute" unicode="&#xdd;" horiz-adv-x="495" 
d="M247 376q-4 10 -20.5 54t-24.5 62l-55 131q-11 27 -17.5 33t-24.5 6h-81q-7 0 -11 -5.5t0 -12.5l179 -373v-253q0 -18 22 -18h72q20 0 20 18v253l183 373q7 18 -13 18h-78q-14 0 -20 -3.5t-11 -15.5l-66 -147q-36 -81 -48 -120h-6zM386 787q16 7 7 22l-35 55
q-10 16 -22 7l-138 -100q-12 -10 -6 -20l21 -31q10 -16 23 -10z" />
    <glyph glyph-name="Thorn" unicode="&#xde;" horiz-adv-x="471" 
d="M455 343q0 95 -55 147t-150 52h-82v102q0 10 -4.5 14.5t-16.5 4.5h-74q-21 0 -21 -19v-625q0 -19 22 -19h74q20 0 20 19v117h83q119 0 165 70q39 60 39 137zM339 340q0 -108 -97 -108h-74v211h70q101 0 101 -103z" />
    <glyph glyph-name="germandbls" unicode="&#xdf;" horiz-adv-x="463" 
d="M335 411q30 19 44.5 54.5t14.5 70.5q0 83 -48 128.5t-131 45.5q-79 0 -128.5 -53.5t-49.5 -153.5v-487q0 -18 23 -18h64q24 0 24 19v500q0 96 70 96q28 0 47.5 -23t19.5 -59q0 -90 -57 -103q-19 -4 -19 -22v-42q0 -12 18 -14q49 -6 70.5 -36.5t21.5 -96.5q0 -72 -23 -104
t-78 -32q-20 0 -22 -14l-4 -47q-3 -30 72 -30q83 0 126.5 57.5t43.5 163.5q0 160 -99 196v4z" />
    <glyph glyph-name="agrave" unicode="&#xe0;" horiz-adv-x="472" 
d="M302 128q-64 -45 -114 -45q-26 0 -36.5 12.5t-10.5 43.5q0 82 68 82h93v-93zM156 -8q82 0 153 56h2l1 -1q7 -28 26 -39.5t56 -11.5q33 0 50 7q17 5 17 23v39q0 13 -21 15q-20 1 -23.5 7.5t-3.5 37.5v187q0 89 -31 136q-35 52 -148 52q-103 0 -158 -28q-16 -7 -13 -26
l8 -37q3 -17 20 -14q80 10 126 10q47 0 66.5 -19.5t19.5 -62.5v-22h-101q-88 0 -131 -40.5t-43 -126.5q0 -71 30 -106.5t98 -35.5zM217 739q-7 13 -23 2l-49 -33q-18 -13 -8 -26l102 -134q9 -12 21 -4l35 24q10 7 3 20z" />
    <glyph glyph-name="aacute" unicode="&#xe1;" horiz-adv-x="472" 
d="M302 128q-64 -45 -114 -45q-26 0 -36.5 12.5t-10.5 43.5q0 82 68 82h93v-93zM156 -8q82 0 153 56h2l1 -1q7 -28 26 -39.5t56 -11.5q33 0 50 7q17 5 17 23v39q0 13 -21 15q-20 1 -23.5 7.5t-3.5 37.5v187q0 89 -31 136q-35 52 -148 52q-103 0 -158 -28q-16 -7 -13 -26
l8 -37q3 -17 20 -14q80 10 126 10q47 0 66.5 -19.5t19.5 -62.5v-22h-101q-88 0 -131 -40.5t-43 -126.5q0 -71 30 -106.5t98 -35.5zM350 689q10 13 -4 22l-57 32q-16 9 -23 -4l-73 -154q-8 -15 4 -20l33 -18q15 -7 25 3q25 35 47 68z" />
    <glyph glyph-name="acircumflex" unicode="&#xe2;" horiz-adv-x="472" 
d="M302 128q-64 -45 -114 -45q-26 0 -36.5 12.5t-10.5 43.5q0 82 68 82h93v-93zM156 -8q82 0 153 56h2l1 -1q7 -28 26 -39.5t56 -11.5q33 0 50 7q17 5 17 23v39q0 13 -21 15q-20 1 -23.5 7.5t-3.5 37.5v187q0 89 -31 136q-35 52 -148 52q-103 0 -158 -28q-16 -7 -13 -26
l8 -37q3 -17 20 -14q80 10 126 10q47 0 66.5 -19.5t19.5 -62.5v-22h-101q-88 0 -131 -40.5t-43 -126.5q0 -71 30 -106.5t98 -35.5zM119 541q14 -11 24 1l98 100l100 -101q13 -11 24 0l26 24q11 11 0 21l-92 127q-9 12 -34 12h-49q-19 0 -28 -10l-95 -127q-11 -14 0 -24z" />
    <glyph glyph-name="atilde" unicode="&#xe3;" horiz-adv-x="472" 
d="M302 128q-64 -45 -114 -45q-26 0 -36.5 12.5t-10.5 43.5q0 82 68 82h93v-93zM156 -8q82 0 153 56h2l1 -1q7 -28 26 -39.5t56 -11.5q33 0 50 7q17 5 17 23v39q0 13 -21 15q-20 1 -23.5 7.5t-3.5 37.5v187q0 89 -31 136q-35 52 -148 52q-103 0 -158 -28q-16 -7 -13 -26
l8 -37q3 -17 20 -14q80 10 126 10q47 0 66.5 -19.5t19.5 -62.5v-22h-101q-88 0 -131 -40.5t-43 -126.5q0 -71 30 -106.5t98 -35.5zM305 560q68 0 98 89q7 16 -8 24l-28 14q-13 6 -23 -10q-20 -33 -40 -33q-7 0 -61 26q-43 24 -73 24q-67 0 -102 -92q-6 -14 7 -21l27 -14
q12 -5 14.5 -4t8.5 10q21 36 44 36q15 0 64 -24q49 -25 72 -25z" />
    <glyph glyph-name="adieresis" unicode="&#xe4;" horiz-adv-x="472" 
d="M302 128q-64 -45 -114 -45q-26 0 -36.5 12.5t-10.5 43.5q0 82 68 82h93v-93zM156 -8q82 0 153 56h2l1 -1q7 -28 26 -39.5t56 -11.5q33 0 50 7q17 5 17 23v39q0 13 -21 15q-20 1 -23.5 7.5t-3.5 37.5v187q0 89 -31 136q-35 52 -148 52q-103 0 -158 -28q-16 -7 -13 -26
l8 -37q3 -17 20 -14q80 10 126 10q47 0 66.5 -19.5t19.5 -62.5v-22h-101q-88 0 -131 -40.5t-43 -126.5q0 -71 30 -106.5t98 -35.5zM150 559q31 0 42.5 14t11.5 43q0 27 -12 40t-42 13q-55 0 -55 -53q0 -30 12 -43.5t43 -13.5zM322 559q31 0 43 14t12 43q0 28 -12 40.5
t-43 12.5q-54 0 -54 -53q0 -30 11.5 -43.5t42.5 -13.5z" />
    <glyph glyph-name="aring" unicode="&#xe5;" horiz-adv-x="472" 
d="M302 128q-64 -45 -114 -45q-26 0 -36.5 12.5t-10.5 43.5q0 82 68 82h93v-93zM156 -8q82 0 153 56h2l1 -1q7 -28 26 -39.5t56 -11.5q33 0 50 7q17 5 17 23v39q0 13 -21 15q-20 1 -23.5 7.5t-3.5 37.5v187q0 89 -31 136q-35 52 -148 52q-103 0 -158 -28q-16 -7 -13 -26
l8 -37q3 -17 20 -14q80 10 126 10q47 0 66.5 -19.5t19.5 -62.5v-22h-101q-88 0 -131 -40.5t-43 -126.5q0 -71 30 -106.5t98 -35.5zM315 563q30 30 30 72t-30 72t-74 30t-76 -29q-31 -28 -31 -73t31 -73t76 -28q43 0 74 29zM241 682q18 0 30.5 -14.5t12.5 -32.5
q2 -28 -20.5 -40.5t-45 -0.5t-19.5 41q0 18 12.5 32.5t29.5 14.5z" />
    <glyph glyph-name="ae" unicode="&#xe6;" horiz-adv-x="711" 
d="M500 409q43 0 60 -29t19 -90h-158q2 64 20 91.5t59 27.5zM192 83q-29 0 -39 13.5t-10 50.5q5 65 66 65h98q1 -48 9 -80q-26 -17 -64 -34q-38 -15 -60 -15zM239 499q-103 0 -158 -28q-16 -7 -13 -26l8 -37q3 -17 20 -14q80 10 126 10q48 0 66.5 -17.5t18.5 -60.5v-35h-105
q-90 0 -130.5 -38t-40.5 -122q0 -70 30.5 -104.5t98.5 -34.5q106 0 186 69q43 -70 158 -70q105 0 149 28q14 8 14 28l-6 34q-3 20 -22 17q-71 -10 -121 -10q-51 0 -73 27.5t-25 97.5h223q49 0 49 62q0 224 -188 224q-80 0 -130 -53q-38 53 -135 53z" />
    <glyph glyph-name="ccedilla" unicode="&#xe7;" horiz-adv-x="391" 
d="M237 -120q0 -36 -42 -36q-23 0 -53 5q-13 1 -16 -7l-5 -26q-1 -9 6 -12q27 -12 73 -12q53 0 81 23.5t28 66.5q0 34 -19 52.5t-65 21.5l12 36q89 5 131 27q15 10 12 28l-7 37q-4 18 -28 14q-59 -9 -114 -9q-48 0 -67 35t-19 125q0 82 19.5 117t67.5 35q28 0 114 -9
q20 -2 24 15l7 41q3 18 -11 24q-60 28 -145 28q-133 0 -170 -112q-20 -56 -20 -142q0 -103 26 -167q32 -73 127 -85l-18 -58q-6 -22 15 -24q33 -2 44.5 -8t11.5 -24z" />
    <glyph glyph-name="egrave" unicode="&#xe8;" horiz-adv-x="439" 
d="M224 410q43 0 60 -29t19 -90h-158q2 63 20.5 91t58.5 28zM229 -9q90 0 147 28q20 11 15 30l-6 35q-3 18 -30 14q-67 -9 -112 -9q-51 0 -73.5 28t-24.5 98h222q27 0 38.5 14.5t11.5 46.5q0 88 -35 151q-39 73 -157 73q-194 0 -194 -257q0 -110 34 -174q41 -78 164 -78z
M194 739q-7 13 -23 2l-49 -33q-18 -13 -8 -26l102 -134q9 -12 21 -4l35 24q10 7 3 20z" />
    <glyph glyph-name="eacute" unicode="&#xe9;" horiz-adv-x="439" 
d="M224 410q43 0 60 -29t19 -90h-158q2 63 20.5 91t58.5 28zM229 -9q90 0 147 28q20 11 15 30l-6 35q-3 18 -30 14q-67 -9 -112 -9q-51 0 -73.5 28t-24.5 98h222q27 0 38.5 14.5t11.5 46.5q0 88 -35 151q-39 73 -157 73q-194 0 -194 -257q0 -110 34 -174q41 -78 164 -78z
M341 689q10 13 -4 22l-57 32q-16 9 -23 -4l-73 -154q-8 -15 4 -20l33 -18q15 -7 25 3q25 35 47 68z" />
    <glyph glyph-name="ecircumflex" unicode="&#xea;" horiz-adv-x="439" 
d="M224 410q43 0 60 -29t19 -90h-158q2 63 20.5 91t58.5 28zM229 -9q90 0 147 28q20 11 15 30l-6 35q-3 18 -30 14q-67 -9 -112 -9q-51 0 -73.5 28t-24.5 98h222q27 0 38.5 14.5t11.5 46.5q0 88 -35 151q-39 73 -157 73q-194 0 -194 -257q0 -110 34 -174q41 -78 164 -78z
M105 541q14 -11 24 1l98 100l100 -101q13 -11 24 0l26 24q11 11 0 21l-92 127q-9 12 -34 12h-49q-19 0 -28 -10l-95 -127q-11 -14 0 -24z" />
    <glyph glyph-name="edieresis" unicode="&#xeb;" horiz-adv-x="439" 
d="M224 410q43 0 60 -29t19 -90h-158q2 63 20.5 91t58.5 28zM229 -9q90 0 147 28q20 11 15 30l-6 35q-3 18 -30 14q-67 -9 -112 -9q-51 0 -73.5 28t-24.5 98h222q27 0 38.5 14.5t11.5 46.5q0 88 -35 151q-39 73 -157 73q-194 0 -194 -257q0 -110 34 -174q41 -78 164 -78z
M141 559q31 0 42.5 14t11.5 43q0 27 -12 40t-42 13q-55 0 -55 -53q0 -30 12 -43.5t43 -13.5zM313 559q31 0 43 14t12 43q0 28 -12 40.5t-43 12.5q-54 0 -54 -53q0 -30 11.5 -43.5t42.5 -13.5z" />
    <glyph glyph-name="igrave" unicode="&#xec;" horiz-adv-x="243" 
d="M188 471q0 19 -18 19h-73q-20 0 -20 -19v-452q0 -19 20 -19h73q18 0 18 19v452zM93 739q-7 13 -23 2l-49 -33q-18 -13 -8 -26l102 -134q9 -12 21 -4l35 24q10 7 3 20z" />
    <glyph glyph-name="iacute" unicode="&#xed;" horiz-adv-x="243" 
 />
    <glyph glyph-name="icircumflex" unicode="&#xee;" horiz-adv-x="243" 
d="M14 541q14 -11 24 1l98 100l100 -101q14 -11 24 0l26 24q10 11 0 21l-92 127q-9 12 -34 12h-49q-19 0 -28 -10l-95 -127q-10 -14 0 -24zM188 471q0 19 -18 19h-73q-20 0 -20 -19v-452q0 -19 20 -19h73q18 0 18 19v452z" />
    <glyph glyph-name="idieresis" unicode="&#xef;" horiz-adv-x="243" 
d="M39 559q31 0 42.5 14t11.5 43q0 27 -12 40t-42 13q-55 0 -55 -53q0 -30 12 -43.5t43 -13.5zM211 559q31 0 43 14t12 43q0 28 -12 40.5t-43 12.5q-54 0 -54 -53q0 -30 11.5 -43.5t42.5 -13.5zM177 471q0 19 -18 19h-73q-20 0 -20 -19v-452q0 -19 20 -19h73q18 0 18 19v452
z" />
    <glyph glyph-name="eth" unicode="&#xf0;" horiz-adv-x="458" 
d="M223 396q46 0 85 -24q8 -43 8 -118q0 -70 -14 -112q-17 -56 -74 -56q-50 0 -67.5 40t-17.5 110q0 83 17 121.5t63 38.5zM291 473q-32 16 -74 16q-186 0 -186 -252q0 -245 193 -245q79 3 122.5 35t60.5 93q19 65 19 164q0 203 -98 328l51 24q11 5 8 17l-10 22
q-5 11 -9.5 12.5t-13.5 -3.5l-63 -30q-47 44 -120 78q-16 6 -23 3t-12 -15l-15 -28q-7 -13 20 -32q47 -28 68 -50l-59 -27q-16 -6 -11 -18l11 -24q5 -12 21 -5l41 17l36 17q25 -31 48 -94z" />
    <glyph glyph-name="ntilde" unicode="&#xf1;" horiz-adv-x="458" 
d="M146 471q0 19 -20 19h-70q-20 0 -20 -19v-452q0 -19 20 -19h69q21 0 21 19v342q70 36 109 36q31 0 43.5 -19.5t12.5 -69.5q0 -61 -1 -144v-145q0 -19 21 -19h70q21 0 21 19v290q0 71 -12 110q-7 24 -22 43q-33 37 -103 37q-66 0 -134 -51l-5 2v21zM287 560q68 0 98 89
q7 16 -8 24l-28 14q-13 6 -23 -10q-19 -33 -40 -33q-7 0 -61 26q-43 24 -73 24q-67 0 -102 -92q-6 -14 7 -21l27 -14q12 -5 14.5 -4t8.5 10q21 36 44 36q15 0 64 -24q49 -25 72 -25z" />
    <glyph glyph-name="ograve" unicode="&#xf2;" horiz-adv-x="457" 
d="M424 253q0 83 -19 136q-13 36 -33 58q-48 53 -147 53q-194 0 -194 -247q0 -87 16 -142q13 -39 31 -62q48 -57 147 -57q152 6 182 119q17 55 17 142zM226 404q50 0 68 -35.5t18 -122.5q0 -86 -18.5 -122t-68.5 -36q-47 0 -64.5 36t-17.5 122q0 84 18 121t65 37zM192 739
q-7 13 -23 2l-49 -33q-18 -13 -8 -26l102 -134q9 -12 21 -4l35 24q10 7 3 20z" />
    <glyph glyph-name="oacute" unicode="&#xf3;" horiz-adv-x="457" 
d="M424 253q0 83 -19 136q-13 36 -33 58q-48 53 -147 53q-194 0 -194 -247q0 -87 16 -142q13 -39 31 -62q48 -57 147 -57q152 6 182 119q17 55 17 142zM226 404q50 0 68 -35.5t18 -122.5q0 -86 -18.5 -122t-68.5 -36q-47 0 -64.5 36t-17.5 122q0 84 18 121t65 37zM345 689
q10 13 -4 22l-57 32q-16 9 -23 -4l-73 -154q-8 -15 4 -20l33 -18q15 -7 25 3q25 35 47 68z" />
    <glyph glyph-name="ocircumflex" unicode="&#xf4;" horiz-adv-x="457" 
d="M424 253q0 83 -19 136q-13 36 -33 58q-48 53 -147 53q-194 0 -194 -247q0 -87 16 -142q13 -39 31 -62q48 -57 147 -57q152 6 182 119q17 55 17 142zM226 404q50 0 68 -35.5t18 -122.5q0 -86 -18.5 -122t-68.5 -36q-47 0 -64.5 36t-17.5 122q0 84 18 121t65 37zM107 541
q14 -11 24 1l98 100l100 -101q13 -11 24 0l26 24q11 11 0 21l-92 127q-9 12 -34 12h-49q-19 0 -28 -10l-95 -127q-11 -14 0 -24z" />
    <glyph glyph-name="otilde" unicode="&#xf5;" horiz-adv-x="457" 
d="M424 253q0 83 -19 136q-13 36 -33 58q-48 53 -147 53q-194 0 -194 -247q0 -87 16 -142q13 -39 31 -62q48 -57 147 -57q152 6 182 119q17 55 17 142zM226 404q50 0 68 -35.5t18 -122.5q0 -86 -18.5 -122t-68.5 -36q-47 0 -64.5 36t-17.5 122q0 84 18 121t65 37zM299 559
q68 0 98 89q7 16 -8 24l-28 14q-13 6 -23 -10q-20 -33 -40 -33q-7 0 -61 26q-44 24 -73 24q-67 0 -102 -92q-6 -14 7 -21l27 -14q12 -5 14.5 -4t8.5 10q21 36 44 36q15 0 64 -24q49 -25 72 -25z" />
    <glyph glyph-name="odieresis" unicode="&#xf6;" horiz-adv-x="457" 
d="M424 253q0 83 -19 136q-13 36 -33 58q-48 53 -147 53q-194 0 -194 -247q0 -87 16 -142q13 -39 31 -62q48 -57 147 -57q152 6 182 119q17 55 17 142zM226 404q50 0 68 -35.5t18 -122.5q0 -86 -18.5 -122t-68.5 -36q-47 0 -64.5 36t-17.5 122q0 84 18 121t65 37zM143 559
q31 0 42.5 14t11.5 43q0 27 -12 40t-42 13q-55 0 -55 -53q0 -30 12 -43.5t43 -13.5zM315 559q31 0 43 14t12 43q0 28 -12 40.5t-43 12.5q-54 0 -54 -53q0 -30 11.5 -43.5t42.5 -13.5z" />
    <glyph glyph-name="divide" unicode="&#xf7;" horiz-adv-x="500" 
d="M306 484q0 29 -13 43t-45 14q-33 0 -46 -14t-13 -43q0 -32 12.5 -46.5t46.5 -14.5q32 0 45 15t13 46zM306 166q0 31 -12.5 45t-45.5 14q-32 0 -45.5 -15t-13.5 -44q0 -31 12.5 -46t46.5 -15q32 0 45 15t13 46zM431 351q0 16 -19 16h-330q-19 0 -19 -16v-52q0 -16 19 -16
h330q19 0 19 16v52z" />
    <glyph glyph-name="oslash" unicode="&#xf8;" horiz-adv-x="457" 
d="M424 253q0 124 -44 183l22 36q8 14 -2 19l-18 11q-12 5 -19 -7l-17 -27q-47 32 -121 32q-194 0 -194 -247q0 -151 52 -209l-17 -28q-8 -12 2 -18l18 -10q12 -9 21 5l13 22q44 -23 105 -23q152 6 182 119q17 55 17 142zM143 246q0 84 18 121t65 37q44 0 63 -28l-139 -224
q-7 32 -7 94zM312 246q0 -86 -18.5 -122t-68.5 -36q-34 0 -50 16l133 215q4 -25 4 -73z" />
    <glyph glyph-name="ugrave" unicode="&#xf9;" horiz-adv-x="456" 
 />
    <glyph glyph-name="uacute" unicode="&#xfa;" horiz-adv-x="456" 
d="M307 19q0 -19 20 -19h70q20 0 20 19v452q0 19 -20 19h-68q-22 0 -22 -19v-340q-67 -37 -104 -37q-30 0 -42.5 19t-12.5 72v142q1 83 1 144q0 19 -21 19h-69q-21 0 -21 -19v-321q0 -70 20 -111q26 -48 110 -48q69 0 134 53l2 -1q1 -1 3 -1v-23zM344 689q10 13 -4 22
l-57 32q-16 9 -23 -4l-73 -154q-8 -15 4 -20l33 -18q15 -7 25 3q25 35 47 68z" />
    <glyph glyph-name="ucircumflex" unicode="&#xfb;" horiz-adv-x="456" 
 />
    <glyph glyph-name="udieresis" unicode="&#xfc;" horiz-adv-x="456" 
d="M307 19q0 -19 20 -19h70q20 0 20 19v452q0 19 -20 19h-68q-22 0 -22 -19v-340q-67 -37 -104 -37q-30 0 -42.5 19t-12.5 72v142q1 83 1 144q0 19 -21 19h-69q-21 0 -21 -19v-321q0 -70 20 -111q26 -48 110 -48q69 0 134 53l2 -1q1 -1 3 -1v-23zM151 559q31 0 42.5 14
t11.5 43q0 27 -12 40t-42 13q-55 0 -55 -53q0 -30 12 -43.5t43 -13.5zM323 559q31 0 43 14t12 43q0 28 -12 40.5t-43 12.5q-54 0 -54 -53q0 -30 11.5 -43.5t42.5 -13.5z" />
    <glyph glyph-name="yacute" unicode="&#xfd;" horiz-adv-x="433" 
d="M222 148q-4 25 -31 125l-58 200q-5 17 -23 17h-75q-22 0 -14 -20l152 -464l-56 -171q-6 -20 15 -20h65q14 0 19 4t9 14l203 637q8 20 -13 20h-73q-18 0 -24 -16l-53 -188l-38 -138h-5zM340 689q10 13 -4 22l-57 32q-16 9 -23 -4l-73 -154q-8 -15 4 -20l33 -18q15 -7 25 3
q25 35 47 68z" />
    <glyph glyph-name="thorn" unicode="&#xfe;" horiz-adv-x="456" 
d="M153 7q51 -17 99 -17q99 0 139 61.5t40 196.5q0 128 -34 189t-116 61q-30 0 -66 -14.5t-62 -35.5l-3 2v236q0 19 -20 19h-70q-20 0 -20 -19v-851q0 -12 4 -16t16 -4h70q20 0 20 20v170zM319 249q0 -90 -18 -126t-62 -36q-42 0 -89 14v258q19 13 50 23q33 12 55 12
q33 0 48 -29q16 -28 16 -116z" />
    <glyph glyph-name="ydieresis" unicode="&#xff;" horiz-adv-x="433" 
d="M222 148q-4 25 -31 125l-58 200q-5 17 -23 17h-75q-22 0 -14 -20l152 -464l-56 -171q-6 -20 15 -20h65q14 0 19 4t9 14l203 637q8 20 -13 20h-73q-18 0 -24 -16l-53 -188l-38 -138h-5zM143 559q31 0 42.5 14t11.5 43q0 27 -12 40t-42 13q-55 0 -55 -53q0 -30 12 -43.5
t43 -13.5zM315 559q31 0 43 14t12 43q0 28 -12 40.5t-43 12.5q-54 0 -54 -53q0 -30 11.5 -43.5t42.5 -13.5z" />
    <glyph glyph-name="Amacron" unicode="&#x100;" horiz-adv-x="516" 
d="M386 21q3 -12 8 -16.5t18 -4.5h85q18 0 12 20l-176 622q-6 21 -29 21h-84q-23 0 -29 -21l-176 -621q-6 -21 15 -21h75q22 0 28 21l36 144h181zM264 537q7 -43 25 -117l38 -162h-135l12 45l19 75l11 44q1 5 7.5 33t12 52t6.5 30h4zM400 801q0 17 -20 17h-240
q-20 0 -20 -17v-53q0 -17 20 -17h240q20 0 20 17v53z" />
    <glyph glyph-name="amacron" unicode="&#x101;" horiz-adv-x="472" 
d="M302 128q-64 -45 -114 -45q-26 0 -36.5 12.5t-10.5 43.5q0 82 68 82h93v-93zM156 -8q82 0 153 56h2l1 -1q7 -28 26 -39.5t56 -11.5q33 0 50 7q17 5 17 23v39q0 13 -21 15q-20 1 -23.5 7.5t-3.5 37.5v187q0 89 -31 136q-35 52 -148 52q-103 0 -158 -28q-16 -7 -13 -26
l8 -37q3 -17 20 -14q80 10 126 10q47 0 66.5 -19.5t19.5 -62.5v-22h-101q-88 0 -131 -40.5t-43 -126.5q0 -71 30 -106.5t98 -35.5zM368 638q0 10 -4 13t-15 3h-242q-19 0 -19 -16v-53q0 -17 19 -17h242q19 0 19 17v53z" />
    <glyph glyph-name="Abreve" unicode="&#x102;" horiz-adv-x="516" 
d="M386 21q3 -12 8 -16.5t18 -4.5h85q18 0 12 20l-176 622q-6 21 -29 21h-84q-23 0 -29 -21l-176 -621q-6 -21 15 -21h75q22 0 28 21l36 144h181zM264 537q7 -43 25 -117l38 -162h-135l12 45l19 75l11 44q1 5 7.5 33t12 52t6.5 30h4zM258 705q96 0 151 111q9 20 -3 26
l-26 19q-17 12 -29 -4q-31 -40 -50 -54q-17 -14 -42 -14q-26 0 -45.5 14.5t-53.5 55.5q-14 16 -27 5l-25 -24q-12 -11 -2 -30q21 -48 63.5 -76.5t88.5 -28.5z" />
    <glyph glyph-name="abreve" unicode="&#x103;" horiz-adv-x="472" 
d="M302 128q-64 -45 -114 -45q-26 0 -36.5 12.5t-10.5 43.5q0 82 68 82h93v-93zM156 -8q82 0 153 56h2l1 -1q7 -28 26 -39.5t56 -11.5q33 0 50 7q17 5 17 23v39q0 13 -21 15q-20 1 -23.5 7.5t-3.5 37.5v187q0 89 -31 136q-35 52 -148 52q-103 0 -158 -28q-16 -7 -13 -26
l8 -37q3 -17 20 -14q80 10 126 10q47 0 66.5 -19.5t19.5 -62.5v-22h-101q-88 0 -131 -40.5t-43 -126.5q0 -71 30 -106.5t98 -35.5zM81 649q21 -48 63.5 -76.5t88.5 -28.5q45 0 85 28.5t64 78.5q12 22 -2 33l-24 17q-17 12 -30 -6q-32 -41 -50.5 -56t-41.5 -15q-26 0 -45 15
t-53 58q-15 19 -29 5l-25 -22q-10 -10 -1 -31z" />
    <glyph glyph-name="Aogonek" unicode="&#x104;" horiz-adv-x="516" 
d="M420 -95q0 43 32 95h45q18 0 12 20l-176 622q-6 21 -29 21h-84q-23 0 -29 -21l-176 -621q-6 -21 15 -21h75q22 0 28 21l36 144h181l36 -144q1 -5 4 -11q-49 -56 -49 -114q0 -95 109 -94q39 1 73 20q11 6 10 16l-9 30q-3 10 -19 6q-27 -8 -45 -8q-40 0 -40 39zM264 537
q7 -43 25 -117l38 -162h-135l12 45l19 75l11 44q1 5 7.5 33t12 52t6.5 30h4z" />
    <glyph glyph-name="aogonek" unicode="&#x105;" horiz-adv-x="472" 
d="M369 -95q0 41 29 91q25 1 46 7q17 5 17 23v39q0 13 -21 15q-20 1 -23.5 7.5t-3.5 37.5v187q0 89 -31 136q-35 52 -148 52q-103 0 -158 -28q-16 -7 -13 -26l8 -37q3 -17 20 -14q80 10 126 10q47 0 66.5 -19.5t19.5 -62.5v-22h-101q-88 0 -131 -40.5t-43 -126.5
q0 -71 30 -106.5t98 -35.5q82 0 153 56h2l1 -1q6 -27 25 -39q-47 -59 -47 -112q0 -95 109 -94q39 1 73 20q11 6 10 16l-9 30q-3 10 -19 6q-27 -8 -45 -8q-40 0 -40 39zM302 128q-64 -45 -114 -45q-26 0 -36.5 12.5t-10.5 43.5q0 82 68 82h93v-93z" />
    <glyph glyph-name="Cacute" unicode="&#x106;" horiz-adv-x="490" 
d="M289 670q-165 0 -216 -150q-27 -78 -27 -193q0 -114 27 -191q16 -44 42 -76q61 -68 172 -68q102 0 168 29q23 11 19 33l-8 38q-6 18 -30 16q-83 -10 -141 -10q-71 0 -99 56.5t-28 173.5q0 103 21 165q26 71 106 71q54 0 141 -10q25 -4 29 15l8 41q3 21 -20 32
q-63 28 -164 28zM411 787q16 7 7 22l-35 55q-10 16 -22 7l-138 -100q-12 -10 -6 -20l21 -31q10 -16 23 -10z" />
    <glyph glyph-name="cacute" unicode="&#x107;" horiz-adv-x="391" 
d="M221 -8q99 0 147 27q15 10 12 28l-7 37q-4 18 -28 14q-59 -9 -114 -9q-48 0 -67 35t-19 125q0 82 19.5 117t67.5 35q28 0 114 -9q20 -2 24 15l7 41q3 18 -11 24q-60 28 -145 28q-133 0 -170 -112q-20 -56 -20 -142q0 -93 19 -149q11 -32 32 -56q47 -49 139 -49zM324 689
q10 13 -4 22l-57 32q-16 9 -23 -4l-73 -154q-8 -15 4 -20l33 -18q15 -7 25 3q25 35 47 68z" />
    <glyph glyph-name="Ccircumflex" unicode="&#x108;" horiz-adv-x="490" 
d="M289 670q-165 0 -216 -150q-27 -78 -27 -193q0 -114 27 -191q16 -44 42 -76q61 -68 172 -68q102 0 168 29q23 11 19 33l-8 38q-6 18 -30 16q-83 -10 -141 -10q-71 0 -99 56.5t-28 173.5q0 103 21 165q26 71 106 71q54 0 141 -10q25 -4 29 15l8 41q3 21 -20 32
q-63 28 -164 28zM443 732q10 10 -1 21l-98 104q-11 11 -32 11h-49q-18 0 -28 -10l-100 -106q-13 -12 -1 -24l24 -25q8 -13 25 1l104 84l104 -79q16 -15 28 -3z" />
    <glyph glyph-name="ccircumflex" unicode="&#x109;" horiz-adv-x="391" 
d="M221 -8q99 0 147 27q15 10 12 28l-7 37q-4 18 -28 14q-59 -9 -114 -9q-48 0 -67 35t-19 125q0 82 19.5 117t67.5 35q28 0 114 -9q20 -2 24 15l7 41q3 18 -11 24q-60 28 -145 28q-133 0 -170 -112q-20 -56 -20 -142q0 -93 19 -149q11 -32 32 -56q47 -49 139 -49zM96 541
q14 -11 24 1l98 100l100 -101q14 -11 24 0l26 24q10 11 0 21l-92 127q-9 12 -34 12h-49q-19 0 -28 -10l-95 -127q-10 -14 0 -24z" />
    <glyph glyph-name="Cdotaccent" unicode="&#x10a;" horiz-adv-x="490" 
d="M289 670q-165 0 -216 -150q-27 -78 -27 -193q0 -114 27 -191q16 -44 42 -76q61 -68 172 -68q102 0 168 29q23 11 19 33l-8 38q-6 18 -30 16q-83 -10 -141 -10q-71 0 -99 56.5t-28 173.5q0 103 21 165q26 71 106 71q54 0 141 -10q25 -4 29 15l8 41q3 21 -20 32
q-63 28 -164 28zM346 787q0 57 -57 57t-57 -57q0 -59 57 -59t57 59z" />
    <glyph glyph-name="cdotaccent" unicode="&#x10b;" horiz-adv-x="391" 
d="M221 -8q99 0 147 27q15 10 12 28l-7 37q-4 18 -28 14q-59 -9 -114 -9q-48 0 -67 35t-19 125q0 82 19.5 117t67.5 35q28 0 114 -9q20 -2 24 15l7 41q3 18 -11 24q-60 28 -145 28q-133 0 -170 -112q-20 -56 -20 -142q0 -93 19 -149q11 -32 32 -56q47 -49 139 -49zM277 621
q0 57 -57 57t-57 -57q0 -59 57 -59t57 59z" />
    <glyph glyph-name="Ccaron" unicode="&#x10c;" horiz-adv-x="490" 
d="M289 670q-165 0 -216 -150q-27 -78 -27 -193q0 -114 27 -191q16 -44 42 -76q61 -68 172 -68q102 0 168 29q23 11 19 33l-8 38q-6 18 -30 16q-83 -10 -141 -10q-71 0 -99 56.5t-28 173.5q0 103 21 165q26 71 106 71q54 0 141 -10q25 -4 29 15l8 41q3 21 -20 32
q-63 28 -164 28zM414 869q-11 11 -29 -2l-103 -81l-105 85q-11 8 -15 8q-6 0 -22 -19t-16 -25q0 -5 6 -12l100 -106q10 -10 28 -10h48q21 0 33 12l97 104q10 10 0 22z" />
    <glyph glyph-name="ccaron" unicode="&#x10d;" horiz-adv-x="391" 
d="M221 -8q99 0 147 27q15 10 12 28l-7 37q-4 18 -28 14q-59 -9 -114 -9q-48 0 -67 35t-19 125q0 82 19.5 117t67.5 35q28 0 114 -9q20 -2 24 15l7 41q3 18 -11 24q-60 28 -145 28q-133 0 -170 -112q-20 -56 -20 -142q0 -93 19 -149q11 -32 32 -56q47 -49 139 -49zM61 696
q-11 -10 0 -24l95 -127q9 -10 28 -10h49q25 0 34 12l92 127q11 10 0 21l-26 24q-11 11 -24 0l-100 -101l-98 100q-10 12 -24 1z" />
    <glyph glyph-name="Dcaron" unicode="&#x10e;" horiz-adv-x="554" 
d="M508 333q0 144 -51 231q-56 99 -213 99h-168q-21 0 -21 -19v-625q0 -19 23 -19h166q179 0 233 138q31 76 31 195zM389 325q0 -127 -42 -177q-42 -48 -114 -48h-64v464h71q75 0 112 -55.5t37 -183.5zM370 869q-11 11 -29 -2l-103 -81l-105 85q-11 8 -15 8q-6 0 -22 -19
t-16 -25q0 -5 6 -12l100 -106q10 -10 28 -10h48q21 0 33 12l97 104q10 10 0 22z" />
    <glyph glyph-name="dcaron" unicode="&#x10f;" horiz-adv-x="584" 
d="M309 483q-53 17 -100 17q-103 0 -141 -65t-38 -198q0 -126 33.5 -185t115.5 -59q62 0 129 46q2 0 3 -1v-19q0 -19 20 -19h70q20 0 20 19v666q0 20 -20 20h-67q-23 0 -23 -20v-199zM142 240q0 91 18 127t61 36q42 0 90 -14v-260q-20 -12 -52 -23q-33 -11 -54 -11
q-33 0 -48 28q-15 29 -15 117zM593 652q0 47 -32 79q-18 18 -39 -1l-40 -34q-13 -10 -4 -30q21 -32 21 -56q0 -35 -26 -67q-13 -14 -5 -25l18 -19q10 -11 27 0q80 57 80 153z" />
    <glyph glyph-name="Dcroat" unicode="&#x110;" horiz-adv-x="554" 
d="M508 333q0 144 -51 231q-56 99 -213 99h-168q-21 0 -21 -19v-268h-33q-17 0 -17 -17v-47q0 -15 17 -15h33v-278q0 -19 23 -19h166q179 0 233 138q31 76 31 195zM272 360q0 16 -17 16h-86v188h71q75 0 112 -55.5t37 -183.5q0 -137 -49 -184q-42 -41 -113 -41h-58v197h86
q17 0 17 16v47z" />
    <glyph glyph-name="dcroat" unicode="&#x111;" horiz-adv-x="466" 
d="M309 478q-53 17 -100 17q-104 0 -141 -64q-38 -65 -38 -196q0 -126 33 -184t114 -58q64 0 131 46q2 0 3 -1v-19q0 -19 20 -19h70q20 0 20 19v529h42q15 0 15 14v40q0 15 -15 15h-42v68q0 20 -21 20h-66q-23 0 -23 -20v-68h-110q-16 0 -16 -15v-40q0 -14 16 -14h110v-67z
M142 239q0 90 17.5 124.5t61.5 34.5q45 0 90 -14v-255q-20 -12 -52 -23q-33 -11 -54 -11q-33 0 -48 28q-15 29 -15 116z" />
    <glyph glyph-name="Emacron" unicode="&#x112;" horiz-adv-x="460" 
d="M432 81q0 18 -18 18h-246v200h207q12 0 16 4t4 14v63q0 17 -20 17h-207v167h233q12 0 15.5 4t3.5 14v63q0 18 -20 18h-326q-22 0 -22 -19v-626q0 -18 22 -18h338q12 0 16 4t4 14v63zM374 801q0 17 -20 17h-240q-20 0 -20 -17v-53q0 -17 20 -17h240q20 0 20 17v53z" />
    <glyph glyph-name="emacron" unicode="&#x113;" horiz-adv-x="439" 
d="M224 410q43 0 60 -29t19 -90h-158q2 63 20.5 91t58.5 28zM229 -9q90 0 147 28q20 11 15 30l-6 35q-3 18 -30 14q-67 -9 -112 -9q-51 0 -73.5 28t-24.5 98h222q27 0 38.5 14.5t11.5 46.5q0 88 -35 151q-39 73 -157 73q-194 0 -194 -257q0 -110 34 -174q41 -78 164 -78z
M366 638q0 10 -4 13t-15 3h-242q-19 0 -19 -16v-53q0 -17 19 -17h242q19 0 19 17v53z" />
    <glyph glyph-name="Ebreve" unicode="&#x114;" horiz-adv-x="460" 
d="M432 81q0 18 -18 18h-246v200h207q12 0 16 4t4 14v63q0 17 -20 17h-207v167h233q12 0 15.5 4t3.5 14v63q0 18 -20 18h-326q-22 0 -22 -19v-626q0 -18 22 -18h338q12 0 16 4t4 14v63zM237 704q95 0 151 111q9 20 -3 26l-26 19q-17 12 -29 -4q-31 -40 -50 -54
q-17 -14 -42 -14q-26 0 -45.5 14.5t-53.5 55.5q-14 16 -27 5l-25 -24q-12 -11 -2 -30q21 -48 63.5 -76.5t88.5 -28.5z" />
    <glyph glyph-name="ebreve" unicode="&#x115;" horiz-adv-x="439" 
d="M224 410q43 0 60 -29t19 -90h-158q2 63 20.5 91t58.5 28zM229 -9q90 0 147 28q20 11 15 30l-6 35q-3 18 -30 14q-67 -9 -112 -9q-51 0 -73.5 28t-24.5 98h222q27 0 38.5 14.5t11.5 46.5q0 88 -35 151q-39 73 -157 73q-194 0 -194 -257q0 -110 34 -174q41 -78 164 -78z
M72 649q21 -48 63.5 -76.5t88.5 -28.5q45 0 85 28.5t64 78.5q12 22 -2 33l-24 17q-17 12 -30 -6q-32 -41 -50.5 -56t-41.5 -15q-26 0 -45 15t-53 58q-15 19 -29 5l-25 -22q-10 -10 -1 -31z" />
    <glyph glyph-name="Edotaccent" unicode="&#x116;" horiz-adv-x="460" 
d="M432 81q0 18 -18 18h-246v200h207q12 0 16 4t4 14v63q0 17 -20 17h-207v167h233q12 0 15.5 4t3.5 14v63q0 18 -20 18h-326q-22 0 -22 -19v-626q0 -18 22 -18h338q12 0 16 4t4 14v63zM295 771q0 57 -57 57t-57 -57q0 -59 57 -59t57 59z" />
    <glyph glyph-name="edotaccent" unicode="&#x117;" horiz-adv-x="439" 
d="M224 410q43 0 60 -29t19 -90h-158q2 63 20.5 91t58.5 28zM229 -9q90 0 147 28q20 11 15 30l-6 35q-3 18 -30 14q-67 -9 -112 -9q-51 0 -73.5 28t-24.5 98h222q27 0 38.5 14.5t11.5 46.5q0 88 -35 151q-39 73 -157 73q-194 0 -194 -257q0 -110 34 -174q41 -78 164 -78z
M283 621q0 57 -57 57t-57 -57q0 -59 57 -59t57 59z" />
    <glyph glyph-name="Eogonek" unicode="&#x118;" horiz-adv-x="460" 
d="M360 -95q0 43 32 95h20q12 0 16 4t4 14v63q0 18 -18 18h-246v200h207q12 0 16 4t4 14v63q0 17 -20 17h-207v167h233q12 0 15.5 4t3.5 14v63q0 18 -20 18h-326q-22 0 -22 -19v-626q0 -18 22 -18h248q-41 -53 -41 -104q0 -95 109 -94q39 1 73 20q11 6 10 16l-9 30
q-3 10 -19 6q-27 -8 -45 -8q-40 0 -40 39z" />
    <glyph glyph-name="eogonek" unicode="&#x119;" horiz-adv-x="439" 
d="M309 -92q0 47 34 99q17 5 33 12q20 11 15 30l-6 35q-3 18 -30 14q-67 -9 -112 -9q-51 0 -73.5 28t-24.5 98h222q27 0 38.5 14.5t11.5 46.5q0 88 -35 151q-39 73 -157 73q-194 0 -194 -257q0 -110 34 -174q41 -78 164 -78q3 0 35 2q-51 -74 -28 -133t103 -55q39 1 73 20
q11 6 10 16l-9 30q-3 10 -19 6q-27 -8 -45 -8q-40 0 -40 39zM224 410q43 0 60 -29t19 -90h-158q2 63 20.5 91t58.5 28z" />
    <glyph glyph-name="Ecaron" unicode="&#x11a;" horiz-adv-x="460" 
d="M432 81q0 18 -18 18h-246v200h207q12 0 16 4t4 14v63q0 17 -20 17h-207v167h233q12 0 15.5 4t3.5 14v63q0 18 -20 18h-326q-22 0 -22 -19v-626q0 -18 22 -18h338q12 0 16 4t4 14v63zM369 869q-11 11 -29 -2l-103 -81l-105 85q-11 8 -15 8q-6 0 -22 -19t-16 -25
q0 -5 6 -12l100 -106q10 -10 28 -10h48q21 0 33 12l97 104q10 10 0 22z" />
    <glyph glyph-name="ecaron" unicode="&#x11b;" horiz-adv-x="439" 
d="M224 410q43 0 60 -29t19 -90h-158q2 63 20.5 91t58.5 28zM229 -9q90 0 147 28q20 11 15 30l-6 35q-3 18 -30 14q-67 -9 -112 -9q-51 0 -73.5 28t-24.5 98h222q27 0 38.5 14.5t11.5 46.5q0 88 -35 151q-39 73 -157 73q-194 0 -194 -257q0 -110 34 -174q41 -78 164 -78z
M80 696q-10 -10 0 -24l95 -127q9 -10 28 -10h49q25 0 34 12l92 127q10 10 0 21l-26 24q-10 11 -24 0l-100 -101l-98 100q-10 12 -24 1z" />
    <glyph glyph-name="Gcircumflex" unicode="&#x11c;" horiz-adv-x="542" 
d="M170 328q0 105 22 166q14 36 39 54t66 18t138 -12q26 -4 31 16l9 42q4 18 -22 31q-63 28 -163 28q-244 0 -244 -344q0 -158 56 -247q57 -88 192 -88q94 0 168 28q30 12 30 44q1 37 1 284q0 20 -26 20h-151q-22 0 -22 -19v-58q0 -19 22 -19h61v-166q-28 -11 -80 -11
q-78 0 -104 70q-23 64 -23 163zM448 732q10 10 -1 21l-98 104q-11 11 -32 11h-49q-18 0 -28 -10l-100 -106q-12 -12 -1 -24l24 -25q8 -13 25 1l104 84l104 -79q16 -15 28 -3z" />
    <glyph glyph-name="gcircumflex" unicode="&#x11d;" horiz-adv-x="461" 
 />
    <glyph glyph-name="Gbreve" unicode="&#x11e;" horiz-adv-x="542" 
d="M170 328q0 105 22 166q14 36 39 54t66 18t138 -12q26 -4 31 16l9 42q4 18 -22 31q-63 28 -163 28q-244 0 -244 -344q0 -158 56 -247q57 -88 192 -88q94 0 168 28q30 12 30 44q1 37 1 284q0 20 -26 20h-151q-22 0 -22 -19v-58q0 -19 22 -19h61v-166q-28 -11 -80 -11
q-78 0 -104 70q-23 64 -23 163zM291 704q95 0 151 111q9 20 -3 26l-26 19q-17 12 -29 -4q-31 -40 -50 -54q-17 -14 -42 -14q-26 0 -45.5 14.5t-53.5 55.5q-14 16 -27 5l-25 -24q-12 -11 -2 -30q21 -48 63.5 -76.5t88.5 -28.5z" />
    <glyph glyph-name="gbreve" unicode="&#x11f;" horiz-adv-x="461" 
d="M233 500q-108 0 -154 -63t-46 -194q0 -122 38 -186q38 -62 144 -62q46 0 100 21v-29q0 -48 -19 -67.5t-68 -19.5q-62 0 -121 10q-16 3 -22 0.5t-8 -14.5l-7 -38q-3 -19 20 -30q60 -23 144 -23q141 0 173 82q18 42 18 121v420q0 35 -28 45q-63 27 -164 27zM147 252
q0 88 23 117q24 30 68 30q36 0 76 -8v-281q-54 -17 -90 -17q-42 0 -59.5 35t-17.5 124zM88 649q21 -48 63.5 -76.5t88.5 -28.5q45 0 85 28.5t64 78.5q12 22 -2 33l-24 17q-11 7 -16.5 6t-13.5 -12q-32 -41 -50.5 -56t-41.5 -15q-26 0 -45 15t-53 58q-15 19 -29 5l-25 -22
q-10 -10 -1 -31z" />
    <glyph glyph-name="Gdotaccent" unicode="&#x120;" horiz-adv-x="542" 
d="M170 328q0 105 22 166q14 36 39 54t66 18t138 -12q26 -4 31 16l9 42q4 18 -22 31q-63 28 -163 28q-244 0 -244 -344q0 -158 56 -247q57 -88 192 -88q94 0 168 28q30 12 30 44q1 37 1 284q0 20 -26 20h-151q-22 0 -22 -19v-58q0 -19 22 -19h61v-166q-28 -11 -80 -11
q-78 0 -104 70q-23 64 -23 163zM355 771q0 57 -57 57t-57 -57q0 -59 57 -59t57 59z" />
    <glyph glyph-name="gdotaccent" unicode="&#x121;" horiz-adv-x="461" 
 />
    <glyph glyph-name="uni0122" unicode="&#x122;" horiz-adv-x="542" 
d="M170 328q0 105 22 166q14 36 39 54t66 18t138 -12q26 -4 31 16l9 42q4 18 -22 31q-63 28 -163 28q-244 0 -244 -344q0 -158 56 -247q57 -88 192 -88q94 0 168 28q30 12 30 44q1 37 1 284q0 20 -26 20h-151q-22 0 -22 -19v-58q0 -19 22 -19h61v-166q-28 -11 -80 -11
q-78 0 -104 70q-23 64 -23 163zM351 -121q0 47 -32 79q-18 18 -39 -1l-40 -34q-13 -10 -4 -30q21 -31 21 -56q0 -35 -26 -67q-13 -14 -5 -25l18 -19q10 -10 27 0q35 25 57.5 65.5t22.5 87.5z" />
    <glyph glyph-name="uni0123" unicode="&#x123;" horiz-adv-x="461" 
d="M195 640q0 -19 9 -42t23 -37q17 -18 39 1l39 34q14 12 5 30q-21 31 -21 56q0 35 26 67q13 14 4 25l-17 19q-10 11 -27 0q-80 -57 -80 -153zM233 507q-108 0 -154 -63t-46 -194q0 -122 38 -186q38 -62 144 -62q46 0 100 21v-29q0 -48 -19 -67.5t-68 -19.5q-62 0 -121 10
q-16 3 -22 0.5t-8 -14.5l-7 -38q-3 -19 20 -30q60 -23 144 -23q141 0 173 82q18 42 18 121v420q0 35 -28 45q-63 27 -164 27zM147 259q0 88 23 117q24 30 68 30q36 0 76 -8v-281q-54 -17 -90 -17q-42 0 -59.5 35t-17.5 124z" />
    <glyph glyph-name="Hcircumflex" unicode="&#x124;" horiz-adv-x="539" 
d="M485 644q0 19 -20 19h-73q-22 0 -22 -19v-246h-202v246q0 19 -20 19h-73q-22 0 -22 -19v-625q0 -19 22 -19h73q20 0 20 19v279h202v-279q0 -19 22 -19h73q20 0 20 19v625zM426 732q10 10 -1 21l-98 104q-11 11 -32 11h-49q-18 0 -28 -10l-100 -106q-12 -12 -1 -24l24 -25
q8 -13 25 1l104 84l104 -79q16 -15 28 -3z" />
    <glyph glyph-name="hcircumflex" unicode="&#x125;" horiz-adv-x="464" 
d="M159 686q0 19 -21 19h-69q-21 0 -21 -19v-667q0 -19 21 -19h68q22 0 22 19v342q64 37 108 37q31 0 44 -19t13 -71l-1 -289q0 -19 21 -19h69q22 0 22 19v291q0 86 -22 131q-25 58 -119 58q-60 0 -131 -44l-4 2v229zM265 750q10 10 -1 21l-98 104q-11 11 -32 11h-49
q-18 0 -28 -10l-100 -106q-12 -12 -1 -24l24 -25q8 -13 25 1l104 84l104 -79q16 -15 28 -3z" />
    <glyph glyph-name="Hbar" unicode="&#x126;" horiz-adv-x="539" 
d="M485 492h35q14 0 14 15v35q0 16 -15 16h-34v86q0 19 -20 19h-73q-22 0 -22 -19v-86h-202v86q0 19 -20 19h-73q-22 0 -22 -19v-86h-32q-17 0 -17 -16v-34q0 -16 16 -16h33v-473q0 -19 22 -19h73q20 0 20 19v279h202v-279q0 -19 22 -19h73q20 0 20 19v473zM168 492h202v-94
h-202v94z" />
    <glyph glyph-name="hbar" unicode="&#x127;" horiz-adv-x="464" 
d="M148 544h150q10 0 13 3.5t3 13.5v34q0 17 -17 17h-149v74q0 19 -21 19h-69q-21 0 -21 -19v-74h-38q-17 0 -17 -18v-33q0 -10 3.5 -13.5t13.5 -3.5h38v-525q0 -19 21 -19h68q22 0 22 19v337q64 37 108 37q31 0 44 -19t13 -71l-1 -284q0 -19 21 -19h69q22 0 22 19v286
q0 86 -22 131q-25 58 -119 58q-60 0 -131 -44l-4 2v92z" />
    <glyph glyph-name="Itilde" unicode="&#x128;" horiz-adv-x="241" 
d="M196 718q68 0 98 89q7 16 -8 24l-28 14q-13 6 -23 -10q-19 -33 -40 -33q-7 0 -61 26q-44 24 -73 24q-67 0 -102 -92q-6 -14 7 -21l27 -14q12 -5 14.5 -4t8.5 10q21 36 44 36q14 0 64 -24q49 -25 72 -25zM184 644q0 19 -21 19h-73q-22 0 -22 -19v-625q0 -19 22 -19h73
q21 0 21 19v625z" />
    <glyph glyph-name="itilde" unicode="&#x129;" horiz-adv-x="243" 
d="M197 557q68 0 98 89q7 16 -8 24l-28 14q-13 6 -23 -10q-20 -33 -40 -33q-7 0 -61 26q-43 24 -73 24q-67 0 -102 -92q-6 -14 7 -21l27 -14q12 -5 14.5 -4t8.5 10q21 36 44 36q15 0 64 -24q49 -25 72 -25zM183 471q0 19 -18 19h-73q-20 0 -20 -19v-452q0 -19 20 -19h73
q18 0 18 19v452z" />
    <glyph glyph-name="Imacron" unicode="&#x12a;" horiz-adv-x="241" 
d="M262 801q0 17 -20 17h-240q-20 0 -20 -17v-53q0 -17 20 -17h240q20 0 20 17v53zM178 644q0 19 -21 19h-73q-22 0 -22 -19v-625q0 -19 22 -19h73q21 0 21 19v625z" />
    <glyph glyph-name="imacron" unicode="&#x12b;" horiz-adv-x="243" 
d="M177 471q0 19 -18 19h-73q-20 0 -20 -19v-452q0 -19 20 -19h73q18 0 18 19v452zM261 638q0 10 -4 13t-15 3h-242q-19 0 -19 -16v-53q0 -17 19 -17h242q19 0 19 17v53z" />
    <glyph glyph-name="Ibreve" unicode="&#x12c;" horiz-adv-x="241" 
d="M134 705q96 0 151 111q9 20 -3 26l-26 19q-17 12 -29 -4q-31 -40 -50 -54q-17 -14 -42 -14q-26 0 -45.5 14.5t-53.5 55.5q-14 16 -27 5l-25 -24q-12 -11 -2 -30q21 -48 63.5 -76.5t88.5 -28.5zM188 644q0 19 -21 19h-73q-22 0 -22 -19v-625q0 -19 22 -19h73q21 0 21 19
v625z" />
    <glyph glyph-name="ibreve" unicode="&#x12d;" horiz-adv-x="243" 
d="M-19 655q21 -48 63.5 -76.5t88.5 -28.5q45 0 85 28.5t64 78.5q12 22 -2 33l-24 17q-11 7 -16.5 6t-13.5 -12q-32 -41 -50.5 -56t-41.5 -15q-26 0 -45 15t-53 58q-15 19 -29 5l-25 -22q-10 -10 -1 -31zM186 471q0 19 -18 19h-73q-20 0 -20 -19v-452q0 -19 20 -19h73
q18 0 18 19v452z" />
    <glyph glyph-name="Iogonek" unicode="&#x12e;" horiz-adv-x="241" 
d="M178 644q0 19 -21 19h-73q-22 0 -22 -19v-632q-53 -59 -53 -120q0 -46 28 -70.5t81 -22.5q36 0 73 20q12 5 9 15l-8 31q-3 9 -19 5q-27 -7 -45 -7q-40 0 -40 39q0 46 34 98h35q21 0 21 19v625z" />
    <glyph glyph-name="iogonek" unicode="&#x12f;" horiz-adv-x="216" 
d="M78 -99q0 47 34 99h29q21 0 21 19v452q0 19 -21 19h-66q-23 0 -23 -19v-452q0 -7 1 -8q-54 -59 -54 -119q0 -95 109 -94q39 1 73 20q11 6 10 16l-9 30q-3 10 -19 6q-27 -8 -45 -8q-40 0 -40 39zM167 620q0 29 -13 43t-47 14q-58 0 -58 -57q0 -29 12.5 -44t45.5 -15
t46.5 15t13.5 44z" />
    <glyph glyph-name="Idotaccent" unicode="&#x130;" horiz-adv-x="241" 
d="M178 644q0 19 -21 19h-73q-22 0 -22 -19v-625q0 -19 22 -19h73q21 0 21 19v625zM180 791q0 57 -57 57t-57 -57q0 -59 57 -59t57 59z" />
    <glyph glyph-name="dotlessi" unicode="&#x131;" horiz-adv-x="243" 
d="M177 471q0 19 -18 19h-73q-20 0 -20 -19v-452q0 -19 20 -19h73q18 0 18 19v452z" />
    <glyph glyph-name="IJ" unicode="&#x132;" horiz-adv-x="606" 
d="M545 644q0 19 -22 19h-72q-22 0 -22 -19v-458q0 -47 -17.5 -68.5t-60.5 -21.5q-21 0 -96 8q-13 2 -17.5 -0.5t-6.5 -12.5l-10 -46q-5 -20 13 -29q50 -25 132 -25q178 0 179 177v476zM178 644q0 19 -21 19h-73q-22 0 -22 -19v-625q0 -19 22 -19h73q21 0 21 19v625z" />
    <glyph glyph-name="ij" unicode="&#x133;" horiz-adv-x="432" 
d="M378 471q0 19 -23 19h-65q-23 0 -23 -19v-484q0 -57 -19 -73q-21 -18 -83 -31q-20 -6 -19 -24l3 -47q1 -19 25 -19q110 -4 157 44t47 154v480zM381 620q0 29 -13 43t-46 14q-58 0 -58 -57q0 -30 12.5 -44.5t45.5 -14.5q59 0 59 59zM167 620q0 29 -13 43t-47 14
q-58 0 -58 -57q0 -29 12.5 -44t45.5 -15t46.5 15t13.5 44zM162 471q0 19 -21 19h-66q-23 0 -23 -19v-452q0 -19 23 -19h66q21 0 21 19v452z" />
    <glyph glyph-name="Jcircumflex" unicode="&#x134;" horiz-adv-x="386" 
d="M327 645q0 19 -22 19h-72q-22 0 -22 -19v-458q0 -47 -17.5 -68.5t-60.5 -21.5q-21 0 -96 8q-13 2 -17.5 -0.5t-6.5 -12.5l-10 -46q-5 -20 13 -29q50 -25 132 -25q178 0 179 177v476zM427 734q10 10 -1 21l-98 104q-11 11 -32 11h-49q-18 0 -28 -10l-100 -106
q-12 -12 -1 -24l24 -25q8 -13 25 1l104 84l104 -79q16 -15 28 -3z" />
    <glyph glyph-name="jcircumflex" unicode="&#x135;" horiz-adv-x="230" 
d="M176 471q0 19 -23 19h-65q-23 0 -23 -19v-484q0 -55 -20 -72q-20 -19 -84 -32q-11 -3 -14.5 -7.5t-2.5 -15.5l3 -48q1 -19 25 -19q110 -4 157 44t47 154v480zM1 548q14 -11 24 1l98 100l100 -101q13 -10 24 0l26 24q11 10 0 21l-92 127q-9 12 -34 12h-49q-19 0 -28 -10
l-95 -127q-11 -13 0 -24z" />
    <glyph glyph-name="uni0136" unicode="&#x136;" horiz-adv-x="505" 
d="M492 644q6 8 2 13.5t-13 5.5h-86q-26 0 -35 -14l-110 -163q-66 -96 -83 -127h-4v285q0 19 -20 19h-72q-22 0 -22 -19v-625q0 -19 22 -19h72q20 0 20 19v163l70 99l129 -256q10 -25 37 -25h87q10 0 13 7t-2 14l-191 361zM302 -120q0 47 -32 79q-18 18 -39 -1l-40 -34
q-13 -10 -4 -30q21 -32 21 -56q0 -35 -26 -67q-13 -14 -5 -25l18 -19q11 -11 27 0q80 57 80 153z" />
    <glyph glyph-name="uni0137" unicode="&#x137;" horiz-adv-x="422" 
d="M285 37q13 -24 15 -26q10 -11 28 -11h75q10 0 14 7t-1 15l-146 269l128 176q6 8 3 15.5t-13 7.5h-77q-23 0 -35 -17q-59 -85 -122 -184l-1 1h-1v396q0 19 -21 19h-69q-20 0 -20 -19v-668q0 -18 20 -18h69q21 0 21 18v112q11 15 49 68zM268 -120q0 47 -32 79
q-18 18 -39 -1l-40 -34q-13 -10 -4 -30q21 -32 21 -56q0 -35 -26 -67q-13 -14 -5 -25l18 -19q11 -11 27 0q80 57 80 153z" />
    <glyph glyph-name="kgreenlandic" unicode="&#x138;" horiz-adv-x="422" 
d="M295 18q9 -18 33 -18h75q16 0 16 12q0 6 -3 10l-146 269l128 176q5 8 5 11q0 12 -15 12h-77q-24 0 -35 -17l-81 -121l-41 -63l-1 1h-1v180q0 20 -21 20h-69q-20 0 -20 -20v-452q0 -18 20 -18h69q21 0 21 18v112q11 15 49 68z" />
    <glyph glyph-name="Lacute" unicode="&#x139;" horiz-adv-x="442" 
d="M439 82q0 17 -19 17h-246v545q0 11 -4 15t-16 4h-73q-21 0 -21 -19v-626q0 -18 22 -18h337q12 0 16 4t4 14v64zM244 787q16 7 7 22l-35 55q-10 16 -22 7l-138 -100q-12 -10 -6 -20l21 -31q10 -16 23 -10z" />
    <glyph glyph-name="lacute" unicode="&#x13a;" horiz-adv-x="231" 
d="M152 -5q41 0 66 14q11 7 10 19l-4 47q0 7 -4 10t-7.5 3.5t-12.5 1.5q-19 1 -26.5 8t-7.5 26v560q0 20 -23 20h-64q-22 0 -22 -20v-578q0 -59 21 -85t74 -26zM243 823q16 7 7 22l-35 55q-10 16 -22 7l-138 -100q-12 -10 -6 -20l21 -31q10 -16 23 -10z" />
    <glyph glyph-name="uni013B" unicode="&#x13b;" horiz-adv-x="442" 
d="M433 82q0 17 -19 17h-246v545q0 11 -4 15t-16 4h-73q-21 0 -21 -19v-626q0 -18 22 -18h337q12 0 16 4t4 14v64zM287 -122q0 47 -32 79q-18 18 -39 -1l-40 -34q-13 -10 -4 -30q21 -32 21 -56q0 -35 -26 -67q-13 -14 -5 -25l18 -19q10 -11 27 0q80 57 80 153z" />
    <glyph glyph-name="uni013C" unicode="&#x13c;" horiz-adv-x="231" 
d="M153 -5q41 0 66 14q11 7 10 19l-4 47q0 7 -4 10t-7.5 3.5t-12.5 1.5q-19 1 -26.5 8t-7.5 26v560q0 20 -23 20h-64q-22 0 -22 -20v-578q0 -59 21 -85t74 -26zM184 -121q0 47 -32 79q-18 18 -39 -1l-40 -34q-13 -10 -4 -30q21 -31 21 -56q0 -35 -26 -67q-13 -14 -5 -25
l18 -19q11 -10 27 0q35 25 57.5 65.5t22.5 87.5z" />
    <glyph glyph-name="Lcaron" unicode="&#x13d;" horiz-adv-x="442" 
d="M433 82q0 17 -19 17h-246v545q0 11 -4 15t-16 4h-73q-21 0 -21 -19v-626q0 -18 22 -18h337q12 0 16 4t4 14v64zM405 583q0 47 -32 79q-18 18 -39 -1l-40 -34q-13 -10 -4 -30q21 -31 21 -56q0 -35 -26 -67q-13 -14 -5 -25l18 -19q10 -10 27 0q35 25 57.5 65.5t22.5 87.5z
" />
    <glyph glyph-name="lcaron" unicode="&#x13e;" horiz-adv-x="338" 
d="M146 -5q41 0 66 14q11 7 10 19l-4 47q0 7 -4 10t-7.5 3.5t-12.5 1.5q-19 1 -26.5 8t-7.5 26v560q0 20 -23 20h-64q-22 0 -22 -20v-578q0 -59 21 -85t74 -26zM343 632q0 47 -32 79q-18 18 -39 -1l-40 -34q-13 -10 -4 -30q21 -32 21 -56q0 -35 -26 -67q-13 -14 -5 -25
l18 -19q10 -11 27 0q80 57 80 153z" />
    <glyph glyph-name="Ldot" unicode="&#x13f;" horiz-adv-x="442" 
 />
    <glyph glyph-name="ldot" unicode="&#x140;" horiz-adv-x="323" 
d="M146 -5q41 0 66 14q11 7 10 19l-4 47q0 7 -4 10t-7.5 3.5t-12.5 1.5q-19 1 -26.5 8t-7.5 26v560q0 20 -23 20h-64q-22 0 -22 -20v-578q0 -59 21 -85t74 -26zM311 372q0 57 -57 57t-57 -57q0 -59 57 -59t57 59z" />
    <glyph glyph-name="Lslash" unicode="&#x141;" horiz-adv-x="442" 
d="M433 82q0 17 -19 17h-246v176l118 66q8 5 8 10q0 3 -3 9l-18 32q-6 9 -11 9q-2 0 -9 -4l-85 -47v294q0 11 -4 15t-16 4h-73q-21 0 -21 -19v-358l-58 -33q-10 -4 -10 -10t4 -10l16 -32q5 -8 11 -8q4 0 10 3l27 15v-193q0 -18 22 -18h337q12 0 16 4t4 14v64z" />
    <glyph glyph-name="lslash" unicode="&#x142;" horiz-adv-x="231" 
d="M146 -5q41 0 66 14q11 7 10 19l-4 47q0 7 -4 10t-7.5 3.5t-12.5 1.5q-19 1 -26.5 8t-7.5 26v191l76 42q8 5 8 10q0 4 -3 10l-18 32q-6 9 -11 9q-2 0 -9 -4l-43 -25v295q0 20 -23 20h-64q-22 0 -22 -20v-357l-63 -36q-10 -6 -10 -11q0 -4 3 -10l18 -31q5 -9 10 -9t9 4
l33 18v-146q0 -59 21 -85t74 -26z" />
    <glyph glyph-name="Nacute" unicode="&#x143;" horiz-adv-x="563" 
d="M399 20q11 -20 35 -20h57q19 0 19 19v625q0 19 -20 19h-71q-20 0 -20 -19v-420q-2 0 -3 -1q-23 52 -75 145l-156 277q-11 18 -33 18h-58q-21 0 -21 -17v-627q0 -19 22 -19h70q20 0 20 19v420h3q34 -71 84 -159zM414 787q16 7 7 22l-35 55q-10 16 -22 7l-138 -100
q-12 -10 -6 -20l21 -31q10 -16 23 -10z" />
    <glyph glyph-name="nacute" unicode="&#x144;" horiz-adv-x="458" 
d="M146 471q0 19 -20 19h-70q-20 0 -20 -19v-452q0 -19 20 -19h69q21 0 21 19v342q70 36 109 36q31 0 43.5 -19.5t12.5 -69.5q0 -61 -1 -144v-145q0 -19 21 -19h70q21 0 21 19v290q0 71 -12 110q-7 24 -22 43q-33 37 -103 37q-66 0 -134 -51l-5 2v21zM319 689q10 13 -4 22
l-57 32q-16 9 -23 -4l-73 -154q-8 -15 4 -20l33 -18q15 -7 25 3q25 35 47 68z" />
    <glyph glyph-name="uni0145" unicode="&#x145;" horiz-adv-x="563" 
d="M399 20q11 -20 35 -20h57q19 0 19 19v625q0 19 -20 19h-71q-20 0 -20 -19v-420q-2 0 -3 -1q-23 52 -75 145l-156 277q-11 18 -33 18h-58q-21 0 -21 -17v-627q0 -19 22 -19h70q20 0 20 19v420h3q34 -71 84 -159zM333 -120q0 47 -32 79q-18 18 -39 -1l-40 -34
q-13 -10 -4 -30q21 -32 21 -56q0 -35 -26 -67q-13 -14 -5 -25l18 -19q10 -11 27 0q80 57 80 153z" />
    <glyph glyph-name="uni0146" unicode="&#x146;" horiz-adv-x="458" 
d="M146 471q0 19 -20 19h-70q-20 0 -20 -19v-452q0 -19 20 -19h69q21 0 21 19v342q70 36 109 36q31 0 43.5 -19.5t12.5 -69.5q0 -61 -1 -144v-145q0 -19 21 -19h70q21 0 21 19v290q0 71 -12 110q-7 24 -22 43q-33 37 -103 37q-66 0 -134 -51l-5 2v21zM277 -120q0 47 -32 79
q-18 18 -39 -1l-40 -34q-13 -10 -4 -30q21 -32 21 -56q0 -35 -26 -67q-13 -14 -5 -25l18 -19q10 -11 27 0q80 57 80 153z" />
    <glyph glyph-name="Ncaron" unicode="&#x147;" horiz-adv-x="563" 
d="M399 20q11 -20 35 -20h57q19 0 19 19v625q0 19 -20 19h-71q-20 0 -20 -19v-420q-2 0 -3 -1q-23 52 -75 145l-156 277q-11 18 -33 18h-58q-21 0 -21 -17v-627q0 -19 22 -19h70q20 0 20 19v420h3q34 -71 84 -159zM421 869q-11 11 -29 -2l-103 -81l-105 85q-11 8 -15 8
q-6 0 -22 -19t-16 -25q0 -5 6 -12l100 -106q10 -10 28 -10h48q21 0 33 12l97 104q10 10 0 22z" />
    <glyph glyph-name="ncaron" unicode="&#x148;" horiz-adv-x="458" 
d="M146 471q0 19 -20 19h-70q-20 0 -20 -19v-452q0 -19 20 -19h69q21 0 21 19v342q70 36 109 36q31 0 43.5 -19.5t12.5 -69.5q0 -61 -1 -144v-145q0 -19 21 -19h70q21 0 21 19v290q0 71 -12 110q-7 24 -22 43q-33 37 -103 37q-66 0 -134 -51l-5 2v21zM75 696q-11 -10 0 -24
l95 -127q9 -10 28 -10h49q25 0 34 12l92 127q11 10 0 21l-26 24q-11 11 -24 0l-100 -101l-98 100q-10 12 -24 1z" />
    <glyph glyph-name="napostrophe" unicode="&#x149;" horiz-adv-x="552" 
d="M247 471q0 19 -20 19h-70q-20 0 -20 -19v-452q0 -19 20 -19h69q21 0 21 19v342q70 36 109 36q31 0 43.5 -19.5t12.5 -69.5q0 -61 -1 -144v-145q0 -19 21 -19h70q21 0 21 19v290q0 71 -12 110q-7 24 -22 43q-33 37 -103 37q-66 0 -134 -51l-5 2v21zM146 640q0 47 -32 79
q-18 18 -39 -1l-40 -34q-13 -10 -4 -30q21 -32 21 -56q0 -35 -26 -67q-13 -14 -5 -25l18 -19q11 -11 27 0q80 57 80 153z" />
    <glyph glyph-name="Eng" unicode="&#x14a;" horiz-adv-x="563" 
d="M324 -97q-19 -1 -20 -16q0 -3 -3 -26t-3 -26q-3 -15 11 -20q21 -10 58 -10q143 0 143 137v702q0 19 -20 19h-71q-20 0 -20 -19v-420q-2 0 -3 -1q-23 52 -75 145l-156 277q-11 18 -33 18h-58q-21 0 -21 -17v-627q0 -19 22 -19h70q20 0 20 19v420h3q34 -71 84 -159
l147 -261v-59q0 -36 -15 -47.5t-60 -9.5z" />
    <glyph glyph-name="eng" unicode="&#x14b;" horiz-adv-x="458" 
d="M146 471q0 19 -19 19h-71q-20 0 -20 -19v-452q0 -19 20 -19h69q21 0 21 19v342q70 36 109 36q31 0 43.5 -19t12.5 -70v-348q0 -36 -14.5 -47.5t-59.5 -9.5q-20 -2 -21 -16q0 -3 -3 -26t-3 -26q-3 -15 12 -20q20 -10 57 -10q143 0 143 137v367q0 71 -12 110q-7 24 -22 43
q-33 37 -103 37q-68 0 -134 -51l-5 2v21z" />
    <glyph glyph-name="Omacron" unicode="&#x14c;" horiz-adv-x="575" 
d="M531 341q0 114 -24 186q-15 46 -41 75q-60 69 -180 69q-242 0 -242 -330q0 -59 3 -101q3 -39 17 -92q14 -50 38 -82q60 -75 183 -75q169 0 220 143q22 57 24 136q2 42 2 71zM412 331q0 -124 -29 -181t-97 -57q-67 0 -94 57t-27 181q0 123 28 181.5t93 58.5q69 0 97.5 -57
t28.5 -183zM427 801q0 17 -20 17h-240q-20 0 -20 -17v-53q0 -17 20 -17h240q20 0 20 17v53z" />
    <glyph glyph-name="omacron" unicode="&#x14d;" horiz-adv-x="457" 
d="M424 253q0 83 -19 136q-13 36 -33 58q-48 53 -147 53q-194 0 -194 -247q0 -87 16 -142q13 -39 31 -62q48 -57 147 -57q152 6 182 119q17 55 17 142zM226 404q50 0 68 -35.5t18 -122.5q0 -86 -18.5 -122t-68.5 -36q-47 0 -64.5 36t-17.5 122q0 84 18 121t65 37zM366 638
q0 10 -4 13t-15 3h-242q-19 0 -19 -16v-53q0 -17 19 -17h242q19 0 19 17v53z" />
    <glyph glyph-name="Obreve" unicode="&#x14e;" horiz-adv-x="575" 
d="M531 341q0 114 -24 186q-15 46 -41 75q-60 69 -180 69q-242 0 -242 -330q0 -59 3 -101q3 -39 17 -92q14 -50 38 -82q60 -75 183 -75q169 0 220 143q22 57 24 136q2 42 2 71zM412 331q0 -124 -29 -181t-97 -57q-67 0 -94 57t-27 181q0 123 28 181.5t93 58.5q69 0 97.5 -57
t28.5 -183zM287 705q95 0 151 111q9 20 -3 26l-26 19q-17 12 -29 -4q-31 -40 -50 -54q-17 -14 -42 -14q-26 0 -45.5 14.5t-53.5 55.5q-14 16 -27 5l-25 -24q-12 -11 -2 -30q21 -48 63.5 -76.5t88.5 -28.5z" />
    <glyph glyph-name="obreve" unicode="&#x14f;" horiz-adv-x="457" 
d="M424 253q0 83 -19 136q-13 36 -33 58q-48 53 -147 53q-194 0 -194 -247q0 -87 16 -142q13 -39 31 -62q48 -57 147 -57q152 6 182 119q17 55 17 142zM226 404q50 0 68 -35.5t18 -122.5q0 -86 -18.5 -122t-68.5 -36q-47 0 -64.5 36t-17.5 122q0 84 18 121t65 37zM73 649
q21 -48 63.5 -76.5t88.5 -28.5q45 0 85 28.5t64 78.5q12 22 -2 33l-24 17q-17 12 -30 -6q-32 -41 -50.5 -56t-41.5 -15q-26 0 -45 15t-53 58q-15 19 -29 5l-25 -22q-10 -10 -1 -31z" />
    <glyph glyph-name="Ohungarumlaut" unicode="&#x150;" horiz-adv-x="575" 
d="M531 341q0 114 -24 186q-15 46 -41 75q-60 69 -180 69q-242 0 -242 -330q0 -59 3 -101q3 -39 17 -92q14 -50 38 -82q60 -75 183 -75q169 0 220 143q22 57 24 136q2 42 2 71zM412 331q0 -124 -29 -181t-97 -57q-67 0 -94 57t-27 181q0 123 28 181.5t93 58.5q69 0 97.5 -57
t28.5 -183zM337 795q15 9 5 22l-39 52q-12 16 -23 5l-129 -111q-10 -12 -4 -20l23 -30q11 -14 24 -8zM507 795q15 9 5 22l-39 52q-12 16 -23 5l-129 -111q-10 -12 -4 -20l23 -30q11 -14 24 -8z" />
    <glyph glyph-name="ohungarumlaut" unicode="&#x151;" horiz-adv-x="457" 
d="M424 253q0 83 -19 136q-13 36 -33 58q-48 53 -147 53q-194 0 -194 -247q0 -87 16 -142q13 -39 31 -62q48 -57 147 -57q152 6 182 119q17 55 17 142zM226 404q50 0 68 -35.5t18 -122.5q0 -86 -18.5 -122t-68.5 -36q-47 0 -64.5 36t-17.5 122q0 84 18 121t65 37zM271 688
q10 15 -4 22l-58 33q-16 9 -22 -5l-73 -154q-8 -15 4 -20l33 -17q16 -9 25 3l45 67q46 66 50 71zM403 688q10 15 -4 22l-57 33q-16 7 -23 -5l-72 -154q-8 -14 3 -20l34 -17q15 -9 24 3q9 10 48 69z" />
    <glyph glyph-name="OE" unicode="&#x152;" horiz-adv-x="698" 
d="M151 330q0 126 29.5 181.5t103.5 55.5q2 0 9.5 -0.5t9.5 -0.5v-477q-88 -6 -120 50t-32 191zM660 0q12 0 16.5 4t4.5 14v62q0 19 -20 19h-244v195h207q11 0 15 4.5t4 14.5v63q0 17 -19 17h-207v171q64 0 115 -1h117q21 0 21 18v63q0 19 -20 19h-305q-40 8 -72 8
q-241 0 -241 -330q0 -78 8 -137q9 -67 43 -124q55 -89 190 -89q40 0 73 9h314z" />
    <glyph glyph-name="oe" unicode="&#x153;" horiz-adv-x="721" 
d="M513 -9q90 0 147 28q20 11 15 30l-6 35q-3 18 -30 14q-67 -9 -112 -9q-51 0 -73.5 28t-24.5 98h222q27 0 38.5 14.5t11.5 46.5q0 88 -35 151q-39 73 -157 73q-96 0 -146 -62q-51 61 -138 61q-194 0 -194 -247q0 -87 16 -141q10 -36 31 -62q48 -57 147 -57q85 0 137 57
q46 -58 151 -58zM312 245q-1 -87 -19.5 -122.5t-67.5 -35.5q-47 0 -64.5 36.5t-17.5 122.5q0 85 17.5 121t64.5 36q49 0 67.5 -35.5t19.5 -122.5zM508 410q43 0 60 -29t19 -90h-158q2 63 20.5 91t58.5 28z" />
    <glyph glyph-name="Racute" unicode="&#x154;" horiz-adv-x="488" 
d="M70 663q-21 0 -21 -19v-626q0 -18 21 -18h73q21 0 21 19v247h74l100 -249q8 -17 31 -17h83q22 0 14 20l-117 265q52 21 78.5 70.5t26.5 112.5q0 96 -57 145q-56 50 -139 50h-188zM238 563q97 0 97 -99q0 -56 -25 -78.5t-74 -22.5h-72v200h74zM346 787q16 7 7 22l-35 55
q-10 16 -22 7l-138 -100q-12 -10 -6 -20l21 -31q10 -16 23 -10z" />
    <glyph glyph-name="racute" unicode="&#x155;" horiz-adv-x="318" 
 />
    <glyph glyph-name="uni0156" unicode="&#x156;" horiz-adv-x="488" 
d="M70 663q-21 0 -21 -19v-626q0 -18 21 -18h73q21 0 21 19v247h74l100 -249q8 -17 31 -17h83q22 0 14 20l-117 265q52 21 78.5 70.5t26.5 112.5q0 96 -57 145q-56 50 -139 50h-188zM238 563q97 0 97 -99q0 -56 -25 -78.5t-74 -22.5h-72v200h74zM295 -117q0 47 -32 79
q-18 18 -39 -1l-40 -34q-13 -10 -4 -30q21 -31 21 -56q0 -35 -26 -67q-13 -14 -5 -25l18 -19q10 -10 27 0q35 25 57.5 65.5t22.5 87.5z" />
    <glyph glyph-name="uni0157" unicode="&#x157;" horiz-adv-x="318" 
d="M325 478q-1 19 -20 18q-31 -5 -68 -23.5t-60 -41.5l-2 2v38q0 19 -22 19h-69q-20 0 -20 -19v-452q0 -19 20 -19h70q21 0 21 19v321q46 24 136 45q23 6 20 30zM161 -130q0 47 -32 79q-18 18 -39 -1l-40 -34q-13 -10 -4 -30q21 -32 21 -56q0 -35 -26 -67q-13 -14 -5 -25
l18 -19q10 -11 27 0q80 57 80 153z" />
    <glyph glyph-name="Rcaron" unicode="&#x158;" horiz-adv-x="488" 
d="M70 663q-21 0 -21 -19v-626q0 -18 21 -18h73q21 0 21 19v247h74l100 -249q8 -17 31 -17h83q22 0 14 20l-117 265q52 21 78.5 70.5t26.5 112.5q0 96 -57 145q-56 50 -139 50h-188zM238 563q97 0 97 -99q0 -56 -25 -78.5t-74 -22.5h-72v200h74zM365 869q-11 11 -29 -2
l-103 -81l-105 85q-11 8 -15 8q-6 0 -22 -19t-16 -25q0 -5 6 -12l100 -106q10 -10 28 -10h48q21 0 33 12l97 104q10 10 0 22z" />
    <glyph glyph-name="rcaron" unicode="&#x159;" horiz-adv-x="318" 
d="M328 478q-1 19 -20 18q-31 -5 -68 -23.5t-60 -41.5l-2 2v38q0 19 -22 19h-69q-20 0 -20 -19v-452q0 -19 20 -19h70q21 0 21 19v321q46 24 136 45q23 6 20 30zM6 696q-10 -10 0 -24l95 -127q9 -10 28 -10h49q25 0 34 12l92 127q10 10 0 21l-26 24q-10 11 -24 0l-100 -101
l-98 100q-10 12 -24 1z" />
    <glyph glyph-name="Sacute" unicode="&#x15a;" horiz-adv-x="475" 
d="M230 -9q96 0 158 47t62 153q0 107 -63 148q-43 31 -134 53q-58 12 -77 27t-19 59q0 89 92 89q54 0 138 -13q17 -3 23.5 0.5t9.5 16.5l8 40q1 6 0.5 11t-5.5 10t-17 11q-60 27 -163 27q-97 0 -151.5 -51t-54.5 -144q0 -95 62 -137q47 -31 138 -53q54 -11 74 -32
q21 -19 21 -72q0 -85 -102 -85q-44 0 -154 14q-17 3 -23.5 0t-8.5 -16l-8 -42q-5 -20 21 -32q64 -29 173 -29zM350 787q16 7 7 22l-35 55q-10 16 -22 7l-138 -100q-12 -10 -6 -20l21 -31q10 -16 23 -10z" />
    <glyph glyph-name="sacute" unicode="&#x15b;" horiz-adv-x="400" 
 />
    <glyph glyph-name="Scircumflex" unicode="&#x15c;" horiz-adv-x="475" 
d="M230 -9q96 0 158 47t62 153q0 107 -63 148q-43 31 -134 53q-58 12 -77 27t-19 59q0 89 92 89q54 0 138 -13q17 -3 23.5 0.5t9.5 16.5l8 40q1 6 0.5 11t-5.5 10t-17 11q-60 27 -163 27q-97 0 -151.5 -51t-54.5 -144q0 -95 62 -137q47 -31 138 -53q54 -11 74 -32
q21 -19 21 -72q0 -85 -102 -85q-44 0 -154 14q-17 3 -23.5 0t-8.5 -16l-8 -42q-5 -20 21 -32q64 -29 173 -29zM397 732q10 10 -1 21l-98 104q-11 11 -32 11h-49q-18 0 -28 -10l-100 -106q-12 -12 -1 -24l24 -25q8 -13 25 1l104 84l104 -79q16 -15 28 -3z" />
    <glyph glyph-name="scircumflex" unicode="&#x15d;" horiz-adv-x="400" 
 />
    <glyph glyph-name="Scedilla" unicode="&#x15e;" horiz-adv-x="475" 
d="M254 -120q0 -36 -42 -36q-23 0 -53 5q-13 1 -16 -7l-5 -26q-2 -9 6 -12q27 -12 73 -12q53 0 81 23.5t28 66.5q0 34 -19 52.5t-65 21.5l12 36q92 6 144 55t52 144q0 107 -63 148q-43 31 -134 53q-58 12 -77 27t-19 59q0 89 92 89q54 0 138 -13q17 -3 23.5 0.5t9.5 16.5
l8 40q1 6 0.5 11t-5.5 10t-17 11q-60 27 -163 27q-97 0 -151.5 -51t-54.5 -144q0 -95 62 -137q47 -31 138 -53q54 -11 74 -32q21 -19 21 -72q0 -85 -102 -85q-44 0 -154 14q-17 3 -23.5 0t-8.5 -16l-8 -42q-5 -20 21 -32q48 -23 143 -28l-17 -56q-6 -22 15 -24
q33 -2 44.5 -8t11.5 -24z" />
    <glyph glyph-name="scedilla" unicode="&#x15f;" horiz-adv-x="400" 
d="M217 -120q0 -36 -42 -36q-23 0 -53 5q-13 1 -16 -7l-5 -26q-1 -9 6 -12q27 -12 73 -12q53 0 81 23.5t28 66.5q0 34 -19 52.5t-65 21.5l12 37q73 6 115.5 44.5t42.5 110.5q0 83 -52 114q-42 26 -111 38q-41 7 -54.5 17t-13.5 35q0 30 13.5 42.5t47.5 11.5q33 0 118 -9
q16 -2 22.5 0.5t8.5 13.5l7 37q3 19 -22 29q-54 23 -135 23q-80 0 -126 -39.5t-46 -111.5q0 -77 52 -108q44 -24 115 -37q37 -6 49.5 -18.5t12.5 -44.5q0 -29 -16.5 -42.5t-53.5 -13.5q-47 0 -123 12q-16 2 -22 -1t-8 -15l-7 -33q-4 -23 22 -33q36 -17 110 -22l-17 -57
q-6 -22 15 -24q33 -2 44.5 -8t11.5 -24z" />
    <glyph glyph-name="Scaron" unicode="&#x160;" horiz-adv-x="475" 
d="M230 -9q96 0 158 47t62 153q0 107 -63 148q-43 31 -134 53q-58 12 -77 27t-19 59q0 89 92 89q54 0 138 -13q17 -3 23.5 0.5t9.5 16.5l8 40q1 6 0.5 11t-5.5 10t-17 11q-60 27 -163 27q-97 0 -151.5 -51t-54.5 -144q0 -95 62 -137q47 -31 138 -53q54 -11 74 -32
q21 -19 21 -72q0 -85 -102 -85q-44 0 -154 14q-17 3 -23.5 0t-8.5 -16l-8 -42q-5 -20 21 -32q64 -29 173 -29zM364 869q-11 11 -29 -2l-103 -81l-105 85q-11 8 -15 8q-6 0 -22 -19t-16 -25q0 -5 6 -12l100 -106q10 -10 28 -10h48q21 0 33 12l97 104q10 10 0 22z" />
    <glyph glyph-name="scaron" unicode="&#x161;" horiz-adv-x="400" 
 />
    <glyph glyph-name="uni0162" unicode="&#x162;" horiz-adv-x="440" 
d="M432 644q0 19 -22 19h-380q-21 0 -21 -19v-61q0 -19 22 -19h131v-545q0 -19 22 -19h73q20 0 20 19v545h132q23 0 23 19v61zM279 -130q0 47 -32 79q-18 18 -39 -1l-40 -34q-13 -10 -4 -30q21 -32 21 -56q0 -35 -26 -67q-13 -14 -5 -25l18 -19q10 -11 27 0q80 57 80 153z
" />
    <glyph glyph-name="uni0163" unicode="&#x163;" horiz-adv-x="316" 
d="M314 81q-2 11 -6.5 14t-19.5 2q-50 -5 -58 -5q-29 0 -38.5 13t-9.5 52v244h90q9 0 13 2.5t5 6.5t1 12v48q0 12 -3 16t-16 4h-89v127q0 23 -24 17l-63 -19q-21 -5 -21 -21v-104h-40q-20 0 -20 -20v-49q0 -20 20 -20h39v-286q0 -63 27.5 -93t91.5 -30q70 0 113 22
q17 11 14 29zM203 -131q0 47 -32 79q-18 18 -39 -1l-40 -34q-13 -10 -4 -30q21 -31 21 -56q0 -35 -26 -67q-13 -14 -5 -25l18 -19q10 -10 27 0q35 25 57.5 65.5t22.5 87.5z" />
    <glyph glyph-name="Tcaron" unicode="&#x164;" horiz-adv-x="440" 
d="M432 644q0 19 -22 19h-380q-21 0 -21 -19v-61q0 -19 22 -19h131v-545q0 -19 22 -19h73q20 0 20 19v545h132q23 0 23 19v61zM352 869q-11 11 -29 -2l-103 -81l-105 85q-11 8 -15 8q-6 0 -22 -19t-16 -25q0 -5 6 -12l100 -106q10 -10 28 -10h48q21 0 33 12l97 104
q10 10 0 22z" />
    <glyph glyph-name="tcaron" unicode="&#x165;" horiz-adv-x="379" 
d="M314 81q-2 11 -6.5 14t-19.5 2q-50 -5 -58 -5q-29 0 -38.5 13t-9.5 52v244h90q9 0 13 2.5t5 6.5t1 12v48q0 12 -3 16t-16 4h-89v127q0 23 -24 17l-63 -19q-21 -5 -21 -21v-104h-40q-20 0 -20 -20v-49q0 -20 20 -20h39v-286q0 -63 27.5 -93t91.5 -30q70 0 113 22
q17 11 14 29zM380 694q0 47 -32 79q-18 18 -39 -1l-40 -34q-13 -10 -4 -30q21 -32 21 -56q0 -35 -26 -67q-13 -14 -5 -25l18 -19q11 -11 27 0q80 57 80 153z" />
    <glyph glyph-name="Tbar" unicode="&#x166;" horiz-adv-x="440" 
d="M432 644q0 19 -22 19h-380q-21 0 -21 -19v-61q0 -19 22 -19h131v-168h-95q-16 0 -16 -16v-35q0 -15 16 -15h95v-311q0 -19 22 -19h73q20 0 20 19v311h104q14 0 14 15v34q0 17 -15 17h-103v168h132q23 0 23 19v61z" />
    <glyph glyph-name="tbar" unicode="&#x167;" horiz-adv-x="316" 
d="M314 81q-2 11 -6.5 14t-19.5 2q-50 -5 -58 -5q-29 0 -38.5 13t-9.5 52v90h85q15 0 15 15v35q0 15 -16 15h-84v89h90q9 0 13 2.5t5 6.5t1 12v48q0 12 -3 16t-16 4h-89v127q0 23 -24 17l-63 -19q-21 -5 -21 -21v-104h-40q-20 0 -20 -20v-49q0 -20 20 -20h39v-89h-37
q-16 0 -16 -15v-35q0 -15 15 -15h38v-132q0 -63 27.5 -93t91.5 -30q70 0 113 22q17 11 14 29z" />
    <glyph glyph-name="Utilde" unicode="&#x168;" horiz-adv-x="547" 
d="M349 713q68 0 98 89q7 16 -8 24l-28 14q-13 6 -23 -10q-20 -33 -40 -33q-7 0 -61 26q-44 24 -73 24q-67 0 -102 -92q-6 -14 7 -21l27 -14q12 -5 14.5 -4t8.5 10q21 36 44 36q15 0 64 -24q49 -25 72 -25zM273 95q-57 0 -82 34.5t-25 111.5v402q0 20 -23 20h-68
q-14 0 -19 -4.5t-5 -15.5v-409q0 -242 222 -242q111 0 167.5 63t56.5 179v409q0 20 -23 20h-68q-23 0 -23 -20v-402q0 -75 -27 -110.5t-83 -35.5z" />
    <glyph glyph-name="utilde" unicode="&#x169;" horiz-adv-x="456" 
 />
    <glyph glyph-name="Umacron" unicode="&#x16a;" horiz-adv-x="547" 
d="M273 95q-57 0 -82 34.5t-25 111.5v402q0 20 -23 20h-68q-14 0 -19 -4.5t-5 -15.5v-409q0 -242 222 -242q111 0 167.5 63t56.5 179v409q0 20 -23 20h-68q-23 0 -23 -20v-402q0 -75 -27 -110.5t-83 -35.5zM421 801q0 17 -20 17h-240q-20 0 -20 -17v-53q0 -17 20 -17h240
q20 0 20 17v53z" />
    <glyph glyph-name="umacron" unicode="&#x16b;" horiz-adv-x="456" 
d="M307 19q0 -19 20 -19h70q20 0 20 19v452q0 19 -20 19h-68q-22 0 -22 -19v-340q-67 -37 -104 -37q-30 0 -42.5 19t-12.5 72v142q1 83 1 144q0 19 -21 19h-69q-21 0 -21 -19v-321q0 -70 20 -111q26 -48 110 -48q69 0 134 53l2 -1q1 -1 3 -1v-23zM370 638q0 10 -4 13t-15 3
h-242q-19 0 -19 -16v-53q0 -17 19 -17h242q19 0 19 17v53z" />
    <glyph glyph-name="Ubreve" unicode="&#x16c;" horiz-adv-x="547" 
 />
    <glyph glyph-name="ubreve" unicode="&#x16d;" horiz-adv-x="456" 
d="M307 19q0 -19 20 -19h70q20 0 20 19v452q0 19 -20 19h-68q-22 0 -22 -19v-340q-67 -37 -104 -37q-30 0 -42.5 19t-12.5 72v142q1 83 1 144q0 19 -21 19h-69q-21 0 -21 -19v-321q0 -70 20 -111q26 -48 110 -48q69 0 134 53l2 -1q1 -1 3 -1v-23zM77 649q21 -48 63.5 -76.5
t88.5 -28.5q45 0 85 28.5t64 78.5q12 22 -2 33l-24 17q-17 12 -30 -6q-32 -41 -50.5 -56t-41.5 -15q-26 0 -45 15t-53 58q-15 19 -29 5l-25 -22q-10 -10 -1 -31z" />
    <glyph glyph-name="Uring" unicode="&#x16e;" horiz-adv-x="547" 
d="M353 715q30 30 30 72t-30 72t-74 30t-76 -29q-31 -28 -31 -73t31 -73t76 -28q43 0 74 29zM279 834q18 0 30.5 -14.5t12.5 -32.5q2 -28 -20.5 -40.5t-45 -0.5t-19.5 41q0 18 12.5 32.5t29.5 14.5zM273 95q-57 0 -82 34.5t-25 111.5v402q0 20 -23 20h-68q-14 0 -19 -4.5
t-5 -15.5v-409q0 -242 222 -242q111 0 167.5 63t56.5 179v409q0 20 -23 20h-68q-23 0 -23 -20v-402q0 -75 -27 -110.5t-83 -35.5z" />
    <glyph glyph-name="uring" unicode="&#x16f;" horiz-adv-x="456" 
d="M307 19q0 -19 20 -19h70q20 0 20 19v452q0 19 -20 19h-68q-22 0 -22 -19v-340q-67 -37 -104 -37q-30 0 -42.5 19t-12.5 72v142q1 83 1 144q0 19 -21 19h-69q-21 0 -21 -19v-321q0 -70 20 -111q26 -48 110 -48q69 0 134 53l2 -1q1 -1 3 -1v-23zM305 562q30 30 30 72
t-30 72t-74 30t-76 -29q-31 -28 -31 -73t31 -73t76 -28q43 0 74 29zM231 681q18 0 30.5 -14.5t12.5 -32.5q2 -28 -20.5 -40.5t-45 -0.5t-19.5 41q0 18 12.5 32.5t29.5 14.5z" />
    <glyph glyph-name="Uhungarumlaut" unicode="&#x170;" horiz-adv-x="547" 
d="M273 95q-57 0 -82 34.5t-25 111.5v402q0 20 -23 20h-68q-14 0 -19 -4.5t-5 -15.5v-409q0 -242 222 -242q111 0 167.5 63t56.5 179v409q0 20 -23 20h-68q-23 0 -23 -20v-402q0 -75 -27 -110.5t-83 -35.5zM496 796q15 9 5 22l-39 52q-12 16 -23 5l-129 -111q-10 -12 -4 -20
l23 -30q11 -14 24 -8zM326 796q15 9 5 22l-39 52q-12 16 -23 5l-129 -111q-10 -12 -4 -20l23 -30q11 -14 24 -8z" />
    <glyph glyph-name="uhungarumlaut" unicode="&#x171;" horiz-adv-x="456" 
 />
    <glyph glyph-name="Uogonek" unicode="&#x172;" horiz-adv-x="547" 
d="M273 95q-57 0 -82 34.5t-25 111.5v402q0 20 -23 20h-68q-14 0 -19 -4.5t-5 -15.5v-409q0 -224 189 -240q-40 -53 -40 -104q0 -95 109 -94q39 1 73 20q12 6 9 16l-8 31q-3 9 -19 5q-27 -8 -45 -8q-40 0 -40 39q0 43 32 96q92 9 139 71t47 168v409q0 20 -23 20h-68
q-23 0 -23 -20v-402q0 -75 -27 -110.5t-83 -35.5z" />
    <glyph glyph-name="uogonek" unicode="&#x173;" horiz-adv-x="456" 
d="M336 -98q0 46 33 98h28q20 0 20 19v452q0 19 -20 19h-68q-22 0 -22 -19v-340q-67 -37 -104 -37q-30 0 -42.5 19t-12.5 72v142q1 83 1 144q0 19 -21 19h-69q-21 0 -21 -19v-321q0 -70 20 -111q26 -48 110 -48q69 0 134 53l2 -1q1 -1 3 -1v-23q0 -8 1 -10q-51 -58 -51 -116
q0 -95 109 -94q39 1 73 20q11 6 10 16l-9 30q-3 10 -19 6q-27 -8 -45 -8q-40 0 -40 39z" />
    <glyph glyph-name="Wcircumflex" unicode="&#x174;" horiz-adv-x="739" 
d="M377 325q9 -46 38 -169l34 -135q5 -21 29 -21h71q24 0 30 21l149 621q6 22 -12 22h-77q-23 0 -28 -20l-58 -265q-33 -157 -41 -213h-4q-23 121 -43 204l-65 274q-5 20 -28 20h-76q-19 0 -11 -20l35 -134l-37 -164q-27 -112 -36 -168h-3q-22 111 -41 189l-68 277
q-5 20 -27 20h-80q-18 0 -13 -21l159 -622q4 -21 28 -21h71q25 0 29 21l35 140q28 117 36 164h4zM519 732q10 10 -1 21l-98 104q-11 11 -32 11h-49q-18 0 -28 -10l-100 -106q-12 -12 -1 -24l24 -25q8 -13 25 1l104 84l104 -79q16 -15 28 -3z" />
    <glyph glyph-name="wcircumflex" unicode="&#x175;" horiz-adv-x="627" 
 />
    <glyph glyph-name="Ycircumflex" unicode="&#x176;" horiz-adv-x="495" 
d="M247 376q-4 10 -20.5 54t-24.5 62l-55 131q-11 27 -17.5 33t-24.5 6h-81q-7 0 -11 -5.5t0 -12.5l179 -373v-253q0 -18 22 -18h72q20 0 20 18v253l183 373q7 18 -13 18h-78q-14 0 -20 -3.5t-11 -15.5l-66 -147q-36 -81 -48 -120h-6zM403 732q10 10 -1 21l-98 104
q-11 11 -32 11h-49q-18 0 -28 -10l-100 -106q-13 -12 -1 -24l24 -25q8 -13 25 1l104 84l104 -79q16 -15 28 -3z" />
    <glyph glyph-name="ycircumflex" unicode="&#x177;" horiz-adv-x="433" 
d="M222 148q-4 25 -31 125l-58 200q-5 17 -23 17h-75q-22 0 -14 -20l152 -464l-56 -171q-6 -20 15 -20h65q14 0 19 4t9 14l203 637q8 20 -13 20h-73q-18 0 -24 -16l-53 -188l-38 -138h-5zM104 541q14 -11 24 1l98 100l100 -101q14 -11 24 0l26 24q10 11 0 21l-92 127
q-9 12 -34 12h-49q-19 0 -28 -10l-95 -127q-10 -14 0 -24z" />
    <glyph glyph-name="Ydieresis" unicode="&#x178;" horiz-adv-x="495" 
d="M247 376q-4 10 -20.5 54t-24.5 62l-55 131q-11 27 -17.5 33t-24.5 6h-81q-7 0 -11 -5.5t0 -12.5l179 -373v-253q0 -18 22 -18h72q20 0 20 18v253l183 373q7 18 -13 18h-78q-14 0 -20 -3.5t-11 -15.5l-66 -147q-36 -81 -48 -120h-6zM165 727q31 0 42.5 14t11.5 43
q0 28 -11.5 40.5t-42.5 12.5q-54 0 -54 -53q0 -30 11.5 -43.5t42.5 -13.5zM334 727q31 0 42.5 14t11.5 43q0 28 -11.5 40.5t-42.5 12.5q-53 0 -53 -53q0 -30 11 -43.5t42 -13.5z" />
    <glyph glyph-name="Zacute" unicode="&#x179;" horiz-adv-x="450" 
d="M425 81q0 18 -21 18h-251l255 450q15 25 15 43v54q0 17 -21 17h-339q-12 0 -16 -4t-4 -14v-63q0 -10 4.5 -14t16.5 -4h230l-257 -449q-13 -22 -13 -52v-45q0 -18 20 -18h361q20 0 20 19v62zM334 787q16 7 7 22l-35 55q-10 16 -22 7l-138 -100q-12 -10 -6 -20l21 -31
q10 -16 23 -10z" />
    <glyph glyph-name="zacute" unicode="&#x17a;" horiz-adv-x="392" 
 />
    <glyph glyph-name="Zdotaccent" unicode="&#x17b;" horiz-adv-x="450" 
d="M425 81q0 18 -21 18h-251l255 450q15 25 15 43v54q0 17 -21 17h-339q-12 0 -16 -4t-4 -14v-63q0 -10 4.5 -14t16.5 -4h230l-257 -449q-13 -22 -13 -52v-45q0 -18 20 -18h361q20 0 20 19v62zM291 780q0 57 -57 57t-57 -57q0 -59 57 -59t57 59z" />
    <glyph glyph-name="zdotaccent" unicode="&#x17c;" horiz-adv-x="392" 
 />
    <glyph glyph-name="Zcaron" unicode="&#x17d;" horiz-adv-x="450" 
d="M425 81q0 18 -21 18h-251l255 450q15 25 15 43v54q0 17 -21 17h-339q-12 0 -16 -4t-4 -14v-63q0 -10 4.5 -14t16.5 -4h230l-257 -449q-13 -22 -13 -52v-45q0 -18 20 -18h361q20 0 20 19v62zM367 869q-11 11 -29 -2l-103 -81l-105 85q-11 8 -15 8q-6 0 -22 -19t-16 -25
q0 -5 6 -12l100 -106q10 -10 28 -10h48q21 0 33 12l97 104q10 10 0 22z" />
    <glyph glyph-name="zcaron" unicode="&#x17e;" horiz-adv-x="392" 
 />
    <glyph glyph-name="florin" unicode="&#x192;" 
d="M32 -46q-3 -15 9 -22q33 -18 94 -18q63 0 98 44t42 101l37 265h73q15 0 19.5 3t4.5 16v48q0 11 -5 14.5t-18 3.5h-65l12 85q7 54 20 75t44 21q9 0 39 -5q26 -5 30 11l12 46q3 10 -8 18q-42 19 -92 19q-83 0 -116 -59q-23 -43 -34 -106l-15 -105h-62q-14 0 -18.5 -4.5
t-4.5 -16.5v-45q0 -11 5 -15t20 -4h51l-30 -209q-9 -64 -20 -87.5t-39 -23.5q-20 0 -45 4q-24 6 -29 -14z" />
    <glyph glyph-name="Ohorn" unicode="&#x1a0;" horiz-adv-x="575" 
d="M531 341q0 135 -33 209q90 22 90 152v54q0 15 -19 15h-48q-20 0 -20 -15v-36q0 -52 -13.5 -74t-43.5 -23q-58 48 -158 48q-242 0 -242 -330q0 -59 3 -101q3 -39 17 -92q14 -50 38 -82q60 -75 183 -75q169 0 220 143q22 57 24 136q2 42 2 71zM412 331q0 -124 -29 -181
t-97 -57q-67 0 -94 57t-27 181q0 123 28 181.5t93 58.5q69 0 97.5 -57t28.5 -183z" />
    <glyph glyph-name="ohorn" unicode="&#x1a1;" horiz-adv-x="465" 
d="M424 253q0 80 -17 131q83 27 83 151v54q0 9 -3.5 12t-14.5 3h-49q-11 0 -15 -3t-4 -12v-36q0 -47 -10 -69t-34 -27q-47 43 -135 43q-194 0 -194 -247q0 -87 16 -142q13 -39 31 -62q48 -57 147 -57q152 6 182 119q17 55 17 142zM226 404q50 0 68 -35.5t18 -122.5
q0 -86 -18.5 -122t-68.5 -36q-47 0 -64.5 36t-17.5 122q0 84 18 121t65 37z" />
    <glyph glyph-name="Uhorn" unicode="&#x1af;" horiz-adv-x="612" 
d="M273 95q-57 0 -82 34.5t-25 111.5v402q0 20 -23 20h-68q-14 0 -19 -4.5t-5 -15.5v-409q0 -242 222 -242q111 0 167.5 63t56.5 179v311h11q131 0 131 157v55q0 15 -18 15h-50q-19 0 -19 -15v-41q0 -52 -11.5 -71t-43.5 -20v18q0 20 -23 20h-68q-23 0 -23 -20v-402
q0 -75 -27 -110.5t-83 -35.5z" />
    <glyph glyph-name="uhorn" unicode="&#x1b0;" horiz-adv-x="545" 
d="M307 19q0 -19 20 -19h70q20 0 20 19v359h9q131 0 131 157v54q0 15 -18 15h-50q-19 0 -19 -15v-36q0 -50 -12.5 -72.5t-40.5 -24.5v15q0 19 -20 19h-68q-22 0 -22 -19v-340q-67 -37 -104 -37q-30 0 -42.5 19t-12.5 72v142q1 83 1 144q0 19 -21 19h-69q-21 0 -21 -19v-321
q0 -70 20 -111q26 -48 110 -48q69 0 134 53l2 -1q1 -1 3 -1v-23z" />
    <glyph glyph-name="AEacute" unicode="&#x1fc;" horiz-adv-x="773" 
d="M755 81q0 18 -19 18h-233v200h196q12 0 15.5 4t3.5 14v63q0 17 -19 17h-196v167h220q21 0 21 18v63q0 18 -20 18h-371q-16 0 -22.5 -3.5t-12.5 -15.5l-303 -624q-11 -20 11 -20h80q24 0 33 19l71 146h177q0 -136 1 -147q0 -18 21 -18h326q12 0 16 4t4 14v63zM387 258
h-137l132 283h5v-283zM635 787q16 7 7 22l-35 55q-10 16 -22 7l-138 -100q-12 -10 -6 -20l21 -31q10 -16 23 -10z" />
    <glyph glyph-name="aeacute" unicode="&#x1fd;" horiz-adv-x="711" 
 />
    <glyph glyph-name="Oslashacute" unicode="&#x1fe;" horiz-adv-x="575" 
d="M531 341q0 173 -57 249l30 49q7 13 -3 20l-19 12q-11 6 -22 -8l-22 -36q-59 44 -152 44q-242 0 -242 -330q0 -192 56 -270l-29 -47q-7 -13 2 -19l21 -12q12 -7 22 7l20 34q55 -43 149 -43q169 0 220 143q22 57 24 136q2 42 2 71zM412 331q0 -124 -29 -181t-97 -57
q-60 0 -87 44l201 330q12 -54 12 -136zM165 331q0 123 28 181.5t93 58.5q62 0 90 -45l-200 -330q-11 53 -11 135zM421 787q16 7 7 22l-35 55q-10 16 -22 7l-138 -100q-12 -10 -6 -20l21 -31q10 -16 23 -10z" />
    <glyph glyph-name="oslashacute" unicode="&#x1ff;" horiz-adv-x="457" 
d="M424 253q0 124 -44 183l22 36q8 14 -2 19l-18 11q-12 5 -19 -7l-17 -27q-47 32 -121 32q-194 0 -194 -247q0 -151 52 -209l-17 -28q-8 -12 2 -18l18 -10q12 -9 21 5l13 22q44 -23 105 -23q152 6 182 119q17 55 17 142zM143 246q0 84 18 121t65 37q44 0 63 -28l-139 -224
q-7 32 -7 94zM348 689q10 13 -4 22l-57 32q-16 9 -23 -4l-73 -154q-8 -15 4 -20l33 -18q15 -7 25 3q25 35 47 68zM312 246q0 -86 -18.5 -122t-68.5 -36q-34 0 -50 16l133 215q4 -25 4 -73z" />
    <glyph glyph-name="uni0218" unicode="&#x218;" horiz-adv-x="475" 
d="M230 -9q96 0 158 47t62 153q0 107 -63 148q-43 31 -134 53q-58 12 -77 27t-19 59q0 89 92 89q54 0 138 -13q17 -3 23.5 0.5t9.5 16.5l8 40q1 6 0.5 11t-5.5 10t-17 11q-60 27 -163 27q-97 0 -151.5 -51t-54.5 -144q0 -95 62 -137q47 -31 138 -53q54 -11 74 -32
q21 -19 21 -72q0 -85 -102 -85q-44 0 -154 14q-17 3 -23.5 0t-8.5 -16l-8 -42q-5 -20 21 -32q64 -29 173 -29zM298 -130q0 47 -32 79q-18 18 -39 -1l-40 -34q-13 -10 -4 -30q21 -32 21 -56q0 -35 -26 -67q-13 -14 -5 -25l18 -19q11 -11 27 0q80 57 80 153z" />
    <glyph glyph-name="uni0219" unicode="&#x219;" horiz-adv-x="400" 
d="M375 148q0 83 -52 114q-42 26 -111 38q-41 7 -54.5 17t-13.5 35q0 30 13.5 42.5t47.5 11.5q33 0 118 -9q16 -2 22.5 0.5t8.5 13.5l7 37q3 19 -22 29q-54 23 -135 23q-80 0 -126 -39.5t-46 -111.5q0 -77 52 -108q44 -24 115 -37q37 -6 49.5 -18.5t12.5 -44.5
q0 -29 -16.5 -42.5t-53.5 -13.5q-47 0 -123 12q-16 2 -22 -1t-8 -15l-7 -33q-4 -23 22 -33q51 -23 139 -23q79 0 131 37t52 119zM256 -130q0 47 -32 79q-18 18 -39 -1l-40 -34q-13 -10 -4 -30q21 -32 21 -56q0 -35 -26 -67q-13 -14 -5 -25l18 -19q11 -11 27 0q80 57 80 153z
" />
    <glyph glyph-name="uni021A" unicode="&#x21a;" horiz-adv-x="440" 
d="M432 644q0 19 -22 19h-380q-21 0 -21 -19v-61q0 -19 22 -19h131v-545q0 -19 22 -19h73q20 0 20 19v545h132q23 0 23 19v61zM280 -122q0 47 -32 79q-18 18 -39 -1l-40 -34q-13 -10 -4 -30q21 -32 21 -56q0 -35 -26 -67q-13 -14 -5 -25l18 -19q11 -11 27 0q80 57 80 153z
" />
    <glyph glyph-name="uni021B" unicode="&#x21b;" horiz-adv-x="316" 
d="M314 81q-2 11 -6.5 14t-19.5 2q-50 -5 -58 -5q-29 0 -38.5 13t-9.5 52v244h90q9 0 13 2.5t5 6.5t1 12v48q0 12 -3 16t-16 4h-89v127q0 23 -24 17l-63 -19q-21 -5 -21 -21v-104h-40q-20 0 -20 -20v-49q0 -20 20 -20h39v-286q0 -63 27.5 -93t91.5 -30q70 0 113 22
q17 11 14 29zM214 -123q0 47 -32 79q-18 18 -39 -1l-40 -34q-13 -10 -4 -30q21 -31 21 -56q0 -35 -26 -67q-13 -14 -5 -25l18 -19q11 -10 27 0q35 25 57.5 65.5t22.5 87.5z" />
    <glyph glyph-name="uni0259" unicode="&#x259;" horiz-adv-x="439" 
d="M227 81q-43 0 -60.5 29t-19.5 90h158q-2 -63 -20 -91t-58 -28zM221 500q-87 0 -147 -28q-18 -9 -15 -30l7 -35q3 -20 29 -15q70 10 113 10q51 0 73.5 -28t24.5 -98h-222q-51 0 -50 -61q0 -88 34 -152q43 -72 158 -72q193 0 193 257q0 89 -20 145q-12 35 -33 57
q-48 50 -145 50z" />
    <glyph glyph-name="uni02B9" unicode="&#x2b9;" horiz-adv-x="238" 
d="M235 656q9 13 -5 21l-61 27q-20 9 -27 -10l-112 -257q-6 -13 5 -19l44 -19q13 -6 21 6z" />
    <glyph glyph-name="circumflex" unicode="&#x2c6;" horiz-adv-x="454" 
d="M112 541q14 -11 24 1l98 100l100 -101q14 -11 24 0l26 24q10 11 0 21l-92 127q-9 12 -34 12h-49q-19 0 -28 -10l-95 -127q-10 -14 0 -24z" />
    <glyph glyph-name="caron" unicode="&#x2c7;" horiz-adv-x="411" 
d="M70 696q-10 -10 0 -24l95 -127q9 -10 28 -10h49q25 0 34 12l92 127q10 10 0 21l-26 24q-10 11 -24 0l-100 -101l-98 100q-10 12 -24 1z" />
    <glyph glyph-name="breve" unicode="&#x2d8;" horiz-adv-x="457" 
d="M95 649q21 -48 63.5 -76.5t88.5 -28.5q45 0 85 28.5t64 78.5q12 22 -2 33l-24 17q-17 12 -30 -6q-32 -41 -50.5 -56t-41.5 -15q-26 0 -45 15t-53 58q-15 19 -29 5l-25 -22q-10 -10 -1 -31z" />
    <glyph glyph-name="dotaccent" unicode="&#x2d9;" horiz-adv-x="353" 
d="M234 621q0 57 -57 57t-57 -57q0 -59 57 -59t57 59z" />
    <glyph glyph-name="ring" unicode="&#x2da;" horiz-adv-x="461" 
d="M316 562q30 30 30 72t-30 72t-74 30t-76 -29q-31 -28 -31 -73t31 -73t76 -28q43 0 74 29zM242 681q18 0 30.5 -14.5t12.5 -32.5q2 -28 -20.5 -40.5t-45 -0.5t-19.5 41q0 18 12.5 32.5t29.5 14.5z" />
    <glyph glyph-name="ogonek" unicode="&#x2db;" horiz-adv-x="402" 
d="M210 -95q0 53 47 117h-66q-60 -64 -60 -126q0 -95 109 -94q39 1 73 20q11 6 10 16l-9 30q-3 10 -19 6q-27 -8 -45 -8q-40 0 -40 39z" />
    <glyph glyph-name="tilde" unicode="&#x2dc;" horiz-adv-x="455" 
d="M303 557q68 0 98 89q7 16 -8 24l-28 14q-13 6 -23 -10q-20 -33 -40 -33q-7 0 -61 26q-43 24 -73 24q-67 0 -102 -92q-6 -14 7 -21l27 -14q12 -5 14.5 -4t8.5 10q21 36 44 36q15 0 64 -24q49 -25 72 -25z" />
    <glyph glyph-name="hungarumlaut" unicode="&#x2dd;" horiz-adv-x="466" 
d="M283 688q10 15 -4 22l-58 33q-16 9 -22 -5l-73 -154q-8 -15 4 -20l33 -17q16 -9 25 3l45 67q46 66 50 71zM415 688q10 15 -4 22l-57 33q-16 7 -23 -5l-72 -154q-8 -14 3 -20l34 -17q15 -9 24 3q9 10 48 69z" />
    <glyph glyph-name="tonos" unicode="&#x384;" horiz-adv-x="448" 
d="M342 688q10 15 -4 22l-57 33q-16 7 -23 -5l-73 -154q-6 -14 4 -20l33 -17q16 -9 25 3l45 67q46 66 50 71z" />
    <glyph glyph-name="dieresistonos" unicode="&#x385;" horiz-adv-x="366" 
d="M66 559q29 0 40.5 13t11.5 41q0 27 -11.5 39t-40.5 12q-52 0 -52 -51q0 -28 11.5 -41t40.5 -13zM361 613q0 26 -12 38.5t-41 12.5q-51 0 -51 -51q0 -28 11 -41t40 -13q53 0 53 54zM273 697q7 17 -6 21l-62 27q-17 8 -21 -7l-59 -160q-6 -14 6 -19l35 -14q16 -7 23 6
q1 1 7 11t15 26t19 34z" />
    <glyph glyph-name="Alphatonos" unicode="&#x386;" horiz-adv-x="516" 
d="M386 21q3 -12 8 -16.5t18 -4.5h85q18 0 12 20l-176 622q-6 21 -29 21h-84q-23 0 -29 -21l-176 -621q-6 -21 15 -21h75q22 0 28 21l36 144h181zM264 537q7 -43 25 -117l38 -162h-135l12 45l19 75l11 44q1 5 7.5 33t12 52t6.5 30h4zM98 620q10 15 -4 22l-57 33
q-16 7 -23 -5l-73 -154q-6 -14 4 -20l33 -17q16 -9 25 3l45 67q46 66 50 71z" />
    <glyph glyph-name="anoteleia" unicode="&#x387;" horiz-adv-x="185" 
d="M151 390q0 31 -13 45.5t-46 14.5q-59 0 -59 -60q0 -61 59 -61t59 61z" />
    <glyph glyph-name="Epsilontonos" unicode="&#x388;" horiz-adv-x="460" 
d="M438 81q0 18 -18 18h-246v200h207q12 0 16 4t4 14v63q0 17 -20 17h-207v167h233q12 0 15.5 4t3.5 14v63q0 18 -20 18h-326q-22 0 -22 -19v-626q0 -18 22 -18h338q12 0 16 4t4 14v63zM8 620q10 15 -4 22l-57 33q-16 7 -23 -5l-73 -154q-6 -14 4 -20l33 -17q16 -9 25 3
l46 67q42 63 49 71z" />
    <glyph glyph-name="Etatonos" unicode="&#x389;" horiz-adv-x="539" 
d="M491 644q0 19 -20 19h-73q-22 0 -22 -19v-246h-202v246q0 19 -20 19h-73q-22 0 -22 -19v-625q0 -19 22 -19h73q20 0 20 19v279h202v-279q0 -19 22 -19h73q20 0 20 19v625zM6 620q10 15 -4 22l-57 33q-16 7 -23 -5l-73 -154q-6 -14 4 -20l33 -17q16 -9 25 3l46 67
q42 63 49 71z" />
    <glyph glyph-name="Iotatonos" unicode="&#x38a;" horiz-adv-x="241" 
d="M184 644q0 19 -21 19h-73q-22 0 -22 -19v-625q0 -19 22 -19h73q21 0 21 19v625zM18 620q10 15 -4 22l-57 33q-16 7 -23 -5l-73 -154q-6 -14 4 -20l33 -17q16 -9 25 3l46 67q42 63 49 71z" />
    <glyph glyph-name="Omicrontonos" unicode="&#x38c;" horiz-adv-x="575" 
d="M537 341q0 114 -24 186q-15 46 -41 75q-60 69 -180 69q-242 0 -242 -330q0 -59 3 -101q3 -39 17 -92q14 -50 38 -82q60 -75 183 -75q169 0 220 143q22 57 24 136q2 42 2 71zM418 331q0 -124 -29 -181t-97 -57q-67 0 -94 57t-27 181q0 123 28 181.5t93 58.5q69 0 97.5 -57
t28.5 -183zM47 620q10 15 -4 22l-57 33q-16 7 -23 -5l-73 -154q-6 -14 4 -20l33 -17q16 -9 25 3l46 67q42 63 49 71z" />
    <glyph glyph-name="Upsilontonos" unicode="&#x38e;" horiz-adv-x="495" 
d="M249 376q-4 10 -20.5 54t-24.5 62l-55 131q-11 27 -17.5 33t-24.5 6h-81q-7 0 -11 -5.5t0 -12.5l179 -373v-253q0 -18 22 -18h72q20 0 20 18v253l183 373q7 18 -13 18h-78q-14 0 -20 -3.5t-11 -15.5l-66 -147q-36 -81 -48 -120h-6zM-11 620q10 15 -4 22l-57 33
q-16 7 -23 -5l-73 -154q-6 -14 4 -20l33 -17q16 -9 25 3l46 67q42 63 49 71z" />
    <glyph glyph-name="Omegatonos" unicode="&#x38f;" horiz-adv-x="592" 
d="M170 344q0 227 133 227q134 0 134 -231q0 -180 -87 -224q-19 -10 -19 -28v-68q0 -20 22 -20h192q12 0 16 5t4 17v59q0 18 -20 18h-56l-1 3q68 79 68 246q0 105 -30 179q-16 43 -44 74q-61 70 -179 70q-167 0 -225 -153q-29 -76 -29 -172q0 -181 67 -244l-1 -3h-60
q-12 0 -16 -4t-4 -14v-61q0 -12 4 -16t16 -4h189q24 0 24 20v69q0 5 -1.5 9t-3.5 6t-6.5 6t-7.5 7q-81 43 -79 227zM50 620q10 15 -4 22l-57 33q-16 7 -23 -5l-73 -154q-6 -14 4 -20l33 -17q16 -9 25 3l45 67q46 66 50 71z" />
    <glyph glyph-name="iotadieresistonos" unicode="&#x390;" horiz-adv-x="216" 
d="M2 559q29 0 40.5 13t11.5 41q0 27 -11.5 39t-40.5 12q-52 0 -52 -51q0 -28 11.5 -41t40.5 -13zM297 613q0 26 -12 38.5t-41 12.5q-51 0 -51 -51q0 -28 11 -41t40 -13q53 0 53 54zM209 697q7 17 -6 21l-62 27q-17 8 -21 -7l-59 -160q-6 -14 6 -19l35 -14q16 -7 23 6
q1 1 7 11t15 26t19 34zM162 471q0 19 -21 19h-66q-23 0 -23 -19v-452q0 -19 23 -19h66q21 0 21 19v452z" />
    <glyph glyph-name="Alpha" unicode="&#x391;" horiz-adv-x="516" 
d="M386 21q3 -12 8 -16.5t18 -4.5h85q18 0 12 20l-176 622q-6 21 -29 21h-84q-23 0 -29 -21l-176 -621q-6 -21 15 -21h75q22 0 28 21l36 144h181zM264 537q7 -43 25 -117l38 -162h-135l12 45l19 75l11 44q1 5 7.5 33t12 52t6.5 30h4z" />
    <glyph glyph-name="Beta" unicode="&#x392;" horiz-adv-x="514" 
d="M482 189q0 68 -40 116q-23 29 -62 43v2q44 19 64 57.5t20 81.5q0 82 -51 128t-145 46h-193q-22 0 -22 -19v-625q0 -19 24 -19h219q80 0 132 51q54 53 54 138zM363 197q0 -98 -99 -98h-96v197h96q47 0 73 -27.5t26 -71.5zM344 478q0 -36 -23.5 -61t-58.5 -25h-94v172h83
q46 0 69.5 -23t23.5 -63z" />
    <glyph glyph-name="Gamma" unicode="&#x393;" horiz-adv-x="420" 
d="M402 564q21 0 21 19v62q0 18 -21 18h-324q-23 0 -23 -18v-626q0 -19 24 -19h69q22 0 22 19v545h232z" />
    <glyph glyph-name="uni0394" unicode="&#x394;" horiz-adv-x="516" 
d="M334 640q-4 15 -10 19t-24 4h-74q-17 0 -23.5 -4.5t-9.5 -17.5l-177 -618q-8 -23 16 -23h466q22 0 15 24zM266 526q6 -36 30 -136l75 -291h-220l69 255q32 122 40 172h6z" />
    <glyph glyph-name="Epsilon" unicode="&#x395;" horiz-adv-x="460" 
d="M432 81q0 18 -18 18h-246v200h207q12 0 16 4t4 14v63q0 17 -20 17h-207v167h233q12 0 15.5 4t3.5 14v63q0 18 -20 18h-326q-22 0 -22 -19v-626q0 -18 22 -18h338q12 0 16 4t4 14v63z" />
    <glyph glyph-name="Zeta" unicode="&#x396;" horiz-adv-x="450" 
d="M425 81q0 18 -21 18h-251l255 450q15 25 15 43v54q0 17 -21 17h-339q-12 0 -16 -4t-4 -14v-63q0 -10 4.5 -14t16.5 -4h230l-257 -449q-13 -22 -13 -52v-45q0 -18 20 -18h361q20 0 20 19v62z" />
    <glyph glyph-name="Eta" unicode="&#x397;" horiz-adv-x="539" 
d="M485 644q0 19 -20 19h-73q-22 0 -22 -19v-246h-202v246q0 19 -20 19h-73q-22 0 -22 -19v-625q0 -19 22 -19h73q20 0 20 19v279h202v-279q0 -19 22 -19h73q20 0 20 19v625z" />
    <glyph glyph-name="Theta" unicode="&#x398;" horiz-adv-x="587" 
d="M543 340q0 112 -25 185q-17 47 -43 76q-61 70 -185 70q-247 0 -247 -331q0 -56 3 -97q3 -37 17 -91q15 -52 40 -84q26 -34 75 -55.5t112 -21.5q126 0 189 77q26 34 41 83q23 77 23 189zM423 330q0 -122 -31 -179.5t-102 -57.5q-69 0 -97.5 56.5t-28.5 180.5
q0 123 29 181.5t97 58.5q74 0 103.5 -55.5t29.5 -184.5zM389 378q0 19 -18 19h-127h-7h-6.5h-6.5t-6.5 -0.5t-5.5 -1t-4.5 -1t-3.5 -2t-3.5 -3.5t-2 -4.5t-0.5 -5.5v-61q0 -3 0.5 -6t2 -5t2.5 -3t4 -2t5 -1.5t6.5 -0.5h7.5h8.5h9.5h127q11 0 14.5 4t3.5 14v60z" />
    <glyph glyph-name="Iota" unicode="&#x399;" horiz-adv-x="241" 
d="M178 644q0 19 -21 19h-73q-22 0 -22 -19v-625q0 -19 22 -19h73q21 0 21 19v625z" />
    <glyph glyph-name="Kappa" unicode="&#x39a;" horiz-adv-x="505" 
d="M492 644q6 8 2 13.5t-13 5.5h-86q-26 0 -35 -14l-110 -163q-66 -96 -83 -127h-4v285q0 19 -20 19h-72q-22 0 -22 -19v-625q0 -19 22 -19h72q20 0 20 19v163l70 99l129 -256q10 -25 37 -25h87q10 0 13 7t-2 14l-191 361z" />
    <glyph glyph-name="Lambda" unicode="&#x39b;" horiz-adv-x="516" 
d="M232 414q13 48 28 123h4q8 -48 25 -117l97 -399q3 -12 8 -16.5t18 -4.5h85q18 0 12 20l-176 622q-6 21 -29 21h-84q-23 0 -29 -21l-176 -621q-6 -21 15 -21h75q22 0 28 21z" />
    <glyph glyph-name="Mu" unicode="&#x39c;" horiz-adv-x="659" 
d="M605 646q0 17 -19 17h-59q-25 0 -35 -19l-94 -222q-50 -122 -65 -166h-5l-66 167l-94 222q-5 11 -11 14.5t-22 3.5h-62q-21 0 -21 -17v-627q0 -19 23 -19h68q21 0 21 19v377q2 0 3 1q23 -63 44 -109l71 -164q9 -18 29 -18h40q20 0 27 19l65 155q26 62 45 115l3 -1v-375
q0 -19 22 -19h71q21 0 21 19v627z" />
    <glyph glyph-name="Nu" unicode="&#x39d;" horiz-adv-x="563" 
d="M399 20q11 -20 35 -20h57q19 0 19 19v625q0 19 -20 19h-71q-20 0 -20 -19v-420q-2 0 -3 -1q-23 52 -75 145l-156 277q-11 18 -33 18h-58q-21 0 -21 -17v-627q0 -19 22 -19h70q20 0 20 19v420h3q34 -71 84 -159z" />
    <glyph glyph-name="Xi" unicode="&#x39e;" horiz-adv-x="471" 
d="M422 563q12 0 15.5 4t3.5 15v62q0 19 -20 19h-374q-22 0 -22 -19v-62q0 -12 3.5 -15.5t17.5 -3.5h376zM39 99q-11 0 -15 -4.5t-4 -15.5v-61q0 -10 4.5 -14t16.5 -4h385q14 0 18 4t4 14v61q0 20 -20 20h-389zM391 298q22 0 22 18v62q0 19 -20 19h-320q-20 0 -20 -19v-62
q0 -10 3.5 -14t17.5 -4h317z" />
    <glyph glyph-name="Omicron" unicode="&#x39f;" horiz-adv-x="575" 
d="M531 341q0 114 -24 186q-15 46 -41 75q-60 69 -180 69q-242 0 -242 -330q0 -59 3 -101q3 -39 17 -92q14 -50 38 -82q60 -75 183 -75q169 0 220 143q22 57 24 136q2 42 2 71zM412 331q0 -124 -29 -181t-97 -57q-67 0 -94 57t-27 181q0 123 28 181.5t93 58.5q69 0 97.5 -57
t28.5 -183z" />
    <glyph glyph-name="Pi" unicode="&#x3a0;" horiz-adv-x="547" 
d="M497 643q0 11 -4.5 15.5t-16.5 4.5h-401q-22 0 -22 -20v-624q0 -19 24 -19h69q22 0 22 19v543h214v-543q0 -19 25 -19h67q23 0 23 19v624z" />
    <glyph glyph-name="Rho" unicode="&#x3a1;" horiz-adv-x="468" 
d="M455 464q0 100 -58.5 149.5t-163.5 49.5h-159q-22 0 -22 -18v-626q0 -19 22 -19h73q21 0 21 19v238h83q119 0 165 70q39 60 39 137zM339 462q0 -108 -97 -108h-74v210h70q101 0 101 -102z" />
    <glyph glyph-name="Sigma" unicode="&#x3a3;" horiz-adv-x="424" 
d="M416 80q0 19 -22 19h-246q14 24 36 69q2 4 43 83q19 37 39 69q6 12 6 22t-6 21l-121 199h236q16 0 19.5 4t3.5 16v61q0 12 -4 16t-18 4h-340q-25 0 -25 -20v-40q0 -28 22 -65l115 -196l-113 -220q-14 -29 -17 -38q-3 -10 -3 -32v-34q0 -18 24 -18h349q14 0 18 3.5t4 15.5
v61z" />
    <glyph glyph-name="Tau" unicode="&#x3a4;" horiz-adv-x="440" 
d="M432 644q0 19 -22 19h-380q-21 0 -21 -19v-61q0 -19 22 -19h131v-545q0 -19 22 -19h73q20 0 20 19v545h132q23 0 23 19v61z" />
    <glyph glyph-name="Upsilon" unicode="&#x3a5;" horiz-adv-x="495" 
d="M247 376q-4 10 -20.5 54t-24.5 62l-55 131q-11 27 -17.5 33t-24.5 6h-81q-7 0 -11 -5.5t0 -12.5l179 -373v-253q0 -18 22 -18h72q20 0 20 18v253l183 373q7 18 -13 18h-78q-14 0 -20 -3.5t-11 -15.5l-66 -147q-36 -81 -48 -120h-6z" />
    <glyph glyph-name="Phi" unicode="&#x3a6;" horiz-adv-x="696" 
d="M409 79q68 7 118.5 31.5t78 62t40.5 79t13 89.5q0 87 -49 158q-57 84 -200 98v47q0 10 -4.5 14.5t-16.5 4.5h-73q-22 0 -22 -19v-47q-71 -6 -123.5 -33.5t-79 -67.5t-38.5 -79t-12 -79q0 -99 50 -170q58 -80 203 -90v-59q0 -19 22 -19h73q9 0 13.5 2.5t5.5 6t1 10.5v60z
M155 338q0 72 35 114.5t104 50.5v-331q-139 18 -139 166zM544 338q0 -73 -34.5 -116.5t-100.5 -49.5v331q67 -8 101 -51.5t34 -113.5z" />
    <glyph glyph-name="Chi" unicode="&#x3a7;" horiz-adv-x="481" 
d="M352 17q9 -17 30 -17h82q23 0 14 19l-170 326l158 298q6 7 1.5 13.5t-15.5 6.5h-82q-23 0 -29 -18l-93 -200l-94 202q-4 10 -9.5 13t-19.5 3h-82q-10 0 -13.5 -6.5t1.5 -14.5l154 -297l-168 -324q-9 -21 12 -21h83q24 0 31 18l105 223z" />
    <glyph glyph-name="Psi" unicode="&#x3a8;" horiz-adv-x="645" 
d="M595 643q0 20 -23 20h-66q-25 0 -25 -20v-238q0 -122 -104 -142v380q0 11 -4.5 15.5t-16.5 4.5h-71q-23 0 -23 -20v-381q-103 13 -103 143v238q0 20 -23 20h-68q-24 0 -24 -20v-235q0 -110 54.5 -175t163.5 -74v-139q0 -20 25 -20h66q24 0 24 20v140q102 9 160 76t58 172
v235z" />
    <glyph glyph-name="uni03A9" unicode="&#x3a9;" horiz-adv-x="592" 
d="M164 344q0 227 133 227q134 0 134 -231q0 -180 -87 -224q-19 -10 -19 -28v-68q0 -20 22 -20h192q12 0 16 5t4 17v59q0 18 -20 18h-56l-1 3q68 79 68 246q0 105 -30 179q-16 43 -44 74q-61 70 -179 70q-167 0 -225 -153q-29 -76 -29 -172q0 -181 67 -244l-1 -3h-60
q-12 0 -16 -4t-4 -14v-61q0 -12 4 -16t16 -4h189q24 0 24 20v69q0 5 -1.5 9t-3.5 6t-6.5 6t-7.5 7q-81 43 -79 227z" />
    <glyph glyph-name="Iotadieresis" unicode="&#x3aa;" horiz-adv-x="241" 
d="M39 727q31 0 42.5 14t11.5 43q0 28 -11.5 40.5t-42.5 12.5q-54 0 -54 -53q0 -30 11.5 -43.5t42.5 -13.5zM208 727q31 0 42.5 14t11.5 43q0 28 -11.5 40.5t-42.5 12.5q-53 0 -53 -53q0 -30 11 -43.5t42 -13.5zM178 644q0 19 -21 19h-73q-22 0 -22 -19v-625q0 -19 22 -19
h73q21 0 21 19v625z" />
    <glyph glyph-name="Upsilondieresis" unicode="&#x3ab;" horiz-adv-x="495" 
d="M247 376q-4 10 -20.5 54t-24.5 62l-55 131q-11 27 -17.5 33t-24.5 6h-81q-7 0 -11 -5.5t0 -12.5l179 -373v-253q0 -18 22 -18h72q20 0 20 18v253l183 373q7 18 -13 18h-78q-14 0 -20 -3.5t-11 -15.5l-66 -147q-36 -81 -48 -120h-6zM166 727q31 0 42.5 14t11.5 43
q0 28 -11.5 40.5t-42.5 12.5q-54 0 -54 -53q0 -30 11.5 -43.5t42.5 -13.5zM335 727q31 0 42.5 14t11.5 43q0 28 -11.5 40.5t-42.5 12.5q-53 0 -53 -53q0 -30 11 -43.5t42 -13.5z" />
    <glyph glyph-name="alphatonos" unicode="&#x3ac;" horiz-adv-x="478" 
d="M142 238q0 86 18.5 123.5t61.5 37.5t89 -25v-239q-22 -16 -54.5 -29.5t-52.5 -13.5q-33 0 -48 29q-14 30 -14 117zM319 47q6 -29 23.5 -40t54.5 -11q27 0 42 4q26 5 26 22v43q0 7 -3.5 10t-15.5 5q-18 2 -21.5 8t-3.5 34v347q0 12 -4.5 16.5t-16.5 4.5h-66q-12 0 -16 -4
t-4 -15v-10q-44 37 -108 37q-93 0 -134.5 -65.5t-41.5 -193.5t33 -187t114 -59q71 0 138 54h4zM339 688q10 15 -4 22l-57 33q-16 7 -23 -5l-73 -154q-6 -14 4 -20l33 -17q16 -9 25 3l45 67q46 66 50 71z" />
    <glyph glyph-name="epsilontonos" unicode="&#x3ad;" horiz-adv-x="395" 
d="M95 260q-30 -17 -47 -48t-17 -65q0 -91 65 -125q55 -29 128 -29q90 0 138 24q25 10 19 31l-6 33q-5 21 -30 15q-76 -10 -118 -10q-80 0 -80 67q0 37 20.5 51t60.5 14h44q11 0 14.5 4t3.5 15v42q0 19 -18 19h-39q-78 0 -78 52q0 57 75 57q30 0 103 -9q29 -6 34 16l7 37
q4 15 -16 26q-24 11 -65 17q-39 7 -74 7q-34 0 -62 -7q-118 -28 -118 -141q0 -60 56 -89v-4zM312 688q10 15 -4 22l-57 33q-16 7 -23 -5l-73 -154q-6 -14 4 -20l33 -17q16 -9 25 3l45 67q46 66 50 71z" />
    <glyph glyph-name="etatonos" unicode="&#x3ae;" horiz-adv-x="458" 
d="M146 471q0 19 -20 19h-70q-20 0 -20 -19v-452q0 -19 20 -19h69q21 0 21 19v342q70 36 109 36q31 0 43.5 -19.5t12.5 -69.5q0 -61 -1 -144v-145q0 -19 21 -19h70q21 0 21 19v290q0 71 -12 110q-7 24 -22 43q-33 37 -103 37q-66 0 -134 -51l-5 2v21zM321 688q10 15 -4 22
l-57 33q-16 7 -23 -5l-73 -154q-6 -14 4 -20l33 -17q16 -9 25 3l45 67q46 66 50 71z" />
    <glyph glyph-name="iotatonos" unicode="&#x3af;" horiz-adv-x="216" 
d="M162 471q0 19 -21 19h-66q-23 0 -23 -19v-452q0 -19 23 -19h66q21 0 21 19v452zM222 688q10 15 -4 22l-57 33q-16 7 -23 -5l-73 -154q-6 -14 4 -20l33 -17q16 -9 25 3l45 67q46 66 50 71z" />
    <glyph glyph-name="upsilondieresistonos" unicode="&#x3b0;" horiz-adv-x="460" 
d="M109 559q29 0 40.5 13t11.5 41q0 27 -11.5 39t-40.5 12q-52 0 -52 -51q0 -28 11.5 -41t40.5 -13zM404 613q0 26 -12 38.5t-41 12.5q-51 0 -51 -51q0 -28 11 -41t40 -13q53 0 53 54zM316 697q8 17 -6 21l-62 27q-17 8 -21 -7l-59 -160q-6 -14 6 -19l35 -14q16 -7 23 6
q1 1 7 11t15 26t19 34zM149 470q0 11 -4.5 15.5t-17.5 4.5h-66q-22 0 -22 -20v-282q0 -195 188 -195q96 0 145 52.5t49 142.5v282q0 20 -22 20h-67q-23 0 -23 -20v-282q0 -101 -80 -101q-44 0 -62 25t-18 76v282z" />
    <glyph glyph-name="alpha" unicode="&#x3b1;" horiz-adv-x="478" 
d="M142 238q0 86 18.5 123.5t61.5 37.5t89 -25v-239q-22 -16 -54.5 -29.5t-52.5 -13.5q-33 0 -48 29q-14 30 -14 117zM319 47q6 -29 23.5 -40t54.5 -11q27 0 42 4q26 5 26 22v43q0 7 -3.5 10t-15.5 5q-18 2 -21.5 8t-3.5 34v347q0 12 -4.5 16.5t-16.5 4.5h-66q-12 0 -16 -4
t-4 -15v-10q-44 37 -108 37q-93 0 -134.5 -65.5t-41.5 -193.5t33 -187t114 -59q71 0 138 54h4z" />
    <glyph glyph-name="beta" unicode="&#x3b2;" horiz-adv-x="456" 
d="M149 7q47 -16 95 -16q100 0 141 58t41 188q0 145 -101 171v5q34 20 51 56.5t17 73.5q0 78 -45.5 122t-129.5 44q-83 0 -133 -58t-50 -160v-655q0 -19 22 -19h66q22 0 22 19v167zM314 233q0 -80 -19 -113.5t-62 -33.5q-44 0 -89 14v389q0 125 71 125q31 0 50.5 -21.5
t19.5 -56.5q0 -56 -27 -79q-22 -18 -62 -30q-17 -5 -17 -20v-49q0 -12 21 -14q62 -6 88 -31t26 -80z" />
    <glyph glyph-name="gamma" unicode="&#x3b3;" horiz-adv-x="430" 
d="M221 146q-10 51 -26 101l-50 178q-12 42 -27.5 58.5t-47.5 16.5q-28 0 -57 -13q-16 -7 -14 -18l8 -51q1 -10 17 -11q17 -2 24 -23l118 -379v-170q0 -12 4.5 -16t18.5 -4h66q21 0 21 20v173l155 462q6 20 -13 20h-72q-20 0 -25 -17l-62 -207q-25 -78 -31 -120h-7z" />
    <glyph glyph-name="delta" unicode="&#x3b4;" horiz-adv-x="460" 
d="M231 708q-78 0 -122 -39.5t-44 -111.5q0 -75 63 -111q-47 -31 -72 -86.5t-25 -115.5q0 -80 17 -136q10 -34 31 -60q49 -56 147 -56q143 4 180 117q18 54 18 135q0 106 -50 162q-41 49 -126 89q-41 19 -55.5 33.5t-14.5 42.5q0 43 57 43q33 0 118 -9q16 -2 22.5 0.5
t8.5 13.5l7 37q3 19 -22 29q-54 23 -138 23zM313 237q0 -80 -19 -115t-68 -35q-46 0 -64.5 34.5t-18.5 115.5q0 115 76 158q53 -17 73.5 -52.5t20.5 -105.5z" />
    <glyph glyph-name="epsilon" unicode="&#x3b5;" horiz-adv-x="395" 
d="M95 260q-30 -17 -47 -48t-17 -65q0 -91 65 -125q55 -29 128 -29q90 0 138 24q25 10 19 31l-6 33q-5 21 -30 15q-76 -10 -118 -10q-80 0 -80 67q0 37 20.5 51t60.5 14h44q11 0 14.5 4t3.5 15v42q0 19 -18 19h-39q-78 0 -78 52q0 57 75 57q30 0 103 -9q29 -6 34 16l7 37
q4 15 -16 26q-24 11 -65 17q-39 7 -74 7q-34 0 -62 -7q-118 -28 -118 -141q0 -60 56 -89v-4z" />
    <glyph glyph-name="zeta" unicode="&#x3b6;" horiz-adv-x="405" 
d="M305 82q-168 0 -168 76q0 35 42 87q16 18 63 54q23 20 74 49l39 24l35 21q12 7 12 31v50q0 16 -16 16h-330q-18 0 -18 -18v-54q0 -19 18 -19h176l1 -2q-84 -44 -147 -107q-60 -61 -60 -139q0 -157 248 -162q-29 -56 -42 -109q-11 -33 9 -38l55 -14q21 -5 27 19
q11 41 49 126q16 33 16 44q0 4 -4 15l-12 31q-5 12 -11 16t-20 3h-36z" />
    <glyph glyph-name="eta" unicode="&#x3b7;" horiz-adv-x="458" 
d="M146 471q0 19 -20 19h-70q-20 0 -20 -19v-452q0 -19 20 -19h69q21 0 21 19v342q70 36 109 36q31 0 43.5 -19.5t12.5 -69.5q0 -61 -1 -144v-145q0 -19 21 -19h70q21 0 21 19v290q0 71 -12 110q-7 24 -22 43q-33 37 -103 37q-66 0 -134 -51l-5 2v21z" />
    <glyph glyph-name="theta" unicode="&#x3b8;" horiz-adv-x="478" 
d="M236 -8q69 -3 113.5 31t66.5 89q15 31 21 79q7 52 8 83q2 48 2 88q0 102 -14 173q-8 44 -22 71q-50 102 -175 102q-148 -5 -188 -164q-18 -75 -18 -182q0 -59 1 -80q2 -49 5 -75q6 -69 35 -128q42 -83 165 -87zM335 328q0 -134 -21 -188t-77 -54q-54 0 -75 56.5
t-19 185.5h192zM237 614q52 0 74 -46.5t24 -155.5h-191q2 103 24 152.5t69 49.5z" />
    <glyph glyph-name="iota" unicode="&#x3b9;" horiz-adv-x="216" 
d="M162 471q0 19 -21 19h-66q-23 0 -23 -19v-452q0 -19 23 -19h66q21 0 21 19v452z" />
    <glyph glyph-name="kappa" unicode="&#x3ba;" horiz-adv-x="424" 
d="M295 18q9 -18 33 -18h75q16 0 16 12q0 6 -3 10l-146 269l128 176q5 8 5 11q0 12 -15 12h-77q-24 0 -35 -17l-81 -121l-41 -63l-1 1h-1v180q0 20 -21 20h-69q-20 0 -20 -20v-452q0 -18 20 -18h69q21 0 21 18v112q11 15 49 68z" />
    <glyph glyph-name="lambda" unicode="&#x3bb;" horiz-adv-x="425" 
d="M213 333q1 -7 29 -131l21 -90q17 -68 33 -92t62 -24q48 0 63 12q7 6 5 17l-4 36q-2 13 -15 14q-13 2 -19 8t-10 21l-147 529q-12 43 -36 59t-67 16q-33 0 -54 -8q-12 -5 -15.5 -9t-2.5 -13l5 -45q3 -15 31 -15q24 -4 33 -13t16 -37l23 -92l-159 -457q-1 -2 -1 -8
q0 -11 16 -11h69q17 0 22 15l63 198q11 36 34 120h5z" />
    <glyph glyph-name="nu" unicode="&#x3bd;" horiz-adv-x="436" 
d="M427 470q1 2 1 8q0 12 -15 12h-75q-9 0 -13.5 -2.5t-5.5 -5t-4 -9.5q-46 -154 -75 -269q-1 -4 -6 -22.5t-9.5 -35.5t-4.5 -18h-3q0 4 -9 35l-10 41l-75 268q-5 18 -24 18h-76q-15 0 -15 -14q0 -6 1 -7l141 -428q11 -31 12 -32q6 -9 24 -9h64q22 0 29 21z" />
    <glyph glyph-name="xi" unicode="&#x3be;" horiz-adv-x="367" 
d="M118 381q-48 -22 -72 -77q-24 -52 -24 -111q0 -121 70 -166q65 -39 167 -39q-29 -56 -42 -109q-11 -33 9 -38l55 -14q21 -5 27 19q11 41 49 126q16 33 16 44q0 4 -4 15l-12 32q-4 12 -10 15.5t-21 3.5h-28q-59 0 -95 9q-26 8 -38 19q-32 32 -32 90q0 145 124 145h62
q17 0 17 19v48q0 17 -17 17h-60q-115 0 -115 88q0 96 97 96q47 0 117 -9q11 0 14 17l7 38q3 18 -21 28q-51 22 -133 22q-91 0 -141.5 -50.5t-50.5 -143.5q0 -99 85 -130v-4z" />
    <glyph glyph-name="omicron" unicode="&#x3bf;" horiz-adv-x="457" 
d="M424 253q0 83 -19 136q-13 36 -33 58q-48 53 -147 53q-194 0 -194 -247q0 -87 16 -142q13 -39 31 -62q48 -57 147 -57q152 6 182 119q17 55 17 142zM226 404q50 0 68 -35.5t18 -122.5q0 -86 -18.5 -122t-68.5 -36q-47 0 -64.5 36t-17.5 122q0 84 18 121t65 37z" />
    <glyph glyph-name="pi" unicode="&#x3c0;" horiz-adv-x="467" 
d="M432 470q0 12 -4 16t-17 4h-352q-21 0 -21 -19v-452q0 -19 21 -19h69q20 0 20 19v378h173v-378q0 -19 20 -19h70q21 0 21 19v451z" />
    <glyph glyph-name="rho" unicode="&#x3c1;" horiz-adv-x="460" 
d="M151 7q56 -17 97 -17q99 0 140 62t41 197q0 127 -45.5 189t-151.5 62q-196 0 -196 -251v-413q0 -12 4 -16.5t18 -4.5h66q23 0 23 21v168zM316 251q0 -92 -18 -128t-61 -36q-46 0 -91 13v161q0 143 86 143q43 0 63.5 -35.5t20.5 -117.5z" />
    <glyph glyph-name="sigma1" unicode="&#x3c2;" horiz-adv-x="400" 
d="M375 148q0 83 -52 114q-42 26 -111 38q-41 7 -54.5 17t-13.5 35q0 30 13.5 42.5t47.5 11.5q33 0 118 -9q16 -2 22.5 0.5t8.5 13.5l7 37q3 19 -22 29q-54 23 -135 23q-80 0 -126 -39.5t-46 -111.5q0 -77 52 -108q44 -24 115 -37q37 -6 49.5 -18.5t12.5 -44.5
q0 -29 -16.5 -42.5t-53.5 -13.5q-47 0 -123 12q-16 2 -22 -1t-8 -15l-7 -33q-4 -23 22 -33q51 -23 139 -23q79 0 131 37t52 119z" />
    <glyph glyph-name="sigma" unicode="&#x3c3;" horiz-adv-x="470" 
d="M384 395v1h54q14 0 18.5 4t4.5 16v54q0 12 -4.5 16t-18.5 4h-211q-136 0 -179 -117q-19 -56 -19 -125q0 -78 15 -138q11 -39 30 -61q50 -57 148 -57q147 4 182 118q17 52 17 133q0 105 -39 148v2l1 1zM222 85q-46 0 -63.5 35t-17.5 121q0 83 28 119t88 36
q31 -18 42.5 -52t11.5 -103q0 -85 -19.5 -120.5t-69.5 -35.5z" />
    <glyph glyph-name="tau" unicode="&#x3c4;" horiz-adv-x="363" 
d="M352 81q-2 10 -5.5 13.5t-12.5 2.5q-47 -5 -64 -5q-27 0 -36.5 13t-9.5 51v241h106q14 0 17.5 4.5t3.5 17.5v51q0 12 -3.5 16t-17.5 4h-298q-12 0 -16.5 -4.5t-4.5 -16.5v-50q0 -12 4.5 -17t16.5 -5h84v-264q0 -73 26 -107q26 -33 102 -33q74 0 105 25q12 10 9 25z" />
    <glyph glyph-name="upsilon" unicode="&#x3c5;" horiz-adv-x="460" 
d="M149 470q0 11 -4.5 15.5t-17.5 4.5h-66q-22 0 -22 -20v-282q0 -195 188 -195q96 0 145 52.5t49 142.5v282q0 20 -22 20h-67q-23 0 -23 -20v-282q0 -101 -80 -101q-44 0 -62 25t-18 76v282z" />
    <glyph glyph-name="phi" unicode="&#x3c6;" horiz-adv-x="602" 
d="M568 246q0 39 -6 73.5t-21.5 68t-39.5 57.5t-64 39t-92 15h-57q-39 0 -39 -39v-379q-52 4 -80.5 48t-28.5 118q0 116 64 168q14 13 7 26l-26 36q-12 19 -32 8q-121 -66 -121 -236q0 -245 213 -259v-147q0 -19 25 -19h61q24 0 24 19v148q103 8 158 75.5t55 179.5zM462 239
q0 -69 -27.5 -110t-79.5 -47v322q107 -6 107 -165z" />
    <glyph glyph-name="chi" unicode="&#x3c7;" horiz-adv-x="416" 
d="M287 15q7 -15 28 -15h84q10 0 14 6t-1 14l-138 231l131 219q8 20 -13 20h-85q-17 0 -24 -15l-74 -147l-72 143q-6 13 -10.5 16t-16.5 3h-81q-10 0 -13.5 -6t1.5 -14l126 -220l-135 -230q-6 -8 -1.5 -14t13.5 -6h83q21 0 28 15l77 154z" />
    <glyph glyph-name="psi" unicode="&#x3c8;" horiz-adv-x="566" 
d="M335 -10q92 8 141.5 59.5t49.5 135.5v286q0 19 -22 19h-63q-22 0 -22 -19v-284q0 -92 -84 -100v430q0 19 -22 19h-63q-14 0 -18.5 -4.5t-4.5 -14.5v-430q-82 10 -82 100v284q0 19 -21 19h-64q-22 0 -22 -19v-286q0 -88 47.5 -138t141.5 -57v-146q0 -11 4.5 -15t17.5 -4
h65q12 0 16.5 4.5t4.5 14.5v146z" />
    <glyph glyph-name="omega" unicode="&#x3c9;" horiz-adv-x="665" 
d="M521 242q0 -153 -70 -153q-69 0 -69 98v114q0 21 -21 21h-58q-21 0 -21 -21v-114q0 -98 -67 -98q-37 0 -54 36t-17 121q1 67 15 104t51 66q19 13 11 29l-20 40q-10 22 -37 9q-84 -36 -110 -112q-22 -63 -22 -144q0 -123 40.5 -184.5t136.5 -61.5q79 0 120 68q2 0 3 1
q16 -31 50 -50t75 -19q176 0 176 247q0 197 -135 255q-27 10 -37 -9l-21 -40q-7 -15 11 -29q38 -29 53.5 -68.5t16.5 -105.5z" />
    <glyph glyph-name="iotadieresis" unicode="&#x3ca;" horiz-adv-x="216" 
d="M24 559q31 0 42.5 14t11.5 43q0 27 -12 40t-42 13q-55 0 -55 -53q0 -30 12 -43.5t43 -13.5zM196 559q31 0 43 14t12 43q0 28 -12 40.5t-43 12.5q-54 0 -54 -53q0 -30 11.5 -43.5t42.5 -13.5zM162 471q0 19 -21 19h-66q-23 0 -23 -19v-452q0 -19 23 -19h66q21 0 21 19v452
z" />
    <glyph glyph-name="upsilondieresis" unicode="&#x3cb;" horiz-adv-x="460" 
d="M149 470q0 11 -4.5 15.5t-17.5 4.5h-66q-22 0 -22 -20v-282q0 -195 188 -195q96 0 145 52.5t49 142.5v282q0 20 -22 20h-67q-23 0 -23 -20v-282q0 -101 -80 -101q-44 0 -62 25t-18 76v282zM144 559q31 0 42.5 14t11.5 43q0 27 -12 40t-42 13q-55 0 -55 -53
q0 -30 12 -43.5t43 -13.5zM316 559q31 0 43 14t12 43q0 28 -12 40.5t-43 12.5q-54 0 -54 -53q0 -30 11.5 -43.5t42.5 -13.5z" />
    <glyph glyph-name="omicrontonos" unicode="&#x3cc;" horiz-adv-x="457" 
d="M424 253q0 83 -19 136q-13 36 -33 58q-48 53 -147 53q-194 0 -194 -247q0 -87 16 -142q13 -39 31 -62q48 -57 147 -57q152 6 182 119q17 55 17 142zM226 404q50 0 68 -35.5t18 -122.5q0 -86 -18.5 -122t-68.5 -36q-47 0 -64.5 36t-17.5 122q0 84 18 121t65 37zM341 688
q10 15 -4 22l-57 33q-16 7 -23 -5l-73 -154q-6 -14 4 -20l33 -17q16 -9 25 3l45 67q46 66 50 71z" />
    <glyph glyph-name="upsilontonos" unicode="&#x3cd;" horiz-adv-x="460" 
d="M149 470q0 11 -4.5 15.5t-17.5 4.5h-66q-22 0 -22 -20v-282q0 -195 188 -195q96 0 145 52.5t49 142.5v282q0 20 -22 20h-67q-23 0 -23 -20v-282q0 -101 -80 -101q-44 0 -62 25t-18 76v282zM337 688q10 15 -4 22l-57 33q-16 7 -23 -5l-73 -154q-6 -14 4 -20l33 -17
q16 -9 25 3l45 67q46 66 50 71z" />
    <glyph glyph-name="omegatonos" unicode="&#x3ce;" horiz-adv-x="665" 
d="M521 242q0 -153 -70 -153q-69 0 -69 98v114q0 21 -21 21h-58q-21 0 -21 -21v-114q0 -98 -67 -98q-37 0 -54 36t-17 121q1 67 15 104t51 66q19 13 11 29l-20 40q-10 22 -37 9q-84 -36 -110 -112q-22 -63 -22 -144q0 -123 40.5 -184.5t136.5 -61.5q79 0 120 68q2 0 3 1
q16 -31 50 -50t75 -19q176 0 176 247q0 197 -135 255q-27 10 -37 -9l-21 -40q-7 -15 11 -29q38 -29 53.5 -68.5t16.5 -105.5zM446 688q10 15 -4 22l-57 33q-16 7 -23 -5l-73 -154q-6 -14 4 -20l33 -17q16 -9 25 3l45 67q46 66 50 71z" />
    <glyph glyph-name="uni0400" unicode="&#x400;" horiz-adv-x="460" 
d="M432 81q0 18 -18 18h-246v200h207q12 0 16 4t4 14v63q0 17 -20 17h-207v167h233q12 0 15.5 4t3.5 14v63q0 18 -20 18h-326q-22 0 -22 -19v-626q0 -18 22 -18h338q12 0 16 4t4 14v63zM273 711q13 -6 23 10l21 31q6 10 -6 20l-138 100q-12 9 -22 -7l-35 -55q-9 -15 7 -22z
" />
    <glyph glyph-name="uni0401" unicode="&#x401;" horiz-adv-x="460" 
d="M432 81q0 18 -18 18h-246v200h207q12 0 16 4t4 14v63q0 17 -20 17h-207v167h233q12 0 15.5 4t3.5 14v63q0 18 -20 18h-326q-22 0 -22 -19v-626q0 -18 22 -18h338q12 0 16 4t4 14v63zM150 727q31 0 42.5 14t11.5 43q0 28 -11.5 40.5t-42.5 12.5q-54 0 -54 -53
q0 -30 11.5 -43.5t42.5 -13.5zM319 727q31 0 42.5 14t11.5 43q0 28 -11.5 40.5t-42.5 12.5q-53 0 -53 -53q0 -30 11 -43.5t42 -13.5z" />
    <glyph glyph-name="uni0402" unicode="&#x402;" horiz-adv-x="635" 
d="M274 302q71 47 123 47q90 0 90 -127q0 -189 -119 -278q-16 -13 -7 -28l21 -39q10 -22 35 -10q29 13 60 42q34 30 50 51q74 101 74 258q0 107 -48.5 167.5t-141.5 60.5q-61 0 -137 -40v157h200q14 0 18 4.5t4 14.5v62q0 19 -22 19h-447q-14 0 -18 -3.5t-4 -15.5v-61
q0 -12 4 -16t18 -4h132v-543q0 -20 23 -20h70q22 0 22 20v282z" />
    <glyph glyph-name="uni0403" unicode="&#x403;" horiz-adv-x="420" 
d="M402 564q21 0 21 19v62q0 18 -21 18h-324q-23 0 -23 -18v-626q0 -19 24 -19h69q22 0 22 19v545h232zM333 787q16 7 7 22l-35 55q-10 16 -22 7l-138 -100q-12 -10 -6 -20l21 -31q10 -16 23 -10z" />
    <glyph glyph-name="uni0404" unicode="&#x404;" horiz-adv-x="490" 
d="M289 670q-165 0 -216 -150q-27 -78 -27 -193q0 -114 27 -191q16 -44 42 -76q61 -68 172 -68q102 0 168 29q23 11 19 33l-8 38q-6 18 -30 16q-83 -10 -141 -10q-66 0 -94.5 49t-31.5 147h207q11 0 15 4.5t4 14.5v60q0 17 -19 17h-205q6 88 33.5 131t90.5 43q54 0 141 -10
q25 -4 29 15l8 41q3 21 -20 32q-63 28 -164 28z" />
    <glyph glyph-name="uni0405" unicode="&#x405;" horiz-adv-x="475" 
d="M230 -9q96 0 158 47t62 153q0 107 -63 148q-43 31 -134 53q-58 12 -77 27t-19 59q0 89 92 89q54 0 138 -13q17 -3 23.5 0.5t9.5 16.5l8 40q1 6 0.5 11t-5.5 10t-17 11q-60 27 -163 27q-97 0 -151.5 -51t-54.5 -144q0 -95 62 -137q47 -31 138 -53q54 -11 74 -32
q21 -19 21 -72q0 -85 -102 -85q-44 0 -154 14q-17 3 -23.5 0t-8.5 -16l-8 -42q-5 -20 21 -32q64 -29 173 -29z" />
    <glyph glyph-name="uni0406" unicode="&#x406;" horiz-adv-x="241" 
d="M178 644q0 19 -21 19h-73q-22 0 -22 -19v-625q0 -19 22 -19h73q21 0 21 19v625z" />
    <glyph glyph-name="uni0407" unicode="&#x407;" horiz-adv-x="241" 
d="M37 727q31 0 42.5 14t11.5 43q0 28 -11.5 40.5t-42.5 12.5q-54 0 -54 -53q0 -30 11.5 -43.5t42.5 -13.5zM206 727q31 0 42.5 14t11.5 43q0 28 -11.5 40.5t-42.5 12.5q-53 0 -53 -53q0 -30 11 -43.5t42 -13.5zM178 644q0 19 -21 19h-73q-22 0 -22 -19v-625q0 -19 22 -19
h73q21 0 21 19v625z" />
    <glyph glyph-name="uni0408" unicode="&#x408;" horiz-adv-x="386" 
d="M327 644q0 19 -22 19h-72q-22 0 -22 -19v-458q0 -47 -17.5 -68.5t-60.5 -21.5q-21 0 -96 8q-13 2 -17.5 -0.5t-6.5 -12.5l-10 -46q-5 -20 13 -29q50 -25 132 -25q178 0 179 177v476z" />
    <glyph glyph-name="uni0409" unicode="&#x409;" horiz-adv-x="781" 
d="M352 19q0 -10 4.5 -14.5t18.5 -4.5h198q85 0 141 50q56 51 56 148q0 77 -38 135q-45 68 -156 68h-108v242q0 20 -23 20h-292q-23 0 -25 -20l-18 -288q-9 -163 -24 -215t-66 -64q-13 -4 -16.5 -7t-3.5 -12l2 -45q0 -13 6 -18t25 -5q61 0 104 34q34 27 55 95q8 29 14 69
q7 49 8 77l6 91l12 208h120v-544zM654 199q0 -48 -23.5 -74.5t-65.5 -26.5h-97v207h102q84 0 84 -106z" />
    <glyph glyph-name="uni040A" unicode="&#x40a;" horiz-adv-x="763" 
d="M327 398h-158v245q0 20 -23 20h-70q-23 0 -23 -20v-623q0 -20 23 -20h70q23 0 23 20v277h158v-278q0 -19 24 -19h197q86 0 142 51t56 147q0 77 -39 134q-44 67 -158 67h-105v244q0 20 -23 20h-70q-24 0 -24 -20v-245zM630 199q0 -48 -23.5 -74.5t-65.5 -26.5h-98v202h103
q84 0 84 -101z" />
    <glyph glyph-name="uni040B" unicode="&#x40b;" horiz-adv-x="628" 
d="M592 264q0 92 -35 142t-132 50q-65 0 -147 -44v151h195q24 0 24 20v61q0 19 -23 19h-443q-14 0 -19 -4.5t-5 -15.5v-60q0 -11 5 -15.5t19 -4.5h131v-542q0 -21 23 -21h70q23 0 23 21v287q89 49 130 49q36 0 53.5 -20.5t17.5 -68.5v-247q0 -21 23 -21h66q24 0 24 21v243z
" />
    <glyph glyph-name="uni040C" unicode="&#x40c;" horiz-adv-x="509" 
d="M341 345q67 23 92 123l45 169q8 25 -20 25h-65q-15 0 -21.5 -4.5t-10.5 -18.5l-44 -165q-23 -84 -99 -84h-52v254q0 19 -20 19h-73q-22 0 -22 -19v-625q0 -19 22 -19h73q20 0 20 20v271h53q39 0 63.5 -19.5t36.5 -68.5l44 -176q4 -16 11 -21.5t24 -5.5h68q31 0 20 25
l-50 190q-29 104 -95 126v4zM374 787q16 7 7 22l-35 55q-10 16 -22 7l-138 -100q-12 -10 -6 -20l21 -31q10 -16 23 -10z" />
    <glyph glyph-name="uni040D" unicode="&#x40d;" horiz-adv-x="568" 
d="M53 18q0 -10 4 -14t16 -4h58q23 0 37 20l109 200q90 164 120 228h3v-430q0 -18 21 -18h72q21 0 21 18v627q0 18 -19 18h-66q-21 0 -34 -21l-92 -169l-133 -251h-4v421q0 20 -21 20h-72q-20 0 -20 -20v-625zM322 711q13 -6 23 10l21 31q6 10 -6 20l-138 100q-12 9 -22 -7
l-35 -55q-9 -15 7 -22z" />
    <glyph glyph-name="uni040E" unicode="&#x40e;" horiz-adv-x="500" 
d="M117 798q21 -48 63.5 -76.5t88.5 -28.5q45 0 85 28.5t64 78.5q12 22 -2 33l-24 17q-16 11 -30 -6q-32 -41 -50.5 -56t-41.5 -15q-26 0 -45 15t-53 58q-15 19 -29 5l-25 -22q-10 -10 -1 -31zM261 282q-17 69 -53 179l-61 184q-6 18 -30 18h-79q-22 0 -15 -19
q33 -91 94 -250q81 -210 92 -242l-10 -25q-13 -27 -32 -35t-59 -6q-15 1 -20.5 -3t-6.5 -16l-5 -44q-4 -23 26 -30q27 -7 63 -7q68 0 101 44q31 40 59 123l172 492q5 18 -16 18h-70q-15 0 -22 -5.5t-12 -21.5l-54 -168q-26 -76 -56 -185z" />
    <glyph glyph-name="uni040F" unicode="&#x40f;" horiz-adv-x="539" 
d="M465 0q12 0 16.5 4.5t4.5 15.5v624q0 19 -21 19h-72q-22 0 -22 -19v-544h-203v544q0 19 -20 19h-73q-12 0 -16.5 -4.5t-4.5 -14.5v-624q0 -20 22 -20h137l6 -135q1 -14 5.5 -18t17.5 -4h58q12 0 17 5.5t6 20.5l6 131h136z" />
    <glyph glyph-name="uni0410" unicode="&#x410;" horiz-adv-x="516" 
d="M386 21q3 -12 8 -16.5t18 -4.5h85q18 0 12 20l-176 622q-6 21 -29 21h-84q-23 0 -29 -21l-176 -621q-6 -21 15 -21h75q22 0 28 21l36 144h181zM264 537q7 -43 25 -117l38 -162h-135l12 45l19 75l11 44q1 5 7.5 33t12 52t6.5 30h4z" />
    <glyph glyph-name="uni0411" unicode="&#x411;" horiz-adv-x="487" 
d="M421 644q0 19 -21 19h-329q-18 -1 -18 -19v-626q0 -18 22 -18h186q92 0 151 50q59 51 59 147q0 78 -40 135q-44 68 -166 68h-96v163h231q21 0 21 18v63zM355 198q0 -48 -27 -74.5t-75 -26.5h-85v207h91q52 0 74 -26.5t22 -79.5z" />
    <glyph glyph-name="uni0412" unicode="&#x412;" horiz-adv-x="514" 
d="M482 189q0 68 -40 116q-23 29 -62 43v2q44 19 64 57.5t20 81.5q0 82 -51 128t-145 46h-193q-22 0 -22 -19v-625q0 -19 24 -19h219q80 0 132 51q54 53 54 138zM363 197q0 -98 -99 -98h-96v197h96q47 0 73 -27.5t26 -71.5zM344 478q0 -36 -23.5 -61t-58.5 -25h-94v172h83
q46 0 69.5 -23t23.5 -63z" />
    <glyph glyph-name="uni0413" unicode="&#x413;" horiz-adv-x="420" 
d="M402 564q21 0 21 19v62q0 18 -21 18h-324q-23 0 -23 -18v-626q0 -19 24 -19h69q22 0 22 19v545h232z" />
    <glyph glyph-name="uni0414" unicode="&#x414;" horiz-adv-x="603" 
d="M482 -128q1 -15 5.5 -20t17.5 -5h55q12 0 16 5t5 22l10 194q0 25 -20 27l-42 4v544q0 20 -20 20h-326q-29 0 -31 -27q-21 -299 -29 -362q-9 -70 -22.5 -108t-40.5 -65l-25 -6q-18 -4 -24.5 -10.5t-5.5 -21.5l7 -189q1 -16 5.5 -21.5t17.5 -5.5h55q14 0 18.5 5t5.5 20
l8 128h354zM187 100q43 56 51 204l19 260h158v-464h-228z" />
    <glyph glyph-name="uni0415" unicode="&#x415;" horiz-adv-x="460" 
d="M432 81q0 18 -18 18h-246v200h207q12 0 16 4t4 14v63q0 17 -20 17h-207v167h233q12 0 15.5 4t3.5 14v63q0 18 -20 18h-326q-22 0 -22 -19v-626q0 -18 22 -18h338q12 0 16 4t4 14v63z" />
    <glyph glyph-name="uni0416" unicode="&#x416;" horiz-adv-x="769" 
d="M603 345q67 23 93 123l45 169q8 25 -20 25h-65q-15 0 -21.5 -4.5t-9.5 -18.5l-45 -165q-22 -84 -98 -84h-37v254q0 10 -4 14.5t-15 4.5h-73q-21 0 -21 -19v-254h-37q-75 0 -98 84l-44 165q-4 14 -10 18.5t-21 4.5h-66q-28 0 -20 -25l45 -169q25 -100 93 -123v-4
q-68 -23 -96 -126l-50 -190q-11 -25 20 -25h68q17 0 24 5.5t11 21.5l44 176q12 49 36.5 68.5t62.5 19.5h38v-272q0 -19 21 -19h73q19 0 19 20v271h39q38 0 62 -19.5t36 -68.5l44 -176q4 -16 11 -21.5t25 -5.5h67q28 0 20 25l-50 190q-29 103 -96 126v4z" />
    <glyph glyph-name="uni0417" unicode="&#x417;" horiz-adv-x="455" 
d="M331 356q40 16 65 55t25 84q0 180 -200 180q-107 0 -168 -33q-19 -9 -15 -27l8 -40q4 -21 33 -16q82 14 127 14q96 0 96 -90q0 -47 -36 -67t-112 -20q-13 0 -17 -4.5t-4 -17.5v-52q0 -12 3 -15t17 -3q86 0 123.5 -23.5t37.5 -81.5q0 -107 -118 -107q-46 0 -153 15
q-26 5 -29 -13l-9 -40q-5 -18 11 -28q28 -17 86 -26t102 -9q106 0 167.5 54t61.5 152q0 59 -27 99.5t-75 54.5v5z" />
    <glyph glyph-name="uni0418" unicode="&#x418;" horiz-adv-x="568" 
d="M53 18q0 -10 4 -14t16 -4h58q23 0 37 20l109 200q90 164 120 228h3v-430q0 -18 21 -18h72q21 0 21 18v627q0 18 -19 18h-66q-21 0 -34 -21l-92 -169l-133 -251h-4v421q0 20 -21 20h-72q-20 0 -20 -20v-625z" />
    <glyph glyph-name="uni0419" unicode="&#x419;" horiz-adv-x="568" 
d="M136 802q21 -48 63.5 -76.5t88.5 -28.5q45 0 85 28.5t64 78.5q12 22 -2 33l-24 17q-16 11 -30 -6q-32 -41 -50.5 -56t-41.5 -15q-26 0 -45 15t-53 58q-15 19 -29 5l-25 -22q-10 -10 -1 -31zM53 18q0 -10 4 -14t16 -4h58q23 0 37 20l109 200q90 164 120 228h3v-430
q0 -18 21 -18h72q21 0 21 18v627q0 18 -19 18h-66q-21 0 -34 -21l-92 -169l-133 -251h-4v421q0 20 -21 20h-72q-20 0 -20 -20v-625z" />
    <glyph glyph-name="uni041A" unicode="&#x41a;" horiz-adv-x="509" 
d="M341 345q67 23 92 123l45 169q8 25 -20 25h-65q-15 0 -21.5 -4.5t-10.5 -18.5l-44 -165q-23 -84 -99 -84h-52v254q0 19 -20 19h-73q-22 0 -22 -19v-625q0 -19 22 -19h73q20 0 20 20v271h53q39 0 63.5 -19.5t36.5 -68.5l44 -176q4 -16 11 -21.5t24 -5.5h68q31 0 20 25
l-50 190q-29 104 -95 126v4z" />
    <glyph glyph-name="uni041B" unicode="&#x41b;" horiz-adv-x="532" 
d="M365 563v-542q0 -21 24 -21h70q23 0 23 20v623q0 20 -23 20h-304q-24 0 -26 -20l-15 -250q-10 -187 -26 -245q-13 -55 -65 -72q-14 -4 -18.5 -7.5t-3.5 -11.5l2 -45q0 -13 6 -18t25 -5q55 -3 92 24t57 70q11 24 19 67q9 50 11 75q3 31 6 86l14 252h132z" />
    <glyph glyph-name="uni041C" unicode="&#x41c;" horiz-adv-x="659" 
d="M605 646q0 17 -19 17h-59q-25 0 -35 -19l-94 -222q-50 -122 -65 -166h-5l-66 167l-94 222q-5 11 -11 14.5t-22 3.5h-62q-21 0 -21 -17v-627q0 -19 23 -19h68q21 0 21 19v377q2 0 3 1q23 -63 44 -109l71 -164q9 -18 29 -18h40q20 0 27 19l65 155q26 62 45 115l3 -1v-375
q0 -19 22 -19h71q21 0 21 19v627z" />
    <glyph glyph-name="uni041D" unicode="&#x41d;" horiz-adv-x="539" 
d="M485 644q0 19 -20 19h-73q-22 0 -22 -19v-246h-202v246q0 19 -20 19h-73q-22 0 -22 -19v-625q0 -19 22 -19h73q20 0 20 19v279h202v-279q0 -19 22 -19h73q20 0 20 19v625z" />
    <glyph glyph-name="uni041E" unicode="&#x41e;" horiz-adv-x="575" 
d="M531 341q0 114 -24 186q-15 46 -41 75q-60 69 -180 69q-242 0 -242 -330q0 -59 3 -101q3 -39 17 -92q14 -50 38 -82q60 -75 183 -75q169 0 220 143q22 57 24 136q2 42 2 71zM412 331q0 -124 -29 -181t-97 -57q-67 0 -94 57t-27 181q0 123 28 181.5t93 58.5q69 0 97.5 -57
t28.5 -183z" />
    <glyph glyph-name="uni041F" unicode="&#x41f;" horiz-adv-x="547" 
d="M497 643q0 11 -4.5 15.5t-16.5 4.5h-401q-22 0 -22 -20v-624q0 -19 24 -19h69q22 0 22 19v543h214v-543q0 -19 25 -19h67q23 0 23 19v624z" />
    <glyph glyph-name="uni0420" unicode="&#x420;" horiz-adv-x="468" 
d="M455 464q0 100 -58.5 149.5t-163.5 49.5h-159q-22 0 -22 -18v-626q0 -19 22 -19h73q21 0 21 19v238h83q119 0 165 70q39 60 39 137zM339 462q0 -108 -97 -108h-74v210h70q101 0 101 -102z" />
    <glyph glyph-name="uni0421" unicode="&#x421;" horiz-adv-x="490" 
d="M289 670q-165 0 -216 -150q-27 -78 -27 -193q0 -114 27 -191q16 -44 42 -76q61 -68 172 -68q102 0 168 29q23 11 19 33l-8 38q-6 18 -30 16q-83 -10 -141 -10q-71 0 -99 56.5t-28 173.5q0 103 21 165q26 71 106 71q54 0 141 -10q25 -4 29 15l8 41q3 21 -20 32
q-63 28 -164 28z" />
    <glyph glyph-name="uni0422" unicode="&#x422;" horiz-adv-x="440" 
d="M432 644q0 19 -22 19h-380q-21 0 -21 -19v-61q0 -19 22 -19h131v-545q0 -19 22 -19h73q20 0 20 19v545h132q23 0 23 19v61z" />
    <glyph glyph-name="uni0423" unicode="&#x423;" horiz-adv-x="500" 
d="M261 282q-17 69 -53 179l-61 184q-6 18 -30 18h-79q-22 0 -15 -19q33 -91 94 -250q81 -210 92 -242l-10 -25q-13 -27 -32 -35t-59 -6q-15 1 -20.5 -3t-6.5 -16l-5 -44q-4 -23 26 -30q27 -7 63 -7q68 0 101 44q31 40 59 123l172 492q5 18 -16 18h-70q-15 0 -22 -5.5
t-12 -21.5l-54 -168q-26 -76 -56 -185z" />
    <glyph glyph-name="uni0424" unicode="&#x424;" horiz-adv-x="696" 
d="M409 79q68 7 118.5 31.5t78 62t40.5 79t13 89.5q0 87 -49 158q-57 84 -200 98v47q0 10 -4.5 14.5t-16.5 4.5h-73q-22 0 -22 -19v-47q-71 -6 -123.5 -33.5t-79 -67.5t-38.5 -79t-12 -79q0 -99 50 -170q58 -80 203 -90v-59q0 -19 22 -19h73q9 0 13.5 2.5t5.5 6t1 10.5v60z
M155 338q0 72 35 114.5t104 50.5v-331q-139 18 -139 166zM544 338q0 -73 -34.5 -116.5t-100.5 -49.5v331q67 -8 101 -51.5t34 -113.5z" />
    <glyph glyph-name="uni0425" unicode="&#x425;" horiz-adv-x="481" 
d="M352 17q9 -17 30 -17h82q23 0 14 19l-170 326l158 298q6 7 1.5 13.5t-15.5 6.5h-82q-23 0 -29 -18l-93 -200l-94 202q-4 10 -9.5 13t-19.5 3h-82q-10 0 -13.5 -6.5t1.5 -14.5l154 -297l-168 -324q-9 -21 12 -21h83q24 0 31 18l105 223z" />
    <glyph glyph-name="uni0426" unicode="&#x426;" horiz-adv-x="552" 
d="M436 -128q1 -15 5.5 -20t16.5 -5h55q11 0 15.5 5.5t5.5 21.5l11 197q2 26 -20 27l-41 5v541q0 19 -20 19h-73q-12 0 -16.5 -4.5t-4.5 -14.5v-544h-202v544q0 19 -20 19h-73q-22 0 -22 -19v-624q0 -20 22 -20h355z" />
    <glyph glyph-name="uni0427" unicode="&#x427;" horiz-adv-x="518" 
d="M350 373q-60 -20 -122 -20q-49 0 -65 26.5t-16 90.5v173q0 20 -24 20h-68q-14 0 -19 -4.5t-5 -15.5v-188q-2 -106 49 -161q44 -44 131 -44q73 0 139 24v-254q0 -20 23 -20h69q23 0 23 20v624q0 19 -23 19h-69q-11 0 -16.5 -3.5t-6 -6t-0.5 -9.5v-271z" />
    <glyph glyph-name="uni0428" unicode="&#x428;" horiz-adv-x="742" 
d="M688 644q0 20 -20 20h-73q-22 0 -22 -20v-544h-145v543q0 20 -20 20h-74q-22 0 -22 -20v-543h-145v544q0 20 -20 20h-73q-21 0 -21 -20v-624q0 -20 21 -20h594q20 0 20 20v624z" />
    <glyph glyph-name="uni0429" unicode="&#x429;" horiz-adv-x="756" 
d="M639 -128q1 -15 5.5 -20t16.5 -5h56q11 0 15.5 5.5t5.5 21.5l11 198q0 24 -21 26l-39 5v542q0 19 -20 19h-74q-21 0 -21 -19v-545h-145v544q0 19 -21 19h-74q-12 0 -16.5 -4.5t-4.5 -14.5v-543h-145v544q0 19 -20 19h-73q-22 0 -22 -19v-625q0 -20 22 -20h558z" />
    <glyph glyph-name="uni042A" unicode="&#x42a;" horiz-adv-x="625" 
d="M599 197q0 78 -39 135q-44 68 -169 68h-95v244q0 19 -20 19h-255q-21 0 -21 -19v-63q0 -18 22 -18h158v-273q1 -156 1 -272q0 -10 4.5 -14t16.5 -4h188q91 0 150 50q59 51 59 147zM484 198q0 -101 -102 -101h-86v207h91q97 0 97 -106z" />
    <glyph glyph-name="uni042B" unicode="&#x42b;" horiz-adv-x="710" 
d="M475 197q0 38 -9 71t-31 64.5t-65 49.5t-103 18h-92v244q0 19 -21 19h-74q-21 0 -21 -19v-626q0 -18 21 -18h186q91 0 150 50q59 51 59 147zM360 198q0 -49 -27 -75t-76 -26h-82v207h89q96 0 96 -106zM654 644q0 19 -20 19h-74q-21 0 -21 -19v-625q0 -19 21 -19h74
q20 0 20 19v625z" />
    <glyph glyph-name="uni042C" unicode="&#x42c;" horiz-adv-x="489" 
d="M468 197q0 38 -9 71t-31 64.5t-65 49.5t-103 18h-92v244q0 19 -21 19h-73q-22 0 -22 -19v-626q0 -18 22 -18h185q91 0 150 50q59 51 59 147zM353 198q0 -48 -27 -74.5t-75 -26.5h-83v207h89q96 0 96 -106z" />
    <glyph glyph-name="uni042D" unicode="&#x42d;" horiz-adv-x="493" 
d="M475 336q0 117 -24 190q-13 46 -39 76q-57 69 -172 69q-99 0 -159 -29q-23 -14 -20 -33l7 -40q3 -21 33 -16q79 12 132 12q61 0 87.5 -42t29.5 -128h-197q-19 0 -19 -19v-58q0 -10 4 -14t15 -4h198q-9 -203 -130 -203q-49 0 -141 12q-28 4 -31 -15l-8 -40q-5 -22 21 -33
q60 -29 164 -29q249 0 249 344z" />
    <glyph glyph-name="uni042E" unicode="&#x42e;" horiz-adv-x="764" 
d="M53 20q0 -20 24 -20h70q22 0 22 20v278h89q5 -99 29 -169q17 -45 40 -72q57 -66 162 -66q60 0 107 21.5t72 55.5t38 84q21 75 21 189q0 111 -24 184q-13 46 -39 76q-58 70 -175 70q-207 0 -229 -273h-91v245q0 20 -22 20h-70q-24 0 -24 -20v-623zM609 331
q0 -124 -27 -181t-92 -57q-61 0 -86 57t-25 181q0 126 25 182.5t86 56.5q67 0 93 -55.5t26 -183.5z" />
    <glyph glyph-name="uni042F" unicode="&#x42f;" horiz-adv-x="504" 
d="M141 302q-49 -22 -69 -103l-46 -174q-6 -25 21 -25h60q17 0 24 4.5t11 18.5l44 166q22 87 93 87h60v-256q0 -20 21 -20h73q21 0 21 20v625q0 18 -21 18h-183q-85 0 -143 -52q-58 -51 -58 -148q0 -56 23 -97.5t69 -58.5v-5zM168 466q0 47 29 72.5t70 25.5h72v-194h-69
q-102 0 -102 96z" />
    <glyph glyph-name="uni0430" unicode="&#x430;" horiz-adv-x="472" 
d="M302 128q-64 -45 -114 -45q-26 0 -36.5 12.5t-10.5 43.5q0 82 68 82h93v-93zM156 -8q82 0 153 56h2l1 -1q7 -28 26 -39.5t56 -11.5q33 0 50 7q17 5 17 23v39q0 13 -21 15q-20 1 -23.5 7.5t-3.5 37.5v187q0 89 -31 136q-35 52 -148 52q-103 0 -158 -28q-16 -7 -13 -26
l8 -37q3 -17 20 -14q80 10 126 10q47 0 66.5 -19.5t19.5 -62.5v-22h-101q-88 0 -131 -40.5t-43 -126.5q0 -71 30 -106.5t98 -35.5z" />
    <glyph glyph-name="uni0431" unicode="&#x431;" horiz-adv-x="456" 
d="M313 229q0 -56 -15 -95q-17 -47 -73 -47q-48 0 -65 33t-17 105q0 106 7 148q42 20 87 20q47 0 62 -41q15 -42 14 -123zM153 472q7 58 36 84q30 27 90 46q58 19 98 29q21 8 14 27l-14 46q-5 17 -26 11q-93 -22 -158 -49q-107 -44 -140 -162q-24 -82 -24 -251
q0 -88 17 -144q11 -36 32 -61q47 -56 144 -56q125 0 168 81q35 67 35 161q2 114 -29 176q-37 79 -146 79q-55 0 -93 -19z" />
    <glyph glyph-name="uni0432" unicode="&#x432;" horiz-adv-x="442" 
d="M340 262q29 15 44 42t15 53q0 133 -163 133h-177q-23 0 -23 -19v-451q0 -20 26 -20h186q72 0 118 40q47 41 47 105q0 36 -18.5 67.5t-54.5 45.5v4zM302 152q0 -60 -75 -60h-81v122h91q65 0 65 -62zM287 348q0 -24 -15.5 -39t-42.5 -15h-83v107h76q65 0 65 -53z" />
    <glyph glyph-name="uni0433" unicode="&#x433;" horiz-adv-x="382" 
d="M376 469q0 21 -21 21h-293q-24 0 -24 -21v-449q0 -20 24 -20h66q21 0 21 20v377h206q21 0 21 21v51z" />
    <glyph glyph-name="uni0434" unicode="&#x434;" horiz-adv-x="528" 
d="M174 93q16 25 24 57q8 29 19 107l18 138h116v-302h-177zM461 463q0 27 -27 27h-233q-32 0 -46.5 -10t-18.5 -33l-33 -234q-7 -52 -18 -78t-34 -41l-24 -8q-14 -5 -18 -9.5t-4 -17.5q1 -38 4 -171q0 -14 4 -17.5t16 -3.5h54q19 0 20 22l8 111h295l5 -111q1 -13 5 -17.5
t15 -4.5h49q12 0 17 5t6 19l10 173q2 20 -20 23l-32 4v372z" />
    <glyph glyph-name="uni0435" unicode="&#x435;" horiz-adv-x="439" 
d="M224 410q43 0 60 -29t19 -90h-158q2 63 20.5 91t58.5 28zM229 -9q90 0 147 28q20 11 15 30l-6 35q-3 18 -30 14q-67 -9 -112 -9q-51 0 -73.5 28t-24.5 98h222q27 0 38.5 14.5t11.5 46.5q0 88 -35 151q-39 73 -157 73q-194 0 -194 -257q0 -110 34 -174q41 -78 164 -78z
" />
    <glyph glyph-name="uni0436" unicode="&#x436;" horiz-adv-x="627" 
d="M500 255q43 14 74 108l31 104q8 23 -15 23h-63q-14 0 -20 -4.5t-11 -17.5l-32 -101q-14 -40 -31 -54.5t-45 -14.5h-18v174q0 18 -17 18h-74q-18 0 -18 -18v-174h-18q-28 0 -45 14.5t-31 54.5l-32 101q-6 13 -11.5 17.5t-19.5 4.5h-63q-23 0 -15 -23l31 -104
q27 -94 74 -108v-2q-33 -9 -50 -34t-33 -79l-33 -118q-8 -22 16 -22h67q25 0 31 22l30 106q12 43 31 59.5t51 16.5h20v-187q0 -17 18 -17h74q17 0 17 17v187h21q31 0 50 -16t31 -60l31 -106q6 -22 30 -22h67q22 0 16 22l-33 118q-18 56 -34.5 80t-48.5 33v2z" />
    <glyph glyph-name="uni0437" unicode="&#x437;" horiz-adv-x="383" 
d="M5 46q-4 -15 13 -26q43 -28 152 -28t158 62q30 37 30 98q0 82 -76 110q32 15 49.5 43t17.5 59q0 74 -47 106q-46 31 -117 31q-37 0 -79 -7q-44 -8 -66 -21q-15 -9 -15 -26l7 -34q4 -19 29 -16q53 8 104 8q68 0 68 -56q0 -54 -95 -54q-12 0 -15.5 -3t-3.5 -12v-44
q0 -11 3.5 -14t15.5 -3q54 0 79 -15t25 -51q0 -68 -83 -68q-51 0 -117 11q-17 3 -22.5 -0.5t-7.5 -15.5z" />
    <glyph glyph-name="uni0438" unicode="&#x438;" horiz-adv-x="470" 
d="M321 21q0 -21 23 -21h65q22 0 22 21v448q0 21 -21 21h-54q-22 0 -35 -18l-94 -149q-39 -61 -74 -123l-5 1v267q0 22 -22 22h-68q-20 0 -20 -22v-447q0 -21 20 -21h45q26 0 36 19l126 199q38 58 52 84h4v-281z" />
    <glyph glyph-name="uni0439" unicode="&#x439;" horiz-adv-x="470" 
d="M321 21q0 -21 23 -21h65q22 0 22 21v448q0 21 -21 21h-54q-22 0 -35 -18l-94 -149q-39 -61 -74 -123l-5 1v267q0 22 -22 22h-68q-20 0 -20 -22v-447q0 -21 20 -21h45q26 0 36 19l126 199q38 58 52 84h4v-281zM86 649q21 -48 63.5 -76.5t88.5 -28.5q45 0 85 28.5t64 78.5
q12 22 -2 33l-24 17q-17 12 -30 -6q-32 -41 -50.5 -56t-41.5 -15q-26 0 -45 15t-53 58q-15 19 -29 5l-25 -22q-10 -10 -1 -31z" />
    <glyph glyph-name="uni043A" unicode="&#x43a;" horiz-adv-x="421" 
d="M289 255q36 10 58 68q10 24 20 53q5 14 19 66q9 30 9 35q0 12 -17 12h-62q-24 0 -28 -16l-35 -103q-26 -73 -77 -73h-29v175q0 18 -16 18h-76q-18 0 -18 -18v-455q0 -17 18 -17h76q16 0 16 17v186h32q32 0 50 -17t33 -66l24 -81q6 -25 12 -32t22 -7h69q18 0 18 12
q0 1 -2 9l-38 131q-15 47 -31.5 69t-46.5 31v3z" />
    <glyph glyph-name="uni043B" unicode="&#x43b;" horiz-adv-x="470" 
d="M183 490q-34 0 -50 -13t-19 -45l-21 -232q-5 -60 -20.5 -88t-52.5 -39q-12 -4 -15.5 -8t-2.5 -12l2 -45q1 -11 5.5 -15t19.5 -4q94 1 128 55q29 46 36 136l17 217h111v-377q0 -20 23 -20h64q23 0 23 20v449q0 21 -24 21h-224z" />
    <glyph glyph-name="uni043C" unicode="&#x43c;" horiz-adv-x="541" 
d="M271 200q-15 41 -44 105l-77 167q-8 18 -32 18h-59q-21 0 -21 -20v-450q0 -20 22 -20h62q22 0 22 20v245h3l82 -175q7 -16 24 -16h35q17 0 26 17l80 173h3v-244q0 -20 22 -20h63q22 0 22 20v450q0 20 -21 20h-53q-26 0 -33 -19l-80 -169q-31 -67 -43 -102h-3z" />
    <glyph glyph-name="uni043D" unicode="&#x43d;" horiz-adv-x="465" 
d="M427 468q0 22 -22 22h-65q-24 0 -24 -22v-166h-168v166q0 22 -21 22h-67q-22 0 -22 -22v-447q0 -21 22 -21h67q21 0 21 21v192h168v-192q0 -21 24 -21h65q22 0 22 21v447z" />
    <glyph glyph-name="uni043E" unicode="&#x43e;" horiz-adv-x="457" 
d="M424 253q0 83 -19 136q-13 36 -33 58q-48 53 -147 53q-194 0 -194 -247q0 -87 16 -142q13 -39 31 -62q48 -57 147 -57q152 6 182 119q17 55 17 142zM226 404q50 0 68 -35.5t18 -122.5q0 -86 -18.5 -122t-68.5 -36q-47 0 -64.5 36t-17.5 122q0 84 18 121t65 37z" />
    <glyph glyph-name="uni043F" unicode="&#x43f;" horiz-adv-x="467" 
d="M432 470q0 12 -4 16t-17 4h-352q-21 0 -21 -19v-452q0 -19 21 -19h69q20 0 20 19v378h173v-378q0 -19 20 -19h70q21 0 21 19v451z" />
    <glyph glyph-name="uni0440" unicode="&#x440;" horiz-adv-x="456" 
d="M153 7q51 -17 99 -17q99 0 139 61.5t40 196.5q0 128 -34 189t-116 61q-30 0 -66 -14.5t-62 -35.5l-3 2v21q0 19 -20 19h-70q-20 0 -20 -19v-636q0 -12 4 -16t16 -4h70q20 0 20 20v170zM319 249q0 -90 -18 -126t-62 -36q-42 0 -89 14v258q19 13 50 23q33 12 55 12
q33 0 48 -29q16 -28 16 -116z" />
    <glyph glyph-name="uni0441" unicode="&#x441;" horiz-adv-x="391" 
d="M221 -8q99 0 147 27q15 10 12 28l-7 37q-4 18 -28 14q-59 -9 -114 -9q-48 0 -67 35t-19 125q0 82 19.5 117t67.5 35q28 0 114 -9q20 -2 24 15l7 41q3 18 -11 24q-60 28 -145 28q-133 0 -170 -112q-20 -56 -20 -142q0 -93 19 -149q11 -32 32 -56q47 -49 139 -49z" />
    <glyph glyph-name="uni0442" unicode="&#x442;" horiz-adv-x="389" 
d="M384 468q0 22 -21 22h-336q-22 0 -22 -22v-50q0 -21 23 -21h112v-377q0 -20 24 -20h64q23 0 23 20v377h111q22 0 22 21v50z" />
    <glyph glyph-name="uni0443" unicode="&#x443;" horiz-adv-x="433" 
d="M222 148q-4 25 -31 125l-58 200q-5 17 -23 17h-75q-22 0 -14 -20l152 -464l-56 -171q-6 -20 15 -20h65q14 0 19 4t9 14l203 637q8 20 -13 20h-73q-18 0 -24 -16l-53 -188l-38 -138h-5z" />
    <glyph glyph-name="uni0444" unicode="&#x444;" horiz-adv-x="591" 
d="M31 242q0 -112 52 -178t158 -73v-148q0 -20 21 -20h68q19 0 19 19v149q106 9 158 76.5t52 178.5q0 240 -210 253v144q0 11 -4.5 15.5t-17.5 4.5h-65q-21 0 -21 -20v-144q-122 -8 -169 -92q-41 -72 -41 -165zM137 239q0 157 105 166v-322q-105 11 -105 156zM452 240
q0 -143 -104 -157v322q104 -9 104 -165z" />
    <glyph glyph-name="uni0445" unicode="&#x445;" horiz-adv-x="416" 
d="M287 15q7 -15 28 -15h84q10 0 14 6t-1 14l-138 231l131 219q8 20 -13 20h-85q-17 0 -24 -15l-74 -147l-72 143q-6 13 -10.5 16t-16.5 3h-81q-10 0 -13.5 -6t1.5 -14l126 -220l-135 -230q-6 -8 -1.5 -14t13.5 -6h83q21 0 28 15l77 154z" />
    <glyph glyph-name="uni0446" unicode="&#x446;" horiz-adv-x="477" 
d="M416 469q0 21 -22 21h-65q-23 0 -23 -21v-376h-157v376q0 21 -21 21h-68q-22 0 -22 -21v-447q0 -22 22 -22h297l3 -107q1 -13 5 -17.5t15 -4.5h55q10 0 14 4.5t5 19.5l10 173q2 23 -17 24l-30 3z" />
    <glyph glyph-name="uni0447" unicode="&#x447;" horiz-adv-x="438" 
d="M18 332q0 -72 22 -120q26 -56 118 -56q61 0 129 41v-179q0 -18 23 -18h67q21 0 21 18v452q0 20 -21 20h-67q-23 0 -23 -20v-180q-19 -12 -51 -24t-53 -12q-31 0 -42 20.5t-11 82.5v113q0 20 -22 20h-67q-23 0 -23 -20v-138z" />
    <glyph glyph-name="uni0448" unicode="&#x448;" horiz-adv-x="636" 
d="M596 468q0 13 -4.5 17.5t-15.5 4.5h-67q-24 0 -24 -22v-374h-111v374q0 22 -23 22h-65q-23 0 -23 -22v-374h-114v374q0 22 -22 22h-67q-22 0 -22 -22v-446q0 -22 22 -22h516q20 0 20 22v446z" />
    <glyph glyph-name="uni0449" unicode="&#x449;" horiz-adv-x="658" 
d="M537 0l5 -109q1 -14 4.5 -18.5t15.5 -4.5h54q10 0 13.5 5t4.5 20l9 172v4q-4 20 -16 22l-33 3v374q0 13 -4.5 17.5t-15.5 4.5h-67q-23 0 -23 -22v-375h-111v375q0 22 -22 22h-66q-22 0 -22 -22v-375h-114v375q0 22 -22 22h-67q-22 0 -22 -22v-446q0 -22 22 -22h477z" />
    <glyph glyph-name="uni044A" unicode="&#x44a;" horiz-adv-x="521" 
d="M136 20q0 -20 24 -20h163q81 0 130 40.5t49 112.5q0 157 -177 157h-80v159q0 21 -22 21h-201q-22 0 -22 -20v-53q0 -12 5 -16t17 -4h114v-377zM396 155q0 -30 -19 -46t-53 -16h-78v126h83q67 0 67 -64z" />
    <glyph glyph-name="uni044B" unicode="&#x44b;" horiz-adv-x="602" 
d="M564 468q0 22 -25 22h-60q-25 0 -25 -22v-447q0 -21 25 -21h60q25 0 25 21v447zM237 219q62 0 62 -63t-66 -63h-85v126h89zM405 153q0 68 -37 112q-38 45 -125 45h-95v159q0 21 -23 21h-62q-25 0 -25 -21v-449q0 -11 5 -15.5t20 -4.5h173q75 0 122 41t47 112z" />
    <glyph glyph-name="uni044C" unicode="&#x44c;" horiz-adv-x="424" 
d="M237 219q62 0 62 -63t-66 -63h-85v126h89zM405 153q0 68 -37 112q-38 45 -125 45h-95v159q0 21 -23 21h-62q-25 0 -25 -21v-449q0 -11 5 -15.5t20 -4.5h173q75 0 122 41t47 112z" />
    <glyph glyph-name="uni044D" unicode="&#x44d;" horiz-adv-x="398" 
d="M21 49q-3 -23 18 -33q49 -23 137 -23q115 0 157 76q35 66 35 183q0 87 -17 140q-10 35 -30 58q-44 51 -137 51q-78 0 -135 -25q-21 -9 -17 -28l6 -34q1 -12 8 -14.5t25 -0.5q61 9 94 9q43 0 63 -26t23 -86h-146q-14 0 -18.5 -4t-4.5 -17v-39q0 -13 4.5 -17.5t18.5 -4.5
h147q-3 -68 -22.5 -97t-61.5 -29q-31 0 -112 9q-1 0 -8 0.5t-8.5 0t-5.5 -2t-5.5 -5t-2.5 -9.5z" />
    <glyph glyph-name="uni044E" unicode="&#x44e;" horiz-adv-x="623" 
d="M591 252q0 82 -18 135q-10 35 -31 59q-44 54 -141 54q-111 0 -157 -93q-21 -46 -26 -105h-70v166q0 22 -24 22h-61q-25 0 -25 -22v-446q0 -22 25 -22h61q24 0 24 22v192h69q2 -112 54 -173q44 -49 130 -49q148 7 175 123q12 46 13 68q2 38 2 69zM401 401q47 0 63.5 -35
t16.5 -120t-16.5 -120t-63.5 -35q-45 0 -60 33.5t-15 121.5q0 84 15.5 119.5t59.5 35.5z" />
    <glyph glyph-name="uni044F" unicode="&#x44f;" horiz-adv-x="446" 
d="M115 215q-40 -22 -58 -87l-31 -106q-6 -22 18 -22h63q15 0 21.5 4.5t10.5 17.5l27 96q12 41 26.5 56.5t38.5 15.5h71v-170q0 -20 24 -20h62q25 0 25 20v451q0 20 -25 20h-173q-79 0 -125.5 -40.5t-46.5 -113.5q0 -95 72 -119v-3zM152 337q0 29 19.5 46t50.5 17h80v-124
h-79q-71 0 -71 61z" />
    <glyph glyph-name="uni0450" unicode="&#x450;" horiz-adv-x="439" 
d="M224 410q43 0 60 -29t19 -90h-158q2 63 20.5 91t58.5 28zM229 -9q90 0 147 28q20 11 15 30l-6 35q-3 18 -30 14q-67 -9 -112 -9q-51 0 -73.5 28t-24.5 98h222q27 0 38.5 14.5t11.5 46.5q0 88 -35 151q-39 73 -157 73q-194 0 -194 -257q0 -110 34 -174q41 -78 164 -78z
M198 739q-7 13 -23 2l-49 -33q-18 -13 -8 -26l102 -134q9 -12 21 -4l35 24q10 7 3 20z" />
    <glyph glyph-name="uni0451" unicode="&#x451;" horiz-adv-x="439" 
d="M224 410q43 0 60 -29t19 -90h-158q2 63 20.5 91t58.5 28zM229 -9q90 0 147 28q20 11 15 30l-6 35q-3 18 -30 14q-67 -9 -112 -9q-51 0 -73.5 28t-24.5 98h222q27 0 38.5 14.5t11.5 46.5q0 88 -35 151q-39 73 -157 73q-194 0 -194 -257q0 -110 34 -174q41 -78 164 -78z
M139 566q31 0 42.5 14t11.5 43q0 27 -12 40t-42 13q-55 0 -55 -53q0 -30 12 -43.5t43 -13.5zM311 566q31 0 43 14t12 43q0 28 -12 40.5t-43 12.5q-54 0 -54 -53q0 -30 11.5 -43.5t42.5 -13.5z" />
    <glyph glyph-name="uni0452" unicode="&#x452;" horiz-adv-x="510" 
d="M33 609q-11 0 -15 -3.5t-4 -14.5v-34q0 -11 4 -14.5t15 -3.5h35v-520q0 -11 5 -15t18 -4h67q9 0 13.5 2.5t5.5 6t1 10.5v314q58 34 102 34q40 0 63.5 -34t23.5 -101q0 -187 -117 -262q-13 -9 -13 -18q0 -4 3 -10l16 -35q7 -16 19 -16q9 0 22 7q90 50 135 138
q46 88 46 188q0 117 -45 180t-129 63q-58 0 -125 -36v108h156q11 0 14.5 4t3.5 13v35q0 10 -3.5 14t-14.5 4h-156v75q0 20 -21 20h-68q-22 0 -22 -20v-75h-35z" />
    <glyph glyph-name="uni0453" unicode="&#x453;" horiz-adv-x="382" 
d="M376 469q0 21 -21 21h-293q-24 0 -24 -21v-449q0 -20 24 -20h66q21 0 21 20v377h206q21 0 21 21v51zM294 689q10 13 -4 22l-57 32q-16 9 -23 -4l-73 -154q-8 -15 4 -20l33 -18q15 -7 25 3q25 35 47 68z" />
    <glyph glyph-name="uni0454" unicode="&#x454;" horiz-adv-x="400" 
d="M221 -8q100 0 147 26q15 9 12 28l-7 35q-3 18 -27 15q-58 -9 -115 -9q-44 0 -63 28t-22 100h151q15 0 19 4.5t4 17.5v36q0 13 -4 17.5t-19 4.5h-151q5 60 24.5 85t61.5 25q28 0 114 -9q20 -2 24 16l7 36q3 18 -11 24q-60 28 -145 28q-133 0 -170 -112q-20 -56 -20 -142
q0 -93 19 -149q11 -32 32 -56q47 -49 139 -49z" />
    <glyph glyph-name="uni0455" unicode="&#x455;" horiz-adv-x="400" 
d="M375 148q0 83 -52 114q-42 26 -111 38q-41 7 -54.5 17t-13.5 35q0 30 13.5 42.5t47.5 11.5q33 0 118 -9q16 -2 22.5 0.5t8.5 13.5l7 37q3 19 -22 29q-54 23 -135 23q-80 0 -126 -39.5t-46 -111.5q0 -77 52 -108q44 -24 115 -37q37 -6 49.5 -18.5t12.5 -44.5
q0 -29 -16.5 -42.5t-53.5 -13.5q-47 0 -123 12q-16 2 -22 -1t-8 -15l-7 -33q-4 -23 22 -33q51 -23 139 -23q79 0 131 37t52 119z" />
    <glyph glyph-name="uni0456" unicode="&#x456;" horiz-adv-x="216" 
d="M167 620q0 29 -13 43t-47 14q-58 0 -58 -57q0 -29 12.5 -44t45.5 -15t46.5 15t13.5 44zM162 471q0 19 -21 19h-66q-23 0 -23 -19v-452q0 -19 23 -19h66q21 0 21 19v452z" />
    <glyph glyph-name="uni0457" unicode="&#x457;" horiz-adv-x="243" 
d="M39 559q31 0 42.5 14t11.5 43q0 27 -12 40t-42 13q-55 0 -55 -53q0 -30 12 -43.5t43 -13.5zM211 559q31 0 43 14t12 43q0 28 -12 40.5t-43 12.5q-54 0 -54 -53q0 -30 11.5 -43.5t42.5 -13.5zM177 471q0 19 -18 19h-73q-20 0 -20 -19v-452q0 -19 20 -19h73q18 0 18 19v452
z" />
    <glyph glyph-name="uni0458" unicode="&#x458;" horiz-adv-x="230" 
d="M176 471q0 19 -23 19h-65q-23 0 -23 -19v-484q0 -57 -19 -73q-21 -18 -83 -31q-20 -6 -19 -24l3 -47q1 -19 25 -19q110 -4 157 44t47 154v480zM179 620q0 29 -13 43t-46 14q-58 0 -58 -57q0 -30 12.5 -44.5t45.5 -14.5q59 0 59 59z" />
    <glyph glyph-name="uni0459" unicode="&#x459;" horiz-adv-x="690" 
d="M303 20q0 -11 5.5 -15.5t20.5 -4.5h166q79 0 127.5 40.5t48.5 112.5q0 157 -174 157h-84v159q0 21 -21 21h-210q-34 0 -50 -13t-19 -45l-21 -232q-4 -61 -18 -88q-14 -26 -55 -39q-12 -4 -15 -7.5t-3 -12.5l2 -45q0 -19 25 -19q96 2 127 53q29 45 36 125l18 230h94v-377z
M565 156q0 -63 -72 -63h-80v126h85q37 0 52 -15.5t15 -47.5z" />
    <glyph glyph-name="uni045A" unicode="&#x45a;" horiz-adv-x="658" 
d="M641 153q0 156 -177 156h-80v160q0 21 -22 21h-64q-24 0 -24 -21v-164h-125v163q0 22 -21 22h-67q-22 0 -22 -22v-447q0 -21 22 -21h67q21 0 21 21v196h125v-196q0 -21 24 -21h163q82 0 131 40.5t49 112.5zM535 155q0 -62 -76 -62h-75v126h83q68 0 68 -64z" />
    <glyph glyph-name="uni045B" unicode="&#x45b;" horiz-adv-x="464" 
d="M148 543h156q11 0 14 3.5t3 13.5v34q0 10 -3 14t-14 4h-156v74q0 19 -21 19h-69q-21 0 -21 -19v-74h-25q-11 0 -14.5 -3.5t-3.5 -14.5v-33q0 -11 3.5 -14.5t14.5 -3.5h25v-524q0 -19 21 -19h68q22 0 22 19v328q64 37 108 37q31 0 44 -19t13 -71l-1 -275q0 -19 21 -19h69
q22 0 22 19v277q0 86 -22 131q-25 58 -119 58q-60 0 -131 -44l-4 2v100z" />
    <glyph glyph-name="uni045C" unicode="&#x45c;" horiz-adv-x="421" 
d="M289 255q36 10 58 68q10 24 20 53q5 14 19 66q9 30 9 35q0 12 -17 12h-62q-24 0 -28 -16l-35 -103q-26 -73 -77 -73h-29v175q0 18 -16 18h-76q-18 0 -18 -18v-455q0 -17 18 -17h76q16 0 16 17v186h32q32 0 50 -17t33 -66l24 -81q6 -25 12 -32t22 -7h69q18 0 18 12
q0 1 -2 9l-38 131q-15 47 -31.5 69t-46.5 31v3zM316 689q10 13 -4 22l-57 32q-16 9 -23 -4l-73 -154q-8 -15 4 -20l33 -18q15 -7 25 3q25 35 47 68z" />
    <glyph glyph-name="uni045D" unicode="&#x45d;" horiz-adv-x="470" 
d="M321 21q0 -21 23 -21h65q22 0 22 21v448q0 21 -21 21h-54q-22 0 -35 -18l-94 -149q-39 -61 -74 -123l-5 1v267q0 22 -22 22h-68q-20 0 -20 -22v-447q0 -21 20 -21h45q26 0 36 19l126 199q38 58 52 84h4v-281zM205 739q-7 13 -23 2l-49 -33q-18 -13 -8 -26l102 -134
q9 -12 21 -4l35 24q10 7 3 20z" />
    <glyph glyph-name="uni045E" unicode="&#x45e;" horiz-adv-x="433" 
d="M222 148q-4 25 -31 125l-58 200q-5 17 -23 17h-75q-22 0 -14 -20l152 -464l-56 -171q-6 -20 15 -20h65q14 0 19 4t9 14l203 637q8 20 -13 20h-73q-18 0 -24 -16l-53 -188l-38 -138h-5zM234 555q95 0 150 109q10 22 -1 28l-26 19q-19 11 -30 -5q-32 -41 -49.5 -54.5
t-41.5 -13.5q-34 0 -63 29q-8 8 -35 40q-16 18 -29 6l-25 -23q-10 -10 0 -33q21 -47 62.5 -74.5t87.5 -27.5z" />
    <glyph glyph-name="uni045F" unicode="&#x45f;" horiz-adv-x="464" 
d="M405 0q22 0 22 22v447q0 21 -22 21h-66q-23 0 -23 -21v-374h-167v374q0 21 -22 21h-67q-22 0 -22 -21v-447q0 -22 22 -22h121l6 -121q0 -13 4 -17.5t16 -4.5h57q10 0 13.5 4.5t4.5 19.5l7 119h116z" />
    <glyph glyph-name="uni0490" unicode="&#x490;" horiz-adv-x="435" 
d="M428 771q0 21 -14 21h-55q-16 0 -18 -20l-14 -109h-252q-20 0 -20 -18v-626q0 -19 20 -19h77q18 0 18 19v545h240q18 0 18 21v186z" />
    <glyph glyph-name="uni0491" unicode="&#x491;" horiz-adv-x="381" 
d="M375 591q0 16 -13 16h-52q-14 0 -15 -16l-16 -101h-209q-24 0 -24 -21v-448q0 -21 24 -21h66q21 0 21 21v377h201q17 0 17 23v170z" />
    <glyph glyph-name="uni04D9" unicode="&#x4d9;" horiz-adv-x="439" 
d="M227 81q-43 0 -60.5 29t-19.5 90h158q-2 -63 -20 -91t-58 -28zM221 500q-87 0 -147 -28q-18 -9 -15 -30l7 -35q3 -20 29 -15q70 10 113 10q51 0 73.5 -28t24.5 -98h-222q-51 0 -50 -61q0 -88 34 -152q43 -72 158 -72q193 0 193 257q0 89 -20 145q-12 35 -33 57
q-48 50 -145 50z" />
    <glyph glyph-name="Wgrave" unicode="&#x1e80;" horiz-adv-x="739" 
d="M377 325q9 -46 38 -169l34 -135q5 -21 29 -21h71q24 0 30 21l149 621q6 22 -12 22h-77q-23 0 -28 -20l-58 -265q-33 -157 -41 -213h-4q-23 121 -43 204l-65 274q-5 20 -28 20h-76q-19 0 -11 -20l35 -134l-37 -164q-27 -112 -36 -168h-3q-22 111 -41 189l-68 277
q-5 20 -27 20h-80q-18 0 -13 -21l159 -622q4 -21 28 -21h71q25 0 29 21l35 140q28 117 36 164h4zM394 713q13 -6 23 10l21 31q6 10 -6 20l-138 100q-12 9 -22 -7l-35 -55q-9 -15 7 -22z" />
    <glyph glyph-name="wgrave" unicode="&#x1e81;" horiz-adv-x="627" 
 />
    <glyph glyph-name="Wacute" unicode="&#x1e82;" horiz-adv-x="739" 
d="M377 325q9 -46 38 -169l34 -135q5 -21 29 -21h71q24 0 30 21l149 621q6 22 -12 22h-77q-23 0 -28 -20l-58 -265q-33 -157 -41 -213h-4q-23 121 -43 204l-65 274q-5 20 -28 20h-76q-19 0 -11 -20l35 -134l-37 -164q-27 -112 -36 -168h-3q-22 111 -41 189l-68 277
q-5 20 -27 20h-80q-18 0 -13 -21l159 -622q4 -21 28 -21h71q25 0 29 21l35 140q28 117 36 164h4zM503 790q16 7 7 22l-35 55q-10 16 -22 7l-138 -100q-12 -10 -6 -20l21 -31q10 -16 23 -10z" />
    <glyph glyph-name="wacute" unicode="&#x1e83;" horiz-adv-x="627" 
 />
    <glyph glyph-name="Wdieresis" unicode="&#x1e84;" horiz-adv-x="739" 
d="M377 325q9 -46 38 -169l34 -135q5 -21 29 -21h71q24 0 30 21l149 621q6 22 -12 22h-77q-23 0 -28 -20l-58 -265q-33 -157 -41 -213h-4q-23 121 -43 204l-65 274q-5 20 -28 20h-76q-19 0 -11 -20l35 -134l-37 -164q-27 -112 -36 -168h-3q-22 111 -41 189l-68 277
q-5 20 -27 20h-80q-18 0 -13 -21l159 -622q4 -21 28 -21h71q25 0 29 21l35 140q28 117 36 164h4zM291 731q31 0 42.5 14t11.5 43q0 28 -11.5 40.5t-42.5 12.5q-54 0 -54 -53q0 -30 11.5 -43.5t42.5 -13.5zM460 731q31 0 42.5 14t11.5 43q0 28 -11.5 40.5t-42.5 12.5
q-53 0 -53 -53q0 -30 11 -43.5t42 -13.5z" />
    <glyph glyph-name="wdieresis" unicode="&#x1e85;" horiz-adv-x="627" 
 />
    <glyph glyph-name="Ygrave" unicode="&#x1ef2;" horiz-adv-x="495" 
d="M247 376q-4 10 -20.5 54t-24.5 62l-55 131q-11 27 -17.5 33t-24.5 6h-81q-7 0 -11 -5.5t0 -12.5l179 -373v-253q0 -18 22 -18h72q20 0 20 18v253l183 373q7 18 -13 18h-78q-14 0 -20 -3.5t-11 -15.5l-66 -147q-36 -81 -48 -120h-6zM271 711q13 -6 23 10l21 31q6 10 -6 20
l-138 100q-12 9 -22 -7l-35 -55q-9 -15 7 -22z" />
    <glyph glyph-name="ygrave" unicode="&#x1ef3;" horiz-adv-x="433" 
d="M222 148q-4 25 -31 125l-58 200q-5 17 -23 17h-75q-22 0 -14 -20l152 -464l-56 -171q-6 -20 15 -20h65q14 0 19 4t9 14l203 637q8 20 -13 20h-73q-18 0 -24 -16l-53 -188l-38 -138h-5zM190 739q-7 13 -23 2l-49 -33q-18 -13 -8 -26l102 -134q9 -12 21 -4l35 24q10 7 3 20
z" />
    <glyph glyph-name="figuredash" unicode="&#x2012;" 
d="M481 275q0 17 -20 17h-415q-20 0 -20 -17v-44q0 -17 19 -17h417q19 0 19 17v44z" />
    <glyph glyph-name="endash" unicode="&#x2013;" horiz-adv-x="462" 
d="M444 275q0 17 -19 17h-381q-20 0 -20 -17v-44q0 -17 19 -17h382q19 0 19 17v44z" />
    <glyph glyph-name="emdash" unicode="&#x2014;" horiz-adv-x="724" 
d="M706 275q0 17 -19 17h-641q-20 0 -20 -17v-44q0 -17 19 -17h642q19 0 19 17v44z" />
    <glyph glyph-name="uni2015" unicode="&#x2015;" horiz-adv-x="724" 
d="M706 275q0 17 -19 17h-641q-20 0 -20 -17v-44q0 -17 19 -17h642q19 0 19 17v44z" />
    <glyph glyph-name="quoteleft" unicode="&#x2018;" horiz-adv-x="213" 
d="M41 522q0 -21 9 -45.5t24 -39.5q16 -16 37 1l47 41q14 13 4 30q-47 67 5 137q16 16 5 27l-18 19q-12 13 -28 1q-37 -25 -61 -71t-24 -100z" />
    <glyph glyph-name="quoteright" unicode="&#x2019;" horiz-adv-x="213" 
d="M184 609q0 21 -9.5 45.5t-23.5 38.5q-17 17 -37 0l-47 -41q-14 -12 -4 -31q22 -28 22 -65q0 -42 -27 -71q-15 -18 -5 -28l18 -19q12 -12 28 0q38 25 61.5 70.5t23.5 100.5z" />
    <glyph glyph-name="quotesinglbase" unicode="&#x201a;" horiz-adv-x="187" 
d="M163 23q0 51 -33 84q-18 18 -41 -1l-41 -38q-15 -13 -5 -32q22 -34 22 -65q0 -37 -27 -70q-13 -17 -5 -28l19 -21q9 -12 28 1q35 25 59 71.5t24 98.5z" />
    <glyph glyph-name="quotereversed" unicode="&#x201b;" horiz-adv-x="213" 
d="M171 608q14 13 1 31l-37 51q-17 24 -43 1q-20 -15 -32.5 -50.5t-12.5 -65.5q0 -78 55 -142q14 -14 28 -3l22 20q10 6 1 24q-17 37 -17 55q0 46 35 79z" />
    <glyph glyph-name="quotedblleft" unicode="&#x201c;" horiz-adv-x="337" 
d="M34 522q0 -21 9 -45.5t24 -39.5q18 -16 38 1l46 41q14 13 4 30q-22 31 -22 66q0 39 27 71q15 17 5 27l-18 19q-12 13 -28 1q-37 -25 -61 -71t-24 -100zM174 522q0 -21 9 -45.5t24 -39.5q16 -16 37 1l46 41q16 14 4 30q-22 34 -22 66q0 39 28 71q15 17 5 27l-18 19
q-12 13 -28 1q-37 -25 -61 -71t-24 -100z" />
    <glyph glyph-name="quotedblright" unicode="&#x201d;" horiz-adv-x="338" 
d="M320 610q0 21 -9 45.5t-23 38.5q-18 18 -38 -1l-46 -40q-15 -14 -4 -31q22 -28 22 -65t-27 -71q-15 -18 -6 -28l19 -19q10 -12 27 -1q38 26 61.5 72t23.5 100zM181 610q0 21 -9.5 45.5t-23.5 38.5q-18 18 -38 -1l-46 -40q-14 -14 -4 -31q22 -28 22 -65q0 -39 -27 -71
q-15 -18 -5 -28l18 -19q12 -12 27 -1q38 25 62 71t24 101z" />
    <glyph glyph-name="quotedblbase" unicode="&#x201e;" horiz-adv-x="322" 
d="M163 23q0 51 -33 84q-18 18 -41 -1l-41 -38q-15 -13 -5 -32q22 -34 22 -65q0 -37 -27 -70q-13 -17 -5 -28l19 -21q9 -12 28 1q35 25 59 71.5t24 98.5zM305 23q0 51 -33 84q-20 18 -41 -1l-42 -38q-15 -13 -4 -32q21 -34 21 -65q0 -38 -26 -70q-14 -18 -5 -28l18 -21
q11 -13 28 1q36 25 60 71.5t24 98.5z" />
    <glyph glyph-name="uni201F" unicode="&#x201f;" horiz-adv-x="337" 
d="M167 608q14 13 1 31l-37 51q-17 24 -43 1q-20 -15 -32.5 -50.5t-12.5 -65.5q0 -78 55 -142q14 -14 28 -3l22 20q10 6 1 24q-17 37 -17 55q0 46 35 79zM303 608q14 13 1 31l-37 51q-17 24 -43 1q-20 -15 -32.5 -50.5t-12.5 -65.5q0 -78 55 -142q14 -14 28 -3l22 20
q10 6 1 24q-17 37 -17 55q0 46 35 79z" />
    <glyph glyph-name="dagger" unicode="&#x2020;" horiz-adv-x="436" 
d="M422 480q0 18 -21 18h-130v174q0 19 -21 19h-62q-22 0 -22 -19v-174h-130q-21 0 -21 -18v-55q0 -19 22 -19h129v-434q0 -19 22 -19h62q21 0 21 19v434h129q22 0 22 19v55z" />
    <glyph glyph-name="daggerdbl" unicode="&#x2021;" horiz-adv-x="436" 
d="M15 165q0 -19 21 -19h129v-175q2 -17 22 -17h62q20 0 20 17v175h130q21 0 21 19v55q0 19 -22 19h-129v166h129q22 0 22 20v55q0 18 -21 18h-130v174q0 20 -21 20h-62q-21 0 -21 -20v-174h-129q-21 0 -21 -18v-55q0 -20 22 -20h128v-166h-128q-22 0 -22 -19v-55z" />
    <glyph glyph-name="bullet" unicode="&#x2022;" horiz-adv-x="302" 
d="M152 164q42 0 72 30t30 73t-30 74t-72 31q-43 0 -73 -31t-30 -74t30 -73t73 -30z" />
    <glyph glyph-name="uni2023" unicode="&#x2023;" horiz-adv-x="458" 
d="M64 51l368 227l-368 217v-444z" />
    <glyph glyph-name="ellipsis" unicode="&#x2026;" horiz-adv-x="594" 
d="M147 52q0 31 -13 45.5t-46 14.5q-59 0 -59 -60q0 -30 13 -45.5t46 -15.5q59 0 59 61zM357 52q0 31 -12.5 45.5t-44.5 14.5q-33 0 -46.5 -15t-13.5 -45q0 -32 12.5 -46.5t47.5 -14.5q57 0 57 61zM567 52q0 31 -13 45.5t-46 14.5q-60 0 -60 -60q0 -30 13 -45.5t47 -15.5
q59 0 59 61z" />
    <glyph glyph-name="perthousand" unicode="&#x2030;" horiz-adv-x="1144" 
d="M614 -7q157 0 157 226q0 69 -15 115q-9 31 -25 50q-37 47 -117 47q-115 -5 -141 -112q-12 -47 -12 -100q0 -73 12 -118q9 -33 24 -56q37 -52 117 -52zM614 351q38 0 52 -31.5t14 -107.5q0 -72 -14.5 -105t-51.5 -33q-38 0 -51 40q-10 35 -10 98q0 71 13.5 105t47.5 34z
M970 -7q157 0 157 226q0 69 -15 115q-9 31 -25 50q-37 47 -117 47q-115 -5 -141 -112q-12 -47 -12 -100q0 -73 12 -118q9 -33 24 -56q37 -52 117 -52zM970 351q38 0 52 -31.5t14 -107.5q0 -72 -14.5 -105t-51.5 -33q-38 0 -51 40q-10 35 -10 98q0 71 13.5 105t47.5 34z
M170 234q157 0 157 225q0 69 -15 115q-9 31 -25 50q-37 47 -117 47q-111 0 -141 -112q-12 -47 -12 -100q0 -72 12 -117q9 -33 24 -56q37 -52 117 -52zM170 592q38 0 52 -31.5t14 -107.5q0 -72 -14.5 -105t-51.5 -33q-35 0 -48 33t-13 105q0 71 13.5 105t47.5 34zM556 684
q4 16 -12 16h-50q-13 0 -21 -17l-238 -690q-4 -16 13 -16h51q14 0 18 13z" />
    <glyph glyph-name="minute" unicode="&#x2032;" horiz-adv-x="197" 
d="M176 632q8 15 -12 21l-52 17q-26 9 -31 -11l-56 -237q-3 -17 10 -21l41 -12q16 -4 23 9z" />
    <glyph glyph-name="second" unicode="&#x2033;" horiz-adv-x="331" 
d="M176 632q8 15 -12 21l-52 17q-26 9 -31 -11l-56 -237q-3 -17 10 -21l41 -12q16 -4 23 9zM310 632q5 17 -13 21l-51 17q-26 9 -31 -11l-56 -237q-4 -16 10 -21l40 -12q19 -4 23 8z" />
    <glyph glyph-name="uni2034" unicode="&#x2034;" horiz-adv-x="458" 
d="M176 632q8 15 -12 21l-52 17q-26 9 -31 -11l-56 -237q-3 -17 10 -21l41 -12q16 -4 23 9zM308 632q5 17 -13 21l-51 17q-27 9 -32 -11l-55 -237q-4 -16 10 -21l40 -12q19 -4 23 8zM438 632q5 17 -13 21l-51 17q-26 9 -31 -11l-56 -237q-4 -16 10 -21l40 -12q19 -4 23 8z
" />
    <glyph glyph-name="guilsinglleft" unicode="&#x2039;" horiz-adv-x="260" 
d="M135 45q13 -15 33 -15h72q7 0 9 4.5t-2 9.5l-105 147l101 143q12 19 -8 19h-65q-24 0 -38 -20l-87 -125q-13 -16 0 -33z" />
    <glyph glyph-name="guilsinglright" unicode="&#x203a;" horiz-adv-x="260" 
d="M233 175q12 17 -1 33l-86 125q-9 12 -16 16t-22 4h-66q-8 0 -10.5 -5.5t3.5 -13.5l100 -143l-104 -147q-4 -5 -2 -9.5t8 -4.5h72q23 0 33 15z" />
    <glyph glyph-name="fraction" unicode="&#x2044;" horiz-adv-x="124" 
d="M231 684q4 16 -12 16h-50q-13 0 -21 -17l-238 -690q-4 -16 13 -16h51q14 0 18 13z" />
    <glyph glyph-name="uni2070" unicode="&#x2070;" horiz-adv-x="335" 
d="M167 324q157 0 157 225q0 69 -15 115q-9 31 -25 50q-37 47 -117 47q-111 0 -141 -112q-12 -47 -12 -100q0 -72 12 -117q9 -33 24 -56q37 -52 117 -52zM167 682q38 0 52 -31.5t14 -107.5q0 -72 -14.5 -105t-51.5 -33q-35 0 -48 33t-13 105q0 71 13.5 105t47.5 34z" />
    <glyph glyph-name="uni2074" unicode="&#x2074;" horiz-adv-x="337" 
d="M331 491q0 17 -17 17h-32v233q0 15 -20 15h-46q-17 0 -28 -14l-171 -232q-10 -16 -10 -32v-30q0 -16 21 -16h166v-86q0 -10 4 -13t15 -3h50q11 0 15 3.5t4 13.5v85h32q17 0 17 16v43zM99 507l95 129v-129h-95z" />
    <glyph glyph-name="uni2075" unicode="&#x2075;" horiz-adv-x="335" 
d="M221 481q0 -41 -17 -56.5t-52 -15.5q-37 0 -93 8q-15 3 -20.5 -0.5t-7.5 -15.5l-6 -25q-4 -19 18 -29q44 -18 110 -18q82 0 121 35.5t39 122.5q0 47 -24 75.5t-66 35.5l-95 16v4q1 4 2.5 12.5t2.5 17.5l4 34h141q16 0 16 16v46q0 16 -16 16h-191q-15 0 -21 -5t-8 -18
l-22 -157q-4 -30 20 -34l127 -24q38 -9 38 -41z" />
    <glyph glyph-name="uni2076" unicode="&#x2076;" horiz-adv-x="335" 
d="M322 458q0 135 -112 135q-41 0 -99 -5q7 93 71 93q39 0 87 -7q21 -4 26 14q0 2 3 14t3 13q4 19 -18 28q-41 18 -105 18q-104 0 -137 -79q-25 -61 -25 -153q0 -99 22 -146q29 -59 129 -59q71 0 113 33.5t42 100.5zM230 458q0 -58 -61 -58q-39 0 -52 24q-9 20 -9 89
q24 3 78 6q25 0 34.5 -14t9.5 -47z" />
    <glyph glyph-name="uni2077" unicode="&#x2077;" horiz-adv-x="320" 
d="M58 366q-7 -18 9 -25l46 -19q18 -8 26 11l156 343q10 19 10 38v25q0 18 -20 18h-259q-17 0 -17 -17v-45q0 -15 17 -15h174z" />
    <glyph glyph-name="uni2078" unicode="&#x2078;" horiz-adv-x="335" 
d="M11 450q0 -126 154 -126q71 0 113.5 35t42.5 95q0 69 -57 102q44 31 44 80q0 62 -37 93.5t-104 31.5q-69 0 -106.5 -32.5t-37.5 -94.5q0 -53 44 -79q-56 -39 -56 -105zM229 454q0 -23 -18.5 -37t-45.5 -14q-28 0 -45 14t-17 41q0 50 61 66q65 -20 65 -70zM216 635
q0 -35 -51 -46q-52 12 -52 46q0 49 53 49q23 0 36.5 -13t13.5 -36z" />
    <glyph glyph-name="uni2079" unicode="&#x2079;" horiz-adv-x="337" 
d="M17 628q0 -135 112 -135q37 0 99 5q-4 -48 -21 -70.5t-56 -22.5q-34 0 -84 7q-15 3 -20 1t-8 -14l-6 -26q-6 -21 16 -30q44 -18 109 -18q104 0 136 78q27 66 27 154q0 78 -12 121q-7 29 -24 46q-38 38 -115 38q-70 0 -111.5 -33.5t-41.5 -100.5zM109 628q0 56 60 56
q43 0 54 -35q7 -15 7 -77q-50 -6 -78 -6q-24 0 -33.5 14.5t-9.5 47.5z" />
    <glyph glyph-name="uni207A" unicode="&#x207a;" horiz-adv-x="317" 
d="M282 553q0 20 -19 20h-65v73q0 11 -4 15t-15 4h-42q-20 0 -20 -19v-73h-64q-12 0 -16.5 -4t-4.5 -16v-33q0 -11 4.5 -15t16.5 -4h64v-79q0 -19 20 -19h42q19 0 19 19v79h65q19 0 19 19v33z" />
    <glyph glyph-name="uni207B" unicode="&#x207b;" horiz-adv-x="252" 
d="M232 551q0 12 -4.5 16t-15.5 4h-173q-11 0 -15.5 -4t-4.5 -16v-32q0 -19 20 -19h173q20 0 20 19v32z" />
    <glyph glyph-name="uni207C" unicode="&#x207c;" horiz-adv-x="308" 
d="M284 595q0 11 -4 14.5t-14 3.5h-217q-12 0 -16 -3.5t-4 -14.5v-32q0 -12 4.5 -16t15.5 -4h217q10 0 14 4t4 16v32zM284 491q0 18 -18 18h-217q-20 0 -20 -18v-33q0 -12 4 -15.5t16 -3.5h217q10 0 14 3.5t4 15.5v33z" />
    <glyph glyph-name="uni207D" unicode="&#x207d;" horiz-adv-x="184" 
d="M112 529q0 117 48 212q9 14 -4 25l-27 20q-13 8 -18.5 6.5t-14.5 -14.5q-74 -116 -74 -249q0 -139 72 -258q15 -24 36 -9l24 16q13 10 6 25q-48 98 -48 226z" />
    <glyph glyph-name="uni207E" unicode="&#x207e;" horiz-adv-x="184" 
d="M80 529q0 -129 -49 -226q-7 -14 7 -25l24 -16q22 -15 35 9q73 116 73 258q0 128 -74 249q-10 14 -14.5 15t-18.5 -7l-27 -20q-13 -11 -4 -25q48 -97 48 -212z" />
    <glyph glyph-name="uni207F" unicode="&#x207f;" horiz-adv-x="318" 
d="M296 445q0 68 -22 98t-74 30q-46 0 -90 -34v13q0 9 -3.5 11.5t-14.5 2.5h-51q-18 0 -18 -15v-295q0 -10 3.5 -13t15.5 -3h49q12 0 16 3.5t4 12.5v213q12 8 33.5 16t33.5 8q19 0 25.5 -11t6.5 -41v-185q0 -10 4 -13t15 -3h48q11 0 15 3.5t4 12.5v189z" />
    <glyph glyph-name="uni2080" unicode="&#x2080;" horiz-adv-x="335" 
d="M167 -97q157 0 157 226q0 69 -15 115q-9 31 -25 50q-37 47 -117 47q-115 -5 -141 -112q-12 -47 -12 -100q0 -73 12 -118q9 -34 24 -55q37 -53 117 -53zM167 261q38 0 52 -31.5t14 -107.5q0 -72 -14.5 -105t-51.5 -33q-38 0 -51 40q-10 35 -10 98q0 71 13.5 105t47.5 34z
" />
    <glyph glyph-name="uni2081" unicode="&#x2081;" horiz-adv-x="305" 
d="M270 -29q0 16 -16 16h-55v332q0 6 -1 9t-5.5 5.5t-13.5 2.5h-43q-18 0 -38 -9l-45 -20q-15 -7 -15 -21v-26q0 -15 16 -15h53v-258h-50q-16 0 -16 -16v-45q0 -10 3.5 -13t12.5 -3h197q10 0 13 3.5t3 12.5v45z" />
    <glyph glyph-name="uni2082" unicode="&#x2082;" horiz-adv-x="335" 
d="M242 90q30 33 42.5 61.5t12.5 67.5q0 122 -144 122q-65 0 -112 -18q-21 -9 -17 -30l5 -29q1 -14 24 -12q67 7 99 7t43 -11t11 -36q0 -33 -32 -68l-143 -153q-13 -10 -13 -30v-35q0 -17 20 -17h249q18 0 18 17v45q0 17 -18 17h-137l-1 2z" />
    <glyph glyph-name="uni2083" unicode="&#x2083;" horiz-adv-x="335" 
d="M282 249q17 17 17 33v38q0 16 -22 16h-231q-17 0 -17 -17v-45q0 -16 17 -16h127l1 -4l-71 -70q-11 -11 -11 -24v-23q0 -13 5 -18.5t19 -7.5l63 -11q42 -8 42 -39q0 -44 -17.5 -60t-55.5 -16q-41 0 -95 10q-21 5 -26 -16l-5 -25q-5 -19 10 -26q19 -10 56 -16q35 -7 62 -7
q83 0 123 36.5t40 124.5q0 83 -77 104l-23 6l1 5z" />
    <glyph glyph-name="uni2084" unicode="&#x2084;" horiz-adv-x="337" 
d="M331 72q0 17 -17 17h-32v233q0 15 -20 15h-46q-17 0 -28 -14l-171 -232q-10 -16 -10 -32v-30q0 -16 21 -16h166v-86q0 -10 3.5 -12.5t15.5 -2.5h50q11 0 15 3t4 13v85h32q17 0 17 16v43zM99 88l95 130v-130h-95z" />
    <glyph glyph-name="uni2085" unicode="&#x2085;" horiz-adv-x="335" 
d="M221 61q0 -41 -17 -57t-52 -16q-37 0 -93 8q-15 3 -20.5 -0.5t-7.5 -15.5l-6 -24q-5 -21 18 -29q41 -19 110 -19q82 0 121 36t39 123q0 46 -24 74.5t-66 35.5l-95 17l5 34q4 29 4 34h141q16 0 16 16v45q0 16 -16 16h-191q-15 0 -21 -5t-8 -18l-22 -157q-4 -30 20 -34
l127 -24q38 -9 38 -40z" />
    <glyph glyph-name="uni2086" unicode="&#x2086;" horiz-adv-x="335" 
d="M322 37q0 136 -112 136q-36 0 -99 -6q7 94 71 94q25 0 87 -8q21 -3 26 14q0 1 3 13.5t3 14.5q5 18 -18 27q-41 19 -105 19q-104 0 -137 -79q-25 -64 -25 -154q0 -99 22 -146q29 -59 129 -59q71 0 113 33.5t42 100.5zM230 37q0 -58 -61 -58q-39 0 -52 25q-9 18 -9 88
q48 6 78 6q25 0 34.5 -14t9.5 -47z" />
    <glyph glyph-name="uni2087" unicode="&#x2087;" horiz-adv-x="320" 
d="M58 -55q-7 -18 9 -25l46 -19q18 -8 26 11l156 343q10 19 10 38v25q0 18 -20 18h-259q-17 0 -17 -17v-45q0 -15 17 -15h174z" />
    <glyph glyph-name="uni2088" unicode="&#x2088;" horiz-adv-x="335" 
d="M11 30q0 -127 154 -127q71 0 113.5 35t42.5 95q0 69 -57 102q44 31 44 80q0 62 -38 94t-103 32q-68 0 -106 -33t-38 -95q0 -53 44 -79q-56 -39 -56 -104zM229 33q0 -23 -18.5 -37t-45.5 -14q-28 0 -45 14t-17 41q0 50 61 66q65 -20 65 -70zM216 214q0 -36 -51 -46
q-52 12 -52 46q0 49 53 49q23 0 36.5 -13t13.5 -36z" />
    <glyph glyph-name="uni2089" unicode="&#x2089;" horiz-adv-x="337" 
d="M17 207q0 -135 112 -135q37 0 99 5q-4 -48 -21 -70.5t-56 -22.5q-34 0 -84 7q-15 3 -20 1t-8 -14l-6 -26q-5 -20 16 -30q47 -18 109 -18q105 0 136 79q27 63 27 153q0 78 -12 121q-7 29 -24 46q-38 38 -115 38q-70 0 -111.5 -33.5t-41.5 -100.5zM109 207q0 56 60 56
q43 0 54 -35q7 -15 7 -77q-50 -6 -78 -6q-24 0 -33.5 14.5t-9.5 47.5z" />
    <glyph glyph-name="uni208A" unicode="&#x208a;" horiz-adv-x="316" 
d="M282 124q0 19 -19 19h-65v73q0 11 -4 15.5t-15 4.5h-42q-20 0 -20 -20v-73h-64q-12 0 -16.5 -3.5t-4.5 -15.5v-34q0 -18 21 -18h64v-79q0 -19 20 -19h42q19 0 19 19v79h65q19 0 19 18v34z" />
    <glyph glyph-name="uni208B" unicode="&#x208b;" horiz-adv-x="249" 
d="M230 122q0 12 -4 16t-15 4h-173q-11 0 -15.5 -4t-4.5 -16v-32q0 -18 20 -18h173q19 0 19 18v32z" />
    <glyph glyph-name="uni208C" unicode="&#x208c;" horiz-adv-x="316" 
d="M284 175q0 11 -4 14.5t-14 3.5h-217q-12 0 -16 -3.5t-4 -14.5v-32q0 -12 4.5 -16t15.5 -4h217q10 0 14 4t4 16v32zM284 71q0 18 -18 18h-217q-20 0 -20 -18v-33q0 -12 4 -15.5t16 -3.5h217q10 0 14 3.5t4 15.5v33z" />
    <glyph glyph-name="uni208D" unicode="&#x208d;" horiz-adv-x="184" 
d="M112 100q0 118 48 212q9 14 -4 25l-27 20q-13 8 -18.5 6.5t-14.5 -14.5q-74 -116 -74 -249q0 -140 72 -258q15 -24 36 -9l24 16q13 10 6 25q-48 97 -48 226z" />
    <glyph glyph-name="uni208E" unicode="&#x208e;" horiz-adv-x="184" 
d="M80 100q0 -129 -49 -226q-7 -14 7 -25l24 -16q22 -15 35 9q73 116 73 258q0 128 -74 249q-10 14 -14.5 15t-18.5 -7l-27 -20q-13 -11 -4 -25q48 -97 48 -212z" />
    <glyph glyph-name="dong" unicode="&#x20ab;" horiz-adv-x="500" 
d="M431 537q14 0 14 14v35q0 9 -3 11.5t-12 2.5h-27v51q0 18 -22 18h-54q-23 0 -23 -18v-51h-119q-15 0 -15 -14v-35q0 -14 15 -14h119v-67q-43 13 -86 13q-86 0 -119.5 -48t-33.5 -157q0 -99 28.5 -143t99.5 -44q26 0 58 11.5t53 28.5v-18q0 -18 22 -18h55q22 0 22 18v424
h28zM166 280q0 68 14.5 94.5t49.5 26.5q37 0 73 -11v-188q-44 -25 -86 -25q-27 0 -39 18q-12 19 -12 85zM401 -25q17 0 17 13v47q0 15 -18 15h-302q-17 0 -17 -14v-48q0 -13 17 -13h303z" />
    <glyph glyph-name="Euro" unicode="&#x20ac;" 
d="M77 315h-32q-17 0 -18 -12l-7 -35q-3 -15 13 -15h47q7 -109 55 -183q54 -78 176 -78q113 0 166 25q19 9 19 32l-3 43q0 22 -27 18q-72 -13 -141 -13q-60 0 -90 39t-37 117h195q16 0 17 13l6 34q1 9 -2 12t-13 3h-206v45h212q15 0 18 13l7 34q2 8 -1.5 11t-14.5 3h-215
q9 72 37.5 108.5t86.5 36.5t134 -10q22 -3 25 15l8 39q4 22 -17 33q-64 27 -158 27q-115 0 -169 -68q-53 -68 -66 -181h-36q-16 0 -19 -13l-7 -35q-1 -8 2 -10.5t12 -2.5h43v-45z" />
    <glyph glyph-name="uni2103" unicode="&#x2103;" horiz-adv-x="782" 
d="M580 670q-165 0 -216 -150q-27 -78 -27 -193q0 -114 27 -191q16 -44 42 -76q61 -68 172 -68q102 0 168 29q23 11 19 33l-8 38q-6 18 -30 16q-83 -10 -141 -10q-71 0 -99 56.5t-28 173.5q0 103 21 165q26 71 106 71q54 0 141 -10q25 -4 29 15l8 41q3 21 -20 32
q-63 28 -164 28zM157 416q55 0 92 36t37 89q0 50 -38 88t-91 38q-54 0 -94 -38q-39 -37 -39 -88q0 -55 36.5 -90t96.5 -35zM96 539q0 27 17.5 44.5t41.5 17.5t41 -17.5t17 -44.5q0 -25 -16 -42.5t-42 -17.5t-42.5 17.5t-16.5 42.5z" />
    <glyph glyph-name="uni2105" unicode="&#x2105;" horiz-adv-x="684" 
d="M269 376q-3 16 -25 13q-50 -8 -79 -7.5t-41 23t-12 80.5q0 55 12.5 77t44.5 22q30 0 72 -6q15 -3 20.5 -0.5t7.5 13.5l5 29q3 18 -13 28q-36 18 -101 18q-86 0 -116 -58q-24 -47 -24 -124q0 -87 28 -136q29 -48 112 -48q64 0 98 18q20 9 17 29zM665 180q0 72 -26 120
q-30 58 -121 58q-144 0 -144 -178q0 -60 12 -99q7 -25 22 -45q37 -42 110 -42q112 4 134 87q13 40 13 99zM518 278q32 0 43 -22t11 -79q0 -56 -11.5 -79t-42.5 -23q-29 0 -40.5 23t-11.5 79q0 55 11.5 78t40.5 23zM502 692q4 16 -12 16h-50q-13 0 -21 -17l-238 -690
q-4 -16 13 -16h51q14 0 18 13z" />
    <glyph glyph-name="uni2109" unicode="&#x2109;" horiz-adv-x="730" 
d="M349 19q0 -19 23 -19h70q22 0 22 19v275h199q21 0 21 19v62q0 18 -20 18h-201v171h233q21 0 21 19v62q0 18 -21 18h-324q-23 0 -23 -18v-626zM154 410q54 0 92 36q37 36 37 89q0 50 -38 88t-91 38q-54 0 -94 -38q-39 -37 -39 -88q0 -55 36.5 -90t96.5 -35zM93 533
q0 27 17.5 44.5t41.5 17.5t41 -17.5t17 -44.5q0 -25 -16 -42.5t-42 -17.5t-42.5 17.5t-16.5 42.5z" />
    <glyph glyph-name="uni2113" unicode="&#x2113;" horiz-adv-x="442" 
d="M189 249q169 185 169 330q0 61 -33.5 96t-82.5 35q-67 0 -106 -58t-39 -170v-204q-23 -24 -69 -60q-12 -9 -6 -21l20 -39q8 -14 24 0l32 25q0 -191 144 -191q55 0 97 36t82 110q8 15 -8 25l-30 21q-18 14 -33 -9q-37 -57 -54 -74q-5 -4 -10 -9q-20 -17 -36 -17
q-32 0 -46 29t-15 88v57zM186 493q0 66 14.5 102.5t35.5 36.5q19 0 29 -16.5t10 -41.5q0 -90 -89 -218v137z" />
    <glyph glyph-name="uni2116" unicode="&#x2116;" horiz-adv-x="868" 
d="M814 267q0 18 -20 18h-222q-20 0 -20 -18v-40q0 -10 3.5 -14t15.5 -4h224q19 0 19 17v41zM378 20q11 -20 34 -20h54q21 0 21 18v626q0 19 -21 19h-68q-21 0 -21 -19v-405q-1 -1 -4 -1l-208 407q-10 18 -32 18h-57q-20 0 -20 -17v-627q0 -19 22 -19h67q20 0 20 19v407l4 1
zM822 510q0 68 -24 110q-29 54 -116 54q-137 0 -137 -164q0 -59 11 -94q7 -24 21 -41q35 -39 105 -39q94 0 119 60q21 48 21 114zM682 598q30 0 41.5 -21t11.5 -72t-11.5 -72t-41.5 -21q-29 0 -39.5 21t-10.5 72t10.5 72t39.5 21z" />
    <glyph glyph-name="uni2117" unicode="&#x2117;" horiz-adv-x="782" 
d="M558 405q0 59 -38 91.5t-100 32.5h-112q-19 0 -19 -15v-374q0 -16 19 -16h42q17 0 17 16v138h55q71 0 103 38q33 39 33 89zM478 404q0 -62 -60 -62h-51v121h45q66 0 66 -59zM740 335q0 144 -101 245q-100 100 -248 100q-143 0 -246 -101q-102 -101 -102 -244t102 -243
q101 -100 246 -100t246 100q103 100 103 243zM675 335q0 -117 -83 -200t-201 -83q-117 0 -200 83t-83 200q0 118 83 201t200 83q118 0 201 -83t83 -201z" />
    <glyph glyph-name="trademark" unicode="&#x2122;" horiz-adv-x="614" 
d="M513 663q-16 0 -20 -13l-72 -160h-1l-72 160q-7 13 -20 13h-45q-14 0 -14 -12v-286q0 -15 15 -15h45q14 0 14 15q0 43 -1 78v78h2l47 -109q5 -12 18 -12h21q9 0 17 14l48 110h3q0 -44 -1 -79v-80q0 -14 13 -14h48q12 0 12 14v286q0 12 -13 12h-44zM257 649q0 13 -16 13
h-205q-16 0 -16 -13v-36q0 -15 16 -15h66v-233q0 -14 17 -14h40q17 0 17 14v233h64q17 0 17 15v36z" />
    <glyph glyph-name="Omega" unicode="&#x2126;" horiz-adv-x="592" 
d="M164 344q0 227 133 227q134 0 134 -231q0 -180 -87 -224q-19 -10 -19 -28v-68q0 -20 22 -20h192q12 0 16 5t4 17v59q0 18 -20 18h-56l-1 3q68 79 68 246q0 105 -30 179q-16 43 -44 74q-61 70 -179 70q-167 0 -225 -153q-29 -76 -29 -172q0 -181 67 -244l-1 -3h-60
q-12 0 -16 -4t-4 -14v-61q0 -12 4 -16t16 -4h189q24 0 24 20v69q0 5 -1.5 9t-3.5 6t-6.5 6t-7.5 7q-81 43 -79 227z" />
    <glyph glyph-name="uni212B" unicode="&#x212b;" horiz-adv-x="516" 
d="M386 21q3 -12 8 -16.5t18 -4.5h85q18 0 12 20l-176 622q-6 21 -29 21h-84q-23 0 -29 -21l-176 -621q-6 -21 15 -21h75q22 0 28 21l36 144h181zM264 537q7 -43 25 -117l38 -162h-135l12 45l19 75l11 44q1 5 7.5 33t12 52t6.5 30h4zM333 714q30 30 30 72t-30 72t-74 30
t-76 -29q-31 -28 -31 -73t31 -73t76 -28q43 0 74 29zM259 833q18 0 30.5 -14.5t12.5 -32.5q2 -28 -20.5 -40.5t-45 -0.5t-19.5 41q0 18 12.5 32.5t29.5 14.5z" />
    <glyph glyph-name="estimated" unicode="&#x212e;" horiz-adv-x="711" 
d="M664 307q-4 152 -93 253q-87 100 -218 100q-129 0 -221 -98q-91 -97 -91 -235t92 -239q91 -99 220 -99q73 0 140.5 39t118.5 109h-74q-32 -48 -82 -76.5t-102 -28.5q-50 0 -98.5 30t-76.5 77h1v168h484zM180 347v162l-1 -1q39 49 86 79t89 30q46 0 96 -30q49 -28 75 -74
h-1v-166h-344z" />
    </font>
</defs>
</svg>
