<svg xmlns="http://www.w3.org/2000/svg"><defs><font id="OCSMMedium" horiz-adv-x="506"><font-face font-family="OCSM" font-weight="500" ascent="800" descent="-200" x-height="490" cap-height="663" bbox="-170.25 -289 1127 910.24" underline-thickness="50" underline-position="-200" unicode-range="U+0020-FB05"/><glyph glyph-name=".notdef" horiz-adv-x="457" d="M20 675h417V0H20v675zM68 48h320v579H68V48z"/><glyph glyph-name=".notdef" horiz-adv-x="457" d="M20 675h417V0H20v675zM68 48h320v579H68V48z"/><glyph glyph-name=".null" horiz-adv-x="0"/><glyph glyph-name="nonmarkingreturn" horiz-adv-x="333"/><glyph glyph-name="space" horiz-adv-x="242"/><glyph glyph-name="exclam" unicode="!" horiz-adv-x="222" d="M164 644q0 19-18 19H79q-11 0-15.5-4T60 644l11-448q0-17 18-17h46q17 0 17 17zm5-595q0 30-13 44t-46 14q-58 0-58-58 0-30 12.5-45T110-11q59 0 59 60z"/><glyph glyph-name="quotedbl" unicode="&quot;" horiz-adv-x="285" d="M242 649q0 14-13 14h-61q-16 0-14-14l10-187q0-11 11-11h44q11 0 13 11zm-111 0q0 14-13 14H57q-14 0-14-14l10-187q0-11 11-11h44q13 0 13 11z"/><glyph glyph-name="numbersign" unicode="#" d="M221 17q-3-17 15-17h53q9 0 14 15l50 208h107q15 0 18 14v44q0 15-15 15h-94l24 98h102q17 0 17 14l1 42q0 16-16 16h-87l43 180q4 16-13 16h-53q-8 0-11-3t-5-13l-43-180h-74l43 179q3 17-12 17h-53q-15 0-17-16l-43-180H73q-20 0-20-14l-1-44q-1-9 3-11.5t14-2.5h86l-23-98H35q-20 0-20-15l-1-44q0-14 15-14h86L66 17Q63 0 80 0h53q11 0 15 15l49 208h74zm90 377-24-98h-73l23 98h74z"/><glyph glyph-name="dollar" unicode="$" d="M460 186q1 97-52 139-45 36-122 57v178q26-1 121-15 19-4 22 15l11 41q3 20-19 29-51 23-135 29v86q0 11-12 11h-32q-12 0-12-11v-85q-82-6-127.5-53T55 477q-1-81 43-122 45-39 131-63V98q-74 5-151 20-13 2-17-.5T55 104l-9-41q-3-21 15-30Q124 5 229-1v-88q0-6 2-8t10-2h32q12 0 12 11V0q80 7 126 53t49 133zm-104-8q-1-68-71-79v179q40-12 56-34t15-66zM159 478q2 71 71 82V396q-40 12-56 29.5T159 478z"/><glyph glyph-name="percent" unicode="%" horiz-adv-x="778" d="M600-7q157 0 157 226 0 69-15 115-9 31-25 50-37 47-117 47-115-5-141-112-12-47-12-100 0-73 12-118 9-33 24-56Q520-7 600-7zm0 358q38 0 52-31.5T666 212q0-72-14.5-105T600 74q-38 0-51 40-10 35-10 98 0 71 13.5 105t47.5 34zM170 234q157 0 157 225 0 69-15 115-9 31-25 50-37 47-117 47-111 0-141-112-12-47-12-100 0-72 12-117 9-33 24-56 37-52 117-52zm0 358q38 0 52-31.5T236 453q0-72-14.5-105T170 315q-35 0-48 33t-13 105q0 71 13.5 105t47.5 34zm379 92q4 16-12 16h-50q-13 0-21-17L228-7q-4-16 13-16h51q14 0 18 13z"/><glyph glyph-name="ampersand" unicode="&amp;" horiz-adv-x="623" d="M604-1q7 15-7 25-63 42-110 89 38 45 74 128 33 79 35 148 0 16-5 22t-20 6h-40q-16 0-19-2.5t-5-14.5q-22-127-86-213-71 77-129 180 114 73 114 168 0 61-39 100t-102 39q-67 0-105.5-43T121 520q0-58 40-122Q26 305 26 177q0-91 54-139.5T226-11q106 0 188 61 67-66 131-100 25-13 35 6zM227 76q-44 0-71 27.5T129 183q0 78 79 133 61-105 141-196-61-44-122-44zm84 460q0-50-64-93-26 47-26 82 0 28 11.5 48t31.5 20 33.5-16.5T311 536z"/><glyph glyph-name="quotesingle" unicode="'" horiz-adv-x="187" d="M138 649q0 14-14 14H64q-15 0-15-14l11-187q0-11 10-11h44q13 0 13 11z"/><glyph glyph-name="parenleft" unicode="(" horiz-adv-x="271" d="M151 308q0 98 24 193 24 93 59 159 9 16-7 25l-33 23q-19 12-30-8Q43 522 43 308q0-234 121-412 11-17 30-5l33 21q9 5 10.5 9.5T234-63q-83 160-83 371z"/><glyph glyph-name="parenright" unicode=")" horiz-adv-x="273" d="M135 308q0-211-83-371-5-11-3.5-15.5T59-88l33-21q19-12 30 5Q243 71 243 308q0 212-120 392-12 20-30 8l-34-23q-16-9-7-25 35-66 59-159 24-94 24-193z"/><glyph glyph-name="asterisk" unicode="*" horiz-adv-x="334" d="M164 663q-21 0-22-16l-3-74-62 32q-14 6-22-4l-19-29q-6-10 6-19l61-43-62-51q-7-7-2-16l16-26q9-15 25-5l59 34 4-74q1-11 4-13.5t15-2.5h26q12 0 16.5 3.5T209 372l3 74 60-35q16-9 27 8l12 20q9 13-1 22l-65 48 64 48q8 7 1 20l-14 20q-10 16-29 6l-55-32-4 75q-1 10-5 13.5t-17 3.5h-22z"/><glyph glyph-name="plus" unicode="+" horiz-adv-x="500" d="M439 350q0 16-18 16H299v142q0 17-15 17h-63q-17 0-17-17V366H79q-17 0-17-16v-52q0-16 17-16h125V132q0-10 3.5-13.5T221 115h63q15 0 15 17v150h122q18 0 18 16v52z"/><glyph glyph-name="comma" unicode="," horiz-adv-x="187" d="M166 23q0 21-9 45.5T133 108q-20 17-40-1L49 66q-14-13-4-30Q67 5 67-30q0-42-27-70-15-18-5-28l18-19q10-12 27-1 38 25 62 71t24 100z"/><glyph glyph-name="hyphen" unicode="-" horiz-adv-x="338" d="M317 347q0 17-17 17H39q-17 0-17-17v-52q0-16 17-16h261q17 0 17 16v52z"/><glyph glyph-name="period" unicode="." horiz-adv-x="180" d="M149 52q0 59-60 59T29 52q0-30 13-45.5T89-9q60 0 60 61z"/><glyph glyph-name="slash" unicode="/" horiz-adv-x="246" d="M250 674q3 19-13 19h-56q-17 0-20-15L86 327Q15-7 8-46 4-64 22-64h57q16 0 19 15z"/><glyph glyph-name="zero" unicode="0" d="M252-9q161 0 208 153 18 58 20 133 2 38 2 64 0 113-20 180-14 49-37 78-56 72-173 72-86 0-141-48-42-39-64-111-9-31-13-64-2-18-5-58v-49q0-84 7-137 9-68 38-123Q125-9 252-9zm0 580q72 0 94-65 20-56 20-175 0-124-25-181t-89-57q-67 0-89 69-18 56-18 169 0 103 18 168 23 72 89 72z"/><glyph glyph-name="one" unicode="1" d="M439 81q0 17-19 17H317v546q0 19-23 19h-55q-28 0-49-9l-76-35q-16-6-16-24v-36q0-9 4.5-12t16.5-3h85V98h-95q-20 0-20-18V17q0-17 20-17h311q19 0 19 17v64z"/><glyph glyph-name="two" unicode="2" d="M254 173q30 31 58 63l45 52q45 54 66 97 19 39 19 104 0 92-50 137t-162 45q-31 0-85-8-50-7-82-21-23-11-19-30l6-41q5-20 31-16 100 13 147 13 58 0 77.5-20t19.5-72q0-62-53-123-43-49-119-132-66-72-102-112-14-16-14-34V18Q37 0 60 0h373q11 0 15 4t4 14v63q0 17-21 17H192l-2 6z"/><glyph glyph-name="three" unicode="3" d="M462 239q0 132-115 160l-54 13v3l125 132q19 19 19 45v53q0 18-22 18H70q-20 0-20-17v-62q0-18 21-18h218l1-4-135-139q-11-13-11-33v-33q0-13 5-19t20-9l111-22q65-14 65-76 0-83-33-110-32-27-91-27-45 0-146 14-26 4-30-17l-7-41q-3-21 22-31Q88 8 141 0q56-8 83-8 117 0 177 54 61 54 61 193z"/><glyph glyph-name="four" unicode="4" d="M491 247q0 17-17 17h-61v382q0 16-18 16h-68q-25 0-36-15L22 270q-10-13-10-29v-57q0-18 23-18h266V17q0-17 18-17h75q19 0 19 18v148h61q17 0 17 16v65zm-357 15v3l166 231 2-1V262H134z"/><glyph glyph-name="five" unicode="5" d="M344 231q0-82-31-110-31-27-89-27-57 0-148 13-17 3-22.5-.5T46 90l-7-39q-3-21 21-32Q87 7 141-1q48-7 83-7 116 0 176 54 61 55 61 193 0 139-130 163l-158 30 17 134h221q21 0 21 18v62q0 17-20 17H124q-17 0-23.5-5T92 638L57 387q-4-36 31-43l191-37q65-14 65-76z"/><glyph glyph-name="six" unicode="6" d="M478 193q0 215-178 215-57 0-150-11 4 87 31 129t90 42q55 0 138-12 24-3 29 17l8 39q3 23-22 33-57 25-155 25-118 0-177-80-26-33-39-85-22-79-22-197 0-82 6-143 8-59 39-107Q120-9 252-9q98 0 162 48 64 49 64 154zm-116-2q0-101-107-101-70 0-93 47-16 33-16 160 77 10 139 10 42 0 59.5-27.5T362 191z"/><glyph glyph-name="seven" unicode="7" d="M447 547q13 27 13 59v38q0 19-22 19H50q-19 0-19-18v-63q0-17 19-17h281L104 44q-7-16-4.5-22T118 9l50-20q17-6 26-2t17 22z"/><glyph glyph-name="eight" unicode="8" d="M119 352q-96-48-96-169Q23-9 248-9q105 0 166.5 52T476 185q0 58-26 102.5T377 352q36 17 58 55.5t22 76.5q0 93-54 140.5T250 672q-100 0-154.5-49.5T41 478q0-40 21-74.5t57-51.5zm222 130q0-72-91-90-92 24-92 90 0 92 92 92 43 0 67-23.5t24-68.5zm18-293q0-44-32-71t-79-27q-50 0-79 26t-29 77q0 91 104 117 58-16 86.5-43.5T359 189z"/><glyph glyph-name="nine" unicode="9" d="M29 469q0-216 178-216 59 0 150 11-4-86-31-128.5T236 93q-46 0-143 13-24 3-28-19l-8-39q-3-19 21-31Q137-8 238-8q174 5 215 164 23 78 23 197 0 65-3 104-3 40-15 85t-35 70q-51 58-167 58-99 0-163-49-64-48-64-152zm116 1q0 101 107 101 72 0 92-47 16-33 17-159-99-12-138-12-43 0-60.5 27.5T145 470z"/><glyph glyph-name="colon" unicode=":" horiz-adv-x="185" d="M152 52q0 59-60 59-59 0-59-59 0-30 13-45.5T92-9q60 0 60 61zm0 337q0 30-13.5 44.5T92 448q-59 0-59-59 0-30 13-45.5T92 328q60 0 60 61z"/><glyph glyph-name="semicolon" unicode=";" horiz-adv-x="185" d="M161 389q0 30-13.5 44.5T101 448q-60 0-60-59 0-30 13.5-45.5T101 328q60 0 60 61zm1-366q0 53-32 85-20 18-40-1L46 66q-16-14-4-30Q64 5 64-30q0-42-27-70-15-18-6-28l19-19q10-13 27-1 37 25 61 71t24 100z"/><glyph glyph-name="less" unicode="&lt;" horiz-adv-x="500" d="M436 160q0 14-15 22L184 324v3l237 144q14 9 14 20v71q0 7-5.5 10t-12.5-1L78 369q-13-7-13-20v-49q0-12 15-20L419 78q6-4 11.5-1.5T436 86v74z"/><glyph glyph-name="equal" unicode="=" horiz-adv-x="500" d="M438 268q0 16-17 16H79q-17 0-17-16v-52q0-17 17-17h342q17 0 17 17v52zm0 165q0 16-17 16H79q-17 0-17-16v-52q0-16 17-16h342q17 0 17 16v52z"/><glyph glyph-name="greater" unicode="&gt;" horiz-adv-x="500" d="M65 86q0-7 5.5-9.5T82 78l339 202q15 8 15 20v49q0 13-13 20L84 571q-7 4-12.5 1T66 562v-71q0-11 14-20l237-144v-3L80 182q-15-8-15-22V86z"/><glyph glyph-name="question" unicode="?" horiz-adv-x="340" d="M326 514q0 78-45 118.5T149 673q-72 0-117-22-21-9-18-27l5-41q2-12 7-14.5t20-.5q50 7 89 7 42 0 61-16t19-52q0-30-35-60-52-50-78-92-25-40-25-103 0-38 3-60 2-11 6.5-14.5T103 174h58q18 0 18 20-1 12-1 47 0 45 17 75t58 65q18 15 26 23t17 21 17 30q13 27 13 59zM192 51q0 30-13 44.5T133 110q-59 0-59-59 0-30 12.5-45T133-9q59 0 59 60z"/><glyph glyph-name="at" unicode="@" horiz-adv-x="744" d="M388 701q-148 0-248-103Q39 495 39 341q0-160 90-259t242-99q82 0 133 25 16 7 10 24l-10 29q-5 11-22 7-58-14-107-14-116 0-187 80-70 80-70 208 0 122 77 205 78 83 195 83 110 0 173-75 64-74 64-196 0-65-22-104.5T549 215q-45 0-45 48v142q0 73-24 105t-103 32q-77 0-114-21-13-7-10-24l4-21q2-9 7.5-11t18.5 1q77 12 108.5 3.5T423 417v-19h-66q-132 0-132-128 0-57 23-82.5t76-25.5q61 0 113 40 27-59 109-59 66 0 113 57 47 58 47 163 0 147-83 242-82 96-235 96zm-82-428q0 62 46 62h72v-71q-47-34-84-34-34 0-34 43z"/><glyph glyph-name="A" unicode="A" horiz-adv-x="516" d="M386 21q3-12 8-16.5T412 0h85q18 0 12 20L333 642q-6 21-29 21h-84q-23 0-29-21L15 21Q9 0 30 0h75q22 0 28 21l36 144h181zM264 537q7-43 25-117l38-162H192l12 45 19 75 11 44q1 5 7.5 33t12 52 6.5 30h4z"/><glyph glyph-name="B" unicode="B" horiz-adv-x="514" d="M482 189q0 68-40 116-23 29-62 43v2q44 19 64 57.5t20 81.5q0 82-51 128t-145 46H75q-22 0-22-19V19Q53 0 77 0h219q80 0 132 51 54 53 54 138zm-119 8q0-98-99-98h-96v197h96q47 0 73-27.5t26-71.5zm-19 281q0-36-23.5-61T262 392h-94v172h83q46 0 69.5-23t23.5-63z"/><glyph glyph-name="C" unicode="C" horiz-adv-x="490" d="M289 670q-165 0-216-150-27-78-27-193 0-114 27-191 16-44 42-76Q176-8 287-8q102 0 168 29 23 11 19 33l-8 38q-6 18-30 16-83-10-141-10-71 0-99 56.5T168 328q0 103 21 165 26 71 106 71 54 0 141-10 25-4 29 15l8 41q3 21-20 32-63 28-164 28z"/><glyph glyph-name="D" unicode="D" horiz-adv-x="554" d="M508 333q0 144-51 231-56 99-213 99H76q-21 0-21-19V19Q55 0 78 0h166q179 0 233 138 31 76 31 195zm-119-8q0-127-42-177-42-48-114-48h-64v464h71q75 0 112-55.5T389 325z"/><glyph glyph-name="E" unicode="E" horiz-adv-x="460" d="M432 81q0 18-18 18H168v200h207q12 0 16 4t4 14v63q0 17-20 17H168v167h233q12 0 15.5 4t3.5 14v63q0 18-20 18H74q-22 0-22-19V18Q52 0 74 0h338q12 0 16 4t4 14v63z"/><glyph glyph-name="F" unicode="F" horiz-adv-x="435" d="M55 19Q55 0 78 0h70q22 0 22 19v275h199q21 0 21 19v62q0 18-20 18H169v171h233q21 0 21 19v62q0 18-21 18H78q-23 0-23-18V19z"/><glyph glyph-name="G" unicode="G" horiz-adv-x="542" d="M170 328q0 105 22 166 14 36 39 54t66 18 138-12q26-4 31 16l9 42q4 18-22 31-63 28-163 28-244 0-244-344 0-158 56-247Q159-8 294-8q94 0 168 28 30 12 30 44 1 37 1 284 0 20-26 20H316q-22 0-22-19v-58q0-19 22-19h61V106q-28-11-80-11-78 0-104 70-23 64-23 163z"/><glyph glyph-name="H" unicode="H" horiz-adv-x="539" d="M485 644q0 19-20 19h-73q-22 0-22-19V398H168v246q0 19-20 19H75q-22 0-22-19V19Q53 0 75 0h73q20 0 20 19v279h202V19q0-19 22-19h73q20 0 20 19v625z"/><glyph glyph-name="I" unicode="I" horiz-adv-x="241" d="M178 644q0 19-21 19H84q-22 0-22-19V19Q62 0 84 0h73q21 0 21 19v625z"/><glyph glyph-name="J" unicode="J" horiz-adv-x="386" d="M327 644q0 19-22 19h-72q-22 0-22-19V186q0-47-17.5-68.5T133 96q-21 0-96 8-13 2-17.5-.5T13 91L3 45q-5-20 13-29Q66-9 148-9q178 0 179 177v476z"/><glyph glyph-name="K" unicode="K" horiz-adv-x="505" d="M492 644q6 8 2 13.5t-13 5.5h-86q-26 0-35-14L250 486q-66-96-83-127h-4v285q0 19-20 19H71q-22 0-22-19V19Q49 0 71 0h72q20 0 20 19v163l70 99L362 25q10-25 37-25h87q10 0 13 7t-2 14L306 382z"/><glyph glyph-name="L" unicode="L" horiz-adv-x="442" d="M433 82q0 17-19 17H168v545q0 11-4 15t-16 4H75q-21 0-21-19V18Q54 0 76 0h337q12 0 16 4t4 14v64z"/><glyph glyph-name="M" unicode="M" horiz-adv-x="659" d="M605 646q0 17-19 17h-59q-25 0-35-19l-94-222q-50-122-65-166h-5l-66 167-94 222q-5 11-11 14.5t-22 3.5H73q-21 0-21-17V19Q52 0 75 0h68q21 0 21 19v377q2 0 3 1 23-63 44-109l71-164q9-18 29-18h40q20 0 27 19l65 155q26 62 45 115l3-1V19q0-19 22-19h71q21 0 21 19v627z"/><glyph glyph-name="N" unicode="N" horiz-adv-x="563" d="M399 20q11-20 35-20h57q19 0 19 19v625q0 19-20 19h-71q-20 0-20-19V224q-2 0-3-1-23 52-75 145L165 645q-11 18-33 18H74q-21 0-21-17V19Q53 0 75 0h70q20 0 20 19v420h3q34-71 84-159z"/><glyph glyph-name="O" unicode="O" horiz-adv-x="575" d="M531 341q0 114-24 186-15 46-41 75-60 69-180 69-242 0-242-330 0-59 3-101 3-39 17-92 14-50 38-82Q162-9 285-9q169 0 220 143 22 57 24 136 2 42 2 71zm-119-10q0-124-29-181t-97-57q-67 0-94 57t-27 181q0 123 28 181.5t93 58.5q69 0 97.5-57T412 331z"/><glyph glyph-name="P" unicode="P" horiz-adv-x="468" d="M455 464q0 100-58.5 149.5T233 663H74q-22 0-22-18V19Q52 0 74 0h73q21 0 21 19v238h83q119 0 165 70 39 60 39 137zm-116-2q0-108-97-108h-74v210h70q101 0 101-102z"/><glyph glyph-name="Q" unicode="Q" horiz-adv-x="578" d="M532 341q0 113-25 184-14 45-41 76-60 70-180 70-242 0-242-330 0-79 12-158 8-45 24-76Q141-13 286-9q12 0 15 1l187-84q29-14 40 14l23 62q8 18-15 26l-97 32q93 77 93 299zm-119-10q0-121-30-179.5T286 93q-65 0-93 58t-28 180q0 123 28 181.5t93 58.5q70 0 98.5-56.5T413 331z"/><glyph glyph-name="R" unicode="R" horiz-adv-x="488" d="M70 663q-21 0-21-19V18Q49 0 70 0h73q21 0 21 19v247h74L338 17q8-17 31-17h83q22 0 14 20L349 285q52 21 78.5 70.5T454 468q0 96-57 145-56 50-139 50H70zm168-100q97 0 97-99 0-56-25-78.5T236 363h-72v200h74z"/><glyph glyph-name="S" unicode="S" horiz-adv-x="475" d="M230-9q96 0 158 47t62 153q0 107-63 148-43 31-134 53-58 12-77 27t-19 59q0 89 92 89 54 0 138-13 17-3 23.5.5T420 571l8 40q1 6 .5 11t-5.5 10-17 11q-60 27-163 27-97 0-151.5-51T37 475q0-95 62-137 47-31 138-53 54-11 74-32 21-19 21-72 0-85-102-85-44 0-154 14-17 3-23.5 0T44 94l-8-42q-5-20 21-32Q121-9 230-9z"/><glyph glyph-name="T" unicode="T" horiz-adv-x="440" d="M432 644q0 19-22 19H30q-21 0-21-19v-61q0-19 22-19h131V19q0-19 22-19h73q20 0 20 19v545h132q23 0 23 19v61z"/><glyph glyph-name="U" unicode="U" horiz-adv-x="547" d="M273 95q-57 0-82 34.5T166 241v402q0 20-23 20H75q-14 0-19-4.5T51 643V234Q51-8 273-8q111 0 167.5 63T497 234v409q0 20-23 20h-68q-23 0-23-20V241q0-75-27-110.5T273 95z"/><glyph glyph-name="V" unicode="V" horiz-adv-x="523" d="M139 643q-5 20-29 20H35q-21 0-16-20L200 20q5-20 28-20h75q25 0 31 21l180 622q5 20-13 20h-78q-23 0-29-22l-72-278-52-213h-4q-10 54-54 222z"/><glyph glyph-name="W" unicode="W" horiz-adv-x="739" d="M377 325q9-46 38-169l34-135q5-21 29-21h71q24 0 30 21l149 621q6 22-12 22h-77q-23 0-28-20l-58-265q-33-157-41-213h-4q-23 121-43 204l-65 274q-5 20-28 20h-76q-19 0-11-20l35-134-37-164q-27-112-36-168h-3q-22 111-41 189l-68 277q-5 20-27 20H28q-18 0-13-21L174 21q4-21 28-21h71q25 0 29 21l35 140q28 117 36 164h4z"/><glyph glyph-name="X" unicode="X" horiz-adv-x="481" d="M352 17q9-17 30-17h82q23 0 14 19L308 345l158 298q6 7 1.5 13.5T452 663h-82q-23 0-29-18l-93-200-94 202q-4 10-9.5 13t-19.5 3H43q-10 0-13.5-6.5T31 642l154-297L17 21Q8 0 29 0h83q24 0 31 18l105 223z"/><glyph glyph-name="Y" unicode="Y" horiz-adv-x="495" d="M247 376q-4 10-20.5 54T202 492l-55 131q-11 27-17.5 33t-24.5 6H24q-7 0-11-5.5t0-12.5l179-373V18q0-18 22-18h72q20 0 20 18v253l183 373q7 18-13 18h-78q-14 0-20-3.5T367 643l-66-147q-36-81-48-120h-6z"/><glyph glyph-name="Z" unicode="Z" horiz-adv-x="450" d="M425 81q0 18-21 18H153l255 450q15 25 15 43v54q0 17-21 17H63q-12 0-16-4t-4-14v-63q0-10 4.5-14t16.5-4h230L37 115Q24 93 24 63V18Q24 0 44 0h361q20 0 20 19v62z"/><glyph glyph-name="bracketleft" unicode="[" horiz-adv-x="236" d="M205-25q0 17-18 17h-55v612h54q18 0 18 17v57q0 17-17 17H48q-20 0-20-18V-79q0-19 20-19h139q18 0 18 17v56z"/><glyph glyph-name="backslash" unicode="\" horiz-adv-x="244" d="M155-49q3-15 19-15h57q18 0 15 18L93 678q-3 15-21 15H16q-14 0-13-19z"/><glyph glyph-name="bracketright" unicode="]" horiz-adv-x="236" d="M35-81q0-17 18-17h139q20 0 20 19v756q0 18-19 18H53q-17 0-17-17v-57q0-17 18-17h54V-8H53Q35-8 35-25v-56z"/><glyph glyph-name="asciicircum" unicode="^" horiz-adv-x="461" d="M450 374q9 6 1 21L306 648q-11 15-34 15h-56q-22 0-33-15L30 399q-10-15 0-24l27-19q13-10 24 3l161 213 157-216q9-11 23-3z"/><glyph glyph-name="underscore" unicode="_" horiz-adv-x="435" d="M449-83q0 10-3.5 13.5T432-66H1q-17 0-17-17v-37q0-16 17-16h431q17 0 17 16v37z"/><glyph glyph-name="grave" unicode="`" horiz-adv-x="448" d="M225 739q-7 13-23 2l-49-33q-18-13-8-26l102-134q9-12 21-4l35 24q10 7 3 20z"/><glyph glyph-name="a" unicode="a" horiz-adv-x="472" d="M302 128q-64-45-114-45-26 0-36.5 12.5T141 139q0 82 68 82h93v-93zM156-8q82 0 153 56h2l1-1q7-28 26-39.5T394-4q33 0 50 7 17 5 17 23v39q0 13-21 15-20 1-23.5 7.5T413 125v187q0 89-31 136-35 52-148 52-103 0-158-28-16-7-13-26l8-37q3-17 20-14 80 10 126 10 47 0 66.5-19.5T303 323v-22H202q-88 0-131-40.5T28 134q0-71 30-106.5T156-8z"/><glyph glyph-name="b" unicode="b" horiz-adv-x="460" d="M148 685q0 20-22 20H58q-22 0-22-20V63q0-33 28-45Q126-9 232-9q107 0 152 63.5T429 251q0 129-38 188-37 60-144 60-46 0-97-20l-2 2v204zm168-439q0-85-23-119.5T225 92q-37 0-77 8v285q48 17 90 17 44 0 60-33 18-33 18-123z"/><glyph glyph-name="c" unicode="c" horiz-adv-x="391" d="M221-8q99 0 147 27 15 10 12 28l-7 37q-4 18-28 14-59-9-114-9-48 0-67 35t-19 125q0 82 19.5 117t67.5 35q28 0 114-9 20-2 24 15l7 41q3 18-11 24-60 28-145 28-133 0-170-112-20-56-20-142 0-93 19-149 11-32 32-56Q129-8 221-8z"/><glyph glyph-name="d" unicode="d" horiz-adv-x="461" d="M309 483q-53 17-100 17-103 0-141-65T30 237q0-126 33.5-185T179-7q62 0 129 46 2 0 3-1V19q0-19 20-19h70q20 0 20 19v666q0 20-20 20h-67q-23 0-23-20V486zM142 240q0 91 18 127t61 36q42 0 90-14V129q-20-12-52-23-33-11-54-11-33 0-48 28-15 29-15 117z"/><glyph glyph-name="e" unicode="e" horiz-adv-x="439" d="M224 410q43 0 60-29t19-90H145q2 63 20.5 91t58.5 28zm5-419q90 0 147 28 20 11 15 30l-6 35q-3 18-30 14-67-9-112-9-51 0-73.5 28T145 215h222q27 0 38.5 14.5T417 276q0 88-35 151-39 73-157 73-194 0-194-257 0-110 34-174Q106-9 229-9z"/><glyph glyph-name="f" unicode="f" horiz-adv-x="342" d="M240 710Q78 710 78 543v-53H42q-20 0-20-20v-49q0-11 4-15.5t16-4.5h36q0-82-1-191V19Q77 0 99 0h68q20 0 20 19v382h99q12 0 16 4.5t4 15.5v50q0 19-20 19h-99v40q-3 61 37 76t108-1q25-4 28 12l7 43q3 19-10 25-17 11-52.5 18t-64.5 7z"/><glyph glyph-name="g" unicode="g" horiz-adv-x="461" d="M233 500q-108 0-154-63T33 243q0-122 38-186Q109-5 215-5q46 0 100 21v-29q0-48-19-67.5T228-100q-62 0-121 10-16 3-22 .5T77-104l-7-38q-3-19 20-30 60-23 144-23 141 0 173 82 18 42 18 121v420q0 35-28 45-63 27-164 27zm-86-248q0 88 23 117 24 30 68 30 36 0 76-8V110q-54-17-90-17-42 0-59.5 35T147 252z"/><glyph glyph-name="h" unicode="h" horiz-adv-x="464" d="M148 686q0 19-21 19H58q-21 0-21-19V19Q37 0 58 0h68q22 0 22 19v342q64 37 108 37 31 0 44-19t13-71l-1-289q0-19 21-19h69q22 0 22 19v291q0 86-22 131-25 58-119 58-60 0-131-44l-4 2v229z"/><glyph glyph-name="i" unicode="i" horiz-adv-x="216" d="M167 620q0 29-13 43t-47 14q-58 0-58-57 0-29 12.5-44t45.5-15 46.5 15 13.5 44zm-5-149q0 19-21 19H75q-23 0-23-19V19Q52 0 75 0h66q21 0 21 19v452z"/><glyph glyph-name="j" unicode="j" horiz-adv-x="230" d="M176 471q0 19-23 19H88q-23 0-23-19V-13q0-57-19-73-21-18-83-31-20-6-19-24l3-47q1-19 25-19 110-4 157 44T176-9v480zm3 149q0 29-13 43t-46 14q-58 0-58-57 0-30 12.5-44.5T120 561q59 0 59 59z"/><glyph glyph-name="k" unicode="k" horiz-adv-x="422" d="M285 37q13-24 15-26 10-11 28-11h75q10 0 14 7t-1 15L270 291l128 176q6 8 3 15.5t-13 7.5h-77q-23 0-35-17-59-85-122-184l-1 1h-1v396q0 19-21 19H62q-20 0-20-19V18Q42 0 62 0h69q21 0 21 18v112q11 15 49 68z"/><glyph glyph-name="l" unicode="l" horiz-adv-x="231" d="M146-5q41 0 66 14 11 7 10 19l-4 47q0 7-4 10t-7.5 3.5T194 90q-19 1-26.5 8t-7.5 26v560q0 20-23 20H73q-22 0-22-20V106q0-59 21-85t74-26z"/><glyph glyph-name="m" unicode="m" horiz-adv-x="718" d="M150 471q0 19-21 19H60q-20 0-20-19V19Q40 0 60 0h70q20 0 20 20v340q65 37 101 37 28 0 40.5-18t12.5-65q0-63-1-148V19q0-19 20-19h70q20 0 20 19v283q0 6-2 54 71 41 103 41 27 0 39.5-19t12.5-65q0-62-1-147V19q0-19 20-19h72q20 0 20 20v289q0 73-11 109-7 27-21 44-33 37-101 37-70 0-149-63-29 63-113 63-62 0-127-51h-3l-2 1v22z"/><glyph glyph-name="n" unicode="n" horiz-adv-x="458" d="M146 471q0 19-20 19H56q-20 0-20-19V19Q36 0 56 0h69q21 0 21 19v342q70 36 109 36 31 0 43.5-19.5T311 308q0-61-1-144V19q0-19 21-19h70q21 0 21 19v290q0 71-12 110-7 24-22 43-33 37-103 37-66 0-134-51l-5 2v21z"/><glyph glyph-name="o" unicode="o" horiz-adv-x="457" d="M424 253q0 83-19 136-13 36-33 58-48 53-147 53-194 0-194-247 0-87 16-142 13-39 31-62Q126-8 225-8q152 6 182 119 17 55 17 142zM226 404q50 0 68-35.5T312 246q0-86-18.5-122T225 88q-47 0-64.5 36T143 246q0 84 18 121t65 37z"/><glyph glyph-name="p" unicode="p" horiz-adv-x="456" d="M153 7q51-17 99-17 99 0 139 61.5T431 248q0 128-34 189t-116 61q-30 0-66-14.5T153 448l-3 2v21q0 19-20 19H60q-20 0-20-19v-636q0-12 4-16t16-4h70q20 0 20 20V5zm166 242q0-90-18-126t-62-36q-42 0-89 14v258q19 13 50 23 33 12 55 12 33 0 48-29 16-28 16-116z"/><glyph glyph-name="q" unicode="q" horiz-adv-x="461" d="M314-165q0-20 21-20h70q9 0 13.5 2.5t5.5 6 1 11.5v593q0 34-27 45-62 27-165 27-107 0-153.5-64.5T33 239q0-126 38-187Q110-8 215-8q49 0 97 19l2-2v-174zM147 245q0 86 22.5 120t67.5 34q43 0 78-8V106q-54-17-91-17-43 0-60 34t-17 122z"/><glyph glyph-name="r" unicode="r" horiz-adv-x="318" d="M317 478q-1 19-20 18-31-5-68-23.5T169 431l-2 2v38q0 19-22 19H76q-20 0-20-19V19Q56 0 76 0h70q21 0 21 19v321q46 24 136 45 23 6 20 30z"/><glyph glyph-name="s" unicode="s" horiz-adv-x="400" d="M375 148q0 83-52 114-42 26-111 38-41 7-54.5 17T144 352q0 30 13.5 42.5T205 406q33 0 118-9 16-2 22.5.5T354 411l7 37q3 19-22 29-54 23-135 23-80 0-126-39.5T32 349q0-77 52-108 44-24 115-37 37-6 49.5-18.5T261 141q0-29-16.5-42.5T191 85q-47 0-123 12-16 2-22-1t-8-15l-7-33q-4-23 22-33Q104-8 192-8q79 0 131 37t52 119z"/><glyph glyph-name="t" unicode="t" horiz-adv-x="316" d="M314 81q-2 11-6.5 14T288 97q-50-5-58-5-29 0-38.5 13t-9.5 52v244h90q9 0 13 2.5t5 6.5 1 12v48q0 12-3 16t-16 4h-89v127q0 23-24 17l-63-19q-21-5-21-21V490H35q-20 0-20-20v-49q0-20 20-20h39V115q0-63 27.5-93T193-8q70 0 113 22 17 11 14 29z"/><glyph glyph-name="u" unicode="u" horiz-adv-x="456" d="M307 19q0-19 20-19h70q20 0 20 19v452q0 19-20 19h-68q-22 0-22-19V131q-67-37-104-37-30 0-42.5 19T148 185v142q1 83 1 144 0 19-21 19H59q-21 0-21-19V150q0-70 20-111Q84-9 168-9q69 0 134 53l2-1q1-1 3-1V19z"/><glyph glyph-name="v" unicode="v" horiz-adv-x="436" d="M429 470q3 9-1 14.5t-13 5.5h-75q-9 0-13.5-2.5t-5.5-5-4-9.5q-46-154-75-269-1-4-6-22.5t-9.5-35.5-4.5-18h-3q0 4-9 35l-10 41-75 268q-5 18-24 18H25q-9 0-12.5-6T11 469L150 41q1-3 5-14t6-14q6-13 27-13h64q22 0 29 21z"/><glyph glyph-name="w" unicode="w" horiz-adv-x="627" d="M320 240q8-36 27-111l26-100q4-16 10.5-22.5T405 0h61q13 0 18.5 5.5T494 25l125 445q5 20-14 20h-74q-9 0-13.5-2.5t-5.5-5-4-9.5l-36-150q-28-119-39-174h-4q-7 47-42 175l-39 147q-3 12-7 15.5t-16 3.5h-70q-9 0-12.5-6t-1.5-15l28-97-33-118q-18-66-28-106h-3q-8 34-14 55l-10 43-57 225q-3 12-7.5 15.5T100 490H26q-9 0-12.5-6T12 469L142 24q0-1 1-3 3-8 4.5-11.5T155 3t16-3h61q20 0 24 19l35 113q17 57 26 108h3z"/><glyph glyph-name="x" unicode="x" horiz-adv-x="416" d="M287 15q7-15 28-15h84q10 0 14 6t-1 14L274 251l131 219q8 20-13 20h-85q-17 0-24-15l-74-147-72 143q-6 13-10.5 16t-16.5 3H29q-10 0-13.5-6t1.5-14l126-220L8 20Q2 12 6.5 6T20 0h83q21 0 28 15l77 154z"/><glyph glyph-name="y" unicode="y" horiz-adv-x="433" d="M222 148q-4 25-31 125l-58 200q-5 17-23 17H35q-22 0-14-20L173 6l-56-171q-6-20 15-20h65q14 0 19 4t9 14l203 637q8 20-13 20h-73q-18 0-24-16l-53-188-38-138h-5z"/><glyph glyph-name="z" unicode="z" horiz-adv-x="392" d="M19 16q-1-9 3.5-12.5T38 0h310q20 0 20 18v57q0 18-21 18H151l187 275q26 40 26 67v38q0 17-22 17H55q-20 0-20-18v-55q0-11 4.5-15.5T55 397h182L38 108Q19 80 19 44V16z"/><glyph glyph-name="braceleft" unicode="{" horiz-adv-x="262" d="M240-47q0 15-19 16-32 3-41.5 11T170 12v166q0 51-10 76t-44 42v3q54 25 54 118v159q0 24 10 33.5t41 11.5q19 0 19 16v43q0 13-17 18-28 5-58 5-49 0-72.5-31T69 590V424q0-29-1-34 0-6-3-23-3-15-10.5-22T31 332q-15-4-15-17v-32q0-12 16-16 28-10 33-34 4-19 4-53V-1q0-111 100-111 33 0 54 7 17 5 17 18v40z"/><glyph glyph-name="bar" unicode="|" horiz-adv-x="230" d="M161 677q0 19-20 19H91q-22 0-22-19V-95q0-19 22-19h50q20 0 20 19v772z"/><glyph glyph-name="braceright" unicode="}" horiz-adv-x="262" d="M16-87q0-13 17-18 21-7 54-7 100 0 100 111v181q0 34 4 53 5 24 33 34 16 4 16 16v32q0 13-15 17-21 8-30 22-8 16-8 70v166q0 51-23.5 82T91 703q-30 0-58-5-17-5-17-18v-43q0-16 19-16 31-2 41-11.5T86 576V417q0-93 54-118v-3q-38-20-47-52-7-23-7-66V12q0-24-9.5-32T35-31q-19-1-19-16v-40z"/><glyph glyph-name="asciitilde" unicode="~" horiz-adv-x="500" d="M337 227q82 0 121 92 5 11-9 20l-26 18q-18 13-27-3-16-23-26.5-31.5T345 314q-15 0-67 24-67 29-97 29-85 0-119-93-4-13 9-22l24-15q17-13 28 1 22 26 30.5 33t24.5 9q20 0 74-26 58-27 85-27z"/><glyph glyph-name="exclamdown" unicode="¡" horiz-adv-x="242" d="M163 285q0 18-17 18h-46q-18 0-18-18L71-163q-1-19 19-19h67q18 0 18 19zm-42 90q33 0 46 14t13 43q0 60-59 60-33 0-45.5-15T63 432q0-57 58-57z"/><glyph glyph-name="cent" unicode="¢" d="M80 246q0-103 26-165Q137 7 229-5l13 101q-47 21-47 153 0 84 19 118t67 34h1l13 98q-4 0-13.5.5t-11.5.5q-91 0-138-54-54-67-52-200zM242 96q14-7 38-7h18l39 309q-32 3-55 3zm153 2q-41-8-97-9L285-8q92 5 131 26 16 9 13 28l-7 38q-1 19-27 14zM270-8q-22 0-41 3l-17-137q-2-11 11-13l33-4q6 0 8 2t3 9q0 1 .5 2t.5 2L285-8h-15zm96 635q2 15-11 16l-28 3q-12 2-14-12l-18-135q25-2 54-7zm49-155q-27 13-66 20l-12-94 58-6q21-2 24 15l7 41q4 18-11 24z"/><glyph glyph-name="sterling" unicode="£" d="M285 667q-100 0-138-56-37-55-37-163 0-57 1-71H76q-13 0-17.5-3.5T54 360v-50q0-11 4.5-15t18.5-4h35v-51q0-40-4-56-1-3-3.5-15t-5-22-5.5-16q-15-28-31-39-14-11-14-29V17Q49 0 72 0h352q14 0 18.5 3t4.5 13v61q0 11-4.5 15T425 96H196q20 19 25 112 1 11 1 46 1 20 1 37h133q13 0 17.5 4t4.5 15v50q0 10-4.5 13.5T356 377H222q-1 10-1 45 0 79 16 112t63 33q35 0 118-11 21-3 25 13l10 41q8 18-16 31-58 26-152 26z"/><glyph glyph-name="currency" unicode="¤" d="M261 174q-43 0-67.5 27T169 275t24.5 74 67.5 27q46 0 72-27t26-74q0-45-26.5-73T261 174zM86 273q0-59 29-106l-51-50q-14-14-4-24l34-34q9-7 13-6.5t13 9.5l54 52q39-19 86-19 50-2 97 24l55-55q14-14 26-1l31 32q14 12-3 26l-54 54q27 47 27 102 0 49-24 90l53 53q8 9 8.5 12.5T469 445l-33 33q-11 13-25-1l-52-52q-39 27-99 27-56-2-94-25l-45 46q-9 7-12.5 7.5T95 473l-32-31q-12-12 1-25l48-48q-26-46-26-96z"/><glyph glyph-name="yen" unicode="¥" d="M158 646q-4 10-9.5 13.5T129 663H56q-10 0-14-5.5T41 644l145-325H75q-17 0-17-14v-37q0-14 16-14h128v-42H75q-17 0-17-13v-37q0-14 16-14h128V20q0-20 24-20h65q24 0 24 20v128h126q16 0 16 13v36q0 9-3 12t-13 3H315v42h126q16 0 16 14v36q0 9-3 12t-13 3H329l148 324q9 20-15 20h-70q-22 0-30-18L261 391h-5z"/><glyph glyph-name="brokenbar" unicode="¦" horiz-adv-x="230" d="M164 266q0 19-21 19H93q-22 0-22-19V-95q0-19 22-19h50q21 0 21 19v361zm0 408q0 19-21 19H93q-22 0-22-19V346q0-19 22-19h50q21 0 21 19v328z"/><glyph glyph-name="section" unicode="§" horiz-adv-x="397" d="M219 671q-72 1-127-39-53-40-55-117 0-73 51-116-55-60-55-136-1-62 57-112 8-6 41-25 7-5 21-11l18-9q2-1 18.5-10T210 84q24-11 35-23 24-21 24-50-1-37-25-55.5T182-63q-56 0-109 15-31 12-38-11L24-93q-4-13 8-23 22-16 65.5-27.5T181-156q65 0 122 34 32 18 51 53t19 81q0 61-51 115 55 61 55 135 9 75-81 126-20 12-50 28-35 18-47 26-54 34-58 76 0 30 23 46t62 16q34 0 104-17 27-7 33 13l10 34q5 17-9 26-19 14-63 25-41 10-82 10zm55-426q0-33-25-68-56 26-80 42-34 24-34 61 0 36 27 71 2-1 11.5-5.5T192 336t13-8q27-12 40-27 29-24 29-56z"/><glyph glyph-name="dieresis" unicode="¨" horiz-adv-x="448" d="M154 559q31 0 42.5 14t11.5 43q0 27-12 40t-42 13q-55 0-55-53 0-30 12-43.5t43-13.5zm172 0q31 0 43 14t12 43q0 28-12 40.5T326 669q-54 0-54-53 0-30 11.5-43.5T326 559z"/><glyph glyph-name="copyright" unicode="©" horiz-adv-x="782" d="M242 327q0-90 26-143 31-63 124-63 66 0 112 20 14 6 11 22l-5 24q-3 13-19 12-54-8-92-8-43 0-59.5 30T323 330q0 72 17 102.5t59 30.5q45 0 87-8 17-4 22 11l4 26q3 14-11 22-45 19-109 19-93 0-124-66-26-53-26-140zM390-8Q536-8 637 92q103 100 103 243 0 144-101 245-100 100-249 100-143 0-246-101Q43 478 43 335q0-142 101-243Q245-8 390-8zm0 628q118 0 201-84 84-82 84-201 0-117-84-200-83-83-201-83-117 0-200 83-83 85-83 200 0 118 83 201 82 84 200 84z"/><glyph glyph-name="ordfeminine" unicode="ª" horiz-adv-x="331" d="M271 237q20 0 33 4 21 5 21 17v30q0 10-15 15-18 1-18 29v117q0 66-25 95-24 30-102 30-61 0-105-16-22-9-17-26l3-25q3-16 27-11 98 15 119-5 13-10 13-35v-13h-64q-63 0-93-26.5T18 332q1-97 94-97 59 0 100 37 13-36 59-35zm-67 92q-40-26-69-26-30 0-30 33 0 48 40 48h59v-55z"/><glyph glyph-name="guillemotleft" unicode="«" horiz-adv-x="424" d="M298 45q14-15 33-15h72q6 0 8 4.5t-2 9.5L305 191l101 143q12 19-8 19h-65q-24 0-38-20l-87-125q-12-16-1-33zm-163 0q13-15 33-15h72q7 0 9 4.5t-2 9.5L142 191l101 143q12 19-8 19h-65q-24 0-38-20L45 208q-13-16 0-33z"/><glyph glyph-name="logicalnot" unicode="¬" horiz-adv-x="500" d="M418 118q19 0 19 17v218q0 10-4 14t-15 4H82q-19 0-19-19v-48q0-17 19-17h267V135q0-17 18-17h51z"/><glyph glyph-name="uni00AD" unicode="­" horiz-adv-x="338" d="M316 347q0 17-19 17H41q-19 0-19-17v-52q0-16 19-16h256q19 0 19 16v52z"/><glyph glyph-name="registered" unicode="®" horiz-adv-x="505" d="M302 489q43 16 43 71 0 37-22 56.5T267 636h-81q-10 0-10-10V393q0-10 8-10h32q7 0 7 11v86h30l41-89q3-8 14-8h35q14 0 6 11zm-6 71q0-36-38-36h-35v68h35q38 0 38-32zm-43 168q-92 0-156-64-64-63-64-154t64-155q65-63 156-63t156 63q64 64 64 155 0 92-64 155-63 63-156 63zm0-41q73 0 125-52t52-125q0-74-52-126t-125-52q-74 0-126 52T75 510q0 73 52 125t126 52z"/><glyph glyph-name="macron" unicode="¯" horiz-adv-x="448" d="M377 638q0 10-4 13t-15 3H116q-19 0-19-16v-53q0-17 19-17h242q19 0 19 17v53z"/><glyph glyph-name="degree" unicode="°" horiz-adv-x="324" d="M167 410q55 0 92 36t37 89q0 50-38 88t-91 38q-54 0-94-38-39-37-39-88 0-55 36.5-90t96.5-35zm-61 123q0 27 17.5 44.5T165 595t41-17.5 17-44.5q0-25-16-42.5T165 473t-42.5 17.5T106 533z"/><glyph glyph-name="plusminus" unicode="±" horiz-adv-x="500" d="M437 371q0 9-4 12.5t-15 3.5H299v137q0 17-18 17h-59q-19 0-19-17V387H80q-18 0-18-16v-51q0-16 18-16h123V158q0-18 19-18h60q17 0 17 18v146h119q11 0 15 3.5t4 12.5v51zm0-284q0 16-19 16H82q-19 0-19-16V41q0-17 19-17h336q19 0 19 17v46z"/><glyph glyph-name="uni00B2" unicode="²" horiz-adv-x="335" d="M242 511q30 33 42.5 61.5T297 640q0 121-144 121-67 0-112-17-21-9-17-30l5-29q1-15 24-12 67 7 99 7t43-11 11-37q0-32-32-67L31 412q-13-13-13-30v-35q0-17 20-17h249q18 0 18 17v45q0 17-18 17H150l-1 2z"/><glyph glyph-name="uni00B3" unicode="³" horiz-adv-x="335" d="M283 670q17 17 17 34v37q0 16-22 16H47q-17 0-17-17v-44q0-16 17-16h127l1-5-71-70q-11-11-11-23v-23q0-23 24-27l63-11q43-7 43-39 0-44-18-60t-56-16q-31 0-95 10-21 5-26-15l-5-26q-5-19 10-26 17-9 56-17 38-6 62-6 83 0 123 36.5T314 487q0 84-77 104l-23 6q0 2 1 5z"/><glyph glyph-name="acute" unicode="´" horiz-adv-x="448" d="M363 689q10 13-4 22l-57 32q-16 9-23-4l-73-154q-8-15 4-20l33-18q15-7 25 3 25 35 47 68z"/><glyph glyph-name="mu" unicode="µ" horiz-adv-x="462" d="M313 20q0-20 23-20h65q23 0 23 20v450q0 20-23 20h-65q-23 0-23-20V138q-74-44-109-44-30 0-42.5 17T149 172v298q0 20-22 20H60q-22 0-22-20v-633q0-12 4-16.5t18-4.5h66q23 0 23 21V2q26-6 60-1 46 1 99 41l5-1V20z"/><glyph glyph-name="paragraph" unicode="¶" horiz-adv-x="473" d="M204 663q-86 0-136.5-53.5T17 460q0-63 38-115 39-50 105-52V-80q0-20 23-20h45q22 0 22 20v650h72V-80q0-20 22-20h46q22 0 22 20v649h26q18 0 18 20v55q0 19-22 19H204z"/><glyph glyph-name="periodcentered" unicode="·" horiz-adv-x="185" d="M151 260q0 31-13 45.5T92 320q-59 0-59-60 0-61 59-61t59 61z"/><glyph glyph-name="cedilla" unicode="¸" horiz-adv-x="370" d="M234-120q0-36-42-36-23 0-53 5-13 1-16-7l-5-26q-2-9 6-12 27-12 73-12 53 0 81 23.5t28 66.5q0 34-19 52.5T222-44l18 54q2 8-8 8h-34q-7 0-12-8l-23-74q-6-22 15-24 33-2 44.5-8t11.5-24z"/><glyph glyph-name="uni00B9" unicode="¹" horiz-adv-x="305" d="M270 392q0 16-16 16h-55v332q0 6-1 9t-5.5 5.5T179 757h-43q-18 0-38-9l-45-20q-15-8-15-21v-26q0-15 16-15h53V408H57q-16 0-16-16v-45q0-10 3.5-13t12.5-3h197q10 0 13 3.5t3 12.5v45z"/><glyph glyph-name="ordmasculine" unicode="º" horiz-adv-x="315" d="M297 409q0 68-24 110-29 54-116 54-137 0-137-164 0-59 11-94 7-24 21-41 35-39 105-39 94 0 119 60 21 48 21 114zm-140 88q30 0 41.5-21t11.5-72-11.5-72-41.5-21q-29 0-39.5 21T107 404t10.5 72 39.5 21z"/><glyph glyph-name="guillemotright" unicode="»" horiz-adv-x="423" d="M233 175q12 17-1 33l-86 125q-9 12-16 16t-22 4H42q-8 0-10.5-5.5T35 334l100-143L31 44q-4-5-2-9.5t8-4.5h72q23 0 33 15zm163 0q11 17-1 33l-87 125q-14 20-38 20h-65q-20 0-8-19l101-143L194 44q-4-5-2-9.5t8-4.5h72q22 0 33 15z"/><glyph glyph-name="onequarter" unicode="¼" horiz-adv-x="801" d="M744 160q0 17-17 17h-32v233q0 15-20 15h-46q-17 0-28-14L430 179q-10-16-10-32v-30q0-16 21-16h166V15q0-10 3.5-12.5T626 0h50q11 0 15 3t4 13v85h32q17 0 17 16v43zm-232 16 95 130V176h-95zM286 302q0 16-16 16h-55v332q0 6-1 9t-5.5 5.5T195 667h-43q-18 0-38-9l-45-20q-15-8-15-21v-26q0-15 16-15h53V318H73q-16 0-16-16v-45q0-10 3.5-13t12.5-3h197q10 0 13 3.5t3 12.5v45zm267 382q4 16-12 16h-50q-13 0-21-17L232-7q-4-16 13-16h51q14 0 18 13z"/><glyph glyph-name="onehalf" unicode="½" horiz-adv-x="801" d="M695 180q30 33 42.5 61.5T750 309q0 122-144 122-66 0-112-18-21-9-17-30l5-29q2-14 24-12 67 7 99 7t43-11 11-36q0-33-32-68L484 81q-13-10-13-30V16q0-17 20-17h249q18 0 18 17v45q0 17-18 17H603l-1 2zM275 302q0 16-16 16h-55v332q0 6-1 9t-5.5 5.5T184 667h-43q-19 0-38-9l-45-20q-15-8-15-21v-26q0-15 16-15h53V318H62q-16 0-16-16v-45q0-10 3.5-13t12.5-3h197q10 0 13 3.5t3 12.5v45zm263 382q4 16-12 16h-50q-13 0-21-17L217-7q-4-16 13-16h51q14 0 18 13z"/><glyph glyph-name="threequarters" unicode="¾" horiz-adv-x="801" d="M771 160q0 17-17 17h-32v233q0 15-20 15h-46q-17 0-28-14L457 179q-10-16-10-32v-30q0-16 21-16h166V15q0-10 3.5-12.5T653 0h50q11 0 15 3t4 13v85h32q17 0 17 16v43zm-232 16 95 130V176h-95zM292 580q17 17 17 34v37q0 16-22 16H56q-17 0-17-17v-44q0-16 17-16h127l1-5-71-70q-11-11-11-23v-23q0-23 24-27l63-11q43-7 43-39 0-44-18-60t-56-16q-31 0-95 10-21 5-26-15l-5-26q-5-19 10-26 17-9 56-17 38-6 62-6 83 0 123 36.5T323 397q0 84-77 104l-23 6q0 2 1 5zm277 104q4 16-12 16h-50q-13 0-21-17L248-7q-4-16 13-16h51q14 0 18 13z"/><glyph glyph-name="questiondown" unicode="¿" horiz-adv-x="340" d="M13-32q0-76 45.5-117T191-190q72 0 117 22 21 9 18 27l-5 41q-2 10-7.5 13.5T294-85q-50-7-89-7-42 0-61 16t-19 52q0 30 35 60 39 38 54 56 19 24 33 59 16 36 16 81 0 36-3 59-2 11-6.5 14.5T237 309h-57q-19 0-19-20 1-11 1-47 0-45-17-75t-57-65Q44 67 26 27 13 1 13-32zm135 464q0-30 13-44.5t46-14.5q59 0 59 59 0 30-12.5 45T207 492q-59 0-59-60z"/><glyph glyph-name="Agrave" unicode="À" horiz-adv-x="516" d="M386 21q3-12 8-16.5T412 0h85q18 0 12 20L333 642q-6 21-29 21h-84q-23 0-29-21L15 21Q9 0 30 0h75q22 0 28 21l36 144h181zM264 537q7-43 25-117l38-162H192l12 45 19 75 11 44q1 5 7.5 33t12 52 6.5 30h4zm0 174q13-6 23 10l21 31q6 10-6 20L164 872q-12 9-22-7l-35-55q-9-15 7-22z"/><glyph glyph-name="Aacute" unicode="Á" horiz-adv-x="516" d="M386 21q3-12 8-16.5T412 0h85q18 0 12 20L333 642q-6 21-29 21h-84q-23 0-29-21L15 21Q9 0 30 0h75q22 0 28 21l36 144h181zM264 537q7-43 25-117l38-162H192l12 45 19 75 11 44q1 5 7.5 33t12 52 6.5 30h4zm138 250q16 7 7 22l-35 55q-10 16-22 7L214 771q-12-10-6-20l21-31q10-16 23-10z"/><glyph glyph-name="Acircumflex" unicode="Â" horiz-adv-x="516" d="M386 21q3-12 8-16.5T412 0h85q18 0 12 20L333 642q-6 21-29 21h-84q-23 0-29-21L15 21Q9 0 30 0h75q22 0 28 21l36 144h181zM264 537q7-43 25-117l38-162H192l12 45 19 75 11 44q1 5 7.5 33t12 52 6.5 30h4zm149 195q10 10-1 21l-98 104q-11 11-32 11h-49q-18 0-28-10L105 752q-13-12-1-24l24-25q8-13 25 1l104 84 104-79q16-15 28-3z"/><glyph glyph-name="Atilde" unicode="Ã" horiz-adv-x="516" d="M386 21q3-12 8-16.5T412 0h85q18 0 12 20L333 642q-6 21-29 21h-84q-23 0-29-21L15 21Q9 0 30 0h75q22 0 28 21l36 144h181zM264 537q7-43 25-117l38-162H192l12 45 19 75 11 44q1 5 7.5 33t12 52 6.5 30h4zm67 182q68 0 98 89 7 16-8 24l-28 14q-13 6-23-10-20-33-40-33-7 0-61 26-44 24-73 24-67 0-102-92-6-14 7-21l27-14q12-5 14.5-4t8.5 10q21 36 44 36 15 0 64-24 49-25 72-25z"/><glyph glyph-name="Adieresis" unicode="Ä" horiz-adv-x="516" d="M386 21q3-12 8-16.5T412 0h85q18 0 12 20L333 642q-6 21-29 21h-84q-23 0-29-21L15 21Q9 0 30 0h75q22 0 28 21l36 144h181zM264 537q7-43 25-117l38-162H192l12 45 19 75 11 44q1 5 7.5 33t12 52 6.5 30h4zm-93 190q31 0 42.5 14t11.5 43q0 28-11.5 40.5T171 837q-54 0-54-53 0-30 11.5-43.5T171 727zm169 0q31 0 42.5 14t11.5 43q0 28-11.5 40.5T340 837q-53 0-53-53 0-30 11-43.5t42-13.5z"/><glyph glyph-name="Aring" unicode="Å" horiz-adv-x="516" d="M386 21q3-12 8-16.5T412 0h85q18 0 12 20L333 642q-6 21-29 21h-84q-23 0-29-21L15 21Q9 0 30 0h75q22 0 28 21l36 144h181zM264 537q7-43 25-117l38-162H192l12 45 19 75 11 44q1 5 7.5 33t12 52 6.5 30h4zm73 180q30 30 30 72t-30 72-74 30-76-29q-31-28-31-73t31-73 76-28q43 0 74 29zm-74 119q18 0 30.5-14.5T306 789q2-28-20.5-40.5t-45-.5-19.5 41q0 18 12.5 32.5T263 836z"/><glyph glyph-name="AE" unicode="Æ" horiz-adv-x="773" d="M755 81q0 18-19 18H503v200h196q12 0 15.5 4t3.5 14v63q0 17-19 17H503v167h220q21 0 21 18v63q0 18-20 18H353q-16 0-22.5-3.5T318 644L15 20Q4 0 26 0h80q24 0 33 19l71 146h177q0-136 1-147 0-18 21-18h326q12 0 16 4t4 14v63zM387 258H250l132 283h5V258z"/><glyph glyph-name="Ccedilla" unicode="Ç" horiz-adv-x="490" d="M46 327Q46 22 242-6l-19-58q-6-22 15-24 34-2 45-8t11-24q0-36-43-36-20 0-52 5-9 1-11 0t-4-7l-6-26q-2-8 7-13 30-11 72-11 53 0 81 23.5t28 66.5q0 34-19 52.5T282-44l12 36q98 1 161 29 23 11 19 33l-8 38q-6 18-30 16-83-10-141-10-71 0-99 56.5T168 328q0 103 21 165 26 71 106 71 54 0 141-10 25-4 29 15l8 41q3 21-20 32-63 28-164 28-165 0-216-150-27-78-27-193z"/><glyph glyph-name="Egrave" unicode="È" horiz-adv-x="460" d="M432 81q0 18-18 18H168v200h207q12 0 16 4t4 14v63q0 17-20 17H168v167h233q12 0 15.5 4t3.5 14v63q0 18-20 18H74q-22 0-22-19V18Q52 0 74 0h338q12 0 16 4t4 14v63zM252 711q13-6 23 10l21 31q6 10-6 20L152 872q-12 9-22-7l-35-55q-9-15 7-22z"/><glyph glyph-name="Eacute" unicode="É" horiz-adv-x="460" d="M432 81q0 18-18 18H168v200h207q12 0 16 4t4 14v63q0 17-20 17H168v167h233q12 0 15.5 4t3.5 14v63q0 18-20 18H74q-22 0-22-19V18Q52 0 74 0h338q12 0 16 4t4 14v63zm-73 706q16 7 7 22l-35 55q-10 16-22 7L171 771q-12-10-6-20l21-31q10-16 23-10z"/><glyph glyph-name="Ecircumflex" unicode="Ê" horiz-adv-x="460" d="M432 81q0 18-18 18H168v200h207q12 0 16 4t4 14v63q0 17-20 17H168v167h233q12 0 15.5 4t3.5 14v63q0 18-20 18H74q-22 0-22-19V18Q52 0 74 0h338q12 0 16 4t4 14v63zm-38 651q10 10-1 21l-98 104q-11 11-32 11h-49q-18 0-28-10L86 752q-12-12-1-24l24-25q8-13 25 1l104 84 104-79q16-15 28-3z"/><glyph glyph-name="Edieresis" unicode="Ë" horiz-adv-x="460" d="M432 81q0 18-18 18H168v200h207q12 0 16 4t4 14v63q0 17-20 17H168v167h233q12 0 15.5 4t3.5 14v63q0 18-20 18H74q-22 0-22-19V18Q52 0 74 0h338q12 0 16 4t4 14v63zM153 727q31 0 42.5 14t11.5 43q0 28-11.5 40.5T153 837q-54 0-54-53 0-30 11.5-43.5T153 727zm169 0q31 0 42.5 14t11.5 43q0 28-11.5 40.5T322 837q-53 0-53-53 0-30 11-43.5t42-13.5z"/><glyph glyph-name="Igrave" unicode="Ì" horiz-adv-x="241" d="M146 711q13-6 23 10l21 31q6 10-6 20L46 872q-12 9-22-7l-35-55q-9-15 7-22zm41-67q0 19-21 19H93q-22 0-22-19V19Q71 0 93 0h73q21 0 21 19v625z"/><glyph glyph-name="Iacute" unicode="Í" horiz-adv-x="241" d="M251 787q16 7 7 22l-35 55q-10 16-22 7L63 771q-12-10-6-20l21-31q10-16 23-10zm-67-143q0 19-21 19H90q-22 0-22-19V19Q68 0 90 0h73q21 0 21 19v625z"/><glyph glyph-name="Icircumflex" unicode="Î" horiz-adv-x="241" d="M189 644q0 19-21 19H95q-22 0-22-19V19Q73 0 95 0h73q21 0 21 19v625zm100 88q10 10-1 21l-98 104q-11 11-32 11h-49q-18 0-28-10L-19 752q-12-12-1-24l24-25q8-13 25 1l104 84 104-79q16-15 28-3z"/><glyph glyph-name="Idieresis" unicode="Ï" horiz-adv-x="241" d="M38 727q31 0 42.5 14T92 784q0 28-11.5 40.5T38 837q-54 0-54-53 0-30 11.5-43.5T38 727zm169 0q31 0 42.5 14t11.5 43q0 28-11.5 40.5T207 837q-53 0-53-53 0-30 11-43.5t42-13.5zm-29-83q0 19-21 19H84q-22 0-22-19V19Q62 0 84 0h73q21 0 21 19v625z"/><glyph glyph-name="Eth" unicode="Ð" horiz-adv-x="554" d="M508 333q0 144-51 231-56 99-213 99H76q-21 0-21-19V376H22q-17 0-17-17v-47q0-15 17-15h33V19Q55 0 78 0h166q179 0 233 138 31 76 31 195zm-236 27q0 16-17 16h-86v188h71q75 0 112-55.5T389 325q0-137-49-184-42-41-113-41h-58v197h86q17 0 17 16v47z"/><glyph glyph-name="Ntilde" unicode="Ñ" horiz-adv-x="563"/><glyph glyph-name="Ograve" unicode="Ò" horiz-adv-x="575" d="M531 341q0 114-24 186-15 46-41 75-60 69-180 69-242 0-242-330 0-59 3-101 3-39 17-92 14-50 38-82Q162-9 285-9q169 0 220 143 22 57 24 136 2 42 2 71zm-119-10q0-124-29-181t-97-57q-67 0-94 57t-27 181q0 123 28 181.5t93 58.5q69 0 97.5-57T412 331zM300 711q13-6 23 10l21 31q6 10-6 20L200 872q-12 9-22-7l-35-55q-9-15 7-22z"/><glyph glyph-name="Oacute" unicode="Ó" horiz-adv-x="575" d="M531 341q0 114-24 186-15 46-41 75-60 69-180 69-242 0-242-330 0-59 3-101 3-39 17-92 14-50 38-82Q162-9 285-9q169 0 220 143 22 57 24 136 2 42 2 71zm-119-10q0-124-29-181t-97-57q-67 0-94 57t-27 181q0 123 28 181.5t93 58.5q69 0 97.5-57T412 331zm16 456q16 7 7 22l-35 55q-10 16-22 7L240 771q-12-10-6-20l21-31q10-16 23-10z"/><glyph glyph-name="Ocircumflex" unicode="Ô" horiz-adv-x="575" d="M531 341q0 114-24 186-15 46-41 75-60 69-180 69-242 0-242-330 0-59 3-101 3-39 17-92 14-50 38-82Q162-9 285-9q169 0 220 143 22 57 24 136 2 42 2 71zm-119-10q0-124-29-181t-97-57q-67 0-94 57t-27 181q0 123 28 181.5t93 58.5q69 0 97.5-57T412 331zm33 401q10 10-1 21l-98 104q-11 11-32 11h-49q-18 0-28-10L137 752q-13-12-1-24l24-25q8-13 25 1l104 84 104-79q16-15 28-3z"/><glyph glyph-name="Otilde" unicode="Õ" horiz-adv-x="575" d="M531 341q0 114-24 186-15 46-41 75-60 69-180 69-242 0-242-330 0-59 3-101 3-39 17-92 14-50 38-82Q162-9 285-9q169 0 220 143 22 57 24 136 2 42 2 71zm-119-10q0-124-29-181t-97-57q-67 0-94 57t-27 181q0 123 28 181.5t93 58.5q69 0 97.5-57T412 331zm-58 392q68 0 98 89 7 16-8 24l-28 14q-13 6-23-10-19-33-40-33-7 0-61 26-43 24-73 24-67 0-102-92-6-14 7-21l27-14q12-5 14.5-4t8.5 10q21 36 44 36 14 0 64-24 49-25 72-25z"/><glyph glyph-name="Odieresis" unicode="Ö" horiz-adv-x="575" d="M531 341q0 114-24 186-15 46-41 75-60 69-180 69-242 0-242-330 0-59 3-101 3-39 17-92 14-50 38-82Q162-9 285-9q169 0 220 143 22 57 24 136 2 42 2 71zm-119-10q0-124-29-181t-97-57q-67 0-94 57t-27 181q0 123 28 181.5t93 58.5q69 0 97.5-57T412 331zM201 727q31 0 42.5 14t11.5 43q0 28-11.5 40.5T201 837q-54 0-54-53 0-30 11.5-43.5T201 727zm169 0q31 0 42.5 14t11.5 43q0 28-11.5 40.5T370 837q-53 0-53-53 0-30 11-43.5t42-13.5z"/><glyph glyph-name="multiply" unicode="×" horiz-adv-x="500" d="M368 142q10-14 24 0l38 33q11 11-1 24L321 322l107 120q10 14 0 24l-32 28q-20 20-33 6L263 386 159 503q-11 13-24 0l-38-33q-12-12 1-24l108-123L98 202q-14-14-1-24l40-38q13-13 24 1l103 118z"/><glyph glyph-name="Oslash" unicode="Ø" horiz-adv-x="575" d="M531 341q0 173-57 249l30 49q7 13-3 20l-19 12q-11 6-22-8l-22-36q-59 44-152 44-242 0-242-330 0-192 56-270L71 24q-7-13 2-19L94-7q12-7 22 7l20 34Q191-9 285-9q169 0 220 143 22 57 24 136 2 42 2 71zm-119-10q0-124-29-181t-97-57q-60 0-87 44l201 330q12-54 12-136zm-247 0q0 123 28 181.5t93 58.5q62 0 90-45L176 196q-11 53-11 135z"/><glyph glyph-name="Ugrave" unicode="Ù" horiz-adv-x="547" d="M273 95q-57 0-82 34.5T166 241v402q0 20-23 20H75q-14 0-19-4.5T51 643V234Q51-8 273-8q111 0 167.5 63T497 234v409q0 20-23 20h-68q-23 0-23-20V241q0-75-27-110.5T273 95zm24 616q13-6 23 10l21 31q6 10-6 20L197 872q-12 9-22-7l-35-55q-9-15 7-22z"/><glyph glyph-name="Uacute" unicode="Ú" horiz-adv-x="547" d="M273 95q-57 0-82 34.5T166 241v402q0 20-23 20H75q-14 0-19-4.5T51 643V234Q51-8 273-8q111 0 167.5 63T497 234v409q0 20-23 20h-68q-23 0-23-20V241q0-75-27-110.5T273 95zm134 692q16 7 7 22l-35 55q-10 16-22 7L219 771q-12-10-6-20l21-31q10-16 23-10z"/><glyph glyph-name="Ucircumflex" unicode="Û" horiz-adv-x="547" d="M273 95q-57 0-82 34.5T166 241v402q0 20-23 20H75q-14 0-19-4.5T51 643V234Q51-8 273-8q111 0 167.5 63T497 234v409q0 20-23 20h-68q-23 0-23-20V241q0-75-27-110.5T273 95zm160 637q10 10-1 21l-98 104q-11 11-32 11h-49q-18 0-28-10L125 752q-13-12-1-24l24-25q8-13 25 1l104 84 104-79q16-15 28-3z"/><glyph glyph-name="Udieresis" unicode="Ü" horiz-adv-x="547" d="M273 95q-57 0-82 34.5T166 241v402q0 20-23 20H75q-14 0-19-4.5T51 643V234Q51-8 273-8q111 0 167.5 63T497 234v409q0 20-23 20h-68q-23 0-23-20V241q0-75-27-110.5T273 95zm-83 632q31 0 42.5 14t11.5 43q0 28-11.5 40.5T190 837q-54 0-54-53 0-30 11.5-43.5T190 727zm169 0q31 0 42.5 14t11.5 43q0 28-11.5 40.5T359 837q-53 0-53-53 0-30 11-43.5t42-13.5z"/><glyph glyph-name="Yacute" unicode="Ý" horiz-adv-x="495" d="M247 376q-4 10-20.5 54T202 492l-55 131q-11 27-17.5 33t-24.5 6H24q-7 0-11-5.5t0-12.5l179-373V18q0-18 22-18h72q20 0 20 18v253l183 373q7 18-13 18h-78q-14 0-20-3.5T367 643l-66-147q-36-81-48-120h-6zm139 411q16 7 7 22l-35 55q-10 16-22 7L198 771q-12-10-6-20l21-31q10-16 23-10z"/><glyph glyph-name="Thorn" unicode="Þ" horiz-adv-x="471" d="M455 343q0 95-55 147t-150 52h-82v102q0 10-4.5 14.5T147 663H73q-21 0-21-19V19Q52 0 74 0h74q20 0 20 19v117h83q119 0 165 70 39 60 39 137zm-116-3q0-108-97-108h-74v211h70q101 0 101-103z"/><glyph glyph-name="germandbls" unicode="ß" horiz-adv-x="463" d="M335 411q30 19 44.5 54.5T394 536q0 83-48 128.5T215 710q-79 0-128.5-53.5T37 503V16Q37-2 60-2h64q24 0 24 19v500q0 96 70 96 28 0 47.5-23t19.5-59q0-90-57-103-19-4-19-22v-42q0-12 18-14 49-6 70.5-36.5T319 217q0-72-23-104t-78-32q-20 0-22-14l-4-47q-3-30 72-30 83 0 126.5 57.5T434 211q0 160-99 196v4z"/><glyph glyph-name="agrave" unicode="à" horiz-adv-x="472" d="M302 128q-64-45-114-45-26 0-36.5 12.5T141 139q0 82 68 82h93v-93zM156-8q82 0 153 56h2l1-1q7-28 26-39.5T394-4q33 0 50 7 17 5 17 23v39q0 13-21 15-20 1-23.5 7.5T413 125v187q0 89-31 136-35 52-148 52-103 0-158-28-16-7-13-26l8-37q3-17 20-14 80 10 126 10 47 0 66.5-19.5T303 323v-22H202q-88 0-131-40.5T28 134q0-71 30-106.5T156-8zm61 747q-7 13-23 2l-49-33q-18-13-8-26l102-134q9-12 21-4l35 24q10 7 3 20z"/><glyph glyph-name="aacute" unicode="á" horiz-adv-x="472" d="M302 128q-64-45-114-45-26 0-36.5 12.5T141 139q0 82 68 82h93v-93zM156-8q82 0 153 56h2l1-1q7-28 26-39.5T394-4q33 0 50 7 17 5 17 23v39q0 13-21 15-20 1-23.5 7.5T413 125v187q0 89-31 136-35 52-148 52-103 0-158-28-16-7-13-26l8-37q3-17 20-14 80 10 126 10 47 0 66.5-19.5T303 323v-22H202q-88 0-131-40.5T28 134q0-71 30-106.5T156-8zm194 697q10 13-4 22l-57 32q-16 9-23-4l-73-154q-8-15 4-20l33-18q15-7 25 3 25 35 47 68z"/><glyph glyph-name="acircumflex" unicode="â" horiz-adv-x="472" d="M302 128q-64-45-114-45-26 0-36.5 12.5T141 139q0 82 68 82h93v-93zM156-8q82 0 153 56h2l1-1q7-28 26-39.5T394-4q33 0 50 7 17 5 17 23v39q0 13-21 15-20 1-23.5 7.5T413 125v187q0 89-31 136-35 52-148 52-103 0-158-28-16-7-13-26l8-37q3-17 20-14 80 10 126 10 47 0 66.5-19.5T303 323v-22H202q-88 0-131-40.5T28 134q0-71 30-106.5T156-8zm-37 549q14-11 24 1l98 100 100-101q13-11 24 0l26 24q11 11 0 21l-92 127q-9 12-34 12h-49q-19 0-28-10L93 588q-11-14 0-24z"/><glyph glyph-name="atilde" unicode="ã" horiz-adv-x="472" d="M302 128q-64-45-114-45-26 0-36.5 12.5T141 139q0 82 68 82h93v-93zM156-8q82 0 153 56h2l1-1q7-28 26-39.5T394-4q33 0 50 7 17 5 17 23v39q0 13-21 15-20 1-23.5 7.5T413 125v187q0 89-31 136-35 52-148 52-103 0-158-28-16-7-13-26l8-37q3-17 20-14 80 10 126 10 47 0 66.5-19.5T303 323v-22H202q-88 0-131-40.5T28 134q0-71 30-106.5T156-8zm149 568q68 0 98 89 7 16-8 24l-28 14q-13 6-23-10-20-33-40-33-7 0-61 26-43 24-73 24-67 0-102-92-6-14 7-21l27-14q12-5 14.5-4t8.5 10q21 36 44 36 15 0 64-24 49-25 72-25z"/><glyph glyph-name="adieresis" unicode="ä" horiz-adv-x="472" d="M302 128q-64-45-114-45-26 0-36.5 12.5T141 139q0 82 68 82h93v-93zM156-8q82 0 153 56h2l1-1q7-28 26-39.5T394-4q33 0 50 7 17 5 17 23v39q0 13-21 15-20 1-23.5 7.5T413 125v187q0 89-31 136-35 52-148 52-103 0-158-28-16-7-13-26l8-37q3-17 20-14 80 10 126 10 47 0 66.5-19.5T303 323v-22H202q-88 0-131-40.5T28 134q0-71 30-106.5T156-8zm-6 567q31 0 42.5 14t11.5 43q0 27-12 40t-42 13q-55 0-55-53 0-30 12-43.5t43-13.5zm172 0q31 0 43 14t12 43q0 28-12 40.5T322 669q-54 0-54-53 0-30 11.5-43.5T322 559z"/><glyph glyph-name="aring" unicode="å" horiz-adv-x="472" d="M302 128q-64-45-114-45-26 0-36.5 12.5T141 139q0 82 68 82h93v-93zM156-8q82 0 153 56h2l1-1q7-28 26-39.5T394-4q33 0 50 7 17 5 17 23v39q0 13-21 15-20 1-23.5 7.5T413 125v187q0 89-31 136-35 52-148 52-103 0-158-28-16-7-13-26l8-37q3-17 20-14 80 10 126 10 47 0 66.5-19.5T303 323v-22H202q-88 0-131-40.5T28 134q0-71 30-106.5T156-8zm159 571q30 30 30 72t-30 72-74 30-76-29q-31-28-31-73t31-73 76-28q43 0 74 29zm-74 119q18 0 30.5-14.5T284 635q2-28-20.5-40.5t-45-.5-19.5 41q0 18 12.5 32.5T241 682z"/><glyph glyph-name="ae" unicode="æ" horiz-adv-x="711" d="M500 409q43 0 60-29t19-90H421q2 64 20 91.5t59 27.5zM192 83q-29 0-39 13.5T143 147q5 65 66 65h98q1-48 9-80-26-17-64-34-38-15-60-15zm47 416q-103 0-158-28-16-7-13-26l8-37q3-17 20-14 80 10 126 10 48 0 66.5-17.5T307 326v-35H202q-90 0-130.5-38T31 131q0-70 30.5-104.5T160-8q106 0 186 69Q389-9 504-9q105 0 149 28 14 8 14 28l-6 34q-3 20-22 17-71-10-121-10-51 0-73 27.5T420 213h223q49 0 49 62 0 224-188 224-80 0-130-53-38 53-135 53z"/><glyph glyph-name="ccedilla" unicode="ç" horiz-adv-x="391" d="M237-120q0-36-42-36-23 0-53 5-13 1-16-7l-5-26q-1-9 6-12 27-12 73-12 53 0 81 23.5t28 66.5q0 34-19 52.5T225-44l12 36q89 5 131 27 15 10 12 28l-7 37q-4 18-28 14-59-9-114-9-48 0-67 35t-19 125q0 82 19.5 117t67.5 35q28 0 114-9 20-2 24 15l7 41q3 18-11 24-60 28-145 28-133 0-170-112-20-56-20-142 0-103 26-167Q89 6 184-6l-18-58q-6-22 15-24 33-2 44.5-8t11.5-24z"/><glyph glyph-name="egrave" unicode="è" horiz-adv-x="439" d="M224 410q43 0 60-29t19-90H145q2 63 20.5 91t58.5 28zm5-419q90 0 147 28 20 11 15 30l-6 35q-3 18-30 14-67-9-112-9-51 0-73.5 28T145 215h222q27 0 38.5 14.5T417 276q0 88-35 151-39 73-157 73-194 0-194-257 0-110 34-174Q106-9 229-9zm-35 748q-7 13-23 2l-49-33q-18-13-8-26l102-134q9-12 21-4l35 24q10 7 3 20z"/><glyph glyph-name="eacute" unicode="é" horiz-adv-x="439" d="M224 410q43 0 60-29t19-90H145q2 63 20.5 91t58.5 28zm5-419q90 0 147 28 20 11 15 30l-6 35q-3 18-30 14-67-9-112-9-51 0-73.5 28T145 215h222q27 0 38.5 14.5T417 276q0 88-35 151-39 73-157 73-194 0-194-257 0-110 34-174Q106-9 229-9zm112 698q10 13-4 22l-57 32q-16 9-23-4l-73-154q-8-15 4-20l33-18q15-7 25 3 25 35 47 68z"/><glyph glyph-name="ecircumflex" unicode="ê" horiz-adv-x="439" d="M224 410q43 0 60-29t19-90H145q2 63 20.5 91t58.5 28zm5-419q90 0 147 28 20 11 15 30l-6 35q-3 18-30 14-67-9-112-9-51 0-73.5 28T145 215h222q27 0 38.5 14.5T417 276q0 88-35 151-39 73-157 73-194 0-194-257 0-110 34-174Q106-9 229-9zM105 541q14-11 24 1l98 100 100-101q13-11 24 0l26 24q11 11 0 21l-92 127q-9 12-34 12h-49q-19 0-28-10L79 588q-11-14 0-24z"/><glyph glyph-name="edieresis" unicode="ë" horiz-adv-x="439" d="M224 410q43 0 60-29t19-90H145q2 63 20.5 91t58.5 28zm5-419q90 0 147 28 20 11 15 30l-6 35q-3 18-30 14-67-9-112-9-51 0-73.5 28T145 215h222q27 0 38.5 14.5T417 276q0 88-35 151-39 73-157 73-194 0-194-257 0-110 34-174Q106-9 229-9zm-88 568q31 0 42.5 14t11.5 43q0 27-12 40t-42 13q-55 0-55-53 0-30 12-43.5t43-13.5zm172 0q31 0 43 14t12 43q0 28-12 40.5T313 669q-54 0-54-53 0-30 11.5-43.5T313 559z"/><glyph glyph-name="igrave" unicode="ì" horiz-adv-x="243" d="M188 471q0 19-18 19H97q-20 0-20-19V19Q77 0 97 0h73q18 0 18 19v452zM93 739q-7 13-23 2l-49-33q-18-13-8-26l102-134q9-12 21-4l35 24q10 7 3 20z"/><glyph glyph-name="iacute" unicode="í" horiz-adv-x="243"/><glyph glyph-name="icircumflex" unicode="î" horiz-adv-x="243" d="M14 541q14-11 24 1l98 100 100-101q14-11 24 0l26 24q10 11 0 21l-92 127q-9 12-34 12h-49q-19 0-28-10l-95-127q-10-14 0-24zm174-70q0 19-18 19H97q-20 0-20-19V19Q77 0 97 0h73q18 0 18 19v452z"/><glyph glyph-name="idieresis" unicode="ï" horiz-adv-x="243" d="M39 559q31 0 42.5 14T93 616q0 27-12 40t-42 13q-55 0-55-53 0-30 12-43.5T39 559zm172 0q31 0 43 14t12 43q0 28-12 40.5T211 669q-54 0-54-53 0-30 11.5-43.5T211 559zm-34-88q0 19-18 19H86q-20 0-20-19V19Q66 0 86 0h73q18 0 18 19v452z"/><glyph glyph-name="eth" unicode="ð" horiz-adv-x="458" d="M223 396q46 0 85-24 8-43 8-118 0-70-14-112-17-56-74-56-50 0-67.5 40T143 236q0 83 17 121.5t63 38.5zm68 77q-32 16-74 16-186 0-186-252Q31-8 224-8q79 3 122.5 35t60.5 93q19 65 19 164 0 203-98 328l51 24q11 5 8 17l-10 22q-5 11-9.5 12.5T354 684l-63-30q-47 44-120 78-16 6-23 3t-12-15l-15-28q-7-13 20-32 47-28 68-50l-59-27q-16-6-11-18l11-24q5-12 21-5l41 17 36 17q25-31 48-94z"/><glyph glyph-name="ntilde" unicode="ñ" horiz-adv-x="458" d="M146 471q0 19-20 19H56q-20 0-20-19V19Q36 0 56 0h69q21 0 21 19v342q70 36 109 36 31 0 43.5-19.5T311 308q0-61-1-144V19q0-19 21-19h70q21 0 21 19v290q0 71-12 110-7 24-22 43-33 37-103 37-66 0-134-51l-5 2v21zm141 89q68 0 98 89 7 16-8 24l-28 14q-13 6-23-10-19-33-40-33-7 0-61 26-43 24-73 24-67 0-102-92-6-14 7-21l27-14q12-5 14.5-4t8.5 10q21 36 44 36 15 0 64-24 49-25 72-25z"/><glyph glyph-name="ograve" unicode="ò" horiz-adv-x="457" d="M424 253q0 83-19 136-13 36-33 58-48 53-147 53-194 0-194-247 0-87 16-142 13-39 31-62Q126-8 225-8q152 6 182 119 17 55 17 142zM226 404q50 0 68-35.5T312 246q0-86-18.5-122T225 88q-47 0-64.5 36T143 246q0 84 18 121t65 37zm-34 335q-7 13-23 2l-49-33q-18-13-8-26l102-134q9-12 21-4l35 24q10 7 3 20z"/><glyph glyph-name="oacute" unicode="ó" horiz-adv-x="457" d="M424 253q0 83-19 136-13 36-33 58-48 53-147 53-194 0-194-247 0-87 16-142 13-39 31-62Q126-8 225-8q152 6 182 119 17 55 17 142zM226 404q50 0 68-35.5T312 246q0-86-18.5-122T225 88q-47 0-64.5 36T143 246q0 84 18 121t65 37zm119 285q10 13-4 22l-57 32q-16 9-23-4l-73-154q-8-15 4-20l33-18q15-7 25 3 25 35 47 68z"/><glyph glyph-name="ocircumflex" unicode="ô" horiz-adv-x="457" d="M424 253q0 83-19 136-13 36-33 58-48 53-147 53-194 0-194-247 0-87 16-142 13-39 31-62Q126-8 225-8q152 6 182 119 17 55 17 142zM226 404q50 0 68-35.5T312 246q0-86-18.5-122T225 88q-47 0-64.5 36T143 246q0 84 18 121t65 37zM107 541q14-11 24 1l98 100 100-101q13-11 24 0l26 24q11 11 0 21l-92 127q-9 12-34 12h-49q-19 0-28-10L81 588q-11-14 0-24z"/><glyph glyph-name="otilde" unicode="õ" horiz-adv-x="457" d="M424 253q0 83-19 136-13 36-33 58-48 53-147 53-194 0-194-247 0-87 16-142 13-39 31-62Q126-8 225-8q152 6 182 119 17 55 17 142zM226 404q50 0 68-35.5T312 246q0-86-18.5-122T225 88q-47 0-64.5 36T143 246q0 84 18 121t65 37zm73 155q68 0 98 89 7 16-8 24l-28 14q-13 6-23-10-20-33-40-33-7 0-61 26-44 24-73 24-67 0-102-92-6-14 7-21l27-14q12-5 14.5-4t8.5 10q21 36 44 36 15 0 64-24 49-25 72-25z"/><glyph glyph-name="odieresis" unicode="ö" horiz-adv-x="457" d="M424 253q0 83-19 136-13 36-33 58-48 53-147 53-194 0-194-247 0-87 16-142 13-39 31-62Q126-8 225-8q152 6 182 119 17 55 17 142zM226 404q50 0 68-35.5T312 246q0-86-18.5-122T225 88q-47 0-64.5 36T143 246q0 84 18 121t65 37zm-83 155q31 0 42.5 14t11.5 43q0 27-12 40t-42 13q-55 0-55-53 0-30 12-43.5t43-13.5zm172 0q31 0 43 14t12 43q0 28-12 40.5T315 669q-54 0-54-53 0-30 11.5-43.5T315 559z"/><glyph glyph-name="divide" unicode="÷" horiz-adv-x="500" d="M306 484q0 29-13 43t-45 14q-33 0-46-14t-13-43q0-32 12.5-46.5T248 423q32 0 45 15t13 46zm0-318q0 31-12.5 45T248 225q-32 0-45.5-15T189 166q0-31 12.5-46t46.5-15q32 0 45 15t13 46zm125 185q0 16-19 16H82q-19 0-19-16v-52q0-16 19-16h330q19 0 19 16v52z"/><glyph glyph-name="oslash" unicode="ø" horiz-adv-x="457" d="M424 253q0 124-44 183l22 36q8 14-2 19l-18 11q-12 5-19-7l-17-27q-47 32-121 32-194 0-194-247 0-151 52-209L66 16Q58 4 68-2l18-10q12-9 21 5l13 22Q164-8 225-8q152 6 182 119 17 55 17 142zm-281-7q0 84 18 121t65 37q44 0 63-28L150 152q-7 32-7 94zm169 0q0-86-18.5-122T225 88q-34 0-50 16l133 215q4-25 4-73z"/><glyph glyph-name="ugrave" unicode="ù" horiz-adv-x="456"/><glyph glyph-name="uacute" unicode="ú" horiz-adv-x="456" d="M307 19q0-19 20-19h70q20 0 20 19v452q0 19-20 19h-68q-22 0-22-19V131q-67-37-104-37-30 0-42.5 19T148 185v142q1 83 1 144 0 19-21 19H59q-21 0-21-19V150q0-70 20-111Q84-9 168-9q69 0 134 53l2-1q1-1 3-1V19zm37 670q10 13-4 22l-57 32q-16 9-23-4l-73-154q-8-15 4-20l33-18q15-7 25 3 25 35 47 68z"/><glyph glyph-name="ucircumflex" unicode="û" horiz-adv-x="456"/><glyph glyph-name="udieresis" unicode="ü" horiz-adv-x="456" d="M307 19q0-19 20-19h70q20 0 20 19v452q0 19-20 19h-68q-22 0-22-19V131q-67-37-104-37-30 0-42.5 19T148 185v142q1 83 1 144 0 19-21 19H59q-21 0-21-19V150q0-70 20-111Q84-9 168-9q69 0 134 53l2-1q1-1 3-1V19zM151 559q31 0 42.5 14t11.5 43q0 27-12 40t-42 13q-55 0-55-53 0-30 12-43.5t43-13.5zm172 0q31 0 43 14t12 43q0 28-12 40.5T323 669q-54 0-54-53 0-30 11.5-43.5T323 559z"/><glyph glyph-name="yacute" unicode="ý" horiz-adv-x="433" d="M222 148q-4 25-31 125l-58 200q-5 17-23 17H35q-22 0-14-20L173 6l-56-171q-6-20 15-20h65q14 0 19 4t9 14l203 637q8 20-13 20h-73q-18 0-24-16l-53-188-38-138h-5zm118 541q10 13-4 22l-57 32q-16 9-23-4l-73-154q-8-15 4-20l33-18q15-7 25 3 25 35 47 68z"/><glyph glyph-name="thorn" unicode="þ" horiz-adv-x="456" d="M153 7q51-17 99-17 99 0 139 61.5T431 248q0 128-34 189t-116 61q-30 0-66-14.5T153 448l-3 2v236q0 19-20 19H60q-20 0-20-19v-851q0-12 4-16t16-4h70q20 0 20 20V5zm166 242q0-90-18-126t-62-36q-42 0-89 14v258q19 13 50 23 33 12 55 12 33 0 48-29 16-28 16-116z"/><glyph glyph-name="ydieresis" unicode="ÿ" horiz-adv-x="433" d="M222 148q-4 25-31 125l-58 200q-5 17-23 17H35q-22 0-14-20L173 6l-56-171q-6-20 15-20h65q14 0 19 4t9 14l203 637q8 20-13 20h-73q-18 0-24-16l-53-188-38-138h-5zm-79 411q31 0 42.5 14t11.5 43q0 27-12 40t-42 13q-55 0-55-53 0-30 12-43.5t43-13.5zm172 0q31 0 43 14t12 43q0 28-12 40.5T315 669q-54 0-54-53 0-30 11.5-43.5T315 559z"/><glyph glyph-name="Amacron" unicode="Ā" horiz-adv-x="516" d="M386 21q3-12 8-16.5T412 0h85q18 0 12 20L333 642q-6 21-29 21h-84q-23 0-29-21L15 21Q9 0 30 0h75q22 0 28 21l36 144h181zM264 537q7-43 25-117l38-162H192l12 45 19 75 11 44q1 5 7.5 33t12 52 6.5 30h4zm136 264q0 17-20 17H140q-20 0-20-17v-53q0-17 20-17h240q20 0 20 17v53z"/><glyph glyph-name="amacron" unicode="ā" horiz-adv-x="472" d="M302 128q-64-45-114-45-26 0-36.5 12.5T141 139q0 82 68 82h93v-93zM156-8q82 0 153 56h2l1-1q7-28 26-39.5T394-4q33 0 50 7 17 5 17 23v39q0 13-21 15-20 1-23.5 7.5T413 125v187q0 89-31 136-35 52-148 52-103 0-158-28-16-7-13-26l8-37q3-17 20-14 80 10 126 10 47 0 66.5-19.5T303 323v-22H202q-88 0-131-40.5T28 134q0-71 30-106.5T156-8zm212 646q0 10-4 13t-15 3H107q-19 0-19-16v-53q0-17 19-17h242q19 0 19 17v53z"/><glyph glyph-name="Abreve" unicode="Ă" horiz-adv-x="516" d="M386 21q3-12 8-16.5T412 0h85q18 0 12 20L333 642q-6 21-29 21h-84q-23 0-29-21L15 21Q9 0 30 0h75q22 0 28 21l36 144h181zM264 537q7-43 25-117l38-162H192l12 45 19 75 11 44q1 5 7.5 33t12 52 6.5 30h4zm-6 168q96 0 151 111 9 20-3 26l-26 19q-17 12-29-4-31-40-50-54-17-14-42-14-26 0-45.5 14.5T160 859q-14 16-27 5l-25-24q-12-11-2-30 21-48 63.5-76.5T258 705z"/><glyph glyph-name="abreve" unicode="ă" horiz-adv-x="472" d="M302 128q-64-45-114-45-26 0-36.5 12.5T141 139q0 82 68 82h93v-93zM156-8q82 0 153 56h2l1-1q7-28 26-39.5T394-4q33 0 50 7 17 5 17 23v39q0 13-21 15-20 1-23.5 7.5T413 125v187q0 89-31 136-35 52-148 52-103 0-158-28-16-7-13-26l8-37q3-17 20-14 80 10 126 10 47 0 66.5-19.5T303 323v-22H202q-88 0-131-40.5T28 134q0-71 30-106.5T156-8zM81 649q21-48 63.5-76.5T233 544q45 0 85 28.5t64 78.5q12 22-2 33l-24 17q-17 12-30-6-32-41-50.5-56T234 624q-26 0-45 15t-53 58q-15 19-29 5l-25-22q-10-10-1-31z"/><glyph glyph-name="Aogonek" unicode="Ą" horiz-adv-x="516" d="M420-95q0 43 32 95h45q18 0 12 20L333 642q-6 21-29 21h-84q-23 0-29-21L15 21Q9 0 30 0h75q22 0 28 21l36 144h181l36-144q1-5 4-11-49-56-49-114 0-95 109-94 39 1 73 20 11 6 10 16l-9 30q-3 10-19 6-27-8-45-8-40 0-40 39zM264 537q7-43 25-117l38-162H192l12 45 19 75 11 44q1 5 7.5 33t12 52 6.5 30h4z"/><glyph glyph-name="aogonek" unicode="ą" horiz-adv-x="472" d="M369-95q0 41 29 91 25 1 46 7 17 5 17 23v39q0 13-21 15-20 1-23.5 7.5T413 125v187q0 89-31 136-35 52-148 52-103 0-158-28-16-7-13-26l8-37q3-17 20-14 80 10 126 10 47 0 66.5-19.5T303 323v-22H202q-88 0-131-40.5T28 134q0-71 30-106.5T156-8q82 0 153 56h2l1-1q6-27 25-39-47-59-47-112 0-95 109-94 39 1 73 20 11 6 10 16l-9 30q-3 10-19 6-27-8-45-8-40 0-40 39zm-67 223q-64-45-114-45-26 0-36.5 12.5T141 139q0 82 68 82h93v-93z"/><glyph glyph-name="Cacute" unicode="Ć" horiz-adv-x="490" d="M289 670q-165 0-216-150-27-78-27-193 0-114 27-191 16-44 42-76Q176-8 287-8q102 0 168 29 23 11 19 33l-8 38q-6 18-30 16-83-10-141-10-71 0-99 56.5T168 328q0 103 21 165 26 71 106 71 54 0 141-10 25-4 29 15l8 41q3 21-20 32-63 28-164 28zm122 117q16 7 7 22l-35 55q-10 16-22 7L223 771q-12-10-6-20l21-31q10-16 23-10z"/><glyph glyph-name="cacute" unicode="ć" horiz-adv-x="391" d="M221-8q99 0 147 27 15 10 12 28l-7 37q-4 18-28 14-59-9-114-9-48 0-67 35t-19 125q0 82 19.5 117t67.5 35q28 0 114-9 20-2 24 15l7 41q3 18-11 24-60 28-145 28-133 0-170-112-20-56-20-142 0-93 19-149 11-32 32-56Q129-8 221-8zm103 697q10 13-4 22l-57 32q-16 9-23-4l-73-154q-8-15 4-20l33-18q15-7 25 3 25 35 47 68z"/><glyph glyph-name="Ccircumflex" unicode="Ĉ" horiz-adv-x="490" d="M289 670q-165 0-216-150-27-78-27-193 0-114 27-191 16-44 42-76Q176-8 287-8q102 0 168 29 23 11 19 33l-8 38q-6 18-30 16-83-10-141-10-71 0-99 56.5T168 328q0 103 21 165 26 71 106 71 54 0 141-10 25-4 29 15l8 41q3 21-20 32-63 28-164 28zm154 62q10 10-1 21l-98 104q-11 11-32 11h-49q-18 0-28-10L135 752q-13-12-1-24l24-25q8-13 25 1l104 84 104-79q16-15 28-3z"/><glyph glyph-name="ccircumflex" unicode="ĉ" horiz-adv-x="391" d="M221-8q99 0 147 27 15 10 12 28l-7 37q-4 18-28 14-59-9-114-9-48 0-67 35t-19 125q0 82 19.5 117t67.5 35q28 0 114-9 20-2 24 15l7 41q3 18-11 24-60 28-145 28-133 0-170-112-20-56-20-142 0-93 19-149 11-32 32-56Q129-8 221-8zM96 541q14-11 24 1l98 100 100-101q14-11 24 0l26 24q10 11 0 21l-92 127q-9 12-34 12h-49q-19 0-28-10L70 588q-10-14 0-24z"/><glyph glyph-name="Cdotaccent" unicode="Ċ" horiz-adv-x="490" d="M289 670q-165 0-216-150-27-78-27-193 0-114 27-191 16-44 42-76Q176-8 287-8q102 0 168 29 23 11 19 33l-8 38q-6 18-30 16-83-10-141-10-71 0-99 56.5T168 328q0 103 21 165 26 71 106 71 54 0 141-10 25-4 29 15l8 41q3 21-20 32-63 28-164 28zm57 117q0 57-57 57t-57-57q0-59 57-59t57 59z"/><glyph glyph-name="cdotaccent" unicode="ċ" horiz-adv-x="391" d="M221-8q99 0 147 27 15 10 12 28l-7 37q-4 18-28 14-59-9-114-9-48 0-67 35t-19 125q0 82 19.5 117t67.5 35q28 0 114-9 20-2 24 15l7 41q3 18-11 24-60 28-145 28-133 0-170-112-20-56-20-142 0-93 19-149 11-32 32-56Q129-8 221-8zm56 629q0 57-57 57t-57-57q0-59 57-59t57 59z"/><glyph glyph-name="Ccaron" unicode="Č" horiz-adv-x="490" d="M289 670q-165 0-216-150-27-78-27-193 0-114 27-191 16-44 42-76Q176-8 287-8q102 0 168 29 23 11 19 33l-8 38q-6 18-30 16-83-10-141-10-71 0-99 56.5T168 328q0 103 21 165 26 71 106 71 54 0 141-10 25-4 29 15l8 41q3 21-20 32-63 28-164 28zm125 199q-11 11-29-2l-103-81-105 85q-11 8-15 8-6 0-22-19t-16-25q0-5 6-12l100-106q10-10 28-10h48q21 0 33 12l97 104q10 10 0 22z"/><glyph glyph-name="ccaron" unicode="č" horiz-adv-x="391" d="M221-8q99 0 147 27 15 10 12 28l-7 37q-4 18-28 14-59-9-114-9-48 0-67 35t-19 125q0 82 19.5 117t67.5 35q28 0 114-9 20-2 24 15l7 41q3 18-11 24-60 28-145 28-133 0-170-112-20-56-20-142 0-93 19-149 11-32 32-56Q129-8 221-8zM61 696q-11-10 0-24l95-127q9-10 28-10h49q25 0 34 12l92 127q11 10 0 21l-26 24q-11 11-24 0L209 618l-98 100q-10 12-24 1z"/><glyph glyph-name="Dcaron" unicode="Ď" horiz-adv-x="554" d="M508 333q0 144-51 231-56 99-213 99H76q-21 0-21-19V19Q55 0 78 0h166q179 0 233 138 31 76 31 195zm-119-8q0-127-42-177-42-48-114-48h-64v464h71q75 0 112-55.5T389 325zm-19 544q-11 11-29-2l-103-81-105 85q-11 8-15 8-6 0-22-19t-16-25q0-5 6-12l100-106q10-10 28-10h48q21 0 33 12l97 104q10 10 0 22z"/><glyph glyph-name="dcaron" unicode="ď" horiz-adv-x="584" d="M309 483q-53 17-100 17-103 0-141-65T30 237q0-126 33.5-185T179-7q62 0 129 46 2 0 3-1V19q0-19 20-19h70q20 0 20 19v666q0 20-20 20h-67q-23 0-23-20V486zM142 240q0 91 18 127t61 36q42 0 90-14V129q-20-12-52-23-33-11-54-11-33 0-48 28-15 29-15 117zm451 412q0 47-32 79-18 18-39-1l-40-34q-13-10-4-30 21-32 21-56 0-35-26-67-13-14-5-25l18-19q10-11 27 0 80 57 80 153z"/><glyph glyph-name="Dcroat" unicode="Đ" horiz-adv-x="554" d="M508 333q0 144-51 231-56 99-213 99H76q-21 0-21-19V376H22q-17 0-17-17v-47q0-15 17-15h33V19Q55 0 78 0h166q179 0 233 138 31 76 31 195zm-236 27q0 16-17 16h-86v188h71q75 0 112-55.5T389 325q0-137-49-184-42-41-113-41h-58v197h86q17 0 17 16v47z"/><glyph glyph-name="dcroat" unicode="đ" horiz-adv-x="466" d="M309 478q-53 17-100 17-104 0-141-64-38-65-38-196 0-126 33-184T177-7q64 0 131 46 2 0 3-1V19q0-19 20-19h70q20 0 20 19v529h42q15 0 15 14v40q0 15-15 15h-42v68q0 20-21 20h-66q-23 0-23-20v-68H201q-16 0-16-15v-40q0-14 16-14h110v-67zM142 239q0 90 17.5 124.5T221 398q45 0 90-14V129q-20-12-52-23-33-11-54-11-33 0-48 28-15 29-15 116z"/><glyph glyph-name="Emacron" unicode="Ē" horiz-adv-x="460" d="M432 81q0 18-18 18H168v200h207q12 0 16 4t4 14v63q0 17-20 17H168v167h233q12 0 15.5 4t3.5 14v63q0 18-20 18H74q-22 0-22-19V18Q52 0 74 0h338q12 0 16 4t4 14v63zm-58 720q0 17-20 17H114q-20 0-20-17v-53q0-17 20-17h240q20 0 20 17v53z"/><glyph glyph-name="emacron" unicode="ē" horiz-adv-x="439" d="M224 410q43 0 60-29t19-90H145q2 63 20.5 91t58.5 28zm5-419q90 0 147 28 20 11 15 30l-6 35q-3 18-30 14-67-9-112-9-51 0-73.5 28T145 215h222q27 0 38.5 14.5T417 276q0 88-35 151-39 73-157 73-194 0-194-257 0-110 34-174Q106-9 229-9zm137 647q0 10-4 13t-15 3H105q-19 0-19-16v-53q0-17 19-17h242q19 0 19 17v53z"/><glyph glyph-name="Ebreve" unicode="Ĕ" horiz-adv-x="460" d="M432 81q0 18-18 18H168v200h207q12 0 16 4t4 14v63q0 17-20 17H168v167h233q12 0 15.5 4t3.5 14v63q0 18-20 18H74q-22 0-22-19V18Q52 0 74 0h338q12 0 16 4t4 14v63zM237 704q95 0 151 111 9 20-3 26l-26 19q-17 12-29-4-31-40-50-54-17-14-42-14-26 0-45.5 14.5T139 858q-14 16-27 5l-25-24q-12-11-2-30 21-48 63.5-76.5T237 704z"/><glyph glyph-name="ebreve" unicode="ĕ" horiz-adv-x="439" d="M224 410q43 0 60-29t19-90H145q2 63 20.5 91t58.5 28zm5-419q90 0 147 28 20 11 15 30l-6 35q-3 18-30 14-67-9-112-9-51 0-73.5 28T145 215h222q27 0 38.5 14.5T417 276q0 88-35 151-39 73-157 73-194 0-194-257 0-110 34-174Q106-9 229-9zM72 649q21-48 63.5-76.5T224 544q45 0 85 28.5t64 78.5q12 22-2 33l-24 17q-17 12-30-6-32-41-50.5-56T225 624q-26 0-45 15t-53 58q-15 19-29 5l-25-22q-10-10-1-31z"/><glyph glyph-name="Edotaccent" unicode="Ė" horiz-adv-x="460" d="M432 81q0 18-18 18H168v200h207q12 0 16 4t4 14v63q0 17-20 17H168v167h233q12 0 15.5 4t3.5 14v63q0 18-20 18H74q-22 0-22-19V18Q52 0 74 0h338q12 0 16 4t4 14v63zM295 771q0 57-57 57t-57-57q0-59 57-59t57 59z"/><glyph glyph-name="edotaccent" unicode="ė" horiz-adv-x="439" d="M224 410q43 0 60-29t19-90H145q2 63 20.5 91t58.5 28zm5-419q90 0 147 28 20 11 15 30l-6 35q-3 18-30 14-67-9-112-9-51 0-73.5 28T145 215h222q27 0 38.5 14.5T417 276q0 88-35 151-39 73-157 73-194 0-194-257 0-110 34-174Q106-9 229-9zm54 630q0 57-57 57t-57-57q0-59 57-59t57 59z"/><glyph glyph-name="Eogonek" unicode="Ę" horiz-adv-x="460" d="M360-95q0 43 32 95h20q12 0 16 4t4 14v63q0 18-18 18H168v200h207q12 0 16 4t4 14v63q0 17-20 17H168v167h233q12 0 15.5 4t3.5 14v63q0 18-20 18H74q-22 0-22-19V18Q52 0 74 0h248q-41-53-41-104 0-95 109-94 39 1 73 20 11 6 10 16l-9 30q-3 10-19 6-27-8-45-8-40 0-40 39z"/><glyph glyph-name="eogonek" unicode="ę" horiz-adv-x="439" d="M309-92q0 47 34 99 17 5 33 12 20 11 15 30l-6 35q-3 18-30 14-67-9-112-9-51 0-73.5 28T145 215h222q27 0 38.5 14.5T417 276q0 88-35 151-39 73-157 73-194 0-194-257 0-110 34-174Q106-9 229-9q3 0 35 2-51-74-28-133t103-55q39 1 73 20 11 6 10 16l-9 30q-3 10-19 6-27-8-45-8-40 0-40 39zm-85 502q43 0 60-29t19-90H145q2 63 20.5 91t58.5 28z"/><glyph glyph-name="Ecaron" unicode="Ě" horiz-adv-x="460" d="M432 81q0 18-18 18H168v200h207q12 0 16 4t4 14v63q0 17-20 17H168v167h233q12 0 15.5 4t3.5 14v63q0 18-20 18H74q-22 0-22-19V18Q52 0 74 0h338q12 0 16 4t4 14v63zm-63 788q-11 11-29-2l-103-81-105 85q-11 8-15 8-6 0-22-19t-16-25q0-5 6-12l100-106q10-10 28-10h48q21 0 33 12l97 104q10 10 0 22z"/><glyph glyph-name="ecaron" unicode="ě" horiz-adv-x="439" d="M224 410q43 0 60-29t19-90H145q2 63 20.5 91t58.5 28zm5-419q90 0 147 28 20 11 15 30l-6 35q-3 18-30 14-67-9-112-9-51 0-73.5 28T145 215h222q27 0 38.5 14.5T417 276q0 88-35 151-39 73-157 73-194 0-194-257 0-110 34-174Q106-9 229-9zM80 696q-10-10 0-24l95-127q9-10 28-10h49q25 0 34 12l92 127q10 10 0 21l-26 24q-10 11-24 0L228 618l-98 100q-10 12-24 1z"/><glyph glyph-name="Gcircumflex" unicode="Ĝ" horiz-adv-x="542" d="M170 328q0 105 22 166 14 36 39 54t66 18 138-12q26-4 31 16l9 42q4 18-22 31-63 28-163 28-244 0-244-344 0-158 56-247Q159-8 294-8q94 0 168 28 30 12 30 44 1 37 1 284 0 20-26 20H316q-22 0-22-19v-58q0-19 22-19h61V106q-28-11-80-11-78 0-104 70-23 64-23 163zm278 404q10 10-1 21l-98 104q-11 11-32 11h-49q-18 0-28-10L140 752q-12-12-1-24l24-25q8-13 25 1l104 84 104-79q16-15 28-3z"/><glyph glyph-name="gcircumflex" unicode="ĝ" horiz-adv-x="461"/><glyph glyph-name="Gbreve" unicode="Ğ" horiz-adv-x="542" d="M170 328q0 105 22 166 14 36 39 54t66 18 138-12q26-4 31 16l9 42q4 18-22 31-63 28-163 28-244 0-244-344 0-158 56-247Q159-8 294-8q94 0 168 28 30 12 30 44 1 37 1 284 0 20-26 20H316q-22 0-22-19v-58q0-19 22-19h61V106q-28-11-80-11-78 0-104 70-23 64-23 163zm121 376q95 0 151 111 9 20-3 26l-26 19q-17 12-29-4-31-40-50-54-17-14-42-14-26 0-45.5 14.5T193 858q-14 16-27 5l-25-24q-12-11-2-30 21-48 63.5-76.5T291 704z"/><glyph glyph-name="gbreve" unicode="ğ" horiz-adv-x="461" d="M233 500q-108 0-154-63T33 243q0-122 38-186Q109-5 215-5q46 0 100 21v-29q0-48-19-67.5T228-100q-62 0-121 10-16 3-22 .5T77-104l-7-38q-3-19 20-30 60-23 144-23 141 0 173 82 18 42 18 121v420q0 35-28 45-63 27-164 27zm-86-248q0 88 23 117 24 30 68 30 36 0 76-8V110q-54-17-90-17-42 0-59.5 35T147 252zM88 649q21-48 63.5-76.5T240 544q45 0 85 28.5t64 78.5q12 22-2 33l-24 17q-11 7-16.5 6T333 695q-32-41-50.5-56T241 624q-26 0-45 15t-53 58q-15 19-29 5l-25-22q-10-10-1-31z"/><glyph glyph-name="Gdotaccent" unicode="Ġ" horiz-adv-x="542" d="M170 328q0 105 22 166 14 36 39 54t66 18 138-12q26-4 31 16l9 42q4 18-22 31-63 28-163 28-244 0-244-344 0-158 56-247Q159-8 294-8q94 0 168 28 30 12 30 44 1 37 1 284 0 20-26 20H316q-22 0-22-19v-58q0-19 22-19h61V106q-28-11-80-11-78 0-104 70-23 64-23 163zm185 443q0 57-57 57t-57-57q0-59 57-59t57 59z"/><glyph glyph-name="gdotaccent" unicode="ġ" horiz-adv-x="461"/><glyph glyph-name="uni0122" unicode="Ģ" horiz-adv-x="542" d="M170 328q0 105 22 166 14 36 39 54t66 18 138-12q26-4 31 16l9 42q4 18-22 31-63 28-163 28-244 0-244-344 0-158 56-247Q159-8 294-8q94 0 168 28 30 12 30 44 1 37 1 284 0 20-26 20H316q-22 0-22-19v-58q0-19 22-19h61V106q-28-11-80-11-78 0-104 70-23 64-23 163zm181-449q0 47-32 79-18 18-39-1l-40-34q-13-10-4-30 21-31 21-56 0-35-26-67-13-14-5-25l18-19q10-10 27 0 35 25 57.5 65.5T351-121z"/><glyph glyph-name="uni0123" unicode="ģ" horiz-adv-x="461" d="M195 640q0-19 9-42t23-37q17-18 39 1l39 34q14 12 5 30-21 31-21 56 0 35 26 67 13 14 4 25l-17 19q-10 11-27 0-80-57-80-153zm38-133q-108 0-154-63T33 250q0-122 38-186Q109 2 215 2q46 0 100 21V-6q0-48-19-67.5T228-93q-62 0-121 10-16 3-22 .5T77-97l-7-38q-3-19 20-30 60-23 144-23 141 0 173 82 18 42 18 121v420q0 35-28 45-63 27-164 27zm-86-248q0 88 23 117 24 30 68 30 36 0 76-8V117q-54-17-90-17-42 0-59.5 35T147 259z"/><glyph glyph-name="Hcircumflex" unicode="Ĥ" horiz-adv-x="539" d="M485 644q0 19-20 19h-73q-22 0-22-19V398H168v246q0 19-20 19H75q-22 0-22-19V19Q53 0 75 0h73q20 0 20 19v279h202V19q0-19 22-19h73q20 0 20 19v625zm-59 88q10 10-1 21l-98 104q-11 11-32 11h-49q-18 0-28-10L118 752q-12-12-1-24l24-25q8-13 25 1l104 84 104-79q16-15 28-3z"/><glyph glyph-name="hcircumflex" unicode="ĥ" horiz-adv-x="464" d="M159 686q0 19-21 19H69q-21 0-21-19V19Q48 0 69 0h68q22 0 22 19v342q64 37 108 37 31 0 44-19t13-71l-1-289q0-19 21-19h69q22 0 22 19v291q0 86-22 131-25 58-119 58-60 0-131-44l-4 2v229zm106 64q10 10-1 21l-98 104q-11 11-32 11H85q-18 0-28-10L-43 770q-12-12-1-24l24-25q8-13 25 1l104 84 104-79q16-15 28-3z"/><glyph glyph-name="Hbar" unicode="Ħ" horiz-adv-x="539" d="M485 492h35q14 0 14 15v35q0 16-15 16h-34v86q0 19-20 19h-73q-22 0-22-19v-86H168v86q0 19-20 19H75q-22 0-22-19v-86H21q-17 0-17-16v-34q0-16 16-16h33V19Q53 0 75 0h73q20 0 20 19v279h202V19q0-19 22-19h73q20 0 20 19v473zm-317 0h202v-94H168v94z"/><glyph glyph-name="hbar" unicode="ħ" horiz-adv-x="464" d="M148 544h150q10 0 13 3.5t3 13.5v34q0 17-17 17H148v74q0 19-21 19H58q-21 0-21-19v-74H-1q-17 0-17-18v-33q0-10 3.5-13.5T-1 544h38V19Q37 0 58 0h68q22 0 22 19v337q64 37 108 37 31 0 44-19t13-71l-1-284q0-19 21-19h69q22 0 22 19v286q0 86-22 131-25 58-119 58-60 0-131-44l-4 2v92z"/><glyph glyph-name="Itilde" unicode="Ĩ" horiz-adv-x="241" d="M196 718q68 0 98 89 7 16-8 24l-28 14q-13 6-23-10-19-33-40-33-7 0-61 26-44 24-73 24-67 0-102-92-6-14 7-21l27-14q12-5 14.5-4t8.5 10q21 36 44 36 14 0 64-24 49-25 72-25zm-12-74q0 19-21 19H90q-22 0-22-19V19Q68 0 90 0h73q21 0 21 19v625z"/><glyph glyph-name="itilde" unicode="ĩ" horiz-adv-x="243" d="M197 557q68 0 98 89 7 16-8 24l-28 14q-13 6-23-10-20-33-40-33-7 0-61 26-43 24-73 24-67 0-102-92-6-14 7-21l27-14q12-5 14.5-4t8.5 10q21 36 44 36 15 0 64-24 49-25 72-25zm-14-86q0 19-18 19H92q-20 0-20-19V19Q72 0 92 0h73q18 0 18 19v452z"/><glyph glyph-name="Imacron" unicode="Ī" horiz-adv-x="241" d="M262 801q0 17-20 17H2q-20 0-20-17v-53q0-17 20-17h240q20 0 20 17v53zm-84-157q0 19-21 19H84q-22 0-22-19V19Q62 0 84 0h73q21 0 21 19v625z"/><glyph glyph-name="imacron" unicode="ī" horiz-adv-x="243" d="M177 471q0 19-18 19H86q-20 0-20-19V19Q66 0 86 0h73q18 0 18 19v452zm84 167q0 10-4 13t-15 3H0q-19 0-19-16v-53q0-17 19-17h242q19 0 19 17v53z"/><glyph glyph-name="Ibreve" unicode="Ĭ" horiz-adv-x="241" d="M134 705q96 0 151 111 9 20-3 26l-26 19q-17 12-29-4-31-40-50-54-17-14-42-14-26 0-45.5 14.5T36 859q-14 16-27 5l-25-24q-12-11-2-30 21-48 63.5-76.5T134 705zm54-61q0 19-21 19H94q-22 0-22-19V19Q72 0 94 0h73q21 0 21 19v625z"/><glyph glyph-name="ibreve" unicode="ĭ" horiz-adv-x="243" d="M-19 655q21-48 63.5-76.5T133 550q45 0 85 28.5t64 78.5q12 22-2 33l-24 17q-11 7-16.5 6T226 701q-32-41-50.5-56T134 630q-26 0-45 15t-53 58q-15 19-29 5l-25-22q-10-10-1-31zm205-184q0 19-18 19H95q-20 0-20-19V19Q75 0 95 0h73q18 0 18 19v452z"/><glyph glyph-name="Iogonek" unicode="Į" horiz-adv-x="241" d="M178 644q0 19-21 19H84q-22 0-22-19V12Q9-47 9-108q0-46 28-70.5t81-22.5q36 0 73 20 12 5 9 15l-8 31q-3 9-19 5-27-7-45-7-40 0-40 39 0 46 34 98h35q21 0 21 19v625z"/><glyph glyph-name="iogonek" unicode="į" horiz-adv-x="216" d="M78-99q0 47 34 99h29q21 0 21 19v452q0 19-21 19H75q-23 0-23-19V19q0-7 1-8Q-1-48-1-108q0-95 109-94 39 1 73 20 11 6 10 16l-9 30q-3 10-19 6-27-8-45-8-40 0-40 39zm89 719q0 29-13 43t-47 14q-58 0-58-57 0-29 12.5-44t45.5-15 46.5 15 13.5 44z"/><glyph glyph-name="Idotaccent" unicode="İ" horiz-adv-x="241" d="M178 644q0 19-21 19H84q-22 0-22-19V19Q62 0 84 0h73q21 0 21 19v625zm2 147q0 57-57 57t-57-57q0-59 57-59t57 59z"/><glyph glyph-name="dotlessi" unicode="ı" horiz-adv-x="243" d="M177 471q0 19-18 19H86q-20 0-20-19V19Q66 0 86 0h73q18 0 18 19v452z"/><glyph glyph-name="IJ" unicode="Ĳ" horiz-adv-x="606" d="M545 644q0 19-22 19h-72q-22 0-22-19V186q0-47-17.5-68.5T351 96q-21 0-96 8-13 2-17.5-.5T231 91l-10-46q-5-20 13-29Q284-9 366-9q178 0 179 177v476zm-367 0q0 19-21 19H84q-22 0-22-19V19Q62 0 84 0h73q21 0 21 19v625z"/><glyph glyph-name="ij" unicode="ĳ" horiz-adv-x="432" d="M378 471q0 19-23 19h-65q-23 0-23-19V-13q0-57-19-73-21-18-83-31-20-6-19-24l3-47q1-19 25-19 110-4 157 44T378-9v480zm3 149q0 29-13 43t-46 14q-58 0-58-57 0-30 12.5-44.5T322 561q59 0 59 59zm-214 0q0 29-13 43t-47 14q-58 0-58-57 0-29 12.5-44t45.5-15 46.5 15 13.5 44zm-5-149q0 19-21 19H75q-23 0-23-19V19Q52 0 75 0h66q21 0 21 19v452z"/><glyph glyph-name="Jcircumflex" unicode="Ĵ" horiz-adv-x="386" d="M327 645q0 19-22 19h-72q-22 0-22-19V187q0-47-17.5-68.5T133 97q-21 0-96 8-13 2-17.5-.5T13 92L3 46q-5-20 13-29Q66-8 148-8q178 0 179 177v476zm100 89q10 10-1 21l-98 104q-11 11-32 11h-49q-18 0-28-10L119 754q-12-12-1-24l24-25q8-13 25 1l104 84 104-79q16-15 28-3z"/><glyph glyph-name="jcircumflex" unicode="ĵ" horiz-adv-x="230" d="M176 471q0 19-23 19H88q-23 0-23-19V-13q0-55-20-72-20-19-84-32-11-3-14.5-7.5T-56-140l3-48q1-19 25-19 110-4 157 44T176-9v480zM1 548q14-11 24 1l98 100 100-101q13-10 24 0l26 24q11 10 0 21l-92 127q-9 12-34 12H98q-19 0-28-10l-95-127q-11-13 0-24z"/><glyph glyph-name="uni0136" unicode="Ķ" horiz-adv-x="505" d="M492 644q6 8 2 13.5t-13 5.5h-86q-26 0-35-14L250 486q-66-96-83-127h-4v285q0 19-20 19H71q-22 0-22-19V19Q49 0 71 0h72q20 0 20 19v163l70 99L362 25q10-25 37-25h87q10 0 13 7t-2 14L306 382zM302-120q0 47-32 79-18 18-39-1l-40-34q-13-10-4-30 21-32 21-56 0-35-26-67-13-14-5-25l18-19q11-11 27 0 80 57 80 153z"/><glyph glyph-name="uni0137" unicode="ķ" horiz-adv-x="422" d="M285 37q13-24 15-26 10-11 28-11h75q10 0 14 7t-1 15L270 291l128 176q6 8 3 15.5t-13 7.5h-77q-23 0-35-17-59-85-122-184l-1 1h-1v396q0 19-21 19H62q-20 0-20-19V18Q42 0 62 0h69q21 0 21 18v112q11 15 49 68zm-17-157q0 47-32 79-18 18-39-1l-40-34q-13-10-4-30 21-32 21-56 0-35-26-67-13-14-5-25l18-19q11-11 27 0 80 57 80 153z"/><glyph glyph-name="kgreenlandic" unicode="ĸ" horiz-adv-x="422" d="M295 18q9-18 33-18h75q16 0 16 12 0 6-3 10L270 291l128 176q5 8 5 11 0 12-15 12h-77q-24 0-35-17l-81-121-41-63-1 1h-1v180q0 20-21 20H62q-20 0-20-20V18Q42 0 62 0h69q21 0 21 18v112q11 15 49 68z"/><glyph glyph-name="Lacute" unicode="Ĺ" horiz-adv-x="442" d="M439 82q0 17-19 17H174v545q0 11-4 15t-16 4H81q-21 0-21-19V18Q60 0 82 0h337q12 0 16 4t4 14v64zM244 787q16 7 7 22l-35 55q-10 16-22 7L56 771q-12-10-6-20l21-31q10-16 23-10z"/><glyph glyph-name="lacute" unicode="ĺ" horiz-adv-x="231" d="M152-5q41 0 66 14 11 7 10 19l-4 47q0 7-4 10t-7.5 3.5T200 90q-19 1-26.5 8t-7.5 26v560q0 20-23 20H79q-22 0-22-20V106q0-59 21-85t74-26zm91 828q16 7 7 22l-35 55q-10 16-22 7L55 807q-12-10-6-20l21-31q10-16 23-10z"/><glyph glyph-name="uni013B" unicode="Ļ" horiz-adv-x="442" d="M433 82q0 17-19 17H168v545q0 11-4 15t-16 4H75q-21 0-21-19V18Q54 0 76 0h337q12 0 16 4t4 14v64zM287-122q0 47-32 79-18 18-39-1l-40-34q-13-10-4-30 21-32 21-56 0-35-26-67-13-14-5-25l18-19q10-11 27 0 80 57 80 153z"/><glyph glyph-name="uni013C" unicode="ļ" horiz-adv-x="231" d="M153-5q41 0 66 14 11 7 10 19l-4 47q0 7-4 10t-7.5 3.5T201 90q-19 1-26.5 8t-7.5 26v560q0 20-23 20H80q-22 0-22-20V106q0-59 21-85t74-26zm31-116q0 47-32 79-18 18-39-1L73-77q-13-10-4-30 21-31 21-56 0-35-26-67-13-14-5-25l18-19q11-10 27 0 35 25 57.5 65.5T184-121z"/><glyph glyph-name="Lcaron" unicode="Ľ" horiz-adv-x="442" d="M433 82q0 17-19 17H168v545q0 11-4 15t-16 4H75q-21 0-21-19V18Q54 0 76 0h337q12 0 16 4t4 14v64zm-28 501q0 47-32 79-18 18-39-1l-40-34q-13-10-4-30 21-31 21-56 0-35-26-67-13-14-5-25l18-19q10-10 27 0 35 25 57.5 65.5T405 583z"/><glyph glyph-name="lcaron" unicode="ľ" horiz-adv-x="338" d="M146-5q41 0 66 14 11 7 10 19l-4 47q0 7-4 10t-7.5 3.5T194 90q-19 1-26.5 8t-7.5 26v560q0 20-23 20H73q-22 0-22-20V106q0-59 21-85t74-26zm197 637q0 47-32 79-18 18-39-1l-40-34q-13-10-4-30 21-32 21-56 0-35-26-67-13-14-5-25l18-19q10-11 27 0 80 57 80 153z"/><glyph glyph-name="Ldot" unicode="Ŀ" horiz-adv-x="442"/><glyph glyph-name="ldot" unicode="ŀ" horiz-adv-x="323" d="M146-5q41 0 66 14 11 7 10 19l-4 47q0 7-4 10t-7.5 3.5T194 90q-19 1-26.5 8t-7.5 26v560q0 20-23 20H73q-22 0-22-20V106q0-59 21-85t74-26zm165 377q0 57-57 57t-57-57q0-59 57-59t57 59z"/><glyph glyph-name="Lslash" unicode="Ł" horiz-adv-x="442" d="M433 82q0 17-19 17H168v176l118 66q8 5 8 10 0 3-3 9l-18 32q-6 9-11 9-2 0-9-4l-85-47v294q0 11-4 15t-16 4H75q-21 0-21-19V286l-58-33q-10-4-10-10t4-10l16-32q5-8 11-8 4 0 10 3l27 15V18Q54 0 76 0h337q12 0 16 4t4 14v64z"/><glyph glyph-name="lslash" unicode="ł" horiz-adv-x="231" d="M146-5q41 0 66 14 11 7 10 19l-4 47q0 7-4 10t-7.5 3.5T194 90q-19 1-26.5 8t-7.5 26v191l76 42q8 5 8 10 0 4-3 10l-18 32q-6 9-11 9-2 0-9-4l-43-25v295q0 20-23 20H73q-22 0-22-20V327l-63-36q-10-6-10-11 0-4 3-10l18-31q5-9 10-9t9 4l33 18V106q0-59 21-85t74-26z"/><glyph glyph-name="Nacute" unicode="Ń" horiz-adv-x="563" d="M399 20q11-20 35-20h57q19 0 19 19v625q0 19-20 19h-71q-20 0-20-19V224q-2 0-3-1-23 52-75 145L165 645q-11 18-33 18H74q-21 0-21-17V19Q53 0 75 0h70q20 0 20 19v420h3q34-71 84-159zm15 767q16 7 7 22l-35 55q-10 16-22 7L226 771q-12-10-6-20l21-31q10-16 23-10z"/><glyph glyph-name="nacute" unicode="ń" horiz-adv-x="458" d="M146 471q0 19-20 19H56q-20 0-20-19V19Q36 0 56 0h69q21 0 21 19v342q70 36 109 36 31 0 43.5-19.5T311 308q0-61-1-144V19q0-19 21-19h70q21 0 21 19v290q0 71-12 110-7 24-22 43-33 37-103 37-66 0-134-51l-5 2v21zm173 218q10 13-4 22l-57 32q-16 9-23-4l-73-154q-8-15 4-20l33-18q15-7 25 3 25 35 47 68z"/><glyph glyph-name="uni0145" unicode="Ņ" horiz-adv-x="563" d="M399 20q11-20 35-20h57q19 0 19 19v625q0 19-20 19h-71q-20 0-20-19V224q-2 0-3-1-23 52-75 145L165 645q-11 18-33 18H74q-21 0-21-17V19Q53 0 75 0h70q20 0 20 19v420h3q34-71 84-159zm-66-140q0 47-32 79-18 18-39-1l-40-34q-13-10-4-30 21-32 21-56 0-35-26-67-13-14-5-25l18-19q10-11 27 0 80 57 80 153z"/><glyph glyph-name="uni0146" unicode="ņ" horiz-adv-x="458" d="M146 471q0 19-20 19H56q-20 0-20-19V19Q36 0 56 0h69q21 0 21 19v342q70 36 109 36 31 0 43.5-19.5T311 308q0-61-1-144V19q0-19 21-19h70q21 0 21 19v290q0 71-12 110-7 24-22 43-33 37-103 37-66 0-134-51l-5 2v21zm131-591q0 47-32 79-18 18-39-1l-40-34q-13-10-4-30 21-32 21-56 0-35-26-67-13-14-5-25l18-19q10-11 27 0 80 57 80 153z"/><glyph glyph-name="Ncaron" unicode="Ň" horiz-adv-x="563" d="M399 20q11-20 35-20h57q19 0 19 19v625q0 19-20 19h-71q-20 0-20-19V224q-2 0-3-1-23 52-75 145L165 645q-11 18-33 18H74q-21 0-21-17V19Q53 0 75 0h70q20 0 20 19v420h3q34-71 84-159zm22 849q-11 11-29-2l-103-81-105 85q-11 8-15 8-6 0-22-19t-16-25q0-5 6-12l100-106q10-10 28-10h48q21 0 33 12l97 104q10 10 0 22z"/><glyph glyph-name="ncaron" unicode="ň" horiz-adv-x="458" d="M146 471q0 19-20 19H56q-20 0-20-19V19Q36 0 56 0h69q21 0 21 19v342q70 36 109 36 31 0 43.5-19.5T311 308q0-61-1-144V19q0-19 21-19h70q21 0 21 19v290q0 71-12 110-7 24-22 43-33 37-103 37-66 0-134-51l-5 2v21zM75 696q-11-10 0-24l95-127q9-10 28-10h49q25 0 34 12l92 127q11 10 0 21l-26 24q-11 11-24 0L223 618l-98 100q-10 12-24 1z"/><glyph glyph-name="napostrophe" unicode="ŉ" horiz-adv-x="552" d="M247 471q0 19-20 19h-70q-20 0-20-19V19q0-19 20-19h69q21 0 21 19v342q70 36 109 36 31 0 43.5-19.5T412 308q0-61-1-144V19q0-19 21-19h70q21 0 21 19v290q0 71-12 110-7 24-22 43-33 37-103 37-66 0-134-51l-5 2v21zM146 640q0 47-32 79-18 18-39-1l-40-34q-13-10-4-30 21-32 21-56 0-35-26-67-13-14-5-25l18-19q11-11 27 0 80 57 80 153z"/><glyph glyph-name="Eng" unicode="Ŋ" horiz-adv-x="563" d="M324-97q-19-1-20-16 0-3-3-26t-3-26q-3-15 11-20 21-10 58-10 143 0 143 137v702q0 19-20 19h-71q-20 0-20-19V224q-2 0-3-1-23 52-75 145L165 645q-11 18-33 18H74q-21 0-21-17V19Q53 0 75 0h70q20 0 20 19v420h3q34-71 84-159L399 19v-59q0-36-15-47.5T324-97z"/><glyph glyph-name="eng" unicode="ŋ" horiz-adv-x="458" d="M146 471q0 19-19 19H56q-20 0-20-19V19Q36 0 56 0h69q21 0 21 19v342q70 36 109 36 31 0 43.5-19t12.5-70V-40q0-36-14.5-47.5T237-97q-20-2-21-16 0-3-3-26t-3-26q-3-15 12-20 20-10 57-10 143 0 143 137v367q0 71-12 110-7 24-22 43-33 37-103 37-68 0-134-51l-5 2v21z"/><glyph glyph-name="Omacron" unicode="Ō" horiz-adv-x="575" d="M531 341q0 114-24 186-15 46-41 75-60 69-180 69-242 0-242-330 0-59 3-101 3-39 17-92 14-50 38-82Q162-9 285-9q169 0 220 143 22 57 24 136 2 42 2 71zm-119-10q0-124-29-181t-97-57q-67 0-94 57t-27 181q0 123 28 181.5t93 58.5q69 0 97.5-57T412 331zm15 470q0 17-20 17H167q-20 0-20-17v-53q0-17 20-17h240q20 0 20 17v53z"/><glyph glyph-name="omacron" unicode="ō" horiz-adv-x="457" d="M424 253q0 83-19 136-13 36-33 58-48 53-147 53-194 0-194-247 0-87 16-142 13-39 31-62Q126-8 225-8q152 6 182 119 17 55 17 142zM226 404q50 0 68-35.5T312 246q0-86-18.5-122T225 88q-47 0-64.5 36T143 246q0 84 18 121t65 37zm140 234q0 10-4 13t-15 3H105q-19 0-19-16v-53q0-17 19-17h242q19 0 19 17v53z"/><glyph glyph-name="Obreve" unicode="Ŏ" horiz-adv-x="575" d="M531 341q0 114-24 186-15 46-41 75-60 69-180 69-242 0-242-330 0-59 3-101 3-39 17-92 14-50 38-82Q162-9 285-9q169 0 220 143 22 57 24 136 2 42 2 71zm-119-10q0-124-29-181t-97-57q-67 0-94 57t-27 181q0 123 28 181.5t93 58.5q69 0 97.5-57T412 331zM287 705q95 0 151 111 9 20-3 26l-26 19q-17 12-29-4-31-40-50-54-17-14-42-14-26 0-45.5 14.5T189 859q-14 16-27 5l-25-24q-12-11-2-30 21-48 63.5-76.5T287 705z"/><glyph glyph-name="obreve" unicode="ŏ" horiz-adv-x="457" d="M424 253q0 83-19 136-13 36-33 58-48 53-147 53-194 0-194-247 0-87 16-142 13-39 31-62Q126-8 225-8q152 6 182 119 17 55 17 142zM226 404q50 0 68-35.5T312 246q0-86-18.5-122T225 88q-47 0-64.5 36T143 246q0 84 18 121t65 37zM73 649q21-48 63.5-76.5T225 544q45 0 85 28.5t64 78.5q12 22-2 33l-24 17q-17 12-30-6-32-41-50.5-56T226 624q-26 0-45 15t-53 58q-15 19-29 5l-25-22q-10-10-1-31z"/><glyph glyph-name="Ohungarumlaut" unicode="Ő" horiz-adv-x="575" d="M531 341q0 114-24 186-15 46-41 75-60 69-180 69-242 0-242-330 0-59 3-101 3-39 17-92 14-50 38-82Q162-9 285-9q169 0 220 143 22 57 24 136 2 42 2 71zm-119-10q0-124-29-181t-97-57q-67 0-94 57t-27 181q0 123 28 181.5t93 58.5q69 0 97.5-57T412 331zm-75 464q15 9 5 22l-39 52q-12 16-23 5L151 763q-10-12-4-20l23-30q11-14 24-8zm170 0q15 9 5 22l-39 52q-12 16-23 5L321 763q-10-12-4-20l23-30q11-14 24-8z"/><glyph glyph-name="ohungarumlaut" unicode="ő" horiz-adv-x="457" d="M424 253q0 83-19 136-13 36-33 58-48 53-147 53-194 0-194-247 0-87 16-142 13-39 31-62Q126-8 225-8q152 6 182 119 17 55 17 142zM226 404q50 0 68-35.5T312 246q0-86-18.5-122T225 88q-47 0-64.5 36T143 246q0 84 18 121t65 37zm45 284q10 15-4 22l-58 33q-16 9-22-5l-73-154q-8-15 4-20l33-17q16-9 25 3l45 67q46 66 50 71zm132 0q10 15-4 22l-57 33q-16 7-23-5l-72-154q-8-14 3-20l34-17q15-9 24 3 9 10 48 69z"/><glyph glyph-name="OE" unicode="Œ" horiz-adv-x="698" d="M151 330q0 126 29.5 181.5T284 567q2 0 9.5-.5t9.5-.5V89q-88-6-120 50t-32 191zM660 0q12 0 16.5 4t4.5 14v62q0 19-20 19H417v195h207q11 0 15 4.5t4 14.5v63q0 17-19 17H417v171q64 0 115-1h117q21 0 21 18v63q0 19-20 19H345q-40 8-72 8-241 0-241-330 0-78 8-137 9-67 43-124Q138-9 273-9q40 0 73 9h314z"/><glyph glyph-name="oe" unicode="œ" horiz-adv-x="721" d="M513-9q90 0 147 28 20 11 15 30l-6 35q-3 18-30 14-67-9-112-9-51 0-73.5 28T429 215h222q27 0 38.5 14.5T701 276q0 88-35 151-39 73-157 73-96 0-146-62-51 61-138 61-194 0-194-247 0-87 16-141 10-36 31-62Q126-8 225-8q85 0 137 57Q408-9 513-9zM312 245q-1-87-19.5-122.5T225 87q-47 0-64.5 36.5T143 246q0 85 17.5 121t64.5 36q49 0 67.5-35.5T312 245zm196 165q43 0 60-29t19-90H429q2 63 20.5 91t58.5 28z"/><glyph glyph-name="Racute" unicode="Ŕ" horiz-adv-x="488" d="M70 663q-21 0-21-19V18Q49 0 70 0h73q21 0 21 19v247h74L338 17q8-17 31-17h83q22 0 14 20L349 285q52 21 78.5 70.5T454 468q0 96-57 145-56 50-139 50H70zm168-100q97 0 97-99 0-56-25-78.5T236 363h-72v200h74zm108 224q16 7 7 22l-35 55q-10 16-22 7L158 771q-12-10-6-20l21-31q10-16 23-10z"/><glyph glyph-name="racute" unicode="ŕ" horiz-adv-x="318"/><glyph glyph-name="uni0156" unicode="Ŗ" horiz-adv-x="488" d="M70 663q-21 0-21-19V18Q49 0 70 0h73q21 0 21 19v247h74L338 17q8-17 31-17h83q22 0 14 20L349 285q52 21 78.5 70.5T454 468q0 96-57 145-56 50-139 50H70zm168-100q97 0 97-99 0-56-25-78.5T236 363h-72v200h74zm57-680q0 47-32 79-18 18-39-1l-40-34q-13-10-4-30 21-31 21-56 0-35-26-67-13-14-5-25l18-19q10-10 27 0 35 25 57.5 65.5T295-117z"/><glyph glyph-name="uni0157" unicode="ŗ" horiz-adv-x="318" d="M325 478q-1 19-20 18-31-5-68-23.5T177 431l-2 2v38q0 19-22 19H84q-20 0-20-19V19Q64 0 84 0h70q21 0 21 19v321q46 24 136 45 23 6 20 30zM161-130q0 47-32 79-18 18-39-1L50-86q-13-10-4-30 21-32 21-56 0-35-26-67-13-14-5-25l18-19q10-11 27 0 80 57 80 153z"/><glyph glyph-name="Rcaron" unicode="Ř" horiz-adv-x="488" d="M70 663q-21 0-21-19V18Q49 0 70 0h73q21 0 21 19v247h74L338 17q8-17 31-17h83q22 0 14 20L349 285q52 21 78.5 70.5T454 468q0 96-57 145-56 50-139 50H70zm168-100q97 0 97-99 0-56-25-78.5T236 363h-72v200h74zm127 306q-11 11-29-2l-103-81-105 85q-11 8-15 8-6 0-22-19t-16-25q0-5 6-12l100-106q10-10 28-10h48q21 0 33 12l97 104q10 10 0 22z"/><glyph glyph-name="rcaron" unicode="ř" horiz-adv-x="318" d="M328 478q-1 19-20 18-31-5-68-23.5T180 431l-2 2v38q0 19-22 19H87q-20 0-20-19V19Q67 0 87 0h70q21 0 21 19v321q46 24 136 45 23 6 20 30zM6 696q-10-10 0-24l95-127q9-10 28-10h49q25 0 34 12l92 127q10 10 0 21l-26 24q-10 11-24 0L154 618 56 718q-10 12-24 1z"/><glyph glyph-name="Sacute" unicode="Ś" horiz-adv-x="475" d="M230-9q96 0 158 47t62 153q0 107-63 148-43 31-134 53-58 12-77 27t-19 59q0 89 92 89 54 0 138-13 17-3 23.5.5T420 571l8 40q1 6 .5 11t-5.5 10-17 11q-60 27-163 27-97 0-151.5-51T37 475q0-95 62-137 47-31 138-53 54-11 74-32 21-19 21-72 0-85-102-85-44 0-154 14-17 3-23.5 0T44 94l-8-42q-5-20 21-32Q121-9 230-9zm120 796q16 7 7 22l-35 55q-10 16-22 7L162 771q-12-10-6-20l21-31q10-16 23-10z"/><glyph glyph-name="sacute" unicode="ś" horiz-adv-x="400"/><glyph glyph-name="Scircumflex" unicode="Ŝ" horiz-adv-x="475" d="M230-9q96 0 158 47t62 153q0 107-63 148-43 31-134 53-58 12-77 27t-19 59q0 89 92 89 54 0 138-13 17-3 23.5.5T420 571l8 40q1 6 .5 11t-5.5 10-17 11q-60 27-163 27-97 0-151.5-51T37 475q0-95 62-137 47-31 138-53 54-11 74-32 21-19 21-72 0-85-102-85-44 0-154 14-17 3-23.5 0T44 94l-8-42q-5-20 21-32Q121-9 230-9zm167 741q10 10-1 21l-98 104q-11 11-32 11h-49q-18 0-28-10L89 752q-12-12-1-24l24-25q8-13 25 1l104 84 104-79q16-15 28-3z"/><glyph glyph-name="scircumflex" unicode="ŝ" horiz-adv-x="400"/><glyph glyph-name="Scedilla" unicode="Ş" horiz-adv-x="475" d="M254-120q0-36-42-36-23 0-53 5-13 1-16-7l-5-26q-2-9 6-12 27-12 73-12 53 0 81 23.5t28 66.5q0 34-19 52.5T242-44l12 36q92 6 144 55t52 144q0 107-63 148-43 31-134 53-58 12-77 27t-19 59q0 89 92 89 54 0 138-13 17-3 23.5.5T420 571l8 40q1 6 .5 11t-5.5 10-17 11q-60 27-163 27-97 0-151.5-51T37 475q0-95 62-137 47-31 138-53 54-11 74-32 21-19 21-72 0-85-102-85-44 0-154 14-17 3-23.5 0T44 94l-8-42q-5-20 21-32Q105-3 200-8l-17-56q-6-22 15-24 33-2 44.5-8t11.5-24z"/><glyph glyph-name="scedilla" unicode="ş" horiz-adv-x="400" d="M217-120q0-36-42-36-23 0-53 5-13 1-16-7l-5-26q-1-9 6-12 27-12 73-12 53 0 81 23.5t28 66.5q0 34-19 52.5T205-44l12 37q73 6 115.5 44.5T375 148q0 83-52 114-42 26-111 38-41 7-54.5 17T144 352q0 30 13.5 42.5T205 406q33 0 118-9 16-2 22.5.5T354 411l7 37q3 19-22 29-54 23-135 23-80 0-126-39.5T32 349q0-77 52-108 44-24 115-37 37-6 49.5-18.5T261 141q0-29-16.5-42.5T191 85q-47 0-123 12-16 2-22-1t-8-15l-7-33q-4-23 22-33Q89-2 163-7l-17-57q-6-22 15-24 33-2 44.5-8t11.5-24z"/><glyph glyph-name="Scaron" unicode="Š" horiz-adv-x="475" d="M230-9q96 0 158 47t62 153q0 107-63 148-43 31-134 53-58 12-77 27t-19 59q0 89 92 89 54 0 138-13 17-3 23.5.5T420 571l8 40q1 6 .5 11t-5.5 10-17 11q-60 27-163 27-97 0-151.5-51T37 475q0-95 62-137 47-31 138-53 54-11 74-32 21-19 21-72 0-85-102-85-44 0-154 14-17 3-23.5 0T44 94l-8-42q-5-20 21-32Q121-9 230-9zm134 878q-11 11-29-2l-103-81-105 85q-11 8-15 8-6 0-22-19t-16-25q0-5 6-12l100-106q10-10 28-10h48q21 0 33 12l97 104q10 10 0 22z"/><glyph glyph-name="scaron" unicode="š" horiz-adv-x="400"/><glyph glyph-name="uni0162" unicode="Ţ" horiz-adv-x="440" d="M432 644q0 19-22 19H30q-21 0-21-19v-61q0-19 22-19h131V19q0-19 22-19h73q20 0 20 19v545h132q23 0 23 19v61zM279-130q0 47-32 79-18 18-39-1l-40-34q-13-10-4-30 21-32 21-56 0-35-26-67-13-14-5-25l18-19q10-11 27 0 80 57 80 153z"/><glyph glyph-name="uni0163" unicode="ţ" horiz-adv-x="316" d="M314 81q-2 11-6.5 14T288 97q-50-5-58-5-29 0-38.5 13t-9.5 52v244h90q9 0 13 2.5t5 6.5 1 12v48q0 12-3 16t-16 4h-89v127q0 23-24 17l-63-19q-21-5-21-21V490H35q-20 0-20-20v-49q0-20 20-20h39V115q0-63 27.5-93T193-8q70 0 113 22 17 11 14 29zM203-131q0 47-32 79-18 18-39-1L92-87q-13-10-4-30 21-31 21-56 0-35-26-67-13-14-5-25l18-19q10-10 27 0 35 25 57.5 65.5T203-131z"/><glyph glyph-name="Tcaron" unicode="Ť" horiz-adv-x="440" d="M432 644q0 19-22 19H30q-21 0-21-19v-61q0-19 22-19h131V19q0-19 22-19h73q20 0 20 19v545h132q23 0 23 19v61zm-80 225q-11 11-29-2l-103-81-105 85q-11 8-15 8-6 0-22-19t-16-25q0-5 6-12l100-106q10-10 28-10h48q21 0 33 12l97 104q10 10 0 22z"/><glyph glyph-name="tcaron" unicode="ť" horiz-adv-x="379" d="M314 81q-2 11-6.5 14T288 97q-50-5-58-5-29 0-38.5 13t-9.5 52v244h90q9 0 13 2.5t5 6.5 1 12v48q0 12-3 16t-16 4h-89v127q0 23-24 17l-63-19q-21-5-21-21V490H35q-20 0-20-20v-49q0-20 20-20h39V115q0-63 27.5-93T193-8q70 0 113 22 17 11 14 29zm66 613q0 47-32 79-18 18-39-1l-40-34q-13-10-4-30 21-32 21-56 0-35-26-67-13-14-5-25l18-19q11-11 27 0 80 57 80 153z"/><glyph glyph-name="Tbar" unicode="Ŧ" horiz-adv-x="440" d="M432 644q0 19-22 19H30q-21 0-21-19v-61q0-19 22-19h131V396H67q-16 0-16-16v-35q0-15 16-15h95V19q0-19 22-19h73q20 0 20 19v311h104q14 0 14 15v34q0 17-15 17H277v168h132q23 0 23 19v61z"/><glyph glyph-name="tbar" unicode="ŧ" horiz-adv-x="316" d="M314 81q-2 11-6.5 14T288 97q-50-5-58-5-29 0-38.5 13t-9.5 52v90h85q15 0 15 15v35q0 15-16 15h-84v89h90q9 0 13 2.5t5 6.5 1 12v48q0 12-3 16t-16 4h-89v127q0 23-24 17l-63-19q-21-5-21-21V490H35q-20 0-20-20v-49q0-20 20-20h39v-89H37q-16 0-16-15v-35q0-15 15-15h38V115q0-63 27.5-93T193-8q70 0 113 22 17 11 14 29z"/><glyph glyph-name="Utilde" unicode="Ũ" horiz-adv-x="547" d="M349 713q68 0 98 89 7 16-8 24l-28 14q-13 6-23-10-20-33-40-33-7 0-61 26-44 24-73 24-67 0-102-92-6-14 7-21l27-14q12-5 14.5-4t8.5 10q21 36 44 36 15 0 64-24 49-25 72-25zM273 95q-57 0-82 34.5T166 241v402q0 20-23 20H75q-14 0-19-4.5T51 643V234Q51-8 273-8q111 0 167.5 63T497 234v409q0 20-23 20h-68q-23 0-23-20V241q0-75-27-110.5T273 95z"/><glyph glyph-name="utilde" unicode="ũ" horiz-adv-x="456"/><glyph glyph-name="Umacron" unicode="Ū" horiz-adv-x="547" d="M273 95q-57 0-82 34.5T166 241v402q0 20-23 20H75q-14 0-19-4.5T51 643V234Q51-8 273-8q111 0 167.5 63T497 234v409q0 20-23 20h-68q-23 0-23-20V241q0-75-27-110.5T273 95zm148 706q0 17-20 17H161q-20 0-20-17v-53q0-17 20-17h240q20 0 20 17v53z"/><glyph glyph-name="umacron" unicode="ū" horiz-adv-x="456" d="M307 19q0-19 20-19h70q20 0 20 19v452q0 19-20 19h-68q-22 0-22-19V131q-67-37-104-37-30 0-42.5 19T148 185v142q1 83 1 144 0 19-21 19H59q-21 0-21-19V150q0-70 20-111Q84-9 168-9q69 0 134 53l2-1q1-1 3-1V19zm63 619q0 10-4 13t-15 3H109q-19 0-19-16v-53q0-17 19-17h242q19 0 19 17v53z"/><glyph glyph-name="Ubreve" unicode="Ŭ" horiz-adv-x="547"/><glyph glyph-name="ubreve" unicode="ŭ" horiz-adv-x="456" d="M307 19q0-19 20-19h70q20 0 20 19v452q0 19-20 19h-68q-22 0-22-19V131q-67-37-104-37-30 0-42.5 19T148 185v142q1 83 1 144 0 19-21 19H59q-21 0-21-19V150q0-70 20-111Q84-9 168-9q69 0 134 53l2-1q1-1 3-1V19zM77 649q21-48 63.5-76.5T229 544q45 0 85 28.5t64 78.5q12 22-2 33l-24 17q-17 12-30-6-32-41-50.5-56T230 624q-26 0-45 15t-53 58q-15 19-29 5l-25-22q-10-10-1-31z"/><glyph glyph-name="Uring" unicode="Ů" horiz-adv-x="547" d="M353 715q30 30 30 72t-30 72-74 30-76-29q-31-28-31-73t31-73 76-28q43 0 74 29zm-74 119q18 0 30.5-14.5T322 787q2-28-20.5-40.5t-45-.5-19.5 41q0 18 12.5 32.5T279 834zm-6-739q-57 0-82 34.5T166 241v402q0 20-23 20H75q-14 0-19-4.5T51 643V234Q51-8 273-8q111 0 167.5 63T497 234v409q0 20-23 20h-68q-23 0-23-20V241q0-75-27-110.5T273 95z"/><glyph glyph-name="uring" unicode="ů" horiz-adv-x="456" d="M307 19q0-19 20-19h70q20 0 20 19v452q0 19-20 19h-68q-22 0-22-19V131q-67-37-104-37-30 0-42.5 19T148 185v142q1 83 1 144 0 19-21 19H59q-21 0-21-19V150q0-70 20-111Q84-9 168-9q69 0 134 53l2-1q1-1 3-1V19zm-2 543q30 30 30 72t-30 72-74 30-76-29q-31-28-31-73t31-73 76-28q43 0 74 29zm-74 119q18 0 30.5-14.5T274 634q2-28-20.5-40.5t-45-.5-19.5 41q0 18 12.5 32.5T231 681z"/><glyph glyph-name="Uhungarumlaut" unicode="Ű" horiz-adv-x="547" d="M273 95q-57 0-82 34.5T166 241v402q0 20-23 20H75q-14 0-19-4.5T51 643V234Q51-8 273-8q111 0 167.5 63T497 234v409q0 20-23 20h-68q-23 0-23-20V241q0-75-27-110.5T273 95zm223 701q15 9 5 22l-39 52q-12 16-23 5L310 764q-10-12-4-20l23-30q11-14 24-8zm-170 0q15 9 5 22l-39 52q-12 16-23 5L140 764q-10-12-4-20l23-30q11-14 24-8z"/><glyph glyph-name="uhungarumlaut" unicode="ű" horiz-adv-x="456"/><glyph glyph-name="Uogonek" unicode="Ų" horiz-adv-x="547" d="M273 95q-57 0-82 34.5T166 241v402q0 20-23 20H75q-14 0-19-4.5T51 643V234Q51 10 240-6q-40-53-40-104 0-95 109-94 39 1 73 20 12 6 9 16l-8 31q-3 9-19 5-27-8-45-8-40 0-40 39 0 43 32 96 92 9 139 71t47 168v409q0 20-23 20h-68q-23 0-23-20V241q0-75-27-110.5T273 95z"/><glyph glyph-name="uogonek" unicode="ų" horiz-adv-x="456" d="M336-98q0 46 33 98h28q20 0 20 19v452q0 19-20 19h-68q-22 0-22-19V131q-67-37-104-37-30 0-42.5 19T148 185v142q1 83 1 144 0 19-21 19H59q-21 0-21-19V150q0-70 20-111Q84-9 168-9q69 0 134 53l2-1q1-1 3-1V19q0-8 1-10-51-58-51-116 0-95 109-94 39 1 73 20 11 6 10 16l-9 30q-3 10-19 6-27-8-45-8-40 0-40 39z"/><glyph glyph-name="Wcircumflex" unicode="Ŵ" horiz-adv-x="739" d="M377 325q9-46 38-169l34-135q5-21 29-21h71q24 0 30 21l149 621q6 22-12 22h-77q-23 0-28-20l-58-265q-33-157-41-213h-4q-23 121-43 204l-65 274q-5 20-28 20h-76q-19 0-11-20l35-134-37-164q-27-112-36-168h-3q-22 111-41 189l-68 277q-5 20-27 20H28q-18 0-13-21L174 21q4-21 28-21h71q25 0 29 21l35 140q28 117 36 164h4zm142 407q10 10-1 21l-98 104q-11 11-32 11h-49q-18 0-28-10L211 752q-12-12-1-24l24-25q8-13 25 1l104 84 104-79q16-15 28-3z"/><glyph glyph-name="wcircumflex" unicode="ŵ" horiz-adv-x="627"/><glyph glyph-name="Ycircumflex" unicode="Ŷ" horiz-adv-x="495" d="M247 376q-4 10-20.5 54T202 492l-55 131q-11 27-17.5 33t-24.5 6H24q-7 0-11-5.5t0-12.5l179-373V18q0-18 22-18h72q20 0 20 18v253l183 373q7 18-13 18h-78q-14 0-20-3.5T367 643l-66-147q-36-81-48-120h-6zm156 356q10 10-1 21l-98 104q-11 11-32 11h-49q-18 0-28-10L95 752q-13-12-1-24l24-25q8-13 25 1l104 84 104-79q16-15 28-3z"/><glyph glyph-name="ycircumflex" unicode="ŷ" horiz-adv-x="433" d="M222 148q-4 25-31 125l-58 200q-5 17-23 17H35q-22 0-14-20L173 6l-56-171q-6-20 15-20h65q14 0 19 4t9 14l203 637q8 20-13 20h-73q-18 0-24-16l-53-188-38-138h-5zM104 541q14-11 24 1l98 100 100-101q14-11 24 0l26 24q10 11 0 21l-92 127q-9 12-34 12h-49q-19 0-28-10L78 588q-10-14 0-24z"/><glyph glyph-name="Ydieresis" unicode="Ÿ" horiz-adv-x="495" d="M247 376q-4 10-20.5 54T202 492l-55 131q-11 27-17.5 33t-24.5 6H24q-7 0-11-5.5t0-12.5l179-373V18q0-18 22-18h72q20 0 20 18v253l183 373q7 18-13 18h-78q-14 0-20-3.5T367 643l-66-147q-36-81-48-120h-6zm-82 351q31 0 42.5 14t11.5 43q0 28-11.5 40.5T165 837q-54 0-54-53 0-30 11.5-43.5T165 727zm169 0q31 0 42.5 14t11.5 43q0 28-11.5 40.5T334 837q-53 0-53-53 0-30 11-43.5t42-13.5z"/><glyph glyph-name="Zacute" unicode="Ź" horiz-adv-x="450" d="M425 81q0 18-21 18H153l255 450q15 25 15 43v54q0 17-21 17H63q-12 0-16-4t-4-14v-63q0-10 4.5-14t16.5-4h230L37 115Q24 93 24 63V18Q24 0 44 0h361q20 0 20 19v62zm-91 706q16 7 7 22l-35 55q-10 16-22 7L146 771q-12-10-6-20l21-31q10-16 23-10z"/><glyph glyph-name="zacute" unicode="ź" horiz-adv-x="392"/><glyph glyph-name="Zdotaccent" unicode="Ż" horiz-adv-x="450" d="M425 81q0 18-21 18H153l255 450q15 25 15 43v54q0 17-21 17H63q-12 0-16-4t-4-14v-63q0-10 4.5-14t16.5-4h230L37 115Q24 93 24 63V18Q24 0 44 0h361q20 0 20 19v62zM291 780q0 57-57 57t-57-57q0-59 57-59t57 59z"/><glyph glyph-name="zdotaccent" unicode="ż" horiz-adv-x="392"/><glyph glyph-name="Zcaron" unicode="Ž" horiz-adv-x="450" d="M425 81q0 18-21 18H153l255 450q15 25 15 43v54q0 17-21 17H63q-12 0-16-4t-4-14v-63q0-10 4.5-14t16.5-4h230L37 115Q24 93 24 63V18Q24 0 44 0h361q20 0 20 19v62zm-58 788q-11 11-29-2l-103-81-105 85q-11 8-15 8-6 0-22-19t-16-25q0-5 6-12l100-106q10-10 28-10h48q21 0 33 12l97 104q10 10 0 22z"/><glyph glyph-name="zcaron" unicode="ž" horiz-adv-x="392"/><glyph glyph-name="florin" unicode="ƒ" d="M32-46q-3-15 9-22 33-18 94-18 63 0 98 44t42 101l37 265h73q15 0 19.5 3t4.5 16v48q0 11-5 14.5t-18 3.5h-65l12 85q7 54 20 75t44 21q9 0 39-5 26-5 30 11l12 46q3 10-8 18-42 19-92 19-83 0-116-59-23-43-34-106l-15-105h-62q-14 0-18.5-4.5T128 388v-45q0-11 5-15t20-4h51l-30-209q-9-64-20-87.5T115 4Q95 4 70 8 46 14 41-6z"/><glyph glyph-name="Ohorn" unicode="Ơ" horiz-adv-x="575" d="M531 341q0 135-33 209 90 22 90 152v54q0 15-19 15h-48q-20 0-20-15v-36q0-52-13.5-74T444 623q-58 48-158 48-242 0-242-330 0-59 3-101 3-39 17-92 14-50 38-82Q162-9 285-9q169 0 220 143 22 57 24 136 2 42 2 71zm-119-10q0-124-29-181t-97-57q-67 0-94 57t-27 181q0 123 28 181.5t93 58.5q69 0 97.5-57T412 331z"/><glyph glyph-name="ohorn" unicode="ơ" horiz-adv-x="465" d="M424 253q0 80-17 131 83 27 83 151v54q0 9-3.5 12t-14.5 3h-49q-11 0-15-3t-4-12v-36q0-47-10-69t-34-27q-47 43-135 43-194 0-194-247 0-87 16-142 13-39 31-62Q126-8 225-8q152 6 182 119 17 55 17 142zM226 404q50 0 68-35.5T312 246q0-86-18.5-122T225 88q-47 0-64.5 36T143 246q0 84 18 121t65 37z"/><glyph glyph-name="Uhorn" unicode="Ư" horiz-adv-x="612" d="M273 95q-57 0-82 34.5T166 241v402q0 20-23 20H75q-14 0-19-4.5T51 643V234Q51-8 273-8q111 0 167.5 63T497 234v311h11q131 0 131 157v55q0 15-18 15h-50q-19 0-19-15v-41q0-52-11.5-71T497 625v18q0 20-23 20h-68q-23 0-23-20V241q0-75-27-110.5T273 95z"/><glyph glyph-name="uhorn" unicode="ư" horiz-adv-x="545" d="M307 19q0-19 20-19h70q20 0 20 19v359h9q131 0 131 157v54q0 15-18 15h-50q-19 0-19-15v-36q0-50-12.5-72.5T417 456v15q0 19-20 19h-68q-22 0-22-19V131q-67-37-104-37-30 0-42.5 19T148 185v142q1 83 1 144 0 19-21 19H59q-21 0-21-19V150q0-70 20-111Q84-9 168-9q69 0 134 53l2-1q1-1 3-1V19z"/><glyph glyph-name="AEacute" unicode="Ǽ" horiz-adv-x="773" d="M755 81q0 18-19 18H503v200h196q12 0 15.5 4t3.5 14v63q0 17-19 17H503v167h220q21 0 21 18v63q0 18-20 18H353q-16 0-22.5-3.5T318 644L15 20Q4 0 26 0h80q24 0 33 19l71 146h177q0-136 1-147 0-18 21-18h326q12 0 16 4t4 14v63zM387 258H250l132 283h5V258zm248 529q16 7 7 22l-35 55q-10 16-22 7L447 771q-12-10-6-20l21-31q10-16 23-10z"/><glyph glyph-name="aeacute" unicode="ǽ" horiz-adv-x="711"/><glyph glyph-name="Oslashacute" unicode="Ǿ" horiz-adv-x="575" d="M531 341q0 173-57 249l30 49q7 13-3 20l-19 12q-11 6-22-8l-22-36q-59 44-152 44-242 0-242-330 0-192 56-270L71 24q-7-13 2-19L94-7q12-7 22 7l20 34Q191-9 285-9q169 0 220 143 22 57 24 136 2 42 2 71zm-119-10q0-124-29-181t-97-57q-60 0-87 44l201 330q12-54 12-136zm-247 0q0 123 28 181.5t93 58.5q62 0 90-45L176 196q-11 53-11 135zm256 456q16 7 7 22l-35 55q-10 16-22 7L233 771q-12-10-6-20l21-31q10-16 23-10z"/><glyph glyph-name="oslashacute" unicode="ǿ" horiz-adv-x="457" d="M424 253q0 124-44 183l22 36q8 14-2 19l-18 11q-12 5-19-7l-17-27q-47 32-121 32-194 0-194-247 0-151 52-209L66 16Q58 4 68-2l18-10q12-9 21 5l13 22Q164-8 225-8q152 6 182 119 17 55 17 142zm-281-7q0 84 18 121t65 37q44 0 63-28L150 152q-7 32-7 94zm205 443q10 13-4 22l-57 32q-16 9-23-4l-73-154q-8-15 4-20l33-18q15-7 25 3 25 35 47 68zm-36-443q0-86-18.5-122T225 88q-34 0-50 16l133 215q4-25 4-73z"/><glyph glyph-name="uni0218" unicode="Ș" horiz-adv-x="475" d="M230-9q96 0 158 47t62 153q0 107-63 148-43 31-134 53-58 12-77 27t-19 59q0 89 92 89 54 0 138-13 17-3 23.5.5T420 571l8 40q1 6 .5 11t-5.5 10-17 11q-60 27-163 27-97 0-151.5-51T37 475q0-95 62-137 47-31 138-53 54-11 74-32 21-19 21-72 0-85-102-85-44 0-154 14-17 3-23.5 0T44 94l-8-42q-5-20 21-32Q121-9 230-9zm68-121q0 47-32 79-18 18-39-1l-40-34q-13-10-4-30 21-32 21-56 0-35-26-67-13-14-5-25l18-19q11-11 27 0 80 57 80 153z"/><glyph glyph-name="uni0219" unicode="ș" horiz-adv-x="400" d="M375 148q0 83-52 114-42 26-111 38-41 7-54.5 17T144 352q0 30 13.5 42.5T205 406q33 0 118-9 16-2 22.5.5T354 411l7 37q3 19-22 29-54 23-135 23-80 0-126-39.5T32 349q0-77 52-108 44-24 115-37 37-6 49.5-18.5T261 141q0-29-16.5-42.5T191 85q-47 0-123 12-16 2-22-1t-8-15l-7-33q-4-23 22-33Q104-8 192-8q79 0 131 37t52 119zM256-130q0 47-32 79-18 18-39-1l-40-34q-13-10-4-30 21-32 21-56 0-35-26-67-13-14-5-25l18-19q11-11 27 0 80 57 80 153z"/><glyph glyph-name="uni021A" unicode="Ț" horiz-adv-x="440" d="M432 644q0 19-22 19H30q-21 0-21-19v-61q0-19 22-19h131V19q0-19 22-19h73q20 0 20 19v545h132q23 0 23 19v61zM280-122q0 47-32 79-18 18-39-1l-40-34q-13-10-4-30 21-32 21-56 0-35-26-67-13-14-5-25l18-19q11-11 27 0 80 57 80 153z"/><glyph glyph-name="uni021B" unicode="ț" horiz-adv-x="316" d="M314 81q-2 11-6.5 14T288 97q-50-5-58-5-29 0-38.5 13t-9.5 52v244h90q9 0 13 2.5t5 6.5 1 12v48q0 12-3 16t-16 4h-89v127q0 23-24 17l-63-19q-21-5-21-21V490H35q-20 0-20-20v-49q0-20 20-20h39V115q0-63 27.5-93T193-8q70 0 113 22 17 11 14 29zM214-123q0 47-32 79-18 18-39-1l-40-34q-13-10-4-30 21-31 21-56 0-35-26-67-13-14-5-25l18-19q11-10 27 0 35 25 57.5 65.5T214-123z"/><glyph glyph-name="uni0259" unicode="ə" horiz-adv-x="439" d="M227 81q-43 0-60.5 29T147 200h158q-2-63-20-91t-58-28zm-6 419q-87 0-147-28-18-9-15-30l7-35q3-20 29-15 70 10 113 10 51 0 73.5-28t24.5-98H84q-51 0-50-61 0-88 34-152Q111-9 226-9q193 0 193 257 0 89-20 145-12 35-33 57-48 50-145 50z"/><glyph glyph-name="uni02B9" unicode="ʹ" horiz-adv-x="238" d="M235 656q9 13-5 21l-61 27q-20 9-27-10L30 437q-6-13 5-19l44-19q13-6 21 6z"/><glyph glyph-name="circumflex" unicode="ˆ" horiz-adv-x="454" d="M112 541q14-11 24 1l98 100 100-101q14-11 24 0l26 24q10 11 0 21l-92 127q-9 12-34 12h-49q-19 0-28-10L86 588q-10-14 0-24z"/><glyph glyph-name="caron" unicode="ˇ" horiz-adv-x="411" d="M70 696q-10-10 0-24l95-127q9-10 28-10h49q25 0 34 12l92 127q10 10 0 21l-26 24q-10 11-24 0L218 618l-98 100q-10 12-24 1z"/><glyph glyph-name="breve" unicode="˘" horiz-adv-x="457" d="M95 649q21-48 63.5-76.5T247 544q45 0 85 28.5t64 78.5q12 22-2 33l-24 17q-17 12-30-6-32-41-50.5-56T248 624q-26 0-45 15t-53 58q-15 19-29 5l-25-22q-10-10-1-31z"/><glyph glyph-name="dotaccent" unicode="˙" horiz-adv-x="353" d="M234 621q0 57-57 57t-57-57q0-59 57-59t57 59z"/><glyph glyph-name="ring" unicode="˚" horiz-adv-x="461" d="M316 562q30 30 30 72t-30 72-74 30-76-29q-31-28-31-73t31-73 76-28q43 0 74 29zm-74 119q18 0 30.5-14.5T285 634q2-28-20.5-40.5t-45-.5-19.5 41q0 18 12.5 32.5T242 681z"/><glyph glyph-name="ogonek" unicode="˛" horiz-adv-x="402" d="M210-95q0 53 47 117h-66q-60-64-60-126 0-95 109-94 39 1 73 20 11 6 10 16l-9 30q-3 10-19 6-27-8-45-8-40 0-40 39z"/><glyph glyph-name="tilde" unicode="˜" horiz-adv-x="455" d="M303 557q68 0 98 89 7 16-8 24l-28 14q-13 6-23-10-20-33-40-33-7 0-61 26-43 24-73 24-67 0-102-92-6-14 7-21l27-14q12-5 14.5-4t8.5 10q21 36 44 36 15 0 64-24 49-25 72-25z"/><glyph glyph-name="hungarumlaut" unicode="˝" horiz-adv-x="466" d="M283 688q10 15-4 22l-58 33q-16 9-22-5l-73-154q-8-15 4-20l33-17q16-9 25 3l45 67q46 66 50 71zm132 0q10 15-4 22l-57 33q-16 7-23-5l-72-154q-8-14 3-20l34-17q15-9 24 3 9 10 48 69z"/><glyph glyph-name="tonos" unicode="΄" horiz-adv-x="448" d="M342 688q10 15-4 22l-57 33q-16 7-23-5l-73-154q-6-14 4-20l33-17q16-9 25 3l45 67q46 66 50 71z"/><glyph glyph-name="dieresistonos" unicode="΅" horiz-adv-x="366" d="M66 559q29 0 40.5 13t11.5 41q0 27-11.5 39T66 664q-52 0-52-51 0-28 11.5-41T66 559zm295 54q0 26-12 38.5T308 664q-51 0-51-51 0-28 11-41t40-13q53 0 53 54zm-88 84q7 17-6 21l-62 27q-17 8-21-7l-59-160q-6-14 6-19l35-14q16-7 23 6 1 1 7 11t15 26 19 34z"/><glyph glyph-name="Alphatonos" unicode="Ά" horiz-adv-x="516" d="M386 21q3-12 8-16.5T412 0h85q18 0 12 20L333 642q-6 21-29 21h-84q-23 0-29-21L15 21Q9 0 30 0h75q22 0 28 21l36 144h181zM264 537q7-43 25-117l38-162H192l12 45 19 75 11 44q1 5 7.5 33t12 52 6.5 30h4zM98 620q10 15-4 22l-57 33q-16 7-23-5l-73-154q-6-14 4-20l33-17q16-9 25 3l45 67q46 66 50 71z"/><glyph glyph-name="anoteleia" unicode="·" horiz-adv-x="185" d="M151 390q0 31-13 45.5T92 450q-59 0-59-60 0-61 59-61t59 61z"/><glyph glyph-name="Epsilontonos" unicode="Έ" horiz-adv-x="460" d="M438 81q0 18-18 18H174v200h207q12 0 16 4t4 14v63q0 17-20 17H174v167h233q12 0 15.5 4t3.5 14v63q0 18-20 18H80q-22 0-22-19V18Q58 0 80 0h338q12 0 16 4t4 14v63zM8 620q10 15-4 22l-57 33q-16 7-23-5l-73-154q-6-14 4-20l33-17q16-9 25 3l46 67q42 63 49 71z"/><glyph glyph-name="Etatonos" unicode="Ή" horiz-adv-x="539" d="M491 644q0 19-20 19h-73q-22 0-22-19V398H174v246q0 19-20 19H81q-22 0-22-19V19Q59 0 81 0h73q20 0 20 19v279h202V19q0-19 22-19h73q20 0 20 19v625zM6 620q10 15-4 22l-57 33q-16 7-23-5l-73-154q-6-14 4-20l33-17q16-9 25 3l46 67q42 63 49 71z"/><glyph glyph-name="Iotatonos" unicode="Ί" horiz-adv-x="241" d="M184 644q0 19-21 19H90q-22 0-22-19V19Q68 0 90 0h73q21 0 21 19v625zM18 620q10 15-4 22l-57 33q-16 7-23-5l-73-154q-6-14 4-20l33-17q16-9 25 3l46 67q42 63 49 71z"/><glyph glyph-name="Omicrontonos" unicode="Ό" horiz-adv-x="575" d="M537 341q0 114-24 186-15 46-41 75-60 69-180 69-242 0-242-330 0-59 3-101 3-39 17-92 14-50 38-82Q168-9 291-9q169 0 220 143 22 57 24 136 2 42 2 71zm-119-10q0-124-29-181t-97-57q-67 0-94 57t-27 181q0 123 28 181.5t93 58.5q69 0 97.5-57T418 331zM47 620q10 15-4 22l-57 33q-16 7-23-5l-73-154q-6-14 4-20l33-17q16-9 25 3l46 67q42 63 49 71z"/><glyph glyph-name="Upsilontonos" unicode="Ύ" horiz-adv-x="495" d="M249 376q-4 10-20.5 54T204 492l-55 131q-11 27-17.5 33t-24.5 6H26q-7 0-11-5.5t0-12.5l179-373V18q0-18 22-18h72q20 0 20 18v253l183 373q7 18-13 18h-78q-14 0-20-3.5T369 643l-66-147q-36-81-48-120h-6zM-11 620q10 15-4 22l-57 33q-16 7-23-5l-73-154q-6-14 4-20l33-17q16-9 25 3l46 67q42 63 49 71z"/><glyph glyph-name="Omegatonos" unicode="Ώ" horiz-adv-x="592" d="M170 344q0 227 133 227 134 0 134-231 0-180-87-224-19-10-19-28V20q0-20 22-20h192q12 0 16 5t4 17v59q0 18-20 18h-56l-1 3q68 79 68 246 0 105-30 179-16 43-44 74-61 70-179 70-167 0-225-153-29-76-29-172 0-181 67-244l-1-3H55q-12 0-16-4t-4-14V20q0-12 4-16t16-4h189q24 0 24 20v69q0 5-1.5 9t-3.5 6-6.5 6-7.5 7q-81 43-79 227zM50 620q10 15-4 22l-57 33q-16 7-23-5l-73-154q-6-14 4-20l33-17q16-9 25 3l45 67q46 66 50 71z"/><glyph glyph-name="iotadieresistonos" unicode="ΐ" horiz-adv-x="216" d="M2 559q29 0 40.5 13T54 613q0 27-11.5 39T2 664q-52 0-52-51 0-28 11.5-41T2 559zm295 54q0 26-12 38.5T244 664q-51 0-51-51 0-28 11-41t40-13q53 0 53 54zm-88 84q7 17-6 21l-62 27q-17 8-21-7L61 578q-6-14 6-19l35-14q16-7 23 6 1 1 7 11t15 26 19 34zm-47-226q0 19-21 19H75q-23 0-23-19V19Q52 0 75 0h66q21 0 21 19v452z"/><glyph glyph-name="Alpha" unicode="Α" horiz-adv-x="516" d="M386 21q3-12 8-16.5T412 0h85q18 0 12 20L333 642q-6 21-29 21h-84q-23 0-29-21L15 21Q9 0 30 0h75q22 0 28 21l36 144h181zM264 537q7-43 25-117l38-162H192l12 45 19 75 11 44q1 5 7.5 33t12 52 6.5 30h4z"/><glyph glyph-name="Beta" unicode="Β" horiz-adv-x="514" d="M482 189q0 68-40 116-23 29-62 43v2q44 19 64 57.5t20 81.5q0 82-51 128t-145 46H75q-22 0-22-19V19Q53 0 77 0h219q80 0 132 51 54 53 54 138zm-119 8q0-98-99-98h-96v197h96q47 0 73-27.5t26-71.5zm-19 281q0-36-23.5-61T262 392h-94v172h83q46 0 69.5-23t23.5-63z"/><glyph glyph-name="Gamma" unicode="Γ" horiz-adv-x="420" d="M402 564q21 0 21 19v62q0 18-21 18H78q-23 0-23-18V19Q55 0 79 0h69q22 0 22 19v545h232z"/><glyph glyph-name="uni0394" unicode="Δ" horiz-adv-x="516" d="M334 640q-4 15-10 19t-24 4h-74q-17 0-23.5-4.5T193 641L16 23Q8 0 32 0h466q22 0 15 24zm-68-114q6-36 30-136l75-291H151l69 255q32 122 40 172h6z"/><glyph glyph-name="Epsilon" unicode="Ε" horiz-adv-x="460" d="M432 81q0 18-18 18H168v200h207q12 0 16 4t4 14v63q0 17-20 17H168v167h233q12 0 15.5 4t3.5 14v63q0 18-20 18H74q-22 0-22-19V18Q52 0 74 0h338q12 0 16 4t4 14v63z"/><glyph glyph-name="Zeta" unicode="Ζ" horiz-adv-x="450" d="M425 81q0 18-21 18H153l255 450q15 25 15 43v54q0 17-21 17H63q-12 0-16-4t-4-14v-63q0-10 4.5-14t16.5-4h230L37 115Q24 93 24 63V18Q24 0 44 0h361q20 0 20 19v62z"/><glyph glyph-name="Eta" unicode="Η" horiz-adv-x="539" d="M485 644q0 19-20 19h-73q-22 0-22-19V398H168v246q0 19-20 19H75q-22 0-22-19V19Q53 0 75 0h73q20 0 20 19v279h202V19q0-19 22-19h73q20 0 20 19v625z"/><glyph glyph-name="Theta" unicode="Θ" horiz-adv-x="587" d="M543 340q0 112-25 185-17 47-43 76-61 70-185 70-247 0-247-331 0-56 3-97 3-37 17-91 15-52 40-84 26-34 75-55.5T290-9q126 0 189 77 26 34 41 83 23 77 23 189zm-120-10q0-122-31-179.5T290 93q-69 0-97.5 56.5T164 330q0 123 29 181.5t97 58.5q74 0 103.5-55.5T423 330zm-34 48q0 19-18 19H224l-6.5-.5-5.5-1-4.5-1-3.5-2-3.5-3.5-2-4.5-.5-5.5v-61q0-3 .5-6t2-5 2.5-3 4-2 5-1.5 6.5-.5H371q11 0 14.5 4t3.5 14v60z"/><glyph glyph-name="Iota" unicode="Ι" horiz-adv-x="241" d="M178 644q0 19-21 19H84q-22 0-22-19V19Q62 0 84 0h73q21 0 21 19v625z"/><glyph glyph-name="Kappa" unicode="Κ" horiz-adv-x="505" d="M492 644q6 8 2 13.5t-13 5.5h-86q-26 0-35-14L250 486q-66-96-83-127h-4v285q0 19-20 19H71q-22 0-22-19V19Q49 0 71 0h72q20 0 20 19v163l70 99L362 25q10-25 37-25h87q10 0 13 7t-2 14L306 382z"/><glyph glyph-name="Lambda" unicode="Λ" horiz-adv-x="516" d="M232 414q13 48 28 123h4q8-48 25-117l97-399q3-12 8-16.5T412 0h85q18 0 12 20L333 642q-6 21-29 21h-84q-23 0-29-21L15 21Q9 0 30 0h75q22 0 28 21z"/><glyph glyph-name="Mu" unicode="Μ" horiz-adv-x="659" d="M605 646q0 17-19 17h-59q-25 0-35-19l-94-222q-50-122-65-166h-5l-66 167-94 222q-5 11-11 14.5t-22 3.5H73q-21 0-21-17V19Q52 0 75 0h68q21 0 21 19v377q2 0 3 1 23-63 44-109l71-164q9-18 29-18h40q20 0 27 19l65 155q26 62 45 115l3-1V19q0-19 22-19h71q21 0 21 19v627z"/><glyph glyph-name="Nu" unicode="Ν" horiz-adv-x="563" d="M399 20q11-20 35-20h57q19 0 19 19v625q0 19-20 19h-71q-20 0-20-19V224q-2 0-3-1-23 52-75 145L165 645q-11 18-33 18H74q-21 0-21-17V19Q53 0 75 0h70q20 0 20 19v420h3q34-71 84-159z"/><glyph glyph-name="Xi" unicode="Ξ" horiz-adv-x="471" d="M422 563q12 0 15.5 4t3.5 15v62q0 19-20 19H47q-22 0-22-19v-62q0-12 3.5-15.5T46 563h376zM39 99q-11 0-15-4.5T20 79V18q0-10 4.5-14T41 0h385q14 0 18 4t4 14v61q0 20-20 20H39zm352 199q22 0 22 18v62q0 19-20 19H73q-20 0-20-19v-62q0-10 3.5-14t17.5-4h317z"/><glyph glyph-name="Omicron" unicode="Ο" horiz-adv-x="575" d="M531 341q0 114-24 186-15 46-41 75-60 69-180 69-242 0-242-330 0-59 3-101 3-39 17-92 14-50 38-82Q162-9 285-9q169 0 220 143 22 57 24 136 2 42 2 71zm-119-10q0-124-29-181t-97-57q-67 0-94 57t-27 181q0 123 28 181.5t93 58.5q69 0 97.5-57T412 331z"/><glyph glyph-name="Pi" unicode="Π" horiz-adv-x="547" d="M497 643q0 11-4.5 15.5T476 663H75q-22 0-22-20V19Q53 0 77 0h69q22 0 22 19v543h214V19q0-19 25-19h67q23 0 23 19v624z"/><glyph glyph-name="Rho" unicode="Ρ" horiz-adv-x="468" d="M455 464q0 100-58.5 149.5T233 663H74q-22 0-22-18V19Q52 0 74 0h73q21 0 21 19v238h83q119 0 165 70 39 60 39 137zm-116-2q0-108-97-108h-74v210h70q101 0 101-102z"/><glyph glyph-name="Sigma" unicode="Σ" horiz-adv-x="424" d="M416 80q0 19-22 19H148q14 24 36 69 2 4 43 83 19 37 39 69 6 12 6 22t-6 21L145 562h236q16 0 19.5 4t3.5 16v61q0 12-4 16t-18 4H42q-25 0-25-20v-40q0-28 22-65l115-196L41 122Q27 93 24 84q-3-10-3-32V18Q21 0 45 0h349q14 0 18 3.5t4 15.5v61z"/><glyph glyph-name="Tau" unicode="Τ" horiz-adv-x="440" d="M432 644q0 19-22 19H30q-21 0-21-19v-61q0-19 22-19h131V19q0-19 22-19h73q20 0 20 19v545h132q23 0 23 19v61z"/><glyph glyph-name="Upsilon" unicode="Υ" horiz-adv-x="495" d="M247 376q-4 10-20.5 54T202 492l-55 131q-11 27-17.5 33t-24.5 6H24q-7 0-11-5.5t0-12.5l179-373V18q0-18 22-18h72q20 0 20 18v253l183 373q7 18-13 18h-78q-14 0-20-3.5T367 643l-66-147q-36-81-48-120h-6z"/><glyph glyph-name="Phi" unicode="Φ" horiz-adv-x="696" d="M409 79q68 7 118.5 31.5t78 62 40.5 79 13 89.5q0 87-49 158-57 84-200 98v47q0 10-4.5 14.5T389 663h-73q-22 0-22-19v-47q-71-6-123.5-33.5t-79-67.5T53 417t-12-79q0-99 50-170 58-80 203-90V19q0-19 22-19h73q9 0 13.5 2.5t5.5 6 1 10.5v60zM155 338q0 72 35 114.5T294 503V172q-139 18-139 166zm389 0q0-73-34.5-116.5T409 172v331q67-8 101-51.5T544 338z"/><glyph glyph-name="Chi" unicode="Χ" horiz-adv-x="481" d="M352 17q9-17 30-17h82q23 0 14 19L308 345l158 298q6 7 1.5 13.5T452 663h-82q-23 0-29-18l-93-200-94 202q-4 10-9.5 13t-19.5 3H43q-10 0-13.5-6.5T31 642l154-297L17 21Q8 0 29 0h83q24 0 31 18l105 223z"/><glyph glyph-name="Psi" unicode="Ψ" horiz-adv-x="645" d="M595 643q0 20-23 20h-66q-25 0-25-20V405q0-122-104-142v380q0 11-4.5 15.5T356 663h-71q-23 0-23-20V262q-103 13-103 143v238q0 20-23 20H68q-24 0-24-20V408q0-110 54.5-175T262 159V20q0-20 25-20h66q24 0 24 20v140q102 9 160 76t58 172v235z"/><glyph glyph-name="uni03A9" unicode="Ω" horiz-adv-x="592" d="M164 344q0 227 133 227 134 0 134-231 0-180-87-224-19-10-19-28V20q0-20 22-20h192q12 0 16 5t4 17v59q0 18-20 18h-56l-1 3q68 79 68 246 0 105-30 179-16 43-44 74-61 70-179 70-167 0-225-153-29-76-29-172 0-181 67-244l-1-3H49q-12 0-16-4t-4-14V20q0-12 4-16t16-4h189q24 0 24 20v69q0 5-1.5 9t-3.5 6-6.5 6-7.5 7q-81 43-79 227z"/><glyph glyph-name="Iotadieresis" unicode="Ϊ" horiz-adv-x="241" d="M39 727q31 0 42.5 14T93 784q0 28-11.5 40.5T39 837q-54 0-54-53 0-30 11.5-43.5T39 727zm169 0q31 0 42.5 14t11.5 43q0 28-11.5 40.5T208 837q-53 0-53-53 0-30 11-43.5t42-13.5zm-30-83q0 19-21 19H84q-22 0-22-19V19Q62 0 84 0h73q21 0 21 19v625z"/><glyph glyph-name="Upsilondieresis" unicode="Ϋ" horiz-adv-x="495" d="M247 376q-4 10-20.5 54T202 492l-55 131q-11 27-17.5 33t-24.5 6H24q-7 0-11-5.5t0-12.5l179-373V18q0-18 22-18h72q20 0 20 18v253l183 373q7 18-13 18h-78q-14 0-20-3.5T367 643l-66-147q-36-81-48-120h-6zm-81 351q31 0 42.5 14t11.5 43q0 28-11.5 40.5T166 837q-54 0-54-53 0-30 11.5-43.5T166 727zm169 0q31 0 42.5 14t11.5 43q0 28-11.5 40.5T335 837q-53 0-53-53 0-30 11-43.5t42-13.5z"/><glyph glyph-name="alphatonos" unicode="ά" horiz-adv-x="478" d="M142 238q0 86 18.5 123.5T222 399t89-25V135q-22-16-54.5-29.5T204 92q-33 0-48 29-14 30-14 117zM319 47q6-29 23.5-40T397-4q27 0 42 4 26 5 26 22v43q0 7-3.5 10T446 80q-18 2-21.5 8t-3.5 34v347q0 12-4.5 16.5T400 490h-66q-12 0-16-4t-4-15v-10q-44 37-108 37-93 0-134.5-65.5T30 239 63 52 177-7q71 0 138 54h4zm20 641q10 15-4 22l-57 33q-16 7-23-5l-73-154q-6-14 4-20l33-17q16-9 25 3l45 67q46 66 50 71z"/><glyph glyph-name="epsilontonos" unicode="έ" horiz-adv-x="395" d="M95 260q-30-17-47-48t-17-65q0-91 65-125Q151-7 224-7q90 0 138 24 25 10 19 31l-6 33q-5 21-30 15-76-10-118-10-80 0-80 67 0 37 20.5 51t60.5 14h44q11 0 14.5 4t3.5 15v42q0 19-18 19h-39q-78 0-78 52 0 57 75 57 30 0 103-9 29-6 34 16l7 37q4 15-16 26-24 11-65 17-39 7-74 7-34 0-62-7Q39 466 39 353q0-60 56-89v-4zm217 428q10 15-4 22l-57 33q-16 7-23-5l-73-154q-6-14 4-20l33-17q16-9 25 3l45 67q46 66 50 71z"/><glyph glyph-name="etatonos" unicode="ή" horiz-adv-x="458" d="M146 471q0 19-20 19H56q-20 0-20-19V19Q36 0 56 0h69q21 0 21 19v342q70 36 109 36 31 0 43.5-19.5T311 308q0-61-1-144V19q0-19 21-19h70q21 0 21 19v290q0 71-12 110-7 24-22 43-33 37-103 37-66 0-134-51l-5 2v21zm175 217q10 15-4 22l-57 33q-16 7-23-5l-73-154q-6-14 4-20l33-17q16-9 25 3l45 67q46 66 50 71z"/><glyph glyph-name="iotatonos" unicode="ί" horiz-adv-x="216" d="M162 471q0 19-21 19H75q-23 0-23-19V19Q52 0 75 0h66q21 0 21 19v452zm60 217q10 15-4 22l-57 33q-16 7-23-5L65 584q-6-14 4-20l33-17q16-9 25 3l45 67q46 66 50 71z"/><glyph glyph-name="upsilondieresistonos" unicode="ΰ" horiz-adv-x="460" d="M109 559q29 0 40.5 13t11.5 41q0 27-11.5 39T109 664q-52 0-52-51 0-28 11.5-41t40.5-13zm295 54q0 26-12 38.5T351 664q-51 0-51-51 0-28 11-41t40-13q53 0 53 54zm-88 84q8 17-6 21l-62 27q-17 8-21-7l-59-160q-6-14 6-19l35-14q16-7 23 6 1 1 7 11t15 26 19 34zM149 470q0 11-4.5 15.5T127 490H61q-22 0-22-20V188Q39-7 227-7q96 0 145 52.5T421 188v282q0 20-22 20h-67q-23 0-23-20V188q0-101-80-101-44 0-62 25t-18 76v282z"/><glyph glyph-name="alpha" unicode="α" horiz-adv-x="478" d="M142 238q0 86 18.5 123.5T222 399t89-25V135q-22-16-54.5-29.5T204 92q-33 0-48 29-14 30-14 117zM319 47q6-29 23.5-40T397-4q27 0 42 4 26 5 26 22v43q0 7-3.5 10T446 80q-18 2-21.5 8t-3.5 34v347q0 12-4.5 16.5T400 490h-66q-12 0-16-4t-4-15v-10q-44 37-108 37-93 0-134.5-65.5T30 239 63 52 177-7q71 0 138 54h4z"/><glyph glyph-name="beta" unicode="β" horiz-adv-x="456" d="M149 7q47-16 95-16 100 0 141 58t41 188q0 145-101 171v5q34 20 51 56.5t17 73.5q0 78-45.5 122T218 709q-83 0-133-58T35 491v-655q0-19 22-19h66q22 0 22 19V3zm165 226q0-80-19-113.5T233 86q-44 0-89 14v389q0 125 71 125 31 0 50.5-21.5T285 536q0-56-27-79-22-18-62-30-17-5-17-20v-49q0-12 21-14 62-6 88-31t26-80z"/><glyph glyph-name="gamma" unicode="γ" horiz-adv-x="430" d="M221 146q-10 51-26 101l-50 178q-12 42-27.5 58.5T70 500q-28 0-57-13-16-7-14-18l8-51q1-10 17-11 17-2 24-23L166 5v-170q0-12 4.5-16t18.5-4h66q21 0 21 20V8l155 462q6 20-13 20h-72q-20 0-25-17l-62-207q-25-78-31-120h-7z"/><glyph glyph-name="delta" unicode="δ" horiz-adv-x="460" d="M231 708q-78 0-122-39.5T65 557q0-75 63-111-47-31-72-86.5T31 244q0-80 17-136 10-34 31-60Q128-8 226-8q143 4 180 117 18 54 18 135 0 106-50 162-41 49-126 89-41 19-55.5 33.5T178 571q0 43 57 43 33 0 118-9 16-2 22.5.5T384 619l7 37q3 19-22 29-54 23-138 23zm82-471q0-80-19-115t-68-35q-46 0-64.5 34.5T143 237q0 115 76 158 53-17 73.5-52.5T313 237z"/><glyph glyph-name="epsilon" unicode="ε" horiz-adv-x="395" d="M95 260q-30-17-47-48t-17-65q0-91 65-125Q151-7 224-7q90 0 138 24 25 10 19 31l-6 33q-5 21-30 15-76-10-118-10-80 0-80 67 0 37 20.5 51t60.5 14h44q11 0 14.5 4t3.5 15v42q0 19-18 19h-39q-78 0-78 52 0 57 75 57 30 0 103-9 29-6 34 16l7 37q4 15-16 26-24 11-65 17-39 7-74 7-34 0-62-7Q39 466 39 353q0-60 56-89v-4z"/><glyph glyph-name="zeta" unicode="ζ" horiz-adv-x="405" d="M305 82q-168 0-168 76 0 35 42 87 16 18 63 54 23 20 74 49l39 24 35 21q12 7 12 31v50q0 16-16 16H56q-18 0-18-18v-54q0-19 18-19h176l1-2q-84-44-147-107-60-61-60-139Q26-6 274-11q-29-56-42-109-11-33 9-38l55-14q21-5 27 19 11 41 49 126 16 33 16 44 0 4-4 15l-12 31q-5 12-11 16t-20 3h-36z"/><glyph glyph-name="eta" unicode="η" horiz-adv-x="458" d="M146 471q0 19-20 19H56q-20 0-20-19V19Q36 0 56 0h69q21 0 21 19v342q70 36 109 36 31 0 43.5-19.5T311 308q0-61-1-144V19q0-19 21-19h70q21 0 21 19v290q0 71-12 110-7 24-22 43-33 37-103 37-66 0-134-51l-5 2v21z"/><glyph glyph-name="theta" unicode="θ" horiz-adv-x="478" d="M236-8q69-3 113.5 31t66.5 89q15 31 21 79 7 52 8 83 2 48 2 88 0 102-14 173-8 44-22 71-50 102-175 102-148-5-188-164-18-75-18-182 0-59 1-80 2-49 5-75 6-69 35-128Q113-4 236-8zm99 336q0-134-21-188t-77-54q-54 0-75 56.5T143 328h192zm-98 286q52 0 74-46.5T335 412H144q2 103 24 152.5t69 49.5z"/><glyph glyph-name="iota" unicode="ι" horiz-adv-x="216" d="M162 471q0 19-21 19H75q-23 0-23-19V19Q52 0 75 0h66q21 0 21 19v452z"/><glyph glyph-name="kappa" unicode="κ" horiz-adv-x="424" d="M295 18q9-18 33-18h75q16 0 16 12 0 6-3 10L270 291l128 176q5 8 5 11 0 12-15 12h-77q-24 0-35-17l-81-121-41-63-1 1h-1v180q0 20-21 20H62q-20 0-20-20V18Q42 0 62 0h69q21 0 21 18v112q11 15 49 68z"/><glyph glyph-name="lambda" unicode="λ" horiz-adv-x="425" d="M213 333q1-7 29-131l21-90q17-68 33-92t62-24q48 0 63 12 7 6 5 17l-4 36q-2 13-15 14-13 2-19 8t-10 21L231 633q-12 43-36 59t-67 16q-33 0-54-8-12-5-15.5-9T56 678l5-45q3-15 31-15 24-4 33-13t16-37l23-92L5 19q-1-2-1-8Q4 0 20 0h69q17 0 22 15l63 198q11 36 34 120h5z"/><glyph glyph-name="nu" unicode="ν" horiz-adv-x="436" d="M427 470q1 2 1 8 0 12-15 12h-75q-9 0-13.5-2.5t-5.5-5-4-9.5q-46-154-75-269-1-4-6-22.5t-9.5-35.5-4.5-18h-3q0 4-9 35l-10 41-75 268q-5 18-24 18H23q-15 0-15-14 0-6 1-7L150 41q11-31 12-32 6-9 24-9h64q22 0 29 21z"/><glyph glyph-name="xi" unicode="ξ" horiz-adv-x="367" d="M118 381q-48-22-72-77-24-52-24-111Q22 72 92 27q65-39 167-39-29-56-42-109-11-33 9-38l55-14q21-5 27 19 11 41 49 126 16 33 16 44 0 4-4 15l-12 32q-4 12-10 15.5T326 82h-28q-59 0-95 9-26 8-38 19-32 32-32 90 0 145 124 145h62q17 0 17 19v48q0 17-17 17h-60q-115 0-115 88 0 96 97 96 47 0 117-9 11 0 14 17l7 38q3 18-21 28-51 22-133 22-91 0-141.5-50.5T33 515q0-99 85-130v-4z"/><glyph glyph-name="omicron" unicode="ο" horiz-adv-x="457" d="M424 253q0 83-19 136-13 36-33 58-48 53-147 53-194 0-194-247 0-87 16-142 13-39 31-62Q126-8 225-8q152 6 182 119 17 55 17 142zM226 404q50 0 68-35.5T312 246q0-86-18.5-122T225 88q-47 0-64.5 36T143 246q0 84 18 121t65 37z"/><glyph glyph-name="pi" unicode="π" horiz-adv-x="467" d="M432 470q0 12-4 16t-17 4H59q-21 0-21-19V19Q38 0 59 0h69q20 0 20 19v378h173V19q0-19 20-19h70q21 0 21 19v451z"/><glyph glyph-name="rho" unicode="ρ" horiz-adv-x="460" d="M151 7q56-17 97-17 99 0 140 62t41 197q0 127-45.5 189T232 500Q36 500 36 249v-413q0-12 4-16.5t18-4.5h66q23 0 23 21V4zm165 244q0-92-18-128t-61-36q-46 0-91 13v161q0 143 86 143 43 0 63.5-35.5T316 251z"/><glyph glyph-name="sigma1" unicode="ς" horiz-adv-x="400" d="M375 148q0 83-52 114-42 26-111 38-41 7-54.5 17T144 352q0 30 13.5 42.5T205 406q33 0 118-9 16-2 22.5.5T354 411l7 37q3 19-22 29-54 23-135 23-80 0-126-39.5T32 349q0-77 52-108 44-24 115-37 37-6 49.5-18.5T261 141q0-29-16.5-42.5T191 85q-47 0-123 12-16 2-22-1t-8-15l-7-33q-4-23 22-33Q104-8 192-8q79 0 131 37t52 119z"/><glyph glyph-name="sigma" unicode="σ" horiz-adv-x="470" d="M384 395v1h54q14 0 18.5 4t4.5 16v54q0 12-4.5 16t-18.5 4H227Q91 490 48 373q-19-56-19-125 0-78 15-138 11-39 30-61Q124-8 222-8q147 4 182 118 17 52 17 133 0 105-39 148v2l1 1zM222 85q-46 0-63.5 35T141 241q0 83 28 119t88 36q31-18 42.5-52T311 241q0-85-19.5-120.5T222 85z"/><glyph glyph-name="tau" unicode="τ" horiz-adv-x="363" d="M352 81q-2 10-5.5 13.5T334 97q-47-5-64-5-27 0-36.5 13t-9.5 51v241h106q14 0 17.5 4.5T351 419v51q0 12-3.5 16t-17.5 4H32q-12 0-16.5-4.5T11 469v-50q0-12 4.5-17t16.5-5h84V133q0-73 26-107Q168-7 244-7q74 0 105 25 12 10 9 25z"/><glyph glyph-name="upsilon" unicode="υ" horiz-adv-x="460" d="M149 470q0 11-4.5 15.5T127 490H61q-22 0-22-20V188Q39-7 227-7q96 0 145 52.5T421 188v282q0 20-22 20h-67q-23 0-23-20V188q0-101-80-101-44 0-62 25t-18 76v282z"/><glyph glyph-name="phi" unicode="φ" horiz-adv-x="602" d="M568 246q0 39-6 73.5t-21.5 68T501 445t-64 39-92 15h-57q-39 0-39-39V81q-52 4-80.5 48T140 247q0 116 64 168 14 13 7 26l-26 36q-12 19-32 8Q32 419 32 249 32 4 245-10v-147q0-19 25-19h61q24 0 24 19V-9q103 8 158 75.5T568 246zm-106-7q0-69-27.5-110T355 82v322q107-6 107-165z"/><glyph glyph-name="chi" unicode="χ" horiz-adv-x="416" d="M287 15q7-15 28-15h84q10 0 14 6t-1 14L274 251l131 219q8 20-13 20h-85q-17 0-24-15l-74-147-72 143q-6 13-10.5 16t-16.5 3H29q-10 0-13.5-6t1.5-14l126-220L8 20Q2 12 6.5 6T20 0h83q21 0 28 15l77 154z"/><glyph glyph-name="psi" unicode="ψ" horiz-adv-x="566" d="M335-10q92 8 141.5 59.5T526 185v286q0 19-22 19h-63q-22 0-22-19V187q0-92-84-100v430q0 19-22 19h-63q-14 0-18.5-4.5T227 517V87q-82 10-82 100v284q0 19-21 19H60q-22 0-22-19V185q0-88 47.5-138T227-10v-146q0-11 4.5-15t17.5-4h65q12 0 16.5 4.5T335-156v146z"/><glyph glyph-name="omega" unicode="ω" horiz-adv-x="665" d="M521 242q0-153-70-153-69 0-69 98v114q0 21-21 21h-58q-21 0-21-21V187q0-98-67-98-37 0-54 36t-17 121q1 67 15 104t51 66q19 13 11 29l-20 40q-10 22-37 9-84-36-110-112-22-63-22-144 0-123 40.5-184.5T209-8q79 0 120 68 2 0 3 1 16-31 50-50t75-19q176 0 176 247 0 197-135 255-27 10-37-9l-21-40q-7-15 11-29 38-29 53.5-68.5T521 242z"/><glyph glyph-name="iotadieresis" unicode="ϊ" horiz-adv-x="216" d="M24 559q31 0 42.5 14T78 616q0 27-12 40t-42 13q-55 0-55-53 0-30 12-43.5T24 559zm172 0q31 0 43 14t12 43q0 28-12 40.5T196 669q-54 0-54-53 0-30 11.5-43.5T196 559zm-34-88q0 19-21 19H75q-23 0-23-19V19Q52 0 75 0h66q21 0 21 19v452z"/><glyph glyph-name="upsilondieresis" unicode="ϋ" horiz-adv-x="460" d="M149 470q0 11-4.5 15.5T127 490H61q-22 0-22-20V188Q39-7 227-7q96 0 145 52.5T421 188v282q0 20-22 20h-67q-23 0-23-20V188q0-101-80-101-44 0-62 25t-18 76v282zm-5 89q31 0 42.5 14t11.5 43q0 27-12 40t-42 13q-55 0-55-53 0-30 12-43.5t43-13.5zm172 0q31 0 43 14t12 43q0 28-12 40.5T316 669q-54 0-54-53 0-30 11.5-43.5T316 559z"/><glyph glyph-name="omicrontonos" unicode="ό" horiz-adv-x="457" d="M424 253q0 83-19 136-13 36-33 58-48 53-147 53-194 0-194-247 0-87 16-142 13-39 31-62Q126-8 225-8q152 6 182 119 17 55 17 142zM226 404q50 0 68-35.5T312 246q0-86-18.5-122T225 88q-47 0-64.5 36T143 246q0 84 18 121t65 37zm115 284q10 15-4 22l-57 33q-16 7-23-5l-73-154q-6-14 4-20l33-17q16-9 25 3l45 67q46 66 50 71z"/><glyph glyph-name="upsilontonos" unicode="ύ" horiz-adv-x="460" d="M149 470q0 11-4.5 15.5T127 490H61q-22 0-22-20V188Q39-7 227-7q96 0 145 52.5T421 188v282q0 20-22 20h-67q-23 0-23-20V188q0-101-80-101-44 0-62 25t-18 76v282zm188 218q10 15-4 22l-57 33q-16 7-23-5l-73-154q-6-14 4-20l33-17q16-9 25 3l45 67q46 66 50 71z"/><glyph glyph-name="omegatonos" unicode="ώ" horiz-adv-x="665" d="M521 242q0-153-70-153-69 0-69 98v114q0 21-21 21h-58q-21 0-21-21V187q0-98-67-98-37 0-54 36t-17 121q1 67 15 104t51 66q19 13 11 29l-20 40q-10 22-37 9-84-36-110-112-22-63-22-144 0-123 40.5-184.5T209-8q79 0 120 68 2 0 3 1 16-31 50-50t75-19q176 0 176 247 0 197-135 255-27 10-37-9l-21-40q-7-15 11-29 38-29 53.5-68.5T521 242zm-75 446q10 15-4 22l-57 33q-16 7-23-5l-73-154q-6-14 4-20l33-17q16-9 25 3l45 67q46 66 50 71z"/><glyph glyph-name="uni0400" unicode="Ѐ" horiz-adv-x="460" d="M432 81q0 18-18 18H168v200h207q12 0 16 4t4 14v63q0 17-20 17H168v167h233q12 0 15.5 4t3.5 14v63q0 18-20 18H74q-22 0-22-19V18Q52 0 74 0h338q12 0 16 4t4 14v63zM273 711q13-6 23 10l21 31q6 10-6 20L173 872q-12 9-22-7l-35-55q-9-15 7-22z"/><glyph glyph-name="uni0401" unicode="Ё" horiz-adv-x="460" d="M432 81q0 18-18 18H168v200h207q12 0 16 4t4 14v63q0 17-20 17H168v167h233q12 0 15.5 4t3.5 14v63q0 18-20 18H74q-22 0-22-19V18Q52 0 74 0h338q12 0 16 4t4 14v63zM150 727q31 0 42.5 14t11.5 43q0 28-11.5 40.5T150 837q-54 0-54-53 0-30 11.5-43.5T150 727zm169 0q31 0 42.5 14t11.5 43q0 28-11.5 40.5T319 837q-53 0-53-53 0-30 11-43.5t42-13.5z"/><glyph glyph-name="uni0402" unicode="Ђ" horiz-adv-x="635" d="M274 302q71 47 123 47 90 0 90-127 0-189-119-278-16-13-7-28l21-39q10-22 35-10 29 13 60 42 34 30 50 51 74 101 74 258 0 107-48.5 167.5T411 446q-61 0-137-40v157h200q14 0 18 4.5t4 14.5v62q0 19-22 19H27q-14 0-18-3.5T5 644v-61q0-12 4-16t18-4h132V20q0-20 23-20h70q22 0 22 20v282z"/><glyph glyph-name="uni0403" unicode="Ѓ" horiz-adv-x="420" d="M402 564q21 0 21 19v62q0 18-21 18H78q-23 0-23-18V19Q55 0 79 0h69q22 0 22 19v545h232zm-69 223q16 7 7 22l-35 55q-10 16-22 7L145 771q-12-10-6-20l21-31q10-16 23-10z"/><glyph glyph-name="uni0404" unicode="Є" horiz-adv-x="490" d="M289 670q-165 0-216-150-27-78-27-193 0-114 27-191 16-44 42-76Q176-8 287-8q102 0 168 29 23 11 19 33l-8 38q-6 18-30 16-83-10-141-10-66 0-94.5 49T169 294h207q11 0 15 4.5t4 14.5v60q0 17-19 17H171q6 88 33.5 131t90.5 43q54 0 141-10 25-4 29 15l8 41q3 21-20 32-63 28-164 28z"/><glyph glyph-name="uni0405" unicode="Ѕ" horiz-adv-x="475" d="M230-9q96 0 158 47t62 153q0 107-63 148-43 31-134 53-58 12-77 27t-19 59q0 89 92 89 54 0 138-13 17-3 23.5.5T420 571l8 40q1 6 .5 11t-5.5 10-17 11q-60 27-163 27-97 0-151.5-51T37 475q0-95 62-137 47-31 138-53 54-11 74-32 21-19 21-72 0-85-102-85-44 0-154 14-17 3-23.5 0T44 94l-8-42q-5-20 21-32Q121-9 230-9z"/><glyph glyph-name="uni0406" unicode="І" horiz-adv-x="241" d="M178 644q0 19-21 19H84q-22 0-22-19V19Q62 0 84 0h73q21 0 21 19v625z"/><glyph glyph-name="uni0407" unicode="Ї" horiz-adv-x="241" d="M37 727q31 0 42.5 14T91 784q0 28-11.5 40.5T37 837q-54 0-54-53 0-30 11.5-43.5T37 727zm169 0q31 0 42.5 14t11.5 43q0 28-11.5 40.5T206 837q-53 0-53-53 0-30 11-43.5t42-13.5zm-28-83q0 19-21 19H84q-22 0-22-19V19Q62 0 84 0h73q21 0 21 19v625z"/><glyph glyph-name="uni0408" unicode="Ј" horiz-adv-x="386" d="M327 644q0 19-22 19h-72q-22 0-22-19V186q0-47-17.5-68.5T133 96q-21 0-96 8-13 2-17.5-.5T13 91L3 45q-5-20 13-29Q66-9 148-9q178 0 179 177v476z"/><glyph glyph-name="uni0409" unicode="Љ" horiz-adv-x="781" d="M352 19q0-10 4.5-14.5T375 0h198q85 0 141 50 56 51 56 148 0 77-38 135-45 68-156 68H468v242q0 20-23 20H153q-23 0-25-20l-18-288q-9-163-24-215T20 76Q7 72 3.5 69T0 57l2-45Q2-1 8-6t25-5q61 0 104 34 34 27 55 95 8 29 14 69 7 49 8 77l6 91 12 208h120V19zm302 180q0-48-23.5-74.5T565 98h-97v207h102q84 0 84-106z"/><glyph glyph-name="uni040A" unicode="Њ" horiz-adv-x="763" d="M327 398H169v245q0 20-23 20H76q-23 0-23-20V20Q53 0 76 0h70q23 0 23 20v277h158V19q0-19 24-19h197q86 0 142 51t56 147q0 77-39 134-44 67-158 67H444v244q0 20-23 20h-70q-24 0-24-20V398zm303-199q0-48-23.5-74.5T541 98h-98v202h103q84 0 84-101z"/><glyph glyph-name="uni040B" unicode="Ћ" horiz-adv-x="628" d="M592 264q0 92-35 142t-132 50q-65 0-147-44v151h195q24 0 24 20v61q0 19-23 19H31q-14 0-19-4.5T7 643v-60q0-11 5-15.5t19-4.5h131V21q0-21 23-21h70q23 0 23 21v287q89 49 130 49 36 0 53.5-20.5T479 268V21q0-21 23-21h66q24 0 24 21v243z"/><glyph glyph-name="uni040C" unicode="Ќ" horiz-adv-x="509" d="M341 345q67 23 92 123l45 169q8 25-20 25h-65q-15 0-21.5-4.5T361 639l-44-165q-23-84-99-84h-52v254q0 19-20 19H73q-22 0-22-19V19Q51 0 73 0h73q20 0 20 20v271h53q39 0 63.5-19.5T319 203l44-176q4-16 11-21.5T398 0h68q31 0 20 25l-50 190q-29 104-95 126v4zm33 442q16 7 7 22l-35 55q-10 16-22 7L186 771q-12-10-6-20l21-31q10-16 23-10z"/><glyph glyph-name="uni040D" unicode="Ѝ" horiz-adv-x="568" d="M53 18q0-10 4-14t16-4h58q23 0 37 20l109 200q90 164 120 228h3V18q0-18 21-18h72q21 0 21 18v627q0 18-19 18h-66q-21 0-34-21l-92-169-133-251h-4v421q0 20-21 20H73q-20 0-20-20V18zm269 693q13-6 23 10l21 31q6 10-6 20L222 872q-12 9-22-7l-35-55q-9-15 7-22z"/><glyph glyph-name="uni040E" unicode="Ў" horiz-adv-x="500" d="M117 798q21-48 63.5-76.5T269 693q45 0 85 28.5t64 78.5q12 22-2 33l-24 17q-16 11-30-6-32-41-50.5-56T270 773q-26 0-45 15t-53 58q-15 19-29 5l-25-22q-10-10-1-31zm144-516q-17 69-53 179l-61 184q-6 18-30 18H38q-22 0-15-19 33-91 94-250 81-210 92-242l-10-25q-13-27-32-35t-59-6q-15 1-20.5-3T81 67l-5-44Q72 0 102-7q27-7 63-7 68 0 101 44 31 40 59 123l172 492q5 18-16 18h-70q-15 0-22-5.5T377 636l-54-168q-26-76-56-185z"/><glyph glyph-name="uni040F" unicode="Џ" horiz-adv-x="539" d="M465 0q12 0 16.5 4.5T486 20v624q0 19-21 19h-72q-22 0-22-19V100H168v544q0 19-20 19H75q-12 0-16.5-4.5T54 644V20Q54 0 76 0h137l6-135q1-14 5.5-18t17.5-4h58q12 0 17 5.5t6 20.5l6 131h136z"/><glyph glyph-name="uni0410" unicode="А" horiz-adv-x="516" d="M386 21q3-12 8-16.5T412 0h85q18 0 12 20L333 642q-6 21-29 21h-84q-23 0-29-21L15 21Q9 0 30 0h75q22 0 28 21l36 144h181zM264 537q7-43 25-117l38-162H192l12 45 19 75 11 44q1 5 7.5 33t12 52 6.5 30h4z"/><glyph glyph-name="uni0411" unicode="Б" horiz-adv-x="487" d="M421 644q0 19-21 19H71q-18-1-18-19V18Q53 0 75 0h186q92 0 151 50 59 51 59 147 0 78-40 135-44 68-166 68h-96v163h231q21 0 21 18v63zm-66-446q0-48-27-74.5T253 97h-85v207h91q52 0 74-26.5t22-79.5z"/><glyph glyph-name="uni0412" unicode="В" horiz-adv-x="514" d="M482 189q0 68-40 116-23 29-62 43v2q44 19 64 57.5t20 81.5q0 82-51 128t-145 46H75q-22 0-22-19V19Q53 0 77 0h219q80 0 132 51 54 53 54 138zm-119 8q0-98-99-98h-96v197h96q47 0 73-27.5t26-71.5zm-19 281q0-36-23.5-61T262 392h-94v172h83q46 0 69.5-23t23.5-63z"/><glyph glyph-name="uni0413" unicode="Г" horiz-adv-x="420" d="M402 564q21 0 21 19v62q0 18-21 18H78q-23 0-23-18V19Q55 0 79 0h69q22 0 22 19v545h232z"/><glyph glyph-name="uni0414" unicode="Д" horiz-adv-x="603" d="M482-128q1-15 5.5-20t17.5-5h55q12 0 16 5t5 22l10 194q0 25-20 27l-42 4v544q0 20-20 20H183q-29 0-31-27-21-299-29-362-9-70-22.5-108T60 101l-25-6q-18-4-24.5-10.5T5 63l7-189q1-16 5.5-21.5T35-153h55q14 0 18.5 5t5.5 20l8 128h354zM187 100q43 56 51 204l19 260h158V100H187z"/><glyph glyph-name="uni0415" unicode="Е" horiz-adv-x="460" d="M432 81q0 18-18 18H168v200h207q12 0 16 4t4 14v63q0 17-20 17H168v167h233q12 0 15.5 4t3.5 14v63q0 18-20 18H74q-22 0-22-19V18Q52 0 74 0h338q12 0 16 4t4 14v63z"/><glyph glyph-name="uni0416" unicode="Ж" horiz-adv-x="769" d="M603 345q67 23 93 123l45 169q8 25-20 25h-65q-15 0-21.5-4.5T625 639l-45-165q-22-84-98-84h-37v254q0 10-4 14.5t-15 4.5h-73q-21 0-21-19V390h-37q-75 0-98 84l-44 165q-4 14-10 18.5t-21 4.5H56q-28 0-20-25l45-169q25-100 93-123v-4q-68-23-96-126L28 25Q17 0 48 0h68q17 0 24 5.5T151 27l44 176q12 49 36.5 68.5T294 291h38V19q0-19 21-19h73q19 0 19 20v271h39q38 0 62-19.5t36-68.5l44-176q4-16 11-21.5T662 0h67q28 0 20 25l-50 190q-29 103-96 126v4z"/><glyph glyph-name="uni0417" unicode="З" horiz-adv-x="455" d="M331 356q40 16 65 55t25 84q0 180-200 180-107 0-168-33-19-9-15-27l8-40q4-21 33-16 82 14 127 14 96 0 96-90 0-47-36-67t-112-20q-13 0-17-4.5t-4-17.5v-52q0-12 3-15t17-3q86 0 123.5-23.5T314 199q0-107-118-107-46 0-153 15-26 5-29-13L5 54Q0 36 16 26 44 9 102 0t102-9q106 0 167.5 54T433 197q0 59-27 99.5T331 351v5z"/><glyph glyph-name="uni0418" unicode="И" horiz-adv-x="568" d="M53 18q0-10 4-14t16-4h58q23 0 37 20l109 200q90 164 120 228h3V18q0-18 21-18h72q21 0 21 18v627q0 18-19 18h-66q-21 0-34-21l-92-169-133-251h-4v421q0 20-21 20H73q-20 0-20-20V18z"/><glyph glyph-name="uni0419" unicode="Й" horiz-adv-x="568" d="M136 802q21-48 63.5-76.5T288 697q45 0 85 28.5t64 78.5q12 22-2 33l-24 17q-16 11-30-6-32-41-50.5-56T289 777q-26 0-45 15t-53 58q-15 19-29 5l-25-22q-10-10-1-31zM53 18q0-10 4-14t16-4h58q23 0 37 20l109 200q90 164 120 228h3V18q0-18 21-18h72q21 0 21 18v627q0 18-19 18h-66q-21 0-34-21l-92-169-133-251h-4v421q0 20-21 20H73q-20 0-20-20V18z"/><glyph glyph-name="uni041A" unicode="К" horiz-adv-x="509" d="M341 345q67 23 92 123l45 169q8 25-20 25h-65q-15 0-21.5-4.5T361 639l-44-165q-23-84-99-84h-52v254q0 19-20 19H73q-22 0-22-19V19Q51 0 73 0h73q20 0 20 20v271h53q39 0 63.5-19.5T319 203l44-176q4-16 11-21.5T398 0h68q31 0 20 25l-50 190q-29 104-95 126v4z"/><glyph glyph-name="uni041B" unicode="Л" horiz-adv-x="532" d="M365 563V21q0-21 24-21h70q23 0 23 20v623q0 20-23 20H155q-24 0-26-20l-15-250q-10-187-26-245-13-55-65-72-14-4-18.5-7.5T1 57l2-45Q3-1 9-6t25-5q55-3 92 24t57 70q11 24 19 67 9 50 11 75 3 31 6 86l14 252h132z"/><glyph glyph-name="uni041C" unicode="М" horiz-adv-x="659" d="M605 646q0 17-19 17h-59q-25 0-35-19l-94-222q-50-122-65-166h-5l-66 167-94 222q-5 11-11 14.5t-22 3.5H73q-21 0-21-17V19Q52 0 75 0h68q21 0 21 19v377q2 0 3 1 23-63 44-109l71-164q9-18 29-18h40q20 0 27 19l65 155q26 62 45 115l3-1V19q0-19 22-19h71q21 0 21 19v627z"/><glyph glyph-name="uni041D" unicode="Н" horiz-adv-x="539" d="M485 644q0 19-20 19h-73q-22 0-22-19V398H168v246q0 19-20 19H75q-22 0-22-19V19Q53 0 75 0h73q20 0 20 19v279h202V19q0-19 22-19h73q20 0 20 19v625z"/><glyph glyph-name="uni041E" unicode="О" horiz-adv-x="575" d="M531 341q0 114-24 186-15 46-41 75-60 69-180 69-242 0-242-330 0-59 3-101 3-39 17-92 14-50 38-82Q162-9 285-9q169 0 220 143 22 57 24 136 2 42 2 71zm-119-10q0-124-29-181t-97-57q-67 0-94 57t-27 181q0 123 28 181.5t93 58.5q69 0 97.5-57T412 331z"/><glyph glyph-name="uni041F" unicode="П" horiz-adv-x="547" d="M497 643q0 11-4.5 15.5T476 663H75q-22 0-22-20V19Q53 0 77 0h69q22 0 22 19v543h214V19q0-19 25-19h67q23 0 23 19v624z"/><glyph glyph-name="uni0420" unicode="Р" horiz-adv-x="468" d="M455 464q0 100-58.5 149.5T233 663H74q-22 0-22-18V19Q52 0 74 0h73q21 0 21 19v238h83q119 0 165 70 39 60 39 137zm-116-2q0-108-97-108h-74v210h70q101 0 101-102z"/><glyph glyph-name="uni0421" unicode="С" horiz-adv-x="490" d="M289 670q-165 0-216-150-27-78-27-193 0-114 27-191 16-44 42-76Q176-8 287-8q102 0 168 29 23 11 19 33l-8 38q-6 18-30 16-83-10-141-10-71 0-99 56.5T168 328q0 103 21 165 26 71 106 71 54 0 141-10 25-4 29 15l8 41q3 21-20 32-63 28-164 28z"/><glyph glyph-name="uni0422" unicode="Т" horiz-adv-x="440" d="M432 644q0 19-22 19H30q-21 0-21-19v-61q0-19 22-19h131V19q0-19 22-19h73q20 0 20 19v545h132q23 0 23 19v61z"/><glyph glyph-name="uni0423" unicode="У" horiz-adv-x="500" d="M261 282q-17 69-53 179l-61 184q-6 18-30 18H38q-22 0-15-19 33-91 94-250 81-210 92-242l-10-25q-13-27-32-35t-59-6q-15 1-20.5-3T81 67l-5-44Q72 0 102-7q27-7 63-7 68 0 101 44 31 40 59 123l172 492q5 18-16 18h-70q-15 0-22-5.5T377 636l-54-168q-26-76-56-185z"/><glyph glyph-name="uni0424" unicode="Ф" horiz-adv-x="696" d="M409 79q68 7 118.5 31.5t78 62 40.5 79 13 89.5q0 87-49 158-57 84-200 98v47q0 10-4.5 14.5T389 663h-73q-22 0-22-19v-47q-71-6-123.5-33.5t-79-67.5T53 417t-12-79q0-99 50-170 58-80 203-90V19q0-19 22-19h73q9 0 13.5 2.5t5.5 6 1 10.5v60zM155 338q0 72 35 114.5T294 503V172q-139 18-139 166zm389 0q0-73-34.5-116.5T409 172v331q67-8 101-51.5T544 338z"/><glyph glyph-name="uni0425" unicode="Х" horiz-adv-x="481" d="M352 17q9-17 30-17h82q23 0 14 19L308 345l158 298q6 7 1.5 13.5T452 663h-82q-23 0-29-18l-93-200-94 202q-4 10-9.5 13t-19.5 3H43q-10 0-13.5-6.5T31 642l154-297L17 21Q8 0 29 0h83q24 0 31 18l105 223z"/><glyph glyph-name="uni0426" unicode="Ц" horiz-adv-x="552" d="M436-128q1-15 5.5-20t16.5-5h55q11 0 15.5 5.5T534-126l11 197q2 26-20 27l-41 5v541q0 19-20 19h-73q-12 0-16.5-4.5T370 644V100H168v544q0 19-20 19H75q-22 0-22-19V20Q53 0 75 0h355z"/><glyph glyph-name="uni0427" unicode="Ч" horiz-adv-x="518" d="M350 373q-60-20-122-20-49 0-65 26.5T147 470v173q0 20-24 20H55q-14 0-19-4.5T31 643V455q-2-106 49-161 44-44 131-44 73 0 139 24V20q0-20 23-20h69q23 0 23 20v624q0 19-23 19h-69q-11 0-16.5-3.5t-6-6-.5-9.5V373z"/><glyph glyph-name="uni0428" unicode="Ш" horiz-adv-x="742" d="M688 644q0 20-20 20h-73q-22 0-22-20V100H428v543q0 20-20 20h-74q-22 0-22-20V100H167v544q0 20-20 20H74q-21 0-21-20V20Q53 0 74 0h594q20 0 20 20v624z"/><glyph glyph-name="uni0429" unicode="Щ" horiz-adv-x="756" d="M639-128q1-15 5.5-20t16.5-5h56q11 0 15.5 5.5T738-126l11 198q0 24-21 26l-39 5v542q0 19-20 19h-74q-21 0-21-19V100H429v544q0 19-21 19h-74q-12 0-16.5-4.5T313 644V101H168v544q0 19-20 19H75q-22 0-22-19V20Q53 0 75 0h558z"/><glyph glyph-name="uni042A" unicode="Ъ" horiz-adv-x="625" d="M599 197q0 78-39 135-44 68-169 68h-95v244q0 19-20 19H21q-21 0-21-19v-63q0-18 22-18h158V290q1-156 1-272 0-10 4.5-14T202 0h188q91 0 150 50 59 51 59 147zm-115 1q0-101-102-101h-86v207h91q97 0 97-106z"/><glyph glyph-name="uni042B" unicode="Ы" horiz-adv-x="710" d="M475 197q0 38-9 71t-31 64.5-65 49.5-103 18h-92v244q0 19-21 19H80q-21 0-21-19V18Q59 0 80 0h186q91 0 150 50 59 51 59 147zm-115 1q0-49-27-75t-76-26h-82v207h89q96 0 96-106zm294 446q0 19-20 19h-74q-21 0-21-19V19q0-19 21-19h74q20 0 20 19v625z"/><glyph glyph-name="uni042C" unicode="Ь" horiz-adv-x="489" d="M468 197q0 38-9 71t-31 64.5-65 49.5-103 18h-92v244q0 19-21 19H74q-22 0-22-19V18Q52 0 74 0h185q91 0 150 50 59 51 59 147zm-115 1q0-48-27-74.5T251 97h-83v207h89q96 0 96-106z"/><glyph glyph-name="uni042D" unicode="Э" horiz-adv-x="493" d="M475 336q0 117-24 190-13 46-39 76-57 69-172 69-99 0-159-29-23-14-20-33l7-40q3-21 33-16 79 12 132 12 61 0 87.5-42T350 395H153q-19 0-19-19v-58q0-10 4-14t15-4h198Q342 97 221 97q-49 0-141 12-28 4-31-15l-8-40q-5-22 21-33Q122-8 226-8q249 0 249 344z"/><glyph glyph-name="uni042E" unicode="Ю" horiz-adv-x="764" d="M53 20Q53 0 77 0h70q22 0 22 20v278h89q5-99 29-169 17-45 40-72Q384-9 489-9q60 0 107 21.5T668 68t38 84q21 75 21 189 0 111-24 184-13 46-39 76-58 70-175 70-207 0-229-273h-91v245q0 20-22 20H77q-24 0-24-20V20zm556 311q0-124-27-181t-92-57q-61 0-86 57t-25 181q0 126 25 182.5t86 56.5q67 0 93-55.5T609 331z"/><glyph glyph-name="uni042F" unicode="Я" horiz-adv-x="504" d="M141 302q-49-22-69-103L26 25Q20 0 47 0h60q17 0 24 4.5T142 23l44 166q22 87 93 87h60V20q0-20 21-20h73q21 0 21 20v625q0 18-21 18H250q-85 0-143-52-58-51-58-148 0-56 23-97.5t69-58.5v-5zm27 164q0 47 29 72.5t70 25.5h72V370h-69q-102 0-102 96z"/><glyph glyph-name="uni0430" unicode="а" horiz-adv-x="472" d="M302 128q-64-45-114-45-26 0-36.5 12.5T141 139q0 82 68 82h93v-93zM156-8q82 0 153 56h2l1-1q7-28 26-39.5T394-4q33 0 50 7 17 5 17 23v39q0 13-21 15-20 1-23.5 7.5T413 125v187q0 89-31 136-35 52-148 52-103 0-158-28-16-7-13-26l8-37q3-17 20-14 80 10 126 10 47 0 66.5-19.5T303 323v-22H202q-88 0-131-40.5T28 134q0-71 30-106.5T156-8z"/><glyph glyph-name="uni0431" unicode="б" horiz-adv-x="456" d="M313 229q0-56-15-95-17-47-73-47-48 0-65 33t-17 105q0 106 7 148 42 20 87 20 47 0 62-41 15-42 14-123zM153 472q7 58 36 84 30 27 90 46 58 19 98 29 21 8 14 27l-14 46q-5 17-26 11-93-22-158-49Q86 622 53 504q-24-82-24-251 0-88 17-144 11-36 32-61Q125-8 222-8q125 0 168 81 35 67 35 161 2 114-29 176-37 79-146 79-55 0-93-19z"/><glyph glyph-name="uni0432" unicode="в" horiz-adv-x="442" d="M340 262q29 15 44 42t15 53q0 133-163 133H59q-23 0-23-19V20Q36 0 62 0h186q72 0 118 40 47 41 47 105 0 36-18.5 67.5T340 258v4zm-38-110q0-60-75-60h-81v122h91q65 0 65-62zm-15 196q0-24-15.5-39T229 294h-83v107h76q65 0 65-53z"/><glyph glyph-name="uni0433" unicode="г" horiz-adv-x="382" d="M376 469q0 21-21 21H62q-24 0-24-21V20Q38 0 62 0h66q21 0 21 20v377h206q21 0 21 21v51z"/><glyph glyph-name="uni0434" unicode="д" horiz-adv-x="528" d="M174 93q16 25 24 57 8 29 19 107l18 138h116V93H174zm287 370q0 27-27 27H201q-32 0-46.5-10T136 447l-33-234q-7-52-18-78T51 94l-24-8q-14-5-18-9.5T5 59q1-38 4-171 0-14 4-17.5t16-3.5h54q19 0 20 22l8 111h295l5-111q1-13 5-17.5t15-4.5h49q12 0 17 5t6 19l10 173q2 20-20 23l-32 4v372z"/><glyph glyph-name="uni0435" unicode="е" horiz-adv-x="439" d="M224 410q43 0 60-29t19-90H145q2 63 20.5 91t58.5 28zm5-419q90 0 147 28 20 11 15 30l-6 35q-3 18-30 14-67-9-112-9-51 0-73.5 28T145 215h222q27 0 38.5 14.5T417 276q0 88-35 151-39 73-157 73-194 0-194-257 0-110 34-174Q106-9 229-9z"/><glyph glyph-name="uni0436" unicode="ж" horiz-adv-x="627" d="M500 255q43 14 74 108l31 104q8 23-15 23h-63q-14 0-20-4.5T496 468l-32-101q-14-40-31-54.5T388 298h-18v174q0 18-17 18h-74q-18 0-18-18V298h-18q-28 0-45 14.5T167 367l-32 101q-6 13-11.5 17.5T104 490H41q-23 0-15-23l31-104q27-94 74-108v-2q-33-9-50-34t-33-79L15 22Q7 0 31 0h67q25 0 31 22l30 106q12 43 31 59.5t51 16.5h20V17q0-17 18-17h74q17 0 17 17v187h21q31 0 50-16t31-60l31-106q6-22 30-22h67q22 0 16 22l-33 118q-18 56-34.5 80T500 253v2z"/><glyph glyph-name="uni0437" unicode="з" horiz-adv-x="383" d="M5 46Q1 31 18 20 61-8 170-8t158 62q30 37 30 98 0 82-76 110 32 15 49.5 43t17.5 59q0 74-47 106-46 31-117 31-37 0-79-7-44-8-66-21-15-9-15-26l7-34q4-19 29-16 53 8 104 8 68 0 68-56 0-54-95-54-12 0-15.5-3t-3.5-12v-44q0-11 3.5-14t15.5-3q54 0 79-15t25-51q0-68-83-68-51 0-117 11-17 3-22.5-.5T12 80z"/><glyph glyph-name="uni0438" unicode="и" horiz-adv-x="470" d="M321 21q0-21 23-21h65q22 0 22 21v448q0 21-21 21h-54q-22 0-35-18l-94-149q-39-61-74-123l-5 1v267q0 22-22 22H58q-20 0-20-22V21Q38 0 58 0h45q26 0 36 19l126 199q38 58 52 84h4V21z"/><glyph glyph-name="uni0439" unicode="й" horiz-adv-x="470" d="M321 21q0-21 23-21h65q22 0 22 21v448q0 21-21 21h-54q-22 0-35-18l-94-149q-39-61-74-123l-5 1v267q0 22-22 22H58q-20 0-20-22V21Q38 0 58 0h45q26 0 36 19l126 199q38 58 52 84h4V21zM86 649q21-48 63.5-76.5T238 544q45 0 85 28.5t64 78.5q12 22-2 33l-24 17q-17 12-30-6-32-41-50.5-56T239 624q-26 0-45 15t-53 58q-15 19-29 5l-25-22q-10-10-1-31z"/><glyph glyph-name="uni043A" unicode="к" horiz-adv-x="421" d="M289 255q36 10 58 68 10 24 20 53 5 14 19 66 9 30 9 35 0 12-17 12h-62q-24 0-28-16l-35-103q-26-73-77-73h-29v175q0 18-16 18H55q-18 0-18-18V17Q37 0 55 0h76q16 0 16 17v186h32q32 0 50-17t33-66l24-81q6-25 12-32t22-7h69q18 0 18 12 0 1-2 9l-38 131q-15 47-31.5 69T289 252v3z"/><glyph glyph-name="uni043B" unicode="л" horiz-adv-x="470" d="M183 490q-34 0-50-13t-19-45L93 200q-5-60-20.5-88T20 73Q8 69 4.5 65T2 53L4 8Q5-3 9.5-7T29-11q94 1 128 55 29 46 36 136l17 217h111V20q0-20 23-20h64q23 0 23 20v449q0 21-24 21H183z"/><glyph glyph-name="uni043C" unicode="м" horiz-adv-x="541" d="M271 200q-15 41-44 105l-77 167q-8 18-32 18H59q-21 0-21-20V20Q38 0 60 0h62q22 0 22 20v245h3l82-175q7-16 24-16h35q17 0 26 17l80 173h3V20q0-20 22-20h63q22 0 22 20v450q0 20-21 20h-53q-26 0-33-19l-80-169q-31-67-43-102h-3z"/><glyph glyph-name="uni043D" unicode="н" horiz-adv-x="465" d="M427 468q0 22-22 22h-65q-24 0-24-22V302H148v166q0 22-21 22H60q-22 0-22-22V21Q38 0 60 0h67q21 0 21 21v192h168V21q0-21 24-21h65q22 0 22 21v447z"/><glyph glyph-name="uni043E" unicode="о" horiz-adv-x="457" d="M424 253q0 83-19 136-13 36-33 58-48 53-147 53-194 0-194-247 0-87 16-142 13-39 31-62Q126-8 225-8q152 6 182 119 17 55 17 142zM226 404q50 0 68-35.5T312 246q0-86-18.5-122T225 88q-47 0-64.5 36T143 246q0 84 18 121t65 37z"/><glyph glyph-name="uni043F" unicode="п" horiz-adv-x="467" d="M432 470q0 12-4 16t-17 4H59q-21 0-21-19V19Q38 0 59 0h69q20 0 20 19v378h173V19q0-19 20-19h70q21 0 21 19v451z"/><glyph glyph-name="uni0440" unicode="р" horiz-adv-x="456" d="M153 7q51-17 99-17 99 0 139 61.5T431 248q0 128-34 189t-116 61q-30 0-66-14.5T153 448l-3 2v21q0 19-20 19H60q-20 0-20-19v-636q0-12 4-16t16-4h70q20 0 20 20V5zm166 242q0-90-18-126t-62-36q-42 0-89 14v258q19 13 50 23 33 12 55 12 33 0 48-29 16-28 16-116z"/><glyph glyph-name="uni0441" unicode="с" horiz-adv-x="391" d="M221-8q99 0 147 27 15 10 12 28l-7 37q-4 18-28 14-59-9-114-9-48 0-67 35t-19 125q0 82 19.5 117t67.5 35q28 0 114-9 20-2 24 15l7 41q3 18-11 24-60 28-145 28-133 0-170-112-20-56-20-142 0-93 19-149 11-32 32-56Q129-8 221-8z"/><glyph glyph-name="uni0442" unicode="т" horiz-adv-x="389" d="M384 468q0 22-21 22H27q-22 0-22-22v-50q0-21 23-21h112V20q0-20 24-20h64q23 0 23 20v377h111q22 0 22 21v50z"/><glyph glyph-name="uni0443" unicode="у" horiz-adv-x="433" d="M222 148q-4 25-31 125l-58 200q-5 17-23 17H35q-22 0-14-20L173 6l-56-171q-6-20 15-20h65q14 0 19 4t9 14l203 637q8 20-13 20h-73q-18 0-24-16l-53-188-38-138h-5z"/><glyph glyph-name="uni0444" unicode="ф" horiz-adv-x="591" d="M31 242q0-112 52-178T241-9v-148q0-20 21-20h68q19 0 19 19V-9q106 9 158 76.5T559 246q0 240-210 253v144q0 11-4.5 15.5T327 663h-65q-21 0-21-20V499q-122-8-169-92-41-72-41-165zm106-3q0 157 105 166V83Q137 94 137 239zm315 1q0-143-104-157v322q104-9 104-165z"/><glyph glyph-name="uni0445" unicode="х" horiz-adv-x="416" d="M287 15q7-15 28-15h84q10 0 14 6t-1 14L274 251l131 219q8 20-13 20h-85q-17 0-24-15l-74-147-72 143q-6 13-10.5 16t-16.5 3H29q-10 0-13.5-6t1.5-14l126-220L8 20Q2 12 6.5 6T20 0h83q21 0 28 15l77 154z"/><glyph glyph-name="uni0446" unicode="ц" horiz-adv-x="477" d="M416 469q0 21-22 21h-65q-23 0-23-21V93H149v376q0 21-21 21H60q-22 0-22-21V22Q38 0 60 0h297l3-107q1-13 5-17.5t15-4.5h55q10 0 14 4.5t5 19.5l10 173q2 23-17 24l-30 3z"/><glyph glyph-name="uni0447" unicode="ч" horiz-adv-x="438" d="M18 332q0-72 22-120 26-56 118-56 61 0 129 41V18q0-18 23-18h67q21 0 21 18v452q0 20-21 20h-67q-23 0-23-20V290q-19-12-51-24t-53-12q-31 0-42 20.5T130 357v113q0 20-22 20H41q-23 0-23-20V332z"/><glyph glyph-name="uni0448" unicode="ш" horiz-adv-x="636" d="M596 468q0 13-4.5 17.5T576 490h-67q-24 0-24-22V94H374v374q0 22-23 22h-65q-23 0-23-22V94H149v374q0 22-22 22H60q-22 0-22-22V22Q38 0 60 0h516q20 0 20 22v446z"/><glyph glyph-name="uni0449" unicode="щ" horiz-adv-x="658" d="m537 0 5-109q1-14 4.5-18.5T562-132h54q10 0 13.5 5t4.5 20l9 172v4q-4 20-16 22l-33 3v374q0 13-4.5 17.5T574 490h-67q-23 0-23-22V93H373v375q0 22-22 22h-66q-22 0-22-22V93H149v375q0 22-22 22H60q-22 0-22-22V22Q38 0 60 0h477z"/><glyph glyph-name="uni044A" unicode="ъ" horiz-adv-x="521" d="M136 20q0-20 24-20h163q81 0 130 40.5T502 153q0 157-177 157h-80v159q0 21-22 21H22q-22 0-22-20v-53q0-12 5-16t17-4h114V20zm260 135q0-30-19-46t-53-16h-78v126h83q67 0 67-64z"/><glyph glyph-name="uni044B" unicode="ы" horiz-adv-x="602" d="M564 468q0 22-25 22h-60q-25 0-25-22V21q0-21 25-21h60q25 0 25 21v447zM237 219q62 0 62-63t-66-63h-85v126h89zm168-66q0 68-37 112-38 45-125 45h-95v159q0 21-23 21H63q-25 0-25-21V20q0-11 5-15.5T63 0h173q75 0 122 41t47 112z"/><glyph glyph-name="uni044C" unicode="ь" horiz-adv-x="424" d="M237 219q62 0 62-63t-66-63h-85v126h89zm168-66q0 68-37 112-38 45-125 45h-95v159q0 21-23 21H63q-25 0-25-21V20q0-11 5-15.5T63 0h173q75 0 122 41t47 112z"/><glyph glyph-name="uni044D" unicode="э" horiz-adv-x="398" d="M21 49q-3-23 18-33Q88-7 176-7q115 0 157 76 35 66 35 183 0 87-17 140-10 35-30 58-44 51-137 51-78 0-135-25-21-9-17-28l6-34q1-12 8-14.5t25-.5q61 9 94 9 43 0 63-26t23-86H105q-14 0-18.5-4T82 275v-39q0-13 4.5-17.5T105 214h147q-3-68-22.5-97T168 88q-31 0-112 9-1 0-8 .5t-8.5 0-5.5-2-5.5-5T26 81z"/><glyph glyph-name="uni044E" unicode="ю" horiz-adv-x="623" d="M591 252q0 82-18 135-10 35-31 59-44 54-141 54-111 0-157-93-21-46-26-105h-70v166q0 22-24 22H63q-25 0-25-22V22Q38 0 63 0h61q24 0 24 22v192h69q2-112 54-173Q315-8 401-8q148 7 175 123 12 46 13 68 2 38 2 69zM401 401q47 0 63.5-35T481 246t-16.5-120T401 91q-45 0-60 33.5T326 246q0 84 15.5 119.5T401 401z"/><glyph glyph-name="uni044F" unicode="я" horiz-adv-x="446" d="M115 215q-40-22-58-87L26 22Q20 0 44 0h63q15 0 21.5 4.5T139 22l27 96q12 41 26.5 56.5T231 190h71V20q0-20 24-20h62q25 0 25 20v451q0 20-25 20H215q-79 0-125.5-40.5T43 337q0-95 72-119v-3zm37 122q0 29 19.5 46t50.5 17h80V276h-79q-71 0-71 61z"/><glyph glyph-name="uni0450" unicode="ѐ" horiz-adv-x="439" d="M224 410q43 0 60-29t19-90H145q2 63 20.5 91t58.5 28zm5-419q90 0 147 28 20 11 15 30l-6 35q-3 18-30 14-67-9-112-9-51 0-73.5 28T145 215h222q27 0 38.5 14.5T417 276q0 88-35 151-39 73-157 73-194 0-194-257 0-110 34-174Q106-9 229-9zm-31 748q-7 13-23 2l-49-33q-18-13-8-26l102-134q9-12 21-4l35 24q10 7 3 20z"/><glyph glyph-name="uni0451" unicode="ё" horiz-adv-x="439" d="M224 410q43 0 60-29t19-90H145q2 63 20.5 91t58.5 28zm5-419q90 0 147 28 20 11 15 30l-6 35q-3 18-30 14-67-9-112-9-51 0-73.5 28T145 215h222q27 0 38.5 14.5T417 276q0 88-35 151-39 73-157 73-194 0-194-257 0-110 34-174Q106-9 229-9zm-90 575q31 0 42.5 14t11.5 43q0 27-12 40t-42 13q-55 0-55-53 0-30 12-43.5t43-13.5zm172 0q31 0 43 14t12 43q0 28-12 40.5T311 676q-54 0-54-53 0-30 11.5-43.5T311 566z"/><glyph glyph-name="uni0452" unicode="ђ" horiz-adv-x="510" d="M33 609q-11 0-15-3.5T14 591v-34q0-11 4-14.5t15-3.5h35V19q0-11 5-15t18-4h67q9 0 13.5 2.5t5.5 6 1 10.5v314q58 34 102 34 40 0 63.5-34T367 232q0-187-117-262-13-9-13-18 0-4 3-10l16-35q7-16 19-16 9 0 22 7 90 50 135 138 46 88 46 188 0 117-45 180t-129 63q-58 0-125-36v108h156q11 0 14.5 4t3.5 13v35q0 10-3.5 14t-14.5 4H179v75q0 20-21 20H90q-22 0-22-20v-75H33z"/><glyph glyph-name="uni0453" unicode="ѓ" horiz-adv-x="382" d="M376 469q0 21-21 21H62q-24 0-24-21V20Q38 0 62 0h66q21 0 21 20v377h206q21 0 21 21v51zm-82 220q10 13-4 22l-57 32q-16 9-23-4l-73-154q-8-15 4-20l33-18q15-7 25 3 25 35 47 68z"/><glyph glyph-name="uni0454" unicode="є" horiz-adv-x="400" d="M221-8q100 0 147 26 15 9 12 28l-7 35q-3 18-27 15-58-9-115-9-44 0-63 28t-22 100h151q15 0 19 4.5t4 17.5v36q0 13-4 17.5t-19 4.5H146q5 60 24.5 85t61.5 25q28 0 114-9 20-2 24 16l7 36q3 18-11 24-60 28-145 28-133 0-170-112-20-56-20-142 0-93 19-149 11-32 32-56Q129-8 221-8z"/><glyph glyph-name="uni0455" unicode="ѕ" horiz-adv-x="400" d="M375 148q0 83-52 114-42 26-111 38-41 7-54.5 17T144 352q0 30 13.5 42.5T205 406q33 0 118-9 16-2 22.5.5T354 411l7 37q3 19-22 29-54 23-135 23-80 0-126-39.5T32 349q0-77 52-108 44-24 115-37 37-6 49.5-18.5T261 141q0-29-16.5-42.5T191 85q-47 0-123 12-16 2-22-1t-8-15l-7-33q-4-23 22-33Q104-8 192-8q79 0 131 37t52 119z"/><glyph glyph-name="uni0456" unicode="і" horiz-adv-x="216" d="M167 620q0 29-13 43t-47 14q-58 0-58-57 0-29 12.5-44t45.5-15 46.5 15 13.5 44zm-5-149q0 19-21 19H75q-23 0-23-19V19Q52 0 75 0h66q21 0 21 19v452z"/><glyph glyph-name="uni0457" unicode="ї" horiz-adv-x="243" d="M39 559q31 0 42.5 14T93 616q0 27-12 40t-42 13q-55 0-55-53 0-30 12-43.5T39 559zm172 0q31 0 43 14t12 43q0 28-12 40.5T211 669q-54 0-54-53 0-30 11.5-43.5T211 559zm-34-88q0 19-18 19H86q-20 0-20-19V19Q66 0 86 0h73q18 0 18 19v452z"/><glyph glyph-name="uni0458" unicode="ј" horiz-adv-x="230" d="M176 471q0 19-23 19H88q-23 0-23-19V-13q0-57-19-73-21-18-83-31-20-6-19-24l3-47q1-19 25-19 110-4 157 44T176-9v480zm3 149q0 29-13 43t-46 14q-58 0-58-57 0-30 12.5-44.5T120 561q59 0 59 59z"/><glyph glyph-name="uni0459" unicode="љ" horiz-adv-x="690" d="M303 20q0-11 5.5-15.5T329 0h166q79 0 127.5 40.5T671 153q0 157-174 157h-84v159q0 21-21 21H182q-34 0-50-13t-19-45L92 200q-4-61-18-88-14-26-55-39-12-4-15-7.5T1 53L3 8q0-19 25-19 96 2 127 53 29 45 36 125l18 230h94V20zm262 136q0-63-72-63h-80v126h85q37 0 52-15.5t15-47.5z"/><glyph glyph-name="uni045A" unicode="њ" horiz-adv-x="658" d="M641 153q0 156-177 156h-80v160q0 21-22 21h-64q-24 0-24-21V305H149v163q0 22-21 22H61q-22 0-22-22V21Q39 0 61 0h67q21 0 21 21v196h125V21q0-21 24-21h163q82 0 131 40.5T641 153zm-106 2q0-62-76-62h-75v126h83q68 0 68-64z"/><glyph glyph-name="uni045B" unicode="ћ" horiz-adv-x="464" d="M148 543h156q11 0 14 3.5t3 13.5v34q0 10-3 14t-14 4H148v74q0 19-21 19H58q-21 0-21-19v-74H12q-11 0-14.5-3.5T-6 594v-33q0-11 3.5-14.5T12 543h25V19Q37 0 58 0h68q22 0 22 19v328q64 37 108 37 31 0 44-19t13-71l-1-275q0-19 21-19h69q22 0 22 19v277q0 86-22 131-25 58-119 58-60 0-131-44l-4 2v100z"/><glyph glyph-name="uni045C" unicode="ќ" horiz-adv-x="421" d="M289 255q36 10 58 68 10 24 20 53 5 14 19 66 9 30 9 35 0 12-17 12h-62q-24 0-28-16l-35-103q-26-73-77-73h-29v175q0 18-16 18H55q-18 0-18-18V17Q37 0 55 0h76q16 0 16 17v186h32q32 0 50-17t33-66l24-81q6-25 12-32t22-7h69q18 0 18 12 0 1-2 9l-38 131q-15 47-31.5 69T289 252v3zm27 434q10 13-4 22l-57 32q-16 9-23-4l-73-154q-8-15 4-20l33-18q15-7 25 3 25 35 47 68z"/><glyph glyph-name="uni045D" unicode="ѝ" horiz-adv-x="470" d="M321 21q0-21 23-21h65q22 0 22 21v448q0 21-21 21h-54q-22 0-35-18l-94-149q-39-61-74-123l-5 1v267q0 22-22 22H58q-20 0-20-22V21Q38 0 58 0h45q26 0 36 19l126 199q38 58 52 84h4V21zM205 739q-7 13-23 2l-49-33q-18-13-8-26l102-134q9-12 21-4l35 24q10 7 3 20z"/><glyph glyph-name="uni045E" unicode="ў" horiz-adv-x="433" d="M222 148q-4 25-31 125l-58 200q-5 17-23 17H35q-22 0-14-20L173 6l-56-171q-6-20 15-20h65q14 0 19 4t9 14l203 637q8 20-13 20h-73q-18 0-24-16l-53-188-38-138h-5zm12 407q95 0 150 109 10 22-1 28l-26 19q-19 11-30-5-32-41-49.5-54.5T236 638q-34 0-63 29-8 8-35 40-16 18-29 6l-25-23q-10-10 0-33 21-47 62.5-74.5T234 555z"/><glyph glyph-name="uni045F" unicode="џ" horiz-adv-x="464" d="M405 0q22 0 22 22v447q0 21-22 21h-66q-23 0-23-21V95H149v374q0 21-22 21H60q-22 0-22-21V22Q38 0 60 0h121l6-121q0-13 4-17.5t16-4.5h57q10 0 13.5 4.5T282-119l7 119h116z"/><glyph glyph-name="uni0490" unicode="Ґ" horiz-adv-x="435" d="M428 771q0 21-14 21h-55q-16 0-18-20l-14-109H75q-20 0-20-18V19Q55 0 75 0h77q18 0 18 19v545h240q18 0 18 21v186z"/><glyph glyph-name="uni0491" unicode="ґ" horiz-adv-x="381" d="M375 591q0 16-13 16h-52q-14 0-15-16l-16-101H70q-24 0-24-21V21Q46 0 70 0h66q21 0 21 21v377h201q17 0 17 23v170z"/><glyph glyph-name="uni04D9" unicode="ә" horiz-adv-x="439" d="M227 81q-43 0-60.5 29T147 200h158q-2-63-20-91t-58-28zm-6 419q-87 0-147-28-18-9-15-30l7-35q3-20 29-15 70 10 113 10 51 0 73.5-28t24.5-98H84q-51 0-50-61 0-88 34-152Q111-9 226-9q193 0 193 257 0 89-20 145-12 35-33 57-48 50-145 50z"/><glyph glyph-name="Wgrave" unicode="Ẁ" horiz-adv-x="739" d="M377 325q9-46 38-169l34-135q5-21 29-21h71q24 0 30 21l149 621q6 22-12 22h-77q-23 0-28-20l-58-265q-33-157-41-213h-4q-23 121-43 204l-65 274q-5 20-28 20h-76q-19 0-11-20l35-134-37-164q-27-112-36-168h-3q-22 111-41 189l-68 277q-5 20-27 20H28q-18 0-13-21L174 21q4-21 28-21h71q25 0 29 21l35 140q28 117 36 164h4zm17 388q13-6 23 10l21 31q6 10-6 20L294 874q-12 9-22-7l-35-55q-9-15 7-22z"/><glyph glyph-name="wgrave" unicode="ẁ" horiz-adv-x="627"/><glyph glyph-name="Wacute" unicode="Ẃ" horiz-adv-x="739" d="M377 325q9-46 38-169l34-135q5-21 29-21h71q24 0 30 21l149 621q6 22-12 22h-77q-23 0-28-20l-58-265q-33-157-41-213h-4q-23 121-43 204l-65 274q-5 20-28 20h-76q-19 0-11-20l35-134-37-164q-27-112-36-168h-3q-22 111-41 189l-68 277q-5 20-27 20H28q-18 0-13-21L174 21q4-21 28-21h71q25 0 29 21l35 140q28 117 36 164h4zm126 465q16 7 7 22l-35 55q-10 16-22 7L315 774q-12-10-6-20l21-31q10-16 23-10z"/><glyph glyph-name="wacute" unicode="ẃ" horiz-adv-x="627"/><glyph glyph-name="Wdieresis" unicode="Ẅ" horiz-adv-x="739" d="M377 325q9-46 38-169l34-135q5-21 29-21h71q24 0 30 21l149 621q6 22-12 22h-77q-23 0-28-20l-58-265q-33-157-41-213h-4q-23 121-43 204l-65 274q-5 20-28 20h-76q-19 0-11-20l35-134-37-164q-27-112-36-168h-3q-22 111-41 189l-68 277q-5 20-27 20H28q-18 0-13-21L174 21q4-21 28-21h71q25 0 29 21l35 140q28 117 36 164h4zm-86 406q31 0 42.5 14t11.5 43q0 28-11.5 40.5T291 841q-54 0-54-53 0-30 11.5-43.5T291 731zm169 0q31 0 42.5 14t11.5 43q0 28-11.5 40.5T460 841q-53 0-53-53 0-30 11-43.5t42-13.5z"/><glyph glyph-name="wdieresis" unicode="ẅ" horiz-adv-x="627"/><glyph glyph-name="Ygrave" unicode="Ỳ" horiz-adv-x="495" d="M247 376q-4 10-20.5 54T202 492l-55 131q-11 27-17.5 33t-24.5 6H24q-7 0-11-5.5t0-12.5l179-373V18q0-18 22-18h72q20 0 20 18v253l183 373q7 18-13 18h-78q-14 0-20-3.5T367 643l-66-147q-36-81-48-120h-6zm24 335q13-6 23 10l21 31q6 10-6 20L171 872q-12 9-22-7l-35-55q-9-15 7-22z"/><glyph glyph-name="ygrave" unicode="ỳ" horiz-adv-x="433" d="M222 148q-4 25-31 125l-58 200q-5 17-23 17H35q-22 0-14-20L173 6l-56-171q-6-20 15-20h65q14 0 19 4t9 14l203 637q8 20-13 20h-73q-18 0-24-16l-53-188-38-138h-5zm-32 591q-7 13-23 2l-49-33q-18-13-8-26l102-134q9-12 21-4l35 24q10 7 3 20z"/><glyph glyph-name="figuredash" unicode="‒" d="M481 275q0 17-20 17H46q-20 0-20-17v-44q0-17 19-17h417q19 0 19 17v44z"/><glyph glyph-name="endash" unicode="–" horiz-adv-x="462" d="M444 275q0 17-19 17H44q-20 0-20-17v-44q0-17 19-17h382q19 0 19 17v44z"/><glyph glyph-name="emdash" unicode="—" horiz-adv-x="724" d="M706 275q0 17-19 17H46q-20 0-20-17v-44q0-17 19-17h642q19 0 19 17v44z"/><glyph glyph-name="uni2015" unicode="―" horiz-adv-x="724" d="M706 275q0 17-19 17H46q-20 0-20-17v-44q0-17 19-17h642q19 0 19 17v44z"/><glyph glyph-name="quoteleft" unicode="‘" horiz-adv-x="213" d="M41 522q0-21 9-45.5T74 437q16-16 37 1l47 41q14 13 4 30-47 67 5 137 16 16 5 27l-18 19q-12 13-28 1-37-25-61-71T41 522z"/><glyph glyph-name="quoteright" unicode="’" horiz-adv-x="213" d="M184 609q0 21-9.5 45.5T151 693q-17 17-37 0l-47-41q-14-12-4-31 22-28 22-65 0-42-27-71-15-18-5-28l18-19q12-12 28 0 38 25 61.5 70.5T184 609z"/><glyph glyph-name="quotesinglbase" unicode="‚" horiz-adv-x="187" d="M163 23q0 51-33 84-18 18-41-1L48 68q-15-13-5-32Q65 2 65-29q0-37-27-70-13-17-5-28l19-21q9-12 28 1 35 25 59 71.5T163 23z"/><glyph glyph-name="quotereversed" unicode="‛" horiz-adv-x="213" d="M171 608q14 13 1 31l-37 51q-17 24-43 1-20-15-32.5-50.5T47 575q0-78 55-142 14-14 28-3l22 20q10 6 1 24-17 37-17 55 0 46 35 79z"/><glyph glyph-name="quotedblleft" unicode="“" horiz-adv-x="337" d="M34 522q0-21 9-45.5T67 437q18-16 38 1l46 41q14 13 4 30-22 31-22 66 0 39 27 71 15 17 5 27l-18 19q-12 13-28 1-37-25-61-71T34 522zm140 0q0-21 9-45.5t24-39.5q16-16 37 1l46 41q16 14 4 30-22 34-22 66 0 39 28 71 15 17 5 27l-18 19q-12 13-28 1-37-25-61-71t-24-100z"/><glyph glyph-name="quotedblright" unicode="”" horiz-adv-x="338" d="M320 610q0 21-9 45.5T288 694q-18 18-38-1l-46-40q-15-14-4-31 22-28 22-65t-27-71q-15-18-6-28l19-19q10-12 27-1 38 26 61.5 72T320 610zm-139 0q0 21-9.5 45.5T148 694q-18 18-38-1l-46-40q-14-14-4-31 22-28 22-65 0-39-27-71-15-18-5-28l18-19q12-12 27-1 38 25 62 71t24 101z"/><glyph glyph-name="quotedblbase" unicode="„" horiz-adv-x="322" d="M163 23q0 51-33 84-18 18-41-1L48 68q-15-13-5-32Q65 2 65-29q0-37-27-70-13-17-5-28l19-21q9-12 28 1 35 25 59 71.5T163 23zm142 0q0 51-33 84-20 18-41-1l-42-38q-15-13-4-32 21-34 21-65 0-38-26-70-14-18-5-28l18-21q11-13 28 1 36 25 60 71.5T305 23z"/><glyph glyph-name="uni201F" unicode="‟" horiz-adv-x="337" d="M167 608q14 13 1 31l-37 51q-17 24-43 1-20-15-32.5-50.5T43 575q0-78 55-142 14-14 28-3l22 20q10 6 1 24-17 37-17 55 0 46 35 79zm136 0q14 13 1 31l-37 51q-17 24-43 1-20-15-32.5-50.5T179 575q0-78 55-142 14-14 28-3l22 20q10 6 1 24-17 37-17 55 0 46 35 79z"/><glyph glyph-name="dagger" unicode="†" horiz-adv-x="436" d="M422 480q0 18-21 18H271v174q0 19-21 19h-62q-22 0-22-19V498H36q-21 0-21-18v-55q0-19 22-19h129V-28q0-19 22-19h62q21 0 21 19v434h129q22 0 22 19v55z"/><glyph glyph-name="daggerdbl" unicode="‡" horiz-adv-x="436" d="M15 165q0-19 21-19h129V-29q2-17 22-17h62q20 0 20 17v175h130q21 0 21 19v55q0 19-22 19H269v166h129q22 0 22 20v55q0 18-21 18H269v174q0 20-21 20h-62q-21 0-21-20V498H36q-21 0-21-18v-55q0-20 22-20h128V239H37q-22 0-22-19v-55z"/><glyph glyph-name="bullet" unicode="•" horiz-adv-x="302" d="M152 164q42 0 72 30t30 73-30 74-72 31q-43 0-73-31t-30-74 30-73 73-30z"/><glyph glyph-name="uni2023" unicode="‣" horiz-adv-x="458" d="m64 51 368 227L64 495V51z"/><glyph glyph-name="ellipsis" unicode="…" horiz-adv-x="594" d="M147 52q0 31-13 45.5T88 112q-59 0-59-60 0-30 13-45.5T88-9q59 0 59 61zm210 0q0 31-12.5 45.5T300 112q-33 0-46.5-15T240 52q0-32 12.5-46.5T300-9q57 0 57 61zm210 0q0 31-13 45.5T508 112q-60 0-60-60 0-30 13-45.5T508-9q59 0 59 61z"/><glyph glyph-name="perthousand" unicode="‰" horiz-adv-x="1144" d="M614-7q157 0 157 226 0 69-15 115-9 31-25 50-37 47-117 47-115-5-141-112-12-47-12-100 0-73 12-118 9-33 24-56Q534-7 614-7zm0 358q38 0 52-31.5T680 212q0-72-14.5-105T614 74q-38 0-51 40-10 35-10 98 0 71 13.5 105t47.5 34zM970-7q157 0 157 226 0 69-15 115-9 31-25 50-37 47-117 47-115-5-141-112-12-47-12-100 0-73 12-118 9-33 24-56Q890-7 970-7zm0 358q38 0 52-31.5t14-107.5q0-72-14.5-105T970 74q-38 0-51 40-10 35-10 98 0 71 13.5 105t47.5 34zM170 234q157 0 157 225 0 69-15 115-9 31-25 50-37 47-117 47-111 0-141-112-12-47-12-100 0-72 12-117 9-33 24-56 37-52 117-52zm0 358q38 0 52-31.5T236 453q0-72-14.5-105T170 315q-35 0-48 33t-13 105q0 71 13.5 105t47.5 34zm386 92q4 16-12 16h-50q-13 0-21-17L235-7q-4-16 13-16h51q14 0 18 13z"/><glyph glyph-name="minute" unicode="′" horiz-adv-x="197" d="M176 632q8 15-12 21l-52 17q-26 9-31-11L25 422q-3-17 10-21l41-12q16-4 23 9z"/><glyph glyph-name="second" unicode="″" horiz-adv-x="331" d="M176 632q8 15-12 21l-52 17q-26 9-31-11L25 422q-3-17 10-21l41-12q16-4 23 9zm134 0q5 17-13 21l-51 17q-26 9-31-11l-56-237q-4-16 10-21l40-12q19-4 23 8z"/><glyph glyph-name="uni2034" unicode="‴" horiz-adv-x="458" d="M176 632q8 15-12 21l-52 17q-26 9-31-11L25 422q-3-17 10-21l41-12q16-4 23 9zm132 0q5 17-13 21l-51 17q-27 9-32-11l-55-237q-4-16 10-21l40-12q19-4 23 8zm130 0q5 17-13 21l-51 17q-26 9-31-11l-56-237q-4-16 10-21l40-12q19-4 23 8z"/><glyph glyph-name="guilsinglleft" unicode="‹" horiz-adv-x="260" d="M135 45q13-15 33-15h72q7 0 9 4.5t-2 9.5L142 191l101 143q12 19-8 19h-65q-24 0-38-20L45 208q-13-16 0-33z"/><glyph glyph-name="guilsinglright" unicode="›" horiz-adv-x="260" d="M233 175q12 17-1 33l-86 125q-9 12-16 16t-22 4H42q-8 0-10.5-5.5T35 334l100-143L31 44q-4-5-2-9.5t8-4.5h72q23 0 33 15z"/><glyph glyph-name="fraction" unicode="⁄" horiz-adv-x="124" d="M231 684q4 16-12 16h-50q-13 0-21-17L-90-7q-4-16 13-16h51q14 0 18 13z"/><glyph glyph-name="uni2070" unicode="⁰" horiz-adv-x="335" d="M167 324q157 0 157 225 0 69-15 115-9 31-25 50-37 47-117 47-111 0-141-112-12-47-12-100 0-72 12-117 9-33 24-56 37-52 117-52zm0 358q38 0 52-31.5T233 543q0-72-14.5-105T167 405q-35 0-48 33t-13 105q0 71 13.5 105t47.5 34z"/><glyph glyph-name="uni2074" unicode="⁴" horiz-adv-x="337" d="M331 491q0 17-17 17h-32v233q0 15-20 15h-46q-17 0-28-14L17 510Q7 494 7 478v-30q0-16 21-16h166v-86q0-10 4-13t15-3h50q11 0 15 3.5t4 13.5v85h32q17 0 17 16v43zM99 507l95 129V507H99z"/><glyph glyph-name="uni2075" unicode="⁵" horiz-adv-x="335" d="M221 481q0-41-17-56.5T152 409q-37 0-93 8-15 3-20.5-.5T31 401l-6-25q-4-19 18-29 44-18 110-18 82 0 121 35.5T313 487q0 47-24 75.5T223 598l-95 16v4q1 4 2.5 12.5T133 648l4 34h141q16 0 16 16v46q0 16-16 16H87q-15 0-21-5t-8-18L36 580q-4-30 20-34l127-24q38-9 38-41z"/><glyph glyph-name="uni2076" unicode="⁶" horiz-adv-x="335" d="M322 458q0 135-112 135-41 0-99-5 7 93 71 93 39 0 87-7 21-4 26 14 0 2 3 14t3 13q4 19-18 28-41 18-105 18-104 0-137-79-25-61-25-153 0-99 22-146 29-59 129-59 71 0 113 33.5T322 458zm-92 0q0-58-61-58-39 0-52 24-9 20-9 89 24 3 78 6 25 0 34.5-14t9.5-47z"/><glyph glyph-name="uni2077" unicode="⁷" horiz-adv-x="320" d="M58 366q-7-18 9-25l46-19q18-8 26 11l156 343q10 19 10 38v25q0 18-20 18H26q-17 0-17-17v-45q0-15 17-15h174z"/><glyph glyph-name="uni2078" unicode="⁸" horiz-adv-x="335" d="M11 450q0-126 154-126 71 0 113.5 35t42.5 95q0 69-57 102 44 31 44 80 0 62-37 93.5T167 761q-69 0-106.5-32.5T23 634q0-53 44-79-56-39-56-105zm218 4q0-23-18.5-37T165 403q-28 0-45 14t-17 41q0 50 61 66 65-20 65-70zm-13 181q0-35-51-46-52 12-52 46 0 49 53 49 23 0 36.5-13t13.5-36z"/><glyph glyph-name="uni2079" unicode="⁹" horiz-adv-x="337" d="M17 628q0-135 112-135 37 0 99 5-4-48-21-70.5T151 405q-34 0-84 7-15 3-20 1t-8-14l-6-26q-6-21 16-30 44-18 109-18 104 0 136 78 27 66 27 154 0 78-12 121-7 29-24 46-38 38-115 38-70 0-111.5-33.5T17 628zm92 0q0 56 60 56 43 0 54-35 7-15 7-77-50-6-78-6-24 0-33.5 14.5T109 628z"/><glyph glyph-name="uni207A" unicode="⁺" horiz-adv-x="317" d="M282 553q0 20-19 20h-65v73q0 11-4 15t-15 4h-42q-20 0-20-19v-73H53q-12 0-16.5-4T32 553v-33q0-11 4.5-15t16.5-4h64v-79q0-19 20-19h42q19 0 19 19v79h65q19 0 19 19v33z"/><glyph glyph-name="uni207B" unicode="⁻" horiz-adv-x="252" d="M232 551q0 12-4.5 16t-15.5 4H39q-11 0-15.5-4T19 551v-32q0-19 20-19h173q20 0 20 19v32z"/><glyph glyph-name="uni207C" unicode="⁼" horiz-adv-x="308" d="M284 595q0 11-4 14.5t-14 3.5H49q-12 0-16-3.5T29 595v-32q0-12 4.5-16t15.5-4h217q10 0 14 4t4 16v32zm0-104q0 18-18 18H49q-20 0-20-18v-33q0-12 4-15.5t16-3.5h217q10 0 14 3.5t4 15.5v33z"/><glyph glyph-name="uni207D" unicode="⁽" horiz-adv-x="184" d="M112 529q0 117 48 212 9 14-4 25l-27 20q-13 8-18.5 6.5T96 778Q22 662 22 529q0-139 72-258 15-24 36-9l24 16q13 10 6 25-48 98-48 226z"/><glyph glyph-name="uni207E" unicode="⁾" horiz-adv-x="184" d="M80 529q0-129-49-226-7-14 7-25l24-16q22-15 35 9 73 116 73 258 0 128-74 249-10 14-14.5 15T63 786l-27-20q-13-11-4-25 48-97 48-212z"/><glyph glyph-name="uni207F" unicode="ⁿ" horiz-adv-x="318" d="M296 445q0 68-22 98t-74 30q-46 0-90-34v13q0 9-3.5 11.5T92 566H41q-18 0-18-15V256q0-10 3.5-13t15.5-3h49q12 0 16 3.5t4 12.5v213q12 8 33.5 16t33.5 8q19 0 25.5-11t6.5-41V256q0-10 4-13t15-3h48q11 0 15 3.5t4 12.5v189z"/><glyph glyph-name="uni2080" unicode="₀" horiz-adv-x="335" d="M167-97q157 0 157 226 0 69-15 115-9 31-25 50-37 47-117 47-115-5-141-112-12-47-12-100 0-73 12-118 9-34 24-55 37-53 117-53zm0 358q38 0 52-31.5T233 122q0-72-14.5-105T167-16q-38 0-51 40-10 35-10 98 0 71 13.5 105t47.5 34z"/><glyph glyph-name="uni2081" unicode="₁" horiz-adv-x="305" d="M270-29q0 16-16 16h-55v332q0 6-1 9t-5.5 5.5T179 336h-43q-18 0-38-9l-45-20q-15-7-15-21v-26q0-15 16-15h53V-13H57q-16 0-16-16v-45q0-10 3.5-13T57-90h197q10 0 13 3.5t3 12.5v45z"/><glyph glyph-name="uni2082" unicode="₂" horiz-adv-x="335" d="M242 90q30 33 42.5 61.5T297 219q0 122-144 122-65 0-112-18-21-9-17-30l5-29q1-14 24-12 67 7 99 7t43-11 11-36q0-33-32-68L31-9Q18-19 18-39v-35q0-17 20-17h249q18 0 18 17v45q0 17-18 17H150l-1 2z"/><glyph glyph-name="uni2083" unicode="₃" horiz-adv-x="335" d="M282 249q17 17 17 33v38q0 16-22 16H46q-17 0-17-17v-45q0-16 17-16h127l1-4-71-70q-11-11-11-24v-23q0-13 5-18.5t19-7.5l63-11q42-8 42-39 0-44-17.5-60T148-15q-41 0-95 10-21 5-26-16l-5-25q-5-19 10-26 19-10 56-16 35-7 62-7 83 0 123 36.5T313 66q0 83-77 104l-23 6 1 5z"/><glyph glyph-name="uni2084" unicode="₄" horiz-adv-x="337" d="M331 72q0 17-17 17h-32v233q0 15-20 15h-46q-17 0-28-14L17 91Q7 75 7 59V29q0-16 21-16h166v-86q0-10 3.5-12.5T213-88h50q11 0 15 3t4 13v85h32q17 0 17 16v43zM99 88l95 130V88H99z"/><glyph glyph-name="uni2085" unicode="₅" horiz-adv-x="335" d="M221 61q0-41-17-57t-52-16q-37 0-93 8-15 3-20.5-.5T31-20l-6-24q-5-21 18-29 41-19 110-19 82 0 121 36t39 123q0 46-24 74.5T223 177l-95 17 5 34q4 29 4 34h141q16 0 16 16v45q0 16-16 16H87q-15 0-21-5t-8-18L36 159q-4-30 20-34l127-24q38-9 38-40z"/><glyph glyph-name="uni2086" unicode="₆" horiz-adv-x="335" d="M322 37q0 136-112 136-36 0-99-6 7 94 71 94 25 0 87-8 21-3 26 14 0 1 3 13.5t3 14.5q5 18-18 27-41 19-105 19-104 0-137-79-25-64-25-154Q16 9 38-38q29-59 129-59 71 0 113 33.5T322 37zm-92 0q0-58-61-58-39 0-52 25-9 18-9 88 48 6 78 6 25 0 34.5-14t9.5-47z"/><glyph glyph-name="uni2087" unicode="₇" horiz-adv-x="320" d="M58-55q-7-18 9-25l46-19q18-8 26 11l156 343q10 19 10 38v25q0 18-20 18H26q-17 0-17-17v-45q0-15 17-15h174z"/><glyph glyph-name="uni2088" unicode="₈" horiz-adv-x="335" d="M11 30Q11-97 165-97q71 0 113.5 35T321 33q0 69-57 102 44 31 44 80 0 62-38 94t-103 32q-68 0-106-33t-38-95q0-53 44-79Q11 95 11 30zm218 3q0-23-18.5-37T165-18q-28 0-45 14t-17 41q0 50 61 66 65-20 65-70zm-13 181q0-36-51-46-52 12-52 46 0 49 53 49 23 0 36.5-13t13.5-36z"/><glyph glyph-name="uni2089" unicode="₉" horiz-adv-x="337" d="M17 207Q17 72 129 72q37 0 99 5-4-48-21-70.5T151-16q-34 0-84 7-15 3-20 1t-8-14l-6-26q-5-20 16-30 47-18 109-18 105 0 136 79 27 63 27 153 0 78-12 121-7 29-24 46-38 38-115 38-70 0-111.5-33.5T17 207zm92 0q0 56 60 56 43 0 54-35 7-15 7-77-50-6-78-6-24 0-33.5 14.5T109 207z"/><glyph glyph-name="uni208A" unicode="₊" horiz-adv-x="316" d="M282 124q0 19-19 19h-65v73q0 11-4 15.5t-15 4.5h-42q-20 0-20-20v-73H53q-12 0-16.5-3.5T32 124V90q0-18 21-18h64V-7q0-19 20-19h42q19 0 19 19v79h65q19 0 19 18v34z"/><glyph glyph-name="uni208B" unicode="₋" horiz-adv-x="249" d="M230 122q0 12-4 16t-15 4H38q-11 0-15.5-4T18 122V90q0-18 20-18h173q19 0 19 18v32z"/><glyph glyph-name="uni208C" unicode="₌" horiz-adv-x="316" d="M284 175q0 11-4 14.5t-14 3.5H49q-12 0-16-3.5T29 175v-32q0-12 4.5-16t15.5-4h217q10 0 14 4t4 16v32zm0-104q0 18-18 18H49q-20 0-20-18V38q0-12 4-15.5T49 19h217q10 0 14 3.5t4 15.5v33z"/><glyph glyph-name="uni208D" unicode="₍" horiz-adv-x="184" d="M112 100q0 118 48 212 9 14-4 25l-27 20q-13 8-18.5 6.5T96 349Q22 233 22 100q0-140 72-258 15-24 36-9l24 16q13 10 6 25-48 97-48 226z"/><glyph glyph-name="uni208E" unicode="₎" horiz-adv-x="184" d="M80 100q0-129-49-226-7-14 7-25l24-16q22-15 35 9 73 116 73 258 0 128-74 249-10 14-14.5 15T63 357l-27-20q-13-11-4-25 48-97 48-212z"/><glyph glyph-name="dong" unicode="₫" horiz-adv-x="500" d="M431 537q14 0 14 14v35q0 9-3 11.5t-12 2.5h-27v51q0 18-22 18h-54q-23 0-23-18v-51H185q-15 0-15-14v-35q0-14 15-14h119v-67q-43 13-86 13-86 0-119.5-48T65 278q0-99 28.5-143T193 91q26 0 58 11.5t53 28.5v-18q0-18 22-18h55q22 0 22 18v424h28zM166 280q0 68 14.5 94.5T230 401q37 0 73-11V202q-44-25-86-25-27 0-39 18-12 19-12 85zM401-25q17 0 17 13v47q0 15-18 15H98q-17 0-17-14v-48q0-13 17-13h303z"/><glyph glyph-name="Euro" unicode="€" d="M77 315H45q-17 0-18-12l-7-35q-3-15 13-15h47q7-109 55-183Q189-8 311-8q113 0 166 25 19 9 19 32l-3 43q0 22-27 18-72-13-141-13-60 0-90 39t-37 117h195q16 0 17 13l6 34q1 9-2 12t-13 3H195v45h212q15 0 18 13l7 34q2 8-1.5 11t-14.5 3H201q9 72 37.5 108.5T325 566t134-10q22-3 25 15l8 39q4 22-17 33-64 27-158 27-115 0-169-68-53-68-66-181H46q-16 0-19-13l-7-35q-1-8 2-10.5t12-2.5h43v-45z"/><glyph glyph-name="uni2103" unicode="℃" horiz-adv-x="782" d="M580 670q-165 0-216-150-27-78-27-193 0-114 27-191 16-44 42-76Q467-8 578-8q102 0 168 29 23 11 19 33l-8 38q-6 18-30 16-83-10-141-10-71 0-99 56.5T459 328q0 103 21 165 26 71 106 71 54 0 141-10 25-4 29 15l8 41q3 21-20 32-63 28-164 28zM157 416q55 0 92 36t37 89q0 50-38 88t-91 38q-54 0-94-38-39-37-39-88 0-55 36.5-90t96.5-35zM96 539q0 27 17.5 44.5T155 601t41-17.5 17-44.5q0-25-16-42.5T155 479t-42.5 17.5T96 539z"/><glyph glyph-name="uni2105" unicode="℅" horiz-adv-x="684" d="M269 376q-3 16-25 13-50-8-79-7.5t-41 23-12 80.5q0 55 12.5 77t44.5 22q30 0 72-6 15-3 20.5-.5T269 591l5 29q3 18-13 28-36 18-101 18-86 0-116-58-24-47-24-124 0-87 28-136 29-48 112-48 64 0 98 18 20 9 17 29zm396-196q0 72-26 120-30 58-121 58-144 0-144-178 0-60 12-99 7-25 22-45Q445-6 518-6q112 4 134 87 13 40 13 99zm-147 98q32 0 43-22t11-79q0-56-11.5-79T518 75q-29 0-40.5 23T466 177q0 55 11.5 78t40.5 23zm-16 414q4 16-12 16h-50q-13 0-21-17L181 1q-4-16 13-16h51q14 0 18 13z"/><glyph glyph-name="uni2109" unicode="℉" horiz-adv-x="730" d="M349 19q0-19 23-19h70q22 0 22 19v275h199q21 0 21 19v62q0 18-20 18H463v171h233q21 0 21 19v62q0 18-21 18H372q-23 0-23-18V19zM154 410q54 0 92 36 37 36 37 89 0 50-38 88t-91 38q-54 0-94-38-39-37-39-88 0-55 36.5-90t96.5-35zM93 533q0 27 17.5 44.5T152 595t41-17.5 17-44.5q0-25-16-42.5T152 473t-42.5 17.5T93 533z"/><glyph glyph-name="uni2113" unicode="ℓ" horiz-adv-x="442" d="M189 249q169 185 169 330 0 61-33.5 96T242 710q-67 0-106-58T97 482V278q-23-24-69-60-12-9-6-21l20-39q8-14 24 0l32 25Q98-8 242-8q55 0 97 36t82 110q8 15-8 25l-30 21q-18 14-33-9-37-57-54-74-5-4-10-9-20-17-36-17-32 0-46 29t-15 88v57zm-3 244q0 66 14.5 102.5T236 632q19 0 29-16.5t10-41.5q0-90-89-218v137z"/><glyph glyph-name="uni2116" unicode="№" horiz-adv-x="868" d="M814 267q0 18-20 18H572q-20 0-20-18v-40q0-10 3.5-14t15.5-4h224q19 0 19 17v41zM378 20q11-20 34-20h54q21 0 21 18v626q0 19-21 19h-68q-21 0-21-19V239q-1-1-4-1L165 645q-10 18-32 18H76q-20 0-20-17V19Q56 0 78 0h67q20 0 20 19v407l4 1zm444 490q0 68-24 110-29 54-116 54-137 0-137-164 0-59 11-94 7-24 21-41 35-39 105-39 94 0 119 60 21 48 21 114zm-140 88q30 0 41.5-21t11.5-72-11.5-72-41.5-21q-29 0-39.5 21T632 505t10.5 72 39.5 21z"/><glyph glyph-name="uni2117" unicode="℗" horiz-adv-x="782" d="M558 405q0 59-38 91.5T420 529H308q-19 0-19-15V140q0-16 19-16h42q17 0 17 16v138h55q71 0 103 38 33 39 33 89zm-80-1q0-62-60-62h-51v121h45q66 0 66-59zm262-69q0 144-101 245-100 100-248 100-143 0-246-101Q43 478 43 335T145 92Q246-8 391-8T637 92q103 100 103 243zm-65 0q0-117-83-200T391 52q-117 0-200 83t-83 200q0 118 83 201t200 83q118 0 201-83t83-201z"/><glyph glyph-name="trademark" unicode="™" horiz-adv-x="614" d="M513 663q-16 0-20-13l-72-160h-1l-72 160q-7 13-20 13h-45q-14 0-14-12V365q0-15 15-15h45q14 0 14 15 0 43-1 78v78h2l47-109q5-12 18-12h21q9 0 17 14l48 110h3q0-44-1-79v-80q0-14 13-14h48q12 0 12 14v286q0 12-13 12h-44zm-256-14q0 13-16 13H36q-16 0-16-13v-36q0-15 16-15h66V365q0-14 17-14h40q17 0 17 14v233h64q17 0 17 15v36z"/><glyph glyph-name="Omega" unicode="Ω" horiz-adv-x="592" d="M164 344q0 227 133 227 134 0 134-231 0-180-87-224-19-10-19-28V20q0-20 22-20h192q12 0 16 5t4 17v59q0 18-20 18h-56l-1 3q68 79 68 246 0 105-30 179-16 43-44 74-61 70-179 70-167 0-225-153-29-76-29-172 0-181 67-244l-1-3H49q-12 0-16-4t-4-14V20q0-12 4-16t16-4h189q24 0 24 20v69q0 5-1.5 9t-3.5 6-6.5 6-7.5 7q-81 43-79 227z"/><glyph glyph-name="uni212B" unicode="Å" horiz-adv-x="516" d="M386 21q3-12 8-16.5T412 0h85q18 0 12 20L333 642q-6 21-29 21h-84q-23 0-29-21L15 21Q9 0 30 0h75q22 0 28 21l36 144h181zM264 537q7-43 25-117l38-162H192l12 45 19 75 11 44q1 5 7.5 33t12 52 6.5 30h4zm69 177q30 30 30 72t-30 72-74 30-76-29q-31-28-31-73t31-73 76-28q43 0 74 29zm-74 119q18 0 30.5-14.5T302 786q2-28-20.5-40.5t-45-.5-19.5 41q0 18 12.5 32.5T259 833z"/><glyph glyph-name="estimated" unicode="℮" horiz-adv-x="711" d="M664 307q-4 152-93 253-87 100-218 100-129 0-221-98-91-97-91-235t92-239q91-99 220-99 73 0 140.5 39T612 137h-74q-32-48-82-76.5T354 32q-50 0-98.5 30T179 139h1v168h484zm-484 40v162l-1-1q39 49 86 79t89 30q46 0 96-30 49-28 75-74h-1V347H180z"/><glyph glyph-name="onethird" unicode="⅓" horiz-adv-x="801" d="M731 339q17 17 17 33v38q0 16-22 16H495q-17 0-17-17v-45q0-16 17-16h127l1-4-71-70q-11-11-11-24v-23q0-13 5-18.5t19-7.5l63-11q42-8 42-39 0-44-17.5-60T597 75q-41 0-95 10-21 5-26-16l-5-25q-5-19 10-26 17-9 56-17 37-6 62-6 83 0 123 36.5T762 156q0 83-77 104l-23 6 1 5zm-461-37q0 16-16 16h-55v332q0 6-1 9t-5.5 5.5T179 667h-43q-18 0-38-9l-45-20q-15-8-15-21v-26q0-15 16-15h53V318H57q-16 0-16-16v-45q0-10 3.5-13t12.5-3h197q10 0 13 3.5t3 12.5v45zm266 382q4 16-12 16h-50q-13 0-21-17L215-7q-4-16 13-16h51q14 0 18 13z"/><glyph glyph-name="twothirds" unicode="⅔" horiz-adv-x="801" d="M233 421q30 33 42.5 61.5T288 550q0 121-144 121-67 0-112-17-21-9-17-30l5-29q2-15 24-12 67 7 99 7t43-11 11-37q0-32-32-67L22 322Q9 309 9 292v-35q0-17 20-17h249q18 0 18 17v45q0 17-18 17H141l-1 2zm513-82q17 17 17 33v38q0 16-22 16H510q-17 0-17-17v-45q0-16 17-16h127l1-4-71-70q-11-11-11-24v-23q0-13 5-18.5t19-7.5l63-11q42-8 42-39 0-44-17.5-60T612 75q-41 0-95 10-21 5-26-16l-5-25q-5-19 10-26 17-9 56-17 38-6 62-6 83 0 123 36.5T777 156q0 83-77 104l-23 6 1 5zM560 684q4 16-12 16h-50q-13 0-21-17L239-7q-4-16 13-16h51q14 0 18 13z"/><glyph glyph-name="uni2155" unicode="⅕" horiz-adv-x="801" d="M547 684q4 16-12 16h-50q-13 0-21-17L226-7q-4-16 13-16h51q14 0 18 13zM283 302q0 16-16 16h-55v332q0 6-1 9t-5.5 5.5T192 667h-43q-19 0-38-9l-45-20q-15-8-15-21v-26q0-15 16-15h53V318H70q-16 0-16-16v-45q0-10 3.5-13t12.5-3h197q10 0 13 3.5t3 12.5v45zm376-151q0-41-17-57t-52-16q-37 0-93 8-15 3-20.5-.5T469 70l-6-24q-5-21 18-29Q522-2 591-2q82 0 121 36t39 123q0 46-24 74.5T661 267l-95 17 4 34q1 9 2.5 17.5T574 348l1 4h141q16 0 16 16v45q0 16-16 16H525q-15 0-21-5t-8-18l-22-157q-4-30 20-34l127-24q38-9 38-40z"/><glyph glyph-name="uni2156" unicode="⅖" horiz-adv-x="801" d="M569 684q4 16-12 16h-50q-13 0-21-17L248-7q-4-16 13-16h51q14 0 18 13zM242 421q30 33 42.5 61.5T297 550q0 121-144 121-67 0-112-17-21-9-17-30l5-29q1-15 24-12 67 7 99 7t43-11 11-37q0-32-32-67L31 322q-13-13-13-30v-35q0-17 20-17h249q18 0 18 17v45q0 17-18 17H150l-1 2zm433-270q0-41-17-57t-52-16q-37 0-93 8-15 3-20.5-.5T485 70l-6-24q-5-21 18-29Q538-2 607-2q82 0 121 36t39 123q0 46-24 74.5T677 267l-95 17 4 34q1 9 2.5 17.5T590 348l1 4h141q16 0 16 16v45q0 16-16 16H541q-15 0-21-5t-8-18l-22-157q-4-30 20-34l127-24q38-9 38-40z"/><glyph glyph-name="uni2157" unicode="⅗" horiz-adv-x="801" d="M681 151q0-41-17-57t-52-16q-37 0-93 8-15 3-20.5-.5T491 70l-6-24q-5-21 18-29Q544-2 613-2q82 0 121 36t39 123q0 46-24 74.5T683 267l-95 17 5 34q4 29 4 34h141q16 0 16 16v45q0 16-16 16H547q-15 0-21-5t-8-18l-22-157q-4-30 20-34l127-24q38-9 38-40zM296 580q17 17 17 34v37q0 16-22 16H60q-17 0-17-17v-44q0-16 17-16h127l1-5-71-70q-11-11-11-23v-23q0-23 24-27l63-11q43-7 43-39 0-44-18-60t-56-16q-31 0-95 10-21 5-26-15l-5-26q-5-19 10-26 17-9 56-17 37-6 62-6 83 0 123 36.5T327 397q0 84-77 104l-23 6q0 2 1 5zm274 104q4 16-12 16h-50q-13 0-21-17L249-7q-4-16 13-16h51q14 0 18 13z"/><glyph glyph-name="uni2158" unicode="⅘" horiz-adv-x="801" d="M581 684q4 16-12 16h-50q-13 0-21-17L260-7q-4-16 13-16h51q14 0 18 13zM345 401q0 17-17 17h-32v233q0 15-20 15h-46q-17 0-28-14L31 420q-10-16-10-32v-30q0-16 21-16h166v-86q0-10 4-13t15-3h50q11 0 15 3.5t4 13.5v85h32q17 0 17 16v43zm-232 16 95 129V417h-95zm572-266q0-41-17-57t-52-16q-37 0-93 8-15 3-20.5-.5T495 70l-6-24q-5-21 18-29Q548-2 617-2q82 0 121 36t39 123q0 46-24 74.5T687 267l-95 17 4 34q1 9 2.5 17.5T600 348l1 4h141q16 0 16 16v45q0 16-16 16H551q-15 0-21-5t-8-18l-22-157q-4-30 20-34l127-24q38-9 38-40z"/><glyph glyph-name="uni2159" unicode="⅙" horiz-adv-x="801" d="M755 127q0 136-112 136-36 0-99-6 7 94 71 94 25 0 87-8 21-3 26 14 0 1 3 13.5t3 14.5q4 18-18 27-41 19-105 19-104 0-137-79-25-64-25-154 0-99 22-146Q500-7 600-7q71 0 113 33.5T755 127zm-92 0q0-58-61-58-39 0-52 25-9 18-9 88 48 6 78 6 25 0 34.5-14t9.5-47zM278 302q0 16-16 16h-55v332q0 6-1 9t-5.5 5.5T187 667h-43q-18 0-38-9l-45-20q-15-8-15-21v-26q0-15 16-15h53V318H65q-16 0-16-16v-45q0-10 3.5-13t12.5-3h197q10 0 13 3.5t3 12.5v45zm262 382q4 16-12 16h-50q-13 0-21-17L219-7q-4-16 13-16h51q14 0 18 13z"/><glyph glyph-name="uni215A" unicode="⅚" horiz-adv-x="801" d="M563 684q4 16-12 16h-50q-13 0-21-17L242-7q-4-16 13-16h51q14 0 18 13zM236 391q0-41-17-56.5T167 319q-37 0-93 8-15 3-20.5-.5T46 311l-6-25q-4-19 18-29 44-18 110-18 82 0 121 35.5T328 397q0 47-24 75.5T238 508l-95 16q0 5 4 34l5 34h141q16 0 16 16v46q0 16-16 16H102q-15 0-21-5t-8-18L51 490q-4-30 20-34l127-24q38-9 38-41zm543-264q0 136-112 136-36 0-99-6 7 94 71 94 25 0 87-8 21-3 26 14 0 1 3 13.5t3 14.5q4 18-18 27-41 19-105 19-104 0-137-79-25-64-25-154 0-99 22-146Q524-7 624-7q71 0 113 33.5T779 127zm-92 0q0-58-61-58-39 0-52 25-9 18-9 88 48 6 78 6 25 0 34.5-14t9.5-47z"/><glyph glyph-name="oneeighth" unicode="⅛" horiz-adv-x="801" d="M450 120Q450-7 604-7q71 0 113.5 35t42.5 95q0 69-57 102 44 31 44 80 0 62-38 94t-103 32q-68 0-106-33t-38-95q0-53 44-79-56-39-56-104zm218 3q0-23-18.5-37T604 72q-28 0-45 14t-17 41q0 50 61 66 65-20 65-70zm-13 181q0-36-51-46-52 12-52 46 0 49 53 49 23 0 36.5-13t13.5-36zm-386-2q0 16-16 16h-55v332q0 6-1 9t-5.5 5.5T178 667h-43q-19 0-38-9l-45-20q-15-8-15-21v-26q0-15 16-15h53V318H56q-16 0-16-16v-45q0-10 3.5-13t12.5-3h197q10 0 13 3.5t3 12.5v45zm266 382q4 16-12 16h-50q-13 0-21-17L214-7q-4-16 13-16h51q14 0 18 13z"/><glyph glyph-name="threeeighths" unicode="⅜" horiz-adv-x="801" d="M468 120Q468-7 622-7q71 0 113.5 35t42.5 95q0 69-57 102 44 31 44 80 0 62-38 94t-103 32q-68 0-106-33t-38-95q0-53 44-79-56-39-56-104zm218 3q0-23-18.5-37T622 72q-28 0-45 14t-17 41q0 50 61 66 65-20 65-70zm-13 181q0-36-51-46-52 12-52 46 0 49 53 49 23 0 36.5-13t13.5-36zM293 580q17 17 17 34v37q0 16-22 16H57q-17 0-17-17v-44q0-16 17-16h127l1-5-71-70q-11-11-11-23v-23q0-23 24-27l63-11q43-7 43-39 0-44-18-60t-56-16q-31 0-95 10-21 5-26-15l-5-26q-5-19 10-26 17-9 56-17 37-6 62-6 83 0 123 36.5T324 397q0 84-77 104l-23 6q0 2 1 5zm273 104q4 16-12 16h-50q-13 0-21-17L245-7q-4-16 13-16h51q14 0 18 13z"/><glyph glyph-name="fiveeighths" unicode="⅝" horiz-adv-x="801" d="M561 684q4 16-12 16h-50q-13 0-21-17L240-7q-4-16 13-16h51q14 0 18 13zM232 391q0-41-17-56.5T163 319q-37 0-93 8-15 3-20.5-.5T42 311l-6-25q-4-19 18-29 44-18 110-18 82 0 121 35.5T324 397q0 47-24 75.5T234 508l-95 16q0 5 4 34l5 34h141q16 0 16 16v46q0 16-16 16H98q-15 0-21-5t-8-18L47 490q-4-30 20-34l127-24q38-9 38-41zm239-271Q471-7 625-7q71 0 113.5 35t42.5 95q0 69-57 102 44 31 44 80 0 62-38 94t-103 32q-68 0-106-33t-38-95q0-53 44-79-56-39-56-104zm218 3q0-23-18.5-37T625 72q-28 0-45 14t-17 41q0 50 61 66 65-20 65-70zm-13 181q0-36-51-46-52 12-52 46 0 49 53 49 23 0 36.5-13t13.5-36z"/><glyph glyph-name="seveneighths" unicode="⅞" horiz-adv-x="801" d="M447 120Q447-7 601-7q71 0 113.5 35t42.5 95q0 69-57 102 44 31 44 80 0 62-38 94t-103 32q-68 0-106-33t-38-95q0-53 44-79-56-39-56-104zm218 3q0-23-18.5-37T601 72q-28 0-45 14t-17 41q0 50 61 66 65-20 65-70zm-13 181q0-36-51-46-52 12-52 46 0 49 53 49 23 0 36.5-13t13.5-36zM90 276q-7-18 9-25l46-19q18-8 26 11l156 343q10 19 10 38v25q0 18-20 18H58q-17 0-17-17v-45q0-15 17-15h174zm428 408q4 16-12 16h-50q-13 0-21-17L197-7q-4-16 13-16h51q14 0 18 13z"/><glyph glyph-name="uni215F" unicode="⅟" horiz-adv-x="471" d="M268 302q0 16-16 16h-55v332q0 6-1 9t-5.5 5.5T177 667h-43q-19 0-38-9l-45-20q-15-8-15-21v-26q0-15 16-15h53V318H55q-16 0-16-16v-45q0-10 3.5-13t12.5-3h197q10 0 13 3.5t3 12.5v45zm271 382q4 16-12 16h-50q-13 0-21-17L218-7q-4-16 13-16h51q14 0 18 13z"/><glyph glyph-name="partialdiff" unicode="∂" horiz-adv-x="484" d="M135 223q0 62 23.5 103t64.5 41q52 0 115-67-5-121-51-183-26-35-63-35-42 0-65.5 35.5T135 223zm199 184q-52 45-120 45-82 0-135-63-51-61-51-168 0-110 51-170.5T220-10q103 0 162.5 94T442 351q0 71-17 133.5t-52 115-95.5 85.5T136 724q-16 1-22-2.5t-8-14.5l-6-40q-1-10 6-14.5t22-7.5q102-17 153-84 50-67 58-151z"/><glyph glyph-name="gradient" unicode="∇" horiz-adv-x="513" d="M504 643q1 1 1 6 0 13-17 13H23q-17 0-17-13 0-6 1-8L184 21q3-12 9.5-16.5T217 0h73q17 0 23.5 4.5T324 22zM251 137q-24 106-40 167l-70 260h220l-32-118-37-143q-18-77-36-166h-5z"/><glyph glyph-name="product" unicode="∏" horiz-adv-x="539" d="M485 644q0 19-21 19H77q-23 0-23-19V-58q0-19 23-19h70q21 0 21 19v621h203V-58q0-19 22-19h71q21 0 21 19v702z"/><glyph glyph-name="summation" unicode="∑" horiz-adv-x="424" d="M415 3q0 18-22 18H150l120 252q5 12 5 20 0 11-6 23L146 562h235q22 0 22 19v63q0 19-22 19H39q-21 0-21-19v-53q0-18 10-37l129-259L31 31Q21 14 21-8v-50q0-19 21-19h352q21 0 21 19V3z"/><glyph glyph-name="minus" unicode="−" horiz-adv-x="500" d="M436 352q0 16-20 16H80q-18 0-18-16v-51q0-17 18-17h336q20 0 20 17v51z"/><glyph glyph-name="radical" unicode="√" horiz-adv-x="511" d="M180 414q-4 17-26 10L38 377q-20-8-14-25l8-25 8-23q6-20 29-11 1 1 20 7t20 7L232-60q8-18 22-18h58q18 0 22 15l177 842q3 14-14 14h-69q-19 0-22-15-71-347-126-647h-4z"/><glyph glyph-name="infinity" unicode="∞" horiz-adv-x="648" d="M327 202q67-91 142-91 65 0 108 48 43 47 43 115 0 70-41 117-40 46-102 46-86 0-150-94h-4q-26 40-65 67t-78 27q-63 0-107-48-43-47-43-115 0-70 41-117 40-46 103-46 78 0 150 91h3zm-211 72q0 31 19.5 54.5T181 352t52-21 41-53q3-4 0-12-45-72-95-72-26 0-44.5 23.5T116 274zm355 78q26 0 44.5-22.5T534 274q0-32-19.5-56T469 194q-43 0-93 74-3 4 0 9 52 75 95 75z"/><glyph glyph-name="logicaland" unicode="∧" horiz-adv-x="492" d="M119 0q19 0 25 16l106 319L358 16q6-16 25-16h70q19 0 13 16L296 489q-5 14-25 14h-42q-20 0-28-20L39 15h1Q34 0 51 0h68z"/><glyph glyph-name="logicalor" unicode="∨" horiz-adv-x="492" d="M46 503q-13 0-13-9l2-6h-1L196 19q7-19 28-19h42q20 0 25 14l170 472q0 1 1 4v2q0 11-14 11h-70q-21 0-25-16L245 167 139 487q-4 16-25 16H46z"/><glyph glyph-name="intersection" unicode="∩" horiz-adv-x="492" d="M39 23q0-14 5.5-18.5T63 0h52q15 0 20 4.5t5 18.5v270q0 55 26.5 89.5T241 417q47 0 74-34t27-90V23q0-14 5-18.5T367 0h54q15 0 20 4.5t5 18.5v273q0 97-54.5 155T241 509 92 447 39 296V23z"/><glyph glyph-name="union" unicode="∪" horiz-adv-x="492" d="M39 213q0-89 53-151T241 0q97 0 151 59 54 58 54 154v274q0 13-5 17.5t-20 4.5h-54q-15 0-20-4t-5-18V216q0-52-27.5-87.5T241 93q-48 0-74.5 33T140 216v271q0 13-5 17.5t-20 4.5H63q-24 0-24-22V213z"/><glyph glyph-name="integral" unicode="∫" horiz-adv-x="403" d="M76-70q-6 0-51 5-12 1-16-2T3-81l-5-32q-2-12 7-18 29-19 82-19 91 0 129 113 21 66 27 215 3 67 3 197v87l2 79q8 153 68 153 2 0 28-2l21-2q21-1 25 15l6 33q4 12-9 19-31 16-78 16-92 0-133-112-15-44-22-143-2-42-2-73 0-287-9-383Q131-70 76-70z"/><glyph glyph-name="approxequal" unicode="≈" horiz-adv-x="500" d="M334 327q78 0 117 93 5 11-9 20l-27 18q-12 8-23-5-16-22-26-30t-25-8q-14 0-74 26t-90 26q-79 0-116-93-5-15 5-20l29-17q14-8 23 3 22 26 32.5 34t23.5 8q21 0 77-28 57-27 83-27zm0-158q78 0 117 93 5 11-9 20l-27 18q-12 8-23-5-16-22-26-30t-25-8q-14 0-74 26t-90 26q-79 0-116-93-5-15 5-20l29-17q14-8 23 3 22 26 32.5 34t23.5 8q21 0 77-28 57-27 83-27z"/><glyph glyph-name="notequal" unicode="≠" horiz-adv-x="500" d="M438 265q0 16-17 16H264l51 86h106q17 0 17 17v52q0 16-17 16h-57l52 89q10 21-11 21h-39q-6 0-9.5-1t-7-4-5-4-5-7-4.5-7l-51-87H79q-17 0-17-16v-52q0-17 17-17h156l-51-86H79q-17 0-17-16v-52q0-16 17-16h56l-50-85Q75 93 95 93h40q19 0 32 24l48 80h206q17 0 17 16v52z"/><glyph glyph-name="equivalence" unicode="≡" horiz-adv-x="500" d="M438 459q0 17-20 17H81q-20 0-20-17v-49q0-17 20-17h337q12 0 16 3.5t4 13.5v49zm0-241q0 10-4 13.5t-16 3.5H81q-20 0-20-17v-48q0-17 20-17h337q20 0 20 17v48zm0 121q0 9-4 12.5t-16 3.5H81q-20 0-20-16v-50q0-16 20-16h337q20 0 20 16v50z"/><glyph glyph-name="lessequal" unicode="≤" horiz-adv-x="500" d="M436 207q0 15-14 20L187 337v3l234 108q14 5 14 20v70q0 12-8 12-1 0-2-1-3-1-5-1L77 382q-12-6-12-20v-49q0-13 13-20l343-168q2-2 6-2 9 0 9 10v74zm0-133q0 17-18 17H84q-17 0-17-16V25Q67 9 84 9h334q18 0 18 16v49z"/><glyph glyph-name="greaterequal" unicode="≥" horiz-adv-x="500" d="M67 134q0-7 4.5-9.5t9.5.5l343 168q13 6 13 21v49q0 13-12 19L82 548q-14 8-14-9v-71q0-12 14-20l233-107v-4L81 228q-14-6-14-20v-74zM66 26Q66 9 84 9h335q16 0 16 17v49q0 17-16 17H84q-18 0-18-17V26z"/><glyph glyph-name="uni2303" unicode="⌃" horiz-adv-x="671" d="M522 357q14-13 26-1l44 39q12 8-1 21L352 693q-14 16-26-1L87 415q-13-13-1-21l44-39q12-13 26 1l180 202h4z"/><glyph glyph-name="uniE000" unicode="" d="M252-9q161 0 208 153 18 58 20 133 2 38 2 64 0 113-20 180-14 49-37 78-56 72-173 72-86 0-141-48-42-39-64-111-9-31-13-64-2-18-5-58v-49q0-84 7-137 9-68 38-123Q125-9 252-9zm0 580q72 0 94-65 20-56 20-175 0-124-25-181t-89-57q-67 0-89 69-18 56-18 169 0 103 18 168 23 72 89 72z"/><glyph glyph-name="uniE001" unicode="" horiz-adv-x="419" d="M397 81q0 17-19 17H275v546q0 19-23 19h-55q-28 0-49-9l-76-35q-16-6-16-24v-36q0-9 4.5-12t16.5-3h85V98H67q-20 0-20-18V17Q47 0 67 0h311q19 0 19 17v64z"/><glyph glyph-name="uniE002" unicode="" horiz-adv-x="495" d="M244 173q30 31 58 63l45 52q45 54 66 97 19 39 19 104 0 92-50 137t-162 45q-31 0-85-8-50-7-82-21-23-11-19-30l6-41q5-20 31-16 100 13 147 13 58 0 77.5-20t19.5-72q0-62-53-123-43-49-119-132-66-72-102-112-14-16-14-34V18Q27 0 50 0h373q11 0 15 4t4 14v63q0 17-21 17H182l-2 6z"/><glyph glyph-name="uniE003" unicode="" horiz-adv-x="492" d="M444 239q0 132-115 160l-54 13v3l125 132q19 19 19 45v53q0 18-22 18H52q-20 0-20-17v-62q0-18 21-18h218l1-4-135-139q-11-13-11-33v-33q0-13 5-19t20-9l111-22q65-14 65-76 0-83-33-110-32-27-91-27-45 0-146 14-26 4-30-17l-7-41q-3-21 22-31Q70 8 123 0q56-8 83-8 117 0 177 54 61 54 61 193z"/><glyph glyph-name="uniE004" unicode="" horiz-adv-x="510" d="M491 247q0 17-17 17h-61v382q0 16-18 16h-68q-25 0-36-15L22 270q-10-13-10-29v-57q0-18 23-18h266V17q0-17 18-17h75q19 0 19 18v148h61q17 0 17 16v65zm-357 15v3l166 231 2-1V262H134z"/><glyph glyph-name="uniE005" unicode="" horiz-adv-x="492" d="M338 231q0-82-31-110-31-27-89-27-57 0-148 13-17 3-22.5-.5T40 90l-7-39q-3-21 21-32Q81 7 135-1q48-7 83-7 116 0 176 54 61 55 61 193 0 139-130 163l-158 30 17 134h221q21 0 21 18v62q0 17-20 17H118q-17 0-23.5-5T86 638L51 387q-4-36 31-43l191-37q65-14 65-76z"/><glyph glyph-name="uniE006" unicode="" horiz-adv-x="507" d="M478 193q0 215-178 215-57 0-150-11 4 87 31 129t90 42q55 0 138-12 24-3 29 17l8 39q3 23-22 33-57 25-155 25-118 0-177-80-26-33-39-85-22-79-22-197 0-82 6-143 8-59 39-107Q120-9 252-9q98 0 162 48 64 49 64 154zm-116-2q0-101-107-101-70 0-93 47-16 33-16 160 77 10 139 10 42 0 59.5-27.5T362 191z"/><glyph glyph-name="uniE007" unicode="" horiz-adv-x="471" d="M441 547q13 27 13 59v38q0 19-22 19H44q-19 0-19-18v-63q0-17 19-17h281L98 44q-7-16-4.5-22T112 9l50-20q17-6 26-2t17 22z"/><glyph glyph-name="uniE008" unicode="" horiz-adv-x="514" d="M119 352q-96-48-96-169Q23-9 248-9q105 0 166.5 52T476 185q0 58-26 102.5T377 352q36 17 58 55.5t22 76.5q0 93-54 140.5T250 672q-100 0-154.5-49.5T41 478q0-40 21-74.5t57-51.5zm222 130q0-72-91-90-92 24-92 90 0 92 92 92 43 0 67-23.5t24-68.5zm18-293q0-44-32-71t-79-27q-50 0-79 26t-29 77q0 91 104 117 58-16 86.5-43.5T359 189z"/><glyph glyph-name="uniE009" unicode="" horiz-adv-x="514" d="M29 469q0-216 178-216 59 0 150 11-4-86-31-128.5T236 93q-46 0-143 13-24 3-28-19l-8-39q-3-19 21-31Q137-8 238-8q174 5 215 164 23 78 23 197 0 65-3 104-3 40-15 85t-35 70q-51 58-167 58-99 0-163-49-64-48-64-152zm116 1q0 101 107 101 72 0 92-47 16-33 17-159-99-12-138-12-43 0-60.5 27.5T145 470z"/><glyph glyph-name="uniE00A" unicode="" horiz-adv-x="529" d="M221 17q-3-17 15-17h53q9 0 14 15l50 208h107q15 0 18 14v44q0 15-15 15h-94l24 98h102q17 0 17 14l1 42q0 16-16 16h-87l43 180q4 16-13 16h-53q-8 0-11-3t-5-13l-43-180h-74l43 179q3 17-12 17h-53q-15 0-17-16l-43-180H73q-20 0-20-14l-1-44q-1-9 3-11.5t14-2.5h86l-23-98H35q-20 0-20-15l-1-44q0-14 15-14h86L66 17Q63 0 80 0h53q11 0 15 15l49 208h74zm90 377-24-98h-73l23 98h74z"/><glyph glyph-name="uniE00B" unicode="" horiz-adv-x="504" d="M460 186q1 97-52 139-45 36-122 57v178q26-1 121-15 19-4 22 15l11 41q3 20-19 29-51 23-135 29v86q0 11-12 11h-32q-12 0-12-11v-85q-82-6-127.5-53T55 477q-1-81 43-122 45-39 131-63V98q-74 5-151 20-13 2-17-.5T55 104l-9-41q-3-21 15-30Q124 5 229-1v-88q0-6 2-8t10-2h32q12 0 12 11V0q80 7 126 53t49 133zm-104-8q-1-68-71-79v179q40-12 56-34t15-66zM159 478q2 71 71 82V396q-40 12-56 29.5T159 478z"/><glyph glyph-name="uniE00C" unicode="" horiz-adv-x="510" d="M77 315H45q-17 0-18-12l-7-35q-3-15 13-15h47q7-109 55-183Q189-8 311-8q113 0 166 25 19 9 19 32l-3 43q0 22-27 18-72-13-141-13-60 0-90 39t-37 117h195q16 0 17 13l6 34q1 9-2 12t-13 3H195v45h212q15 0 18 13l7 34q2 8-1.5 11t-14.5 3H201q9 72 37.5 108.5T325 566t134-10q22-3 25 15l8 39q4 22-17 33-64 27-158 27-115 0-169-68-53-68-66-181H46q-16 0-19-13l-7-35q-1-8 2-10.5t12-2.5h43v-45z"/><glyph glyph-name="uniE00D" unicode="" horiz-adv-x="425" d="M-13-46q-3-15 9-22 33-18 94-18 63 0 98 44t42 101l37 265h73q15 0 19.5 3t4.5 16v48q0 11-5 14.5t-18 3.5h-65l12 85q7 54 20 75t44 21q9 0 39-5 26-5 30 11l12 46q3 10-8 18-42 19-92 19-83 0-116-59-23-43-34-106l-15-105h-62q-14 0-18.5-4.5T83 388v-45q0-11 5-15t20-4h51l-30-209q-9-64-20-87.5T70 4Q50 4 25 8 1 14-4-6z"/><glyph glyph-name="uniE00E" unicode="" horiz-adv-x="454" d="M266 667q-100 0-138-56-37-55-37-163 0-57 1-71H57q-13 0-17.5-3.5T35 360v-50q0-11 4.5-15t18.5-4h35v-51q0-40-4-56-1-3-3.5-15t-5-22-5.5-16q-15-28-31-39-14-11-14-29V17Q30 0 53 0h352q14 0 18.5 3t4.5 13v61q0 11-4.5 15T406 96H177q20 19 25 112 1 11 1 46 1 20 1 37h133q13 0 17.5 4t4.5 15v50q0 10-4.5 13.5T337 377H203q-1 10-1 45 0 79 16 112t63 33q35 0 118-11 21-3 25 13l10 41q8 18-16 31-58 26-152 26z"/><glyph glyph-name="uniE00F" unicode="" horiz-adv-x="460" d="M54 246q0-103 26-165Q111 7 203-5l13 101q-47 21-47 153 0 84 19 118t67 34h1l13 98q-4 0-13.5.5t-11.5.5q-91 0-138-54-54-67-52-200zM216 96q14-7 38-7h18l39 309q-32 3-55 3zm153 2q-41-8-97-9L259-8q92 5 131 26 16 9 13 28l-7 38q-1 19-27 14zM244-8q-22 0-41 3l-17-137q-2-11 11-13l33-4q6 0 8 2t3 9q1 3 1 4L259-8h-15zm96 635q2 15-11 16l-28 3q-12 2-14-12l-18-135q25-2 54-7zm49-155q-27 13-66 20l-12-94 58-6q21-2 24 15l7 41q4 18-11 24z"/><glyph glyph-name="uniE010" unicode="" horiz-adv-x="499" d="M152 646q-4 10-9.5 13.5T123 663H50q-10 0-14-5.5T35 644l145-325H69q-17 0-17-14v-37q0-14 16-14h128v-42H69q-17 0-17-13v-37q0-14 16-14h128V20q0-20 24-20h65q24 0 24 20v128h126q16 0 16 13v36q0 9-3 12t-13 3H309v42h126q16 0 16 14v36q0 9-3 12t-13 3H323l148 324q9 20-15 20h-70q-22 0-30-18L255 391h-5z"/><glyph glyph-name="uniE024" unicode="" d="M249-9q154 4 194 128 22 59 22 135 0 247-216 247-147-3-191-130-20-56-20-117Q38-9 249-9zm0 417q54 0 77.5-39T350 247q0-159-101-159-95 0-95 159 0 75 24.5 118t70.5 43z"/><glyph glyph-name="uniE025" unicode="" d="M428 81q0 17-17 17H306v372q0 20-20 20h-59q-26 0-53-12l-71-32q-16-7-16-25v-35q0-15 19-15h87V98H97q-18 0-18-18V17Q79 0 97 0h314q17 0 17 17v64z"/><glyph glyph-name="uniE026" unicode="" d="M362 200q82 51 82 135 0 86-46.5 126T240 501q-96 0-168-26-31-13-27-35l7-38q2-12 9-16t25-1q81 13 145 13 54 0 74-14.5t22-51.5q0-40-58-79L57 114q-19-12-19-34V18Q38 0 59 0h375q22 0 22 18v63q0 18-23 18H217l-1 5z"/><glyph glyph-name="uniE027" unicode="" d="M212-141q115 0 173 52 60 51 60 182 0 79-39 111-36 32-121 49 0 1-.5 2t-.5 2l119 119q19 19 19 45v49q0 21-25 21H63q-22 0-22-21v-60q0-11 4.5-15.5T63 390h201v-3l1-3-118-119q-13-12-13-32v-32q0-25 29-30l105-19q59-11 59-67 0-71-28.5-97T210-38q-44 0-138 12-18 3-24-.5T39-42l-7-38q-4-22 23-35 26-13 75-19 46-7 82-7z"/><glyph glyph-name="uniE028" unicode="" d="M479 80q0 11-4.5 15T457 99h-53v374q0 18-24 18h-61q-24 0-36-16L26 108Q12 88 12 55V20Q12 0 39 0h251v-118q0-19 24-19h66q24 0 24 20V0h53q22 0 22 18v62zM292 98H134l155 222 3-1V98z"/><glyph glyph-name="uniE029" unicode="" d="M344 85q0-69-27.5-96T232-38q-44 0-138 12-18 3-24-.5T61-42l-7-38q-4-22 23-35 24-12 76-20 46-7 80-7 116 0 172.5 54.5T462 94q0 63-34.5 103.5T333 249l-147 25q0 1 1 7t3 21.5 4 30.5q9 55 9 58h210q21 0 21 20v62q0 18-20 18H135q-28 0-33-26L69 231q-5-38 32-45l179-33q64-12 64-68z"/><glyph glyph-name="uniE02A" unicode="" d="M476 183q0 104-42 154t-130 50q-60 0-143-10 3 76 29.5 113.5T276 528q57 0 132-13 26-4 31 16l7 41q5 22-20 32-58 27-152 27-170-5-210-156-21-71-21-184 0-61 3-99t15-81 34-65Q149-8 257-8q96 0 157 46 62 47 62 145zm-115 0q0-93-100-93-70 0-88 42-17 36-15 146 85 8 126 8 43 0 60-23.5t17-79.5z"/><glyph glyph-name="uniE02B" unicode="" d="M441 378q14 31 14 48v43q0 22-24 22H58q-22 0-22-21v-60q0-20 21-20h265L107-89q-9-21 10-28l62-28q23-9 33 12z"/><glyph glyph-name="uniE02C" unicode="" d="M252 633q-98 0-151-47.5T48 449q0-36 18-68t50-50q-85-49-85-157Q31-8 249-8q103 0 163 49t60 135q0 53-24.5 94T381 331q33 20 52.5 53.5T453 452q0 89-53 135t-148 46zm101-454q0-40-29.5-64T249 91q-47 0-74.5 23.5T147 184q0 42 28 69t71 37q107-27 107-111zm-18 273q0-63-83-80-87 22-87 80 0 81 87 81 83 0 83-81z"/><glyph glyph-name="uniE02D" unicode="" d="M35 307q0-105 41.5-154T207 104q63 0 141 9-2-76-29-114t-85-38q-62 0-137 14-23 3-28-17l-7-40q-5-20 20-32 58-27 155-27 169 5 210 155 21 72 21 185 0 88-7 135-6 55-37 101-40 64-170 64-96 0-157.5-46T35 307zm114 0q0 94 102 94 66 0 87-42 16-34 15-146-79-11-126-11-44 0-61 24.5T149 307z"/><glyph glyph-name="uniE02E" unicode="" d="M74 398q-18 0-18-11v-41q0-12 15-12h79q0-2-1.5-7.5t-4-14.5-4.5-19-4-19-3-15-1-7H43q-9 0-13.5-3T26 238l-1-40q0-12 14-12h78L79 15Q74 0 91 0h51q10 0 13 13l38 173h66L221 15q-1-15 13-15h48q10 0 13 13l39 173h96q14 0 15 12v39q0 15-14 15h-83l18 82h92q15 0 15 13v38q0 13-14 13h-79l35 151q1 15-11 15h-49q-5 0-7.5-1.5t-4-4.5-2.5-9l-34-151h-67l34 150q3 16-10 16h-51q-13 0-16-15l-33-151H74zm219-64q-6-16-19-82h-66l18 82h67z"/><glyph glyph-name="uniE02F" unicode="" d="M441 164q0 83-49 119-40 31-110 48v141q42-3 108-14 20-3 24 15l10 37q4 18-16 28-47 21-126 26v67q0 15-16 15h-24q-16 0-16-15v-68q-73-8-113.5-49.5T71 401q-1-65 38-101t116-55V89q-53 3-123 13-22 5-26-16l-7-31q-4-21 17-31Q135 2 225-3v-69q0-15 16-15h24q17 0 17 15v71q74 7 116 48t43 117zm-102-7q0-63-57-68v142q31-9 44-25.5t13-48.5zM173 403q0 61 53 67V343q-31 9-42 21t-11 39z"/><glyph glyph-name="uniE030" unicode="" d="M381 304q12 0 15 13l7 33q1 8-2 10.5t-12 2.5H207q15 108 93 108 30 0 129-10 22-1 26 17l6 37q3 19-12 27-67 32-157 32-181 0-203-211H57q-13 0-16-12l-7-34q0-8 2.5-10.5T47 304h39v-39H56q-13 0-16-11l-7-35q-1-13 12-13h44q9-106 56-159.5T292-6q107 0 159 31 16 10 13 32l-5 31q-3 21-30 16-47-10-129-10-42 0-64 26t-29 86h165q13 0 16 12l6 33q3 14-13 14H203v39h178z"/><glyph glyph-name="uniE031" unicode="" d="M42-79q-3-18 8-23 36-17 94-17 112 0 133 137l18 131 17 115h73q21 0 21 22v45q0 17-25 17h-60l11 78q7 46 20 65.5t42 19.5q16 0 32-3 15-2 21.5 0t8.5 12l11 43q4 15-11 21-38 18-80 18-82 0-112-53-24-42-35-103l-15-98h-59q-14 0-19-5t-5-17v-43q0-19 25-19h49L178 73q-10-58-23-80t-45-23q-1 0-13.5 1.5T79-27q-14 3-20.5.5T50-40z"/><glyph glyph-name="uniE032" unicode="" d="M281 571q-85 0-122-48t-37-144v-57H94q-12 0-17-4t-5-15v-41q0-12 4-16.5t16-4.5h32q0-67-8-101-7-31-34-53-15-12-15-30V18Q67 0 89 0h317q14 0 18.5 3.5T429 18v54q0 20-23 20H209q19 28 21 99l2 50h116q21 0 21 19v44q0 18-21 18H230v72q1 12 8 40 11 41 58 41 50 0 104-9 20-7 25 11l9 35q6 24-18 34-56 25-135 25z"/><glyph glyph-name="uniE033" unicode="" d="M209-97q-1-8 1.5-10.5T221-110h32q12 0 14 9v3l1 3 15 114q81 1 122 23 14 9 11 25l-6 37q-4 16-26 12-43-7-90-8l34 259 57-5q18-1 22 13l6 40q3 15-10 21-30 11-64 17l16 118q1 10-1 13t-11 3h-27q-14 0-15-12l-16-116q-4 1-17 1-109 0-147-71-30-59-30-150 0-84 23-142 30-64 111-76zm-12 339q0 69 17 98t59 30l-35-255q-41 18-41 127z"/><glyph glyph-name="uniE034" unicode="" d="M255 339q-2 6-37 90l-40 98q-1 1-3 6t-2.5 6.5-2 5.5-2.5 5-3 4-4 4-4.5 3-5.5 2.5-6.5 1-7.5.5H61q-9 0-13-6.5t0-13.5l136-263h-82q-16 0-16-15v-29q0-13 15-13h99l1-42h-99q-17 0-17-15v-30q1-13 15-13h102V19q0-19 20-19h67q20 0 20 20v105h104q15 0 15 14v30q0 14-14 14H309l1 42h103q15 0 15 13v30q0 14-14 14h-86l134 259q6 9 3 16.5t-14 7.5h-71q-6 0-11-1t-8.5-4.5-5-5.5-5-8-4.5-8l-2-6q-50-108-85-193h-4z"/><glyph glyph-name="uniE048" unicode="" d="M249-9q154 4 194 128 22 59 22 135 0 247-216 247-147-3-191-130-20-56-20-117Q38-9 249-9zm0 417q54 0 77.5-39T350 247q0-159-101-159-95 0-95 159 0 75 24.5 118t70.5 43z"/><glyph glyph-name="uniE049" unicode="" horiz-adv-x="397" d="M379 81q0 17-18 17H257v372q0 20-21 20h-58q-26 0-54-12l-71-32q-15-8-15-25v-35q0-9 4-12t15-3h87V98H47q-17 0-17-18V17Q30 0 47 0h314q18 0 18 17v64z"/><glyph glyph-name="uniE04A" unicode="" horiz-adv-x="469" d="M344 200q82 51 82 135 0 85-47.5 125.5T222 501q-96 0-168-26-19-8-24.5-15.5T26 440l7-38q2-12 9-16t25-1q84 13 146 13 53 0 73.5-15t21.5-51q1-39-57-79L39 114q-20-14-20-34V18Q19 0 41 0h375q21 0 21 18v63q0 18-22 18H198l-1 5z"/><glyph glyph-name="uniE04B" unicode="" horiz-adv-x="453" d="M192-141q115 0 173 52 60 51 60 182 0 79-39 111-36 32-121 49 0 1-.5 2t-.5 2l119 119q19 19 19 45v49q0 21-25 21H43q-22 0-22-21v-60q0-11 4.5-15.5T43 390h201v-3l1-3-118-119q-13-12-13-32v-32q0-25 29-30l105-19q59-11 59-67 0-71-28.5-97T190-38q-44 0-138 12-18 3-24-.5T19-42l-7-38q-4-22 23-35 26-13 75-19 46-7 82-7z"/><glyph glyph-name="uniE04C" unicode="" horiz-adv-x="481" d="M469 80q0 11-5 15t-18 4h-53v374q0 18-23 18h-61q-26 0-36-16L16 108Q2 88 2 55V20Q2 0 29 0h251v-118q0-19 23-19h66q24 0 24 20V0h53q23 0 23 18v62zM281 98H124l154 222q2 0 3-1V98z"/><glyph glyph-name="uniE04D" unicode="" horiz-adv-x="471" d="M320 85q0-69-27-96t-84-27q-45 0-139 12-17 3-23.5-.5T38-42l-7-38q-10-40 98-55 46-7 81-7 116 0 172 54.5T438 94q0 64-34 104t-94 51l-148 25q0 1 1 7t3 21l4 30 10 59h209q21 0 21 20v62q0 18-20 18H111q-28 0-33-26L45 231q-5-38 32-45l180-33q63-12 63-68z"/><glyph glyph-name="uniE04E" unicode="" d="M476 183q0 104-42 154t-130 50q-60 0-143-10 3 76 29.5 113.5T276 528q57 0 132-13 26-4 31 16l7 41q5 22-20 32-58 27-152 27-170-5-210-156-21-71-21-184 0-61 3-99t15-81 34-65Q149-8 257-8q96 0 157 46 62 47 62 145zm-115 0q0-93-100-93-70 0-88 42-17 36-15 146 85 8 126 8 43 0 60-23.5t17-79.5z"/><glyph glyph-name="uniE04F" unicode="" horiz-adv-x="443" d="M408 378q14 31 14 48v43q0 22-24 22H25q-22 0-22-21v-60q0-20 21-20h265L73-89q-7-20 11-28l62-28q22-9 33 12z"/></font>
</defs>
</svg>
