<?xml version="1.0" standalone="no"?>
<!DOCTYPE svg PUBLIC "-//W3C//DTD SVG 1.1//EN" "http://www.w3.org/Graphics/SVG/1.1/DTD/svg11.dtd" >
<svg xmlns="http://www.w3.org/2000/svg" xmlns:xlink="http://www.w3.org/1999/xlink" version="1.1">
<metadata>
Created by FontForge 20170731 at Tue Apr 14 11:31:36 2020
 By Aleksey,,,
 
</metadata>
<defs>
<font id="OCSMRegular" horiz-adv-x="484" >
  <font-face 
    font-family="OCSM"
    font-weight="500"
    font-stretch="normal"
    units-per-em="1000"
    panose-1="0 0 0 0 0 0 0 0 0 0"
    ascent="800"
    descent="-200"
    x-height="487"
    cap-height="663"
    bbox="-143.923 -265.882 1015 891.84"
    underline-thickness="50"
    underline-position="-200"
    unicode-range="U+0020-FB05"
  />
<missing-glyph horiz-adv-x="457" 
d="M20 675h417v-675h-417v675zM68 48h320v579h-320v-579z" />
    <glyph glyph-name=".notdef" horiz-adv-x="457" 
d="M20 675h417v-675h-417v675zM68 48h320v579h-320v-579z" />
    <glyph glyph-name=".notdef" horiz-adv-x="457" 
d="M20 675h417v-675h-417v675zM68 48h320v579h-320v-579z" />
    <glyph glyph-name=".null" horiz-adv-x="0" 
 />
    <glyph glyph-name="nonmarkingreturn" horiz-adv-x="333" 
 />
    <glyph glyph-name="space" unicode=" " horiz-adv-x="240" 
 />
    <glyph glyph-name="exclam" unicode="!" horiz-adv-x="195" 
d="M135 646q0 17 -14 17h-44q-16 0 -16 -17l10 -464q0 -16 14 -16h26q12 0 12 16zM96 -11q25 0 35 11.5t10 36.5q0 24 -9.5 34.5t-35.5 10.5q-44 0 -44 -45q0 -25 9 -36.5t35 -11.5z" />
    <glyph glyph-name="quotedbl" unicode="&#x22;" horiz-adv-x="246" 
d="M199 652q0 11 -10 11h-43q-12 0 -12 -11l10 -169q0 -9 9 -9h26q9 0 11 9zM112 652q0 11 -11 11h-42q-12 0 -12 -11l10 -169q0 -9 8 -9h26q11 0 11 9z" />
    <glyph glyph-name="numbersign" unicode="#" 
d="M217 15q-3 -15 11 -15h34q8 0 11 12l55 225h119q11 0 14 10l1 28q0 13 -13 13h-109l29 117h113q14 0 14 11l1 26q0 13 -13 13h-103l48 194q3 13 -11 13h-33q-11 0 -14 -13l-47 -194h-87l47 192q3 15 -10 15h-32q-12 0 -15 -13l-47 -194h-111q-15 0 -16 -10l-1 -30
q0 -5 2 -7.5t4 -2.5h8h102l-28 -117h-110q-16 0 -16 -12l-1 -29q0 -10 12 -10h102l-53 -222q-3 -15 10 -15h35q8 0 11 12l54 225h87zM312 405l-29 -117h-86l28 117h87z" />
    <glyph glyph-name="dollar" unicode="$" 
d="M219 -83q0 -7 10 -7h35q9 0 9 8v83q153 16 158 181q2 98 -44 136q-38 34 -114 53v216q63 -6 115 -14q16 -1 20 13l6 27q3 14 -14 22q-48 20 -127 26v81q0 9 -9 9h-36q-9 0 -9 -8v-82q-75 -7 -117 -52.5t-44 -124.5q-1 -83 44 -123q42 -33 117 -51v-236q-60 3 -150 19
q-14 2 -17 -11l-5 -27q-5 -17 9 -22q62 -26 163 -33v-83zM353 172q-1 -84 -80 -96v221q46 -14 63.5 -41.5t16.5 -83.5zM136 485q5 89 83 102v-203q-46 13 -65 35t-18 66z" />
    <glyph glyph-name="percent" unicode="%" horiz-adv-x="688" 
d="M300 459q0 71 -13 114q-7 28 -23 49q-36 45 -108 45q-138 0 -138 -208q0 -45 1 -60q2 -31 8 -58q7 -32 22 -54q35 -50 107 -50q97 0 124 81q20 61 20 141zM237 452q0 -81 -17.5 -118t-63.5 -37q-49 0 -62 44q-12 41 -12 111q0 80 16 118.5t58 38.5q48 0 64.5 -35.5
t16.5 -121.5zM669 215q0 71 -13 114q-7 28 -23 49q-36 45 -108 45q-138 0 -138 -208q0 -45 1 -60q2 -31 8 -58q7 -32 22 -54q35 -50 107 -50q97 0 124 81q20 61 20 141zM606 208q0 -81 -17.5 -118t-63.5 -37q-49 0 -62 44q-12 41 -12 111q0 80 16 118.5t58 38.5
q48 0 64.5 -35.5t16.5 -121.5zM494 684q4 16 -9 16h-28q-13 0 -18 -14l-240 -693q-4 -16 12 -16h28q13 0 17 13z" />
    <glyph glyph-name="ampersand" unicode="&#x26;" horiz-adv-x="601" 
d="M586 -12q6 10 -6 19q-69 44 -120 97q41 47 79 130q37 81 37 151q0 21 -17 21h-24q-10 0 -13 -2.5t-5 -11.5q-27 -148 -100 -234q-87 99 -152 216q60 44 88.5 83t28.5 87q0 56 -35.5 92.5t-91.5 36.5q-59 0 -94.5 -41t-35.5 -105q0 -57 44 -130q-142 -94 -142 -224
q0 -90 52.5 -137t141.5 -47q100 0 189 70q60 -65 134 -105q18 -11 26 5zM312 540q0 -55 -79 -106q-34 56 -34 98q0 30 15 53t40 23q24 0 41 -19.5t17 -48.5zM217 53q-56 1 -87.5 31t-31.5 91q0 96 104 164q83 -145 162 -230q-74 -56 -147 -56z" />
    <glyph glyph-name="quotesingle" unicode="'" horiz-adv-x="178" 
d="M121 652q0 11 -11 11h-42q-12 0 -12 -11l10 -169q0 -9 8 -9h26q11 0 11 9z" />
    <glyph glyph-name="parenleft" unicode="(" horiz-adv-x="251" 
d="M211 -82q-88 160 -88 393q0 109 27 207q28 102 61 158q4 9 -6 16l-19 12q-10 7 -18 -5q-119 -173 -119 -388q0 -251 119 -417q5 -10 19 -2l18 10q10 7 6 16z" />
    <glyph glyph-name="parenright" unicode=")" horiz-adv-x="253" 
d="M58 -82q-4 -9 6 -16l18 -10q14 -8 19 2q119 166 119 417q0 215 -119 388q-8 12 -18 5l-19 -12q-10 -7 -6 -16q33 -56 61 -158q27 -98 27 -207q0 -233 -88 -393z" />
    <glyph glyph-name="asterisk" unicode="*" horiz-adv-x="298" 
d="M153 663q-16 0 -16 -11l-3 -79l-60 34q-13 9 -22 -6l-8 -12q-7 -11 1 -16l64 -45l-62 -47q-8 -7 -4 -14l10 -16q8 -11 20 -4l61 35l3 -79q0 -7 2.5 -9t11.5 -2h16q11 0 13.5 2t2.5 9q0 9 1 40t1 40l59 -38q14 -7 21 6l8 14q5 10 -4 17l-61 45l65 48q4 4 0 11l-9 15
q-9 13 -20 7l-59 -36l-3 79q0 12 -16 12h-13z" />
    <glyph glyph-name="plus" unicode="+" 
d="M417 342q0 13 -15 13h-125v145q0 14 -12 14h-41q-13 0 -13 -14v-145h-130q-13 0 -13 -13v-35q0 -12 13 -12h130v-153q0 -14 13 -14h41q12 0 12 14v153h125q15 0 15 12v35z" />
    <glyph glyph-name="comma" unicode="," horiz-adv-x="170" 
d="M142 19q0 44 -26 67q-14 11 -25 1l-39 -34q-12 -7 -3 -21q22 -26 22 -68q0 -46 -30 -71q-11 -11 -3 -15l12 -11q7 -7 18 1q34 21 54 60.5t20 90.5z" />
    <glyph glyph-name="hyphen" unicode="-" horiz-adv-x="322" 
d="M295 338q0 13 -14 13h-242q-14 0 -14 -13v-31q0 -12 14 -12h242q14 0 14 12v31z" />
    <glyph glyph-name="period" unicode="." horiz-adv-x="162" 
d="M124 39q0 24 -10 35t-35 11q-44 0 -44 -46q0 -25 9 -36.5t35 -11.5q45 0 45 48z" />
    <glyph glyph-name="slash" unicode="/" horiz-adv-x="215" 
d="M218 678q3 15 -7 15h-33q-13 0 -16 -13l-156 -730q-3 -14 10 -14h33q11 0 14 12z" />
    <glyph glyph-name="zero" unicode="0" 
d="M243 -9q82 0 132 43q39 34 61 107q17 52 19 133q1 19 1 67q0 83 -7 132q-6 63 -37 115q-47 83 -169 83q-78 0 -133 -47q-38 -34 -59 -110q-6 -20 -11 -64q-2 -14 -5 -58v-51q0 -67 3 -110q2 -31 6 -54q10 -59 29 -94q56 -92 170 -92zM378 331q0 -123 -24 -189
q-26 -77 -111 -77q-93 0 -117 105q-12 64 -12 161q0 99 13 157q7 36 21 59q32 52 95 52q88 0 112 -73q23 -62 23 -195z" />
    <glyph glyph-name="one" unicode="1" 
d="M415 57q0 14 -15 14h-111v575q0 10 -3 13.5t-14 3.5h-42q-18 0 -39 -8l-77 -32q-11 -3 -11 -17v-24q0 -12 14 -12h95v-499h-103q-15 0 -15 -14v-44q0 -13 15 -13h291q15 0 15 13v44z" />
    <glyph glyph-name="two" unicode="2" 
d="M213 158l69 75q26 29 55 64q47 56 63 94q17 42 17 105q0 89 -45.5 131.5t-151.5 42.5q-100 0 -158 -26q-17 -8 -15 -23l6 -27q4 -15 22 -12q79 13 145 13q75 0 97 -25q22 -23 22 -87q0 -68 -61 -141l-227 -253q-11 -16 -11 -28v-46q0 -15 18 -15h356q15 0 15 14v43
q0 14 -18 14h-271l-1 6z" />
    <glyph glyph-name="three" unicode="3" 
d="M395 563q18 21 18 43v41q0 16 -20 16h-326q-17 0 -17 -14v-41q0 -16 18 -16h245l1 -3l-156 -169q-9 -9 -9 -27v-30q0 -17 18 -22l106 -20q83 -15 83 -92q0 -102 -45 -135q-37 -28 -97 -28q-49 0 -149 14q-18 3 -20 -12l-5 -29q-3 -14 12 -20q27 -11 79 -19q54 -8 81 -8
q110 0 168 53q57 52 57 190q0 130 -123 157l-63 14v2z" />
    <glyph glyph-name="four" unicode="4" 
d="M469 237q0 14 -14 14h-68v399q0 12 -13 12h-41q-18 0 -28 -13l-284 -388q-10 -13 -10 -28v-40q0 -13 15 -13h285l-1 -166q0 -14 14 -14h48q15 0 15 15v165h68q14 0 14 13v44zM105 251l1 2l203 280l2 -1v-281h-206z" />
    <glyph glyph-name="five" unicode="5" 
d="M435 235q0 135 -126 158l-172 30l22 169h230q18 0 18 15v42q0 13 -16 13h-278q-12 0 -15.5 -2.5t-4.5 -12.5l-35 -257q-3 -28 23 -33l191 -36q43 -9 63 -30t20 -62q0 -95 -36 -130q-35 -34 -99 -34q-34 0 -154 14q-19 2 -20 -13l-5 -26q-3 -15 11 -21q27 -11 79 -19
q54 -8 82 -8q112 0 167 56t55 187z" />
    <glyph glyph-name="six" unicode="6" 
d="M453 186q0 108 -40.5 159t-124.5 51q-56 0 -173 -14q4 96 31 150q30 64 112 64q56 0 135 -13q19 -3 22 12l6 26q5 17 -15 24q-66 25 -146 25q-88 -4 -137 -45t-69 -118q-20 -81 -20 -200v-61l3 -54q1 -27 5 -51q12 -58 28 -81q36 -41 63 -52q53 -17 109 -17
q98 0 154.5 48.5t56.5 146.5zM373 184q0 -121 -128 -121q-85 0 -114 57q-18 40 -18 187q95 13 164 13q54 0 75 -31.5t21 -104.5z" />
    <glyph glyph-name="seven" unicode="7" 
d="M425 565q12 24 12 46v36q0 16 -17 16h-374q-15 0 -15 -15v-43q0 -13 14 -13h306l-248 -567q-8 -14 7 -20l51 -14q13 -4 19 7z" />
    <glyph glyph-name="eight" unicode="8" 
d="M127 352q-102 -44 -102 -176q0 -185 213 -185q99 0 157 50.5t58 136.5q0 64 -28 109.5t-77 63.5q38 18 61.5 57t23.5 81q0 91 -50.5 137t-142.5 46q-94 0 -145 -48.5t-51 -140.5q0 -44 23 -79.5t60 -51.5zM352 490q0 -44 -27.5 -70.5t-86.5 -37.5q-56 13 -84.5 38.5
t-28.5 69.5q0 56 27 83.5t88 27.5q53 0 82.5 -27.5t29.5 -83.5zM371 176q0 -56 -40 -84q-41 -29 -93 -29q-131 0 -131 121q0 62 32 92.5t93 44.5q71 -20 105 -52.5t34 -92.5z" />
    <glyph glyph-name="nine" unicode="9" 
d="M32 475q0 -108 40.5 -159t124.5 -51q73 0 173 13q-4 -106 -36.5 -159.5t-106.5 -53.5q-43 0 -140 13q-17 2 -20 -13l-6 -27q-3 -14 13 -21q56 -25 151 -25q168 6 205 162q21 76 21 200q0 45 -2 89q-2 39 -7 74q-6 42 -20 65q-48 93 -178 88q-99 0 -155.5 -48.5
t-56.5 -146.5zM112 476q0 122 129 122q85 0 112 -58q18 -40 19 -186q-112 -14 -163 -14q-55 0 -76 32t-21 104z" />
    <glyph glyph-name="colon" unicode=":" horiz-adv-x="170" 
d="M129 39q0 24 -10 35t-35 11q-44 0 -44 -46q0 -25 9 -36.5t35 -11.5q45 0 45 48zM129 397q0 24 -10 35t-35 11q-44 0 -44 -46q0 -25 9 -36.5t35 -11.5q45 0 45 48z" />
    <glyph glyph-name="semicolon" unicode=";" horiz-adv-x="170" 
d="M138 19q0 44 -26 67q-14 11 -25 1l-39 -34q-12 -7 -3 -21q22 -26 22 -68q0 -46 -30 -71q-11 -11 -3 -15l12 -11q7 -7 18 1q34 21 54 60.5t20 90.5zM136 397q0 24 -10 35t-35 11q-44 0 -44 -46q0 -25 9 -36.5t35 -11.5q45 0 45 48z" />
    <glyph glyph-name="less" unicode="&#x3c;" 
d="M417 151q0 14 -12 20l-251 153v3l250 154q12 7 12 17v49q0 15 -12 8l-325 -198q-10 -6 -10 -17v-31q0 -13 11 -18l326 -199q11 -8 11 7v52z" />
    <glyph glyph-name="equal" unicode="=" 
d="M416 423q0 13 -14 13h-320q-14 0 -14 -13v-36q0 -12 14 -12h320q14 0 14 12v36zM416 263q0 13 -14 13h-320q-14 0 -14 -13v-36q0 -12 14 -12h320q14 0 14 12v36z" />
    <glyph glyph-name="greater" unicode="&#x3e;" 
d="M69 99q0 -15 11 -7l326 199q11 5 11 18v31q0 11 -10 17l-325 198q-12 7 -12 -8v-49q0 -10 12 -17l250 -154v-3l-251 -153q-12 -6 -12 -20v-52z" />
    <glyph glyph-name="question" unicode="?" horiz-adv-x="306" 
d="M297 519q0 154 -162 154q-69 0 -111 -19q-18 -8 -15 -23l5 -26q4 -14 20 -13q55 7 94 7q51 0 73.5 -20t22.5 -65q-3 -25 -11 -37.5t-31 -33.5q-58 -54 -83 -95.5t-25 -98.5q0 -43 3 -68q1 -15 20 -15h33q15 0 15 17q-1 17 -1 56q0 48 19 80.5t63 69.5q18 15 25.5 22.5
t16.5 20t17 29.5q12 27 12 58zM162 40q0 24 -10 35.5t-35 11.5q-45 0 -45 -47q0 -26 9.5 -37.5t35.5 -11.5q45 0 45 49z" />
    <glyph glyph-name="at" unicode="@" horiz-adv-x="707" 
d="M373 684q-139 0 -238 -101t-99 -250q0 -155 91 -253q92 -98 230 -98q67 0 120 24q15 6 10 20l-7 20q-3 10 -17 5q-48 -16 -101 -16q-116 0 -193 83q-76 83 -76 216q0 126 82 211q83 87 198 87q113 0 179 -78q67 -77 67 -205q0 -69 -25 -111.5t-64 -42.5q-54 0 -54 56v149
q0 68 -22 97q-22 31 -95 31q-65 0 -108 -15q-9 -4 -8 -14l4 -22q1 -7 15 -6q39 6 88 6q37 0 51.5 -15t14.5 -53v-24h-78q-62 0 -91.5 -30t-29.5 -93q0 -51 21.5 -75t68.5 -24q54 0 117 39q26 -59 104 -59q60 0 103 54q45 55 45 151q0 149 -81 242q-81 94 -222 94zM277 265
q0 38 13.5 54t42.5 16h84v-81l2 1q-64 -40 -101 -40q-23 0 -32 11t-9 39z" />
    <glyph glyph-name="A" unicode="A" horiz-adv-x="477" 
d="M384 13q4 -13 17 -13h61q13 0 8 14l-179 633q-5 15 -19 15h-56q-14 0 -19 -15l-182 -631q-6 -16 8 -16h52q17 0 21 16l42 162h204zM244 568q6 -28 32 -132l49 -189h-169l52 192q10 36 33 129h3z" />
    <glyph glyph-name="B" unicode="B" horiz-adv-x="485" 
d="M455 182q0 53 -25 100q-24 49 -79 65l-1 1q43 20 64 59.5t21 84.5q0 79 -50.5 124.5t-143.5 45.5h-165q-18 0 -18 -16v-629q0 -17 21 -17h195q75 0 128 50q53 51 53 132zM353 486q0 -45 -31.5 -76t-75.5 -31h-111v213h96q59 0 90.5 -28.5t31.5 -77.5zM373 189
q0 -118 -124 -118h-114v238h114q59 0 91.5 -33.5t32.5 -86.5z" />
    <glyph glyph-name="C" unicode="C" horiz-adv-x="468" 
d="M278 594q62 0 147 -11q15 -1 19 11l6 28q3 15 -13 22q-63 25 -159 25q-137 0 -186 -108q-41 -91 -41 -237q0 -142 42 -230q49 -102 181 -102q98 0 164 27q14 5 11 22l-5 26q-4 13 -20 12q-93 -11 -146 -11q-88 0 -119 79q-25 68 -25 177q0 97 13 157q9 37 24 60
q34 53 107 53z" />
    <glyph glyph-name="D" unicode="D" horiz-adv-x="537" 
d="M486 333q0 147 -48 232q-55 97 -209 97h-151q-18 0 -18 -16v-629q0 -17 21 -17h147q156 0 210 98q48 87 48 235zM405 325q0 -161 -59 -211q-49 -42 -124 -42h-84v519h92q78 0 122 -49q53 -55 53 -217z" />
    <glyph glyph-name="E" unicode="E" horiz-adv-x="439" 
d="M409 54q0 17 -16 17h-258v244h219q17 0 17 16v38q0 16 -17 16h-219v206h245q18 0 18 17v39q0 16 -17 16h-306q-18 0 -18 -17v-630q0 -16 18 -16h317q17 0 17 16v38z" />
    <glyph glyph-name="F" unicode="F" horiz-adv-x="417" 
d="M61 17q0 -17 18 -17h43q17 0 17 17v291h212q18 0 18 17v39q0 16 -17 16h-214v211h246q18 0 18 17v39q0 16 -17 16h-305q-19 0 -19 -16v-630z" />
    <glyph glyph-name="G" unicode="G" horiz-adv-x="525" 
d="M279 670q-136 0 -186 -108q-42 -93 -42 -237q0 -165 57.5 -249t180.5 -84q81 0 153 25q28 10 28 36v285q0 7 -6 12.5t-17 5.5h-133q-20 0 -20 -17v-39q0 -11 4 -14.5t17 -3.5h73v-202q-34 -15 -104 -15q-88 0 -121 80q-27 70 -27 179q0 120 24 189q29 83 119 83
q54 0 146 -13q8 -1 12.5 1t6 4.5t2.5 8.5l6 28q3 13 -16 20q-28 11 -78 18q-46 7 -79 7z" />
    <glyph glyph-name="H" unicode="H" horiz-adv-x="518" 
d="M460 645q0 18 -16 18h-43q-18 0 -18 -18v-258h-248v258q0 18 -16 18h-43q-18 0 -18 -18v-628q0 -17 18 -17h43q16 0 16 17v298h248v-298q0 -17 18 -17h43q16 0 16 17v628z" />
    <glyph glyph-name="I" unicode="I" horiz-adv-x="221" 
d="M150 645q0 18 -17 18h-44q-18 0 -18 -18v-628q0 -17 18 -17h44q17 0 17 17v628z" />
    <glyph glyph-name="J" unicode="J" horiz-adv-x="364" 
d="M300 645q0 18 -18 18h-43q-18 0 -18 -18v-478q0 -53 -21 -77t-69 -24q-35 0 -100 9q-15 3 -18 -10l-7 -29q-4 -15 15 -24q52 -21 118 -21q161 0 161 169v485z" />
    <glyph glyph-name="K" unicode="K" horiz-adv-x="478" 
d="M462 649q4 5 2 9.5t-9 4.5h-61q-15 0 -23 -11l-135 -194q-70 -100 -102 -151l-2 1v337q0 18 -16 18h-43q-18 0 -18 -18v-628q0 -17 18 -17h43q16 0 16 17v167l90 127l152 -297q8 -14 23 -14h61q7 0 9 4.5t-1 9.5l-194 367z" />
    <glyph glyph-name="L" unicode="L" horiz-adv-x="421" 
d="M413 54q0 10 -3.5 13.5t-13.5 3.5h-260v574q0 18 -16 18h-44q-17 0 -17 -18v-629q0 -16 18 -16h320q16 0 16 16v38z" />
    <glyph glyph-name="M" unicode="M" horiz-adv-x="643" 
d="M584 648q0 15 -15 15h-40q-16 0 -25 -16l-123 -293q-44 -107 -57 -146h-3l-59 148l-124 292q-8 15 -22 15h-44q-15 0 -15 -15v-631q0 -17 17 -17h42q16 0 16 17v454h2q36 -92 59 -143l94 -213q6 -12 21 -12h29q14 0 20 13l85 201q42 99 61 154h3v-454q0 -17 18 -17h43
q17 0 17 17v631z" />
    <glyph glyph-name="N" unicode="N" horiz-adv-x="547" 
d="M410 16q10 -16 26 -16h38q16 0 16 16v629q0 18 -16 18h-42q-17 0 -17 -18v-490h-3q-32 65 -77 147l-195 345q-10 16 -25 16h-41q-16 0 -16 -15v-631q0 -17 18 -17h41q17 0 17 17v494h3q18 -41 81 -154z" />
    <glyph glyph-name="O" unicode="O" horiz-adv-x="555" 
d="M506 341q0 117 -22 188q-14 48 -38 75q-55 67 -170 67q-114 0 -171 -76q-24 -34 -37 -79q-20 -75 -20 -175q0 -93 11 -166q8 -46 22 -74q54 -115 194 -110q147 6 196 110q25 48 32 154q3 36 3 86zM426 331q0 -139 -34.5 -203.5t-116.5 -64.5q-80 0 -112.5 65t-32.5 203
q0 136 34 203t111 67q82 0 116.5 -64.5t34.5 -205.5z" />
    <glyph glyph-name="P" unicode="P" horiz-adv-x="448" 
d="M429 470q0 92 -53.5 142.5t-145.5 50.5h-155q-18 0 -18 -16v-630q0 -17 18 -17h43q17 0 17 17v252h96q115 0 159 67q39 57 39 134zM352 469q0 -63 -28 -97t-94 -34h-95v254h89q128 0 128 -123z" />
    <glyph glyph-name="Q" unicode="Q" horiz-adv-x="558" 
d="M524 -29q6 14 -11 20l-110 35q104 72 104 315q0 114 -22 185q-13 45 -38 76q-55 69 -171 69q-227 0 -227 -330q0 -86 7 -138q10 -71 40 -124q52 -88 180 -88q14 0 19 1l182 -75q21 -8 30 13zM427 331q0 -135 -36 -201.5t-115 -66.5q-78 0 -112 67t-34 201q0 136 34.5 203
t111.5 67q82 0 116.5 -64.5t34.5 -205.5z" />
    <glyph glyph-name="R" unicode="R" horiz-adv-x="458" 
d="M70 663q-17 0 -17 -16v-630q0 -17 17 -17h43q17 0 17 18v261h101l115 -266q6 -13 22 -13h57q10 0 10 10q0 6 -1 7l-124 273q57 18 85.5 68t28.5 117q0 92 -51 140t-135 48h-168zM219 591q61 0 92.5 -28t31.5 -92q0 -69 -31.5 -96t-94.5 -27h-87v243h89z" />
    <glyph glyph-name="S" unicode="S" horiz-adv-x="458" 
d="M427 184q0 118 -79 158q-40 23 -108 36t-95 32q-24 20 -24 74q0 56 26.5 84t86.5 28q48 0 143 -13q22 -2 24 13l5 24q5 15 -14 23q-58 26 -158 26q-93 0 -143 -48.5t-50 -139.5q0 -94 58 -130q51 -32 134 -48q67 -13 91 -39q24 -25 24 -92q0 -50 -32.5 -77.5t-93.5 -27.5
q-36 0 -153 14q-19 3 -22 -11l-6 -28q-5 -15 14 -23q59 -28 168 -28q95 0 149.5 47.5t54.5 145.5z" />
    <glyph glyph-name="T" unicode="T" horiz-adv-x="418" 
d="M410 647q0 16 -17 16h-367q-17 0 -17 -16v-39q0 -17 18 -17h143v-574q0 -17 18 -17h43q16 0 16 17v574h145q18 0 18 17v39z" />
    <glyph glyph-name="U" unicode="U" horiz-adv-x="528" 
d="M264 66q-71 0 -101 40t-30 131v407q0 19 -21 19h-36q-21 0 -21 -19v-418q0 -233 209 -233q59 0 101.5 18.5t65.5 52.5t33.5 74t10.5 89v417q0 19 -20 19h-36q-21 0 -21 -19v-407q0 -88 -32.5 -129.5t-101.5 -41.5z" />
    <glyph glyph-name="V" unicode="V" horiz-adv-x="485" 
d="M101 648q-5 14 -19 14h-51q-13 0 -9 -15l181 -634q4 -13 19 -13h52q15 0 20 14l180 632q4 16 -8 16h-50q-15 0 -20 -14l-88 -321l-30 -116q-17 -65 -27 -106h-3q-19 91 -40 162q-12 44 -18 62z" />
    <glyph glyph-name="W" unicode="W" horiz-adv-x="709" 
d="M358 389q14 -78 46 -204l43 -171q3 -14 20 -14h52q15 0 19 15l156 630q4 18 -8 18h-50q-14 0 -19 -14l-73 -317q-36 -159 -48 -229h-3q-19 100 -49 220l-79 326q-5 14 -19 14h-52q-13 0 -9 -16l31 -118l-46 -202q-31 -134 -43 -204h-2q-19 98 -49 207l-83 319
q-5 14 -18 14h-52q-13 0 -10 -15l166 -634q5 -14 17 -14h55q13 0 18 14l43 176q27 107 42 199h4z" />
    <glyph glyph-name="X" unicode="X" horiz-adv-x="454" 
d="M363 14q8 -14 22 -14h57q16 0 8 14l-176 331l161 302q3 5 0.5 10.5t-9.5 4.5h-54q-16 0 -23 -13l-115 -231l-115 232q-7 13 -21 13h-58q-7 0 -9 -5t2 -11l160 -302l-175 -330q-8 -15 7 -15h57q15 0 23 14l129 257z" />
    <glyph glyph-name="Y" unicode="Y" horiz-adv-x="441" 
d="M199 422q-23 57 -26 63l-75 165q-6 12 -19 12h-59q-14 0 -8 -13l173 -353v-279q0 -17 18 -17h42q16 0 16 17v279l173 351q8 15 -9 15h-52q-13 0 -21 -12l-76 -162q-41 -88 -50 -116h-6z" />
    <glyph glyph-name="Z" unicode="Z" horiz-adv-x="425" 
d="M401 55q0 16 -17 16h-269l275 512q8 14 8 26v40q0 14 -16 14h-323q-16 0 -16 -16v-39q0 -17 17 -17h249l-278 -510q-8 -14 -8 -30v-35q0 -16 16 -16h346q16 0 16 17v38z" />
    <glyph glyph-name="bracketleft" unicode="[" horiz-adv-x="220" 
d="M182 -49q0 13 -15 13h-63v667h62q16 0 16 14v37q0 13 -14 13h-119q-17 0 -17 -15v-764q0 -16 18 -16h117q15 0 15 14v37z" />
    <glyph glyph-name="backslash" unicode="\" horiz-adv-x="215" 
d="M161 -52q3 -12 14 -12h33q13 0 10 14l-156 730q-3 13 -16 13h-33q-10 0 -7 -15z" />
    <glyph glyph-name="bracketright" unicode="]" horiz-adv-x="219" 
d="M42 -86q0 -14 15 -14h117q18 0 18 16v764q0 15 -17 15h-119q-14 0 -14 -13v-37q0 -14 16 -14h62v-667h-63q-15 0 -15 -13v-37z" />
    <glyph glyph-name="asciicircum" unicode="^" horiz-adv-x="426" 
d="M416 389q5 5 -1 15l-143 246q-8 12 -28 12h-42q-18 0 -26 -12l-152 -241q-7 -10 0 -16l18 -14q10 -7 19 1l162 220l158 -225q6 -7 16 0z" />
    <glyph glyph-name="underscore" unicode="_" horiz-adv-x="435" 
d="M443 -96q0 14 -15 14h-425q-14 0 -14 -14v-24q0 -11 14 -11h426q14 0 14 12v23z" />
    <glyph glyph-name="grave" unicode="`" horiz-adv-x="433" 
d="M216 710q-4 9 -17 3l-46 -20q-11 -5 -3 -15l81 -135q5 -7 15 -3l29 13q8 3 3 14z" />
    <glyph glyph-name="a" unicode="a" horiz-adv-x="449" 
d="M314 119q-83 -56 -142 -56q-35 0 -48.5 15t-13.5 55q0 100 89 100h115v-114zM156 -8q76 0 158 57l2 -1q3 -28 18.5 -40t48.5 -12q15 0 33 3q20 3 20 19v25q0 11 -17 13q-21 2 -25 7.5t-4 29.5v6v214q0 91 -33 138q-31 46 -131 46q-85 0 -143 -20q-19 -7 -16 -22l6 -28
q3 -12 20 -9q77 9 120 9q53 0 77 -23.5t24 -77.5v-28h-111q-89 0 -129.5 -40.5t-40.5 -127.5q0 -70 29.5 -104t93.5 -34z" />
    <glyph glyph-name="b" unicode="b" horiz-adv-x="443" 
d="M118 686q0 19 -18 19h-42q-17 0 -17 -19v-630q0 -32 24 -41q61 -24 158 -24q99 0 143 64t44 195q0 132 -37 188q-37 58 -137 58q-56 0 -116 -26l-2 2v214zM118 405q63 22 120 22q52 0 72 -39q21 -39 21 -142t-29 -143q-28 -39 -81 -39q-49 0 -103 10v331z" />
    <glyph glyph-name="c" unicode="c" horiz-adv-x="370" 
d="M210 -8q90 0 141 23q14 8 11 21l-4 21q-1 16 -22 13q-63 -10 -123 -10q-55 0 -77 40q-21 40 -21 148q0 102 21 141t77 39q25 0 115 -9q25 -2 26 11l4 23q3 17 -10 21q-60 23 -138 23q-109 0 -146 -80q-30 -68 -30 -173q0 -93 18 -149q10 -32 29 -56q42 -47 129 -47z" />
    <glyph glyph-name="d" unicode="d" horiz-adv-x="444" 
d="M321 474q-54 22 -114 22q-96 0 -135 -62t-39 -198q0 -128 33 -185.5t113 -57.5q66 0 142 50l3 -2v-24q0 -17 17 -17h41q17 0 17 17v669q0 11 -3.5 15t-13.5 4h-40q-18 0 -18 -19v-209zM111 236q0 106 21.5 149t74.5 43q57 0 116 -18v-303q-25 -16 -65 -29
q-42 -14 -69 -14q-41 0 -59.5 33.5t-18.5 138.5z" />
    <glyph glyph-name="e" unicode="e" horiz-adv-x="420" 
d="M215 430q64 0 83 -46q19 -38 20 -102h-204q2 77 26 112.5t75 35.5zM218 -9q78 0 143 27q14 6 11 20l-4 22q-4 16 -23 13q-74 -10 -122 -10q-58 0 -83 35t-26 121h239q45 0 43 57q-2 92 -33 150q-38 71 -146 71q-134 -5 -166 -124q-16 -52 -16 -130q0 -92 17 -145
q12 -35 31 -57q43 -50 135 -50z" />
    <glyph glyph-name="f" unicode="f" horiz-adv-x="315" 
d="M230 705q-79 0 -113.5 -40t-34.5 -121v-57h-40q-17 0 -17 -18v-28q0 -17 17 -17h39v-407q0 -17 18 -17h41q16 0 16 17v407h106q17 0 17 17v29q0 17 -17 17h-106v54q0 51 18.5 72.5t60.5 21.5q34 0 79 -7q20 -3 22 11l4 25q2 17 -10 21q-46 20 -100 20z" />
    <glyph glyph-name="g" unicode="g" horiz-adv-x="445" 
d="M234 -184q111 0 144 52q28 44 28 131v433q0 33 -26 41q-69 24 -157 24q-99 0 -142.5 -62.5t-43.5 -193.5q0 -126 36 -188t138 -62q53 0 118 27v-36q0 -54 -22 -75.5t-78 -21.5q-61 0 -125 9q-20 3 -22 -11l-4 -23q-3 -15 11 -21q55 -23 145 -23zM116 250q0 105 28 139
q29 35 83 35q38 0 101 -10v-331q-63 -22 -119 -22q-51 0 -72 42t-21 147z" />
    <glyph glyph-name="h" unicode="h" horiz-adv-x="445" 
d="M117 688q0 17 -18 17h-41q-16 0 -16 -17v-671q0 -17 16 -17h41q18 0 18 17v362q89 47 138 47q38 0 52.5 -22.5t14.5 -86.5l-1 -300q0 -17 17 -17h42q18 0 18 17v296q0 86 -21 130q-24 53 -112 53q-67 0 -143 -52l-5 2v242z" />
    <glyph glyph-name="i" unicode="i" horiz-adv-x="194" 
d="M55 617q0 -45 42 -45q25 0 34 11q9 12 9 34t-9 32q-9 11 -34 11q-42 0 -42 -43zM135 470q0 17 -16 17h-41q-18 0 -18 -17v-453q0 -17 18 -17h41q16 0 16 17v453z" />
    <glyph glyph-name="j" unicode="j" horiz-adv-x="209" 
d="M148 470q0 17 -18 17h-40q-18 0 -18 -17v-506q0 -58 -20 -76t-85 -32q-15 -3 -14 -19l2 -23q2 -17 20 -17q114 -5 145 49q28 43 28 120v504zM67 617q0 -45 42 -45q25 0 33 11q9 12 9 34t-9 32q-8 11 -33 11q-42 0 -42 -43z" />
    <glyph glyph-name="k" unicode="k" horiz-adv-x="388" 
d="M299 14q8 -14 23 -14h51q7 0 10.5 6t-0.5 12l-149 270l129 181q5 7 2 13t-11 6h-52q-12 0 -22 -13l-92 -134l-61 -92l-2 1v438q0 17 -18 17h-41q-17 0 -17 -17v-671q0 -17 17 -17h41q18 0 18 17v118l63 89z" />
    <glyph glyph-name="l" unicode="l" horiz-adv-x="206" 
d="M133 -5q24 0 51 11q12 5 10 17l-4 31q-2 11 -19 11q-24 0 -31.5 6.5t-7.5 29.5v584q0 18 -21 18h-34q-20 0 -20 -18v-607q0 -43 17 -63t59 -20z" />
    <glyph glyph-name="m" unicode="m" horiz-adv-x="705" 
d="M121 470q0 17 -18 17h-41q-16 0 -16 -17v-453q0 -17 16 -17h41q18 0 18 17v362q43 23 44 23q13 8 39 15q25 9 46 9q34 0 48.5 -21.5t14.5 -79.5l-1 -308q0 -17 17 -17h42q18 0 18 17v296q0 9 -2 59q16 10 45 26q11 6 40 18q24 10 46 10q34 0 48.5 -21.5t14.5 -79.5
l-1 -308q0 -17 17 -17h42q18 0 18 17v296q0 74 -12 110q-7 25 -21 39q-29 34 -96 34q-66 0 -155 -62q-26 62 -113 62q-58 0 -134 -52l-5 2v24z" />
    <glyph glyph-name="n" unicode="n" horiz-adv-x="436" 
d="M115 470q0 17 -18 17h-41q-16 0 -16 -17v-453q0 -17 16 -17h41q18 0 18 17v362q89 47 138 47q38 0 52.5 -22.5t14.5 -86.5l-1 -300q0 -17 17 -17h42q18 0 18 17v296q0 86 -21 130q-24 53 -112 53q-67 0 -143 -52l-5 2v24z" />
    <glyph glyph-name="o" unicode="o" horiz-adv-x="439" 
d="M402 252q0 83 -17 136q-10 33 -31 57q-45 52 -138 52q-181 0 -181 -245q0 -84 15 -143q11 -39 28 -62q44 -55 138 -55q75 3 115.5 32t54.5 85q16 54 16 143zM325 245q0 -102 -23.5 -144t-85.5 -42q-59 0 -81.5 42.5t-22.5 143.5q0 100 22.5 142.5t81.5 42.5
q62 0 85.5 -42t23.5 -143z" />
    <glyph glyph-name="p" unicode="p" horiz-adv-x="436" 
d="M124 13q54 -22 113 -22q96 0 135 60.5t39 196.5q0 129 -33.5 187.5t-112.5 58.5q-66 0 -142 -50l-3 2v24q0 17 -17 17h-41q-17 0 -17 -17v-627q0 -11 3.5 -15t13.5 -4h41q18 0 18 19v167zM333 251q0 -106 -21.5 -149t-74.5 -43q-57 0 -116 18v303q25 16 65 29
q42 14 69 14q41 0 59.5 -33.5t18.5 -138.5z" />
    <glyph glyph-name="q" unicode="q" horiz-adv-x="445" 
d="M329 -157q0 -19 18 -19h42q17 0 17 19v589q0 32 -24 41q-61 24 -158 24q-99 0 -143 -64t-44 -195t37 -189q38 -57 137 -57q56 0 116 26l2 -2v-173zM329 83q-63 -22 -120 -22q-52 0 -73 39q-20 40 -20 142q0 103 29 143q29 39 81 39q49 0 103 -10v-331z" />
    <glyph glyph-name="r" unicode="r" horiz-adv-x="285" 
d="M287 480q-1 16 -17 12q-72 -17 -127 -62l-2 2v38q0 17 -18 17h-42q-16 0 -16 -17v-453q0 -17 16 -17h43q17 0 17 17v353q47 24 136 47q14 5 13 20z" />
    <glyph glyph-name="s" unicode="s" horiz-adv-x="379" 
d="M352 140q0 79 -49 110q-39 25 -102 38q-53 9 -69.5 21.5t-16.5 46.5q0 39 17 55t62 16q29 0 114 -8q25 -3 26 10l4 26q1 13 -10 19q-52 23 -133 23q-75 0 -116.5 -37t-41.5 -106q0 -71 50 -102q41 -25 106 -37q47 -7 64 -24q16 -16 16 -59q0 -37 -20.5 -54t-64.5 -17
q-37 0 -123 10q-13 1 -17.5 -1.5t-6.5 -11.5l-4 -21q-4 -14 11 -22q48 -23 137 -23q76 0 121.5 37t45.5 111z" />
    <glyph glyph-name="t" unicode="t" horiz-adv-x="281" 
d="M284 54q-2 9 -6 11.5t-16 1.5q-38 -5 -58 -5q-31 0 -40.5 11.5t-9.5 47.5v303h93q17 0 17 17v29q0 17 -17 17h-93v123q0 20 -17 15l-40 -11q-17 -5 -17 -19v-108h-46q-17 0 -17 -18v-28q0 -17 17 -17h45v-326q0 -55 23 -80.5t81 -25.5t96 20q10 6 9 19z" />
    <glyph glyph-name="u" unicode="u" horiz-adv-x="436" 
d="M317 17q0 -17 18 -17h41q16 0 16 17v453q0 17 -16 17h-41q-18 0 -18 -17v-362q-89 -47 -130 -47q-39 0 -53 21t-14 84l1 304q0 17 -17 17h-42q-18 0 -18 -17v-320q-2 -91 31 -128q31 -31 96 -31t141 52l5 -2v-24z" />
    <glyph glyph-name="v" unicode="v" horiz-adv-x="403" 
d="M399 472q5 15 -7 15h-56q-11 0 -15 -13l-83 -278q0 -1 -17 -58l-3 -12l-8 -33h-2q0 4 -28 100l-84 280q-5 14 -16 14h-55q-14 0 -8 -16l152 -459q5 -12 16 -12h46q13 0 17 13z" />
    <glyph glyph-name="w" unicode="w" horiz-adv-x="599" 
d="M306 276q15 -58 29 -107l46 -157q3 -12 17 -12h44q13 0 17 13l132 459q5 15 -7 15h-55q-11 0 -15 -13l-67 -257q-19 -75 -26 -108h-2q-9 45 -29 115l-69 249q-5 14 -16 14h-53q-12 0 -8 -16l25 -95l-48 -162q-15 -53 -27 -103h-2l-28 112l-68 250q-3 14 -17 14h-52
q-14 0 -8 -16l135 -459q4 -12 17 -12h44q12 0 16 13l46 159q8 31 13 52l14 52h2z" />
    <glyph glyph-name="x" unicode="x" horiz-adv-x="377" 
d="M281 13q7 -13 20 -13h61q7 0 9.5 5t-1.5 11l-140 234l132 221q4 6 1.5 11t-9.5 5h-59q-11 0 -18 -13l-89 -163l-90 163q-7 13 -18 13h-57q-7 0 -9.5 -5t1.5 -11l130 -222l-138 -233q-4 -5 -1.5 -10.5t9.5 -5.5h58q14 0 21 13l93 170z" />
    <glyph glyph-name="y" unicode="y" horiz-adv-x="405" 
d="M208 108q-10 50 -36 134l-72 231q-5 14 -16 14h-53q-14 0 -8 -16l153 -471l-52 -160q-4 -16 9 -16h46q15 0 20 14l199 634q4 15 -7 15h-54q-12 0 -16 -13l-63 -214q-33 -111 -44 -152h-6z" />
    <glyph glyph-name="z" unicode="z" horiz-adv-x="377" 
d="M22 14q0 -14 15 -14h294q17 0 17 17v38q0 16 -18 16h-215l220 338q10 11 10 28v36q0 14 -18 14h-270q-17 0 -17 -15v-36q0 -17 17 -17h201l-227 -347q-9 -12 -9 -29v-29z" />
    <glyph glyph-name="braceleft" unicode="{" horiz-adv-x="231" 
d="M209 -67q0 13 -15 14q-33 3 -43.5 11t-10.5 29v193v7q0 33 -2.5 47t-12.5 30q-10 19 -35 33l-1 2q52 21 52 120v184q0 22 10 30t43 11q15 2 15 15v23q0 13 -14 16q-25 5 -47 5q-79 0 -79 -94v-189v-30q0 -6 -1 -13q0 -11 -4 -23q-7 -24 -37 -32q-11 -3 -11 -12v-21
q0 -10 12 -13q22 -7 28 -18q11 -14 12 -27q1 -15 1 -34v-18v-198q0 -93 80 -93q17 0 45 5q15 3 15 17v23z" />
    <glyph glyph-name="bar" unicode="|" horiz-adv-x="206" 
d="M134 679q0 17 -16 17h-27q-18 0 -18 -17v-778q0 -17 18 -17h27q16 0 16 17v778z" />
    <glyph glyph-name="braceright" unicode="}" horiz-adv-x="231" 
d="M16 -90q0 -14 15 -17q28 -5 45 -5q80 0 80 93v198v37q0 25 5 31q17 24 36 29q12 3 12 13v21q0 9 -11 12q-13 3 -21.5 11t-11.5 13.5t-7 17.5q-2 10 -2 26v30v189q0 94 -79 94q-22 0 -47 -5q-14 -3 -14 -16v-23q0 -13 15 -15q33 -3 43 -11t10 -30v-184q0 -99 52 -120
l-1 -2q-43 -23 -49 -68q-1 -11 -1 -49v-193q0 -21 -10.5 -29t-43.5 -11q-15 -1 -15 -14v-23z" />
    <glyph glyph-name="asciitilde" unicode="~" 
d="M328 232q72 0 106 81q3 11 -7 18l-17 12q-14 11 -23 -2q-16 -24 -26 -32.5t-27 -8.5q-18 0 -67 25q-60 30 -92 30q-78 0 -106 -79q-5 -11 8 -19l14 -10q13 -10 23 -1q24 28 33.5 35.5t23.5 7.5q20 0 73 -27q58 -30 84 -30z" />
    <glyph glyph-name="exclamdown" unicode="&#xa1;" horiz-adv-x="224" 
d="M139 293q0 16 -12 16h-26q-14 0 -14 -16l-10 -464q0 -17 16 -17h44q14 0 14 17zM112 393q26 0 35.5 10.5t9.5 34.5q0 25 -10 36.5t-35 11.5q-26 0 -35 -11.5t-9 -36.5q0 -45 44 -45z" />
    <glyph glyph-name="cent" unicode="&#xa2;" 
d="M234 -158q6 0 8 2t3 9q1 3 1 4l17 135q85 1 133 23q14 8 11 21l-3 21q-3 16 -22 13q-57 -9 -111 -10l45 365l58 -6q25 -2 26 11l4 23q3 17 -10 21q-28 10 -69 18l17 137v7t-1 4t-3 2.5t-6 0.5l-27 3q-12 2 -13 -11l-18 -138h-18q-109 0 -146 -80q-30 -68 -30 -173
q0 -78 9 -121.5t37 -79.5q30 -38 84 -47l-17 -138q-1 -10 10 -12zM161 248q0 102 21 141t77 39h6l-46 -362q-31 12 -44.5 54t-13.5 128z" />
    <glyph glyph-name="sterling" unicode="&#xa3;" 
d="M276 667q-75 0 -120 -46.5t-44 -125.5q0 -34 1 -65t1 -65h-36q-19 0 -19 -16v-31q0 -18 20 -18h35v-91q0 -113 -46 -138q-17 -9 -17 -26v-30q0 -15 19 -15h334q12 0 16.5 3t4.5 12v40q0 18 -20 18h-242q28 34 28 155v72h152q19 0 19 18v31q0 16 -19 16h-152l-2 126
q-1 49 22.5 76.5t66.5 27.5q37 0 128 -13q14 -2 18 11l7 28q3 15 -15 22q-64 24 -140 24z" />
    <glyph glyph-name="currency" unicode="&#xa4;" 
d="M81 267q0 -64 32 -111l-56 -55q-13 -12 -4 -21l29 -27q10 -10 22 2l57 57q43 -20 89 -20q56 -2 100 26l56 -58q12 -12 21 -3l27 28q14 11 -2 23l-57 56q30 48 30 107q0 51 -27 94l55 55q11 12 0 21l-27 28q-9 10 -20 -1l-54 -55q-41 29 -102 29q-59 -1 -97 -27l-49 49
q-9 10 -19 0l-28 -26q-8 -11 2 -21l50 -50q-28 -46 -28 -100zM250 154q-48 0 -74.5 30t-26.5 83t26.5 83.5t74.5 30.5q51 0 79.5 -30.5t28.5 -83.5q0 -51 -29 -82t-79 -31z" />
    <glyph glyph-name="yen" unicode="&#xa5;" 
d="M132 650q-6 13 -20 13h-52q-7 0 -10 -4.5t0 -10.5l150 -329h-125q-15 0 -15 -10v-36q0 -10 14 -10h137v-42h-136q-15 0 -15 -10v-36q0 -10 14 -10h137v-147q0 -18 20 -18h37q20 0 20 18v147h137q13 0 13 9v34q0 13 -14 13h-136v42h137q13 0 13 10v34q0 8 -2.5 10t-10.5 2
h-129l152 328q7 16 -11 16h-46q-16 0 -22 -13l-119 -274h-4z" />
    <glyph glyph-name="brokenbar" unicode="&#xa6;" horiz-adv-x="206" 
d="M137 268q0 17 -16 17h-27q-18 0 -18 -17v-367q0 -17 18 -17h27q16 0 16 17v367zM137 675q0 17 -16 17h-27q-18 0 -18 -17v-342q0 -17 18 -17h27q16 0 16 17v342z" />
    <glyph glyph-name="section" unicode="&#xa7;" horiz-adv-x="391" 
d="M220 668q-70 1 -124 -37q-52 -37 -54 -111q0 -68 48 -108q-52 -55 -54 -134q4 -69 55 -108q21 -15 64 -37l27 -13q3 -1 21 -10.5t24 -12.5q13 -8 21 -14q36 -26 36 -67q-3 -53 -34 -75.5t-73 -20.5q-69 0 -123 19q-22 7 -27 -8l-8 -21q-4 -11 10 -21q21 -14 64 -25
q41 -10 75 -12q67 0 120 30q71 35 73 135q0 55 -48 106q52 60 54 134q7 73 -84 125q-8 5 -52 28q-28 15 -49 28q-64 42 -63 85q0 36 28.5 57t75.5 21q49 0 108 -18q22 -7 27 8l8 22q5 12 -8 20q-44 34 -138 35zM291 241q-2 -35 -32 -77q-78 32 -113 60.5t-34 69.5
q0 42 32 82l36 -18q32 -15 43 -23q18 -12 32 -23q36 -27 36 -71z" />
    <glyph glyph-name="dieresis" unicode="&#xa8;" horiz-adv-x="433" 
d="M355 609q0 22 -9 32t-31 10q-39 0 -39 -42q0 -23 8 -34t31 -11q40 0 40 45zM196 609q0 42 -39 42q-41 0 -41 -42q0 -23 8.5 -34t32.5 -11q39 0 39 45z" />
    <glyph glyph-name="copyright" unicode="&#xa9;" horiz-adv-x="794" 
d="M749 335q0 147 -102 248q-102 102 -252 102q-147 0 -250 -102t-103 -248t103 -248t250 -102t250 102q104 102 104 248zM609 121q-89 -89 -214 -89t-214 89q-88 88 -88 214t88 214q89 89 214 89t214 -89t89 -214t-89 -214zM399 114q76 0 117 19q11 6 8 17l-2 19
q-1 12 -19 10q-49 -9 -101 -9q-47 0 -65 33.5t-18 123.5q0 84 18 117t65 33q21 0 95 -8q20 -2 22 9l3 20q2 13 -8 17q-51 19 -115 19q-92 0 -122 -67q-25 -57 -25 -143q0 -96 24 -148q30 -62 123 -62z" />
    <glyph glyph-name="ordfeminine" unicode="&#xaa;" horiz-adv-x="304" 
d="M274 453q0 66 -24 93.5t-92 27.5t-104 -16q-13 -6 -11 -17l3 -19q1 -15 23 -10q32 7 74 7q38 0 53 -13t15 -44v-16h-73q-62 0 -90.5 -28t-28.5 -86q0 -95 90 -95q59 0 103 38q7 -37 51 -35q11 0 26 3q17 3 17 14v20q0 8 -12 11q-8 2 -10.5 3t-6 8.5t-3.5 20.5v133z
M211 328q-53 -34 -92 -34q-20 0 -28.5 9t-8.5 31q0 59 50 59h79v-65z" />
    <glyph glyph-name="guillemotleft" unicode="&#xab;" horiz-adv-x="366" 
d="M131 45q9 -13 23 -13h56q4 0 5.5 3.5t-1.5 7.5l-102 141l97 139q2 3 2 6t-2.5 5.5t-6.5 2.5h-48q-12 0 -25 -15l-85 -124q-11 -14 -1 -28zM269 45q9 -13 23 -13h56q4 0 5.5 3.5t-1.5 7.5l-102 141l97 139q2 3 2 6t-2.5 5.5t-6.5 2.5h-48q-12 0 -25 -15l-85 -124
q-11 -14 -1 -28z" />
    <glyph glyph-name="logicalnot" unicode="&#xac;" 
d="M400 132q15 0 15 15v197q0 14 -15 14h-316q-15 0 -15 -15v-31q0 -14 14 -14h275v-152q0 -14 14 -14h28z" />
    <glyph glyph-name="uni00AD" unicode="&#xad;" horiz-adv-x="322" 
d="M294 338q0 13 -14 13h-241q-14 0 -14 -13v-31q0 -12 14 -12h241q14 0 14 12v31z" />
    <glyph glyph-name="registered" unicode="&#xae;" horiz-adv-x="519" 
d="M305 482q49 19 49 78q0 38 -22.5 58.5t-59.5 20.5h-81q-11 0 -11 -10v-249q0 -7 1.5 -9t7.5 -2h23q8 0 8 12v95h41l50 -100q3 -7 13 -7h29q13 0 6 12zM312 560q0 -46 -48 -46h-44v87h44q48 0 48 -41zM38 506q0 -92 64 -156t157 -64q92 0 156 64q65 65 65 156
q0 92 -64 155q-64 64 -157 64t-157 -64t-64 -155zM259 322q-77 0 -131 54q-53 55 -53 130q0 76 54 129q54 54 130 54q77 0 129 -54q54 -53 54 -129t-54 -130q-52 -54 -129 -54z" />
    <glyph glyph-name="macron" unicode="&#xaf;" horiz-adv-x="433" 
d="M361 623q0 13 -14 13h-222q-14 0 -14 -13v-38q0 -12 14 -12h222q14 0 14 12v38z" />
    <glyph glyph-name="degree" unicode="&#xb0;" horiz-adv-x="304" 
d="M158 654q-50 0 -84 -34q-34 -33 -34 -79q0 -49 32.5 -80t85.5 -31q49 0 82 32t33 79q0 46 -34 79q-33 34 -81 34zM216 539q0 -28 -16.5 -45.5t-43.5 -17.5q-26 0 -43 18t-17 45q0 29 17.5 47.5t42.5 18.5t42.5 -18.5t17.5 -47.5z" />
    <glyph glyph-name="plusminus" unicode="&#xb1;" 
d="M415 345q0 13 -15 13h-123v145q0 14 -12 14h-41q-13 0 -13 -14v-145h-130q-13 0 -13 -13v-35q0 -12 13 -12h130v-153q0 -14 13 -14h41q12 0 12 14v153h123q15 0 15 12v35zM414 78q0 13 -14 13h-317q-14 0 -14 -13v-31q0 -12 14 -12h317q14 0 14 12v31z" />
    <glyph glyph-name="uni00B2" unicode="&#xb2;" horiz-adv-x="315" 
d="M224 517q29 32 40 59.5t11 66.5q0 114 -131 114q-65 0 -107 -16q-16 -6 -11 -23l4 -20q1 -10 20 -8q48 6 94 6q41 0 55 -13.5t14 -46.5q0 -39 -38 -80l-144 -157q-11 -11 -11 -27v-22q0 -17 18 -17h229q16 0 16 17v24q0 17 -16 17h-155l-1 2z" />
    <glyph glyph-name="uni00B3" unicode="&#xb3;" horiz-adv-x="315" 
d="M258 680q16 17 16 31v27q0 15 -21 15h-209q-16 0 -16 -17v-24q0 -10 3.5 -13t12.5 -3h139l2 -5l-84 -89q-9 -9 -9 -20v-20q0 -18 19 -21l66 -11q49 -7 49 -48q0 -53 -21.5 -73.5t-64.5 -20.5q-42 0 -93 10q-17 3 -22 -14l-3 -14q-3 -17 9 -22q39 -18 107 -18
q78 0 114.5 34.5t36.5 119.5q0 92 -85 105l-23 3l1 6z" />
    <glyph glyph-name="acute" unicode="&#xb4;" horiz-adv-x="432" 
d="M346 678q8 10 -3 15l-46 20q-13 6 -17 -3l-62 -143q-5 -11 3 -14l29 -10q10 -5 15 3z" />
    <glyph glyph-name="mu" unicode="&#xb5;" horiz-adv-x="445" 
d="M325 18q0 -18 21 -18h36q20 0 20 18v451q0 18 -20 18h-36q-20 0 -20 -18v-351q-97 -57 -140 -57q-36 0 -50.5 19.5t-14.5 70.5v318q0 18 -20 18h-37q-20 0 -20 -18v-624q0 -12 4 -16t16 -4h35q21 0 21 20v157q22 -12 57 -12q67 0 143 54l5 -1v-25z" />
    <glyph glyph-name="paragraph" unicode="&#xb6;" horiz-adv-x="446" 
d="M207 663q-88 0 -138 -52.5t-50 -147.5q0 -61 40 -110q41 -50 107 -50v-381q0 -17 18 -17h34q17 0 17 17v672h81v-672q0 -17 18 -17h34q17 0 17 17v671h25q17 0 17 18v35q0 17 -17 17h-203z" />
    <glyph glyph-name="periodcentered" unicode="&#xb7;" horiz-adv-x="170" 
d="M128 253q0 25 -10 36t-34 11q-43 0 -43 -47q0 -49 43 -49q44 0 44 49z" />
    <glyph glyph-name="cedilla" unicode="&#xb8;" horiz-adv-x="370" 
d="M239 -111q0 -35 -42 -35q-19 0 -49 5q-12 2 -14 -6l-5 -19q-1 -7 5 -10q30 -11 66 -11q94 0 94 78q0 32 -17.5 48.5t-60.5 18.5l17 52q2 8 -8 8h-21q-8 0 -11 -8l-21 -66q-6 -21 15 -23q31 -2 41.5 -8t10.5 -24z" />
    <glyph glyph-name="uni00B9" unicode="&#xb9;" horiz-adv-x="270" 
d="M236 374q0 16 -14 16h-54v346q0 6 -0.5 9t-5.5 5.5t-14 2.5h-27q-14 0 -27 -5l-50 -20q-12 -4 -12 -18v-14q0 -9 3.5 -11.5t13.5 -2.5h53v-292h-50q-14 0 -14 -16v-24q0 -16 14 -16h170q14 0 14 16v24z" />
    <glyph glyph-name="ordmasculine" unicode="&#xba;" horiz-adv-x="302" 
d="M280 411q0 65 -23 110q-25 52 -108 52q-128 0 -128 -162q0 -55 10 -94q8 -27 20 -42q32 -38 98 -38q97 0 120 79q11 35 11 95zM218 406q0 -62 -14.5 -86.5t-54.5 -24.5q-38 0 -52 25t-14 86t14 85.5t52 24.5q40 0 54.5 -24.5t14.5 -85.5z" />
    <glyph glyph-name="guillemotright" unicode="&#xbb;" horiz-adv-x="366" 
d="M338 170q10 14 -1 28l-85 124q-14 15 -25 15h-48q-6 0 -8 -5t1 -9l97 -139l-102 -141q-3 -4 -1.5 -7.5t5.5 -3.5h56q14 0 23 13zM200 170q10 14 -1 28l-85 124q-13 15 -25 15h-48q-6 0 -8 -5t1 -9l97 -139l-102 -141q-3 -4 -1.5 -7.5t5.5 -3.5h56q14 0 23 13z" />
    <glyph glyph-name="onequarter" unicode="&#xbc;" horiz-adv-x="730" 
d="M667 148q0 18 -16 18h-35v238q0 15 -17 15h-19q-13 0 -24 -11l-183 -240q-8 -11 -8 -23v-20q0 -16 19 -16h172v-94q0 -15 18 -15h24q18 0 18 16v93h35q16 0 16 16v23zM440 166l116 154v-154h-116zM265 284q0 16 -14 16h-54v346q0 6 -0.5 9t-5.5 5.5t-14 2.5h-27
q-14 0 -27 -5l-50 -20q-12 -4 -12 -18v-14q0 -9 3.5 -11.5t13.5 -2.5h53v-292h-50q-14 0 -14 -16v-24q0 -16 14 -16h170q14 0 14 16v24zM505 684q4 16 -9 16h-28q-13 0 -18 -14l-240 -693q-4 -16 12 -16h28q13 0 17 13z" />
    <glyph glyph-name="onehalf" unicode="&#xbd;" horiz-adv-x="730" 
d="M621 183q29 32 40 59.5t11 66.5q0 114 -131 114q-65 0 -107 -16q-16 -6 -11 -23l4 -20q1 -10 20 -8q48 6 94 6q41 0 55 -13.5t14 -46.5q0 -39 -38 -80l-144 -157q-11 -11 -11 -27v-22q0 -17 18 -17h229q16 0 16 17v24q0 17 -16 17h-155l-1 2zM254 284q0 16 -14 16h-54
v346q0 6 -0.5 9t-5.5 5.5t-14 2.5h-27q-14 0 -27 -5l-50 -20q-12 -4 -12 -18v-14q0 -9 3.5 -11.5t13.5 -2.5h53v-292h-50q-14 0 -14 -16v-24q0 -16 14 -16h170q14 0 14 16v24zM487 684q4 16 -9 16h-28q-13 0 -18 -14l-240 -693q-4 -16 12 -16h28q13 0 17 13z" />
    <glyph glyph-name="threequarters" unicode="&#xbe;" horiz-adv-x="730" 
d="M695 148q0 18 -16 18h-35v238q0 15 -17 15h-19q-13 0 -24 -11l-183 -240q-8 -11 -8 -23v-20q0 -16 19 -16h172v-94q0 -15 18 -15h24q18 0 18 16v93h35q16 0 16 16v23zM468 166l116 154v-154h-116zM269 590q16 17 16 31v27q0 15 -21 15h-209q-16 0 -16 -17v-24
q0 -10 3.5 -13t12.5 -3h139l2 -5l-84 -89q-9 -9 -9 -20v-20q0 -18 19 -21l66 -11q49 -7 49 -48q0 -53 -21.5 -73.5t-64.5 -20.5q-42 0 -93 10q-17 3 -22 -14l-3 -14q-3 -17 9 -22q39 -18 107 -18q78 0 114.5 34.5t36.5 119.5q0 92 -85 105l-23 3l1 6zM521 684q4 16 -9 16
h-28q-13 0 -18 -14l-240 -693q-4 -16 12 -16h28q13 0 17 13z" />
    <glyph glyph-name="questiondown" unicode="&#xbf;" horiz-adv-x="306" 
d="M9 -41q0 -154 162 -154q69 0 111 19q18 8 15 23l-5 26q-4 14 -20 13q-56 -7 -94 -7q-51 0 -73.5 20t-22.5 65q3 25 11 37.5t31 33.5q58 54 83 95.5t25 98.5q0 43 -3 68q-1 15 -20 15h-33q-15 0 -15 -17q1 -17 1 -56q0 -48 -19 -80.5t-63 -69.5q-18 -15 -25.5 -22.5
t-16.5 -20.5t-17 -30q-12 -26 -12 -57zM144 438q0 -24 10 -35.5t35 -11.5q45 0 45 47q0 26 -9.5 37.5t-35.5 11.5q-45 0 -45 -49z" />
    <glyph glyph-name="Agrave" unicode="&#xc0;" horiz-adv-x="477" 
d="M384 13q4 -13 17 -13h61q13 0 8 14l-179 633q-5 15 -19 15h-56q-14 0 -19 -15l-182 -631q-6 -16 8 -16h52q17 0 21 16l42 162h204zM244 568q6 -28 32 -132l49 -189h-169l52 192q10 36 33 129h3zM103 808q-6 -10 6 -17l120 -75q11 -6 18 3l18 23q6 8 -4 15l-110 94
q-11 11 -20 -3z" />
    <glyph glyph-name="Aacute" unicode="&#xc1;" horiz-adv-x="477" 
d="M384 13q4 -13 17 -13h61q13 0 8 14l-179 633q-5 15 -19 15h-56q-14 0 -19 -15l-182 -631q-6 -16 8 -16h52q17 0 21 16l42 162h204zM244 568q6 -28 32 -132l49 -189h-169l52 192q10 36 33 129h3zM345 848q-9 14 -20 3l-110 -94q-10 -7 -4 -15l18 -23q7 -9 18 -3l120 75
q12 7 6 17z" />
    <glyph glyph-name="Acircumflex" unicode="&#xc2;" horiz-adv-x="477" 
d="M384 13q4 -13 17 -13h61q13 0 8 14l-179 633q-5 15 -19 15h-56q-14 0 -19 -15l-182 -631q-6 -16 8 -16h52q17 0 21 16l42 162h204zM244 568q6 -28 32 -132l49 -189h-169l52 192q10 36 33 129h3zM380 729q6 6 -3 17l-87 93q-9 10 -27 10h-41q-17 0 -27 -10l-90 -98
q-7 -9 0 -16l18 -18q9 -9 21 1l98 82l95 -77q15 -12 24 -3z" />
    <glyph glyph-name="Atilde" unicode="&#xc3;" horiz-adv-x="477" 
d="M384 13q4 -13 17 -13h61q13 0 8 14l-179 633q-5 15 -19 15h-56q-14 0 -19 -15l-182 -631q-6 -16 8 -16h52q17 0 21 16l42 162h204zM244 568q6 -28 32 -132l49 -189h-169l52 192q10 36 33 129h3zM312 717q61 0 84 83q3 12 -8 17l-18 7q-12 5 -22 -11q-16 -33 -36 -33
q-11 0 -54 23q-48 27 -75 27t-50 -20t-37 -61q-3 -13 6 -17l18 -8q11 -4 14 -3t6 8q18 37 41 37q17 0 60 -23q47 -26 71 -26z" />
    <glyph glyph-name="Adieresis" unicode="&#xc4;" horiz-adv-x="477" 
d="M384 13q4 -13 17 -13h61q13 0 8 14l-179 633q-5 15 -19 15h-56q-14 0 -19 -15l-182 -631q-6 -16 8 -16h52q17 0 21 16l42 162h204zM244 568q6 -28 32 -132l49 -189h-169l52 192q10 36 33 129h3zM277 777q0 -23 7.5 -33.5t30.5 -10.5q24 0 32 11q8 12 8 33t-9 31
q-8 11 -31 11q-38 0 -38 -42zM206 777q0 23 -8.5 32.5t-30.5 9.5q-40 0 -40 -42q0 -23 8 -33.5t32 -10.5q22 0 30.5 11t8.5 33z" />
    <glyph glyph-name="Aring" unicode="&#xc5;" horiz-adv-x="477" 
 />
    <glyph glyph-name="AE" unicode="&#xc6;" horiz-adv-x="744" 
d="M722 54q0 17 -16 17h-241v244h202q17 0 17 16v38q0 16 -17 16h-202v206h227q18 0 18 17v39q0 16 -17 16h-322q-15 0 -23 -15l-334 -632q-7 -16 6 -16h58q17 0 24 16l84 162h200q0 -143 1 -162q0 -16 18 -16h300q17 0 17 16v38zM386 247h-165l161 312h4v-312z" />
    <glyph glyph-name="Ccedilla" unicode="&#xc7;" horiz-adv-x="468" 
d="M278 594q62 0 147 -11q15 -1 19 11l6 28q3 15 -13 22q-63 25 -159 25q-137 0 -186 -108q-41 -91 -41 -237q0 -127 35 -217q43 -100 152 -113l-16 -50q-6 -21 15 -23q31 -2 41.5 -8t10.5 -24q0 -35 -42 -35q-19 0 -49 5q-12 2 -14 -6l-5 -19q-1 -7 5 -10q30 -11 66 -11
q94 0 94 78q0 32 -17.5 48.5t-60.5 18.5l11 34q103 2 161 27q14 5 11 22l-5 26q-4 13 -20 12q-93 -11 -146 -11q-88 0 -119 79q-25 68 -25 177q0 97 13 157q9 37 24 60q34 53 107 53z" />
    <glyph glyph-name="Egrave" unicode="&#xc8;" horiz-adv-x="439" 
d="M409 54q0 17 -16 17h-258v244h219q17 0 17 16v38q0 16 -17 16h-219v206h245q18 0 18 17v39q0 16 -17 16h-306q-18 0 -18 -17v-630q0 -16 18 -16h317q17 0 17 16v38zM97 808q-6 -10 6 -17l120 -75q11 -6 18 3l18 23q6 8 -4 15l-110 94q-11 11 -20 -3z" />
    <glyph glyph-name="Eacute" unicode="&#xc9;" horiz-adv-x="439" 
d="M409 54q0 17 -16 17h-258v244h219q17 0 17 16v38q0 16 -17 16h-219v206h245q18 0 18 17v39q0 16 -17 16h-306q-18 0 -18 -17v-630q0 -16 18 -16h317q17 0 17 16v38zM319 848q-9 14 -20 3l-110 -94q-10 -7 -4 -15l18 -23q7 -9 18 -3l120 75q12 7 6 17z" />
    <glyph glyph-name="Ecircumflex" unicode="&#xca;" horiz-adv-x="439" 
d="M409 54q0 17 -16 17h-258v244h219q17 0 17 16v38q0 16 -17 16h-219v206h245q18 0 18 17v39q0 16 -17 16h-306q-18 0 -18 -17v-630q0 -16 18 -16h317q17 0 17 16v38zM367 729q6 6 -3 17l-87 93q-9 10 -27 10h-41q-17 0 -27 -10l-90 -98q-7 -9 0 -16l18 -18q9 -9 21 1
l98 82l95 -77q15 -12 24 -3z" />
    <glyph glyph-name="Edieresis" unicode="&#xcb;" horiz-adv-x="439" 
d="M409 54q0 17 -16 17h-258v244h219q17 0 17 16v38q0 16 -17 16h-219v206h245q18 0 18 17v39q0 16 -17 16h-306q-18 0 -18 -17v-630q0 -16 18 -16h317q17 0 17 16v38zM264 777q0 -23 7.5 -33.5t30.5 -10.5q24 0 32 11q8 12 8 33t-9 31q-8 11 -31 11q-38 0 -38 -42zM193 777
q0 23 -8.5 32.5t-30.5 9.5q-40 0 -40 -42q0 -23 8 -33.5t32 -10.5q22 0 30.5 11t8.5 33z" />
    <glyph glyph-name="Igrave" unicode="&#xcc;" horiz-adv-x="221" 
d="M156 645q0 18 -17 18h-44q-18 0 -18 -18v-628q0 -17 18 -17h44q17 0 17 17v628zM-4 808q-6 -10 6 -17l120 -75q10 -6 18 3l18 23q6 8 -4 15l-110 94q-11 11 -20 -3z" />
    <glyph glyph-name="Iacute" unicode="&#xcd;" horiz-adv-x="221" 
d="M202 848q-9 14 -20 3l-110 -94q-10 -7 -4 -15l18 -23q8 -9 18 -3l120 75q12 7 6 17zM156 645q0 18 -17 18h-44q-18 0 -18 -18v-628q0 -17 18 -17h44q17 0 17 17v628z" />
    <glyph glyph-name="Icircumflex" unicode="&#xce;" horiz-adv-x="221" 
d="M258 729q6 6 -3 17l-87 93q-9 10 -27 10h-41q-17 0 -27 -10l-90 -98q-7 -9 0 -16l18 -18q9 -9 21 1l98 82l95 -77q15 -12 24 -3zM157 645q0 18 -17 18h-44q-18 0 -18 -18v-628q0 -17 18 -17h44q17 0 17 17v628z" />
    <glyph glyph-name="Idieresis" unicode="&#xcf;" horiz-adv-x="221" 
d="M148 777q0 -23 7.5 -33.5t30.5 -10.5q24 0 32 11q8 12 8 33t-9 31q-8 11 -31 11q-38 0 -38 -42zM77 777q0 23 -8.5 32.5t-30.5 9.5q-40 0 -40 -42q0 -23 8 -33.5t32 -10.5q22 0 30.5 11t8.5 33zM150 645q0 18 -17 18h-44q-18 0 -18 -18v-628q0 -17 18 -17h44q17 0 17 17
v628z" />
    <glyph glyph-name="Eth" unicode="&#xd0;" horiz-adv-x="537" 
d="M486 333q0 147 -48 232q-55 97 -209 97h-151q-18 0 -18 -16v-278h-42q-14 0 -14 -13v-38q0 -12 14 -12h42v-288q0 -17 21 -17h147q156 0 210 98q48 87 48 235zM254 355q0 13 -14 13h-102v223h92q78 0 122 -49q53 -55 53 -217q0 -161 -59 -211q-49 -42 -124 -42h-84v233
h102q14 0 14 12v38z" />
    <glyph glyph-name="Ntilde" unicode="&#xd1;" horiz-adv-x="547" 
d="M410 16q10 -16 26 -16h38q16 0 16 16v629q0 18 -16 18h-42q-17 0 -17 -18v-490h-3q-32 65 -77 147l-195 345q-10 16 -25 16h-41q-16 0 -16 -15v-631q0 -17 18 -17h41q17 0 17 17v494h3q18 -41 81 -154zM346 710q61 0 84 83q3 12 -8 17l-18 7q-12 5 -22 -11
q-16 -33 -36 -33q-11 0 -54 23q-48 27 -75 27t-50 -20t-37 -61q-3 -13 6 -17l18 -8q11 -4 14 -3t6 8q18 37 41 37q17 0 60 -23q47 -26 71 -26z" />
    <glyph glyph-name="Ograve" unicode="&#xd2;" horiz-adv-x="555" 
d="M506 341q0 117 -22 188q-14 48 -38 75q-55 67 -170 67q-114 0 -171 -76q-24 -34 -37 -79q-20 -75 -20 -175q0 -93 11 -166q8 -46 22 -74q54 -115 194 -110q147 6 196 110q25 48 32 154q3 36 3 86zM426 331q0 -139 -34.5 -203.5t-116.5 -64.5q-80 0 -112.5 65t-32.5 203
q0 136 34 203t111 67q82 0 116.5 -64.5t34.5 -205.5zM165 808q-6 -10 6 -17l120 -75q11 -6 18 3l18 23q6 8 -4 15l-110 94q-11 11 -20 -3z" />
    <glyph glyph-name="Oacute" unicode="&#xd3;" horiz-adv-x="555" 
d="M506 341q0 117 -22 188q-14 48 -38 75q-55 67 -170 67q-114 0 -171 -76q-24 -34 -37 -79q-20 -75 -20 -175q0 -93 11 -166q8 -46 22 -74q54 -115 194 -110q147 6 196 110q25 48 32 154q3 36 3 86zM426 331q0 -139 -34.5 -203.5t-116.5 -64.5q-80 0 -112.5 65t-32.5 203
q0 136 34 203t111 67q82 0 116.5 -64.5t34.5 -205.5zM359 848q-9 14 -20 3l-110 -94q-10 -7 -4 -15l18 -23q7 -9 18 -3l120 75q12 7 6 17z" />
    <glyph glyph-name="Ocircumflex" unicode="&#xd4;" horiz-adv-x="555" 
d="M506 341q0 117 -22 188q-14 48 -38 75q-55 67 -170 67q-114 0 -171 -76q-24 -34 -37 -79q-20 -75 -20 -175q0 -93 11 -166q8 -46 22 -74q54 -115 194 -110q147 6 196 110q25 48 32 154q3 36 3 86zM426 331q0 -139 -34.5 -203.5t-116.5 -64.5q-80 0 -112.5 65t-32.5 203
q0 136 34 203t111 67q82 0 116.5 -64.5t34.5 -205.5zM423 729q6 6 -3 17l-87 93q-9 10 -27 10h-41q-17 0 -27 -10l-90 -98q-7 -9 0 -16l18 -18q9 -9 21 1l98 82l95 -77q15 -12 24 -3z" />
    <glyph glyph-name="Otilde" unicode="&#xd5;" horiz-adv-x="555" 
d="M506 341q0 117 -22 188q-14 48 -38 75q-55 67 -170 67q-114 0 -171 -76q-24 -34 -37 -79q-20 -75 -20 -175q0 -93 11 -166q8 -46 22 -74q54 -115 194 -110q147 6 196 110q25 48 32 154q3 36 3 86zM426 331q0 -139 -34.5 -203.5t-116.5 -64.5q-80 0 -112.5 65t-32.5 203
q0 136 34 203t111 67q82 0 116.5 -64.5t34.5 -205.5zM342 728q61 0 84 83q3 12 -8 17l-18 7q-12 5 -22 -11q-16 -33 -36 -33q-11 0 -54 23q-48 27 -75 27t-50 -20t-37 -61q-3 -13 6 -17l18 -8q11 -4 14 -3t6 8q18 37 41 37q17 0 60 -23q47 -26 71 -26z" />
    <glyph glyph-name="Odieresis" unicode="&#xd6;" horiz-adv-x="555" 
d="M506 341q0 117 -22 188q-14 48 -38 75q-55 67 -170 67q-114 0 -171 -76q-24 -34 -37 -79q-20 -75 -20 -175q0 -93 11 -166q8 -46 22 -74q54 -115 194 -110q147 6 196 110q25 48 32 154q3 36 3 86zM426 331q0 -139 -34.5 -203.5t-116.5 -64.5q-80 0 -112.5 65t-32.5 203
q0 136 34 203t111 67q82 0 116.5 -64.5t34.5 -205.5zM311 777q0 -23 7.5 -33.5t30.5 -10.5q24 0 32 11q8 12 8 33t-9 31q-8 11 -31 11q-38 0 -38 -42zM240 777q0 23 -8.5 32.5t-30.5 9.5q-40 0 -40 -42q0 -23 8 -33.5t32 -10.5q22 0 30.5 11t8.5 33z" />
    <glyph glyph-name="multiply" unicode="&#xd7;" 
d="M358 157q11 -11 19 -2l28 25q9 10 -1 20l-110 125l108 125q10 10 1 18l-29 25q-9 9 -19 -1l-104 -119l-109 125q-9 9 -18 0l-26 -23q-10 -10 1 -17l112 -130l-114 -130q-10 -10 -1 -19l30 -28q8 -9 18 1l109 126z" />
    <glyph glyph-name="Oslash" unicode="&#xd8;" horiz-adv-x="555" 
d="M506 341q0 175 -51 250l32 54q7 11 -2 16l-23 13q-10 5 -17 -7l-23 -40q-53 44 -146 44q-114 0 -171 -76q-24 -34 -37 -79q-20 -75 -20 -175q0 -101 10.5 -164t39.5 -106l-30 -51q-5 -10 -3 -12l4 -4l24 -14q10 -6 17 7l21 37q52 -43 144 -43q142 -5 196 110
q25 48 32 154q3 36 3 86zM426 331q0 -139 -34.5 -203.5t-116.5 -64.5q-66 0 -100 45l230 396q21 -61 21 -173zM130 331q0 136 34 203t111 67q69 0 104 -47l-230 -395q-19 60 -19 172z" />
    <glyph glyph-name="Ugrave" unicode="&#xd9;" horiz-adv-x="528" 
d="M264 66q-71 0 -101 40t-30 131v407q0 19 -21 19h-36q-21 0 -21 -19v-418q0 -233 209 -233q59 0 101.5 18.5t65.5 52.5t33.5 74t10.5 89v417q0 19 -20 19h-36q-21 0 -21 -19v-407q0 -88 -32.5 -129.5t-101.5 -41.5zM157 808q-6 -10 6 -17l120 -75q11 -6 18 3l18 23
q6 8 -4 15l-110 94q-11 11 -20 -3z" />
    <glyph glyph-name="Uacute" unicode="&#xda;" horiz-adv-x="528" 
d="M264 66q-71 0 -101 40t-30 131v407q0 19 -21 19h-36q-21 0 -21 -19v-418q0 -233 209 -233q59 0 101.5 18.5t65.5 52.5t33.5 74t10.5 89v417q0 19 -20 19h-36q-21 0 -21 -19v-407q0 -88 -32.5 -129.5t-101.5 -41.5zM350 848q-9 14 -20 3l-110 -94q-10 -7 -4 -15l18 -23
q8 -9 18 -3l120 75q12 7 6 17z" />
    <glyph glyph-name="Ucircumflex" unicode="&#xdb;" horiz-adv-x="528" 
d="M264 66q-71 0 -101 40t-30 131v407q0 19 -21 19h-36q-21 0 -21 -19v-418q0 -233 209 -233q59 0 101.5 18.5t65.5 52.5t33.5 74t10.5 89v417q0 19 -20 19h-36q-21 0 -21 -19v-407q0 -88 -32.5 -129.5t-101.5 -41.5zM410 729q6 6 -3 17l-87 93q-9 10 -27 10h-41
q-17 0 -27 -10l-90 -98q-7 -9 0 -16l18 -18q9 -9 21 1l98 82l95 -77q15 -12 24 -3z" />
    <glyph glyph-name="Udieresis" unicode="&#xdc;" horiz-adv-x="528" 
d="M264 66q-71 0 -101 40t-30 131v407q0 19 -21 19h-36q-21 0 -21 -19v-418q0 -233 209 -233q59 0 101.5 18.5t65.5 52.5t33.5 74t10.5 89v417q0 19 -20 19h-36q-21 0 -21 -19v-407q0 -88 -32.5 -129.5t-101.5 -41.5zM302 777q0 -23 7.5 -33.5t30.5 -10.5q24 0 32 11
q8 12 8 33t-9 31q-8 11 -31 11q-38 0 -38 -42zM231 777q0 23 -8.5 32.5t-30.5 9.5q-40 0 -40 -42q0 -23 8 -33.5t32 -10.5q22 0 30.5 11t8.5 33z" />
    <glyph glyph-name="Yacute" unicode="&#xdd;" horiz-adv-x="441" 
d="M199 422q-23 57 -26 63l-75 165q-6 12 -19 12h-59q-14 0 -8 -13l173 -353v-279q0 -17 18 -17h42q16 0 16 17v279l173 351q8 15 -9 15h-52q-13 0 -21 -12l-76 -162q-41 -88 -50 -116h-6zM314 848q-9 14 -20 3l-110 -94q-10 -7 -4 -15l18 -23q8 -9 18 -3l120 75q12 7 6 17z
" />
    <glyph glyph-name="Thorn" unicode="&#xde;" horiz-adv-x="448" 
d="M429 341q0 92 -53.5 142.5t-145.5 50.5h-95v112q0 17 -18 17h-43q-17 0 -17 -17v-629q0 -17 18 -17h43q17 0 17 17v123h96q115 0 159 67q39 57 39 134zM352 340q0 -63 -28 -97t-94 -34h-95v254h89q128 0 128 -123z" />
    <glyph glyph-name="germandbls" unicode="&#xdf;" horiz-adv-x="438" 
d="M306 416q31 17 47 52.5t16 72.5q0 81 -43 124.5t-121 43.5q-75 0 -119.5 -50t-43.5 -148v-498q0 -18 19 -18h37q20 0 20 19v505q0 119 88 119q39 0 61.5 -25t22.5 -70q0 -43 -20 -75t-54 -39q-18 -5 -18 -20v-32q0 -12 15 -12q62 -6 89 -40.5t27 -114.5q0 -150 -99 -150
q-22 0 -29 1q-25 3 -26 -13l-4 -30q-1 -12 13 -18q24 -8 59 -8q80 0 123 57t43 158q0 174 -103 205v4z" />
    <glyph glyph-name="agrave" unicode="&#xe0;" horiz-adv-x="449" 
 />
    <glyph glyph-name="aacute" unicode="&#xe1;" horiz-adv-x="449" 
d="M314 119q-83 -56 -142 -56q-35 0 -48.5 15t-13.5 55q0 100 89 100h115v-114zM156 -8q76 0 158 57l2 -1q3 -28 18.5 -40t48.5 -12q15 0 33 3q20 3 20 19v25q0 11 -17 13q-21 2 -25 7.5t-4 29.5v6v214q0 91 -33 138q-31 46 -131 46q-85 0 -143 -20q-19 -7 -16 -22l6 -28
q3 -12 20 -9q77 9 120 9q53 0 77 -23.5t24 -77.5v-28h-111q-89 0 -129.5 -40.5t-40.5 -127.5q0 -70 29.5 -104t93.5 -34zM323 678q7 10 -3 15l-46 20q-13 6 -17 -3l-62 -143q-5 -11 3 -14l29 -10q11 -5 15 3z" />
    <glyph glyph-name="acircumflex" unicode="&#xe2;" horiz-adv-x="449" 
 />
    <glyph glyph-name="atilde" unicode="&#xe3;" horiz-adv-x="449" 
d="M314 119q-83 -56 -142 -56q-35 0 -48.5 15t-13.5 55q0 100 89 100h115v-114zM156 -8q76 0 158 57l2 -1q3 -28 18.5 -40t48.5 -12q15 0 33 3q20 3 20 19v25q0 11 -17 13q-21 2 -25 7.5t-4 29.5v6v214q0 91 -33 138q-31 46 -131 46q-85 0 -143 -20q-19 -7 -16 -22l6 -28
q3 -12 20 -9q77 9 120 9q53 0 77 -23.5t24 -77.5v-28h-111q-89 0 -129.5 -40.5t-40.5 -127.5q0 -70 29.5 -104t93.5 -34zM294 559q61 0 84 83q3 12 -8 17l-18 7q-12 5 -22 -11q-16 -33 -36 -33q-11 0 -54 23q-48 27 -75 27t-50 -20t-37 -61q-3 -13 6 -17l18 -8q11 -4 14 -3
t6 8q18 37 41 37q17 0 60 -23q47 -26 71 -26z" />
    <glyph glyph-name="adieresis" unicode="&#xe4;" horiz-adv-x="449" 
d="M314 119q-83 -56 -142 -56q-35 0 -48.5 15t-13.5 55q0 100 89 100h115v-114zM156 -8q76 0 158 57l2 -1q3 -28 18.5 -40t48.5 -12q15 0 33 3q20 3 20 19v25q0 11 -17 13q-21 2 -25 7.5t-4 29.5v6v214q0 91 -33 138q-31 46 -131 46q-85 0 -143 -20q-19 -7 -16 -22l6 -28
q3 -12 20 -9q77 9 120 9q53 0 77 -23.5t24 -77.5v-28h-111q-89 0 -129.5 -40.5t-40.5 -127.5q0 -70 29.5 -104t93.5 -34zM344 609q0 22 -9 32t-31 10q-39 0 -39 -42q0 -23 8 -34t31 -11q40 0 40 45zM185 609q0 42 -39 42q-41 0 -41 -42q0 -23 8.5 -34t32.5 -11q39 0 39 45z
" />
    <glyph glyph-name="aring" unicode="&#xe5;" horiz-adv-x="449" 
 />
    <glyph glyph-name="ae" unicode="&#xe6;" horiz-adv-x="694" 
d="M497 430q64 0 83 -46q19 -38 20 -102h-204q2 77 26 112.5t75 35.5zM500 -9q78 0 143 27q14 6 11 20l-4 22q-4 16 -23 13q-74 -10 -122 -10q-58 0 -83 35t-26 121h239q45 0 43 57q-2 92 -33 150q-38 71 -146 71q-80 0 -134 -56q-39 56 -134 56t-146 -20q-22 -9 -17 -23
l5 -26q3 -14 24 -10q64 9 121 9q55 0 77 -20.5t22 -74.5v-48h-117q-88 0 -127 -37t-39 -117q0 -71 29 -104.5t93 -33.5q108 0 192 75q40 -76 152 -76zM172 63q-35 0 -48.5 15t-13.5 55q0 85 82 85h125q0 -52 10 -93q-35 -23 -81 -42q-48 -20 -74 -20z" />
    <glyph glyph-name="ccedilla" unicode="&#xe7;" horiz-adv-x="370" 
d="M238 -111q0 -35 -42 -35q-19 0 -49 5q-12 2 -14 -6l-5 -19q-1 -7 5 -10q30 -11 66 -11q94 0 94 78q0 32 -17.5 48.5t-60.5 18.5l11 34q84 5 125 23q14 8 11 21l-4 21q-1 16 -22 13q-63 -10 -123 -10q-55 0 -77 40q-21 40 -21 148q0 102 21 141t77 39q25 0 115 -9
q25 -2 26 11l4 23q3 17 -10 21q-60 23 -138 23q-109 0 -146 -80q-30 -68 -30 -173q-2 -132 41 -197q40 -48 111 -54l-15 -49q-6 -21 15 -23q31 -2 41.5 -8t10.5 -24z" />
    <glyph glyph-name="egrave" unicode="&#xe8;" horiz-adv-x="420" 
d="M215 430q64 0 83 -46q19 -38 20 -102h-204q2 77 26 112.5t75 35.5zM218 -9q78 0 143 27q14 6 11 20l-4 22q-4 16 -23 13q-74 -10 -122 -10q-58 0 -83 35t-26 121h239q45 0 43 57q-2 92 -33 150q-38 71 -146 71q-134 -5 -166 -124q-16 -52 -16 -130q0 -92 17 -145
q12 -35 31 -57q43 -50 135 -50zM186 710q-4 9 -17 3l-46 -20q-11 -5 -3 -15l81 -135q5 -7 15 -3l29 13q8 3 3 14z" />
    <glyph glyph-name="eacute" unicode="&#xe9;" horiz-adv-x="420" 
d="M215 430q64 0 83 -46q19 -38 20 -102h-204q2 77 26 112.5t75 35.5zM218 -9q78 0 143 27q14 6 11 20l-4 22q-4 16 -23 13q-74 -10 -122 -10q-58 0 -83 35t-26 121h239q45 0 43 57q-2 92 -33 150q-38 71 -146 71q-134 -5 -166 -124q-16 -52 -16 -130q0 -92 17 -145
q12 -35 31 -57q43 -50 135 -50zM316 678q8 10 -3 15l-46 20q-13 6 -17 -3l-62 -143q-5 -11 3 -14l29 -10q10 -5 15 3z" />
    <glyph glyph-name="ecircumflex" unicode="&#xea;" horiz-adv-x="420" 
d="M215 430q64 0 83 -46q19 -38 20 -102h-204q2 77 26 112.5t75 35.5zM218 -9q78 0 143 27q14 6 11 20l-4 22q-4 16 -23 13q-74 -10 -122 -10q-58 0 -83 35t-26 121h239q45 0 43 57q-2 92 -33 150q-38 71 -146 71q-134 -5 -166 -124q-16 -52 -16 -130q0 -92 17 -145
q12 -35 31 -57q43 -50 135 -50zM113 541q11 -8 18 1l90 102l92 -104q5 -7 16 1l21 16q7 5 -1 16l-79 119q-7 10 -29 10h-40q-16 0 -27 -11l-82 -119q-7 -7 1 -15z" />
    <glyph glyph-name="edieresis" unicode="&#xeb;" horiz-adv-x="420" 
d="M215 430q64 0 83 -46q19 -38 20 -102h-204q2 77 26 112.5t75 35.5zM218 -9q78 0 143 27q14 6 11 20l-4 22q-4 16 -23 13q-74 -10 -122 -10q-58 0 -83 35t-26 121h239q45 0 43 57q-2 92 -33 150q-38 71 -146 71q-134 -5 -166 -124q-16 -52 -16 -130q0 -92 17 -145
q12 -35 31 -57q43 -50 135 -50zM337 609q0 22 -9 32t-31 10q-39 0 -39 -42q0 -23 8 -34t31 -11q40 0 40 45zM178 609q0 42 -39 42q-41 0 -41 -42q0 -23 8.5 -34t32.5 -11q39 0 39 45z" />
    <glyph glyph-name="igrave" unicode="&#xec;" horiz-adv-x="223" 
d="M90 710q-4 9 -17 3l-46 -20q-11 -5 -3 -15l81 -135q5 -7 15 -3l29 13q8 3 3 14zM157 470q0 17 -16 17h-41q-18 0 -18 -17v-453q0 -17 18 -17h41q16 0 16 17v453z" />
    <glyph glyph-name="iacute" unicode="&#xed;" horiz-adv-x="223" 
d="M209 678q7 10 -3 15l-46 20q-13 6 -17 -3l-62 -143q-5 -11 3 -14l29 -10q11 -5 15 3zM149 470q0 17 -16 17h-41q-18 0 -18 -17v-453q0 -17 18 -17h41q16 0 16 17v453z" />
    <glyph glyph-name="icircumflex" unicode="&#xee;" horiz-adv-x="223" 
d="M13 541q11 -8 18 1l90 102l92 -104q5 -7 16 1l21 16q7 5 -1 16l-79 119q-7 10 -29 10h-40q-16 0 -27 -11l-82 -119q-7 -7 1 -15zM156 470q0 17 -16 17h-41q-18 0 -18 -17v-453q0 -17 18 -17h41q16 0 16 17v453z" />
    <glyph glyph-name="idieresis" unicode="&#xef;" horiz-adv-x="223" 
d="M233 609q0 22 -9 32t-31 10q-39 0 -39 -42q0 -23 8 -34t31 -11q40 0 40 45zM74 609q0 42 -39 42q-41 0 -41 -42q0 -23 8.5 -34t32.5 -11q39 0 39 45zM149 470q0 17 -16 17h-41q-18 0 -18 -17v-453q0 -17 18 -17h41q16 0 16 17v453z" />
    <glyph glyph-name="eth" unicode="&#xf0;" horiz-adv-x="438" 
d="M300 465q-37 22 -89 22q-132 -5 -161 -123q-15 -57 -15 -129q0 -51 9 -104q6 -31 18 -53q48 -90 153 -86q136 4 170 117q19 62 19 162q0 208 -91 333l54 22q11 5 7 15l-10 24q-5 14 -19 8l-66 -28q-43 45 -123 83q-21 9 -29 -9l-10 -21q-6 -13 15 -25q57 -34 82 -57
l-67 -28q-15 -6 -10 -18l9 -23q5 -12 19 -6l86 36q31 -39 55 -109zM326 247q0 -73 -16 -126q-20 -64 -93 -64q-68 0 -88 58q-17 48 -17 117q0 81 16 130q19 58 84 58q55 0 106 -30q8 -50 8 -143z" />
    <glyph glyph-name="ntilde" unicode="&#xf1;" horiz-adv-x="436" 
d="M115 470q0 17 -18 17h-41q-16 0 -16 -17v-453q0 -17 16 -17h41q18 0 18 17v362q89 47 138 47q38 0 52.5 -22.5t14.5 -86.5l-1 -300q0 -17 17 -17h42q18 0 18 17v296q0 86 -21 130q-24 53 -112 53q-67 0 -143 -52l-5 2v24zM275 558q61 0 84 83q3 12 -8 17l-18 7
q-12 5 -22 -11q-9 -19 -16.5 -26t-19.5 -7q-11 0 -54 23q-48 27 -75 27t-50 -20t-37 -61q-3 -13 6 -17l18 -8q11 -4 14 -3t6 8q19 37 41 37q17 0 60 -23q47 -26 71 -26z" />
    <glyph glyph-name="ograve" unicode="&#xf2;" horiz-adv-x="439" 
d="M402 252q0 83 -17 136q-10 33 -31 57q-45 52 -138 52q-181 0 -181 -245q0 -84 15 -143q11 -39 28 -62q44 -55 138 -55q75 3 115.5 32t54.5 85q16 54 16 143zM325 245q0 -102 -23.5 -144t-85.5 -42q-59 0 -81.5 42.5t-22.5 143.5q0 100 22.5 142.5t81.5 42.5
q62 0 85.5 -42t23.5 -143zM186 710q-4 9 -17 3l-46 -20q-11 -5 -3 -15l81 -135q5 -7 15 -3l29 13q8 3 3 14z" />
    <glyph glyph-name="oacute" unicode="&#xf3;" horiz-adv-x="439" 
d="M402 252q0 83 -17 136q-10 33 -31 57q-45 52 -138 52q-181 0 -181 -245q0 -84 15 -143q11 -39 28 -62q44 -55 138 -55q75 3 115.5 32t54.5 85q16 54 16 143zM325 245q0 -102 -23.5 -144t-85.5 -42q-59 0 -81.5 42.5t-22.5 143.5q0 100 22.5 142.5t81.5 42.5
q62 0 85.5 -42t23.5 -143zM316 678q8 10 -3 15l-46 20q-13 6 -17 -3l-62 -143q-5 -11 3 -14l29 -10q10 -5 15 3z" />
    <glyph glyph-name="ocircumflex" unicode="&#xf4;" horiz-adv-x="439" 
d="M402 252q0 83 -17 136q-10 33 -31 57q-45 52 -138 52q-181 0 -181 -245q0 -84 15 -143q11 -39 28 -62q44 -55 138 -55q75 3 115.5 32t54.5 85q16 54 16 143zM325 245q0 -102 -23.5 -144t-85.5 -42q-59 0 -81.5 42.5t-22.5 143.5q0 100 22.5 142.5t81.5 42.5
q62 0 85.5 -42t23.5 -143zM114 541q11 -8 18 1l90 102l92 -104q5 -7 16 1l21 16q7 5 -1 16l-79 119q-7 10 -29 10h-40q-16 0 -27 -11l-82 -119q-7 -7 1 -15z" />
    <glyph glyph-name="otilde" unicode="&#xf5;" horiz-adv-x="439" 
d="M402 252q0 83 -17 136q-10 33 -31 57q-45 52 -138 52q-181 0 -181 -245q0 -84 15 -143q11 -39 28 -62q44 -55 138 -55q75 3 115.5 32t54.5 85q16 54 16 143zM325 245q0 -102 -23.5 -144t-85.5 -42q-59 0 -81.5 42.5t-22.5 143.5q0 100 22.5 142.5t81.5 42.5
q62 0 85.5 -42t23.5 -143zM290 557q61 0 84 83q3 12 -8 17l-18 7q-12 5 -22 -11q-16 -33 -36 -33q-11 0 -54 23q-48 27 -75 27t-50 -20t-37 -61q-3 -13 6 -17l18 -8q11 -4 14 -3t6 8q18 37 41 37q17 0 60 -23q47 -26 71 -26z" />
    <glyph glyph-name="odieresis" unicode="&#xf6;" horiz-adv-x="439" 
d="M402 252q0 83 -17 136q-10 33 -31 57q-45 52 -138 52q-181 0 -181 -245q0 -84 15 -143q11 -39 28 -62q44 -55 138 -55q75 3 115.5 32t54.5 85q16 54 16 143zM325 245q0 -102 -23.5 -144t-85.5 -42q-59 0 -81.5 42.5t-22.5 143.5q0 100 22.5 142.5t81.5 42.5
q62 0 85.5 -42t23.5 -143zM337 609q0 22 -9 32t-31 10q-39 0 -39 -42q0 -23 8 -34t31 -11q40 0 40 45zM178 609q0 42 -39 42q-41 0 -41 -42q0 -23 8.5 -34t32.5 -11q39 0 39 45z" />
    <glyph glyph-name="divide" unicode="&#xf7;" 
d="M284 472q0 45 -44 45q-43 0 -43 -45q0 -26 8.5 -37.5t34.5 -11.5q44 0 44 49zM284 175q0 25 -10 36t-34 11q-43 0 -43 -47q0 -23 8.5 -35.5t34.5 -12.5q44 0 44 48zM415 344q0 14 -17 14h-314q-16 0 -16 -14v-36q0 -13 16 -13h314q17 0 17 13v36z" />
    <glyph glyph-name="oslash" unicode="&#xf8;" horiz-adv-x="439" 
d="M402 252q0 120 -36 176l27 45q7 11 -2 16l-23 13q-10 5 -17 -7l-19 -31q-45 33 -116 33q-181 0 -181 -245q0 -152 46 -207l-19 -33q-5 -10 -3 -12l4 -4l24 -14q10 -6 17 7l15 25q37 -22 97 -22q75 3 115.5 32t54.5 85q16 54 16 143zM112 245q0 100 22.5 142.5t81.5 42.5
q52 0 77 -31l-167 -279q-14 39 -14 125zM325 245q0 -102 -23.5 -144t-85.5 -42q-37 0 -60 17l161 270q8 -40 8 -101z" />
    <glyph glyph-name="ugrave" unicode="&#xf9;" horiz-adv-x="436" 
 />
    <glyph glyph-name="uacute" unicode="&#xfa;" horiz-adv-x="436" 
d="M317 17q0 -17 18 -17h41q16 0 16 17v453q0 17 -16 17h-41q-18 0 -18 -17v-362q-89 -47 -130 -47q-39 0 -53 21t-14 84l1 304q0 17 -17 17h-42q-18 0 -18 -17v-320q-2 -91 31 -128q31 -31 96 -31t141 52l5 -2v-24zM321 678q7 10 -3 15l-46 20q-13 6 -17 -3l-62 -143
q-5 -11 3 -14l29 -10q11 -5 15 3z" />
    <glyph glyph-name="ucircumflex" unicode="&#xfb;" horiz-adv-x="436" 
 />
    <glyph glyph-name="udieresis" unicode="&#xfc;" horiz-adv-x="436" 
d="M317 17q0 -17 18 -17h41q16 0 16 17v453q0 17 -16 17h-41q-18 0 -18 -17v-362q-89 -47 -130 -47q-39 0 -53 21t-14 84l1 304q0 17 -17 17h-42q-18 0 -18 -17v-320q-2 -91 31 -128q31 -31 96 -31t141 52l5 -2v-24zM348 609q0 22 -9 32t-31 10q-39 0 -39 -42q0 -23 8 -34
t31 -11q40 0 40 45zM189 609q0 42 -39 42q-41 0 -41 -42q0 -23 8.5 -34t32.5 -11q39 0 39 45z" />
    <glyph glyph-name="yacute" unicode="&#xfd;" horiz-adv-x="405" 
d="M208 108q-10 50 -36 134l-72 231q-5 14 -16 14h-53q-14 0 -8 -16l153 -471l-52 -160q-4 -16 9 -16h46q15 0 20 14l199 634q4 15 -7 15h-54q-12 0 -16 -13l-63 -214q-33 -111 -44 -152h-6zM306 678q8 10 -3 15l-46 20q-13 6 -17 -3l-62 -143q-5 -11 3 -14l29 -10
q10 -5 15 3z" />
    <glyph glyph-name="thorn" unicode="&#xfe;" horiz-adv-x="436" 
d="M124 13q54 -22 113 -22q96 0 135 60.5t39 196.5q0 129 -33.5 187.5t-112.5 58.5q-66 0 -142 -50l-3 2v242q0 17 -17 17h-41q-17 0 -17 -17v-845q0 -11 3.5 -15t13.5 -4h41q18 0 18 19v167zM333 251q0 -106 -21.5 -149t-74.5 -43q-57 0 -116 18v303q25 16 65 29
q42 14 69 14q41 0 59.5 -33.5t18.5 -138.5z" />
    <glyph glyph-name="ydieresis" unicode="&#xff;" horiz-adv-x="405" 
d="M208 108q-10 50 -36 134l-72 231q-5 14 -16 14h-53q-14 0 -8 -16l153 -471l-52 -160q-4 -16 9 -16h46q15 0 20 14l199 634q4 15 -7 15h-54q-12 0 -16 -13l-63 -214q-33 -111 -44 -152h-6zM332 609q0 22 -9 32t-31 10q-39 0 -39 -42q0 -23 8 -34t31 -11q40 0 40 45z
M173 609q0 42 -39 42q-41 0 -41 -42q0 -23 8.5 -34t32.5 -11q39 0 39 45z" />
    <glyph glyph-name="Amacron" unicode="&#x100;" horiz-adv-x="477" 
d="M384 13q4 -13 17 -13h61q13 0 8 14l-179 633q-5 15 -19 15h-56q-14 0 -19 -15l-182 -631q-6 -16 8 -16h52q17 0 21 16l42 162h204zM244 568q6 -28 32 -132l49 -189h-169l52 192q10 36 33 129h3zM366 784q0 14 -17 14h-218q-16 0 -16 -14v-38q0 -13 16 -13h218q17 0 17 13
v38z" />
    <glyph glyph-name="amacron" unicode="&#x101;" horiz-adv-x="449" 
d="M314 119q-83 -56 -142 -56q-35 0 -48.5 15t-13.5 55q0 100 89 100h115v-114zM156 -8q76 0 158 57l2 -1q3 -28 18.5 -40t48.5 -12q15 0 33 3q20 3 20 19v25q0 11 -17 13q-21 2 -25 7.5t-4 29.5v6v214q0 91 -33 138q-31 46 -131 46q-85 0 -143 -20q-19 -7 -16 -22l6 -28
q3 -12 20 -9q77 9 120 9q53 0 77 -23.5t24 -77.5v-28h-111q-89 0 -129.5 -40.5t-40.5 -127.5q0 -70 29.5 -104t93.5 -34zM342 623q0 13 -14 13h-222q-14 0 -14 -13v-38q0 -12 14 -12h222q14 0 14 12v38z" />
    <glyph glyph-name="Abreve" unicode="&#x102;" horiz-adv-x="477" 
d="M384 13q4 -13 17 -13h61q13 0 8 14l-179 633q-5 15 -19 15h-56q-14 0 -19 -15l-182 -631q-6 -16 8 -16h52q17 0 21 16l42 162h204zM244 568q6 -28 32 -132l49 -189h-169l52 192q10 36 33 129h3zM238 710q83 0 134 105q4 11 -3 15l-21 15q-10 7 -20 -3q-23 -26 -31 -37
l-12 -12q-18 -18 -45 -18q-22 0 -39 11t-57 58q-10 10 -18 3l-19 -17q-9 -9 -2 -22q20 -45 56.5 -71.5t76.5 -26.5z" />
    <glyph glyph-name="abreve" unicode="&#x103;" horiz-adv-x="449" 
 />
    <glyph glyph-name="Aogonek" unicode="&#x104;" horiz-adv-x="477" 
d="M396 -98q0 46 37 98h29q13 0 8 14l-179 633q-5 15 -19 15h-56q-14 0 -19 -15l-182 -631q-6 -16 8 -16h52q17 0 21 16l42 162h204l42 -165l2 -6q-51 -57 -51 -113q0 -42 26 -64.5t74 -19.5q32 2 62 18q7 4 6 11l-7 24q-1 6 -14 4q-24 -7 -45 -7q-41 0 -41 42zM244 568
q6 -28 32 -132l49 -189h-169l52 192q10 36 33 129h3z" />
    <glyph glyph-name="aogonek" unicode="&#x105;" horiz-adv-x="449" 
d="M156 -8q76 0 158 57l2 -1q4 -46 54 -51q-42 -51 -42 -103q0 -42 26 -64.5t74 -19.5q32 2 62 18q7 4 6 11l-7 24q-1 6 -14 4q-24 -7 -45 -7q-41 0 -41 42q0 47 38 100q9 4 9 16v25q0 11 -17 13q-21 2 -25 7.5t-4 29.5v6v214q0 91 -33 138q-31 46 -131 46q-85 0 -143 -20
q-19 -7 -16 -22l6 -28q3 -12 20 -9q77 9 120 9q53 0 77 -23.5t24 -77.5v-28h-111q-89 0 -129.5 -40.5t-40.5 -127.5q0 -70 29.5 -104t93.5 -34zM314 119q-83 -56 -142 -56q-35 0 -48.5 15t-13.5 55q0 100 89 100h115v-114z" />
    <glyph glyph-name="Cacute" unicode="&#x106;" horiz-adv-x="468" 
d="M278 594q62 0 147 -11q15 -1 19 11l6 28q3 15 -13 22q-63 25 -159 25q-137 0 -186 -108q-41 -91 -41 -237q0 -142 42 -230q49 -102 181 -102q98 0 164 27q14 5 11 22l-5 26q-4 13 -20 12q-93 -11 -146 -11q-88 0 -119 79q-25 68 -25 177q0 97 13 157q9 37 24 60
q34 53 107 53zM358 848q-9 14 -20 3l-110 -94q-10 -7 -4 -15l18 -23q8 -9 18 -3l120 75q12 7 6 17z" />
    <glyph glyph-name="cacute" unicode="&#x107;" horiz-adv-x="370" 
 />
    <glyph glyph-name="Ccircumflex" unicode="&#x108;" horiz-adv-x="468" 
d="M278 594q62 0 147 -11q15 -1 19 11l6 28q3 15 -13 22q-63 25 -159 25q-137 0 -186 -108q-41 -91 -41 -237q0 -142 42 -230q49 -102 181 -102q98 0 164 27q14 5 11 22l-5 26q-4 13 -20 12q-93 -11 -146 -11q-88 0 -119 79q-25 68 -25 177q0 97 13 157q9 37 24 60
q34 53 107 53zM419 729q6 6 -3 17l-87 93q-9 10 -27 10h-41q-17 0 -27 -10l-90 -98q-7 -9 0 -16l18 -18q9 -9 21 1l98 82l95 -77q15 -12 24 -3z" />
    <glyph glyph-name="ccircumflex" unicode="&#x109;" horiz-adv-x="370" 
 />
    <glyph glyph-name="Cdotaccent" unicode="&#x10a;" horiz-adv-x="468" 
d="M278 594q62 0 147 -11q15 -1 19 11l6 28q3 15 -13 22q-63 25 -159 25q-137 0 -186 -108q-41 -91 -41 -237q0 -142 42 -230q49 -102 181 -102q98 0 164 27q14 5 11 22l-5 26q-4 13 -20 12q-93 -11 -146 -11q-88 0 -119 79q-25 68 -25 177q0 97 13 157q9 37 24 60
q34 53 107 53zM320 779q0 42 -40 42q-41 0 -41 -42q0 -45 41 -45q40 0 40 45z" />
    <glyph glyph-name="cdotaccent" unicode="&#x10b;" horiz-adv-x="370" 
 />
    <glyph glyph-name="Ccaron" unicode="&#x10c;" horiz-adv-x="468" 
d="M278 594q62 0 147 -11q15 -1 19 11l6 28q3 15 -13 22q-63 25 -159 25q-137 0 -186 -108q-41 -91 -41 -237q0 -142 42 -230q49 -102 181 -102q98 0 164 27q14 5 11 22l-5 26q-4 13 -20 12q-93 -11 -146 -11q-88 0 -119 79q-25 68 -25 177q0 97 13 157q9 37 24 60
q34 53 107 53zM393 850q-9 9 -24 -3l-95 -80l-99 85q-12 12 -21 1l-16 -20q-6 -7 0 -15l89 -97q10 -10 27 -10h41q18 0 27 10l87 93q9 9 1 18z" />
    <glyph glyph-name="ccaron" unicode="&#x10d;" horiz-adv-x="370" 
 />
    <glyph glyph-name="Dcaron" unicode="&#x10e;" horiz-adv-x="537" 
d="M486 333q0 147 -48 232q-55 97 -209 97h-151q-18 0 -18 -16v-629q0 -17 21 -17h147q156 0 210 98q48 87 48 235zM405 325q0 -161 -59 -211q-49 -42 -124 -42h-84v519h92q78 0 122 -49q53 -55 53 -217zM363 850q-9 9 -24 -3l-95 -80l-99 85q-12 12 -21 1l-16 -20
q-6 -7 0 -15l89 -97q10 -10 27 -10h41q18 0 27 10l87 93q9 9 1 18z" />
    <glyph glyph-name="dcaron" unicode="&#x10f;" horiz-adv-x="531" 
d="M321 474q-54 22 -114 22q-96 0 -135 -62t-39 -198q0 -128 33 -185.5t113 -57.5q66 0 142 50l3 -2v-24q0 -17 17 -17h41q17 0 17 17v669q0 11 -3.5 15t-13.5 4h-40q-18 0 -18 -19v-209zM111 236q0 106 21.5 149t74.5 43q57 0 116 -18v-303q-25 -16 -65 -29
q-42 -14 -69 -14q-41 0 -59.5 33.5t-18.5 138.5zM548 657q0 39 -27 66q-10 13 -26 1l-33 -27q-11 -10 -4 -23q21 -36 21 -57q0 -33 -30 -70q-7 -7 -1 -14l12 -14q6 -7 19 3q69 51 69 135z" />
    <glyph glyph-name="Dcroat" unicode="&#x110;" horiz-adv-x="537" 
d="M486 333q0 147 -48 232q-55 97 -209 97h-151q-18 0 -18 -16v-278h-42q-14 0 -14 -13v-38q0 -12 14 -12h42v-288q0 -17 21 -17h147q156 0 210 98q48 87 48 235zM254 355q0 13 -14 13h-102v223h92q78 0 122 -49q53 -55 53 -217q0 -161 -59 -211q-49 -42 -124 -42h-84v233
h102q14 0 14 12v38z" />
    <glyph glyph-name="dcroat" unicode="&#x111;" horiz-adv-x="444" 
d="M321 474q-54 22 -114 22q-96 0 -135 -62t-39 -198q0 -128 33 -185.5t113 -57.5q66 0 142 50l3 -2v-24q0 -17 17 -17h41q17 0 17 17v535h47q14 0 14 12v36q0 13 -14 13h-47v73q0 11 -3.5 15t-13.5 4h-40q-18 0 -18 -19v-73h-122q-14 0 -14 -13v-36q0 -12 14 -12h122v-75z
M111 236q0 106 21.5 149t74.5 43q57 0 116 -18v-303q-25 -16 -65 -29q-42 -14 -69 -14q-41 0 -59.5 33.5t-18.5 138.5z" />
    <glyph glyph-name="Emacron" unicode="&#x112;" horiz-adv-x="439" 
d="M409 54q0 17 -16 17h-258v244h219q17 0 17 16v38q0 16 -17 16h-219v206h245q18 0 18 17v39q0 16 -17 16h-306q-18 0 -18 -17v-630q0 -16 18 -16h317q17 0 17 16v38zM358 784q0 14 -17 14h-218q-16 0 -16 -14v-38q0 -13 16 -13h218q17 0 17 13v38z" />
    <glyph glyph-name="emacron" unicode="&#x113;" horiz-adv-x="420" 
d="M215 430q64 0 83 -46q19 -38 20 -102h-204q2 77 26 112.5t75 35.5zM218 -9q78 0 143 27q14 6 11 20l-4 22q-4 16 -23 13q-74 -10 -122 -10q-58 0 -83 35t-26 121h239q45 0 43 57q-2 92 -33 150q-38 71 -146 71q-134 -5 -166 -124q-16 -52 -16 -130q0 -92 17 -145
q12 -35 31 -57q43 -50 135 -50zM344 623q0 13 -14 13h-222q-14 0 -14 -13v-38q0 -12 14 -12h222q14 0 14 12v38z" />
    <glyph glyph-name="Ebreve" unicode="&#x114;" horiz-adv-x="439" 
d="M409 54q0 17 -16 17h-258v244h219q17 0 17 16v38q0 16 -17 16h-219v206h245q18 0 18 17v39q0 16 -17 16h-306q-18 0 -18 -17v-630q0 -16 18 -16h317q17 0 17 16v38zM228 708q83 0 134 105q4 11 -3 15l-21 15q-10 7 -20 -3q-23 -26 -31 -37l-12 -12q-18 -18 -45 -18
q-22 0 -39 11t-57 58q-10 10 -18 3l-19 -17q-9 -9 -2 -22q20 -45 56.5 -71.5t76.5 -26.5z" />
    <glyph glyph-name="ebreve" unicode="&#x115;" horiz-adv-x="420" 
d="M215 430q64 0 83 -46q19 -38 20 -102h-204q2 77 26 112.5t75 35.5zM218 -9q78 0 143 27q14 6 11 20l-4 22q-4 16 -23 13q-74 -10 -122 -10q-58 0 -83 35t-26 121h239q45 0 43 57q-2 92 -33 150q-38 71 -146 71q-134 -5 -166 -124q-16 -52 -16 -130q0 -92 17 -145
q12 -35 31 -57q43 -50 135 -50zM216 543q37 0 73 26.5t57 70.5q8 15 -2 22l-18 14q-10 7 -20 -3q-13 -13 -26 -31q-13 -17 -20 -22q-23 -18 -42 -18q-32 0 -62 30l-33 41q-11 12 -21 3l-18 -16q-8 -8 -1 -21q21 -45 57 -70.5t76 -25.5z" />
    <glyph glyph-name="Edotaccent" unicode="&#x116;" horiz-adv-x="439" 
 />
    <glyph glyph-name="edotaccent" unicode="&#x117;" horiz-adv-x="420" 
d="M215 430q64 0 83 -46q19 -38 20 -102h-204q2 77 26 112.5t75 35.5zM218 -9q78 0 143 27q14 6 11 20l-4 22q-4 16 -23 13q-74 -10 -122 -10q-58 0 -83 35t-26 121h239q45 0 43 57q-2 92 -33 150q-38 71 -146 71q-134 -5 -166 -124q-16 -52 -16 -130q0 -92 17 -145
q12 -35 31 -57q43 -50 135 -50zM255 609q0 42 -40 42q-41 0 -41 -42q0 -45 41 -45q40 0 40 45z" />
    <glyph glyph-name="Eogonek" unicode="&#x118;" horiz-adv-x="439" 
d="M360 -98q0 46 37 98q12 2 12 16v38q0 17 -16 17h-258v244h219q17 0 17 16v38q0 16 -17 16h-219v206h245q18 0 18 17v39q0 16 -17 16h-306q-18 0 -18 -17v-630q0 -16 18 -16h269q-45 -52 -45 -106q0 -42 26 -64.5t74 -19.5q32 2 62 18q7 4 6 11l-7 24q-1 6 -14 4
q-24 -7 -45 -7q-41 0 -41 42z" />
    <glyph glyph-name="eogonek" unicode="&#x119;" horiz-adv-x="420" 
d="M295 -93q0 49 39 101q10 3 27 10q14 6 11 20l-4 22q-4 16 -23 13q-74 -10 -122 -10q-58 0 -83 35t-26 121h239q45 0 43 57q-2 92 -33 150q-38 71 -146 71q-134 -5 -166 -124q-16 -52 -16 -130q0 -92 17 -145q12 -35 31 -57q43 -50 135 -50q18 0 53 5q-37 -49 -37 -97
q0 -42 26 -64.5t74 -19.5q32 2 62 18q7 4 6 11l-7 24q-1 6 -14 4q-24 -7 -45 -7q-41 0 -41 42zM215 430q64 0 83 -46q19 -38 20 -102h-204q2 77 26 112.5t75 35.5z" />
    <glyph glyph-name="Ecaron" unicode="&#x11a;" horiz-adv-x="439" 
d="M409 54q0 17 -16 17h-258v244h219q17 0 17 16v38q0 16 -17 16h-219v206h245q18 0 18 17v39q0 16 -17 16h-306q-18 0 -18 -17v-630q0 -16 18 -16h317q17 0 17 16v38zM343 850q-9 9 -24 -3l-95 -80l-99 85q-12 12 -21 1l-16 -20q-6 -7 0 -15l89 -97q10 -10 27 -10h41
q18 0 27 10l87 93q9 9 1 18z" />
    <glyph glyph-name="ecaron" unicode="&#x11b;" horiz-adv-x="420" 
d="M215 430q64 0 83 -46q19 -38 20 -102h-204q2 77 26 112.5t75 35.5zM218 -9q78 0 143 27q14 6 11 20l-4 22q-4 16 -23 13q-74 -10 -122 -10q-58 0 -83 35t-26 121h239q45 0 43 57q-2 92 -33 150q-38 71 -146 71q-134 -5 -166 -124q-16 -52 -16 -130q0 -92 17 -145
q12 -35 31 -57q43 -50 135 -50zM329 696q-11 8 -16 1l-92 -104l-90 102q-7 9 -18 1l-20 -16q-8 -8 -1 -15l82 -119q11 -11 27 -11h40q22 0 29 10l79 119q7 11 1 16z" />
    <glyph glyph-name="Gcircumflex" unicode="&#x11c;" horiz-adv-x="525" 
d="M279 670q-136 0 -186 -108q-42 -93 -42 -237q0 -165 57.5 -249t180.5 -84q81 0 153 25q28 10 28 36v285q0 7 -6 12.5t-17 5.5h-133q-20 0 -20 -17v-39q0 -11 4 -14.5t17 -3.5h73v-202q-34 -15 -104 -15q-88 0 -121 80q-27 70 -27 179q0 120 24 189q29 83 119 83
q54 0 146 -13q8 -1 12.5 1t6 4.5t2.5 8.5l6 28q3 13 -16 20q-28 11 -78 18q-46 7 -79 7zM423 729q6 6 -3 17l-87 93q-9 10 -27 10h-41q-17 0 -27 -10l-90 -98q-7 -9 0 -16l18 -18q9 -9 21 1l98 82l95 -77q15 -12 24 -3z" />
    <glyph glyph-name="gcircumflex" unicode="&#x11d;" horiz-adv-x="445" 
 />
    <glyph glyph-name="Gbreve" unicode="&#x11e;" horiz-adv-x="525" 
d="M279 670q-136 0 -186 -108q-42 -93 -42 -237q0 -165 57.5 -249t180.5 -84q81 0 153 25q28 10 28 36v285q0 7 -6 12.5t-17 5.5h-133q-20 0 -20 -17v-39q0 -11 4 -14.5t17 -3.5h73v-202q-34 -15 -104 -15q-88 0 -121 80q-27 70 -27 179q0 120 24 189q29 83 119 83
q54 0 146 -13q8 -1 12.5 1t6 4.5t2.5 8.5l6 28q3 13 -16 20q-28 11 -78 18q-46 7 -79 7zM284 708q83 0 134 105q4 11 -3 15l-21 15q-10 7 -20 -3q-23 -26 -31 -37l-12 -12q-18 -18 -45 -18q-22 0 -39 11t-57 58q-10 10 -18 3l-19 -17q-9 -9 -2 -22q20 -45 56.5 -71.5
t76.5 -26.5z" />
    <glyph glyph-name="gbreve" unicode="&#x11f;" horiz-adv-x="445" 
 />
    <glyph glyph-name="Gdotaccent" unicode="&#x120;" horiz-adv-x="525" 
 />
    <glyph glyph-name="gdotaccent" unicode="&#x121;" horiz-adv-x="445" 
d="M234 -184q111 0 144 52q28 44 28 131v433q0 33 -26 41q-69 24 -157 24q-99 0 -142.5 -62.5t-43.5 -193.5q0 -126 36 -188t138 -62q53 0 118 27v-36q0 -54 -22 -75.5t-78 -21.5q-61 0 -125 9q-20 3 -22 -11l-4 -23q-3 -15 11 -21q55 -23 145 -23zM116 250q0 105 28 139
q29 35 83 35q38 0 101 -10v-331q-63 -22 -119 -22q-51 0 -72 42t-21 147zM275 609q0 42 -40 42q-41 0 -41 -42q0 -45 41 -45q40 0 40 45z" />
    <glyph glyph-name="uni0122" unicode="&#x122;" horiz-adv-x="525" 
d="M279 670q-136 0 -186 -108q-42 -93 -42 -237q0 -165 57.5 -249t180.5 -84q81 0 153 25q28 10 28 36v285q0 7 -6 12.5t-17 5.5h-133q-20 0 -20 -17v-39q0 -11 4 -14.5t17 -3.5h73v-202q-34 -15 -104 -15q-88 0 -121 80q-27 70 -27 179q0 120 24 189q29 83 119 83
q54 0 146 -13q8 -1 12.5 1t6 4.5t2.5 8.5l6 28q3 13 -16 20q-28 11 -78 18q-46 7 -79 7zM326 -111q0 39 -27 66q-10 13 -26 1l-33 -27q-11 -10 -4 -23q21 -36 21 -57q0 -33 -30 -70q-7 -7 -1 -14l12 -14q6 -7 19 3q69 51 69 135z" />
    <glyph glyph-name="uni0123" unicode="&#x123;" horiz-adv-x="445" 
d="M200 618q0 -39 27 -66q10 -13 26 -1l33 27q11 10 4 23q-21 36 -21 57q0 32 30 70q7 8 1 14l-12 14q-6 7 -19 -3q-69 -51 -69 -135zM234 -184q111 0 144 52q28 44 28 131v433q0 33 -26 41q-69 24 -157 24q-99 0 -142.5 -62.5t-43.5 -193.5q0 -126 36 -188t138 -62
q53 0 118 27v-36q0 -54 -22 -75.5t-78 -21.5q-61 0 -125 9q-20 3 -22 -11l-4 -23q-3 -15 11 -21q55 -23 145 -23zM116 250q0 105 28 139q29 35 83 35q38 0 101 -10v-331q-63 -22 -119 -22q-51 0 -72 42t-21 147z" />
    <glyph glyph-name="Hcircumflex" unicode="&#x124;" horiz-adv-x="518" 
d="M460 645q0 18 -16 18h-43q-18 0 -18 -18v-258h-248v258q0 18 -16 18h-43q-18 0 -18 -18v-628q0 -17 18 -17h43q16 0 16 17v298h248v-298q0 -17 18 -17h43q16 0 16 17v628zM398 729q6 6 -3 17l-87 93q-9 10 -27 10h-41q-17 0 -27 -10l-90 -98q-7 -9 0 -16l18 -18
q9 -9 21 1l98 82l95 -77q15 -12 24 -3z" />
    <glyph glyph-name="hcircumflex" unicode="&#x125;" horiz-adv-x="445" 
d="M124 688q0 17 -18 17h-41q-16 0 -16 -17v-671q0 -17 16 -17h41q18 0 18 17v362q89 47 138 47q38 0 52.5 -22.5t14.5 -86.5l-1 -300q0 -17 17 -17h42q18 0 18 17v296q0 86 -21 130q-24 53 -112 53q-67 0 -143 -52l-5 2v242zM229 744q6 6 -3 17l-87 93q-9 10 -27 10h-41
q-17 0 -27 -10l-90 -98q-7 -9 0 -16l18 -18q9 -9 21 1l98 82l95 -77q15 -12 24 -3z" />
    <glyph glyph-name="Hbar" unicode="&#x126;" horiz-adv-x="518" 
d="M460 488h42q14 0 14 14v28q0 15 -15 15h-41v100q0 18 -16 18h-43q-18 0 -18 -18v-100h-248v100q0 18 -16 18h-43q-18 0 -18 -18v-100h-40q-15 0 -15 -15v-28q0 -14 14 -14h41v-471q0 -17 18 -17h43q16 0 16 17v298h248v-298q0 -17 18 -17h43q16 0 16 17v471zM135 488h248
v-101h-248v101z" />
    <glyph glyph-name="hbar" unicode="&#x127;" horiz-adv-x="445" 
d="M117 545h159q17 0 17 17v27q0 17 -17 17h-159v82q0 17 -18 17h-41q-16 0 -16 -17v-82h-47q-17 0 -17 -18v-26q0 -17 17 -17h47v-528q0 -17 16 -17h41q18 0 18 17v362q89 47 138 47q38 0 52.5 -22.5t14.5 -86.5l-1 -300q0 -17 17 -17h42q18 0 18 17v296q0 86 -21 130
q-24 53 -112 53q-67 0 -143 -52l-5 2v99z" />
    <glyph glyph-name="Itilde" unicode="&#x128;" horiz-adv-x="221" 
d="M153 645q0 18 -17 18h-44q-18 0 -18 -18v-628q0 -17 18 -17h44q17 0 17 17v628zM179 723q61 0 84 83q3 12 -8 17l-18 7q-12 5 -22 -11q-17 -33 -36 -33q-11 0 -54 23q-48 27 -75 27t-50 -20t-37 -61q-3 -13 6 -17l18 -8q11 -4 14 -3t6 8q18 37 41 37q17 0 60 -23
q47 -26 71 -26z" />
    <glyph glyph-name="itilde" unicode="&#x129;" horiz-adv-x="223" 
d="M180 553q61 0 84 83q3 12 -8 17l-18 7q-12 5 -22 -11q-16 -33 -36 -33q-11 0 -54 23q-48 27 -75 27t-50 -20t-37 -61q-3 -13 6 -17l18 -8q11 -4 14 -3t6 8q19 37 41 37q17 0 60 -23q47 -26 71 -26zM152 470q0 17 -16 17h-41q-18 0 -18 -17v-453q0 -17 18 -17h41
q16 0 16 17v453z" />
    <glyph glyph-name="Imacron" unicode="&#x12a;" horiz-adv-x="221" 
d="M150 645q0 18 -17 18h-44q-18 0 -18 -18v-628q0 -17 18 -17h44q17 0 17 17v628zM236 784q0 14 -17 14h-218q-16 0 -16 -14v-38q0 -13 16 -13h218q17 0 17 13v38z" />
    <glyph glyph-name="imacron" unicode="&#x12b;" horiz-adv-x="223" 
d="M149 470q0 17 -16 17h-41q-18 0 -18 -17v-453q0 -17 18 -17h41q16 0 16 17v453zM236 623q0 13 -14 13h-222q-14 0 -14 -13v-38q0 -12 14 -12h222q14 0 14 12v38z" />
    <glyph glyph-name="Ibreve" unicode="&#x12c;" horiz-adv-x="221" 
d="M119 708q83 0 134 105q5 11 -3 15l-21 15q-10 7 -20 -3q-23 -26 -31 -37l-12 -12q-18 -18 -45 -18q-22 0 -39 11t-57 58q-11 10 -18 3l-19 -17q-9 -9 -2 -22q20 -45 56.5 -71.5t76.5 -26.5zM157 645q0 18 -17 18h-44q-18 0 -18 -18v-628q0 -17 18 -17h44q17 0 17 17v628z
" />
    <glyph glyph-name="ibreve" unicode="&#x12d;" horiz-adv-x="223" 
d="M120 549q37 0 73 26.5t57 70.5q8 15 -2 22l-18 14q-10 7 -20 -3q-14 -14 -26 -31q-13 -17 -20 -22q-23 -18 -42 -18q-32 0 -62 30l-33 41q-11 12 -21 3l-18 -16q-8 -8 -1 -21q21 -45 57 -70.5t76 -25.5zM156 470q0 17 -16 17h-41q-18 0 -18 -17v-453q0 -17 18 -17h41
q16 0 16 17v453z" />
    <glyph glyph-name="Iogonek" unicode="&#x12e;" horiz-adv-x="221" 
d="M79 -98q0 46 37 98h17q17 0 17 17v628q0 18 -17 18h-44q-18 0 -18 -18v-635q-53 -55 -53 -116q0 -42 26 -64.5t74 -19.5q32 2 62 18q7 4 6 11l-7 24q-1 6 -14 4q-24 -7 -45 -7q-41 0 -41 42z" />
    <glyph glyph-name="iogonek" unicode="&#x12f;" horiz-adv-x="194" 
d="M66 -98q0 46 37 98h16q16 0 16 17v453q0 17 -16 17h-41q-18 0 -18 -17v-453v-6q-55 -58 -55 -117q0 -42 26 -64.5t74 -19.5q32 2 62 18q7 4 6 11l-7 24q-1 6 -14 4q-24 -7 -45 -7q-41 0 -41 42zM55 617q0 -45 42 -45q25 0 34 11q9 12 9 34t-9 32q-9 11 -34 11
q-42 0 -42 -43z" />
    <glyph glyph-name="Idotaccent" unicode="&#x130;" horiz-adv-x="221" 
d="M150 645q0 18 -17 18h-44q-18 0 -18 -18v-628q0 -17 18 -17h44q17 0 17 17v628zM150 779q0 42 -40 42q-41 0 -41 -42q0 -45 41 -45q40 0 40 45z" />
    <glyph glyph-name="dotlessi" unicode="&#x131;" horiz-adv-x="223" 
d="M149 470q0 17 -16 17h-41q-18 0 -18 -17v-453q0 -17 18 -17h41q16 0 16 17v453z" />
    <glyph glyph-name="IJ" unicode="&#x132;" horiz-adv-x="557" 
d="M150 645q0 18 -17 18h-44q-18 0 -18 -18v-628q0 -17 18 -17h44q17 0 17 17v628zM490 645q0 18 -18 18h-43q-18 0 -18 -18v-478q0 -53 -21 -77t-69 -24q-36 0 -100 9q-15 3 -18 -10l-7 -29q-4 -15 15 -24q53 -21 118 -21q161 0 161 169v485z" />
    <glyph glyph-name="ij" unicode="&#x133;" horiz-adv-x="387" 
d="M327 470q0 17 -18 17h-40q-18 0 -18 -17v-506q0 -58 -20 -76t-85 -32q-15 -3 -14 -19l2 -23q2 -17 20 -17q114 -5 145 49q28 43 28 120v504zM246 617q0 -45 42 -45q25 0 33 11q9 12 9 34t-9 32q-8 11 -33 11q-42 0 -42 -43zM55 617q0 -45 42 -45q25 0 34 11q9 12 9 34
t-9 32q-9 11 -34 11q-42 0 -42 -43zM135 470q0 17 -16 17h-41q-18 0 -18 -17v-453q0 -17 18 -17h41q16 0 16 17v453z" />
    <glyph glyph-name="Jcircumflex" unicode="&#x134;" horiz-adv-x="364" 
d="M300 646q0 18 -18 18h-43q-18 0 -18 -18v-478q0 -53 -21 -77t-69 -24q-35 0 -100 9q-15 3 -18 -10l-7 -29q-4 -15 15 -24q52 -21 118 -21q161 0 161 169v485zM404 731q6 6 -3 17l-87 93q-9 10 -27 10h-41q-17 0 -27 -10l-90 -98q-7 -9 0 -16l18 -18q9 -9 21 1l98 82
l95 -77q15 -12 24 -3z" />
    <glyph glyph-name="jcircumflex" unicode="&#x135;" horiz-adv-x="209" 
d="M148 470q0 17 -18 17h-40q-18 0 -18 -17v-506q0 -58 -20 -76t-85 -32q-15 -3 -14 -19l2 -23q2 -17 20 -17q114 -5 145 49q28 43 28 120v504zM4 541q11 -8 18 1l90 102l92 -104q5 -7 16 1l21 16q7 5 -1 16l-79 119q-7 10 -29 10h-40q-16 0 -27 -11l-82 -119q-7 -7 1 -15z
" />
    <glyph glyph-name="uni0136" unicode="&#x136;" horiz-adv-x="478" 
d="M462 649q4 5 2 9.5t-9 4.5h-61q-15 0 -23 -11l-135 -194q-70 -100 -102 -151l-2 1v337q0 18 -16 18h-43q-18 0 -18 -18v-628q0 -17 18 -17h43q16 0 16 17v167l90 127l152 -297q8 -14 23 -14h61q7 0 9 4.5t-1 9.5l-194 367zM275 -109q0 39 -27 66q-10 13 -26 1l-33 -27
q-11 -10 -4 -23q21 -36 21 -57q0 -33 -30 -70q-8 -7 -1 -14l12 -14q6 -7 19 3q69 51 69 135z" />
    <glyph glyph-name="uni0137" unicode="&#x137;" horiz-adv-x="388" 
d="M299 14q8 -14 23 -14h51q7 0 10.5 6t-0.5 12l-149 270l129 181q5 7 2 13t-11 6h-52q-12 0 -22 -13l-92 -134l-61 -92l-2 1v438q0 17 -18 17h-41q-17 0 -17 -17v-671q0 -17 17 -17h41q18 0 18 17v118l63 89zM239 -109q0 39 -27 66q-10 13 -26 1l-33 -27q-11 -10 -4 -23
q21 -36 21 -57q0 -33 -30 -70q-8 -7 -1 -14l12 -14q6 -7 19 3q69 51 69 135z" />
    <glyph glyph-name="kgreenlandic" unicode="&#x138;" horiz-adv-x="388" 
d="M299 14q8 -14 23 -14h51q7 0 10.5 6t-0.5 12l-149 270l129 180q5 8 2 13.5t-11 5.5h-52q-12 0 -22 -13l-92 -133l-61 -92l-2 1v220q0 17 -18 17h-41q-17 0 -17 -17v-453q0 -17 17 -17h41q18 0 18 17v118l63 89z" />
    <glyph glyph-name="Lacute" unicode="&#x139;" horiz-adv-x="421" 
d="M419 54q0 10 -3.5 13.5t-13.5 3.5h-260v574q0 18 -16 18h-44q-17 0 -17 -18v-629q0 -16 18 -16h320q16 0 16 16v38zM195 848q-9 14 -20 3l-110 -94q-10 -7 -4 -15l18 -23q7 -9 18 -3l120 75q12 7 6 17z" />
    <glyph glyph-name="lacute" unicode="&#x13a;" horiz-adv-x="206" 
d="M139 -5q24 0 51 11q12 5 10 17l-4 31q-2 11 -19 11q-24 0 -31.5 6.5t-7.5 29.5v584q0 18 -21 18h-34q-20 0 -20 -18v-607q0 -43 17 -63t59 -20zM193 884q-9 14 -20 3l-110 -94q-10 -7 -4 -15l18 -23q7 -9 18 -3l120 75q12 7 6 17z" />
    <glyph glyph-name="uni013B" unicode="&#x13b;" horiz-adv-x="421" 
d="M413 54q0 10 -3.5 13.5t-13.5 3.5h-260v574q0 18 -16 18h-44q-17 0 -17 -18v-629q0 -16 18 -16h320q16 0 16 16v38zM270 -112q0 39 -27 66q-10 13 -26 1l-33 -27q-11 -10 -4 -23q21 -36 21 -57q0 -33 -30 -70q-7 -8 -1 -14l12 -14q6 -7 19 3q69 51 69 135z" />
    <glyph glyph-name="uni013C" unicode="&#x13c;" horiz-adv-x="206" 
d="M139 -5q24 0 51 11q12 5 10 17l-4 31q-2 11 -19 11q-24 0 -31.5 6.5t-7.5 29.5v584q0 18 -21 18h-34q-20 0 -20 -18v-607q0 -43 17 -63t59 -20zM162 -111q0 39 -27 66q-10 13 -26 1l-33 -27q-11 -10 -4 -23q21 -36 21 -57q0 -33 -30 -70q-7 -7 -1 -14l12 -14q6 -7 19 3
q69 51 69 135z" />
    <glyph glyph-name="Lcaron" unicode="&#x13d;" horiz-adv-x="421" 
d="M413 54q0 10 -3.5 13.5t-13.5 3.5h-260v574q0 18 -16 18h-44q-17 0 -17 -18v-629q0 -16 18 -16h320q16 0 16 16v38zM369 588q0 39 -27 66q-10 13 -26 1l-33 -27q-11 -10 -4 -23q21 -36 21 -57q0 -32 -30 -70q-8 -8 -1 -14l12 -14q6 -7 19 3q69 51 69 135z" />
    <glyph glyph-name="lcaron" unicode="&#x13e;" horiz-adv-x="290" 
d="M133 -5q24 0 51 11q12 5 10 17l-4 31q-2 11 -19 11q-24 0 -31.5 6.5t-7.5 29.5v584q0 18 -21 18h-34q-20 0 -20 -18v-607q0 -43 17 -63t59 -20zM299 637q0 39 -27 66q-10 13 -26 1l-33 -27q-11 -10 -4 -23q21 -36 21 -57q0 -33 -30 -70q-8 -7 -1 -14l12 -14q6 -7 19 3
q69 51 69 135z" />
    <glyph glyph-name="Ldot" unicode="&#x13f;" horiz-adv-x="421" 
 />
    <glyph glyph-name="ldot" unicode="&#x140;" horiz-adv-x="275" 
d="M133 -5q24 0 51 11q12 5 10 17l-4 31q-2 11 -19 11q-24 0 -31.5 6.5t-7.5 29.5v584q0 18 -21 18h-34q-20 0 -20 -18v-607q0 -43 17 -63t59 -20zM257 350q0 42 -40 42q-41 0 -41 -42q0 -45 41 -45q40 0 40 45z" />
    <glyph glyph-name="Lslash" unicode="&#x141;" horiz-adv-x="421" 
d="M420 54q0 10 -3.5 13.5t-13.5 3.5h-260v191l133 76q12 6 6 17l-16 27q-6 11 -19 4l-104 -60v319q0 18 -16 18h-44q-17 0 -17 -18v-363l-59 -33q-12 -6 -5 -18l15 -27q6 -10 18 -3l31 17v-202q0 -16 18 -16h320q16 0 16 16v38z" />
    <glyph glyph-name="lslash" unicode="&#x142;" horiz-adv-x="206" 
d="M140 -5q24 0 51 11q12 5 10 17l-4 31q-2 11 -19 11q-24 0 -31.5 6.5t-7.5 29.5v216l78 44q12 6 6 17l-16 27q-6 11 -19 4l-49 -28v304q0 18 -21 18h-34q-20 0 -20 -18v-347l-63 -35q-12 -6 -5 -18l15 -27q6 -10 18 -3l35 19v-196q0 -43 17 -63t59 -20z" />
    <glyph glyph-name="Nacute" unicode="&#x143;" horiz-adv-x="547" 
d="M410 16q10 -16 26 -16h38q16 0 16 16v629q0 18 -16 18h-42q-17 0 -17 -18v-490h-3q-32 65 -77 147l-195 345q-10 16 -25 16h-41q-16 0 -16 -15v-631q0 -17 18 -17h41q17 0 17 17v494h3q18 -41 81 -154zM369 848q-9 14 -20 3l-110 -94q-10 -7 -4 -15l18 -23q7 -9 18 -3
l120 75q12 7 6 17z" />
    <glyph glyph-name="nacute" unicode="&#x144;" horiz-adv-x="436" 
d="M115 470q0 17 -18 17h-41q-16 0 -16 -17v-453q0 -17 16 -17h41q18 0 18 17v362q89 47 138 47q38 0 52.5 -22.5t14.5 -86.5l-1 -300q0 -17 17 -17h42q18 0 18 17v296q0 86 -21 130q-24 53 -112 53q-67 0 -143 -52l-5 2v24zM294 678q8 10 -3 15l-46 20q-13 6 -17 -3
l-62 -143q-5 -11 3 -14l29 -10q10 -5 15 3z" />
    <glyph glyph-name="uni0145" unicode="&#x145;" horiz-adv-x="547" 
d="M410 16q10 -16 26 -16h38q16 0 16 16v629q0 18 -16 18h-42q-17 0 -17 -18v-490h-3q-32 65 -77 147l-195 345q-10 16 -25 16h-41q-16 0 -16 -15v-631q0 -17 18 -17h41q17 0 17 17v494h3q18 -41 81 -154zM313 -110q0 39 -27 66q-10 13 -26 1l-33 -27q-11 -10 -4 -23
q21 -36 21 -57q0 -32 -30 -70q-8 -8 -1 -14l12 -14q6 -7 19 3q69 51 69 135z" />
    <glyph glyph-name="uni0146" unicode="&#x146;" horiz-adv-x="436" 
d="M115 470q0 17 -18 17h-41q-16 0 -16 -17v-453q0 -17 16 -17h41q18 0 18 17v362q89 47 138 47q38 0 52.5 -22.5t14.5 -86.5l-1 -300q0 -17 17 -17h42q18 0 18 17v296q0 86 -21 130q-24 53 -112 53q-67 0 -143 -52l-5 2v24zM251 -109q0 39 -27 66q-10 13 -26 1l-33 -27
q-11 -10 -4 -23q21 -36 21 -57q0 -33 -30 -70q-8 -7 -1 -14l12 -14q6 -7 19 3q69 51 69 135z" />
    <glyph glyph-name="Ncaron" unicode="&#x147;" horiz-adv-x="547" 
d="M410 16q10 -16 26 -16h38q16 0 16 16v629q0 18 -16 18h-42q-17 0 -17 -18v-490h-3q-32 65 -77 147l-195 345q-10 16 -25 16h-41q-16 0 -16 -15v-631q0 -17 18 -17h41q17 0 17 17v494h3q18 -41 81 -154zM400 850q-9 9 -24 -3l-95 -80l-99 85q-12 12 -21 1l-16 -20
q-6 -7 0 -15l89 -97q10 -10 27 -10h41q18 0 27 10l87 93q9 9 1 18z" />
    <glyph glyph-name="ncaron" unicode="&#x148;" horiz-adv-x="436" 
d="M115 470q0 17 -18 17h-41q-16 0 -16 -17v-453q0 -17 16 -17h41q18 0 18 17v362q89 47 138 47q38 0 52.5 -22.5t14.5 -86.5l-1 -300q0 -17 17 -17h42q18 0 18 17v296q0 86 -21 130q-24 53 -112 53q-67 0 -143 -52l-5 2v24zM323 696q-11 8 -16 1l-92 -104l-90 102
q-7 9 -18 1l-20 -16q-8 -8 -1 -15l82 -119q11 -11 27 -11h40q22 0 29 10l79 119q7 11 1 16z" />
    <glyph glyph-name="napostrophe" unicode="&#x149;" horiz-adv-x="515" 
d="M200 470q0 17 -18 17h-41q-16 0 -16 -17v-453q0 -17 16 -17h41q18 0 18 17v362q89 47 138 47q38 0 52.5 -22.5t14.5 -86.5l-1 -300q0 -17 17 -17h42q18 0 18 17v296q0 86 -21 130q-24 53 -112 53q-67 0 -143 -52l-5 2v24zM118 626q0 39 -27 66q-10 13 -26 1l-33 -27
q-11 -10 -4 -23q21 -36 21 -57q0 -32 -30 -70q-7 -8 -1 -14l12 -14q6 -7 19 3q69 51 69 135z" />
    <glyph glyph-name="Eng" unicode="&#x14a;" horiz-adv-x="547" 
d="M414 9v-60q0 -36 -17.5 -47t-68.5 -7q-14 2 -15 -10l-6 -36q-3 -11 6 -15q19 -10 54 -10q123 0 123 116v705q0 18 -16 18h-42q-17 0 -17 -18v-490h-3q-32 65 -77 147l-195 345q-10 16 -25 16h-41q-16 0 -16 -15v-631q0 -17 18 -17h41q17 0 17 17v494h3q18 -41 81 -154z
" />
    <glyph glyph-name="eng" unicode="&#x14b;" horiz-adv-x="436" 
d="M115 470q0 17 -18 17h-41q-16 0 -16 -17v-453q0 -17 16 -17h41q18 0 18 17v362q89 47 138 47q38 0 52.5 -22.5t14.5 -86.5q-2 -306 0 -368q0 -36 -17.5 -47t-68.5 -7q-14 2 -15 -10l-6 -36q-3 -11 6 -15q19 -10 54 -10q123 0 123 116v373q0 86 -21 130q-24 53 -112 53
q-67 0 -143 -52l-5 2v24z" />
    <glyph glyph-name="Omacron" unicode="&#x14c;" horiz-adv-x="555" 
d="M506 341q0 117 -22 188q-14 48 -38 75q-55 67 -170 67q-114 0 -171 -76q-24 -34 -37 -79q-20 -75 -20 -175q0 -93 11 -166q8 -46 22 -74q54 -115 194 -110q147 6 196 110q25 48 32 154q3 36 3 86zM426 331q0 -139 -34.5 -203.5t-116.5 -64.5q-80 0 -112.5 65t-32.5 203
q0 136 34 203t111 67q82 0 116.5 -64.5t34.5 -205.5zM402 784q0 14 -17 14h-218q-16 0 -16 -14v-38q0 -13 16 -13h218q17 0 17 13v38z" />
    <glyph glyph-name="omacron" unicode="&#x14d;" horiz-adv-x="439" 
d="M402 252q0 83 -17 136q-10 33 -31 57q-45 52 -138 52q-181 0 -181 -245q0 -84 15 -143q11 -39 28 -62q44 -55 138 -55q75 3 115.5 32t54.5 85q16 54 16 143zM325 245q0 -102 -23.5 -144t-85.5 -42q-59 0 -81.5 42.5t-22.5 143.5q0 100 22.5 142.5t81.5 42.5
q62 0 85.5 -42t23.5 -143zM341 623q0 13 -14 13h-222q-14 0 -14 -13v-38q0 -12 14 -12h222q14 0 14 12v38z" />
    <glyph glyph-name="Obreve" unicode="&#x14e;" horiz-adv-x="555" 
d="M506 341q0 117 -22 188q-14 48 -38 75q-55 67 -170 67q-114 0 -171 -76q-24 -34 -37 -79q-20 -75 -20 -175q0 -93 11 -166q8 -46 22 -74q54 -115 194 -110q147 6 196 110q25 48 32 154q3 36 3 86zM426 331q0 -139 -34.5 -203.5t-116.5 -64.5q-80 0 -112.5 65t-32.5 203
q0 136 34 203t111 67q82 0 116.5 -64.5t34.5 -205.5zM277 708q83 0 134 105q5 11 -3 15l-21 15q-10 7 -20 -3q-23 -26 -31 -37l-12 -12q-18 -18 -45 -18q-22 0 -39 11t-57 58q-11 10 -18 3l-19 -17q-9 -9 -2 -22q20 -45 56.5 -71.5t76.5 -26.5z" />
    <glyph glyph-name="obreve" unicode="&#x14f;" horiz-adv-x="439" 
d="M402 252q0 83 -17 136q-10 33 -31 57q-45 52 -138 52q-181 0 -181 -245q0 -84 15 -143q11 -39 28 -62q44 -55 138 -55q75 3 115.5 32t54.5 85q16 54 16 143zM325 245q0 -102 -23.5 -144t-85.5 -42q-59 0 -81.5 42.5t-22.5 143.5q0 100 22.5 142.5t81.5 42.5
q62 0 85.5 -42t23.5 -143zM216 543q37 0 73 26.5t57 70.5q8 15 -2 22l-18 14q-10 7 -20 -3q-13 -13 -26 -31q-13 -17 -20 -22q-23 -18 -42 -18q-32 0 -62 30l-33 41q-11 12 -21 3l-18 -16q-8 -8 -1 -21q21 -45 57 -70.5t76 -25.5z" />
    <glyph glyph-name="Ohungarumlaut" unicode="&#x150;" horiz-adv-x="555" 
d="M506 341q0 117 -22 188q-14 48 -38 75q-55 67 -170 67q-114 0 -171 -76q-24 -34 -37 -79q-20 -75 -20 -175q0 -93 11 -166q8 -46 22 -74q54 -115 194 -110q147 6 196 110q25 48 32 154q3 36 3 86zM426 331q0 -139 -34.5 -203.5t-116.5 -64.5q-80 0 -112.5 65t-32.5 203
q0 136 34 203t111 67q82 0 116.5 -64.5t34.5 -205.5zM290 843q-9 14 -20 3l-110 -94q-10 -7 -4 -15l18 -23q8 -9 18 -3l120 75q12 7 6 17zM420 843q-9 14 -20 3l-110 -94q-10 -7 -4 -15l18 -23q8 -9 18 -3l120 75q12 7 6 17z" />
    <glyph glyph-name="ohungarumlaut" unicode="&#x151;" horiz-adv-x="439" 
d="M402 252q0 83 -17 136q-10 33 -31 57q-45 52 -138 52q-181 0 -181 -245q0 -84 15 -143q11 -39 28 -62q44 -55 138 -55q75 3 115.5 32t54.5 85q16 54 16 143zM325 245q0 -102 -23.5 -144t-85.5 -42q-59 0 -81.5 42.5t-22.5 143.5q0 100 22.5 142.5t81.5 42.5
q62 0 85.5 -42t23.5 -143zM258 677q8 11 -3 15l-46 20q-13 6 -17 -3l-62 -143q-5 -11 3 -14l29 -10q10 -4 15 3zM366 677q8 11 -3 15l-46 20q-13 6 -17 -3l-62 -143q-5 -11 3 -14l29 -10q10 -4 15 3z" />
    <glyph glyph-name="OE" unicode="&#x152;" horiz-adv-x="671" 
d="M258 63q-82 0 -114.5 64.5t-32.5 203.5q0 140 33 205t114 65q16 0 45 -6v-526q-18 -6 -45 -6zM638 0q17 0 17 16v38q0 17 -16 17l-258 1v237h218q17 0 17 16v39q0 16 -17 16h-218v212l245 -1q18 0 18 17v39q0 16 -17 16h-300q-38 8 -69 8q-57 0 -101.5 -22.5t-69.5 -57.5
q-23 -31 -36 -81q-19 -73 -19 -169q0 -51 1 -70q1 -27 6 -68q10 -73 39 -124q52 -88 180 -88q37 0 70 9h310z" />
    <glyph glyph-name="oe" unicode="&#x153;" horiz-adv-x="710" 
d="M365 68q18 -35 55.5 -56t87.5 -21q78 0 143 27q14 6 11 20l-4 22q-4 16 -23 13q-74 -10 -122 -10q-58 0 -83 35t-26 121h239q45 0 43 57q-2 92 -33 150q-38 71 -146 71q-100 0 -139 -81l-5 1q-44 80 -147 80q-181 0 -181 -245q0 -84 15 -143q11 -39 28 -62
q44 -55 138 -55q102 0 142 75zM325 243q-2 -102 -25 -143t-84 -41q-59 0 -81.5 42.5t-22.5 143.5q0 100 22.5 142.5t81.5 42.5q61 0 84 -42t25 -145zM505 430q64 0 83 -46q19 -38 20 -102h-204q2 77 26 112.5t75 35.5z" />
    <glyph glyph-name="Racute" unicode="&#x154;" horiz-adv-x="458" 
d="M70 663q-17 0 -17 -16v-630q0 -17 17 -17h43q17 0 17 18v261h101l115 -266q6 -13 22 -13h57q10 0 10 10q0 6 -1 7l-124 273q57 18 85.5 68t28.5 117q0 92 -51 140t-135 48h-168zM219 591q61 0 92.5 -28t31.5 -92q0 -69 -31.5 -96t-94.5 -27h-87v243h89zM285 848
q-9 14 -20 3l-110 -94q-10 -7 -4 -15l18 -23q7 -9 18 -3l120 75q12 7 6 17z" />
    <glyph glyph-name="racute" unicode="&#x155;" horiz-adv-x="285" 
 />
    <glyph glyph-name="uni0156" unicode="&#x156;" horiz-adv-x="458" 
d="M70 663q-17 0 -17 -16v-630q0 -17 17 -17h43q17 0 17 18v261h101l115 -266q6 -13 22 -13h57q10 0 10 10q0 6 -1 7l-124 273q57 18 85.5 68t28.5 117q0 92 -51 140t-135 48h-168zM219 591q61 0 92.5 -28t31.5 -92q0 -69 -31.5 -96t-94.5 -27h-87v243h89zM266 -105
q0 39 -27 66q-10 13 -26 1l-33 -27q-11 -10 -4 -23q21 -36 21 -57q0 -33 -30 -70q-7 -7 -1 -14l12 -14q6 -7 19 3q69 51 69 135z" />
    <glyph glyph-name="uni0157" unicode="&#x157;" horiz-adv-x="285" 
d="M293 480q-1 16 -17 12q-72 -17 -127 -62l-2 2v38q0 17 -18 17h-42q-16 0 -16 -17v-453q0 -17 16 -17h43q17 0 17 17v353q47 24 136 47q14 5 13 20zM129 -125q0 39 -27 66q-10 13 -26 1l-33 -27q-11 -10 -4 -23q21 -36 21 -57q0 -33 -30 -70q-8 -7 -1 -14l12 -14
q6 -7 19 3q69 51 69 135z" />
    <glyph glyph-name="Rcaron" unicode="&#x158;" horiz-adv-x="458" 
d="M70 663q-17 0 -17 -16v-630q0 -17 17 -17h43q17 0 17 18v261h101l115 -266q6 -13 22 -13h57q10 0 10 10q0 6 -1 7l-124 273q57 18 85.5 68t28.5 117q0 92 -51 140t-135 48h-168zM219 591q61 0 92.5 -28t31.5 -92q0 -69 -31.5 -96t-94.5 -27h-87v243h89zM335 850
q-9 9 -24 -3l-95 -80l-99 85q-12 12 -21 1l-16 -20q-6 -7 0 -15l89 -97q10 -10 27 -10h41q18 0 27 10l87 93q9 9 1 18z" />
    <glyph glyph-name="rcaron" unicode="&#x159;" horiz-adv-x="285" 
d="M294 480q-1 16 -17 12q-72 -17 -127 -62l-2 2v38q0 17 -18 17h-42q-16 0 -16 -17v-453q0 -17 16 -17h43q17 0 17 17v353q47 24 136 47q14 5 13 20zM261 696q-11 8 -16 1l-92 -104l-90 102q-7 9 -18 1l-20 -16q-8 -8 -1 -15l82 -119q11 -11 27 -11h40q22 0 29 10l79 119
q7 11 1 16z" />
    <glyph glyph-name="Sacute" unicode="&#x15a;" horiz-adv-x="458" 
d="M427 184q0 118 -79 158q-40 23 -108 36t-95 32q-24 20 -24 74q0 56 26.5 84t86.5 28q48 0 143 -13q22 -2 24 13l5 24q5 15 -14 23q-58 26 -158 26q-93 0 -143 -48.5t-50 -139.5q0 -94 58 -130q51 -32 134 -48q67 -13 91 -39q24 -25 24 -92q0 -50 -32.5 -77.5t-93.5 -27.5
q-36 0 -153 14q-19 3 -22 -11l-6 -28q-5 -15 14 -23q59 -28 168 -28q95 0 149.5 47.5t54.5 145.5zM303 848q-9 14 -20 3l-110 -94q-10 -7 -4 -15l18 -23q7 -9 18 -3l120 75q12 7 6 17z" />
    <glyph glyph-name="sacute" unicode="&#x15b;" horiz-adv-x="379" 
d="M352 140q0 79 -49 110q-39 25 -102 38q-53 9 -69.5 21.5t-16.5 46.5q0 39 17 55t62 16q29 0 114 -8q25 -3 26 10l4 26q1 13 -10 19q-52 23 -133 23q-75 0 -116.5 -37t-41.5 -106q0 -71 50 -102q41 -25 106 -37q47 -7 64 -24q16 -16 16 -59q0 -37 -20.5 -54t-64.5 -17
q-37 0 -123 10q-13 1 -17.5 -1.5t-6.5 -11.5l-4 -21q-4 -14 11 -22q48 -23 137 -23q76 0 121.5 37t45.5 111zM277 678q7 10 -3 15l-46 20q-13 6 -17 -3l-62 -143q-5 -11 3 -14l29 -10q11 -5 15 3z" />
    <glyph glyph-name="Scircumflex" unicode="&#x15c;" horiz-adv-x="458" 
d="M427 184q0 118 -79 158q-40 23 -108 36t-95 32q-24 20 -24 74q0 56 26.5 84t86.5 28q48 0 143 -13q22 -2 24 13l5 24q5 15 -14 23q-58 26 -158 26q-93 0 -143 -48.5t-50 -139.5q0 -94 58 -130q51 -32 134 -48q67 -13 91 -39q24 -25 24 -92q0 -50 -32.5 -77.5t-93.5 -27.5
q-36 0 -153 14q-19 3 -22 -11l-6 -28q-5 -15 14 -23q59 -28 168 -28q95 0 149.5 47.5t54.5 145.5zM371 729q6 6 -3 17l-87 93q-9 10 -27 10h-41q-17 0 -27 -10l-90 -98q-7 -9 0 -16l18 -18q9 -9 21 1l98 82l95 -77q15 -12 24 -3z" />
    <glyph glyph-name="scircumflex" unicode="&#x15d;" horiz-adv-x="379" 
d="M352 140q0 79 -49 110q-39 25 -102 38q-53 9 -69.5 21.5t-16.5 46.5q0 39 17 55t62 16q29 0 114 -8q25 -3 26 10l4 26q1 13 -10 19q-52 23 -133 23q-75 0 -116.5 -37t-41.5 -106q0 -71 50 -102q41 -25 106 -37q47 -7 64 -24q16 -16 16 -59q0 -37 -20.5 -54t-64.5 -17
q-37 0 -123 10q-13 1 -17.5 -1.5t-6.5 -11.5l-4 -21q-4 -14 11 -22q48 -23 137 -23q76 0 121.5 37t45.5 111zM83 541q11 -8 18 1l90 102l92 -104q5 -7 16 1l21 16q7 5 -1 16l-79 119q-7 10 -29 10h-40q-16 0 -27 -11l-82 -119q-7 -7 1 -15z" />
    <glyph glyph-name="Scedilla" unicode="&#x15e;" horiz-adv-x="458" 
d="M246 -111q0 -35 -42 -35q-19 0 -49 5q-12 2 -14 -6l-5 -19q-1 -7 5 -10q30 -11 66 -11q94 0 94 78q0 32 -17.5 48.5t-60.5 18.5l11 33q91 2 142 50t51 143q0 118 -79 158q-40 23 -108 36t-95 32q-24 20 -24 74q0 56 26.5 84t86.5 28q48 0 143 -13q22 -2 24 13l5 24
q5 15 -14 23q-58 26 -158 26q-93 0 -143 -48.5t-50 -139.5q0 -94 58 -130q51 -32 134 -48q67 -13 91 -39q24 -25 24 -92q0 -50 -32.5 -77.5t-93.5 -27.5q-36 0 -153 14q-19 3 -22 -11l-6 -28q-5 -15 14 -23q44 -21 139 -27l-15 -48q-6 -21 15 -23q31 -2 41.5 -8t10.5 -24z
" />
    <glyph glyph-name="scedilla" unicode="&#x15f;" horiz-adv-x="379" 
d="M210 -111q0 -35 -42 -35q-19 0 -49 5q-12 2 -14 -6l-5 -19q-1 -7 5 -10q30 -11 66 -11q94 0 94 78q0 32 -17.5 48.5t-60.5 18.5l11 35q71 3 112.5 39.5t41.5 107.5q0 79 -49 110q-39 25 -102 38q-53 9 -69.5 21.5t-16.5 46.5q0 39 17 55t62 16q29 0 114 -8q25 -3 26 10
l4 26q1 13 -10 19q-52 23 -133 23q-75 0 -116.5 -37t-41.5 -106q0 -71 50 -102q41 -25 106 -37q47 -7 64 -24q16 -16 16 -59q0 -37 -20.5 -54t-64.5 -17q-37 0 -123 10q-13 1 -17.5 -1.5t-6.5 -11.5l-4 -21q-4 -14 11 -22q36 -17 110 -22l-15 -49q-6 -21 15 -23
q31 -2 41.5 -8t10.5 -24z" />
    <glyph glyph-name="Scaron" unicode="&#x160;" horiz-adv-x="458" 
d="M427 184q0 118 -79 158q-40 23 -108 36t-95 32q-24 20 -24 74q0 56 26.5 84t86.5 28q48 0 143 -13q22 -2 24 13l5 24q5 15 -14 23q-58 26 -158 26q-93 0 -143 -48.5t-50 -139.5q0 -94 58 -130q51 -32 134 -48q67 -13 91 -39q24 -25 24 -92q0 -50 -32.5 -77.5t-93.5 -27.5
q-36 0 -153 14q-19 3 -22 -11l-6 -28q-5 -15 14 -23q59 -28 168 -28q95 0 149.5 47.5t54.5 145.5zM342 850q-9 9 -24 -3l-95 -80l-99 85q-12 12 -21 1l-16 -20q-6 -7 0 -15l89 -97q10 -10 27 -10h41q18 0 27 10l87 93q9 9 1 18z" />
    <glyph glyph-name="scaron" unicode="&#x161;" horiz-adv-x="379" 
d="M352 140q0 79 -49 110q-39 25 -102 38q-53 9 -69.5 21.5t-16.5 46.5q0 39 17 55t62 16q29 0 114 -8q25 -3 26 10l4 26q1 13 -10 19q-52 23 -133 23q-75 0 -116.5 -37t-41.5 -106q0 -71 50 -102q41 -25 106 -37q47 -7 64 -24q16 -16 16 -59q0 -37 -20.5 -54t-64.5 -17
q-37 0 -123 10q-13 1 -17.5 -1.5t-6.5 -11.5l-4 -21q-4 -14 11 -22q48 -23 137 -23q76 0 121.5 37t45.5 111zM296 696q-11 8 -16 1l-92 -104l-90 102q-7 9 -18 1l-20 -16q-8 -8 -1 -15l82 -119q11 -11 27 -11h40q22 0 29 10l79 119q7 11 1 16z" />
    <glyph glyph-name="uni0162" unicode="&#x162;" horiz-adv-x="418" 
d="M410 647q0 16 -17 16h-367q-17 0 -17 -16v-39q0 -17 18 -17h143v-574q0 -17 18 -17h43q16 0 16 17v574h145q18 0 18 17v39zM254 -125q0 39 -27 66q-10 13 -26 1l-33 -27q-11 -10 -4 -23q21 -36 21 -57q0 -33 -30 -70q-7 -7 -1 -14l12 -14q6 -7 19 3q69 51 69 135z" />
    <glyph glyph-name="uni0163" unicode="&#x163;" horiz-adv-x="281" 
d="M284 54q-2 9 -6 11.5t-16 1.5q-38 -5 -58 -5q-31 0 -40.5 11.5t-9.5 47.5v303h93q17 0 17 17v29q0 17 -17 17h-93v123q0 20 -17 15l-40 -11q-17 -5 -17 -19v-108h-46q-17 0 -17 -18v-28q0 -17 17 -17h45v-326q0 -55 23 -80.5t81 -25.5t96 20q10 6 9 19zM173 -125
q0 39 -27 66q-10 13 -26 1l-33 -27q-11 -10 -4 -23q21 -36 21 -57q0 -33 -30 -70q-8 -7 -1 -14l12 -14q6 -7 19 3q69 51 69 135z" />
    <glyph glyph-name="Tcaron" unicode="&#x164;" horiz-adv-x="418" 
d="M410 647q0 16 -17 16h-367q-17 0 -17 -16v-39q0 -17 18 -17h143v-574q0 -17 18 -17h43q16 0 16 17v574h145q18 0 18 17v39zM328 850q-9 9 -24 -3l-95 -80l-99 85q-12 12 -21 1l-16 -20q-6 -7 0 -15l89 -97q10 -10 27 -10h41q18 0 27 10l87 93q9 9 1 18z" />
    <glyph glyph-name="tcaron" unicode="&#x165;" horiz-adv-x="326" 
d="M284 54q-2 9 -6 11.5t-16 1.5q-38 -5 -58 -5q-31 0 -40.5 11.5t-9.5 47.5v303h93q17 0 17 17v29q0 17 -17 17h-93v123q0 20 -17 15l-40 -11q-17 -5 -17 -19v-108h-46q-17 0 -17 -18v-28q0 -17 17 -17h45v-326q0 -55 23 -80.5t81 -25.5t96 20q10 6 9 19zM333 684
q0 39 -27 66q-10 13 -26 1l-33 -27q-11 -10 -4 -23q21 -36 21 -57q0 -32 -30 -70q-8 -8 -1 -14l12 -14q6 -7 19 3q69 51 69 135z" />
    <glyph glyph-name="Tbar" unicode="&#x166;" horiz-adv-x="418" 
d="M410 647q0 16 -17 16h-367q-17 0 -17 -16v-39q0 -17 18 -17h143v-192h-106q-15 0 -15 -15v-28q0 -14 14 -14h107v-325q0 -17 18 -17h43q16 0 16 17v325h116q14 0 14 14v28q0 15 -15 15h-115v192h145q18 0 18 17v39z" />
    <glyph glyph-name="tbar" unicode="&#x167;" horiz-adv-x="281" 
d="M284 54q-2 9 -6 11.5t-16 1.5q-38 -5 -58 -5q-31 0 -40.5 11.5t-9.5 47.5v139h88q14 0 14 14v28q0 15 -15 15h-87v107h93q17 0 17 17v29q0 17 -17 17h-93v123q0 20 -17 15l-40 -11q-17 -5 -17 -19v-108h-46q-17 0 -17 -18v-28q0 -17 17 -17h45v-107h-41q-15 0 -15 -15
v-28q0 -14 14 -14h42v-162q0 -55 23 -80.5t81 -25.5t96 20q10 6 9 19z" />
    <glyph glyph-name="Utilde" unicode="&#x168;" horiz-adv-x="528" 
d="M264 66q-71 0 -101 40t-30 131v407q0 19 -21 19h-36q-21 0 -21 -19v-418q0 -233 209 -233q59 0 101.5 18.5t65.5 52.5t33.5 74t10.5 89v417q0 19 -20 19h-36q-21 0 -21 -19v-407q0 -88 -32.5 -129.5t-101.5 -41.5zM338 713q61 0 84 83q3 12 -8 17l-18 7q-12 5 -22 -11
q-16 -33 -36 -33q-11 0 -54 23q-48 27 -75 27t-50 -20t-37 -61q-3 -13 6 -17l18 -8q11 -4 14 -3t6 8q18 37 41 37q17 0 60 -23q47 -26 71 -26z" />
    <glyph glyph-name="utilde" unicode="&#x169;" horiz-adv-x="436" 
 />
    <glyph glyph-name="Umacron" unicode="&#x16a;" horiz-adv-x="528" 
d="M264 66q-71 0 -101 40t-30 131v407q0 19 -21 19h-36q-21 0 -21 -19v-418q0 -233 209 -233q59 0 101.5 18.5t65.5 52.5t33.5 74t10.5 89v417q0 19 -20 19h-36q-21 0 -21 -19v-407q0 -88 -32.5 -129.5t-101.5 -41.5zM399 784q0 14 -17 14h-218q-16 0 -16 -14v-38
q0 -13 16 -13h218q17 0 17 13v38z" />
    <glyph glyph-name="umacron" unicode="&#x16b;" horiz-adv-x="436" 
d="M317 17q0 -17 18 -17h41q16 0 16 17v453q0 17 -16 17h-41q-18 0 -18 -17v-362q-89 -47 -130 -47q-39 0 -53 21t-14 84l1 304q0 17 -17 17h-42q-18 0 -18 -17v-320q-2 -91 31 -128q31 -31 96 -31t141 52l5 -2v-24zM347 623q0 13 -14 13h-222q-14 0 -14 -13v-38
q0 -12 14 -12h222q14 0 14 12v38z" />
    <glyph glyph-name="Ubreve" unicode="&#x16c;" horiz-adv-x="528" 
 />
    <glyph glyph-name="ubreve" unicode="&#x16d;" horiz-adv-x="436" 
d="M317 17q0 -17 18 -17h41q16 0 16 17v453q0 17 -16 17h-41q-18 0 -18 -17v-362q-89 -47 -130 -47q-39 0 -53 21t-14 84l1 304q0 17 -17 17h-42q-18 0 -18 -17v-320q-2 -91 31 -128q31 -31 96 -31t141 52l5 -2v-24zM222 543q37 0 73 26.5t57 70.5q8 15 -2 22l-18 14
q-10 7 -20 -3q-14 -13 -26 -31q-13 -17 -20 -22q-23 -18 -42 -18q-32 0 -62 30l-33 41q-11 12 -21 3l-18 -16q-8 -8 -1 -21q21 -45 57 -70.5t76 -25.5z" />
    <glyph glyph-name="Uring" unicode="&#x16e;" horiz-adv-x="528" 
d="M315 777q0 -21 -11.5 -34.5t-30.5 -13.5q-41 0 -41 48q0 18 12 32.5t29 14.5q18 0 30 -14t12 -33zM365 777q0 37 -26.5 63t-65.5 26q-40 0 -67 -25t-27 -64q0 -40 26.5 -65t67.5 -25q40 0 66 26t26 64zM264 66q-71 0 -101 40t-30 131v407q0 19 -21 19h-36q-21 0 -21 -19
v-418q0 -233 209 -233q59 0 101.5 18.5t65.5 52.5t33.5 74t10.5 89v417q0 19 -20 19h-36q-21 0 -21 -19v-407q0 -88 -32.5 -129.5t-101.5 -41.5z" />
    <glyph glyph-name="uring" unicode="&#x16f;" horiz-adv-x="436" 
d="M317 17q0 -17 18 -17h41q16 0 16 17v453q0 17 -16 17h-41q-18 0 -18 -17v-362q-89 -47 -130 -47q-39 0 -53 21t-14 84l1 304q0 17 -17 17h-42q-18 0 -18 -17v-320q-2 -91 31 -128q31 -31 96 -31t141 52l5 -2v-24zM260 615q0 -21 -11.5 -34.5t-30.5 -13.5q-41 0 -41 48
q0 18 12 32.5t29 14.5q18 0 30 -14t12 -33zM310 615q0 37 -26.5 63t-65.5 26q-40 0 -67 -25t-27 -64q0 -40 26.5 -65t67.5 -25q40 0 66 26t26 64z" />
    <glyph glyph-name="Uhungarumlaut" unicode="&#x170;" horiz-adv-x="528" 
d="M264 66q-71 0 -101 40t-30 131v407q0 19 -21 19h-36q-21 0 -21 -19v-418q0 -233 209 -233q59 0 101.5 18.5t65.5 52.5t33.5 74t10.5 89v417q0 19 -20 19h-36q-21 0 -21 -19v-407q0 -88 -32.5 -129.5t-101.5 -41.5zM279 843q-9 14 -20 3l-110 -94q-10 -7 -4 -15l18 -23
q7 -9 18 -3l120 75q12 7 6 17zM409 843q-9 14 -20 3l-110 -94q-10 -7 -4 -15l18 -23q7 -9 18 -3l120 75q12 7 6 17z" />
    <glyph glyph-name="uhungarumlaut" unicode="&#x171;" horiz-adv-x="436" 
d="M317 17q0 -17 18 -17h41q16 0 16 17v453q0 17 -16 17h-41q-18 0 -18 -17v-362q-89 -47 -130 -47q-39 0 -53 21t-14 84l1 304q0 17 -17 17h-42q-18 0 -18 -17v-320q-2 -91 31 -128q31 -31 96 -31t141 52l5 -2v-24zM272 677q8 11 -3 15l-46 20q-13 6 -17 -3l-62 -143
q-5 -11 3 -14l29 -10q10 -4 15 3zM380 677q8 11 -3 15l-46 20q-13 6 -17 -3l-62 -143q-5 -11 3 -14l29 -10q10 -4 15 3z" />
    <glyph glyph-name="Uogonek" unicode="&#x172;" horiz-adv-x="528" 
d="M302 -140q-41 0 -41 42t33 93q181 16 181 232v417q0 19 -20 19h-36q-21 0 -21 -19v-407q0 -88 -32.5 -129.5t-101.5 -41.5q-71 0 -101 40t-30 131v407q0 19 -21 19h-36q-21 0 -21 -19v-418q0 -220 184 -232q-39 -52 -39 -100q0 -42 26 -64.5t74 -19.5q32 2 62 18
q7 4 6 11l-7 24q-1 6 -14 4q-24 -7 -45 -7z" />
    <glyph glyph-name="uogonek" unicode="&#x173;" horiz-adv-x="436" 
d="M346 -98q0 47 37 99q9 3 9 16v453q0 17 -16 17h-41q-18 0 -18 -17v-362q-89 -47 -130 -47q-39 0 -53 21t-14 84l1 304q0 17 -17 17h-42q-18 0 -18 -17v-320q-2 -91 31 -128q31 -31 96 -31t141 52l5 -2v-24q0 -16 13 -17q-45 -52 -45 -106q0 -42 26 -64.5t74 -19.5
q32 2 62 18q7 4 6 11l-7 24q-1 6 -14 4q-24 -7 -45 -7q-41 0 -41 42z" />
    <glyph glyph-name="Wcircumflex" unicode="&#x174;" horiz-adv-x="709" 
d="M358 389q14 -78 46 -204l43 -171q3 -14 20 -14h52q15 0 19 15l156 630q4 18 -8 18h-50q-14 0 -19 -14l-73 -317q-36 -159 -48 -229h-3q-19 100 -49 220l-79 326q-5 14 -19 14h-52q-13 0 -9 -16l31 -118l-46 -202q-31 -134 -43 -204h-2q-19 98 -49 207l-83 319
q-5 14 -18 14h-52q-13 0 -10 -15l166 -634q5 -14 17 -14h55q13 0 18 14l43 176q27 107 42 199h4zM485 729q6 6 -3 17l-87 93q-9 10 -27 10h-41q-17 0 -27 -10l-90 -98q-7 -9 0 -16l18 -18q9 -9 21 1l98 82l95 -77q15 -12 24 -3z" />
    <glyph glyph-name="wcircumflex" unicode="&#x175;" horiz-adv-x="599" 
 />
    <glyph glyph-name="Ycircumflex" unicode="&#x176;" horiz-adv-x="441" 
d="M199 422q-23 57 -26 63l-75 165q-6 12 -19 12h-59q-14 0 -8 -13l173 -353v-279q0 -17 18 -17h42q16 0 16 17v279l173 351q8 15 -9 15h-52q-13 0 -21 -12l-76 -162q-41 -88 -50 -116h-6zM360 729q6 6 -3 17l-87 93q-9 10 -27 10h-41q-17 0 -27 -10l-90 -98q-7 -9 0 -16
l18 -18q9 -9 21 1l98 82l95 -77q15 -12 24 -3z" />
    <glyph glyph-name="ycircumflex" unicode="&#x177;" horiz-adv-x="405" 
d="M208 108q-10 50 -36 134l-72 231q-5 14 -16 14h-53q-14 0 -8 -16l153 -471l-52 -160q-4 -16 9 -16h46q15 0 20 14l199 634q4 15 -7 15h-54q-12 0 -16 -13l-63 -214q-33 -111 -44 -152h-6zM103 541q11 -8 18 1l90 102l92 -104q5 -7 16 1l21 16q7 5 -1 16l-79 119
q-7 10 -29 10h-40q-16 0 -27 -11l-82 -119q-7 -7 1 -15z" />
    <glyph glyph-name="Ydieresis" unicode="&#x178;" horiz-adv-x="441" 
d="M199 422q-23 57 -26 63l-75 165q-6 12 -19 12h-59q-14 0 -8 -13l173 -353v-279q0 -17 18 -17h42q16 0 16 17v279l173 351q8 15 -9 15h-52q-13 0 -21 -12l-76 -162q-41 -88 -50 -116h-6zM260 777q0 -23 7.5 -33.5t30.5 -10.5q24 0 32 11q8 12 8 33t-9 31q-8 11 -31 11
q-38 0 -38 -42zM189 777q0 23 -8.5 32.5t-30.5 9.5q-40 0 -40 -42q0 -23 8 -33.5t32 -10.5q22 0 30.5 11t8.5 33z" />
    <glyph glyph-name="Zacute" unicode="&#x179;" horiz-adv-x="425" 
d="M401 55q0 16 -17 16h-269l275 512q8 14 8 26v40q0 14 -16 14h-323q-16 0 -16 -16v-39q0 -17 17 -17h249l-278 -510q-8 -14 -8 -30v-35q0 -16 16 -16h346q16 0 16 17v38zM281 848q-9 14 -20 3l-110 -94q-10 -7 -4 -15l18 -23q7 -9 18 -3l120 75q12 7 6 17z" />
    <glyph glyph-name="zacute" unicode="&#x17a;" horiz-adv-x="377" 
 />
    <glyph glyph-name="Zdotaccent" unicode="&#x17b;" horiz-adv-x="425" 
 />
    <glyph glyph-name="zdotaccent" unicode="&#x17c;" horiz-adv-x="377" 
d="M22 14q0 -14 15 -14h294q17 0 17 17v38q0 16 -18 16h-215l220 338q10 11 10 28v36q0 14 -18 14h-270q-17 0 -17 -15v-36q0 -17 17 -17h201l-227 -347q-9 -12 -9 -29v-29zM237 609q0 42 -40 42q-41 0 -41 -42q0 -45 41 -45q40 0 40 45z" />
    <glyph glyph-name="Zcaron" unicode="&#x17d;" horiz-adv-x="425" 
d="M401 55q0 16 -17 16h-269l275 512q8 14 8 26v40q0 14 -16 14h-323q-16 0 -16 -16v-39q0 -17 17 -17h249l-278 -510q-8 -14 -8 -30v-35q0 -16 16 -16h346q16 0 16 17v38zM339 850q-9 9 -24 -3l-95 -80l-99 85q-12 12 -21 1l-16 -20q-6 -7 0 -15l89 -97q10 -10 27 -10h41
q18 0 27 10l87 93q9 9 1 18z" />
    <glyph glyph-name="zcaron" unicode="&#x17e;" horiz-adv-x="377" 
 />
    <glyph glyph-name="florin" unicode="&#x192;" 
d="M37 -39q-3 -13 3 -18q30 -18 82 -18q58 0 87 44q31 45 38 100l37 267h76q12 0 16 3.5t4 14.5v31q0 17 -18 17h-70l14 100q9 61 23 85t48 24q8 0 41 -5q21 -7 26 9l8 27q5 11 -5 16q-33 18 -78 18q-68 0 -107 -59q-8 -12 -24 -71l-5 -33l-17 -111h-65q-19 0 -19 -20v-28
q0 -18 21 -18h56l-32 -229q-10 -68 -22.5 -92.5t-43.5 -24.5q-18 0 -43 4q-22 7 -26 -10z" />
    <glyph glyph-name="Ohorn" unicode="&#x1a0;" horiz-adv-x="555" 
d="M506 341q0 153 -37 226q94 19 94 151v35q0 15 -16 15h-30q-10 0 -13.5 -3t-3.5 -12v-33q0 -52 -16 -74.5t-51 -22.5h-6q-54 48 -151 48q-114 0 -171 -76q-24 -34 -37 -79q-20 -75 -20 -175q0 -93 11 -166q8 -46 22 -74q54 -115 194 -110q147 6 196 110q25 48 32 154
q3 36 3 86zM426 331q0 -139 -34.5 -203.5t-116.5 -64.5q-80 0 -112.5 65t-32.5 203q0 136 34 203t111 67q82 0 116.5 -64.5t34.5 -205.5z" />
    <glyph glyph-name="ohorn" unicode="&#x1a1;" horiz-adv-x="451" 
d="M402 252q0 92 -20 144q88 22 88 149v35q0 15 -16 15h-30q-10 0 -13.5 -3t-3.5 -12v-33q0 -93 -58 -97q-45 47 -133 47q-181 0 -181 -245q0 -84 15 -143q11 -39 28 -62q44 -55 138 -55q75 3 115.5 32t54.5 85q16 54 16 143zM325 245q0 -102 -23.5 -144t-85.5 -42
q-59 0 -81.5 42.5t-22.5 143.5q0 100 22.5 142.5t81.5 42.5q62 0 85.5 -42t23.5 -143z" />
    <glyph glyph-name="Uhorn" unicode="&#x1af;" horiz-adv-x="571" 
d="M264 66q-71 0 -101 40t-30 131v407q0 19 -21 19h-36q-21 0 -21 -19v-418q0 -233 209 -233q59 0 101.5 18.5t65.5 52.5t33.5 74t10.5 89v337q128 0 128 154v35q0 15 -16 15h-30q-10 0 -13.5 -3t-3.5 -12v-33q0 -55 -14 -76t-51 -21v21q0 19 -20 19h-36q-21 0 -21 -19v-407
q0 -88 -32.5 -129.5t-101.5 -41.5z" />
    <glyph glyph-name="uhorn" unicode="&#x1b0;" horiz-adv-x="509" 
d="M317 17q0 -17 18 -17h41q16 0 16 17v374q128 0 128 154v35q0 15 -16 15h-30q-10 0 -13.5 -3t-3.5 -12v-33q0 -51 -16 -74t-49 -23v20q0 17 -16 17h-41q-18 0 -18 -17v-362q-89 -47 -130 -47q-39 0 -53 21t-14 84l1 304q0 17 -17 17h-42q-18 0 -18 -17v-320
q-2 -91 31 -128q31 -31 96 -31t141 52l5 -2v-24z" />
    <glyph glyph-name="AEacute" unicode="&#x1fc;" horiz-adv-x="744" 
d="M722 54q0 17 -16 17h-241v244h202q17 0 17 16v38q0 16 -17 16h-202v206h227q18 0 18 17v39q0 16 -17 16h-322q-15 0 -23 -15l-334 -632q-7 -16 6 -16h58q17 0 24 16l84 162h200q0 -143 1 -162q0 -16 18 -16h300q17 0 17 16v38zM386 247h-165l161 312h4v-312zM587 848
q-9 14 -20 3l-110 -94q-10 -7 -4 -15l18 -23q7 -9 18 -3l120 75q12 7 6 17z" />
    <glyph glyph-name="aeacute" unicode="&#x1fd;" horiz-adv-x="694" 
 />
    <glyph glyph-name="Oslashacute" unicode="&#x1fe;" horiz-adv-x="555" 
d="M506 341q0 175 -51 250l32 54q7 11 -2 16l-23 13q-10 5 -17 -7l-23 -40q-53 44 -146 44q-114 0 -171 -76q-24 -34 -37 -79q-20 -75 -20 -175q0 -101 10.5 -164t39.5 -106l-30 -51q-5 -10 -3 -12l4 -4l24 -14q10 -6 17 7l21 37q52 -43 144 -43q142 -5 196 110
q25 48 32 154q3 36 3 86zM426 331q0 -139 -34.5 -203.5t-116.5 -64.5q-66 0 -100 45l230 396q21 -61 21 -173zM130 331q0 136 34 203t111 67q69 0 104 -47l-230 -395q-19 60 -19 172zM362 848q-9 14 -20 3l-110 -94q-10 -7 -4 -15l18 -23q8 -9 18 -3l120 75q12 7 6 17z" />
    <glyph glyph-name="oslashacute" unicode="&#x1ff;" horiz-adv-x="439" 
 />
    <glyph glyph-name="uni0218" unicode="&#x218;" horiz-adv-x="458" 
d="M427 184q0 118 -79 158q-40 23 -108 36t-95 32q-24 20 -24 74q0 56 26.5 84t86.5 28q48 0 143 -13q22 -2 24 13l5 24q5 15 -14 23q-58 26 -158 26q-93 0 -143 -48.5t-50 -139.5q0 -94 58 -130q51 -32 134 -48q67 -13 91 -39q24 -25 24 -92q0 -50 -32.5 -77.5t-93.5 -27.5
q-36 0 -153 14q-19 3 -22 -11l-6 -28q-5 -15 14 -23q59 -28 168 -28q95 0 149.5 47.5t54.5 145.5zM272 -125q0 39 -27 66q-10 13 -26 1l-33 -27q-11 -10 -4 -23q21 -36 21 -57q0 -33 -30 -70q-7 -7 -1 -14l12 -14q6 -7 19 3q69 51 69 135z" />
    <glyph glyph-name="uni0219" unicode="&#x219;" horiz-adv-x="379" 
d="M352 140q0 79 -49 110q-39 25 -102 38q-53 9 -69.5 21.5t-16.5 46.5q0 39 17 55t62 16q29 0 114 -8q25 -3 26 10l4 26q1 13 -10 19q-52 23 -133 23q-75 0 -116.5 -37t-41.5 -106q0 -71 50 -102q41 -25 106 -37q47 -7 64 -24q16 -16 16 -59q0 -37 -20.5 -54t-64.5 -17
q-37 0 -123 10q-13 1 -17.5 -1.5t-6.5 -11.5l-4 -21q-4 -14 11 -22q48 -23 137 -23q76 0 121.5 37t45.5 111zM233 -125q0 39 -27 66q-10 13 -26 1l-33 -27q-11 -10 -4 -23q21 -36 21 -57q0 -33 -30 -70q-8 -7 -1 -14l12 -14q6 -7 19 3q69 51 69 135z" />
    <glyph glyph-name="uni021A" unicode="&#x21a;" horiz-adv-x="418" 
d="M410 647q0 16 -17 16h-367q-17 0 -17 -16v-39q0 -17 18 -17h143v-574q0 -17 18 -17h43q16 0 16 17v574h145q18 0 18 17v39zM255 -112q0 39 -27 66q-10 13 -26 1l-33 -27q-11 -10 -4 -23q21 -36 21 -57q0 -33 -30 -70q-8 -8 -1 -14l12 -14q6 -7 19 3q69 51 69 135z" />
    <glyph glyph-name="uni021B" unicode="&#x21b;" horiz-adv-x="281" 
d="M284 54q-2 9 -6 11.5t-16 1.5q-38 -5 -58 -5q-31 0 -40.5 11.5t-9.5 47.5v303h93q17 0 17 17v29q0 17 -17 17h-93v123q0 20 -17 15l-40 -11q-17 -5 -17 -19v-108h-46q-17 0 -17 -18v-28q0 -17 17 -17h45v-326q0 -55 23 -80.5t81 -25.5t96 20q10 6 9 19zM184 -112
q0 39 -27 66q-10 13 -26 1l-33 -27q-11 -10 -4 -23q21 -36 21 -57q0 -33 -30 -70q-7 -8 -1 -14l12 -14q6 -7 19 3q69 51 69 135z" />
    <glyph glyph-name="uni0259" unicode="&#x259;" horiz-adv-x="420" 
d="M219 58q-62 0 -84 46q-18 42 -19 102h204q-2 -77 -26 -112.5t-75 -35.5zM216 497q-78 0 -143 -27q-14 -6 -11 -20l4 -22q4 -16 23 -13q74 10 122 10q58 0 83 -35t26 -121h-239q-45 0 -43 -57q2 -92 33 -151q38 -70 146 -70q134 4 166 123q16 54 16 131q0 92 -18 145
q-11 34 -30 57q-43 50 -135 50z" />
    <glyph glyph-name="uni02B9" unicode="&#x2b9;" horiz-adv-x="216" 
d="M212 656q8 10 -3 15l-46 20q-13 6 -19 -7l-111 -242q-5 -11 3 -14l28 -12q10 -4 15 3z" />
    <glyph glyph-name="circumflex" unicode="&#x2c6;" horiz-adv-x="438" 
d="M116 541q11 -8 18 1l90 102l92 -104q5 -7 16 1l21 16q7 5 -1 16l-79 119q-7 10 -29 10h-40q-16 0 -27 -11l-82 -119q-7 -7 1 -15z" />
    <glyph glyph-name="caron" unicode="&#x2c7;" horiz-adv-x="377" 
d="M308 696q-11 8 -16 1l-92 -104l-90 102q-7 9 -18 1l-20 -16q-8 -8 -1 -15l82 -119q11 -11 27 -11h40q22 0 29 10l79 119q7 11 1 16z" />
    <glyph glyph-name="breve" unicode="&#x2d8;" horiz-adv-x="445" 
d="M243 543q37 0 73 26.5t57 70.5q8 15 -2 22l-18 14q-10 7 -20 -3q-14 -13 -26 -31q-13 -17 -20 -22q-23 -18 -42 -18q-32 0 -62 30l-33 41q-10 12 -21 3l-18 -16q-8 -8 -1 -21q21 -45 57 -70.5t76 -25.5z" />
    <glyph glyph-name="dotaccent" unicode="&#x2d9;" horiz-adv-x="292" 
d="M188 609q0 42 -40 42q-41 0 -41 -42q0 -45 41 -45q40 0 40 45z" />
    <glyph glyph-name="ring" unicode="&#x2da;" horiz-adv-x="433" 
d="M276 615q0 -21 -11.5 -34.5t-30.5 -13.5q-41 0 -41 48q0 18 12 32.5t29 14.5q18 0 30 -14t12 -33zM326 615q0 37 -26.5 63t-65.5 26q-40 0 -67 -25t-27 -64q0 -40 26.5 -65t67.5 -25q40 0 66 26t26 64z" />
    <glyph glyph-name="ogonek" unicode="&#x2db;" horiz-adv-x="433" 
d="M225 -98q0 50 45 109h-51q-55 -58 -55 -117q0 -42 26 -64.5t74 -19.5q32 2 62 18q7 4 6 11l-7 24q-1 6 -14 4q-24 -7 -45 -7q-41 0 -41 42z" />
    <glyph glyph-name="tilde" unicode="&#x2dc;" horiz-adv-x="439" 
d="M286 553q61 0 84 83q3 12 -8 17l-18 7q-12 5 -22 -11q-16 -33 -36 -33q-11 0 -54 23q-48 27 -75 27t-50 -20t-37 -61q-3 -13 6 -17l18 -8q11 -4 14 -3t6 8q19 37 41 37q17 0 60 -23q47 -26 71 -26z" />
    <glyph glyph-name="hungarumlaut" unicode="&#x2dd;" horiz-adv-x="438" 
d="M264 677q8 11 -3 15l-46 20q-13 6 -17 -3l-62 -143q-5 -11 3 -14l29 -10q10 -4 15 3zM372 677q8 11 -3 15l-46 20q-13 6 -17 -3l-62 -143q-5 -11 3 -14l29 -10q10 -4 15 3z" />
    <glyph glyph-name="tonos" unicode="&#x384;" horiz-adv-x="432" 
d="M316 677q8 11 -3 15l-46 20q-13 6 -17 -3l-62 -143q-5 -11 3 -14l29 -10q10 -4 15 3z" />
    <glyph glyph-name="dieresistonos" unicode="&#x385;" horiz-adv-x="288" 
d="M294 609q0 42 -40 42t-40 -42q0 -45 40 -45t40 45zM87 609q0 22 -9 32t-31 10q-41 0 -41 -42q0 -45 41 -45q40 0 40 45zM221 680q7 10 -3 15l-46 20q-13 6 -17 -3l-62 -143q-5 -11 3 -14l29 -10q11 -5 15 3z" />
    <glyph glyph-name="Alphatonos" unicode="&#x386;" horiz-adv-x="477" 
d="M383 13q4 -13 17 -13h61q13 0 8 14l-179 633q-4 15 -19 15h-56q-15 0 -19 -15l-182 -631q-6 -16 8 -16h52q17 0 21 16l42 162h204zM243 568q6 -28 32 -132l49 -189h-169l52 192q11 36 33 129h3zM88 627q8 11 -3 15l-46 20q-13 6 -17 -3l-62 -143q-5 -11 3 -14l29 -10
q10 -4 15 3z" />
    <glyph glyph-name="anoteleia" unicode="&#x387;" horiz-adv-x="170" 
d="M128 394q0 25 -10 36t-34 11q-43 0 -43 -47q0 -49 43 -49q44 0 44 49z" />
    <glyph glyph-name="Epsilontonos" unicode="&#x388;" horiz-adv-x="439" 
d="M414 54q0 17 -16 17h-258v244h219q17 0 17 16v38q0 16 -17 16h-219v206h245q18 0 18 17v39q0 16 -17 16h-306q-18 0 -18 -17v-630q0 -16 18 -16h317q17 0 17 16v38zM4 627q8 11 -3 15l-46 20q-13 6 -17 -3l-62 -143q-5 -11 3 -14l29 -10q10 -4 15 3z" />
    <glyph glyph-name="Etatonos" unicode="&#x389;" horiz-adv-x="518" 
d="M465 645q0 18 -16 18h-43q-18 0 -18 -18v-258h-248v258q0 18 -16 18h-43q-18 0 -18 -18v-628q0 -17 18 -17h43q16 0 16 17v298h248v-298q0 -17 18 -17h43q16 0 16 17v628zM3 627q7 11 -3 15l-46 20q-13 6 -17 -3l-62 -143q-5 -11 3 -14l29 -10q11 -4 15 3z" />
    <glyph glyph-name="Iotatonos" unicode="&#x38a;" horiz-adv-x="221" 
d="M10 627q8 11 -3 15l-46 20q-13 6 -17 -3l-62 -143q-5 -11 3 -14l29 -10q10 -4 15 3zM155 645q0 18 -17 18h-44q-18 0 -18 -18v-628q0 -17 18 -17h44q17 0 17 17v628z" />
    <glyph glyph-name="Omicrontonos" unicode="&#x38c;" horiz-adv-x="555" 
d="M511 341q0 117 -22 188q-14 48 -38 75q-55 67 -170 67q-114 0 -171 -76q-24 -34 -37 -79q-20 -75 -20 -175q0 -93 11 -166q8 -46 22 -74q54 -115 194 -110q147 6 196 110q25 48 32 154q3 36 3 86zM431 331q0 -139 -34.5 -203.5t-116.5 -64.5q-80 0 -112.5 65t-32.5 203
q0 136 34 203t111 67q82 0 116.5 -64.5t34.5 -205.5zM38 627q8 11 -3 15l-46 20q-13 6 -17 -3l-62 -143q-5 -11 3 -14l29 -10q10 -4 15 3z" />
    <glyph glyph-name="Upsilontonos" unicode="&#x38e;" horiz-adv-x="441" 
d="M202 422q-23 57 -26 63l-75 165q-6 12 -19 12h-59q-14 0 -8 -13l173 -353v-279q0 -17 18 -17h42q16 0 16 17v279l173 351q7 15 -9 15h-52q-14 0 -21 -12l-76 -162q-41 -88 -50 -116h-6zM-14 627q8 11 -3 15l-46 20q-13 6 -17 -3l-62 -143q-5 -11 3 -14l29 -10q10 -4 15 3
z" />
    <glyph glyph-name="Omegatonos" unicode="&#x38f;" horiz-adv-x="567" 
d="M452 73q74 80 74 271q0 327 -237 327q-55 0 -98.5 -20t-69.5 -52t-42.5 -76t-23 -87.5t-6.5 -91.5q0 -206 72 -270l-1 -3h-67q-11 0 -15 -3.5t-4 -13.5v-36q0 -10 3.5 -14t14.5 -4h176q21 0 21 17v45q0 10 -18 18q-100 43 -100 261q0 260 158 260q157 0 157 -262
q0 -217 -106 -259q-17 -8 -17 -18v-45q0 -17 20 -17h175q11 0 15 4t4 14v36q0 17 -19 17h-65zM38 627q8 11 -3 15l-46 20q-13 6 -17 -3l-62 -143q-5 -11 3 -14l29 -10q10 -4 15 3z" />
    <glyph glyph-name="iotadieresistonos" unicode="&#x390;" horiz-adv-x="223" 
d="M260 609q0 42 -40 42t-40 -42q0 -45 40 -45t40 45zM53 609q0 22 -9 32t-31 10q-41 0 -41 -42q0 -45 41 -45q40 0 40 45zM187 680q7 10 -3 15l-46 20q-13 6 -17 -3l-62 -143q-5 -11 3 -14l29 -10q11 -5 15 3zM135 470q0 17 -16 17h-41q-18 0 -18 -17v-453q0 -17 18 -17h41
q16 0 16 17v453z" />
    <glyph glyph-name="Alpha" unicode="&#x391;" horiz-adv-x="477" 
d="M384 13q4 -13 17 -13h61q13 0 8 14l-179 633q-5 15 -19 15h-56q-14 0 -19 -15l-182 -631q-6 -16 8 -16h52q17 0 21 16l42 162h204zM244 568q6 -28 32 -132l49 -189h-169l52 192q10 36 33 129h3z" />
    <glyph glyph-name="Beta" unicode="&#x392;" horiz-adv-x="485" 
d="M455 182q0 53 -25 100q-24 49 -79 65l-1 1q43 20 64 59.5t21 84.5q0 79 -50.5 124.5t-143.5 45.5h-165q-18 0 -18 -16v-629q0 -17 21 -17h195q75 0 128 50q53 51 53 132zM353 486q0 -45 -31.5 -76t-75.5 -31h-111v213h96q59 0 90.5 -28.5t31.5 -77.5zM373 189
q0 -118 -124 -118h-114v238h114q59 0 91.5 -33.5t32.5 -86.5z" />
    <glyph glyph-name="Gamma" unicode="&#x393;" horiz-adv-x="395" 
d="M384 591q18 0 18 17v39q0 16 -17 16h-305q-19 0 -19 -16v-630q0 -17 18 -17h42q17 0 17 17v574h246z" />
    <glyph glyph-name="uni0394" unicode="&#x394;" horiz-adv-x="480" 
d="M293 645q-3 10 -8 13.5t-19 3.5h-43q-21 0 -25 -16l-183 -629q-5 -17 12 -17h436q17 0 13 16zM247 550q13 -67 36 -149l92 -330h-266l81 279q40 142 51 200h6z" />
    <glyph glyph-name="Epsilon" unicode="&#x395;" horiz-adv-x="439" 
d="M409 54q0 17 -16 17h-258v244h219q17 0 17 16v38q0 16 -17 16h-219v206h245q18 0 18 17v39q0 16 -17 16h-306q-18 0 -18 -17v-630q0 -16 18 -16h317q17 0 17 16v38z" />
    <glyph glyph-name="Zeta" unicode="&#x396;" horiz-adv-x="425" 
d="M401 55q0 16 -17 16h-269l275 512q8 14 8 26v40q0 14 -16 14h-323q-16 0 -16 -16v-39q0 -17 17 -17h249l-278 -510q-8 -14 -8 -30v-35q0 -16 16 -16h346q16 0 16 17v38z" />
    <glyph glyph-name="Eta" unicode="&#x397;" horiz-adv-x="518" 
d="M460 645q0 18 -16 18h-43q-18 0 -18 -18v-258h-248v258q0 18 -16 18h-43q-18 0 -18 -18v-628q0 -17 18 -17h43q16 0 16 17v298h248v-298q0 -17 18 -17h43q16 0 16 17v628z" />
    <glyph glyph-name="Theta" unicode="&#x398;" horiz-adv-x="564" 
d="M515 341q0 114 -23 184q-14 47 -39 77q-55 69 -175 69q-230 0 -230 -330q0 -86 7 -138q9 -69 41 -124q52 -88 182 -88q161 0 213 145q20 60 22 135q2 42 2 70zM434 331q0 -135 -37 -201.5t-119 -66.5q-56 0 -90.5 34t-47.5 91q-11 58 -11 143q0 136 35 203t114 67
q87 0 121.5 -64t34.5 -206zM395 369q0 9 -3.5 12.5t-14.5 3.5h-190q-18 0 -18 -16v-38q0 -9 3.5 -12.5t14.5 -3.5h190q12 0 15 3t3 13v38z" />
    <glyph glyph-name="Iota" unicode="&#x399;" horiz-adv-x="221" 
d="M150 645q0 18 -17 18h-44q-18 0 -18 -18v-628q0 -17 18 -17h44q17 0 17 17v628z" />
    <glyph glyph-name="Kappa" unicode="&#x39a;" horiz-adv-x="478" 
d="M462 649q4 5 2 9.5t-9 4.5h-61q-15 0 -23 -11l-135 -194q-70 -100 -102 -151l-2 1v337q0 18 -16 18h-43q-18 0 -18 -18v-628q0 -17 18 -17h43q16 0 16 17v167l90 127l152 -297q8 -14 23 -14h61q7 0 9 4.5t-1 9.5l-194 367z" />
    <glyph glyph-name="Lambda" unicode="&#x39b;" horiz-adv-x="477" 
d="M208 439q10 36 33 129h3q6 -28 32 -132l108 -423q4 -13 17 -13h61q13 0 8 14l-179 633q-5 15 -19 15h-56q-14 0 -19 -15l-182 -631q-6 -16 8 -16h52q17 0 21 16z" />
    <glyph glyph-name="Mu" unicode="&#x39c;" horiz-adv-x="643" 
d="M584 648q0 15 -15 15h-40q-16 0 -25 -16l-123 -293q-44 -107 -57 -146h-3l-59 148l-124 292q-8 15 -22 15h-44q-15 0 -15 -15v-631q0 -17 17 -17h42q16 0 16 17v454h2q36 -92 59 -143l94 -213q6 -12 21 -12h29q14 0 20 13l85 201q42 99 61 154h3v-454q0 -17 18 -17h43
q17 0 17 17v631z" />
    <glyph glyph-name="Nu" unicode="&#x39d;" horiz-adv-x="547" 
d="M410 16q10 -16 26 -16h38q16 0 16 16v629q0 18 -16 18h-42q-17 0 -17 -18v-490h-3q-32 65 -77 147l-195 345q-10 16 -25 16h-41q-16 0 -16 -15v-631q0 -17 18 -17h41q17 0 17 17v494h3q18 -41 81 -154z" />
    <glyph glyph-name="Xi" unicode="&#x39e;" horiz-adv-x="443" 
d="M399 590q11 0 14.5 4t3.5 14v38q0 17 -17 17h-361q-11 0 -14.5 -4t-3.5 -13v-38q0 -10 3.5 -14t15.5 -4h359zM34 71q-17 0 -17 -18v-36q0 -11 3.5 -14t14.5 -3h368q11 0 15 3.5t4 13.5v36q0 18 -18 18h-370zM373 314q11 0 14.5 3.5t3.5 13.5v37q0 9 -3.5 13t-14.5 4h-308
q-11 0 -14.5 -4t-3.5 -13v-37q0 -10 3.5 -13.5t14.5 -3.5h308z" />
    <glyph glyph-name="Omicron" unicode="&#x39f;" horiz-adv-x="555" 
d="M506 341q0 117 -22 188q-14 48 -38 75q-55 67 -170 67q-114 0 -171 -76q-24 -34 -37 -79q-20 -75 -20 -175q0 -93 11 -166q8 -46 22 -74q54 -115 194 -110q147 6 196 110q25 48 32 154q3 36 3 86zM426 331q0 -139 -34.5 -203.5t-116.5 -64.5q-80 0 -112.5 65t-32.5 203
q0 136 34 203t111 67q82 0 116.5 -64.5t34.5 -205.5z" />
    <glyph glyph-name="Pi" unicode="&#x3a0;" horiz-adv-x="526" 
d="M472 644q0 11 -3.5 15t-14.5 4h-377q-11 0 -15 -4t-4 -15v-627q0 -17 21 -17h37q19 0 19 17v572h260v-572q0 -17 22 -17h35q20 0 20 17v627z" />
    <glyph glyph-name="Rho" unicode="&#x3a1;" horiz-adv-x="448" 
d="M429 470q0 92 -53.5 142.5t-145.5 50.5h-155q-18 0 -18 -16v-630q0 -17 18 -17h43q17 0 17 17v252h96q115 0 159 67q39 57 39 134zM352 469q0 -63 -28 -97t-94 -34h-95v254h89q128 0 128 -123z" />
    <glyph glyph-name="Sigma" unicode="&#x3a3;" horiz-adv-x="393" 
d="M388 54q0 17 -19 17h-263l130 250q10 23 0 42l-135 228h258q12 0 15.5 4t3.5 14v37q0 10 -3.5 13.5t-14.5 3.5h-326q-20 0 -20 -15v-40q0 -12 8 -26l139 -239l-136 -261q-8 -18 -8 -30v-35q0 -10 4 -13.5t16 -3.5h333q18 0 18 18v36z" />
    <glyph glyph-name="Tau" unicode="&#x3a4;" horiz-adv-x="418" 
d="M410 647q0 16 -17 16h-367q-17 0 -17 -16v-39q0 -17 18 -17h143v-574q0 -17 18 -17h43q16 0 16 17v574h145q18 0 18 17v39z" />
    <glyph glyph-name="Upsilon" unicode="&#x3a5;" horiz-adv-x="441" 
d="M199 422q-23 57 -26 63l-75 165q-6 12 -19 12h-59q-14 0 -8 -13l173 -353v-279q0 -17 18 -17h42q16 0 16 17v279l173 351q8 15 -9 15h-52q-13 0 -21 -12l-76 -162q-41 -88 -50 -116h-6z" />
    <glyph glyph-name="Phi" unicode="&#x3a6;" horiz-adv-x="659" 
d="M374 72q130 12 188 85q59 74 59 181q0 90 -47 160q-54 85 -200 99v48q0 18 -17 18h-44q-18 0 -18 -18v-48q-57 -5 -101.5 -24.5t-71 -46t-44 -60.5t-24 -65t-7.5 -63q-1 -101 48 -175q59 -84 200 -91v-55q0 -17 18 -17h44q17 0 17 17v55zM121 335q0 177 174 193v-387
q-90 10 -132 57t-42 137zM543 334q0 -88 -42.5 -138t-126.5 -56v388q84 -8 126.5 -59.5t42.5 -134.5z" />
    <glyph glyph-name="Chi" unicode="&#x3a7;" horiz-adv-x="454" 
d="M363 14q8 -14 22 -14h57q16 0 8 14l-176 331l161 302q3 5 0.5 10.5t-9.5 4.5h-54q-16 0 -23 -13l-115 -231l-115 232q-7 13 -21 13h-58q-7 0 -9 -5t2 -11l160 -302l-175 -330q-8 -15 7 -15h57q15 0 23 14l129 257z" />
    <glyph glyph-name="Psi" unicode="&#x3a8;" horiz-adv-x="602" 
d="M546 644q0 19 -20 19h-36q-22 0 -22 -19v-245q0 -73 -35 -114.5t-97 -50.5v410q0 19 -19 19h-38q-21 0 -21 -19v-411q-130 13 -130 166v245q0 19 -21 19h-37q-21 0 -21 -19v-245q0 -104 53 -166.5t156 -73.5v-141q0 -18 21 -18h37q20 0 20 18v142q98 10 154 74.5
t56 164.5v245z" />
    <glyph glyph-name="uni03A9" unicode="&#x3a9;" horiz-adv-x="567" 
d="M447 73q74 80 74 271q0 327 -237 327q-55 0 -98.5 -20t-69.5 -52t-42.5 -76t-23 -87.5t-6.5 -91.5q0 -206 72 -270l-1 -3h-67q-11 0 -15 -3.5t-4 -13.5v-36q0 -10 3.5 -14t14.5 -4h176q21 0 21 17v45q0 10 -18 18q-100 43 -100 261q0 260 158 260q157 0 157 -262
q0 -217 -106 -259q-17 -8 -17 -18v-45q0 -17 20 -17h175q11 0 15 4t4 14v36q0 17 -19 17h-65z" />
    <glyph glyph-name="Iotadieresis" unicode="&#x3aa;" horiz-adv-x="221" 
d="M149 777q0 -23 7.5 -33.5t30.5 -10.5q24 0 32 11q8 12 8 33t-9 31q-8 11 -31 11q-38 0 -38 -42zM78 777q0 23 -8.5 32.5t-30.5 9.5q-40 0 -40 -42q0 -23 8 -33.5t32 -10.5q22 0 30.5 11t8.5 33zM150 645q0 18 -17 18h-44q-18 0 -18 -18v-628q0 -17 18 -17h44q17 0 17 17
v628z" />
    <glyph glyph-name="Upsilondieresis" unicode="&#x3ab;" horiz-adv-x="441" 
d="M199 422q-23 57 -26 63l-75 165q-6 12 -19 12h-59q-14 0 -8 -13l173 -353v-279q0 -17 18 -17h42q16 0 16 17v279l173 351q8 15 -9 15h-52q-13 0 -21 -12l-76 -162q-41 -88 -50 -116h-6zM257 777q0 -23 7.5 -33.5t30.5 -10.5q24 0 32 11q8 12 8 33t-9 31q-8 11 -31 11
q-38 0 -38 -42zM186 777q0 23 -8.5 32.5t-30.5 9.5q-40 0 -40 -42q0 -23 8 -33.5t32 -10.5q22 0 30.5 11t8.5 33z" />
    <glyph glyph-name="alphatonos" unicode="&#x3ac;" horiz-adv-x="455" 
d="M323 119q-31 -21 -69 -38q-40 -18 -67 -18q-41 0 -59 33q-17 36 -17 140q0 105 22 148.5t75 43.5q54 0 115 -31v-278zM325 49q2 -29 18 -41t50 -12q16 0 31 3q21 3 21 19v25q0 7 -3 9.5t-14 3.5q-22 2 -25.5 7.5t-3.5 35.5v369q0 11 -3.5 15t-15.5 4h-37q-12 0 -15.5 -4
t-3.5 -14v-8q-52 34 -116 34q-94 0 -134.5 -62t-40.5 -195q0 -130 32 -187.5t112 -57.5q66 0 146 56h2zM311 677q7 11 -3 15l-46 20q-13 6 -17 -3l-62 -143q-5 -11 3 -14l29 -10q11 -4 15 3z" />
    <glyph glyph-name="epsilontonos" unicode="&#x3ad;" horiz-adv-x="375" 
d="M102 264q-31 -17 -49 -50t-18 -70q0 -52 27 -88.5t68 -50.5q38 -12 84 -12q90 0 136 25q14 8 11 20l-4 21q-3 16 -25 12q-70 -10 -113 -10q-53 0 -78 19t-25 67q0 54 34 69q27 13 67 13h38q10 0 13.5 3.5t3.5 13.5v30q0 17 -17 17h-38q-93 0 -93 65q0 71 93 71
q15 0 106 -8q25 -3 26 13l4 24q3 12 -10 18q-19 9 -62 15q-39 7 -70 7q-69 0 -118 -33q-50 -33 -50 -108q0 -63 59 -89v-4zM290 677q8 11 -3 15l-46 20q-13 6 -17 -3l-62 -143q-5 -11 3 -14l29 -10q10 -4 15 3z" />
    <glyph glyph-name="etatonos" unicode="&#x3ae;" horiz-adv-x="436" 
d="M115 470q0 17 -18 17h-41q-16 0 -16 -17v-453q0 -17 16 -17h41q18 0 18 17v362q89 47 138 47q38 0 52.5 -22.5t14.5 -86.5l-1 -300q0 -17 17 -17h42q18 0 18 17v296q0 86 -21 130q-24 53 -112 53q-67 0 -143 -52l-5 2v24zM293 677q7 11 -3 15l-46 20q-13 6 -17 -3
l-62 -143q-5 -11 3 -14l29 -10q11 -4 15 3z" />
    <glyph glyph-name="iotatonos" unicode="&#x3af;" horiz-adv-x="194" 
d="M193 677q7 11 -3 15l-46 20q-13 6 -17 -3l-62 -143q-5 -11 3 -14l29 -10q11 -4 15 3zM135 470q0 17 -16 17h-41q-18 0 -18 -17v-453q0 -17 18 -17h41q16 0 16 17v453z" />
    <glyph glyph-name="upsilondieresistonos" unicode="&#x3b0;" horiz-adv-x="441" 
d="M366 609q0 42 -40 42t-40 -42q0 -45 40 -45t40 45zM159 609q0 22 -9 32t-31 10q-41 0 -41 -42q0 -45 41 -45q40 0 40 45zM293 680q7 10 -3 15l-46 20q-13 6 -17 -3l-62 -143q-5 -11 3 -14l29 -10q11 -5 15 3zM340 487q-21 0 -21 -18v-291q0 -120 -101 -120
q-55 0 -77 29.5t-22 90.5v291q0 11 -4 14.5t-15 3.5h-36q-20 0 -20 -18v-286q0 -96 40 -143t134 -47q178 0 178 190v286q0 18 -19 18h-37z" />
    <glyph glyph-name="alpha" unicode="&#x3b1;" horiz-adv-x="455" 
d="M323 119q-31 -21 -69 -38q-40 -18 -67 -18q-41 0 -59 33q-17 36 -17 140q0 105 22 148.5t75 43.5q54 0 115 -31v-278zM325 49q2 -29 18 -41t50 -12q16 0 31 3q21 3 21 19v25q0 7 -3 9.5t-14 3.5q-22 2 -25.5 7.5t-3.5 35.5v369q0 11 -3.5 15t-15.5 4h-37q-12 0 -15.5 -4
t-3.5 -14v-8q-52 34 -116 34q-94 0 -134.5 -62t-40.5 -195q0 -130 32 -187.5t112 -57.5q66 0 146 56h2z" />
    <glyph glyph-name="beta" unicode="&#x3b2;" horiz-adv-x="436" 
d="M118 13q53 -22 106 -22q99 0 139.5 57t40.5 186q0 77 -23.5 120t-78.5 52v5q34 20 51.5 59t17.5 77q0 78 -41.5 119.5t-119.5 41.5q-77 0 -124 -55.5t-47 -154.5v-655q0 -17 19 -17h36q12 0 16 3.5t4 13.5v167zM327 228q0 -90 -23.5 -129.5t-75.5 -39.5q-60 0 -113 18
v422q0 66 23.5 102.5t67.5 36.5q89 0 89 -93q0 -59 -28.5 -87t-91.5 -43q-11 -3 -14 -6t-3 -12v-36q0 -13 19 -12q40 2 44 2q58 0 82 -27.5t24 -95.5z" />
    <glyph glyph-name="gamma" unicode="&#x3b3;" horiz-adv-x="394" 
d="M202 119q-14 61 -30 112l-58 191q-14 45 -24.5 59.5t-35.5 14.5q-17 0 -45 -11q-13 -7 -12 -14l5 -32q2 -8 15 -8q16 0 23 -22l124 -398v-169q0 -18 20 -18h36q19 0 19 18v169l155 460q4 16 -11 16h-47q-14 0 -19 -14l-74 -236q-29 -95 -33 -118h-8z" />
    <glyph glyph-name="delta" unicode="&#x3b4;" horiz-adv-x="442" 
d="M226 634q22 0 107 -8q25 -3 26 10l4 26q1 13 -10 19q-52 23 -133 23q-73 0 -111.5 -36.5t-38.5 -105.5q0 -82 65 -112q-49 -32 -74 -87.5t-25 -118.5q0 -80 15 -137q10 -37 29 -60q44 -55 137 -55q138 0 169 115q16 52 16 137q0 99 -40 151q-42 54 -129 91q-52 22 -72 42
q-14 17 -14 36q0 39 17 54.5t62 15.5zM326 237q0 -97 -23.5 -137.5t-84.5 -40.5q-58 0 -82 42.5t-24 135.5q0 73 22 113.5t71 68.5q94 -32 110 -91q11 -39 11 -91z" />
    <glyph glyph-name="epsilon" unicode="&#x3b5;" horiz-adv-x="375" 
d="M102 264q-31 -17 -49 -50t-18 -70q0 -52 27 -88.5t68 -50.5q38 -12 84 -12q90 0 136 25q14 8 11 20l-4 21q-3 16 -25 12q-70 -10 -113 -10q-53 0 -78 19t-25 67q0 54 34 69q27 13 67 13h38q10 0 13.5 3.5t3.5 13.5v30q0 17 -17 17h-38q-93 0 -93 65q0 71 93 71
q15 0 106 -8q25 -3 26 13l4 24q3 12 -10 18q-19 9 -62 15q-39 7 -70 7q-69 0 -118 -33q-50 -33 -50 -108q0 -63 59 -89v-4z" />
    <glyph glyph-name="zeta" unicode="&#x3b6;" horiz-adv-x="384" 
d="M386 474q0 13 -14 13h-316q-15 0 -15 -15v-33q0 -17 16 -17h216l1 -1q-244 -120 -244 -273q0 -158 255 -158q-9 -16 -24 -57q-16 -43 -20 -66q-6 -19 9 -27l33 -9q18 -7 24 16q19 75 49 134q12 23 6 40l-9 22q-7 16 -27 16l-31 -1q-190 0 -190 95q0 46 34 86q38 45 83 75
q29 21 50 33l55 33l50 31q9 5 9 23v40z" />
    <glyph glyph-name="eta" unicode="&#x3b7;" horiz-adv-x="436" 
d="M115 470q0 17 -18 17h-41q-16 0 -16 -17v-453q0 -17 16 -17h41q18 0 18 17v362q89 47 138 47q38 0 52.5 -22.5t14.5 -86.5l-1 -300q0 -17 17 -17h42q18 0 18 17v296q0 86 -21 130q-24 53 -112 53q-67 0 -143 -52l-5 2v24z" />
    <glyph glyph-name="theta" unicode="&#x3b8;" horiz-adv-x="459" 
d="M425 362q0 160 -33 243q-40 103 -165 103q-141 -5 -176 -162q-18 -78 -18 -184v-64l2 -60q1 -35 6 -58q12 -71 27 -98q29 -51 58 -66q46 -24 101 -24q73 0 122 42q39 34 57 107q7 28 12 71q5 42 6 73q1 21 1 77zM227 641q65 0 92 -54.5t30 -182.5h-238q4 123 30.5 180
t85.5 57zM349 341q0 -151 -26 -217q-26 -65 -96 -65q-68 0 -94 65q-25 63 -23 217h239z" />
    <glyph glyph-name="iota" unicode="&#x3b9;" horiz-adv-x="194" 
d="M135 470q0 17 -16 17h-41q-18 0 -18 -17v-453q0 -17 18 -17h41q16 0 16 17v453z" />
    <glyph glyph-name="kappa" unicode="&#x3ba;" horiz-adv-x="392" 
d="M299 14q8 -14 23 -14h51q7 0 10.5 6t-0.5 12l-149 270l129 180q5 8 2 13.5t-11 5.5h-52q-12 0 -22 -13l-92 -133l-61 -92l-2 1v220q0 17 -18 17h-41q-17 0 -17 -17v-453q0 -17 17 -17h41q18 0 18 17v118l63 89z" />
    <glyph glyph-name="lambda" unicode="&#x3bb;" horiz-adv-x="400" 
d="M247 226l43 -167q9 -36 23.5 -49.5t47.5 -13.5q23 0 36 5q11 4 10 14l-3 28q-1 4 -16 6t-18 5q-4 4 -9 22l-149 545q-14 52 -32.5 69.5t-59.5 17.5q-25 0 -45 -7q-13 -5 -11 -13l4 -32q2 -10 14 -8q6 1 23 1q13 0 22.5 -12t12 -20t6.5 -26l28 -109l-162 -465
q-5 -17 12 -17h46q12 0 18 15l71 214q23 67 45 147h5z" />
    <glyph glyph-name="nu" unicode="&#x3bd;" horiz-adv-x="403" 
d="M399 472q5 15 -7 15h-56q-11 0 -15 -13l-83 -278q0 -1 -17 -58l-3 -12l-8 -33h-2q0 4 -28 100l-84 280q-5 14 -16 14h-55q-14 0 -8 -16l152 -459q5 -12 16 -12h46q13 0 17 13z" />
    <glyph glyph-name="xi" unicode="&#x3be;" horiz-adv-x="335" 
d="M125 386q-49 -20 -76 -74t-27 -121q0 -62 19.5 -104.5t55 -63t75.5 -28t92 -6.5q-28 -48 -44 -122q-5 -21 10 -27l34 -9q17 -8 23 16q21 75 50 134q11 24 5 40l-9 22q-4 10 -8.5 13t-18.5 3h-23q-82 0 -128 20q-55 25 -55 113q0 167 140 167h59q14 0 14 16v33
q0 15 -14 15h-63q-21 0 -41 4.5t-39.5 14.5t-31.5 31t-12 49q-1 55 27 86t80 31q23 0 59 -4l52 -4q16 -1 20 13l4 25q2 12 -9 17q-41 23 -137 23q-82 0 -128.5 -49t-46.5 -138q0 -101 92 -133v-3z" />
    <glyph glyph-name="omicron" unicode="&#x3bf;" horiz-adv-x="439" 
d="M402 252q0 83 -17 136q-10 33 -31 57q-45 52 -138 52q-181 0 -181 -245q0 -84 15 -143q11 -39 28 -62q44 -55 138 -55q75 3 115.5 32t54.5 85q16 54 16 143zM325 245q0 -102 -23.5 -144t-85.5 -42q-59 0 -81.5 42.5t-22.5 143.5q0 100 22.5 142.5t81.5 42.5
q62 0 85.5 -42t23.5 -143z" />
    <glyph glyph-name="pi" unicode="&#x3c0;" horiz-adv-x="444" 
d="M405 469q0 18 -17 18h-328q-17 0 -17 -17v-453q0 -17 17 -17h41q17 0 17 17v402h211v-402q0 -17 16 -17h42q18 0 18 17v452z" />
    <glyph glyph-name="rho" unicode="&#x3c1;" horiz-adv-x="442" 
d="M122 13q57 -22 109 -22q97 0 136.5 61.5t39.5 196.5q0 128 -42.5 188t-140.5 60q-184 0 -184 -244v-409q0 -12 4 -16t16 -4h35q21 0 21 20v165zM330 252q0 -109 -23 -152q-23 -41 -73 -41q-60 0 -118 18v168v7q0 53 6 87q6 32 16 47q29 46 85 46q55 0 81 -41t26 -139z
" />
    <glyph glyph-name="sigma1" unicode="&#x3c2;" horiz-adv-x="379" 
d="M352 140q0 79 -49 110q-39 25 -102 38q-53 9 -69.5 21.5t-16.5 46.5q0 39 17 55t62 16q29 0 114 -8q25 -3 26 10l4 26q1 13 -10 19q-52 23 -133 23q-75 0 -116.5 -37t-41.5 -106q0 -71 50 -102q41 -25 106 -37q47 -7 64 -24q16 -16 16 -59q0 -37 -20.5 -54t-64.5 -17
q-37 0 -123 10q-13 1 -17.5 -1.5t-6.5 -11.5l-4 -21q-4 -14 11 -22q48 -23 137 -23q76 0 121.5 37t45.5 111z" />
    <glyph glyph-name="sigma" unicode="&#x3c3;" horiz-adv-x="448" 
d="M419 417q12 0 16 4t4 14v34q0 18 -20 18h-203q-183 0 -183 -240q0 -68 8 -118q6 -31 18 -54q45 -87 155 -83q112 -4 159 84q19 35 26 112q2 34 2 59q0 123 -43 166l2 4h59zM214 58q-59 0 -81 41.5t-22 140.5q0 107 35 147q36 38 121 31q58 -45 58 -178q0 -98 -24.5 -140
t-86.5 -42z" />
    <glyph glyph-name="tau" unicode="&#x3c4;" horiz-adv-x="332" 
d="M318 54q-1 16 -24 13q-32 -3 -51 -3q-27 0 -37 11.5t-10 44.5v299h111q11 0 14.5 4t3.5 14v32q0 10 -3.5 14t-14.5 4h-278q-11 0 -14.5 -4t-3.5 -15v-31q0 -10 3.5 -14t14.5 -4h92v-319q0 -55 22.5 -81t75.5 -26q61 0 93 20q13 7 10 20z" />
    <glyph glyph-name="upsilon" unicode="&#x3c5;" horiz-adv-x="441" 
d="M340 487q-21 0 -21 -18v-291q0 -120 -101 -120q-55 0 -77 29.5t-22 90.5v291q0 11 -4 14.5t-15 3.5h-36q-20 0 -20 -18v-286q0 -96 40 -143t134 -47q178 0 178 190v286q0 18 -19 18h-37z" />
    <glyph glyph-name="phi" unicode="&#x3c6;" horiz-adv-x="557" 
d="M519 243q0 252 -210 252h-45q-23 0 -23 -24v-417q-63 4 -96.5 52.5t-33.5 134.5q0 134 81 194q11 8 6 17l-16 25q-11 15 -25 8q-60 -30 -90.5 -93t-30.5 -143q0 -247 204 -259v-149q0 -17 21 -17h34q20 0 20 17v150q99 7 151.5 73t52.5 179zM446 237q0 -170 -131 -182
v374q131 -5 131 -192z" />
    <glyph glyph-name="chi" unicode="&#x3c7;" horiz-adv-x="377" 
d="M281 13q7 -13 20 -13h61q7 0 9.5 5t-1.5 11l-140 234l132 221q4 6 1.5 11t-9.5 5h-59q-11 0 -18 -13l-89 -163l-90 163q-7 13 -18 13h-57q-7 0 -9.5 -5t1.5 -11l130 -222l-138 -233q-4 -5 -1.5 -10.5t9.5 -5.5h58q14 0 21 13l93 170z" />
    <glyph glyph-name="psi" unicode="&#x3c8;" horiz-adv-x="511" 
d="M290 -11q174 18 174 184v297q0 10 -4 13.5t-15 3.5h-33q-13 0 -17 -3t-4 -14v-295q0 -109 -101 -117v452q0 10 -4 13.5t-15 3.5h-34q-12 0 -16 -3.5t-4 -13.5v-452q-99 9 -99 117v295q0 17 -19 17h-35q-12 0 -16 -3t-4 -14v-297q0 -86 41 -131.5t132 -52.5v-147
q0 -11 4 -14t16 -3h34q11 0 15 3.5t4 13.5v147z" />
    <glyph glyph-name="omega" unicode="&#x3c9;" horiz-adv-x="649" 
d="M536 243q0 -92 -21 -136t-66 -44q-34 0 -55 18.5t-27 44.5q-5 24 -6 58v122q0 18 -19 18h-36q-20 0 -20 -18v-122q0 -50 -13 -82q-17 -39 -71 -39q-47 0 -67.5 43.5t-20.5 142.5q1 72 15.5 112.5t54.5 70.5q16 11 8 25l-14 25q-8 14 -24 6q-77 -35 -100 -111
q-18 -59 -18 -143q0 -124 38 -183t128 -59q80 0 119 72h3q15 -32 49 -52t76 -20q165 0 165 244q0 80 -20 140q-23 76 -102 112q-16 8 -24 -6l-14 -25q-8 -14 8 -25q40 -31 56.5 -75t17.5 -114z" />
    <glyph glyph-name="iotadieresis" unicode="&#x3ca;" horiz-adv-x="194" 
d="M218 609q0 22 -9 32t-31 10q-39 0 -39 -42q0 -23 8 -34t31 -11q40 0 40 45zM59 609q0 42 -39 42q-41 0 -41 -42q0 -23 8.5 -34t32.5 -11q39 0 39 45zM135 470q0 17 -16 17h-41q-18 0 -18 -17v-453q0 -17 18 -17h41q16 0 16 17v453z" />
    <glyph glyph-name="upsilondieresis" unicode="&#x3cb;" horiz-adv-x="441" 
d="M340 487q-21 0 -21 -18v-291q0 -120 -101 -120q-55 0 -77 29.5t-22 90.5v291q0 11 -4 14.5t-15 3.5h-36q-20 0 -20 -18v-286q0 -96 40 -143t134 -47q178 0 178 190v286q0 18 -19 18h-37zM339 609q0 22 -9 32t-31 10q-39 0 -39 -42q0 -23 8 -34t31 -11q40 0 40 45z
M180 609q0 42 -39 42q-41 0 -41 -42q0 -23 8.5 -34t32.5 -11q39 0 39 45z" />
    <glyph glyph-name="omicrontonos" unicode="&#x3cc;" horiz-adv-x="439" 
d="M402 252q0 83 -17 136q-10 33 -31 57q-45 52 -138 52q-181 0 -181 -245q0 -84 15 -143q11 -39 28 -62q44 -55 138 -55q75 3 115.5 32t54.5 85q16 54 16 143zM325 245q0 -102 -23.5 -144t-85.5 -42q-59 0 -81.5 42.5t-22.5 143.5q0 100 22.5 142.5t81.5 42.5
q62 0 85.5 -42t23.5 -143zM312 677q8 11 -3 15l-46 20q-13 6 -17 -3l-62 -143q-5 -11 3 -14l29 -10q10 -4 15 3z" />
    <glyph glyph-name="upsilontonos" unicode="&#x3cd;" horiz-adv-x="441" 
d="M340 487q-21 0 -21 -18v-291q0 -120 -101 -120q-55 0 -77 29.5t-22 90.5v291q0 11 -4 14.5t-15 3.5h-36q-20 0 -20 -18v-286q0 -96 40 -143t134 -47q178 0 178 190v286q0 18 -19 18h-37zM308 677q8 11 -3 15l-46 20q-13 6 -17 -3l-62 -143q-5 -11 3 -14l29 -10
q10 -4 15 3z" />
    <glyph glyph-name="omegatonos" unicode="&#x3ce;" horiz-adv-x="649" 
d="M536 243q0 -92 -21 -136t-66 -44q-34 0 -55 18.5t-27 44.5q-5 24 -6 58v122q0 18 -19 18h-36q-20 0 -20 -18v-122q0 -50 -13 -82q-17 -39 -71 -39q-47 0 -67.5 43.5t-20.5 142.5q1 72 15.5 112.5t54.5 70.5q16 11 8 25l-14 25q-8 14 -24 6q-77 -35 -100 -111
q-18 -59 -18 -143q0 -124 38 -183t128 -59q80 0 119 72h3q15 -32 49 -52t76 -20q165 0 165 244q0 80 -20 140q-23 76 -102 112q-16 8 -24 -6l-14 -25q-8 -14 8 -25q40 -31 56.5 -75t17.5 -114zM419 677q7 11 -3 15l-46 20q-13 6 -17 -3l-62 -143q-5 -11 3 -14l29 -10
q11 -4 15 3z" />
    <glyph glyph-name="uni0400" unicode="&#x400;" horiz-adv-x="439" 
d="M409 54q0 17 -16 17h-258v244h219q17 0 17 16v38q0 16 -17 16h-219v206h245q18 0 18 17v39q0 16 -17 16h-306q-18 0 -18 -17v-630q0 -16 18 -16h317q17 0 17 16v38zM123 808q-6 -10 6 -17l120 -75q11 -6 18 3l18 23q6 8 -4 15l-110 94q-11 11 -20 -3z" />
    <glyph glyph-name="uni0401" unicode="&#x401;" horiz-adv-x="439" 
d="M409 54q0 17 -16 17h-258v244h219q17 0 17 16v38q0 16 -17 16h-219v206h245q18 0 18 17v39q0 16 -17 16h-306q-18 0 -18 -17v-630q0 -16 18 -16h317q17 0 17 16v38zM262 777q0 -23 7.5 -33.5t30.5 -10.5q24 0 32 11q8 12 8 33t-9 31q-8 11 -31 11q-38 0 -38 -42zM191 777
q0 23 -8.5 32.5t-30.5 9.5q-40 0 -40 -42q0 -23 8 -33.5t32 -10.5q22 0 30.5 11t8.5 33z" />
    <glyph glyph-name="uni0402" unicode="&#x402;" horiz-adv-x="619" 
d="M248 324q82 61 149 61q98 0 98 -144q0 -216 -127 -301q-13 -7 -7 -20l9 -22q5 -12 10 -13.5t20 4.5q26 12 55.5 36.5t45.5 46.5q73 104 73 262q0 106 -44.5 163.5t-124.5 57.5q-69 0 -157 -52v187h215q11 0 15 4t4 14v38q0 17 -18 17h-436q-19 0 -19 -17v-38q0 -10 4 -14
t15 -4h142v-572q0 -18 21 -18h37q20 0 20 18v306z" />
    <glyph glyph-name="uni0403" unicode="&#x403;" horiz-adv-x="395" 
d="M384 591q18 0 18 17v39q0 16 -17 16h-305q-19 0 -19 -16v-630q0 -17 18 -17h42q17 0 17 17v574h246zM284 848q-9 14 -20 3l-110 -94q-10 -7 -4 -15l18 -23q8 -9 18 -3l120 75q12 7 6 17z" />
    <glyph glyph-name="uni0404" unicode="&#x404;" horiz-adv-x="468" 
d="M278 594q62 0 147 -11q15 -1 19 11l6 28q3 15 -13 22q-63 25 -159 25q-137 0 -186 -108q-41 -91 -41 -237q0 -142 42 -230q49 -102 181 -102q98 0 164 27q14 5 11 22l-5 26q-4 13 -20 12q-93 -11 -146 -11q-86 0 -117 73q-27 68 -27 168h220q17 0 17 16v39q0 16 -17 16
h-219q3 107 35.5 160.5t107.5 53.5z" />
    <glyph glyph-name="uni0405" unicode="&#x405;" horiz-adv-x="458" 
d="M427 184q0 118 -79 158q-40 23 -108 36t-95 32q-24 20 -24 74q0 56 26.5 84t86.5 28q48 0 143 -13q22 -2 24 13l5 24q5 15 -14 23q-58 26 -158 26q-93 0 -143 -48.5t-50 -139.5q0 -94 58 -130q51 -32 134 -48q67 -13 91 -39q24 -25 24 -92q0 -50 -32.5 -77.5t-93.5 -27.5
q-36 0 -153 14q-19 3 -22 -11l-6 -28q-5 -15 14 -23q59 -28 168 -28q95 0 149.5 47.5t54.5 145.5z" />
    <glyph glyph-name="uni0406" unicode="&#x406;" horiz-adv-x="221" 
d="M150 645q0 18 -17 18h-44q-18 0 -18 -18v-628q0 -17 18 -17h44q17 0 17 17v628z" />
    <glyph glyph-name="uni0407" unicode="&#x407;" horiz-adv-x="221" 
d="M147 777q0 -23 7.5 -33.5t30.5 -10.5q24 0 32 11q8 12 8 33t-9 31q-8 11 -31 11q-38 0 -38 -42zM76 777q0 23 -8.5 32.5t-30.5 9.5q-40 0 -40 -42q0 -23 8 -33.5t32 -10.5q22 0 30.5 11t8.5 33zM150 645q0 18 -17 18h-44q-18 0 -18 -18v-628q0 -17 18 -17h44q17 0 17 17
v628z" />
    <glyph glyph-name="uni0408" unicode="&#x408;" horiz-adv-x="364" 
d="M300 645q0 18 -18 18h-43q-18 0 -18 -18v-478q0 -53 -21 -77t-69 -24q-35 0 -100 9q-15 3 -18 -10l-7 -29q-4 -15 15 -24q52 -21 118 -21q161 0 161 169v485z" />
    <glyph glyph-name="uni0409" unicode="&#x409;" horiz-adv-x="754" 
d="M357 17q0 -17 21 -17h183q82 0 133 50.5t51 141.5q0 37 -8 69.5t-27 63t-56 48t-88 17.5h-129v254q0 19 -21 19h-262q-21 0 -22 -19l-14 -251q-10 -198 -29 -265q-16 -63 -76 -75q-14 -2 -14 -14l1 -29q0 -11 4.5 -14.5t19.5 -3.5q57 0 86 28q35 32 48 77q19 61 24 119
q4 42 6 72l5 82l12 220h152v-573zM667 193q0 -59 -29.5 -91t-81.5 -32h-119v250h127q103 0 103 -127z" />
    <glyph glyph-name="uni040A" unicode="&#x40a;" horiz-adv-x="738" 
d="M720 192q0 75 -35 131q-40 64 -148 64h-126v257q0 18 -21 18h-36q-22 0 -22 -18v-257h-196v257q0 19 -20 19h-38q-21 0 -21 -19v-626q0 -18 21 -18h38q20 0 20 18v296h196v-297q0 -17 22 -17h182q82 0 133 50.5t51 141.5zM642 193q0 -59 -29.5 -91t-81.5 -32h-120v244
h127q104 0 104 -121z" />
    <glyph glyph-name="uni040B" unicode="&#x40b;" horiz-adv-x="599" 
d="M563 272q0 92 -30 139t-120 47q-79 0 -164 -56v188h208q22 0 22 18v38q0 17 -21 17h-428q-21 0 -21 -17v-38q0 -18 21 -18h140v-572q0 -18 21 -18h38q20 0 20 18v306q104 62 154 62q43 0 64 -23.5t21 -80.5v-264q0 -18 21 -18h32q22 0 22 18v254z" />
    <glyph glyph-name="uni040C" unicode="&#x40c;" horiz-adv-x="478" 
d="M305 345q33 10 58 42.5t37 80.5l44 169q8 25 -18 25h-33q-21 0 -25 -19l-47 -173q-10 -38 -32 -62t-43 -30q-22 -5 -46 -5h-68v272q0 18 -16 18h-43q-18 0 -18 -18v-628q0 -17 18 -17h43q16 0 16 17v285h73q48 0 78 -23t44 -80l45 -180q4 -19 26 -19h38q26 0 18 25
l-48 187q-27 106 -101 129v4zM315 848q-9 14 -20 3l-110 -94q-10 -7 -4 -15l18 -23q7 -9 18 -3l120 75q12 7 6 17z" />
    <glyph glyph-name="uni040D" unicode="&#x40d;" horiz-adv-x="547" 
d="M58 16q0 -16 16 -16h38q16 0 26 16l195 356q47 86 77 150h3v-505q0 -17 17 -17h41q18 0 18 17v631q0 15 -16 15h-41q-15 0 -25 -16l-206 -373l-39 -76l-26 -52h-3v499q0 18 -18 18h-41q-16 0 -16 -18v-629zM178 808q-6 -10 6 -17l120 -75q10 -6 18 3l18 23q6 8 -4 15
l-110 94q-11 11 -20 -3z" />
    <glyph glyph-name="uni040E" unicode="&#x40e;" horiz-adv-x="465" 
d="M239 248q-19 70 -63 200l-68 201q-4 13 -22 13h-52q-18 0 -13 -14l182 -497l-12 -32q-16 -37 -37 -50t-60 -9q-19 1 -22 -15l-4 -26q-3 -19 21 -23q30 -5 56 -5q50 0 77 34q26 33 58 117l175 505q4 16 -14 16h-42q-20 0 -27 -22l-62 -184q-12 -35 -65 -209h-6zM246 696
q37 0 73 26.5t57 70.5q8 15 -2 22l-18 14q-10 7 -20 -3q-13 -14 -26 -31t-20 -22q-23 -18 -42 -18q-32 0 -62 30l-33 41q-11 12 -21 3l-18 -16q-8 -8 -1 -21q21 -45 57 -70.5t76 -25.5z" />
    <glyph glyph-name="uni040F" unicode="&#x40f;" horiz-adv-x="519" 
d="M445 0q16 0 16 18v628q0 17 -16 17h-43q-18 0 -18 -17v-574h-248v574q0 17 -16 17h-43q-18 0 -18 -17v-628q0 -18 18 -18h141l6 -134q1 -12 4.5 -15t12.5 -3h41q14 0 16 21l6 131h141z" />
    <glyph glyph-name="uni0410" unicode="&#x410;" horiz-adv-x="477" 
d="M384 13q4 -13 17 -13h61q13 0 8 14l-179 633q-5 15 -19 15h-56q-14 0 -19 -15l-182 -631q-6 -16 8 -16h52q17 0 21 16l42 162h204zM244 568q6 -28 32 -132l49 -189h-169l52 192q10 36 33 129h3z" />
    <glyph glyph-name="uni0411" unicode="&#x411;" horiz-adv-x="462" 
d="M400 646q0 16 -17 16h-312q-13 -1 -13 -16v-630q0 -16 18 -16h167q91 0 146 50.5t55 141.5q0 197 -196 197h-112v201h246q18 0 18 17v39zM367 193q0 -123 -130 -123h-101v250h110q67 0 94 -32t27 -95z" />
    <glyph glyph-name="uni0412" unicode="&#x412;" horiz-adv-x="485" 
d="M455 182q0 53 -25 100q-24 49 -79 65l-1 1q43 20 64 59.5t21 84.5q0 79 -50.5 124.5t-143.5 45.5h-165q-18 0 -18 -16v-629q0 -17 21 -17h195q75 0 128 50q53 51 53 132zM353 486q0 -45 -31.5 -76t-75.5 -31h-111v213h96q59 0 90.5 -28.5t31.5 -77.5zM373 189
q0 -118 -124 -118h-114v238h114q59 0 91.5 -33.5t32.5 -86.5z" />
    <glyph glyph-name="uni0413" unicode="&#x413;" horiz-adv-x="395" 
d="M384 591q18 0 18 17v39q0 16 -17 16h-305q-19 0 -19 -16v-630q0 -17 18 -17h42q17 0 17 17v574h246z" />
    <glyph glyph-name="uni0414" unicode="&#x414;" horiz-adv-x="567" 
d="M478 -128q2 -21 14 -21h40q12 0 13 21l10 176q2 20 -14 21l-44 4v572q0 18 -16 18h-305q-22 0 -24 -21l-29 -365q-7 -81 -23 -127q-13 -41 -48 -76l-30 -7q-18 -5 -17 -24l7 -171q2 -21 14 -21h38q9 0 12.5 4t4.5 17l6 128h385zM142 72q28 29 38 75q13 50 20 143l22 301
h198v-519h-278z" />
    <glyph glyph-name="uni0415" unicode="&#x415;" horiz-adv-x="439" 
d="M409 54q0 17 -16 17h-258v244h219q17 0 17 16v38q0 16 -17 16h-219v206h245q18 0 18 17v39q0 16 -17 16h-306q-18 0 -18 -17v-630q0 -16 18 -16h317q17 0 17 16v38z" />
    <glyph glyph-name="uni0416" unicode="&#x416;" horiz-adv-x="733" 
d="M561 345q33 10 58 42.5t37 80.5l44 169q8 25 -18 25h-33q-21 0 -25 -19l-47 -173q-10 -38 -32 -62t-43 -30q-22 -5 -46 -5h-48v272q0 18 -16 18h-43q-18 0 -18 -18v-272h-48q-47 0 -76.5 21t-44.5 76l-47 173q-4 19 -25 19h-33q-26 0 -18 -25l44 -169q12 -48 37 -80.5
t58 -42.5v-4q-74 -23 -101 -129l-48 -187q-8 -25 18 -25h38q22 0 26 19l45 180q14 57 44 80t78 23h53v-285q0 -17 18 -17h43q16 0 16 17v285h53q48 0 78 -23t44 -80l45 -180q4 -19 26 -19h38q26 0 18 25l-48 187q-27 106 -101 129v4z" />
    <glyph glyph-name="uni0417" unicode="&#x417;" horiz-adv-x="421" 
d="M289 354q42 13 70.5 54.5t28.5 90.5q0 89 -43.5 131.5t-139.5 42.5q-91 0 -154 -28q-14 -7 -13 -23l5 -23q2 -18 25 -13q82 12 126 12q41 0 71 -17q38 -21 38 -91q0 -59 -35.5 -83t-117.5 -24q-11 0 -14 -3.5t-3 -15.5v-33q0 -11 2.5 -13.5t14.5 -2.5q88 0 127.5 -29.5
t39.5 -95.5q0 -127 -137 -127q-43 0 -154 16q-20 3 -21 -13l-5 -24q-3 -16 13 -23q25 -12 81 -20t90 -8q98 0 157 52t59 144q0 65 -30.5 108t-80.5 55v4z" />
    <glyph glyph-name="uni0418" unicode="&#x418;" horiz-adv-x="547" 
d="M58 16q0 -16 16 -16h38q16 0 26 16l195 356q47 86 77 150h3v-505q0 -17 17 -17h41q18 0 18 17v631q0 15 -16 15h-41q-15 0 -25 -16l-206 -373l-39 -76l-26 -52h-3v499q0 18 -18 18h-41q-16 0 -16 -18v-629z" />
    <glyph glyph-name="uni0419" unicode="&#x419;" horiz-adv-x="547" 
d="M58 16q0 -16 16 -16h38q16 0 26 16l195 356q47 86 77 150h3v-505q0 -17 17 -17h41q18 0 18 17v631q0 15 -16 15h-41q-15 0 -25 -16l-206 -373l-39 -76l-26 -52h-3v499q0 18 -18 18h-41q-16 0 -16 -18v-629zM275 696q37 0 73 26.5t57 70.5q8 15 -2 22l-18 14q-10 7 -20 -3
q-13 -14 -26 -31t-20 -22q-23 -18 -42 -18q-32 0 -62 30l-33 41q-10 12 -21 3l-18 -16q-8 -8 -1 -21q21 -45 57 -70.5t76 -25.5z" />
    <glyph glyph-name="uni041A" unicode="&#x41a;" horiz-adv-x="478" 
d="M305 345q33 10 58 42.5t37 80.5l44 169q8 25 -18 25h-33q-21 0 -25 -19l-47 -173q-10 -38 -32 -62t-43 -30q-22 -5 -46 -5h-68v272q0 18 -16 18h-43q-18 0 -18 -18v-628q0 -17 18 -17h43q16 0 16 17v285h73q48 0 78 -23t44 -80l45 -180q4 -19 26 -19h38q26 0 18 25
l-48 187q-27 106 -101 129v4z" />
    <glyph glyph-name="uni041B" unicode="&#x41b;" horiz-adv-x="510" 
d="M375 590v-572q0 -18 22 -18h37q20 0 20 18v626q0 19 -20 19h-280q-22 0 -22 -19l-14 -251q-10 -193 -28 -261q-16 -63 -74 -78q-18 -4 -18 -15l1 -29q0 -11 5 -14.5t20 -3.5q57 0 95 34q28 23 48 88q8 23 12 59q6 53 7 64q4 65 4 70l15 283h170z" />
    <glyph glyph-name="uni041C" unicode="&#x41c;" horiz-adv-x="643" 
d="M584 648q0 15 -15 15h-40q-16 0 -25 -16l-123 -293q-44 -107 -57 -146h-3l-59 148l-124 292q-8 15 -22 15h-44q-15 0 -15 -15v-631q0 -17 17 -17h42q16 0 16 17v454h2q36 -92 59 -143l94 -213q6 -12 21 -12h29q14 0 20 13l85 201q42 99 61 154h3v-454q0 -17 18 -17h43
q17 0 17 17v631z" />
    <glyph glyph-name="uni041D" unicode="&#x41d;" horiz-adv-x="518" 
d="M460 645q0 18 -16 18h-43q-18 0 -18 -18v-258h-248v258q0 18 -16 18h-43q-18 0 -18 -18v-628q0 -17 18 -17h43q16 0 16 17v298h248v-298q0 -17 18 -17h43q16 0 16 17v628z" />
    <glyph glyph-name="uni041E" unicode="&#x41e;" horiz-adv-x="555" 
d="M506 341q0 117 -22 188q-14 48 -38 75q-55 67 -170 67q-114 0 -171 -76q-24 -34 -37 -79q-20 -75 -20 -175q0 -93 11 -166q8 -46 22 -74q54 -115 194 -110q147 6 196 110q25 48 32 154q3 36 3 86zM426 331q0 -139 -34.5 -203.5t-116.5 -64.5q-80 0 -112.5 65t-32.5 203
q0 136 34 203t111 67q82 0 116.5 -64.5t34.5 -205.5z" />
    <glyph glyph-name="uni041F" unicode="&#x41f;" horiz-adv-x="526" 
d="M472 644q0 11 -3.5 15t-14.5 4h-377q-11 0 -15 -4t-4 -15v-627q0 -17 21 -17h37q19 0 19 17v572h260v-572q0 -17 22 -17h35q20 0 20 17v627z" />
    <glyph glyph-name="uni0420" unicode="&#x420;" horiz-adv-x="448" 
d="M429 470q0 92 -53.5 142.5t-145.5 50.5h-155q-18 0 -18 -16v-630q0 -17 18 -17h43q17 0 17 17v252h96q115 0 159 67q39 57 39 134zM352 469q0 -63 -28 -97t-94 -34h-95v254h89q128 0 128 -123z" />
    <glyph glyph-name="uni0421" unicode="&#x421;" horiz-adv-x="468" 
d="M278 594q62 0 147 -11q15 -1 19 11l6 28q3 15 -13 22q-63 25 -159 25q-137 0 -186 -108q-41 -91 -41 -237q0 -142 42 -230q49 -102 181 -102q98 0 164 27q14 5 11 22l-5 26q-4 13 -20 12q-93 -11 -146 -11q-88 0 -119 79q-25 68 -25 177q0 97 13 157q9 37 24 60
q34 53 107 53z" />
    <glyph glyph-name="uni0422" unicode="&#x422;" horiz-adv-x="418" 
d="M410 647q0 16 -17 16h-367q-17 0 -17 -16v-39q0 -17 18 -17h143v-574q0 -17 18 -17h43q16 0 16 17v574h145q18 0 18 17v39z" />
    <glyph glyph-name="uni0423" unicode="&#x423;" horiz-adv-x="465" 
d="M239 248q-19 70 -63 200l-68 201q-4 13 -22 13h-52q-18 0 -13 -14l182 -497l-12 -32q-16 -37 -37 -50t-60 -9q-19 1 -22 -15l-4 -26q-3 -19 21 -23q30 -5 56 -5q50 0 77 34q26 33 58 117l175 505q4 16 -14 16h-42q-20 0 -27 -22l-62 -184q-12 -35 -65 -209h-6z" />
    <glyph glyph-name="uni0424" unicode="&#x424;" horiz-adv-x="659" 
d="M374 72q130 12 188 85q59 74 59 181q0 90 -47 160q-54 85 -200 99v48q0 18 -17 18h-44q-18 0 -18 -18v-48q-57 -5 -101.5 -24.5t-71 -46t-44 -60.5t-24 -65t-7.5 -63q-1 -101 48 -175q59 -84 200 -91v-55q0 -17 18 -17h44q17 0 17 17v55zM121 335q0 177 174 193v-387
q-90 10 -132 57t-42 137zM543 334q0 -88 -42.5 -138t-126.5 -56v388q84 -8 126.5 -59.5t42.5 -134.5z" />
    <glyph glyph-name="uni0425" unicode="&#x425;" horiz-adv-x="454" 
d="M363 14q8 -14 22 -14h57q16 0 8 14l-176 331l161 302q3 5 0.5 10.5t-9.5 4.5h-54q-16 0 -23 -13l-115 -231l-115 232q-7 13 -21 13h-58q-7 0 -9 -5t2 -11l160 -302l-175 -330q-8 -15 7 -15h57q15 0 23 14l129 257z" />
    <glyph glyph-name="uni0426" unicode="&#x426;" horiz-adv-x="519" 
d="M435 -127q1 -21 14 -21h40q11 0 13 21l10 176q0 18 -14 21l-39 4v572q0 17 -16 17h-43q-18 0 -18 -17v-574h-247v574q0 17 -16 17h-43q-18 0 -18 -17v-628q0 -18 18 -18h353z" />
    <glyph glyph-name="uni0427" unicode="&#x427;" horiz-adv-x="496" 
d="M361 364q-63 -20 -141 -20q-68 0 -87 39q-15 34 -15 87v174q0 19 -21 19h-36q-21 0 -21 -19v-192q0 -184 168 -184q90 0 153 25v-275q0 -18 20 -18h36q21 0 21 18v628q0 17 -21 17h-36q-20 0 -20 -17v-282z" />
    <glyph glyph-name="uni0428" unicode="&#x428;" horiz-adv-x="707" 
d="M650 647q0 17 -16 17h-43q-18 0 -18 -17v-574h-178v572q0 18 -17 18h-44q-18 0 -18 -18v-572h-181v574q0 17 -16 17h-43q-18 0 -18 -17v-628q0 -19 18 -19h558q16 0 16 19v628z" />
    <glyph glyph-name="uni0429" unicode="&#x429;" horiz-adv-x="710" 
d="M625 -127q1 -21 14 -21h40q11 0 13 21l10 176q0 18 -14 21l-38 4v573q0 17 -16 17h-43q-18 0 -18 -17v-575h-178v573q0 18 -17 18h-44q-18 0 -18 -18v-572h-181v574q0 17 -16 17h-43q-18 0 -18 -17v-628q0 -19 18 -19h543z" />
    <glyph glyph-name="uni042A" unicode="&#x42a;" horiz-adv-x="603" 
d="M572 192q0 197 -200 197h-110v256q0 17 -17 17h-228q-17 0 -17 -16v-39q0 -17 18 -17h166v-574q0 -16 18 -16h169q91 0 146 50.5t55 141.5zM495 193q0 -123 -130 -123h-103v250h112q121 0 121 -127z" />
    <glyph glyph-name="uni042B" unicode="&#x42b;" horiz-adv-x="662" 
d="M451 192q0 78 -38 132q-44 65 -162 65h-106v256q0 17 -17 17h-43q-18 0 -18 -17v-629q0 -16 18 -16h165q91 0 146 50.5t55 141.5zM374 193q0 -123 -130 -123h-99v250h108q121 0 121 -127zM602 645q0 18 -17 18h-44q-18 0 -18 -18v-628q0 -17 18 -17h44q17 0 17 17v628z
" />
    <glyph glyph-name="uni042C" unicode="&#x42c;" horiz-adv-x="465" 
d="M441 192q0 78 -38 132q-44 65 -162 65h-106v256q0 17 -17 17h-43q-18 0 -18 -17v-629q0 -16 18 -16h165q91 0 146 50.5t55 141.5zM364 193q0 -123 -130 -123h-99v250h108q121 0 121 -127z" />
    <glyph glyph-name="uni042D" unicode="&#x42d;" horiz-adv-x="468" 
d="M218 -8q235 0 235 346q0 120 -22 191q-13 47 -36 75q-52 66 -162 66q-95 0 -151 -27q-14 -7 -13 -23l4 -26q2 -15 25 -12q91 13 135 13q42 0 68 -16q28 -17 41 -48q23 -49 27 -146h-214q-10 0 -13 -3.5t-3 -13.5v-36q0 -10 3 -13.5t13 -3.5h215q-8 -248 -152 -248
q-50 0 -145 14q-21 5 -23 -12l-5 -28q-2 -16 14 -23q58 -26 159 -26z" />
    <glyph glyph-name="uni042E" unicode="&#x42e;" horiz-adv-x="725" 
d="M680 341q0 115 -21 185q-14 48 -36 76q-53 69 -167 69q-144 -5 -188 -132q-23 -61 -28 -151h-104v256q0 19 -19 19h-38q-21 0 -21 -19v-626q0 -18 21 -18h38q19 0 19 18v296h103q1 -102 22 -178q13 -46 36 -76q51 -69 159 -69q72 -3 120 30t72 85q23 45 30 153q2 46 2 82
zM600 331q0 -139 -32.5 -203.5t-111.5 -64.5q-75 0 -105 64.5t-30 203.5q0 140 30 205t105 65q82 0 113 -62.5t31 -207.5z" />
    <glyph glyph-name="uni042F" unicode="&#x42f;" horiz-adv-x="474" 
d="M141 308q-52 -24 -73 -109l-43 -174q-8 -25 18 -25h35q21 0 25 19l42 167q25 102 118 102h80v-270q0 -18 17 -18h43q17 0 17 17v630q0 16 -17 16h-159q-82 0 -139 -51q-56 -51 -56 -146q0 -55 23.5 -97t68.5 -56v-5zM130 473q0 61 39 90q40 28 86 28h88v-234h-82
q-131 0 -131 116z" />
    <glyph glyph-name="uni0430" unicode="&#x430;" horiz-adv-x="449" 
d="M314 119q-83 -56 -142 -56q-35 0 -48.5 15t-13.5 55q0 100 89 100h115v-114zM156 -8q76 0 158 57l2 -1q3 -28 18.5 -40t48.5 -12q15 0 33 3q20 3 20 19v25q0 11 -17 13q-21 2 -25 7.5t-4 29.5v6v214q0 91 -33 138q-31 46 -131 46q-85 0 -143 -20q-19 -7 -16 -22l6 -28
q3 -12 20 -9q77 9 120 9q53 0 77 -23.5t24 -77.5v-28h-111q-89 0 -129.5 -40.5t-40.5 -127.5q0 -70 29.5 -104t93.5 -34z" />
    <glyph glyph-name="uni0431" unicode="&#x431;" horiz-adv-x="438" 
d="M124 467q9 70 37 98q28 30 98 51q44 13 104 27q18 4 13 24l-7 28q-3 15 -21 11q-85 -17 -144 -37q-108 -34 -145 -161q-26 -92 -26 -277q0 -95 29 -159q38 -80 148 -80q134 0 172 109q18 52 20 130q4 110 -26 177q-32 80 -142 80q-59 0 -105 -23zM230 420q63 0 80 -56
q16 -47 15 -141q0 -59 -18 -109q-20 -56 -92 -56q-66 0 -86 50q-16 41 -16 111q0 117 8 176q51 25 109 25z" />
    <glyph glyph-name="uni0432" unicode="&#x432;" horiz-adv-x="423" 
d="M318 260q28 15 43 43t15 56q0 128 -154 128h-159q-22 0 -22 -18v-449q0 -20 26 -20h168q67 0 111 39t44 101q0 36 -19 68.5t-54 46.5zM313 143q0 -32 -22.5 -52.5t-72.5 -20.5h-101v151h116q80 0 80 -78zM217 419q83 0 83 -64q0 -30 -20 -49.5t-53 -19.5h-110v133h100z
" />
    <glyph glyph-name="uni0433" unicode="&#x433;" horiz-adv-x="366" 
d="M358 467q0 20 -20 20h-271q-24 0 -24 -20v-447q0 -20 24 -20h31q12 0 16.5 4.5t4.5 15.5v398h218q13 0 17 4t4 16v29z" />
    <glyph glyph-name="uni0434" unicode="&#x434;" horiz-adv-x="492" 
d="M134 70q19 28 26 58q10 34 23 131l21 158h149v-347h-219zM428 462q0 25 -26 25h-210q-30 0 -42 -10t-16 -35l-31 -231l-12 -67q-14 -53 -47 -72l-23 -8q-11 -3 -14 -7t-3 -15l3 -157q0 -12 2.5 -15t11.5 -3h38q11 0 13 21l8 112h318l4 -112q2 -21 14 -21h37q11 0 13 21
l10 155q1 21 -14 22l-34 4v393z" />
    <glyph glyph-name="uni0435" unicode="&#x435;" horiz-adv-x="420" 
d="M215 430q64 0 83 -46q19 -38 20 -102h-204q2 77 26 112.5t75 35.5zM218 -9q78 0 143 27q14 6 11 20l-4 22q-4 16 -23 13q-74 -10 -122 -10q-58 0 -83 35t-26 121h239q45 0 43 57q-2 92 -33 150q-38 71 -146 71q-134 -5 -166 -124q-16 -52 -16 -130q0 -92 17 -145
q12 -35 31 -57q43 -50 135 -50z" />
    <glyph glyph-name="uni0436" unicode="&#x436;" horiz-adv-x="586" 
d="M461 255q22 6 36.5 30.5t30.5 73.5l32 107q8 21 -15 21h-37q-17 0 -21 -16l-34 -110q-15 -47 -37 -64t-58 -17h-25v192q0 15 -14 15h-47q-15 0 -15 -15v-192h-25q-36 0 -58 17t-37 64l-34 110q-4 16 -21 16h-37q-26 0 -15 -21l32 -107q16 -49 30.5 -73.5t36.5 -30.5v-2
q-35 -10 -51 -41q-12 -22 -26 -68l-36 -123q-8 -21 15 -21h41q17 0 21 16l33 112q15 51 37.5 68t64.5 17h29v-199q0 -14 15 -14h47q14 0 14 14v199h29q42 0 64.5 -17t37.5 -68l33 -112q4 -16 21 -16h41q23 0 15 21l-36 123q-14 46 -26 68q-16 31 -51 41v2z" />
    <glyph glyph-name="uni0437" unicode="&#x437;" horiz-adv-x="358" 
d="M2 37q-3 -11 11 -19q46 -26 141 -26q80 0 127 39.5t47 120.5q0 84 -76 112q30 15 48 43t18 59q0 132 -153 132q-26 0 -68 -6q-40 -6 -62 -17q-13 -7 -12 -18l4 -23q1 -18 24 -14q61 8 109 8q78 0 78 -70q0 -36 -25 -51.5t-80 -15.5q-11 0 -14 -2.5t-3 -11.5v-32
q0 -10 3 -12.5t14 -2.5q60 0 87 -19t27 -64q0 -48 -25 -67t-79 -19q-52 0 -111 10q-21 4 -25 -13z" />
    <glyph glyph-name="uni0438" unicode="&#x438;" horiz-adv-x="450" 
d="M331 20q0 -20 23 -20h30q22 0 22 20v448q0 19 -21 19h-25q-14 0 -27 -15l-124 -184q-52 -78 -85 -133l-6 1v310q0 21 -22 21h-33q-11 0 -15.5 -4.5t-4.5 -16.5v-446q0 -11 4.5 -15.5t15.5 -4.5h17q17 0 28 15l148 219q46 68 71 113l4 -1v-326z" />
    <glyph glyph-name="uni0439" unicode="&#x439;" horiz-adv-x="450" 
d="M331 20q0 -20 23 -20h30q22 0 22 20v448q0 19 -21 19h-25q-14 0 -27 -15l-124 -184q-52 -78 -85 -133l-6 1v310q0 21 -22 21h-33q-11 0 -15.5 -4.5t-4.5 -16.5v-446q0 -11 4.5 -15.5t15.5 -4.5h17q17 0 28 15l148 219q46 68 71 113l4 -1v-326zM228 543q37 0 73 26.5
t57 70.5q8 15 -2 22l-18 14q-10 7 -20 -3q-14 -13 -26 -31q-13 -17 -20 -22q-23 -18 -42 -18q-32 0 -62 30l-33 41q-11 12 -21 3l-18 -16q-8 -8 -1 -21q21 -45 57 -70.5t76 -25.5z" />
    <glyph glyph-name="uni043A" unicode="&#x43a;" horiz-adv-x="396" 
d="M263 255q22 6 36.5 30.5t30.5 73.5l32 107q8 21 -15 21h-37q-17 0 -21 -16l-34 -110q-15 -47 -37 -64t-58 -17h-41v192q0 15 -14 15h-47q-15 0 -15 -15v-458q0 -14 15 -14h47q14 0 14 14v199h45q42 0 64.5 -17t37.5 -68l33 -112q4 -16 21 -16h41q23 0 15 21l-36 123
q-14 46 -26 68q-16 31 -51 41v2z" />
    <glyph glyph-name="uni043B" unicode="&#x43b;" horiz-adv-x="442" 
d="M171 487q-28 0 -41.5 -11t-16.5 -38l-21 -246q-6 -69 -22 -100.5t-57 -43.5q-9 -2 -11 -4.5t-2 -9.5v-27q0 -16 22 -16q87 2 112 57q21 42 27 120l17 250h145v-398q0 -20 21 -20h33q21 0 21 20v446q0 21 -23 21h-204z" />
    <glyph glyph-name="uni043C" unicode="&#x43c;" horiz-adv-x="521" 
d="M262 170q-12 31 -49 112l-91 190q-8 15 -26 15h-33q-20 0 -20 -19v-448q0 -20 21 -20h32q22 0 22 20v282h3l104 -216q7 -13 24 -13h25q16 0 24 14l102 214h4v-281q0 -20 22 -20h32q21 0 21 20v448q0 19 -19 19h-28q-20 0 -27 -16l-92 -191q-43 -93 -49 -110h-2z" />
    <glyph glyph-name="uni043D" unicode="&#x43d;" horiz-adv-x="447" 
d="M403 466q0 21 -22 21h-29q-24 0 -24 -21v-174h-210v174q0 21 -22 21h-31q-22 0 -22 -21v-446q0 -20 22 -20h31q22 0 22 20v205h210v-205q0 -20 24 -20h29q22 0 22 20v446z" />
    <glyph glyph-name="uni043E" unicode="&#x43e;" horiz-adv-x="439" 
d="M402 252q0 83 -17 136q-10 33 -31 57q-45 52 -138 52q-181 0 -181 -245q0 -84 15 -143q11 -39 28 -62q44 -55 138 -55q75 3 115.5 32t54.5 85q16 54 16 143zM325 245q0 -102 -23.5 -144t-85.5 -42q-59 0 -81.5 42.5t-22.5 143.5q0 100 22.5 142.5t81.5 42.5
q62 0 85.5 -42t23.5 -143z" />
    <glyph glyph-name="uni043F" unicode="&#x43f;" horiz-adv-x="444" 
d="M405 469q0 18 -17 18h-328q-17 0 -17 -17v-453q0 -17 17 -17h41q17 0 17 17v402h211v-402q0 -17 16 -17h42q18 0 18 17v452z" />
    <glyph glyph-name="uni0440" unicode="&#x440;" horiz-adv-x="436" 
d="M124 13q54 -22 113 -22q96 0 135 60.5t39 196.5q0 129 -33.5 187.5t-112.5 58.5q-66 0 -142 -50l-3 2v24q0 17 -17 17h-41q-17 0 -17 -17v-627q0 -11 3.5 -15t13.5 -4h41q18 0 18 19v167zM333 251q0 -106 -21.5 -149t-74.5 -43q-57 0 -116 18v303q25 16 65 29
q42 14 69 14q41 0 59.5 -33.5t18.5 -138.5z" />
    <glyph glyph-name="uni0441" unicode="&#x441;" horiz-adv-x="370" 
d="M210 -8q90 0 141 23q14 8 11 21l-4 21q-1 16 -22 13q-63 -10 -123 -10q-55 0 -77 40q-21 40 -21 148q0 102 21 141t77 39q25 0 115 -9q25 -2 26 11l4 23q3 17 -10 21q-60 23 -138 23q-109 0 -146 -80q-30 -68 -30 -173q0 -93 18 -149q10 -32 29 -56q42 -47 129 -47z" />
    <glyph glyph-name="uni0442" unicode="&#x442;" horiz-adv-x="366" 
d="M361 467q0 20 -22 20h-311q-23 0 -23 -20v-28q0 -21 24 -21h117v-398q0 -20 24 -20h29q22 0 22 20v398h117q13 0 18 4.5t5 16.5v28z" />
    <glyph glyph-name="uni0443" unicode="&#x443;" horiz-adv-x="405" 
d="M208 108q-10 50 -36 134l-72 231q-5 14 -16 14h-53q-14 0 -8 -16l153 -471l-52 -160q-4 -16 9 -16h46q15 0 20 14l199 634q4 15 -7 15h-54q-12 0 -16 -13l-63 -214q-33 -111 -44 -152h-6z" />
    <glyph glyph-name="uni0444" unicode="&#x444;" horiz-adv-x="553" 
d="M34 237q0 -112 52.5 -175.5t153.5 -70.5v-150q0 -18 20 -18h36q17 0 17 16v152q99 7 151.5 73t52.5 179q0 101 -38 168q-41 78 -166 84v149q0 18 -21 18h-32q-20 0 -20 -18v-149q-61 -3 -103.5 -26.5t-63.5 -62.5t-30 -80t-9 -89zM111 237q0 187 129 192v-374
q-129 12 -129 182zM441 237q0 -170 -128 -182v374q128 -5 128 -192z" />
    <glyph glyph-name="uni0445" unicode="&#x445;" horiz-adv-x="377" 
d="M281 13q7 -13 20 -13h61q7 0 9.5 5t-1.5 11l-140 234l132 221q4 6 1.5 11t-9.5 5h-59q-11 0 -18 -13l-89 -163l-90 163q-7 13 -18 13h-57q-7 0 -9.5 -5t1.5 -11l130 -222l-138 -233q-4 -5 -1.5 -10.5t9.5 -5.5h58q14 0 21 13l93 170z" />
    <glyph glyph-name="uni0446" unicode="&#x446;" horiz-adv-x="452" 
d="M388 467q0 20 -23 20h-29q-23 0 -23 -20v-397h-195v397q0 20 -21 20h-32q-22 0 -22 -20v-446q0 -21 22 -21h291l3 -105q1 -21 14 -21h38q11 0 13 21l10 154q2 20 -14 21l-31 2z" />
    <glyph glyph-name="uni0447" unicode="&#x447;" horiz-adv-x="412" 
d="M21 336q0 -70 21 -113q26 -50 110 -50q70 0 140 49v-205q0 -17 21 -17h36q19 0 19 17v453q0 17 -19 17h-36q-21 0 -21 -17v-180q-23 -14 -64 -31q-38 -16 -65 -16q-38 0 -51.5 22.5t-13.5 85.5v119q0 17 -20 17h-36q-21 0 -21 -17v-134z" />
    <glyph glyph-name="uni0448" unicode="&#x448;" horiz-adv-x="596" 
d="M552 466q0 12 -4.5 16.5t-15.5 4.5h-31q-24 0 -24 -21v-396h-139v396q0 21 -23 21h-29q-23 0 -23 -21v-396h-145v396q0 21 -22 21h-31q-22 0 -22 -21v-444q0 -22 22 -22h467q20 0 20 22v444z" />
    <glyph glyph-name="uni0449" unicode="&#x449;" horiz-adv-x="614" 
d="M522 -108q2 -21 14 -21h38q12 0 13 21l9 155q2 20 -14 21l-32 3v395q0 12 -4.5 16.5t-15.5 4.5h-31q-24 0 -24 -21v-396h-138v396q0 21 -23 21h-29q-23 0 -23 -21v-396h-144v396q0 21 -22 21h-31q-22 0 -22 -21v-444q0 -22 22 -22h453z" />
    <glyph glyph-name="uni044A" unicode="&#x44a;" horiz-adv-x="494" 
d="M133 20q0 -20 25 -20h145q76 0 122.5 39.5t46.5 109.5q0 69 -38.5 108.5t-119.5 39.5h-106v170q0 20 -22 20h-164q-13 0 -17.5 -4t-4.5 -15v-30q0 -20 23 -20h110v-398zM398 149q0 -39 -24.5 -59t-69.5 -20h-96v157h103q48 0 67.5 -19.5t19.5 -58.5z" />
    <glyph glyph-name="uni044B" unicode="&#x44b;" horiz-adv-x="555" 
d="M514 466q0 21 -22 21h-31q-23 0 -23 -21v-446q0 -20 23 -20h31q22 0 22 20v446zM308 149q0 -38 -22 -58.5t-62 -20.5h-106v157h113q77 0 77 -78zM382 149q0 68 -36.5 108t-111.5 40h-116v170q0 20 -22 20h-28q-25 0 -25 -20v-447q0 -20 25 -20h155q70 0 114.5 40.5
t44.5 108.5z" />
    <glyph glyph-name="uni044C" unicode="&#x44c;" horiz-adv-x="405" 
d="M308 149q0 -38 -22 -58.5t-62 -20.5h-106v157h113q77 0 77 -78zM382 149q0 68 -36.5 108t-111.5 40h-116v170q0 20 -22 20h-28q-25 0 -25 -20v-447q0 -20 25 -20h155q70 0 114.5 40.5t44.5 108.5z" />
    <glyph glyph-name="uni044D" unicode="&#x44d;" horiz-adv-x="378" 
d="M18 39q-1 -16 11 -22q44 -23 137 -23q108 0 144 71q34 65 34 184q0 88 -15 142q-11 37 -28 57q-42 51 -128 51q-84 0 -133 -24q-13 -6 -11 -21l4 -21q1 -13 27 -12q76 10 106 10q49 0 71.5 -33.5t25.5 -109.5h-162q-14 0 -19 -4t-5 -15v-26q0 -12 5 -16t19 -4h163
q-3 -88 -25 -124t-73 -36q-40 0 -119 9q-22 1 -25 -13z" />
    <glyph glyph-name="uni044E" unicode="&#x44e;" horiz-adv-x="583" 
d="M546 252q0 79 -15 134q-11 36 -28 58q-44 53 -134 53q-161 0 -171 -204h-80v172q0 22 -23 22h-28q-24 0 -24 -22v-444q0 -21 24 -21h28q23 0 23 21v203h80q0 -75 17 -125q9 -30 28 -55q43 -52 126 -52q66 0 111 32q33 22 51 79q14 42 14 100q1 12 1 49zM469 245
q0 -98 -19 -139q-18 -42 -81 -42q-59 0 -77 41q-17 42 -17 140q0 86 15 130q17 51 79 51q60 0 80 -40.5t20 -140.5z" />
    <glyph glyph-name="uni044F" unicode="&#x44f;" horiz-adv-x="430" 
d="M113 216q-35 -20 -53 -80l-33 -115q-8 -21 15 -21h41q17 0 21 16l29 103q12 44 29.5 62t48.5 18h102v-178q0 -20 22 -20h28q25 0 25 20v447q0 20 -25 20h-158q-73 0 -118 -39.5t-45 -109.5q0 -98 70 -120zM116 339q0 37 26 58t67 21h104v-154h-104q-93 0 -93 75z" />
    <glyph glyph-name="uni0450" unicode="&#x450;" horiz-adv-x="420" 
d="M215 430q64 0 83 -46q19 -38 20 -102h-204q2 77 26 112.5t75 35.5zM218 -9q78 0 143 27q14 6 11 20l-4 22q-4 16 -23 13q-74 -10 -122 -10q-58 0 -83 35t-26 121h239q45 0 43 57q-2 92 -33 150q-38 71 -146 71q-134 -5 -166 -124q-16 -52 -16 -130q0 -92 17 -145
q12 -35 31 -57q43 -50 135 -50zM198 710q-4 9 -17 3l-46 -20q-11 -5 -3 -15l81 -135q5 -7 15 -3l29 13q8 3 3 14z" />
    <glyph glyph-name="uni0451" unicode="&#x451;" horiz-adv-x="420" 
d="M215 430q64 0 83 -46q19 -38 20 -102h-204q2 77 26 112.5t75 35.5zM218 -9q78 0 143 27q14 6 11 20l-4 22q-4 16 -23 13q-74 -10 -122 -10q-58 0 -83 35t-26 121h239q45 0 43 57q-2 92 -33 150q-38 71 -146 71q-134 -5 -166 -124q-16 -52 -16 -130q0 -92 17 -145
q12 -35 31 -57q43 -50 135 -50zM336 616q0 22 -9 32t-31 10q-39 0 -39 -42q0 -23 8 -34t31 -11q40 0 40 45zM177 616q0 42 -39 42q-41 0 -41 -42q0 -23 8.5 -34t32.5 -11q39 0 39 45z" />
    <glyph glyph-name="uni0452" unicode="&#x452;" horiz-adv-x="478" 
d="M30 607q-20 0 -20 -19v-26q0 -10 4 -14t16 -4h38v-526q0 -18 21 -18h35q19 0 19 18v342l-2 -1q71 42 123 42q46 0 73 -40t27 -116q0 -199 -129 -282q-13 -7 -8 -20l9 -21q5 -12 10.5 -14t20.5 5q89 48 132 136q44 90 44 186q0 114 -44.5 176t-120.5 61q-64 -1 -135 -41
v113h161q12 0 15.5 4t3.5 14v27q0 10 -4 14t-15 4h-161v79q0 18 -20 18h-36q-19 0 -19 -18v-79h-38z" />
    <glyph glyph-name="uni0453" unicode="&#x453;" horiz-adv-x="366" 
d="M358 467q0 20 -20 20h-271q-24 0 -24 -20v-447q0 -20 24 -20h31q12 0 16.5 4.5t4.5 15.5v398h218q13 0 17 4t4 16v29zM271 678q7 10 -3 15l-46 20q-13 6 -17 -3l-62 -143q-5 -11 3 -14l29 -10q11 -5 15 3z" />
    <glyph glyph-name="uni0454" unicode="&#x454;" horiz-adv-x="382" 
d="M210 -8q90 0 141 23q14 8 11 21l-4 21q-1 16 -22 13q-63 -10 -123 -10q-52 0 -74 36t-24 128h167q13 0 17 3.5t4 16.5v24q0 12 -4 15.5t-17 3.5h-167q4 78 25.5 109.5t72.5 31.5q25 0 115 -9q25 -2 26 11l4 23q3 17 -10 21q-60 23 -138 23q-109 0 -146 -80
q-30 -68 -30 -173q0 -93 18 -149q10 -32 29 -56q42 -47 129 -47z" />
    <glyph glyph-name="uni0455" unicode="&#x455;" horiz-adv-x="379" 
d="M352 140q0 79 -49 110q-39 25 -102 38q-53 9 -69.5 21.5t-16.5 46.5q0 39 17 55t62 16q29 0 114 -8q25 -3 26 10l4 26q1 13 -10 19q-52 23 -133 23q-75 0 -116.5 -37t-41.5 -106q0 -71 50 -102q41 -25 106 -37q47 -7 64 -24q16 -16 16 -59q0 -37 -20.5 -54t-64.5 -17
q-37 0 -123 10q-13 1 -17.5 -1.5t-6.5 -11.5l-4 -21q-4 -14 11 -22q48 -23 137 -23q76 0 121.5 37t45.5 111z" />
    <glyph glyph-name="uni0456" unicode="&#x456;" horiz-adv-x="194" 
d="M55 617q0 -45 42 -45q25 0 34 11q9 12 9 34t-9 32q-9 11 -34 11q-42 0 -42 -43zM135 470q0 17 -16 17h-41q-18 0 -18 -17v-453q0 -17 18 -17h41q16 0 16 17v453z" />
    <glyph glyph-name="uni0457" unicode="&#x457;" horiz-adv-x="223" 
d="M232 609q0 22 -9 32t-31 10q-39 0 -39 -42q0 -23 8 -34t31 -11q40 0 40 45zM73 609q0 42 -39 42q-41 0 -41 -42q0 -23 8.5 -34t32.5 -11q39 0 39 45zM149 470q0 17 -16 17h-41q-18 0 -18 -17v-453q0 -17 18 -17h41q16 0 16 17v453z" />
    <glyph glyph-name="uni0458" unicode="&#x458;" horiz-adv-x="209" 
d="M148 470q0 17 -18 17h-40q-18 0 -18 -17v-506q0 -58 -20 -76t-85 -32q-15 -3 -14 -19l2 -23q2 -17 20 -17q114 -5 145 49q28 43 28 120v504zM67 617q0 -45 42 -45q25 0 33 11q9 12 9 34t-9 32q-8 11 -33 11q-42 0 -42 -43z" />
    <glyph glyph-name="uni0459" unicode="&#x459;" horiz-adv-x="663" 
d="M299 20q0 -20 25 -20h147q76 0 122.5 39.5t46.5 109.5q0 69 -38.5 108.5t-119.5 39.5h-108v170q0 20 -21 20h-182q-28 0 -41.5 -11t-16.5 -38l-21 -246q0 -6 -1 -11q-1 -25 -3 -33l-4 -27q-3 -17 -8 -26q-27 -41 -63 -47q-9 -2 -11 -4.5t-2 -9.5v-27q0 -16 22 -16
q87 2 112 57q21 42 27 120l17 250l121 1v-399zM566 149q0 -39 -24.5 -59t-69.5 -20h-98v157h105q48 0 67.5 -19.5t19.5 -58.5z" />
    <glyph glyph-name="uni045A" unicode="&#x45a;" horiz-adv-x="637" 
d="M618 149q0 69 -39 108.5t-120 39.5h-106v170q0 20 -22 20h-28q-25 0 -25 -20v-174h-159v173q0 21 -21 21h-31q-23 0 -23 -21v-446q0 -20 23 -20h31q21 0 21 20v208h159v-208q0 -20 25 -20h145q77 0 123.5 39.5t46.5 109.5zM544 149q0 -79 -95 -79h-96v157h103
q48 0 68 -19.5t20 -58.5z" />
    <glyph glyph-name="uni045B" unicode="&#x45b;" horiz-adv-x="445" 
d="M117 543h169q11 0 14.5 4t3.5 14v27q0 10 -3.5 14t-14.5 4h-169v82q0 17 -18 17h-41q-16 0 -16 -17v-82h-28q-11 0 -14.5 -4t-3.5 -15v-26q0 -10 3.5 -14t14.5 -4h28v-526q0 -17 16 -17h41q18 0 18 17v349q89 47 138 47q38 0 52.5 -22.5t14.5 -86.5l-1 -287q0 -17 17 -17
h42q18 0 18 17v283q0 86 -21 130q-24 53 -112 53q-67 0 -143 -52l-5 2v110z" />
    <glyph glyph-name="uni045C" unicode="&#x45c;" horiz-adv-x="396" 
d="M263 255q22 6 36.5 30.5t30.5 73.5l32 107q8 21 -15 21h-37q-17 0 -21 -16l-34 -110q-15 -47 -37 -64t-58 -17h-41v192q0 15 -14 15h-47q-15 0 -15 -15v-458q0 -14 15 -14h47q14 0 14 14v199h45q42 0 64.5 -17t37.5 -68l33 -112q4 -16 21 -16h41q23 0 15 21l-36 123
q-14 46 -26 68q-16 31 -51 41v2zM287 678q7 10 -3 15l-46 20q-13 6 -17 -3l-62 -143q-5 -11 3 -14l29 -10q11 -5 15 3z" />
    <glyph glyph-name="uni045D" unicode="&#x45d;" horiz-adv-x="450" 
d="M331 20q0 -20 23 -20h30q22 0 22 20v448q0 19 -21 19h-25q-14 0 -27 -15l-124 -184q-52 -78 -85 -133l-6 1v310q0 21 -22 21h-33q-11 0 -15.5 -4.5t-4.5 -16.5v-446q0 -11 4.5 -15.5t15.5 -4.5h17q17 0 28 15l148 219q46 68 71 113l4 -1v-326zM205 710q-4 9 -17 3
l-46 -20q-10 -5 -3 -15l81 -135q4 -7 15 -3l29 13q8 3 3 14z" />
    <glyph glyph-name="uni045E" unicode="&#x45e;" horiz-adv-x="405" 
d="M208 108q-10 50 -36 134l-72 231q-5 14 -16 14h-53q-14 0 -8 -16l153 -471l-52 -160q-4 -16 9 -16h46q15 0 20 14l199 634q4 15 -7 15h-54q-12 0 -16 -13l-63 -214q-33 -111 -44 -152h-6zM223 561q83 0 132 103q5 14 -1 17l-21 15q-10 7 -20 -3q-23 -26 -31 -37l-12 -12
q-18 -18 -45 -18q-29 0 -49 17q-4 4 -8.5 8t-8.5 8l-8 10l-20 24q-13 13 -20 5l-19 -17q-8 -8 0 -25q20 -45 55.5 -70t75.5 -25z" />
    <glyph glyph-name="uni045F" unicode="&#x45f;" horiz-adv-x="444" 
d="M380 0q22 0 22 21v446q0 20 -22 20h-30q-24 0 -24 -20v-397h-208v397q0 20 -22 20h-31q-22 0 -22 -20v-446q0 -21 22 -21h119l6 -112q0 -21 14 -21h38q12 0 13 21l6 112h119z" />
    <glyph glyph-name="uni0490" unicode="&#x490;" horiz-adv-x="417" 
d="M408 771q0 21 -12 21h-29q-8 0 -11 -3.5t-4 -15.5l-14 -110h-258q-18 0 -18 -16v-630q0 -17 18 -17h44q16 0 16 17v574h252q16 0 16 21v159z" />
    <glyph glyph-name="uni0491" unicode="&#x491;" horiz-adv-x="365" 
d="M356 586q0 13 -11 13h-25q-10 0 -11 -13l-16 -99h-214q-24 0 -24 -20v-447q0 -20 24 -20h30q12 0 16.5 4.5t4.5 15.5v399h211q15 0 15 24v143z" />
    <glyph glyph-name="uni04D9" unicode="&#x4d9;" horiz-adv-x="420" 
d="M219 58q-62 0 -84 46q-18 42 -19 102h204q-2 -77 -26 -112.5t-75 -35.5zM216 497q-78 0 -143 -27q-14 -6 -11 -20l4 -22q4 -16 23 -13q74 10 122 10q58 0 83 -35t26 -121h-239q-45 0 -43 -57q2 -92 33 -151q38 -70 146 -70q134 4 166 123q16 54 16 131q0 92 -18 145
q-11 34 -30 57q-43 50 -135 50z" />
    <glyph glyph-name="Wgrave" unicode="&#x1e80;" horiz-adv-x="709" 
d="M358 389q14 -78 46 -204l43 -171q3 -14 20 -14h52q15 0 19 15l156 630q4 18 -8 18h-50q-14 0 -19 -14l-73 -317q-36 -159 -48 -229h-3q-19 100 -49 220l-79 326q-5 14 -19 14h-52q-13 0 -9 -16l31 -118l-46 -202q-31 -134 -43 -204h-2q-19 98 -49 207l-83 319
q-5 14 -18 14h-52q-13 0 -10 -15l166 -634q5 -14 17 -14h55q13 0 18 14l43 176q27 107 42 199h4zM229 808q-6 -10 6 -17l120 -75q11 -6 18 3l18 23q6 8 -4 15l-110 94q-11 11 -20 -3z" />
    <glyph glyph-name="wgrave" unicode="&#x1e81;" horiz-adv-x="599" 
 />
    <glyph glyph-name="Wacute" unicode="&#x1e82;" horiz-adv-x="709" 
d="M358 389q14 -78 46 -204l43 -171q3 -14 20 -14h52q15 0 19 15l156 630q4 18 -8 18h-50q-14 0 -19 -14l-73 -317q-36 -159 -48 -229h-3q-19 100 -49 220l-79 326q-5 14 -19 14h-52q-13 0 -9 -16l31 -118l-46 -202q-31 -134 -43 -204h-2q-19 98 -49 207l-83 319
q-5 14 -18 14h-52q-13 0 -10 -15l166 -634q5 -14 17 -14h55q13 0 18 14l43 176q27 107 42 199h4zM449 848q-9 14 -20 3l-110 -94q-10 -7 -4 -15l18 -23q7 -9 18 -3l120 75q12 7 6 17z" />
    <glyph glyph-name="wacute" unicode="&#x1e83;" horiz-adv-x="599" 
 />
    <glyph glyph-name="Wdieresis" unicode="&#x1e84;" horiz-adv-x="709" 
d="M358 389q14 -78 46 -204l43 -171q3 -14 20 -14h52q15 0 19 15l156 630q4 18 -8 18h-50q-14 0 -19 -14l-73 -317q-36 -159 -48 -229h-3q-19 100 -49 220l-79 326q-5 14 -19 14h-52q-13 0 -9 -16l31 -118l-46 -202q-31 -134 -43 -204h-2q-19 98 -49 207l-83 319
q-5 14 -18 14h-52q-13 0 -10 -15l166 -634q5 -14 17 -14h55q13 0 18 14l43 176q27 107 42 199h4zM394 777q0 -23 7.5 -33.5t30.5 -10.5q24 0 32 11q8 12 8 33t-9 31q-8 11 -31 11q-38 0 -38 -42zM323 777q0 23 -8.5 32.5t-30.5 9.5q-40 0 -40 -42q0 -23 8 -33.5t32 -10.5
q22 0 30.5 11t8.5 33z" />
    <glyph glyph-name="wdieresis" unicode="&#x1e85;" horiz-adv-x="599" 
 />
    <glyph glyph-name="Ygrave" unicode="&#x1ef2;" horiz-adv-x="441" 
d="M199 422q-23 57 -26 63l-75 165q-6 12 -19 12h-59q-14 0 -8 -13l173 -353v-279q0 -17 18 -17h42q16 0 16 17v279l173 351q8 15 -9 15h-52q-13 0 -21 -12l-76 -162q-41 -88 -50 -116h-6zM109 808q-6 -10 6 -17l120 -75q11 -6 18 3l18 23q6 8 -4 15l-110 94q-11 11 -20 -3z
" />
    <glyph glyph-name="ygrave" unicode="&#x1ef3;" horiz-adv-x="405" 
d="M208 108q-10 50 -36 134l-72 231q-5 14 -16 14h-53q-14 0 -8 -16l153 -471l-52 -160q-4 -16 9 -16h46q15 0 20 14l199 634q4 15 -7 15h-54q-12 0 -16 -13l-63 -214q-33 -111 -44 -152h-6zM180 710q-4 9 -17 3l-46 -20q-11 -5 -3 -15l81 -135q5 -7 15 -3l29 13q8 3 3 14z
" />
    <glyph glyph-name="figuredash" unicode="&#x2012;" horiz-adv-x="492" 
d="M463 267q0 15 -15 15h-403q-15 0 -15 -15v-28q0 -14 14 -14h405q14 0 14 14v28z" />
    <glyph glyph-name="endash" unicode="&#x2013;" horiz-adv-x="435" 
d="M413 267q0 15 -15 15h-353q-15 0 -15 -15v-28q0 -14 14 -14h355q14 0 14 14v28z" />
    <glyph glyph-name="emdash" unicode="&#x2014;" horiz-adv-x="701" 
d="M681 267q0 15 -15 15h-621q-15 0 -15 -15v-28q0 -14 14 -14h623q14 0 14 14v28z" />
    <glyph glyph-name="uni2015" unicode="&#x2015;" horiz-adv-x="701" 
d="M681 267q0 15 -15 15h-621q-15 0 -15 -15v-28q0 -14 14 -14h623q14 0 14 14v28z" />
    <glyph glyph-name="quoteleft" unicode="&#x2018;" horiz-adv-x="183" 
d="M42 525q0 -44 26 -67q14 -11 25 -1l39 34q12 7 3 21q-22 26 -22 68q0 32 30 71q7 11 3 15l-12 11q-7 7 -18 -1q-34 -21 -54 -60.5t-20 -90.5z" />
    <glyph glyph-name="quoteright" unicode="&#x2019;" horiz-adv-x="183" 
d="M149 612q0 44 -26 67q-14 11 -25 1l-39 -34q-12 -8 -3 -21q23 -26 22 -68t-30 -71q-10 -10 -3 -15l12 -11q7 -7 18 1q34 21 54 60.5t20 90.5z" />
    <glyph glyph-name="quotesinglbase" unicode="&#x201a;" horiz-adv-x="170" 
d="M139 18q0 40 -26 66q-13 13 -27 1l-35 -30q-11 -10 -4 -23q48 -70 -7 -137q-8 -11 -3 -15l12 -14q6 -7 19 3q30 22 50.5 62.5t20.5 86.5z" />
    <glyph glyph-name="quotereversed" unicode="&#x201b;" horiz-adv-x="183" 
d="M144 613q11 8 1 22l-27 39q-11 14 -28 4q-41 -23 -41 -101q0 -63 44 -122q9 -12 17 -4l15 13q6 5 2 9q-18 29 -18 57q0 53 35 83z" />
    <glyph glyph-name="quotedblleft" unicode="&#x201c;" horiz-adv-x="271" 
d="M32 525q0 -44 26 -67q14 -11 25 -1l39 34q12 7 3 21q-23 26 -22 68t30 71q11 11 3 15l-12 11q-7 7 -18 -1q-34 -21 -54 -60.5t-20 -90.5zM142 525q0 -44 26 -67q14 -11 25 -1l39 34q12 7 3 21q-22 26 -22 68q0 38 30 71q11 11 3 15l-12 11q-7 7 -18 -1q-34 -21 -54 -60.5
t-20 -90.5z" />
    <glyph glyph-name="quotedblright" unicode="&#x201d;" horiz-adv-x="271" 
d="M254 612q0 44 -26 67q-14 11 -25 1l-39 -34q-10 -10 -3 -21q22 -26 22 -68q0 -37 -30 -71q-11 -10 -3 -15l12 -11q7 -7 18 1q34 21 54 60.5t20 90.5zM144 612q0 44 -26 67q-14 11 -25 1l-39 -34q-10 -10 -3 -21q23 -26 22 -68t-30 -71q-11 -10 -3 -15l12 -11q7 -7 18 1
q34 21 54 60.5t20 90.5z" />
    <glyph glyph-name="quotedblbase" unicode="&#x201e;" horiz-adv-x="271" 
d="M139 18q0 40 -26 66q-13 13 -27 1l-35 -30q-11 -10 -4 -23q48 -70 -7 -137q-8 -11 -3 -15l12 -14q6 -7 19 3q30 22 50.5 62.5t20.5 86.5zM249 18q0 40 -26 66q-13 13 -27 1l-35 -30q-11 -10 -4 -23q48 -70 -7 -137q-8 -11 -3 -15l12 -14q6 -7 19 3q30 22 50.5 62.5
t20.5 86.5z" />
    <glyph glyph-name="uni201F" unicode="&#x201f;" horiz-adv-x="271" 
d="M135 613q11 8 1 22l-27 39q-11 14 -28 4q-41 -23 -41 -101q0 -63 44 -122q9 -12 17 -4l15 13q6 5 2 9q-18 29 -18 57q0 53 35 83zM240 613q11 8 1 22l-27 39q-11 14 -28 4q-41 -23 -41 -101q0 -63 44 -122q9 -12 17 -4l15 13q6 5 2 9q-18 29 -18 57q0 53 35 83z" />
    <glyph glyph-name="dagger" unicode="&#x2020;" horiz-adv-x="420" 
d="M405 474q0 16 -17 16h-141v184q0 17 -17 17h-37q-18 0 -18 -17v-184h-142q-17 0 -17 -16v-34q0 -17 18 -17h141v-454q0 -17 18 -17h37q17 0 17 17v454h140q18 0 18 17v34z" />
    <glyph glyph-name="daggerdbl" unicode="&#x2021;" horiz-adv-x="420" 
d="M16 170q0 -16 17 -16h141v-188q2 -14 18 -14h37q15 0 17 14v188h140q17 0 17 16v34q0 17 -18 17h-139v202h139q18 0 18 17v34q0 16 -17 16h-140v185q0 17 -18 17h-37q-15 0 -17 -14v-188h-141q-17 0 -17 -16v-34q0 -17 18 -17h140v-202h-140q-18 0 -18 -17v-34z" />
    <glyph glyph-name="bullet" unicode="&#x2022;" horiz-adv-x="246" 
d="M207 253q0 34 -24.5 59t-58.5 25t-59 -25t-25 -59q0 -35 24.5 -59.5t59.5 -24.5q34 0 58.5 24.5t24.5 59.5z" />
    <glyph glyph-name="uni2023" unicode="&#x2023;" horiz-adv-x="440" 
d="M66 62l349 215l-349 205v-420z" />
    <glyph glyph-name="ellipsis" unicode="&#x2026;" horiz-adv-x="540" 
d="M508 40q0 47 -44 47t-44 -47q0 -26 9 -37.5t35 -11.5q44 0 44 49zM316 40q0 24 -9.5 35.5t-32.5 11.5q-44 0 -44 -47q0 -26 9 -37.5t35 -11.5q42 0 42 49zM121 40q0 24 -9.5 35.5t-33.5 11.5q-44 0 -44 -47q0 -26 9 -37.5t35 -11.5q43 0 43 49z" />
    <glyph glyph-name="perthousand" unicode="&#x2030;" horiz-adv-x="1028" 
d="M300 459q0 71 -13 114q-7 28 -23 49q-36 45 -108 45q-138 0 -138 -208q0 -45 1 -60q2 -31 8 -58q7 -32 22 -54q35 -50 107 -50q97 0 124 81q20 61 20 141zM237 452q0 -81 -17.5 -118t-63.5 -37q-49 0 -62 44q-12 41 -12 111q0 80 16 118.5t58 38.5q48 0 64.5 -35.5
t16.5 -121.5zM695 215q0 71 -13 114q-7 28 -23 49q-36 45 -108 45q-138 0 -138 -208q0 -45 1 -60q2 -31 8 -58q7 -32 22 -54q35 -50 107 -50q97 0 124 81q20 61 20 141zM632 208q0 -81 -17.5 -118t-63.5 -37q-49 0 -62 44q-12 41 -12 111q0 80 16 118.5t58 38.5
q48 0 64.5 -35.5t16.5 -121.5zM1015 215q0 71 -13 114q-7 28 -23 49q-36 45 -108 45q-138 0 -138 -208q0 -45 1 -60q2 -31 8 -58q7 -32 22 -54q35 -50 107 -50q97 0 124 81q20 61 20 141zM952 208q0 -81 -17.5 -118t-63.5 -37q-49 0 -62 44q-12 41 -12 111q0 80 16 118.5
t58 38.5q48 0 64.5 -35.5t16.5 -121.5zM508 684q4 16 -9 16h-28q-13 0 -18 -14l-240 -693q-4 -16 12 -16h28q13 0 17 13z" />
    <glyph glyph-name="minute" unicode="&#x2032;" horiz-adv-x="177" 
d="M150 639q4 11 -8 16l-42 15q-15 4 -20 -11l-51 -220q-1 -13 8 -14l26 -7q11 -2 17 7z" />
    <glyph glyph-name="second" unicode="&#x2033;" horiz-adv-x="289" 
d="M150 639q4 11 -8 16l-42 15q-15 4 -20 -11l-51 -220q-1 -13 8 -14l26 -7q11 -2 17 7zM262 639q4 12 -9 16l-40 15q-16 4 -21 -11l-50 -220q-2 -11 7 -14l26 -7q14 -3 17 6z" />
    <glyph glyph-name="uni2034" unicode="&#x2034;" horiz-adv-x="391" 
d="M150 639q4 11 -8 16l-42 15q-15 4 -20 -11l-51 -220q-1 -13 8 -14l26 -7q11 -2 17 7zM258 639q4 12 -9 16l-40 15q-16 4 -21 -11l-50 -220q-2 -11 7 -14l26 -7q14 -3 17 6zM364 639q4 12 -9 16l-40 15q-16 4 -21 -11l-50 -220q-2 -11 7 -14l26 -7q14 -3 17 6z" />
    <glyph glyph-name="guilsinglleft" unicode="&#x2039;" horiz-adv-x="228" 
d="M131 45q9 -13 23 -13h56q4 0 5.5 3.5t-1.5 7.5l-102 141l97 139q2 3 2 6t-2.5 5.5t-6.5 2.5h-48q-12 0 -25 -15l-85 -124q-11 -14 -1 -28z" />
    <glyph glyph-name="guilsinglright" unicode="&#x203a;" horiz-adv-x="228" 
d="M200 170q10 14 -1 28l-85 124q-13 15 -25 15h-48q-6 0 -8 -5t1 -9l97 -139l-102 -141q-3 -4 -1.5 -7.5t5.5 -3.5h56q14 0 23 13z" />
    <glyph glyph-name="fraction" unicode="&#x2044;" horiz-adv-x="98" 
d="M205 684q4 16 -9 16h-28q-13 0 -18 -14l-240 -693q-4 -16 12 -16h28q13 0 17 13z" />
    <glyph glyph-name="uni2070" unicode="&#x2070;" horiz-adv-x="315" 
d="M301 549q0 71 -13 114q-7 28 -23 49q-36 45 -108 45q-138 0 -138 -208q0 -45 1 -60q2 -31 8 -58q7 -32 22 -54q35 -50 107 -50q97 0 124 81q20 61 20 141zM238 542q0 -81 -17.5 -118t-63.5 -37q-49 0 -62 44q-12 41 -12 111q0 80 16 118.5t58 38.5q48 0 64.5 -35.5
t16.5 -121.5z" />
    <glyph glyph-name="uni2074" unicode="&#x2074;" horiz-adv-x="315" 
d="M308 482q0 18 -16 18h-35v238q0 15 -17 15h-19q-13 0 -24 -11l-183 -240q-8 -11 -8 -23v-20q0 -16 19 -16h172v-94q0 -15 18 -15h24q18 0 18 16v93h35q16 0 16 16v23zM81 500l116 154v-154h-116z" />
    <glyph glyph-name="uni2075" unicode="&#x2075;" horiz-adv-x="315" 
d="M142 334q76 0 111.5 34.5t35.5 118.5q0 43 -23.5 71t-61.5 34l-104 17l12 91h144q15 0 15 16v26q0 15 -15 15h-178q-20 0 -21 -15l-22 -157q-4 -24 13 -27l130 -24q47 -9 47 -48q0 -52 -19.5 -73t-60.5 -21q-39 0 -92 8q-9 1 -13.5 -1t-5.5 -3.5t-4 -9.5l-4 -14
q-4 -16 9 -21q43 -17 107 -17z" />
    <glyph glyph-name="uni2076" unicode="&#x2076;" horiz-adv-x="315" 
d="M169 757q-109 0 -137 -104q-14 -51 -14 -125t11 -122q7 -25 22 -44q35 -35 106 -35q66 0 104.5 31.5t38.5 95.5q0 135 -112 135q-36 0 -104 -6q8 116 84 116q35 0 86 -8q16 -1 20 10l5 18q3 12 -11 20q-36 18 -99 18zM235 453q0 -72 -76 -72q-49 0 -65 30q-12 24 -12 109
q50 7 98 7q31 0 43 -17t12 -57z" />
    <glyph glyph-name="uni2077" unicode="&#x2077;" horiz-adv-x="293" 
d="M58 362q-8 -17 7 -23l25 -10q18 -8 26 10l158 351q6 12 6 24v21q0 18 -20 18h-238q-16 0 -16 -17v-24q0 -16 15 -16h188z" />
    <glyph glyph-name="uni2078" unicode="&#x2078;" horiz-adv-x="315" 
d="M13 446q0 -120 142 -120q67 0 106 34t39 90q0 71 -58 104q19 13 31.5 36.5t12.5 45.5q0 59 -34 90t-95 31q-64 0 -98 -31.5t-34 -91.5q0 -56 44 -80q-56 -38 -56 -108zM234 446q0 -29 -22.5 -45.5t-56.5 -16.5q-77 0 -77 68q0 62 76 80q80 -27 80 -86zM221 638
q0 -45 -66 -57q-65 14 -65 57q0 61 67 61q30 0 47 -16t17 -45z" />
    <glyph glyph-name="uni2079" unicode="&#x2079;" horiz-adv-x="315" 
d="M144 327q110 0 139 103q14 51 14 126q0 80 -11 119q-8 31 -22 45q-33 37 -106 37q-66 0 -103.5 -31.5t-37.5 -95.5q0 -135 112 -135q45 0 104 6q-4 -57 -25 -86t-67 -29q-39 0 -82 7q-9 2 -14 1.5t-6 -2.5t-3 -8l-4 -17q-5 -16 8 -22q42 -18 104 -18zM82 630q0 69 75 69
q50 0 66 -31q11 -24 11 -106q-53 -6 -98 -6q-30 0 -42 17.5t-12 56.5z" />
    <glyph glyph-name="uni207A" unicode="&#x207a;" horiz-adv-x="293" 
d="M255 550q0 19 -18 19h-62v70q0 11 -3.5 15t-14.5 4h-22q-19 0 -19 -19v-70h-62q-12 0 -16 -3.5t-4 -15.5v-19q0 -17 20 -17h62v-76q0 -19 19 -19h22q18 0 18 19v76h62q18 0 18 17v19z" />
    <glyph glyph-name="uni207B" unicode="&#x207b;" horiz-adv-x="198" 
d="M188 547q0 19 -18 19h-143q-10 0 -14 -4t-4 -15v-17q0 -17 18 -17h143q18 0 18 17v17z" />
    <glyph glyph-name="uni207C" unicode="&#x207c;" horiz-adv-x="280" 
d="M255 508q0 18 -16 18h-187q-18 0 -18 -18v-21q0 -11 4 -14t14 -3h187q16 0 16 17v21zM255 597q0 17 -16 17h-187q-18 0 -18 -17v-20q0 -18 18 -18h187q16 0 16 18v20z" />
    <glyph glyph-name="uni207D" unicode="&#x207d;" horiz-adv-x="164" 
d="M136 295q-48 97 -48 235q0 112 49 220q4 9 -3 16l-16 13q-9 7 -14 6t-11 -11q-68 -119 -68 -244q0 -146 66 -257q10 -16 28 -6l14 9q10 6 3 19z" />
    <glyph glyph-name="uni207E" unicode="&#x207e;" horiz-adv-x="165" 
d="M40 295q-7 -13 3 -19l14 -9q18 -10 28 6q66 111 66 257q0 125 -68 244q-6 10 -11 11t-14 -6l-16 -13q-7 -7 -3 -16q49 -108 49 -220q0 -138 -48 -235z" />
    <glyph glyph-name="uni207F" unicode="&#x207f;" horiz-adv-x="303" 
d="M277 450q0 45 -6 67.5t-26 38.5q-21 18 -61 18q-48 0 -97 -36v15q0 9 -3.5 11.5t-16.5 2.5h-24q-11 0 -14.5 -2.5t-3.5 -11.5v-294q0 -10 3.5 -12.5t14.5 -2.5h24q12 0 16 2.5t4 12.5v225q54 33 90 33q22 0 30 -13.5t8 -52.5v-192q0 -10 3.5 -12.5t15.5 -2.5h23
q12 0 16 2.5t4 12.5v191z" />
    <glyph glyph-name="uni2080" unicode="&#x2080;" horiz-adv-x="315" 
d="M301 125q0 71 -13 114q-7 28 -23 49q-36 45 -108 45q-138 0 -138 -208q0 -45 1 -60q2 -31 8 -58q7 -32 22 -54q35 -50 107 -50q97 0 124 82q20 60 20 140zM238 118q0 -81 -17.5 -118t-63.5 -37q-49 0 -62 44q-12 41 -12 111q0 80 16 118.5t58 38.5q48 0 64.5 -35.5
t16.5 -121.5z" />
    <glyph glyph-name="uni2081" unicode="&#x2081;" horiz-adv-x="270" 
d="M236 -50q0 16 -14 16h-54v346q0 6 -0.5 9t-5.5 5.5t-14 2.5h-27q-14 0 -27 -5l-50 -20q-12 -4 -12 -18v-14q0 -9 3.5 -11.5t13.5 -2.5h53v-292h-50q-14 0 -14 -16v-24q0 -16 14 -16h170q14 0 14 16v24z" />
    <glyph glyph-name="uni2082" unicode="&#x2082;" horiz-adv-x="315" 
d="M224 93q29 32 40 59.5t11 66.5q0 114 -131 114q-65 0 -107 -16q-16 -6 -11 -23l4 -20q1 -10 20 -8q48 6 94 6q41 0 55 -13.5t14 -46.5q0 -39 -38 -80l-144 -157q-11 -11 -11 -27v-22q0 -17 18 -17h229q16 0 16 17v24q0 17 -16 17h-155l-1 2z" />
    <glyph glyph-name="uni2083" unicode="&#x2083;" horiz-adv-x="315" 
d="M256 255q16 17 16 31v27q0 15 -21 15h-209q-16 0 -16 -17v-24q0 -10 3.5 -13t12.5 -3h139l2 -5l-84 -89q-9 -9 -9 -20v-20q0 -18 19 -21l66 -11q49 -7 49 -48q0 -53 -21.5 -73.5t-64.5 -20.5q-42 0 -93 10q-17 3 -22 -14l-3 -14q-3 -17 9 -22q39 -18 107 -18
q78 0 114.5 34.5t36.5 119.5q0 92 -85 105l-23 3l1 6z" />
    <glyph glyph-name="uni2084" unicode="&#x2084;" horiz-adv-x="315" 
d="M308 58q0 18 -16 18h-35v238q0 15 -17 15h-19q-13 0 -24 -11l-183 -240q-8 -11 -8 -23v-20q0 -16 19 -16h172v-94q0 -15 18 -15h24q18 0 18 16v93h35q16 0 16 16v23zM81 76l116 154v-154h-116z" />
    <glyph glyph-name="uni2085" unicode="&#x2085;" horiz-adv-x="315" 
d="M142 -90q76 0 111.5 34.5t35.5 118.5q0 43 -23.5 71t-61.5 34l-104 17l12 91h144q15 0 15 16v26q0 15 -15 15h-178q-20 0 -21 -15l-22 -157q-4 -24 13 -27l130 -24q47 -9 47 -48q0 -52 -19.5 -73t-60.5 -21q-39 0 -92 8q-9 1 -13.5 -1t-5.5 -3.5t-4 -9.5l-4 -14
q-4 -16 9 -21q43 -17 107 -17z" />
    <glyph glyph-name="uni2086" unicode="&#x2086;" horiz-adv-x="315" 
d="M169 333q-109 0 -137 -104q-14 -51 -14 -125q0 -76 11 -121q7 -28 22 -44q34 -36 106 -36q66 0 104.5 31.5t38.5 95.5q0 135 -112 135q-36 0 -104 -6q8 116 84 116q35 0 86 -8q16 -1 20 10l5 18q3 12 -11 20q-36 18 -99 18zM235 29q0 -72 -76 -72q-49 0 -65 30
q-12 24 -12 109q50 7 98 7q31 0 43 -17t12 -57z" />
    <glyph glyph-name="uni2087" unicode="&#x2087;" horiz-adv-x="293" 
d="M58 -62q-8 -17 7 -23l25 -10q18 -8 26 10l158 351q6 12 6 24v21q0 18 -20 18h-238q-16 0 -16 -17v-24q0 -16 15 -16h188z" />
    <glyph glyph-name="uni2088" unicode="&#x2088;" horiz-adv-x="315" 
d="M13 22q0 -120 142 -120q67 0 106 34t39 90q0 71 -58 104q19 13 31.5 36.5t12.5 45.5q0 59 -34 90t-95 31q-64 0 -98 -31.5t-34 -91.5q0 -56 44 -80q-56 -38 -56 -108zM234 22q0 -29 -22.5 -45.5t-56.5 -16.5q-77 0 -77 68q0 62 76 80q80 -27 80 -86zM221 214
q0 -45 -66 -57q-65 14 -65 57q0 61 67 61q30 0 47 -16t17 -45z" />
    <glyph glyph-name="uni2089" unicode="&#x2089;" horiz-adv-x="315" 
d="M144 -97q110 0 139 103q14 51 14 126q0 80 -11 119q-8 31 -22 45q-33 37 -106 37q-66 0 -103.5 -31.5t-37.5 -95.5q0 -135 112 -135q45 0 104 6q-4 -57 -25 -86t-67 -29q-39 0 -82 7q-9 2 -14 1.5t-6 -2.5t-3 -8l-4 -17q-5 -16 8 -22q42 -18 104 -18zM82 206q0 69 75 69
q50 0 66 -31q11 -24 11 -106q-52 -6 -98 -6q-30 0 -42 17.5t-12 56.5z" />
    <glyph glyph-name="uni208A" unicode="&#x208a;" horiz-adv-x="291" 
d="M255 114q0 19 -18 19h-62v70q0 11 -3.5 15t-14.5 4h-22q-19 0 -19 -19v-70h-62q-12 0 -16 -3.5t-4 -15.5v-19q0 -17 20 -17h62v-76q0 -19 19 -19h22q18 0 18 19v76h62q18 0 18 17v19z" />
    <glyph glyph-name="uni208B" unicode="&#x208b;" horiz-adv-x="193" 
d="M186 112q0 19 -18 19h-143q-10 0 -14 -4t-4 -15v-17q0 -17 18 -17h143q18 0 18 17v17z" />
    <glyph glyph-name="uni208C" unicode="&#x208c;" horiz-adv-x="291" 
d="M255 71q0 18 -16 18h-187q-18 0 -18 -18v-21q0 -11 4 -14t14 -3h187q16 0 16 17v21zM255 160q0 17 -16 17h-187q-18 0 -18 -17v-20q0 -18 18 -18h187q16 0 16 18v20z" />
    <glyph glyph-name="uni208D" unicode="&#x208d;" horiz-adv-x="164" 
d="M136 -134q-48 97 -48 235q0 112 49 220q4 9 -3 16l-16 13q-9 7 -14 6t-11 -11q-68 -119 -68 -244q0 -146 66 -257q10 -16 28 -6l14 9q10 6 3 19z" />
    <glyph glyph-name="uni208E" unicode="&#x208e;" horiz-adv-x="165" 
d="M40 -134q-7 -13 3 -19l14 -9q18 -10 28 6q66 111 66 257q0 125 -68 244q-6 10 -11 11t-14 -6l-16 -13q-7 -7 -3 -16q49 -108 49 -220q0 -138 -48 -235z" />
    <glyph glyph-name="dong" unicode="&#x20ab;" 
d="M420 541q14 0 14 12v34q0 13 -14 13h-30v51q0 11 -4 15t-16 4h-33q-21 0 -21 -19v-51h-140q-14 0 -14 -13v-34q0 -12 14 -12h140v-78q-51 16 -97 16q-85 0 -119.5 -47.5t-34.5 -155.5q0 -101 28.5 -142.5t102.5 -41.5q26 0 61.5 12t58.5 28v-19q0 -18 20 -18h34
q20 0 20 18v428h30zM205 157q-35 0 -49 20q-14 22 -14 99q0 78 17.5 109t59.5 31q50 0 96 -13v-216q-60 -30 -110 -30zM387 -19q14 0 14 12v40q0 13 -14 13h-290q-14 0 -14 -13v-40q0 -12 14 -12h290z" />
    <glyph glyph-name="Euro" unicode="&#x20ac;" 
d="M293 -8q37 0 85 7q50 6 76 18q15 7 15 23v30q0 18 -23 13q-74 -15 -149 -15q-69 0 -102.5 48.5t-39.5 142.5h219q14 0 15 9l6 34q1 7 -2.5 10t-11.5 3h-228v42h234q13 0 14 10l7 34q1 7 -2 9.5t-13 2.5h-237q7 91 39.5 136t101.5 45q56 0 141 -11q15 -1 19 11l6 28
q3 15 -13 22q-63 25 -153 25q-111 0 -162 -69q-52 -70 -62 -187h-37q-14 0 -15 -9l-7 -37q0 -10 13 -10h43v-42h-34q-13 0 -15 -8l-7 -37q-1 -6 2 -8.5t10 -2.5h46q7 -117 51 -188q51 -79 170 -79z" />
    <glyph glyph-name="uni2103" unicode="&#x2103;" horiz-adv-x="737" 
d="M547 594q62 0 147 -11q15 -1 19 11l6 28q3 15 -13 22q-63 25 -159 25q-137 0 -186 -108q-41 -91 -41 -237q0 -142 42 -230q49 -102 181 -102q98 0 164 27q14 6 11 22l-5 26q-4 13 -20 12q-93 -11 -146 -11q-88 0 -119 79q-25 68 -25 177q0 97 13 157q9 37 24 60
q34 53 107 53zM145 664q-50 0 -84 -34q-34 -33 -34 -79q0 -49 32.5 -80t85.5 -31q49 0 82 32t33 79q0 46 -34 79q-33 34 -81 34zM203 549q0 -28 -16.5 -45.5t-43.5 -17.5q-26 0 -43 18t-17 45q0 29 17.5 47.5t42.5 18.5t42.5 -18.5t17.5 -47.5z" />
    <glyph glyph-name="uni2105" unicode="&#x2105;" horiz-adv-x="618" 
d="M599 178q0 37 -5 64.5t-18 54.5t-41 42t-70 15q-130 0 -130 -176q0 -59 10 -99q8 -28 21 -44q30 -41 99 -41q100 0 123 85q11 37 11 99zM249 362q-1 12 -21 10q-43 -7 -81 -7q-36 0 -50 26.5t-14 97.5q0 66 14 93t50 27q27 0 79 -7q23 -3 24 10l3 16q3 14 -7 20
q-36 18 -99 18q-81 0 -107 -56q-22 -47 -22 -122q0 -81 22 -128q25 -54 107 -54q63 0 98 19q11 8 8 19zM535 175q0 -68 -14.5 -94.5t-55.5 -26.5q-38 0 -52.5 27.5t-14.5 93.5q0 65 14.5 92.5t52.5 27.5q42 0 56 -26t14 -94zM455 685q4 16 -9 16h-28q-13 0 -18 -14
l-240 -693q-4 -16 12 -16h28q13 0 17 13z" />
    <glyph glyph-name="uni2109" unicode="&#x2109;" horiz-adv-x="688" 
d="M140 654q-50 0 -84 -34q-34 -33 -34 -79q0 -49 32.5 -80t85.5 -31q49 0 82 32t33 79q0 46 -34 79q-33 34 -81 34zM198 539q0 -28 -16.5 -45.5t-43.5 -17.5q-26 0 -43 18t-17 45q0 29 17.5 47.5t42.5 18.5t42.5 -18.5t17.5 -47.5zM332 17q0 -17 18 -17h43q17 0 17 17v291
h212q18 0 18 17v39q0 16 -17 16h-214v211h246q18 0 18 17v39q0 16 -17 16h-305q-19 0 -19 -16v-630z" />
    <glyph glyph-name="uni2113" unicode="&#x2113;" horiz-adv-x="438" 
d="M175 251q174 189 174 335q0 57 -31.5 90.5t-77.5 33.5q-63 0 -100.5 -59t-37.5 -169v-215q-25 -25 -71 -64q-10 -8 -5 -14l16 -29q5 -8 17 2q11 8 44 34v-28q0 -86 34.5 -131t100.5 -45q102 0 169 144q7 13 -5 23l-16 12q-16 13 -30 -9q-58 -103 -109 -103q-72 0 -72 127
v65zM175 501q0 69 17.5 107.5t43.5 38.5q24 0 36 -19t12 -47q0 -101 -109 -249v169z" />
    <glyph glyph-name="uni2116" unicode="&#x2116;" horiz-adv-x="845" 
d="M785 258q0 19 -19 19h-203q-19 0 -19 -19v-22q0 -18 18 -18h205q18 0 18 18v22zM385 16q10 -16 26 -16h38q16 0 16 16v629q0 18 -16 18h-42q-17 0 -17 -18v-479h-3l-247 481q-10 16 -25 16h-41q-16 0 -16 -15v-631q0 -17 18 -17h41q17 0 17 17v484h3zM795 505
q0 65 -23 110q-25 52 -108 52q-128 0 -128 -162q0 -55 10 -94q8 -27 20 -42q32 -38 98 -38q97 0 120 79q11 35 11 95zM733 500q0 -62 -14.5 -86.5t-54.5 -24.5q-38 0 -52 25t-14 86t14 85.5t52 24.5q40 0 54.5 -24.5t14.5 -85.5z" />
    <glyph glyph-name="uni2117" unicode="&#x2117;" horiz-adv-x="794" 
d="M563 409q0 59 -39 92t-103 33h-108q-10 0 -13.5 -3t-3.5 -12v-387q0 -17 17 -17h29q16 0 16 17v148h65q71 0 105 39q35 41 35 90zM501 409q0 -75 -77 -75h-66v146h58q85 0 85 -71zM750 335q0 147 -102 248q-102 102 -252 102q-146 0 -250 -102q-103 -102 -103 -248
t103 -248q104 -102 250 -102t250 102t104 248zM610 121q-89 -89 -214 -89t-214 89q-88 88 -88 214t88 214q89 89 214 89t214 -89t89 -214t-89 -214z" />
    <glyph glyph-name="trademark" unicode="&#x2122;" horiz-adv-x="579" 
d="M498 663q-14 0 -18 -12l-82 -184h-1l-81 184q-8 12 -18 12h-30q-13 0 -13 -11v-284q0 -15 15 -15h26q14 0 14 15l-1 180h1l61 -138q4 -10 16 -10h17q10 0 16 11l64 138l2 -1l-1 -180q0 -14 12 -14h31q11 0 11 14v284q0 11 -12 11h-29zM245 650q0 13 -14 13h-195
q-14 0 -14 -13v-24q0 -15 14 -15h72v-243q0 -14 15 -14h26q14 0 14 14v243h67q15 0 15 15v24z" />
    <glyph glyph-name="Omega" unicode="&#x2126;" horiz-adv-x="567" 
d="M447 73q74 80 74 271q0 327 -237 327q-55 0 -98.5 -20t-69.5 -52t-42.5 -76t-23 -87.5t-6.5 -91.5q0 -206 72 -270l-1 -3h-67q-11 0 -15 -3.5t-4 -13.5v-36q0 -10 3.5 -14t14.5 -4h176q21 0 21 17v45q0 10 -18 18q-100 43 -100 261q0 260 158 260q157 0 157 -262
q0 -217 -106 -259q-17 -8 -17 -18v-45q0 -17 20 -17h175q11 0 15 4t4 14v36q0 17 -19 17h-65z" />
    <glyph glyph-name="uni212B" unicode="&#x212b;" horiz-adv-x="477" 
 />
    <glyph glyph-name="estimated" unicode="&#x212e;" horiz-adv-x="711" 
d="M666 313q-4 151 -93 249q-87 99 -217 99q-128 0 -219 -97t-91 -235q0 -140 91 -240t219 -100q71 0 138 37.5t115 103.5h-61q-34 -48 -85.5 -76.5t-105.5 -28.5q-53 0 -103.5 30.5t-78.5 79.5h1v178h490zM176 345v169l-1 -1q39 52 88.5 83t93.5 31q50 0 100 -31
q53 -32 78 -78h-1v-173h-358z" />
    <glyph glyph-name="onethird" unicode="&#x2153;" horiz-adv-x="730" 
d="M652 345q16 17 16 31v27q0 15 -21 15h-209q-16 0 -16 -17v-24q0 -10 3.5 -13t12.5 -3h139l2 -5l-84 -89q-9 -9 -9 -20v-20q0 -18 19 -21l66 -11q49 -7 49 -48q0 -53 -21.5 -73.5t-64.5 -20.5q-42 0 -93 10q-17 3 -22 -14l-3 -14q-3 -17 9 -22q39 -18 107 -18
q78 0 114.5 34.5t36.5 119.5q0 92 -85 105l-23 3l1 6zM248 284q0 16 -14 16h-54v346q0 6 -0.5 9t-5.5 5.5t-14 2.5h-27q-14 0 -27 -5l-50 -20q-12 -4 -12 -18v-14q0 -9 3.5 -11.5t13.5 -2.5h53v-292h-50q-14 0 -14 -16v-24q0 -16 14 -16h170q14 0 14 16v24zM485 684
q4 16 -9 16h-28q-13 0 -18 -14l-240 -693q-4 -16 12 -16h28q13 0 17 13z" />
    <glyph glyph-name="twothirds" unicode="&#x2154;" horiz-adv-x="730" 
d="M213 427q29 32 40 59.5t11 66.5q0 114 -131 114q-65 0 -107 -16q-16 -6 -11 -23l4 -20q1 -10 20 -8q48 6 94 6q41 0 55 -13.5t14 -46.5q0 -39 -38 -80l-144 -157q-11 -11 -11 -27v-22q0 -17 18 -17h229q16 0 16 17v24q0 17 -16 17h-155l-1 2zM671 345q16 17 16 31v27
q0 15 -21 15h-209q-16 0 -16 -17v-24q0 -10 3.5 -13t12.5 -3h139l2 -5l-84 -89q-9 -9 -9 -20v-20q0 -18 19 -21l66 -11q49 -7 49 -48q0 -53 -21.5 -73.5t-64.5 -20.5q-42 0 -93 10q-17 3 -22 -14l-3 -14q-3 -17 9 -22q39 -18 107 -18q78 0 114.5 34.5t36.5 119.5
q0 92 -85 105l-23 3l1 6zM512 684q4 16 -9 16h-28q-13 0 -18 -14l-240 -693q-4 -16 12 -16h28q13 0 17 13z" />
    <glyph glyph-name="uni2155" unicode="&#x2155;" horiz-adv-x="730" 
d="M536 0q76 0 111.5 34.5t35.5 118.5q0 43 -23.5 71t-61.5 34l-104 17l12 91h144q15 0 15 16v26q0 15 -15 15h-178q-20 0 -21 -15l-22 -157q-4 -24 13 -27l130 -24q47 -9 47 -48q0 -52 -19.5 -73t-60.5 -21q-39 0 -92 8q-9 1 -13.5 -1t-5.5 -3.5t-4 -9.5l-4 -14
q-4 -16 9 -21q43 -17 107 -17zM262 284q0 16 -14 16h-54v346q0 6 -0.5 9t-5.5 5.5t-14 2.5h-27q-14 0 -27 -5l-50 -20q-12 -4 -12 -18v-14q0 -9 3.5 -11.5t13.5 -2.5h53v-292h-50q-14 0 -14 -16v-24q0 -16 14 -16h170q14 0 14 16v24zM501 684q4 16 -9 16h-28q-13 0 -18 -14
l-240 -693q-4 -16 12 -16h28q13 0 17 13z" />
    <glyph glyph-name="uni2156" unicode="&#x2156;" horiz-adv-x="730" 
d="M550 0q76 0 111.5 34.5t35.5 118.5q0 43 -23.5 71t-61.5 34l-104 17l12 91h144q15 0 15 16v26q0 15 -15 15h-178q-20 0 -21 -15l-22 -157q-4 -24 13 -27l130 -24q47 -9 47 -48q0 -52 -19.5 -73t-60.5 -21q-39 0 -92 8q-9 1 -13.5 -1t-5.5 -3.5t-4 -9.5l-4 -14
q-4 -16 9 -21q43 -17 107 -17zM224 427q29 32 40 59.5t11 66.5q0 114 -131 114q-65 0 -107 -16q-16 -6 -11 -23l4 -20q1 -10 20 -8q48 6 94 6q41 0 55 -13.5t14 -46.5q0 -39 -38 -80l-144 -157q-11 -11 -11 -27v-22q0 -17 18 -17h229q16 0 16 17v24q0 17 -16 17h-155l-1 2z
M522 684q4 16 -9 16h-28q-13 0 -18 -14l-240 -693q-4 -16 12 -16h28q13 0 17 13z" />
    <glyph glyph-name="uni2157" unicode="&#x2157;" horiz-adv-x="730" 
d="M554 0q76 0 111.5 34.5t35.5 118.5q0 43 -23.5 71t-61.5 34l-104 17l12 91h144q15 0 15 16v26q0 15 -15 15h-178q-20 0 -21 -15l-22 -157q-4 -24 13 -27l130 -24q47 -9 47 -48q0 -52 -19.5 -73t-60.5 -21q-39 0 -92 8q-9 1 -13.5 -1t-5.5 -3.5t-4 -9.5l-4 -14
q-4 -16 9 -21q43 -17 107 -17zM265 590q16 17 16 31v27q0 15 -21 15h-209q-16 0 -16 -17v-24q0 -10 3.5 -13t12.5 -3h139l2 -5l-84 -89q-9 -9 -9 -20v-20q0 -18 19 -21l66 -11q49 -7 49 -48q0 -53 -21.5 -73.5t-64.5 -20.5q-42 0 -93 10q-17 3 -22 -14l-3 -14q-3 -17 9 -22
q39 -18 107 -18q78 0 114.5 34.5t36.5 119.5q0 92 -85 105l-23 3l1 6zM519 684q4 16 -9 16h-28q-13 0 -18 -14l-240 -693q-4 -16 12 -16h28q13 0 17 13z" />
    <glyph glyph-name="uni2158" unicode="&#x2158;" horiz-adv-x="730" 
d="M560 0q76 0 111.5 34.5t35.5 118.5q0 43 -23.5 71t-61.5 34l-104 17l12 91h144q15 0 15 16v26q0 15 -15 15h-178q-20 0 -21 -15l-22 -157q-4 -24 13 -27l130 -24q47 -9 47 -48q0 -52 -19.5 -73t-60.5 -21q-39 0 -92 8q-9 1 -13.5 -1t-5.5 -3.5t-4 -9.5l-4 -14
q-4 -16 9 -21q43 -17 107 -17zM325 392q0 18 -16 18h-35v238q0 15 -17 15h-19q-13 0 -24 -11l-183 -240q-8 -11 -8 -23v-20q0 -16 19 -16h172v-94q0 -15 18 -15h24q18 0 18 16v93h35q16 0 16 16v23zM98 410l116 154v-154h-116zM533 684q4 16 -9 16h-28q-13 0 -18 -14
l-240 -693q-4 -16 12 -16h28q13 0 17 13z" />
    <glyph glyph-name="uni2159" unicode="&#x2159;" horiz-adv-x="730" 
d="M555 423q-109 0 -137 -104q-14 -51 -14 -125t11 -122q7 -25 22 -44q35 -35 106 -35q66 0 104.5 31.5t38.5 95.5q0 135 -112 135q-36 0 -104 -6q8 116 84 116q35 0 86 -8q16 -1 20 10l5 18q3 12 -11 20q-36 18 -99 18zM621 119q0 -72 -76 -72q-49 0 -65 30q-12 24 -12 109
q50 7 98 7q31 0 43 -17t12 -57zM249 284q0 16 -14 16h-54v346q0 6 -0.5 9t-5.5 5.5t-14 2.5h-27q-14 0 -27 -5l-50 -20q-12 -4 -12 -18v-14q0 -9 3.5 -11.5t13.5 -2.5h53v-292h-50q-14 0 -14 -16v-24q0 -16 14 -16h170q14 0 14 16v24zM491 684q4 16 -9 16h-28q-13 0 -18 -14
l-240 -693q-4 -16 12 -16h28q13 0 17 13z" />
    <glyph glyph-name="uni215A" unicode="&#x215a;" horiz-adv-x="730" 
d="M151 244q76 0 111.5 34.5t35.5 118.5q0 43 -23.5 71t-61.5 34l-104 17l12 91h144q15 0 15 16v26q0 15 -15 15h-178q-19 0 -21 -15l-22 -157q-4 -24 13 -27l130 -24q47 -9 47 -48q0 -52 -19.5 -73t-60.5 -21q-39 0 -92 8q-9 1 -13.5 -1t-5.5 -3.5t-4 -9.5l-4 -14
q-5 -16 9 -21q43 -17 107 -17zM577 423q-109 0 -137 -104q-14 -51 -14 -125t11 -122q7 -25 22 -44q35 -35 106 -35q66 0 104.5 31.5t38.5 95.5q0 135 -112 135q-36 0 -104 -6q8 116 84 116q35 0 86 -8q16 -1 20 10l5 18q3 12 -11 20q-36 18 -99 18zM643 119q0 -72 -76 -72
q-49 0 -65 30q-12 24 -12 109q50 7 98 7q31 0 43 -17t12 -57zM514 684q4 16 -9 16h-28q-13 0 -18 -14l-240 -693q-4 -16 12 -16h28q13 0 17 13z" />
    <glyph glyph-name="oneeighth" unicode="&#x215b;" horiz-adv-x="730" 
d="M399 112q0 -120 142 -120q67 0 106 34t39 90q0 71 -58 104q19 13 31.5 36.5t12.5 45.5q0 59 -34 90t-95 31q-64 0 -98 -31.5t-34 -91.5q0 -56 44 -80q-56 -38 -56 -108zM620 112q0 -29 -22.5 -45.5t-56.5 -16.5q-77 0 -77 68q0 62 76 80q80 -27 80 -86zM607 304
q0 -45 -66 -57q-65 14 -65 57q0 61 67 61q30 0 47 -16t17 -45zM235 285q0 16 -14 16h-54v346q0 6 -0.5 9t-5.5 5.5t-14 2.5h-27q-14 0 -27 -5l-50 -20q-12 -5 -12 -18v-14q0 -9 3.5 -11.5t13.5 -2.5h53v-292h-50q-14 0 -14 -16v-24q0 -16 14 -16h170q14 0 14 16v24zM478 684
q4 16 -9 16h-28q-13 0 -18 -14l-240 -693q-4 -16 12 -16h28q13 0 17 13z" />
    <glyph glyph-name="threeeighths" unicode="&#x215c;" horiz-adv-x="730" 
d="M415 112q0 -120 142 -120q67 0 106 34t39 90q0 71 -58 104q19 13 31.5 36.5t12.5 45.5q0 59 -34 90t-95 31q-64 0 -98 -31.5t-34 -91.5q0 -56 44 -80q-56 -38 -56 -108zM636 112q0 -29 -22.5 -45.5t-56.5 -16.5q-77 0 -77 68q0 62 76 80q80 -27 80 -86zM623 304
q0 -45 -66 -57q-65 14 -65 57q0 61 67 61q30 0 47 -16t17 -45zM261 590q16 17 16 31v27q0 15 -21 15h-209q-16 0 -16 -17v-24q0 -10 3.5 -13t12.5 -3h139l2 -5l-84 -89q-9 -9 -9 -20v-20q0 -18 19 -21l66 -11q49 -7 49 -48q0 -53 -21.5 -73.5t-64.5 -20.5q-42 0 -93 10
q-17 3 -22 -14l-3 -14q-3 -17 9 -22q39 -18 107 -18q78 0 114.5 34.5t36.5 119.5q0 92 -85 105l-23 3l1 6zM513 684q4 16 -9 16h-28q-13 0 -18 -14l-240 -693q-4 -16 12 -16h28q13 0 17 13z" />
    </font>
</defs>
</svg>
