<svg xmlns="http://www.w3.org/2000/svg" viewBox="0 0 24 24"><path style="text-indent:0;text-align:start;text-transform:none;block-progression:tb;-inkscape-font-specification:Bitstream Vera Sans;line-height:normal" d="M5 3c-.522 0-1.06.185-1.438.563C3.186 3.94 3 4.478 3 5v14c0 .522.185 1.06.563 1.438.377.377.915.562 1.437.562h14c.522 0 1.06-.185 1.438-.563.377-.377.562-.915.562-1.437V5c0-.522-.185-1.06-.563-1.438C20.06 3.186 19.523 3 19 3H5zm0 2h14v10h-2.313l-1.25-3.344a1 1 0 0 0-1.874 0L12.313 15h-1L9.969 7.812A1 1 0 0 0 8.875 7a1 1 0 0 0-.844.813L6.687 15H5V5zm4 8.344.531 2.844A1 1 0 0 0 10.5 17H13a1 1 0 0 0 .938-.656l.562-1.5.563 1.5A1 1 0 0 0 16 17h3v2H5v-2h2.5a1 1 0 0 0 .969-.813L9 13.345z" overflow="visible" font-family="Bitstream Vera Sans"/></svg>