<?xml version="1.0"?>
<svg xmlns="http://www.w3.org/2000/svg" viewBox="0 0 24 24" enable-background="new 0 0 24 24">
    <path style="text-indent:0;text-align:start;line-height:normal;text-transform:none;block-progression:tb;-inkscape-font-specification:Bitstream Vera Sans" d="M 5 3 C 4.4777778 3 3.9395305 3.1854695 3.5625 3.5625 C 3.1854695 3.9395305 3 4.4777778 3 5 L 3 19 C 3 19.522222 3.1854695 20.060469 3.5625 20.4375 C 3.9395305 20.814531 4.4777778 21 5 21 L 19 21 C 19.522222 21 20.060469 20.814531 20.4375 20.4375 C 20.814531 20.060469 21 19.522222 21 19 L 21 5 C 21 4.4777778 20.814531 3.9395305 20.4375 3.5625 C 20.060469 3.1854695 19.522222 3 19 3 L 5 3 z M 5 5 L 19 5 L 19 15 L 16.6875 15 L 15.4375 11.65625 A 1.0001 1.0001 0 0 0 13.5625 11.65625 L 12.3125 15 L 11.3125 15 L 9.96875 7.8125 A 1.0001 1.0001 0 0 0 8.875 7 A 1.0001 1.0001 0 0 0 8.03125 7.8125 L 6.6875 15 L 5 15 L 5 5 z M 9 13.34375 L 9.53125 16.1875 A 1.0001 1.0001 0 0 0 10.5 17 L 13 17 A 1.0001 1.0001 0 0 0 13.9375 16.34375 L 14.5 14.84375 L 15.0625 16.34375 A 1.0001 1.0001 0 0 0 16 17 L 19 17 L 19 19 L 5 19 L 5 17 L 7.5 17 A 1.0001 1.0001 0 0 0 8.46875 16.1875 L 9 13.34375 z" overflow="visible" enable-background="accumulate" font-family="Bitstream Vera Sans"/>
</svg>
