<svg xmlns="http://www.w3.org/2000/svg" width="25.673" height="25.51"><rect id="backgroundrect" width="100%" height="100%" x="0" y="0" fill="none" stroke="none"/><g class="currentLayer"><path fill="#f9003c" stroke-linecap="round" stroke-miterlimit="10" stroke-width="1" d="M3.132 1.286A2.66 2.66 0 0 0 .485 3.933v14.116a2.66 2.66 0 0 0 2.647 2.646h2.647v.883a2.66 2.66 0 0 0 2.646 2.646h14.116a2.66 2.66 0 0 0 2.647-2.646V7.462a2.66 2.66 0 0 0-2.647-2.647h-2.646v-.882a2.66 2.66 0 0 0-2.647-2.647H3.132zm0 1.764h14.116a.87.87 0 0 1 .882.883v14.116a.87.87 0 0 1-.882.882H3.132a.87.87 0 0 1-.882-.882V3.933a.87.87 0 0 1 .882-.883zm7.161 1.772c-2.138.12-3.88 1.91-3.88 4.087h1.764c0-1.432 1.242-2.55 2.75-2.292 1.09.189 1.944 1.25 1.91 2.364-.03.98-.598 1.601-1.44 1.972h-.004c-.523.23-1.017.452-1.437.892-.421.441-.652 1.098-.652 1.796h1.765c0-.398.052-.461.162-.576.11-.114.396-.285.875-.496 1.317-.579 2.44-1.834 2.492-3.532.061-2.01-1.375-3.816-3.367-4.16a4.148 4.148 0 0 0-.938-.055zm9.602 1.757h2.646a.87.87 0 0 1 .883.883v14.116a.87.87 0 0 1-.883.882H8.425a.87.87 0 0 1-.882-.882v-.883h9.705a2.66 2.66 0 0 0 2.647-2.646V6.579zm-10.59 8.826v1.765h1.764v-1.765H9.304z" font-weight="400" font-family="sans-serif" overflow="visible" id="svg_1"/></g></svg>