<svg xmlns="http://www.w3.org/2000/svg" width="25.67346954345703" height="25.510204315185547" style=""><rect id="backgroundrect" width="100%" height="100%" x="0" y="0" fill="none" stroke="none" class="" style=""/>
    
<g class="currentLayer" style=""><title>Layer 1</title><path style="line-height:normal;text-indent:0;text-align:start;text-decoration-line:none;text-decoration-style:solid;text-decoration-color:#39444d;text-transform:none;block-progression:tb;isolation:auto;mix-blend-mode:normal" d="M3.131979812661175,1.2858467102050781 C1.6806224586766885,1.2858467102050781 0.4852285385131836,2.4812406303685823 0.4852285385131836,3.9325979843530696 L0.4852285385131836,18.048604779809022 C0.4852285385131836,19.49996142799317 1.6806224586766885,20.695356053957013 3.131979812661175,20.695356053957013 L5.778731086809167,20.695356053957013 L5.778731086809167,21.57760647867301 C5.778731086809167,23.02896312685716 6.974125006972671,24.224357752821003 8.425482360957158,24.224357752821003 L22.54148915641311,24.224357752821003 C23.99284580459726,24.224357752821003 25.188240430561102,23.02896312685716 25.188240430561102,21.57760647867301 L25.188240430561102,7.461599683217057 C25.188240430561102,6.010242329232572 23.99284580459726,4.814848409069066 22.54148915641311,4.814848409069066 L19.89473788226512,4.814848409069066 L19.89473788226512,3.9325979843530696 C19.89473788226512,2.4812406303685823 18.699343256301276,1.2858467102050781 17.247986608117127,1.2858467102050781 L3.131979812661175,1.2858467102050781 zM3.131979812661175,3.0503475596370717 L17.247986608117127,3.0503475596370717 C17.744638897705904,3.0503475596370717 18.130237032833126,3.435946400564635 18.130237032833126,3.9325979843530696 L18.130237032833126,18.048604779809022 C18.130237032833126,18.5452570693978 17.744638897705904,18.93085520452502 17.247986608117127,18.93085520452502 L3.131979812661175,18.93085520452502 C2.635328228872741,18.93085520452502 2.2497293879451776,18.5452570693978 2.2497293879451776,18.048604779809022 L2.2497293879451776,3.9325979843530696 C2.2497293879451776,3.435946400564635 2.635328228872741,3.0503475596370717 3.131979812661175,3.0503475596370717 zM10.2933720202606,4.821740902287118 C8.155357749118973,4.941681612376662 6.412848579573789,6.732351421006413 6.412848579573789,8.90904178626674 L8.177349429005783,8.90904178626674 C8.177349429005783,7.477155522705651 9.41874388631398,6.359249304444782 10.927489513025224,6.617258500550599 C12.016206475984363,6.805570442454104 12.87073323980417,7.867012809983234 12.836734484537143,8.981413847306703 C12.807029112736956,9.961693939914255 12.239351958506761,10.58208449832072 11.396185051155598,10.952692140031509 L11.392738628096486,10.952692140031509 C10.869989194494527,11.182772993142603 10.376390726525866,11.404573749567646 9.955635441323965,11.845281481024669 C9.534880156122064,12.285989212481692 9.30428653906413,12.942801538721623 9.30428653906413,13.640798902838062 L11.068787388496125,13.640798902838062 C11.068787388496125,13.243041415907319 11.121284641318338,13.179937395578996 11.230763096521347,13.065268308227216 C11.340239787223506,12.95059869152518 11.626628156291074,12.78004698002146 12.106120851569209,12.569002444324466 C13.42270280747272,11.990308981941016 14.546327420086428,10.73478669568167 14.597789087360113,9.036554498851453 C14.659073377962414,7.027789032680293 13.222864263770303,5.221449044906909 11.230763096521347,4.8768815538318675 C10.913157001975543,4.822102977861422 10.59880252959507,4.804606540338624 10.2933720202606,4.821740902287118 zM19.89473788226512,6.579349258501061 L22.54148915641311,6.579349258501061 C23.038141446001887,6.579349258501061 23.42373958112911,6.964948099428622 23.42373958112911,7.461599683217057 L23.42373958112911,21.57760647867301 C23.42373958112911,22.074258768261785 23.038141446001887,22.45985690338901 22.54148915641311,22.45985690338901 L8.425482360957158,22.45985690338901 C7.928830777168724,22.45985690338901 7.5432319362411615,22.074258768261785 7.5432319362411615,21.57760647867301 L7.5432319362411615,20.695356053957013 L17.247986608117127,20.695356053957013 C18.699343256301276,20.695356053957013 19.89473788226512,19.49996142799317 19.89473788226512,18.048604779809022 L19.89473788226512,6.579349258501061 zM9.30428653906413,15.405299752270057 L9.30428653906413,17.169800425251964 L11.068787388496125,17.169800425251964 L11.068787388496125,15.405299752270057 L9.30428653906413,15.405299752270057 z" font-weight="400" font-family="sans-serif" white-space="normal" overflow="visible" id="svg_1" class=""/></g></svg>