<svg xmlns="http://www.w3.org/2000/svg" width="23.421" height="23.724" viewBox="0 0 23.421 23.724">
  <g id="Group_466" data-name="Group 466" transform="translate(-7541 -2821.586)">
    <g id="Group_456" data-name="Group 456" transform="translate(1200 1069)">
      <g id="Ellipse_34" data-name="Ellipse 34" transform="translate(6341 1759)" fill="none" stroke="#df0035" stroke-width="2">
        <circle cx="4" cy="4" r="4" stroke="none"/>
        <circle cx="4" cy="4" r="3" fill="none"/>
      </g>
      <path id="Path_244" data-name="Path 244" d="M314.585,446.292a6.979,6.979,0,0,0,7.021,6.347" transform="translate(6030.45 1319.806)" fill="none" stroke="#df0035" stroke-linecap="round" stroke-miterlimit="10" stroke-width="2"/>
      <path id="Path_246" data-name="Path 246" d="M325.494,463.2l2.629-2.629-2.629-2.629" transform="translate(6025.297 1311.697)" fill="none" stroke="#df0035" stroke-linecap="round" stroke-miterlimit="10" stroke-width="2"/>
    </g>
    <g id="Group_457" data-name="Group 457" transform="translate(13905.421 4597.896) rotate(180)">
      <g id="Ellipse_34-2" data-name="Ellipse 34" transform="translate(6341 1759)" fill="none" stroke="#df0035" stroke-width="2">
        <circle cx="4" cy="4" r="4" stroke="none"/>
        <circle cx="4" cy="4" r="3" fill="none"/>
      </g>
      <path id="Path_244-2" data-name="Path 244" d="M314.585,446.292a6.979,6.979,0,0,0,7.021,6.347" transform="translate(6030.45 1319.806)" fill="none" stroke="#df0035" stroke-linecap="round" stroke-miterlimit="10" stroke-width="2"/>
      <path id="Path_246-2" data-name="Path 246" d="M325.494,463.2l2.629-2.629-2.629-2.629" transform="translate(6025.297 1311.697)" fill="none" stroke="#df0035" stroke-linecap="round" stroke-miterlimit="10" stroke-width="2"/>
    </g>
  </g>
</svg>
