<svg xmlns="http://www.w3.org/2000/svg" width="25" height="26"><g id="Group_198" data-name="Group 198" transform="translate(-26.5 -309)"><g id="Group_197" data-name="Group 197" fill="none" stroke="#f9003c" stroke-width="2"><path id="Path_208" data-name="Path 208" d="M23.259 14.225v-7.6a3.105 3.105 0 0 0-3-3.2 3.105 3.105 0 0 0-3 3.2v6.6a3.106 3.106 0 0 1-3 3.2 3.106 3.106 0 0 1-3-3.2l.012-6.6a3.105 3.105 0 0 0-3-3.2 3.105 3.105 0 0 0-3 3.2v7.6" transform="translate(24.741 306.575)"/><path id="Rectangle_105" data-name="Rectangle 105" transform="translate(28.5 320)" stroke-linejoin="round" d="M0 0h3v3H0z"/><path id="Rectangle_110" data-name="Rectangle 110" transform="translate(46.5 320)" stroke-linejoin="round" d="M0 0h3v3H0z"/><path id="Rectangle_107" data-name="Rectangle 107" d="M0 0h5v8.5A2.5 2.5 0 0 1 2.5 11 2.5 2.5 0 0 1 0 8.5V0Z" transform="translate(27.5 323)" stroke-linejoin="round"/><path id="Rectangle_109" data-name="Rectangle 109" d="M0 0h5v8.5A2.5 2.5 0 0 1 2.5 11 2.5 2.5 0 0 1 0 8.5V0Z" transform="translate(45.5 323)" stroke-linejoin="round"/></g></g></svg>