<?xml version="1.0" standalone="no"?>
<!DOCTYPE svg PUBLIC "-//W3C//DTD SVG 20010904//EN"
 "http://www.w3.org/TR/2001/REC-SVG-20010904/DTD/svg10.dtd">
<svg version="1.0" xmlns="http://www.w3.org/2000/svg"
 width="500.000000pt" height="500.000000pt" viewBox="0 0 500.000000 500.000000"
 preserveAspectRatio="xMidYMid meet">
<metadata>
Created by potrace 1.11, written by Peter Selinger 2001-2013
</metadata>
<g transform="translate(0.000000,500.000000) scale(0.100000,-0.100000)"
fill="#000000" stroke="none">
<path d="M2215 4902 c-62 -12 -147 -49 -209 -91 -187 -126 -355 -246 -389
-279 -43 -42 -81 -117 -92 -179 -6 -39 -11 -45 -69 -76 -68 -38 -100 -65 -134
-114 -26 -36 -63 -138 -55 -147 4 -3 -11 -13 -33 -22 -32 -14 -657 -230 -689
-238 -5 -2 -17 -6 -25 -9 -8 -3 -42 -15 -74 -26 -32 -11 -61 -22 -63 -25 -2
-2 3 -41 12 -87 9 -46 18 -95 20 -109 2 -14 6 -36 10 -50 3 -14 8 -36 10 -50
2 -14 15 -81 29 -150 14 -69 27 -137 30 -153 3 -15 7 -35 10 -45 3 -9 7 -33
10 -52 3 -19 8 -46 11 -60 4 -14 9 -38 11 -55 3 -16 18 -93 33 -170 15 -77 27
-141 26 -142 -1 -2 -26 -5 -160 -19 -141 -14 -296 -158 -323 -299 -3 -16 -6
-196 -5 -400 l0 -370 27 -59 c30 -64 134 -176 164 -176 10 0 22 -4 28 -9 5 -5
72 -32 149 -61 77 -28 185 -69 240 -90 55 -21 145 -55 200 -75 55 -20 113 -42
128 -47 16 -6 86 -68 155 -137 123 -123 162 -158 267 -238 182 -139 423 -280
690 -403 85 -39 283 -120 308 -125 9 -2 21 -6 26 -9 20 -13 337 116 537 220
189 97 436 251 534 333 14 11 30 24 35 28 73 55 219 192 293 277 30 34 63 48
415 180 210 79 400 152 422 164 75 38 152 137 163 212 3 19 6 234 6 476 l1
441 -30 49 c-34 54 -100 100 -155 108 -29 4 -118 11 -265 20 -39 3 -43 12 -29
78 7 35 16 77 18 93 3 17 25 131 50 255 39 196 87 441 102 520 2 14 12 60 20
103 9 43 14 81 11 83 -3 3 -108 40 -233 83 -126 44 -236 81 -244 84 -8 4 -87
30 -175 60 -233 79 -231 78 -238 122 -14 86 -87 182 -172 226 -69 36 -86 50
-84 67 5 33 -25 108 -62 158 -29 39 -86 85 -247 196 -320 223 -282 211 -647
212 -154 1 -289 0 -300 -2z"/>
</g>
</svg>
