<svg xmlns="http://www.w3.org/2000/svg" enable-background="new 0 0 24 24" width="24.54794521502395" height="24"><rect id="backgroundrect" width="100%" height="100%" x="0" y="0" fill="none" stroke="none" class="" style=""/>
    
<g class="currentLayer" style=""><title>Layer 1</title><path d="M19.308979472090186,0.27498888561005685 C17.366316162591506,0.27498888561005685 15.791475860730316,1.849828952971005 15.791475860730316,3.7924924969699276 C15.791475860730316,4.02268485105442 15.822541280124645,4.234169127681655 15.86475718596698,4.452024424099903 L7.5106861089872865,9.325232552338058 C6.897075543253975,8.803579262765684 6.107449917559058,8.482497312116422 5.238965026650703,8.482497312116422 C3.296301482651781,8.482497312116422 1.7214614152908325,10.05733761397761 1.7214614152908325,12.000000923476293 C1.7214614152908325,13.942664232974975 3.296301482651781,15.517504534836164 5.238965026650703,15.517504534836164 C6.107449917559058,15.517504534836164 6.897075543253975,15.19642211518642 7.5106861089872865,14.674769294614528 L15.86475718596698,19.547977422852682 C15.822541280124645,19.765832836521053 15.791475860730316,19.977316878648047 15.791475860730316,20.207509349982658 C15.791475860730316,22.15017265948134 17.366316162591506,23.72501296134253 19.308979472090186,23.72501296134253 C21.251642781588867,23.72501296134253 22.826483083450057,22.15017265948134 22.826483083450057,20.207509349982658 C22.826483083450057,18.264846040483977 21.251642781588867,16.690005738622787 19.308979472090186,16.690005738622787 C18.440494932932193,16.690005738622787 17.650869307237276,17.011088158272532 17.037258389753607,17.532740978844423 L8.68318731277391,12.659532850606269 C8.725402632365647,12.4416774369379 8.756468638010574,12.230193394810907 8.756468638010574,12.000000923476293 C8.756468638010574,11.769808452141682 8.725402632365647,11.558324410014688 8.68318731277391,11.340468996346317 L17.037258389753607,6.467260868108163 C17.650869307237276,6.988914157680536 18.440494932932193,7.309996108329798 19.308979472090186,7.309996108329798 C21.251642781588867,7.309996108329798 22.826483083450057,5.7351560409688505 22.826483083450057,3.7924924969699276 C22.826483083450057,1.849828952971005 21.251642781588867,0.27498888561005685 19.308979472090186,0.27498888561005685 z" id="svg_1" class=""/></g></svg>