<svg xmlns="http://www.w3.org/2000/svg" width="24.548" height="24"><rect id="backgroundrect" width="100%" height="100%" x="0" y="0" fill="none" stroke="none"/><g class="currentLayer"><path d="M19.309.275a3.518 3.518 0 0 0-3.518 3.517c0 .23.032.442.074.66L7.51 9.325a3.495 3.495 0 0 0-2.272-.843 3.518 3.518 0 0 0 0 7.036c.868 0 1.658-.322 2.272-.843l8.354 4.873c-.042.218-.074.43-.074.66a3.518 3.518 0 1 0 3.518-3.518c-.869 0-1.658.321-2.272.843L8.683 12.66c.042-.218.073-.43.073-.66 0-.23-.03-.442-.073-.66l8.354-4.873a3.495 3.495 0 0 0 2.272.843 3.518 3.518 0 0 0 0-7.035z" id="svg_1"/></g></svg>