<svg version="1.1" id="mdi-toggle-switch-outline" xmlns="http://www.w3.org/2000/svg" x="0" y="0" viewBox="0 0 512 512" style="enable-background:new 0 0 512 512" xml:space="preserve"><path fill="#90969b" d="M372.36 116.36H139.64C62.6 116.36 0 178.97 0 256s62.6 139.64 139.64 139.64h232.73C449.4 395.64 512 333.03 512 256s-62.6-139.64-139.64-139.64m0 232.73H139.64c-51.43 0-93.09-41.66-93.09-93.09s41.66-93.09 93.09-93.09h232.73c51.43 0 93.09 41.66 93.09 93.09s-41.66 93.09-93.1 93.09"/><path fill="red" d="M372.36 186.18c-38.63 0-69.82 31.19-69.82 69.82s31.19 69.82 69.82 69.82 69.82-31.19 69.82-69.82-31.18-69.82-69.82-69.82z"/></svg>