<svg version="1.1" id="Layer_1" xmlns="http://www.w3.org/2000/svg" x="0" y="0" viewBox="0 0 512 512" style="enable-background:new 0 0 512 512" xml:space="preserve"><g stroke="#39444d" stroke-width="10" fill="#39444d" stroke-linecap="round"><circle cx="148.21" cy="148.21" r="26.95"/><path d="M148.21 121.26v26.95h0v-53.9c-29.78.02-53.88 24.12-53.89 53.89.02 29.78 24.12 53.88 53.89 53.89 29.78-.02 53.88-24.12 53.89-53.89-.02-29.78-24.12-53.88-53.89-53.89v26.95z"/><path d="M26.95 107.79H0v103.99c0 21.61 8.58 42.35 23.87 57.64l218.7 218.7h0c15.79 15.81 36.76 23.91 57.55 23.88 20.75.03 41.83-7.95 57.73-23.87h0l.01-.01 130.26-130.26h0c15.81-15.79 23.91-36.76 23.88-57.55.03-20.75-7.95-41.83-23.87-57.73h0l-.01-.01-218.73-218.7A81.51 81.51 0 0 0 211.79 0h-104C48.25.02.02 48.25 0 107.79h53.9c.05-29.75 24.14-53.84 53.89-53.89h103.99-.01c7.32 0 14.34 2.91 19.52 8.09l218.73 218.7h0l.01.01h0c5.44 5.46 8.06 12.38 8.09 19.62-.03 7.08-2.64 13.97-8.09 19.44h0L319.75 450.01l-.01.01h0c-5.46 5.44-12.38 8.06-19.62 8.09-7.08-.03-13.97-2.64-19.44-8.09h0l-218.7-218.7a27.61 27.61 0 0 1-8.09-19.53v-104H26.95z"/></g></svg>