<svg xmlns="http://www.w3.org/2000/svg" width="300" viewBox="0 0 224.88 225" height="300" version="1.0"><defs><clipPath id="6f3fe732bc"><path d="M22.488 22.547h179.903v179.906H22.488Zm0 0"/></clipPath></defs><g clip-path="url('#6f3fe732bc')"><path fill="#7fafdb" d="M202.39 112.5c0 1.473-.035 2.945-.105 4.414a92.276 92.276 0 0 1-.867 8.785 90.219 90.219 0 0 1-2.898 12.914 93.926 93.926 0 0 1-1.387 4.192 86.08 86.08 0 0 1-1.59 4.117 88.485 88.485 0 0 1-3.773 7.98 86.594 86.594 0 0 1-2.176 3.844 90.788 90.788 0 0 1-4.903 7.34 90.096 90.096 0 0 1-5.602 6.82 87.256 87.256 0 0 1-6.241 6.242 87.231 87.231 0 0 1-3.344 2.887 86.574 86.574 0 0 1-3.48 2.715 89.461 89.461 0 0 1-7.34 4.906 95.061 95.061 0 0 1-3.84 2.176 93.048 93.048 0 0 1-3.946 1.984 90.596 90.596 0 0 1-8.156 3.379 86.202 86.202 0 0 1-4.191 1.383c-1.406.43-2.828.82-4.254 1.18a90.232 90.232 0 0 1-8.656 1.719 87.143 87.143 0 0 1-4.383.543c-1.465.144-2.934.25-4.403.324-1.472.07-2.94.11-4.414.11a92.34 92.34 0 0 1-4.414-.11 91.89 91.89 0 0 1-4.402-.324 86.586 86.586 0 0 1-4.383-.543 91.315 91.315 0 0 1-8.66-1.719 90.319 90.319 0 0 1-4.254-1.18 87.625 87.625 0 0 1-4.191-1.383 90.596 90.596 0 0 1-8.157-3.379 93.049 93.049 0 0 1-3.945-1.984 95.061 95.061 0 0 1-3.84-2.176 92.348 92.348 0 0 1-3.73-2.363 92.32 92.32 0 0 1-3.61-2.543 86.574 86.574 0 0 1-3.48-2.715 86.761 86.761 0 0 1-3.344-2.887c-1.09-.988-2.156-2-3.195-3.043a90.096 90.096 0 0 1-5.93-6.54c-.933-1.14-1.84-2.3-2.715-3.48a90.788 90.788 0 0 1-4.906-7.34 90.698 90.698 0 0 1-4.16-7.784 90.448 90.448 0 0 1-4.766-12.348 93.986 93.986 0 0 1-1.175-4.258 89.206 89.206 0 0 1-2.262-13.039 87.428 87.428 0 0 1-.324-4.402 87.488 87.488 0 0 1-.11-4.414c0-1.473.035-2.941.11-4.414.07-1.469.18-2.938.324-4.402a90.219 90.219 0 0 1 2.262-13.04c.359-1.43.75-2.847 1.175-4.257a90.448 90.448 0 0 1 8.926-20.133 90.788 90.788 0 0 1 4.906-7.34 92.496 92.496 0 0 1 2.715-3.48 90.096 90.096 0 0 1 9.125-9.582 90.322 90.322 0 0 1 3.344-2.887 86.574 86.574 0 0 1 3.48-2.715 92.32 92.32 0 0 1 3.61-2.543 92.348 92.348 0 0 1 3.73-2.363 95.061 95.061 0 0 1 3.84-2.176 90.478 90.478 0 0 1 12.102-5.363 87.625 87.625 0 0 1 4.191-1.383c1.41-.43 2.828-.82 4.254-1.18a91.315 91.315 0 0 1 8.66-1.719 86.586 86.586 0 0 1 4.383-.543 91.89 91.89 0 0 1 4.402-.324 92.34 92.34 0 0 1 4.414-.11c1.473 0 2.942.04 4.414.11 1.47.074 2.938.18 4.403.324 1.465.145 2.926.325 4.379.543a90.232 90.232 0 0 1 8.66 1.719c1.426.36 2.848.75 4.254 1.18 1.41.426 2.808.887 4.191 1.383a90.596 90.596 0 0 1 8.156 3.379 93.048 93.048 0 0 1 3.946 1.984 95.061 95.061 0 0 1 3.84 2.176 89.461 89.461 0 0 1 7.34 4.906 86.574 86.574 0 0 1 3.48 2.715 87.231 87.231 0 0 1 3.344 2.887c1.09.988 2.156 2 3.199 3.043a87.256 87.256 0 0 1 3.043 3.199 90.096 90.096 0 0 1 5.601 6.82 92.224 92.224 0 0 1 4.903 7.34 86.594 86.594 0 0 1 2.176 3.844 88.485 88.485 0 0 1 3.773 7.98 86.08 86.08 0 0 1 1.59 4.117 93.926 93.926 0 0 1 1.387 4.192c.425 1.41.82 2.828 1.175 4.258a89.205 89.205 0 0 1 2.262 13.039c.145 1.464.254 2.933.328 4.402a92.46 92.46 0 0 1 .106 4.414Zm0 0"/></g><path fill="#fff" d="M59.926 111.719s44.976-18.457 60.574-24.957c5.98-2.598 26.258-10.918 26.258-10.918s9.36-3.64 8.578 5.199c-.258 3.64-2.34 16.379-4.418 30.156-3.121 19.5-6.5 40.817-6.5 40.817s-.52 5.98-4.941 7.02c-4.418 1.038-11.7-3.641-12.997-4.68-1.043-.778-19.5-12.477-26.257-18.2-1.82-1.558-3.903-4.68.257-8.316 9.36-8.582 20.54-19.238 27.297-26 3.121-3.117 6.243-10.399-6.757-1.559-18.457 12.739-36.657 24.7-36.657 24.7s-4.16 2.597-11.96.257c-7.798-2.34-16.9-5.457-16.9-5.457s-6.237-3.902 4.423-8.062Zm0 0"/></svg>