<svg class="svg-icon" style="width:1em;height:1em;vertical-align:middle;fill:#7fafdb;overflow:hidden" viewBox="0 0 1024 1024" xmlns="http://www.w3.org/2000/svg"><path d="M512 938.667C276.352 938.667 85.333 747.648 85.333 512S276.352 85.333 512 85.333 938.667 276.352 938.667 512 747.648 938.667 512 938.667zM379.307 561.92l.554-.299 37.12 122.454c4.779 13.269 11.35 15.658 19.328 14.549 8.022-1.067 12.246-5.376 17.494-10.41l50.688-48.982 108.8 80.555c19.882 10.965 34.176 5.29 39.125-18.432l70.699-333.739c7.808-31.061-5.846-43.52-29.952-33.621L277.888 494.42c-28.33 11.35-28.16 27.222-5.12 34.262l106.539 33.28z"/></svg>