<svg xmlns="http://www.w3.org/2000/svg" width="16.917431224768094" height="16.73394497981448"><rect id="backgroundrect" width="100%" height="100%" x="0" y="0" fill="none" stroke="none" class="" style=""/>
    
<g class="currentLayer" style=""><title>Layer 1</title><path style="line-height:normal;text-indent:0;text-align:start;text-decoration-line:none;text-decoration-style:solid;text-decoration-color:#000;text-transform:none;block-progression:tb;isolation:auto;mix-blend-mode:normal" d="M7.270606337616157,0.6743121445178986 C6.2991860520187135,0.6743121445178986 5.499999936670065,1.4734981415179254 5.499999936670065,2.4449185454639912 L5.499999936670065,3.041284590959549 L1.9495412670075893,3.041284590959549 L1.9495412670075893,4.224770814180374 L3.1330274902284145,4.224770814180374 L3.1330274902284145,14.284403711557388 C3.1330274902284145,15.257857818229436 3.934802244993114,16.059633046388626 4.908256825059652,16.059633046388626 L12.009174164384604,16.059633046388626 C12.982628271056651,16.059633046388626 13.784403499215841,15.257857818229436 13.784403499215841,14.284403711557388 L13.784403499215841,4.224770814180374 L14.967889722436666,4.224770814180374 L14.967889722436666,3.041284590959549 L11.417431052774191,3.041284590959549 L11.417431052774191,2.4449185454639912 C11.417431052774191,1.4734981415179254 10.618244937425542,0.6743121445178986 9.646824651828098,0.6743121445178986 L7.270606337616157,0.6743121445178986 zM7.270606337616157,1.8577983677387238 L9.646824651828098,1.8577983677387238 C9.979606420917248,1.8577983677387238 10.233944829553366,2.1121368947234633 10.233944829553366,2.4449185454639912 L10.233944829553366,3.041284590959549 L6.68348615989089,3.041284590959549 L6.68348615989089,2.4449185454639912 C6.68348615989089,2.1121368947234633 6.937824686875629,1.8577983677387238 7.270606337616157,1.8577983677387238 zM4.31651371344924,4.224770814180374 L5.499999936670065,4.224770814180374 L6.68348615989089,4.224770814180374 L10.233944829553366,4.224770814180374 L11.417431052774191,4.224770814180374 L12.600917275995016,4.224770814180374 L12.600917275995016,14.284403711557388 C12.600917275995016,14.617518395321131 12.342288848148346,14.876146823167801 12.009174164384604,14.876146823167801 L4.908256825059652,14.876146823167801 C4.5751426146903995,14.876146823167801 4.31651371344924,14.617518395321131 4.31651371344924,14.284403711557388 L4.31651371344924,4.224770814180374 zM5.499999936670065,5.408257037401199 L5.499999936670065,13.692660599946976 L6.68348615989089,13.692660599946976 L6.68348615989089,5.408257037401199 L5.499999936670065,5.408257037401199 zM7.866972383111715,5.408257037401199 L7.866972383111715,13.692660599946976 L9.05045860633254,13.692660599946976 L9.05045860633254,5.408257037401199 L7.866972383111715,5.408257037401199 zM10.233944829553366,5.408257037401199 L10.233944829553366,13.692660599946976 L11.417431052774191,13.692660599946976 L11.417431052774191,5.408257037401199 L10.233944829553366,5.408257037401199 z" font-weight="400" font-family="sans-serif" white-space="normal" overflow="visible" id="svg_1" class=""/></g></svg>