<svg xmlns="http://www.w3.org/2000/svg" width="14.173515949920173" height="16.365296810015963" style=""><rect id="backgroundrect" width="100%" height="100%" x="0" y="0" fill="none" stroke="none" class="" style=""/>
    
<g class="currentLayer" style=""><title>Layer 1</title><path style="line-height:normal;text-indent:0;text-align:start;text-decoration-line:none;text-decoration-style:solid;text-decoration-color:#000;text-transform:none;block-progression:tb;isolation:auto;mix-blend-mode:normal" d="M5.848641169798191,0.16620225678010248 C4.836333555015879,0.16620225678010248 4.003509490920734,0.9990261975453025 4.003509490920734,2.011333935657559 L4.003509490920734,2.6328011810954854 L0.30361110444765754,2.6328011810954854 L0.30361110444765754,3.866100643253178 L1.5369105666053495,3.866100643253178 L1.5369105666053495,14.349146071593555 C1.5369105666053495,15.363573111501587 2.372432226614073,16.199095264830092 3.3868597598418875,16.199095264830092 L10.786656532788037,16.199095264830092 C11.801083572696065,16.199095264830092 12.636605726024573,15.363573111501587 12.636605726024573,14.349146071593555 L12.636605726024573,3.866100643253178 L13.869905188182265,3.866100643253178 L13.869905188182265,2.6328011810954854 L10.17000680170919,2.6328011810954854 L10.17000680170919,2.011333935657559 C10.17000680170919,0.9990261975453025 9.337182737614045,0.16620225678010248 8.324875122831733,0.16620225678010248 L5.848641169798191,0.16620225678010248 zM5.848641169798191,1.3995017189377936 L8.324875122831733,1.3995017189377936 C8.67166376200709,1.3995017189377936 8.936707339551498,1.664545419812148 8.936707339551498,2.011333935657559 L8.936707339551498,2.6328011810954854 L5.236808953078427,2.6328011810954854 L5.236808953078427,2.011333935657559 C5.236808953078427,1.664545419812148 5.501852653952778,1.3995017189377936 5.848641169798191,1.3995017189377936 zM2.7702100287630413,3.866100643253178 L4.003509490920734,3.866100643253178 L5.236808953078427,3.866100643253178 L8.936707339551498,3.866100643253178 L10.17000680170919,3.866100643253178 L11.403306263866883,3.866100643253178 L11.403306263866883,14.349146071593555 C11.403306263866883,14.69628163790762 11.1337920991021,14.965795802672403 10.786656532788037,14.965795802672403 L3.3868597598418875,14.965795802672403 C3.0397246868476087,14.965795802672403 2.7702100287630413,14.69628163790762 2.7702100287630413,14.349146071593555 L2.7702100287630413,3.866100643253178 zM4.003509490920734,5.099400105410869 L4.003509490920734,13.73249634051471 L5.236808953078427,13.73249634051471 L5.236808953078427,5.099400105410869 L4.003509490920734,5.099400105410869 zM6.470108415236116,5.099400105410869 L6.470108415236116,13.73249634051471 L7.703407877393808,13.73249634051471 L7.703407877393808,5.099400105410869 L6.470108415236116,5.099400105410869 zM8.936707339551498,5.099400105410869 L8.936707339551498,13.73249634051471 L10.17000680170919,13.73249634051471 L10.17000680170919,5.099400105410869 L8.936707339551498,5.099400105410869 z" font-weight="400" font-family="sans-serif" white-space="normal" overflow="visible" id="svg_1" class="" stroke-opacity="0" stroke="#ffffff" fill-opacity="1" fill="#232323"/></g></svg>