<svg xmlns="http://www.w3.org/2000/svg" width="14.174" height="16.365"><rect id="backgroundrect" width="100%" height="100%" x="0" y="0" fill="none" stroke="none"/><g class="currentLayer"><path style="text-indent:0;text-align:start;text-transform:none;block-progression:tb;isolation:auto;mix-blend-mode:normal;line-height:normal;text-decoration-line:none;text-decoration-style:solid;text-decoration-color:#000" d="M5.849.166a1.854 1.854 0 0 0-1.845 1.845v.622h-3.7v1.233h1.233V14.35a1.86 1.86 0 0 0 1.85 1.85h7.4a1.86 1.86 0 0 0 1.85-1.85V3.866h1.233V2.633h-3.7V2.01A1.854 1.854 0 0 0 8.325.166H5.849zm0 1.234h2.476a.6.6 0 0 1 .612.611v.622h-3.7V2.01a.6.6 0 0 1 .612-.611zM2.77 3.866H11.403V14.35c0 .347-.27.617-.616.617h-7.4a.608.608 0 0 1-.617-.617V3.866zM4.004 5.1v8.633h1.233V5.1H4.004zm2.466 0v8.633h1.233V5.1H6.47zm2.467 0v8.633h1.233V5.1H8.937z" font-weight="400" font-family="sans-serif" overflow="visible" id="svg_1" stroke-opacity="0" stroke="#fff" fill-opacity="1" fill="#232323"/></g></svg>