<svg xmlns="http://www.w3.org/2000/svg" width="18.91803270743376" height="18.75409827864128" style=""><rect id="backgroundrect" width="100%" height="100%" x="0" y="0" fill="none" stroke="none"/>
    
<g class="currentLayer" style=""><title>Layer 1</title><path d="M9.459016020674746,2.032785999518566 C6.798556959156649,2.032785999518566 4.438065115841119,2.3316056767180626 3.0040978784045187,2.5491794509001844 C1.8189175304335512,2.7291138801816013 0.8692125962926014,3.642786026826145 0.6516388221104805,4.872949982117467 C0.46527816321186943,5.920425409720001 0.2786879961126444,7.458359862034769 0.2786879961126444,9.377048419168247 C0.2786879961126444,11.294818943499271 0.46527816321186943,12.833671428616492 0.6516388221104805,13.881146856219027 C0.8701306290950583,15.11131081151035 1.8189175304335512,16.02590099095735 3.0040978784045187,16.20491738743631 C4.442655279853399,16.42249116161844 6.8132454839959475,16.721310838817928 9.459016020674746,16.721310838817928 C12.104786557353542,16.721310838817928 14.474458728693634,16.42249116161844 15.913934162944972,16.20491738743631 C17.1000325437184,16.02590099095735 18.04881944505689,15.112228844312806 18.26639321923901,13.881146856219027 C18.451835845335168,12.832753395814036 18.639344045236847,11.290228779486988 18.639344045236847,9.377048419168247 C18.639344045236847,7.462950026047048 18.45275387813762,5.921343442522457 18.26639321923901,4.872949982117467 C18.04881944505689,3.642786026826145 17.099114510915943,2.7291138801816013 15.913934162944972,2.5491794509001844 C14.479966925508371,2.3316056767180626 12.118557049390386,2.032785999518566 9.459016020674746,2.032785999518566 zM9.459016020674746,3.8688516044309864 C11.88537671756651,3.8688516044309864 14.056983311776676,4.071277837372581 15.368852186486599,4.270490955505578 C15.933442359997166,4.355868006134006 16.35711449833071,4.810982767951672 16.459016139403346,5.389343433499084 C16.622425978240553,6.307376235955294 16.803278440324426,7.6603270785751345 16.803278440324426,9.377048419168247 C16.803278440324426,11.092851726958903 16.621507945438097,12.4467206023812 16.459016139403346,13.36475340483741 C16.356196465528253,13.94403210318728 15.934360392799622,14.398228832202488 15.368852186486599,14.483605882830915 C14.051475114961939,14.682819000963914 11.870688192727213,14.885245233905508 9.459016020674746,14.885245233905508 C7.046425815819827,14.885245233905508 4.8656388935851,14.682819000963914 3.549179854862893,14.483605882830915 C2.9845896813523236,14.398228832202488 2.533147050744482,13.943114070384821 2.4303273768693874,13.36475340483741 C2.267835570834638,12.448556667986114 2.1147536010250647,11.098359923773641 2.1147536010250647,9.377048419168247 C2.1147536010250647,7.654818881760397 2.267835570834638,6.3055401703503815 2.4303273768693874,5.389343433499084 C2.533147050744482,4.810982767951672 2.9845896813523236,4.355868006134006 3.549179854862893,4.270490955505578 C4.861048729572818,4.071277837372581 7.032655323782981,3.8688516044309864 9.459016020674746,3.8688516044309864 zM6.704917613306115,5.704917209343407 L6.704917613306115,13.049179628993087 L13.131147230499586,9.377048419168247 L6.704917613306115,5.704917209343407 z" id="svg_1" class="selected" fill-opacity="1" fill="#e54b6f"/></g></svg>