<svg xmlns="http://www.w3.org/2000/svg" width="15" height="18.066"><rect id="backgroundrect" width="100%" height="100%" x="0" y="0" fill="none" stroke="none"/><g class="currentLayer"><g id="Component_17_1" data-name="Component 17 – 1"><g id="Subtraction_1" data-name="Subtraction 1" style="fill:none"><path d="M10.983 17.658H4.016a6.978 6.978 0 1 1 6.967 0z" id="svg_1" style="stroke:none"/><path d="M10.443 15.797a5.14 5.14 0 0 0 2.175-4.187A5.123 5.123 0 0 0 7.5 6.492a5.123 5.123 0 0 0-5.118 5.118 5.14 5.14 0 0 0 2.175 4.187h5.886m.54 1.861H4.016A7.004 7.004 0 0 1 .522 11.61 6.986 6.986 0 0 1 7.5 4.63c3.848 0 6.978 3.13 6.978 6.979a7.004 7.004 0 0 1-3.494 6.048z" id="svg_2" style="fill:#ff6287;stroke:none"/></g><path id="Path_254" data-name="Path 254" d="M3.778 6.972V3.173" style="stroke:#f9003c;stroke-width:2px;fill:none"/></g></g></svg>