<svg width="15" height="18.066" xmlns="http://www.w3.org/2000/svg"><g class="currentLayer"><g data-name="Component 17 – 1" id="Component_17_1" fill="none"><g class="cls-1" data-name="Subtraction 1" id="Subtraction_1"><path id="svg_1" d="M10.983 17.658H4.016a6.978 6.978 0 1 1 6.967 0z" class="cls-3"/><path fill="#ff6287" id="svg_2" d="M10.443 15.797a5.14 5.14 0 0 0 2.175-4.187A5.123 5.123 0 0 0 7.5 6.492a5.123 5.123 0 0 0-5.118 5.118 5.14 5.14 0 0 0 2.175 4.187h5.886m.54 1.861H4.016A7.004 7.004 0 0 1 .522 11.61 6.986 6.986 0 0 1 7.5 4.632c3.848 0 6.978 3.13 6.978 6.978a7.004 7.004 0 0 1-3.494 6.048z" class="cls-4"/></g><path stroke-width="2" stroke="#f9003c" d="M3.778 6.972V3.173" class="cls-2" data-name="Path 254" id="Path_254"/></g></g><rect fill="none" y="0" x="0" height="100%" width="100%" id="backgroundrect"/></svg>