<svg xmlns="http://www.w3.org/2000/svg" width="15" height="18.066" style=""><rect id="backgroundrect" width="100%" height="100%" x="0" y="0" fill="none" stroke="none"/>
  <defs>
    <style>
      .cls-1, .cls-2 {
        fill: none;
      }

      .cls-2 {
        stroke: #ff6287;
        stroke-width: 2px;
      }

      .cls-3, .cls-4 {
        stroke: none;
      }

      .cls-4 {
        fill: #ff6287;
      }
    </style>
  </defs>
  
<g class="currentLayer" style=""><title>Layer 1</title><g id="Component_17_1" data-name="Component 17 – 1" class="">
    <g id="Subtraction_1" data-name="Subtraction 1" class="cls-1">
      <path class="cls-3" d="M10.983379809070952,17.65765177334454 H4.016248076449652 a6.978297007833838,6.978297007833838 0 1 1 6.967131732621304,0 z" id="svg_1"/>
      <path class="cls-4" d="M10.442975516861262,15.797145252522718 C11.794734839824216,14.84376534480916 12.617604429772319,13.278391330839877 12.617604429772319,11.609515299272987 C12.617604429772319,8.787920136192783 10.321689060459088,6.492376782644487 7.499627602126695,6.492376782644487 C4.678031995378323,6.492376782644487 2.3824893073322873,8.787920136192783 2.3824893073322873,11.609515299272987 C2.3824893073322873,13.27850136054734 3.2051610212742423,14.843794626908723 4.556881301437765,15.797145252522718 L10.442975516861262,15.797145252522718 M10.983444989249918,17.65802445461174 L10.983192985726381,17.65802445461174 L4.016378110267792,17.65802445461174 C1.8605500799507824,16.413682520892912 0.5216101052432647,14.096077989164819 0.5216101052432647,11.609515299272987 C0.5216101052432647,7.761822127220754 3.651933986406295,4.631497611434764 7.499627602126695,4.631497611434764 C11.34777642139491,4.631497611434764 14.478483631861343,7.761822127220754 14.478483631861343,11.609515299272987 C14.478483631861343,14.095994579547863 13.13934755582037,16.413607984639473 10.983657949974027,17.657902889531723 L10.983444989249918,17.65802445461174 z" id="svg_2"/>
    </g>
    <path id="Path_254" data-name="Path 254" class="cls-2" d="M3.778055701852145,6.972483380751985 V3.1734984896872436 a-1.3956594015667676,-1.3956594015667676 0 0 1 1.3956594015667676,-1.3956594015667676 H10.050149052493197 a-1.5519732545422527,-1.5519732545422527 0 0 1 0.8876393793964646,0.3191407831582706 A-1.2886588474466492,-1.2886588474466492 0 0 1 11.445808454059964,3.1734984896872436 L11.437434497650564,6.572394352302843 "/>
  </g></g></svg>