<svg xmlns="http://www.w3.org/2000/svg" width="15" height="18.066" viewBox="0 0 15 18.066">
  <defs>
    <style>
      .cls-1, .cls-2 {
        fill: none;
      }

      .cls-2 {
        stroke: #7fafdb;
        stroke-width: 2px;
      }

      .cls-3, .cls-4 {
        stroke: none;
      }

      .cls-4 {
        fill: #7fafdb;
      }
    </style>
  </defs>
  <g id="Component_17_1" data-name="Component 17 – 1" transform="translate(0 1)">
    <g id="Subtraction_1" data-name="Subtraction 1" class="cls-1" transform="translate(-8 3.066)">
      <path class="cls-3" d="M19.244,14H11.756a7.5,7.5,0,1,1,7.488,0Z"/>
      <path class="cls-4" d="M 18.66319465637207 12.00040054321289 C 20.11601257324219 10.97574520111084 21.00040054321289 9.293342590332031 21.00040054321289 7.49970006942749 C 21.00040054321289 4.467160224914551 18.53284072875977 2.000000238418579 15.49979972839355 2.000000238418579 C 12.46725940704346 2.000000238418579 10.00010013580322 4.467160224914551 10.00010013580322 7.49970006942749 C 10.00010013580322 9.293460845947266 10.88427543640137 10.97577667236328 12.33705139160156 12.00040054321289 L 18.66319465637207 12.00040054321289 M 19.24407005310059 14.00040054321289 L 19.24379920959473 14.00040054321289 L 11.75613975524902 14.00040054321289 C 9.439140319824219 12.66303062438965 8.000100135803223 10.17216014862061 8.000100135803223 7.49970006942749 C 8.000100135803223 3.364350318908691 11.3644495010376 2.716064386731887e-07 15.49979972839355 2.716064386731887e-07 C 19.63563919067383 2.716064386731887e-07 23.00040054321289 3.364350318908691 23.00040054321289 7.49970006942749 C 23.00040054321289 10.17207050323486 21.56114959716797 12.66295051574707 19.24429893493652 14.00026988983154 L 19.24407005310059 14.00040054321289 Z"/>
    </g>
    <path id="Path_254" data-name="Path 254" class="cls-2" d="M8.241.55V4.633a1.5,1.5,0,0,1-1.5,1.5H1.5a1.668,1.668,0,0,1-.954-.343A1.385,1.385,0,0,1,0,4.633L.009.98" transform="translate(11.741 6.132) rotate(180)"/>
  </g>
</svg>
