<svg xmlns="http://www.w3.org/2000/svg" width="15" height="18.066"><g id="Component_17_1" data-name="Component 17 – 1" transform="translate(0 1)"><g id="Subtraction_1" data-name="Subtraction 1" style="fill:none"><path d="M19.244 14h-7.488a7.5 7.5 0 1 1 7.488 0Z" style="stroke:none" transform="translate(-8 3.066)"/><path d="M18.663 12A5.524 5.524 0 0 0 21 7.5C21 4.467 18.533 2 15.5 2A5.506 5.506 0 0 0 10 7.5c0 1.793.884 3.476 2.337 4.5h6.326m.581 2h-7.488A7.528 7.528 0 0 1 8 7.5C8 3.364 11.364 0 15.5 0S23 3.364 23 7.5a7.528 7.528 0 0 1-3.756 6.5Z" style="fill:#f9003c;stroke:none" transform="translate(-8 3.066)"/></g><path id="Path_254" data-name="Path 254" d="M8.241.55v4.083a1.5 1.5 0 0 1-1.5 1.5H1.5a1.668 1.668 0 0 1-.954-.343A1.385 1.385 0 0 1 0 4.633L.009.98" transform="rotate(180 5.87 3.066)" style="stroke:#f9003c;stroke-width:2px;fill:none"/></g></svg>